<svg width="36" height="36" viewBox="0 0 36 36" fill="none" xmlns="http://www.w3.org/2000/svg">
<path d="M0 18C0 8.05888 8.05888 0 18 0C27.9411 0 36 8.05888 36 18C36 27.9411 27.9411 36 18 36C8.05888 36 0 27.9411 0 18Z" fill="url(#paint0_linear_1134_21797)"/>
<path fill-rule="evenodd" clip-rule="evenodd" d="M16.5731 8.47907C16.4586 8.20135 16.3756 8 16.1729 8C15.9702 8 15.8872 8.20135 15.7727 8.47907C15.6578 8.75767 15.5113 9.11314 15.1804 9.41929C14.847 9.72785 14.4823 9.87382 14.203 9.98565C13.9289 10.0954 13.7368 10.1723 13.7368 10.3377C13.7368 10.5031 13.9289 10.5799 14.203 10.6897C14.4823 10.8015 14.847 10.9475 15.1804 11.256C15.4997 11.5514 15.6263 11.8928 15.7278 12.1667C15.8365 12.4596 15.9165 12.6753 16.1729 12.6753C16.4293 12.6753 16.5094 12.4596 16.618 12.1667C16.7195 11.8928 16.8461 11.5514 17.1654 11.256C17.507 10.94 17.8812 10.7833 18.1631 10.6654C18.4264 10.5552 18.609 10.4788 18.609 10.3377C18.609 10.1965 18.4264 10.1201 18.1631 10.0099C17.8812 9.89198 17.507 9.73537 17.1654 9.41929C16.8345 9.11314 16.688 8.75767 16.5731 8.47907ZM20.3684 11.6364C20.9202 11.6364 21.1461 12.2236 21.4578 13.0336C21.7705 13.8462 22.1695 14.883 23.0702 15.776C24 16.6978 25.0189 17.1547 25.7861 17.4987C26.5028 17.82 27 18.0429 27 18.4545C27 18.8662 26.5028 19.0891 25.7861 19.4104C25.0189 19.7544 24 20.2112 23.0702 21.1331C22.2011 21.9948 21.8565 22.9903 21.58 23.7892C21.2843 24.6434 21.0665 25.2727 20.3684 25.2727C19.6703 25.2727 19.4525 24.6434 19.1568 23.7892C18.8803 22.9903 18.5357 21.9948 17.6666 21.1331C16.7589 20.2332 15.7663 19.8074 15.0058 19.4812C14.2596 19.1612 13.7368 18.9369 13.7368 18.4545C13.7368 17.9721 14.2596 17.7479 15.0058 17.4278C15.7663 17.1017 16.7589 16.6759 17.6666 15.776C18.5673 14.883 18.9663 13.8462 19.279 13.0336C19.5907 12.2236 19.8167 11.6364 20.3684 11.6364ZM12.6541 20.9865C12.9582 20.9865 13.0827 21.2885 13.2544 21.7051C13.4267 22.123 13.6466 22.6562 14.1429 23.1154C14.6552 23.5896 15.2166 23.8245 15.6394 24.0014C16.0343 24.1667 16.3083 24.2813 16.3083 24.493C16.3083 24.7047 16.0343 24.8193 15.6394 24.9846C15.2166 25.1615 14.6552 25.3964 14.1429 25.8706C13.664 26.3137 13.4741 26.8257 13.3217 27.2365C13.1588 27.6759 13.0388 27.9995 12.6541 27.9995C12.2695 27.9995 12.1495 27.6759 11.9865 27.2365C11.8342 26.8257 11.6443 26.3137 11.1654 25.8706C10.6652 25.4077 10.1183 25.1888 9.69925 25.021C9.28807 24.8564 9 24.7411 9 24.493C9 24.2449 9.28807 24.1296 9.69925 23.965C10.1183 23.7972 10.6652 23.5783 11.1654 23.1154C11.6617 22.6562 11.8815 22.123 12.0538 21.7051C12.2256 21.2885 12.3501 20.9865 12.6541 20.9865Z" fill="white"/>
<defs>
<linearGradient id="paint0_linear_1134_21797" x1="41" y1="18" x2="-6" y2="18" gradientUnits="userSpaceOnUse">
<stop stop-color="#1C9401"/>
<stop offset="1" stop-color="#0043B3"/>
</linearGradient>
</defs>
</svg>
