<svg width="48" height="49" viewBox="0 0 48 49" fill="none" xmlns="http://www.w3.org/2000/svg">
<path d="M0 24.4414C0 11.1866 10.7452 0.441406 24 0.441406C37.2548 0.441406 48 11.1866 48 24.4414C48 37.6962 37.2548 48.4414 24 48.4414C10.7452 48.4414 0 37.6962 0 24.4414Z" fill="#E0DDFF"/>
<g clip-path="url(#clip0_99_138533)">
<path d="M22.115 31.2368C22.999 30.1932 23.3771 28.8209 23.1523 27.4718L22.491 23.5039H14.6526L13.9913 27.4718C13.7664 28.8209 14.1445 30.1932 15.0286 31.2368C15.707 32.0376 16.6257 32.575 17.6343 32.7823V38.5664H15.1332V40.4414H22.0103V38.5664H19.5093V32.7823C20.5179 32.575 21.4366 32.0377 22.115 31.2368Z" fill="#6938EF"/>
<path d="M34.0718 25.3789H29.6968V32.2539H34.0718V25.3789Z" fill="#6938EF"/>
<path d="M30.6343 8.44141H25.0093V12.1914H30.6343V8.44141Z" fill="#6938EF"/>
<path d="M34.0718 23.5039V21.6914C34.0718 19.6008 32.5977 17.8478 30.6343 17.4175V14.0664H25.0093V17.4175C23.0656 17.8435 21.6023 19.566 21.5732 21.6289H24.0793L24.3405 23.1957L25.0018 27.1635C25.3174 29.0573 24.7867 30.9837 23.5457 32.4488C22.9958 33.0978 22.3217 33.6308 21.5718 34.02V36.6914H23.8853V40.4414H34.0718V34.1289H27.8218V23.5039H34.0718Z" fill="#6938EF"/>
</g>
<defs>
<clipPath id="clip0_99_138533">
<rect width="32" height="32" fill="white" transform="translate(8 8.44141)"/>
</clipPath>
</defs>
</svg>
