<svg width="40" height="40" viewBox="0 0 40 40" fill="none" xmlns="http://www.w3.org/2000/svg">
<g id="fi_4166695" clip-path="url(#clip0_584_127512)">
<g id="Group">
<path id="Vector" d="M1.21359 7.34497C2.29627 8.30829 3.96722 8.47141 5.21654 7.76448L10.3554 12.4096C10.764 11.7362 11.2421 11.1081 11.778 10.5362L6.77038 6.00987C8.1986 2.33893 3.52185 -0.578441 0.855008 2.38659C-0.412907 3.85215 -0.251976 6.07705 1.21359 7.34497Z" fill="#FA4D56"/>
<path id="Vector_2" d="M29.5904 31.0448C29.0857 30.9222 28.5725 30.9128 28.078 31.0112L26.2241 27.6731C25.5742 28.102 24.8781 28.4668 24.1445 28.7559L26.0609 32.2081C25.109 33.3228 24.9732 35.0446 25.7601 36.2907C26.7181 37.927 28.9855 38.4805 30.5911 37.4625C33.2545 35.8376 32.6213 31.782 29.5904 31.0448Z" fill="#FA4D56"/>
<path id="Vector_3" d="M12.0056 26.2012L6.05979 32.1478C2.50495 30.5133 -0.690308 34.9504 2.0584 37.8061C3.42905 39.1768 5.65934 39.1768 7.03006 37.8061C8.09963 36.7326 8.34673 35.1343 7.71597 33.8055L13.8298 27.6925C13.1704 27.2589 12.5595 26.759 12.0056 26.2012Z" fill="#FA4D56"/>
<path id="Vector_4" d="M38.0824 23.5123C36.7333 22.8287 35.1466 23.1014 34.0982 24.0763L30.6132 22.1311C30.3406 22.8733 29.9922 23.5787 29.5781 24.238L33.0139 26.1559C32.6898 28.1903 34.3765 30.1969 36.4888 30.1636C40.1527 30.1386 41.3757 25.2329 38.0824 23.5123Z" fill="#FA4D56"/>
<path id="Vector_5" d="M29.8101 12.6471L32.7897 10.0894C35.004 11.3756 37.8692 9.87453 38.0488 7.30746C38.2284 5.42465 36.7043 3.64246 34.8107 3.53504C32.248 3.32356 30.3273 5.92494 31.2639 8.3114L28.4336 10.7402C28.9554 11.3245 29.4179 11.9635 29.8101 12.6471Z" fill="#FA4D56"/>
<path id="Vector_6" d="M17.1992 18.3679C16.5531 18.3679 16.0273 18.8937 16.0273 19.5397C16.0918 21.0943 18.3068 21.0938 18.371 19.5397C18.371 18.8937 17.8452 18.3679 17.1992 18.3679Z" fill="#FA4D56"/>
<path id="Vector_7" d="M28.957 18.2508C28.957 13.3182 24.9447 9.30591 20.0121 9.30591C8.14529 9.79675 8.14873 26.7067 20.0121 27.1958C24.9446 27.1958 28.957 23.1834 28.957 18.2508ZM17.1997 23.0553C15.2615 23.0553 13.6842 21.478 13.6842 19.5398C13.8776 14.8761 20.5224 14.8775 20.7151 19.5398C20.7151 21.478 19.1379 23.0553 17.1997 23.0553ZM21.0667 13.9932H18.723V11.6496H21.0667V13.9932ZM25.4024 22.2741H23.0588V19.9305H25.4024V22.2741ZM25.7931 17.1181H23.4494V14.7744H25.7931V17.1181Z" fill="#FA4D56"/>
</g>
</g>
<defs>
<clipPath id="clip0_584_127512">
<rect width="40" height="40" fill="white"/>
</clipPath>
</defs>
</svg>
