<svg width="271" height="111" viewBox="0 0 271 111" fill="none" xmlns="http://www.w3.org/2000/svg">
<path d="M0 24.4414C0 11.1866 10.7452 0.441406 24 0.441406C37.2548 0.441406 48 11.1866 48 24.4414C48 37.6962 37.2548 48.4414 24 48.4414C10.7452 48.4414 0 37.6962 0 24.4414Z" fill="#FFF2E8"/>
<g clip-path="url(#clip0_99_137601)">
<path d="M30.1219 23.0569C30.5693 21.294 29.1246 19.4853 27.3089 19.5296C26.9465 17.7472 24.8625 16.7445 23.244 17.5719C22.1441 16.1235 19.8317 16.1241 18.7323 17.5719C17.113 16.7442 15.0295 17.748 14.6674 19.5296C12.8509 19.4855 11.4071 21.2948 11.8544 23.0569C11.1983 23.3665 10.6647 23.9293 10.3975 24.6434H31.5788C31.3115 23.9293 30.7778 23.3664 30.1219 23.0569Z" fill="#FF832B"/>
<path d="M19.6353 12.3954C19.6353 13.0252 19.8803 13.6172 20.3254 14.0622C21.2358 14.9077 22.4969 13.6476 21.651 12.7366C21.4629 12.5484 21.4629 12.2423 21.651 12.0542C22.5651 11.1772 22.5651 9.59742 21.651 8.72055C20.7407 7.87498 19.4796 9.13524 20.3255 10.0462C20.5136 10.2343 20.5136 10.5405 20.3255 10.7286C19.8803 11.1736 19.6353 11.7655 19.6353 12.3954Z" fill="#FF832B"/>
<path d="M11.603 14.4032C11.603 15.033 11.8481 15.625 12.2932 16.07C13.2035 16.9155 14.4647 15.6554 13.6188 14.7444C13.4306 14.5562 13.4306 14.2501 13.6188 14.062C14.5328 13.1851 14.5329 11.6052 13.6188 10.7284C12.7084 9.88279 11.4474 11.143 12.2932 12.054C12.4814 12.2421 12.4814 12.5483 12.2932 12.7364C11.8481 13.1814 11.603 13.7734 11.603 14.4032Z" fill="#FF832B"/>
<path d="M27.667 14.4032C27.667 15.033 27.9121 15.625 28.3571 16.07C29.2675 16.9155 30.5286 15.6554 29.6828 14.7444C29.4946 14.5562 29.4946 14.2501 29.6828 14.062C30.5968 13.1851 30.5969 11.6052 29.6828 10.7284C28.7724 9.88279 27.5113 11.143 28.3572 12.054C28.5454 12.2421 28.5454 12.5483 28.3572 12.7364C27.9121 13.1814 27.667 13.7734 27.667 14.4032Z" fill="#FF832B"/>
<path d="M24.0667 33.4134C24.0667 30.6363 25.3451 28.1525 27.3439 26.5186H8.9398C8.42213 26.5186 8.00244 26.9382 8.00244 27.4559C8.00244 32.5166 10.9128 36.9099 15.1473 39.0515C14.7994 39.6544 15.2661 40.4551 15.968 40.4415H26.0081C26.3896 40.4415 26.7173 40.2132 26.8636 39.886C25.1426 38.2618 24.0667 35.961 24.0667 33.4134Z" fill="#FF832B"/>
<path d="M32.9696 26.3853C29.0943 26.3853 25.9414 29.538 25.9414 33.4133C26.2947 42.7243 39.6458 42.7218 39.9977 33.4133C39.9977 29.538 36.8449 26.3853 32.9696 26.3853ZM36.0562 35.1745C36.9021 36.0852 35.641 37.3458 34.7306 36.5001L32.9695 34.739L31.2084 36.5001C30.8424 36.8661 30.2488 36.8662 29.8828 36.5001C29.5167 36.134 29.5167 35.5405 29.8828 35.1745L31.6439 33.4133L29.8828 31.6522C29.5167 31.2862 29.5167 30.6927 29.8828 30.3266C30.2488 29.9605 30.8423 29.9605 31.2084 30.3266L32.9695 32.0877L34.7306 30.3266C35.0966 29.9605 35.6902 29.9605 36.0562 30.3266C36.4223 30.6927 36.4223 31.2862 36.0562 31.6522L34.2951 33.4133L36.0562 35.1745Z" fill="#FF832B"/>
</g>
<path d="M0.0439453 79.4414L5.40527 66.4863H7.20703L12.5684 79.4414H10.292L8.83301 75.8203L8.61328 75.0117L6.33691 69.1846H6.2666L3.99902 75.0117L3.7793 75.8203L2.32031 79.4414H0.0439453ZM2.76855 76.4004V74.5459H9.83496V76.4004H2.76855ZM13.7021 83.1328V70.0635H15.7148V71.1533H15.9873L15.5303 72.085V77.2705L16.1191 78.3428H15.7764V83.1328H13.7021ZM18.6152 79.582C17.8301 79.582 17.127 79.3682 16.5059 78.9404C15.8906 78.5127 15.4043 77.9297 15.0469 77.1914C14.6895 76.4531 14.5078 75.624 14.502 74.7041C14.5078 73.7842 14.6836 72.9639 15.0293 72.2432C15.3809 71.5166 15.8613 70.9453 16.4707 70.5293C17.0859 70.1133 17.7891 69.9053 18.5801 69.9053C19.3125 69.9053 20.001 70.0957 20.6455 70.4766C21.29 70.8574 21.8086 71.4082 22.2012 72.1289C22.5996 72.8496 22.793 73.7256 22.7812 74.7568C22.7871 75.5244 22.6758 76.21 22.4473 76.8135C22.2188 77.4111 21.9082 77.915 21.5156 78.3252C21.123 78.7354 20.6748 79.0488 20.1709 79.2656C19.6729 79.4766 19.1543 79.582 18.6152 79.582ZM18.1846 77.7891C18.6768 77.7891 19.1162 77.6572 19.5029 77.3936C19.8896 77.1299 20.1885 76.7695 20.3994 76.3125C20.6162 75.8496 20.7217 75.3223 20.7158 74.7305C20.7217 74.1211 20.6162 73.5908 20.3994 73.1396C20.1826 72.6826 19.8779 72.3281 19.4854 72.0762C19.0986 71.8242 18.6562 71.7012 18.1582 71.707C17.6895 71.7012 17.2646 71.8213 16.8838 72.0674C16.5088 72.3076 16.207 72.6533 15.9785 73.1045C15.7559 73.5557 15.6445 74.0977 15.6445 74.7305C15.6445 75.3223 15.7529 75.8496 15.9697 76.3125C16.1924 76.7695 16.4941 77.1299 16.875 77.3936C17.2559 77.6572 17.6924 77.7891 18.1846 77.7891ZM24.4424 83.1328V70.0635H26.4551V71.1533H26.7275L26.2705 72.085V77.2705L26.8594 78.3428H26.5166V83.1328H24.4424ZM29.3555 79.582C28.5703 79.582 27.8672 79.3682 27.2461 78.9404C26.6309 78.5127 26.1445 77.9297 25.7871 77.1914C25.4297 76.4531 25.248 75.624 25.2422 74.7041C25.248 73.7842 25.4238 72.9639 25.7695 72.2432C26.1211 71.5166 26.6016 70.9453 27.2109 70.5293C27.8262 70.1133 28.5293 69.9053 29.3203 69.9053C30.0527 69.9053 30.7412 70.0957 31.3857 70.4766C32.0303 70.8574 32.5488 71.4082 32.9414 72.1289C33.3398 72.8496 33.5332 73.7256 33.5215 74.7568C33.5273 75.5244 33.416 76.21 33.1875 76.8135C32.959 77.4111 32.6484 77.915 32.2559 78.3252C31.8633 78.7354 31.415 79.0488 30.9111 79.2656C30.4131 79.4766 29.8945 79.582 29.3555 79.582ZM28.9248 77.7891C29.417 77.7891 29.8564 77.6572 30.2432 77.3936C30.6299 77.1299 30.9287 76.7695 31.1396 76.3125C31.3564 75.8496 31.4619 75.3223 31.4561 74.7305C31.4619 74.1211 31.3564 73.5908 31.1396 73.1396C30.9229 72.6826 30.6182 72.3281 30.2256 72.0762C29.8389 71.8242 29.3965 71.7012 28.8984 71.707C28.4297 71.7012 28.0049 71.8213 27.624 72.0674C27.249 72.3076 26.9473 72.6533 26.7188 73.1045C26.4961 73.5557 26.3848 74.0977 26.3848 74.7305C26.3848 75.3223 26.4932 75.8496 26.71 76.3125C26.9326 76.7695 27.2344 77.1299 27.6152 77.3936C27.9961 77.6572 28.4326 77.7891 28.9248 77.7891ZM39.4805 79.582C38.5312 79.582 37.7021 79.3799 36.9932 78.9756C36.2842 78.5654 35.7305 77.9971 35.332 77.2705C34.9336 76.5439 34.7344 75.7061 34.7344 74.7568C34.7344 73.7725 34.9336 72.9199 35.332 72.1992C35.7305 71.4785 36.2666 70.9219 36.9404 70.5293C37.6143 70.1309 38.3613 69.9316 39.1816 69.9316C39.9668 69.9316 40.6758 70.1133 41.3086 70.4766C41.9473 70.8398 42.4541 71.3467 42.8291 71.9971C43.2041 72.6416 43.3916 73.3975 43.3916 74.2646C43.3916 74.4873 43.3799 74.6953 43.3564 74.8887C43.333 75.082 43.3037 75.2754 43.2686 75.4688H36.29V74.001H41.4492C41.4492 73.5557 41.3555 73.1602 41.168 72.8145C40.9805 72.4629 40.7168 72.1875 40.377 71.9883C40.0371 71.7832 39.6387 71.6807 39.1816 71.6807C38.666 71.6807 38.2148 71.8096 37.8281 72.0674C37.4473 72.3193 37.1484 72.6738 36.9316 73.1309C36.7207 73.582 36.6152 74.1094 36.6152 74.7129C36.6152 75.3281 36.7295 75.8701 36.958 76.3389C37.1924 76.8076 37.5205 77.1738 37.9424 77.4375C38.3701 77.7012 38.877 77.833 39.4629 77.833C39.7969 77.833 40.1133 77.792 40.4121 77.71C40.7109 77.6279 40.9834 77.5225 41.2295 77.3936C41.4756 77.2588 41.6865 77.1182 41.8623 76.9717L42.5742 78.6768C42.2051 78.9404 41.751 79.1572 41.2119 79.3271C40.6787 79.4971 40.1016 79.582 39.4805 79.582ZM48.8232 79.582C47.8271 79.582 47.0742 79.3008 46.5645 78.7383C46.0605 78.1758 45.8086 77.4551 45.8086 76.5762V67.1807H47.8828V76.4268C47.8828 76.8779 47.9883 77.209 48.1992 77.4199C48.4102 77.6309 48.6738 77.7363 48.9902 77.7363C49.1309 77.7363 49.2627 77.7188 49.3857 77.6836C49.5088 77.6426 49.6201 77.5957 49.7197 77.543L50.4316 79.2393C50.2148 79.3447 49.9717 79.4268 49.7021 79.4854C49.4326 79.5498 49.1396 79.582 48.8232 79.582ZM44.2617 71.7949V70.0635H50.1328V71.7949H44.2617ZM51.8906 79.4414V70.0635H53.9648V79.4414H51.8906ZM52.9277 68.7539C52.5352 68.7539 52.2041 68.6191 51.9346 68.3496C51.6709 68.0801 51.5391 67.752 51.5391 67.3652C51.5391 66.9785 51.6709 66.6504 51.9346 66.3809C52.2041 66.1113 52.5352 65.9766 52.9277 65.9766C53.3145 65.9766 53.6426 66.1113 53.9121 66.3809C54.1816 66.6504 54.3164 66.9785 54.3164 67.3652C54.3164 67.752 54.1816 68.0801 53.9121 68.3496C53.6426 68.6191 53.3145 68.7539 52.9277 68.7539ZM60.0029 79.582C59.0068 79.582 58.2539 79.3008 57.7441 78.7383C57.2402 78.1758 56.9883 77.4551 56.9883 76.5762V67.1807H59.0625V76.4268C59.0625 76.8779 59.168 77.209 59.3789 77.4199C59.5898 77.6309 59.8535 77.7363 60.1699 77.7363C60.3105 77.7363 60.4424 77.7188 60.5654 77.6836C60.6885 77.6426 60.7998 77.5957 60.8994 77.543L61.6113 79.2393C61.3945 79.3447 61.1514 79.4268 60.8818 79.4854C60.6123 79.5498 60.3193 79.582 60.0029 79.582ZM55.4414 71.7949V70.0635H61.3125V71.7949H55.4414ZM66.9727 79.582C66.0234 79.582 65.1943 79.3799 64.4854 78.9756C63.7764 78.5654 63.2227 77.9971 62.8242 77.2705C62.4258 76.5439 62.2266 75.7061 62.2266 74.7568C62.2266 73.7725 62.4258 72.9199 62.8242 72.1992C63.2227 71.4785 63.7588 70.9219 64.4326 70.5293C65.1064 70.1309 65.8535 69.9316 66.6738 69.9316C67.459 69.9316 68.168 70.1133 68.8008 70.4766C69.4395 70.8398 69.9463 71.3467 70.3213 71.9971C70.6963 72.6416 70.8838 73.3975 70.8838 74.2646C70.8838 74.4873 70.8721 74.6953 70.8486 74.8887C70.8252 75.082 70.7959 75.2754 70.7607 75.4688H63.7822V74.001H68.9414C68.9414 73.5557 68.8477 73.1602 68.6602 72.8145C68.4727 72.4629 68.209 72.1875 67.8691 71.9883C67.5293 71.7832 67.1309 71.6807 66.6738 71.6807C66.1582 71.6807 65.707 71.8096 65.3203 72.0674C64.9395 72.3193 64.6406 72.6738 64.4238 73.1309C64.2129 73.582 64.1074 74.1094 64.1074 74.7129C64.1074 75.3281 64.2217 75.8701 64.4502 76.3389C64.6846 76.8076 65.0127 77.1738 65.4346 77.4375C65.8623 77.7012 66.3691 77.833 66.9551 77.833C67.2891 77.833 67.6055 77.792 67.9043 77.71C68.2031 77.6279 68.4756 77.5225 68.7217 77.3936C68.9678 77.2588 69.1787 77.1182 69.3545 76.9717L70.0664 78.6768C69.6973 78.9404 69.2432 79.1572 68.7041 79.3271C68.1709 79.4971 67.5938 79.582 66.9727 79.582Z" fill="black"/>
<g opacity="0.05" clip-path="url(#clip1_99_137601)">
<path d="M237.043 50.6829C238.581 44.6228 233.615 38.4055 227.374 38.5576C226.128 32.4307 218.964 28.9839 213.401 31.8282C209.62 26.8493 201.671 26.8512 197.892 31.8282C192.326 28.9828 185.163 32.4333 183.919 38.5576C177.674 38.406 172.711 44.6254 174.249 50.6829C171.994 51.7469 170.159 53.6817 169.241 56.1364H242.052C241.133 53.6817 239.298 51.7467 237.043 50.6829Z" fill="black"/>
<path d="M200.996 14.0332C200.996 16.1983 201.838 18.2332 203.368 19.7629C206.497 22.6693 210.833 18.3376 207.925 15.2061C207.278 14.5593 207.278 13.5069 207.925 12.8603C211.067 9.84586 211.067 4.4152 207.925 1.40095C204.795 -1.50568 200.461 2.82644 203.368 5.95776C204.015 6.60456 204.015 7.65693 203.368 8.30351C201.838 9.83341 200.996 11.8681 200.996 14.0332Z" fill="black"/>
<path d="M173.385 20.9355C173.385 23.1006 174.227 25.1356 175.757 26.6652C178.887 29.5716 183.222 25.24 180.314 22.1084C179.667 21.4616 179.667 20.4093 180.314 19.7627C183.456 16.7482 183.456 11.3175 180.314 8.30329C177.185 5.39667 172.85 9.72879 175.757 12.8601C176.404 13.5069 176.404 14.5593 175.757 15.2059C174.227 16.7358 173.385 18.7705 173.385 20.9355Z" fill="black"/>
<path d="M228.606 20.9355C228.606 23.1006 229.448 25.1356 230.978 26.6652C234.108 29.5716 238.443 25.24 235.535 22.1084C234.888 21.4616 234.888 20.4093 235.535 19.7627C238.677 16.7482 238.677 11.3175 235.535 8.30329C232.406 5.39667 228.071 9.72879 230.979 12.8601C231.625 13.5069 231.625 14.5593 230.979 15.2059C229.448 16.7358 228.606 18.7705 228.606 20.9355Z" fill="black"/>
<path d="M216.229 86.2814C216.229 76.7354 220.624 68.1973 227.495 62.5806H164.23C162.451 62.5806 161.008 64.0232 161.008 65.8028C161.008 83.1989 171.013 98.3008 185.569 105.663C184.373 107.735 185.977 110.488 188.39 110.441H222.903C224.214 110.441 225.34 109.656 225.843 108.531C219.928 102.948 216.229 95.0389 216.229 86.2814Z" fill="black"/>
<path d="M246.833 62.1226C233.512 62.1226 222.674 72.9603 222.674 86.2816C223.888 118.288 269.783 118.279 270.992 86.2814C270.992 72.9603 260.154 62.1226 246.833 62.1226ZM257.444 92.3355C260.351 95.4661 256.016 99.7993 252.887 96.8923L246.833 90.8384L240.779 96.8923C239.521 98.1504 237.481 98.1509 236.222 96.8923C234.964 95.6339 234.964 93.5938 236.222 92.3355L242.276 86.2816L236.222 80.2278C234.964 78.9694 234.964 76.9294 236.222 75.671C237.48 74.4126 239.521 74.4126 240.779 75.671L246.833 81.7248L252.887 75.671C254.145 74.4126 256.185 74.4126 257.444 75.671C258.702 76.9294 258.702 78.9694 257.444 80.2278L251.39 86.2816L257.444 92.3355Z" fill="black"/>
</g>
<defs>
<clipPath id="clip0_99_137601">
<rect width="32" height="32" fill="white" transform="translate(8 8.44141)"/>
</clipPath>
<clipPath id="clip1_99_137601">
<rect width="110" height="110" fill="white" transform="translate(161 0.441406)"/>
</clipPath>
</defs>
</svg>
