<svg width="48" height="49" viewBox="0 0 48 49" fill="none" xmlns="http://www.w3.org/2000/svg">
<path d="M0 24.4414C0 11.1866 10.7452 0.441406 24 0.441406C37.2548 0.441406 48 11.1866 48 24.4414C48 37.6962 37.2548 48.4414 24 48.4414C10.7452 48.4414 0 37.6962 0 24.4414Z" fill="#FFF2E8"/>
<g clip-path="url(#clip0_99_137603)">
<path d="M30.1219 23.0569C30.5693 21.294 29.1246 19.4853 27.3089 19.5296C26.9465 17.7472 24.8625 16.7445 23.244 17.5719C22.1441 16.1235 19.8317 16.1241 18.7323 17.5719C17.113 16.7442 15.0295 17.748 14.6674 19.5296C12.8509 19.4855 11.4071 21.2948 11.8544 23.0569C11.1983 23.3665 10.6647 23.9293 10.3975 24.6434H31.5788C31.3115 23.9293 30.7778 23.3664 30.1219 23.0569Z" fill="#FF832B"/>
<path d="M19.6353 12.3954C19.6353 13.0252 19.8803 13.6172 20.3254 14.0622C21.2358 14.9077 22.4969 13.6476 21.651 12.7366C21.4629 12.5484 21.4629 12.2423 21.651 12.0542C22.5651 11.1772 22.5651 9.59742 21.651 8.72055C20.7407 7.87498 19.4796 9.13524 20.3255 10.0462C20.5136 10.2343 20.5136 10.5405 20.3255 10.7286C19.8803 11.1736 19.6353 11.7655 19.6353 12.3954Z" fill="#FF832B"/>
<path d="M11.603 14.4032C11.603 15.033 11.8481 15.625 12.2932 16.07C13.2035 16.9155 14.4647 15.6554 13.6188 14.7444C13.4306 14.5562 13.4306 14.2501 13.6188 14.062C14.5328 13.1851 14.5329 11.6052 13.6188 10.7284C12.7084 9.88279 11.4474 11.143 12.2932 12.054C12.4814 12.2421 12.4814 12.5483 12.2932 12.7364C11.8481 13.1814 11.603 13.7734 11.603 14.4032Z" fill="#FF832B"/>
<path d="M27.667 14.4032C27.667 15.033 27.9121 15.625 28.3571 16.07C29.2675 16.9155 30.5286 15.6554 29.6828 14.7444C29.4946 14.5562 29.4946 14.2501 29.6828 14.062C30.5968 13.1851 30.5969 11.6052 29.6828 10.7284C28.7724 9.88279 27.5113 11.143 28.3572 12.054C28.5454 12.2421 28.5454 12.5483 28.3572 12.7364C27.9121 13.1814 27.667 13.7734 27.667 14.4032Z" fill="#FF832B"/>
<path d="M24.0667 33.4134C24.0667 30.6363 25.3451 28.1525 27.3439 26.5186H8.9398C8.42213 26.5186 8.00244 26.9382 8.00244 27.4559C8.00244 32.5166 10.9128 36.9099 15.1473 39.0515C14.7994 39.6544 15.2661 40.4551 15.968 40.4415H26.0081C26.3896 40.4415 26.7173 40.2132 26.8636 39.886C25.1426 38.2618 24.0667 35.961 24.0667 33.4134Z" fill="#FF832B"/>
<path d="M32.9696 26.3853C29.0943 26.3853 25.9414 29.538 25.9414 33.4133C26.2947 42.7243 39.6458 42.7218 39.9977 33.4133C39.9977 29.538 36.8449 26.3853 32.9696 26.3853ZM36.0562 35.1745C36.9021 36.0852 35.641 37.3458 34.7306 36.5001L32.9695 34.739L31.2084 36.5001C30.8424 36.8661 30.2488 36.8662 29.8828 36.5001C29.5167 36.134 29.5167 35.5405 29.8828 35.1745L31.6439 33.4133L29.8828 31.6522C29.5167 31.2862 29.5167 30.6927 29.8828 30.3266C30.2488 29.9605 30.8423 29.9605 31.2084 30.3266L32.9695 32.0877L34.7306 30.3266C35.0966 29.9605 35.6902 29.9605 36.0562 30.3266C36.4223 30.6927 36.4223 31.2862 36.0562 31.6522L34.2951 33.4133L36.0562 35.1745Z" fill="#FF832B"/>
</g>
<defs>
<clipPath id="clip0_99_137603">
<rect width="32" height="32" fill="white" transform="translate(8 8.44141)"/>
</clipPath>
</defs>
</svg>
