<svg width="110" height="111" viewBox="0 0 110 111" fill="none" xmlns="http://www.w3.org/2000/svg">
<g opacity="0.05" clip-path="url(#clip0_99_137772)">
<path d="M76.0434 50.6829C77.5813 44.6228 72.6152 38.4055 66.3737 38.5576C65.1282 32.4307 57.9644 28.9839 52.4005 31.8282C48.6196 26.8493 40.6709 26.8512 36.8917 31.8282C31.3255 28.9828 24.1635 32.4333 22.9186 38.5576C16.6745 38.406 11.7114 44.6254 13.2489 50.6829C10.9938 51.7469 9.15926 53.6817 8.24072 56.1364H81.0516C80.1328 53.6817 78.2983 51.7467 76.0434 50.6829Z" fill="#111928"/>
<path d="M39.9956 14.0332C39.9956 16.1983 40.8381 18.2332 42.368 19.7629C45.4974 22.6693 49.8325 18.3376 46.9248 15.2061C46.278 14.5593 46.278 13.5069 46.9248 12.8603C50.0669 9.84586 50.0671 4.4152 46.9248 1.40095C43.7954 -1.50568 39.4605 2.82644 42.3682 5.95776C43.015 6.60456 43.015 7.65693 42.3682 8.30351C40.8381 9.83341 39.9956 11.8681 39.9956 14.0332Z" fill="#111928"/>
<path d="M12.3848 20.9355C12.3848 23.1006 13.2273 25.1356 14.7572 26.6652C17.8865 29.5716 22.2217 25.24 19.314 22.1084C18.6672 21.4616 18.6672 20.4093 19.314 19.7627C22.456 16.7482 22.4562 11.3175 19.314 8.30329C16.1846 5.39667 11.8497 9.72879 14.7574 12.8601C15.4042 13.5069 15.4042 14.5593 14.7574 15.2059C13.2273 16.7358 12.3848 18.7705 12.3848 20.9355Z" fill="#111928"/>
<path d="M67.606 20.9355C67.606 23.1006 68.4485 25.1356 69.9783 26.6652C73.1077 29.5716 77.4429 25.24 74.5352 22.1084C73.8884 21.4616 73.8884 20.4093 74.5352 19.7627C77.6772 16.7482 77.6774 11.3175 74.5352 8.30329C71.4058 5.39667 67.0709 9.72879 69.9786 12.8601C70.6254 13.5069 70.6254 14.5593 69.9786 15.2059C68.4485 16.7358 67.606 18.7705 67.606 20.9355Z" fill="#111928"/>
<path d="M55.2292 86.2814C55.2292 76.7354 59.6236 68.1973 66.4946 62.5806H3.23048C1.45098 62.5806 0.00830078 64.0232 0.00830078 65.8028C0.00830078 83.1989 10.0125 98.3008 24.5686 105.663C23.3728 107.735 24.9772 110.488 27.3898 110.441H61.9028C63.2142 110.441 64.3405 109.656 64.8434 108.531C58.9277 102.948 55.2292 95.0389 55.2292 86.2814Z" fill="#111928"/>
<path d="M85.8331 62.1226C72.5118 62.1226 61.6738 72.9603 61.6738 86.2816C62.8884 118.288 108.783 118.279 109.992 86.2814C109.992 72.9603 99.1545 62.1226 85.8331 62.1226ZM96.4436 92.3355C99.351 95.4661 95.0161 99.7993 91.8867 96.8923L85.8329 90.8384L79.7791 96.8923C78.5211 98.1504 76.4806 98.1509 75.2223 96.8923C73.9639 95.6339 73.9639 93.5938 75.2223 92.3355L81.2761 86.2816L75.2223 80.2278C73.9639 78.9694 73.9639 76.9294 75.2223 75.671C76.4804 74.4126 78.5207 74.4126 79.7791 75.671L85.8329 81.7248L91.8867 75.671C93.1449 74.4126 95.1852 74.4126 96.4436 75.671C97.7019 76.9294 97.7019 78.9694 96.4436 80.2278L90.3897 86.2816L96.4436 92.3355Z" fill="#111928"/>
</g>
<defs>
<clipPath id="clip0_99_137772">
<rect width="110" height="110" fill="white" transform="translate(0 0.441406)"/>
</clipPath>
</defs>
</svg>
