<svg width="40" height="40" viewBox="0 0 40 40" fill="none" xmlns="http://www.w3.org/2000/svg">
<g id="fi_2873006" clip-path="url(#clip0_80_239632)">
<g id="Group">
<path id="Vector" d="M13.9214 6.16034L13.2357 1.01722C13.1467 0.350342 12.5146 -0.106221 11.852 0.0214355L2.54956 1.81667C1.93893 1.93448 1.52659 2.50894 1.61042 3.12526L2.37229 8.72573L13.9214 6.16034Z" fill="#FDCB00"/>
<path id="Vector_2" d="M29.3837 28.2656L27.8242 28.275L27.8771 37.6046L29.445 37.5953C30.52 37.5869 31.3894 36.7054 31.3829 35.6304L31.35 30.2066C31.3431 29.111 30.4391 28.2501 29.3837 28.2656Z" fill="#FDCB00"/>
<path id="Vector_3" d="M35.2537 28.2213L37.5975 27.44C38.2114 27.2353 38.5432 26.5717 38.3386 25.9577C38.1339 25.3437 37.4703 25.0117 36.8563 25.2165L34.5125 25.9977C33.8986 26.2024 33.5668 26.8661 33.7714 27.4801C33.9764 28.0952 34.6409 28.4256 35.2537 28.2213Z" fill="#FDCB00"/>
<path id="Vector_4" d="M37.2266 30.625H34.8828C34.2356 30.625 33.7109 31.1497 33.7109 31.7969C33.7109 32.4441 34.2356 32.9688 34.8828 32.9688H37.2266C37.8738 32.9688 38.3984 32.4441 38.3984 31.7969C38.3984 31.1497 37.8738 30.625 37.2266 30.625Z" fill="#FDCB00"/>
<path id="Vector_5" d="M37.5896 36.1539L35.2459 35.3727C34.632 35.1681 33.9682 35.4998 33.7636 36.1138C33.5589 36.7278 33.8907 37.3915 34.5047 37.5962L36.8485 38.3774C37.4624 38.582 38.1261 38.2502 38.3308 37.6363C38.5355 37.0223 38.2037 36.3586 37.5896 36.1539Z" fill="#FDCB00"/>
<path id="Vector_6" d="M24.3037 25.9377H18.3282L16.12 9.37666C16.0294 8.69627 15.3749 8.2387 14.7043 8.38752L2.80063 11.0318C2.20867 11.1633 1.81485 11.7247 1.89258 12.326L2.36219 15.9585L9.69919 14.271C10.3296 14.1259 10.9589 14.5196 11.1039 15.1504C11.249 15.7812 10.8552 16.4101 10.2245 16.5551L2.66406 18.294L2.95656 20.5565L10.3007 18.8673C10.9312 18.7222 11.5603 19.116 11.7054 19.7467C11.8504 20.3775 11.4567 21.0064 10.826 21.1514L3.25844 22.8919L5.33835 38.9786C5.4139 39.5629 5.91139 40.0002 6.50053 40.0002H24.37C25.0196 40.0002 25.5455 39.4712 25.5419 38.8217L25.4754 27.103C25.4719 26.4583 24.9484 25.9377 24.3037 25.9377Z" fill="#FDCB00"/>
</g>
</g>
<defs>
<clipPath id="clip0_80_239632">
<rect width="40" height="40" fill="white"/>
</clipPath>
</defs>
</svg>
