<svg width="363" height="651" viewBox="0 0 363 651" fill="none" xmlns="http://www.w3.org/2000/svg">
<path d="M318.627 347.509L327.245 366.005C327.648 366.853 327.851 367.785 327.791 368.719C327.699 370.17 327.086 371.706 324.49 369.692C323.907 369.24 323.421 368.677 323.051 368.045L312.17 349.462L318.627 347.509Z" fill="#FFD4AB"/>
<path d="M326.526 371.141C325.886 371.141 325.116 370.788 324.195 370.073C323.569 369.587 323.044 368.987 322.635 368.289L311.445 349.178L318.886 346.927L327.681 365.801C328.129 366.746 328.334 367.767 328.271 368.75C328.195 369.95 327.82 370.71 327.157 371.009C326.962 371.097 326.752 371.141 326.526 371.141ZM312.894 349.746L323.466 367.802C323.812 368.393 324.256 368.901 324.785 369.311C325.671 369.999 326.391 370.298 326.761 370.131C327.061 369.996 327.261 369.47 327.311 368.689C327.363 367.869 327.19 367.012 326.81 366.211L318.366 348.091L312.894 349.746Z" fill="#EE8B48"/>
<path d="M294.422 348.194L291.167 367.626C291.023 368.551 290.665 369.437 290.087 370.183C289.19 371.341 287.81 372.289 286.787 369.207C286.557 368.515 286.47 367.782 286.519 367.056L288.195 346.269L294.422 348.194Z" fill="#FFD4AB"/>
<path d="M288.495 371.767C288.413 371.767 288.331 371.76 288.249 371.746C287.446 371.609 286.819 370.828 286.331 369.359C286.083 368.613 285.986 367.827 286.04 367.023L287.765 345.631L294.966 347.858L291.643 367.705C291.482 368.733 291.076 369.694 290.468 370.478C289.804 371.335 289.142 371.767 288.495 371.767ZM288.627 346.906L287 367.095C286.954 367.767 287.036 368.429 287.244 369.055C287.589 370.094 288.014 370.729 288.411 370.797C288.742 370.853 289.216 370.522 289.707 369.887C290.216 369.232 290.556 368.424 290.693 367.551L293.878 348.53L288.627 346.906Z" fill="#EE8B48"/>
<path d="M311.552 349.649L316.349 372.299C316.563 373.309 316.547 374.364 316.254 375.362C315.8 376.912 314.778 378.438 312.549 375.672C312.048 375.051 311.676 374.332 311.443 373.564L304.598 350.984L311.552 349.649Z" fill="#FFD4AB"/>
<path d="M314.692 377.687C313.928 377.687 313.101 377.123 312.175 375.974C311.64 375.31 311.239 374.546 310.984 373.704L303.982 350.612L311.925 349.087L316.821 372.198C317.058 373.317 317.022 374.457 316.717 375.498C316.342 376.777 315.762 377.504 314.994 377.657C314.895 377.677 314.794 377.687 314.692 377.687ZM305.214 351.356L311.905 373.424C312.124 374.148 312.467 374.802 312.924 375.37C313.962 376.658 314.549 376.763 314.806 376.712C315.184 376.637 315.535 376.109 315.793 375.226C316.053 374.339 316.083 373.361 315.88 372.398L311.179 350.211L305.214 351.356Z" fill="#EE8B48"/>
<path d="M303.171 350.82L304.658 372.156C304.733 373.166 304.578 374.192 304.162 375.127C303.516 376.579 302.319 377.936 300.513 374.962C300.108 374.294 299.84 373.547 299.714 372.77L295.713 348.485L303.171 350.82Z" fill="#FFD4AB"/>
<path d="M302.531 377.215C301.716 377.215 300.92 376.559 300.102 375.212C299.668 374.497 299.377 373.701 299.239 372.847L295.111 347.792L303.628 350.458L305.138 372.122C305.222 373.24 305.036 374.348 304.602 375.323C304.066 376.527 303.402 377.163 302.629 377.212C302.596 377.214 302.564 377.215 302.531 377.215ZM296.315 349.178L300.189 372.691C300.308 373.424 300.555 374.103 300.925 374.712C301.761 376.088 302.314 376.268 302.568 376.25C302.939 376.227 303.36 375.746 303.723 374.931C304.092 374.1 304.25 373.153 304.178 372.192L302.714 351.181L296.315 349.178Z" fill="#EE8B48"/>
<path d="M44.3722 347.509L35.7538 366.005C35.3509 366.853 35.148 367.785 35.2075 368.719C35.2999 370.17 35.913 371.706 38.5085 369.692C39.0915 369.24 39.5782 368.677 39.948 368.045L50.8289 349.462L44.3722 347.509Z" fill="#FFD4AB"/>
<path d="M36.4732 371.141C36.247 371.141 36.0369 371.097 35.8419 371.009C35.1791 370.71 34.8043 369.95 34.7278 368.75C34.6652 367.767 34.8699 366.746 35.3199 365.798L44.113 346.927L51.5539 349.178L40.3638 368.289C39.9552 368.987 39.4304 369.587 38.8039 370.073C37.8828 370.788 37.1134 371.141 36.4732 371.141ZM44.6326 348.091L36.1905 366.208C35.8091 367.012 35.636 367.868 35.6882 368.689C35.738 369.47 35.9383 369.996 36.2377 370.131C36.6077 370.298 37.328 369.999 38.2143 369.311C38.7434 368.901 39.1872 368.393 39.5336 367.802L50.1055 349.746L44.6326 348.091Z" fill="#EE8B48"/>
<path d="M68.5781 348.194L71.8325 367.626C71.9769 368.551 72.3349 369.437 72.9127 370.183C73.81 371.341 75.1897 372.289 76.2129 369.207C76.4427 368.515 76.5297 367.782 76.4805 367.056L74.8045 346.269L68.5781 348.194Z" fill="#FFD4AB"/>
<path d="M74.5048 371.767C73.858 371.767 73.1954 371.335 72.5317 370.478C71.9239 369.694 71.5175 368.733 71.3561 367.7L68.0332 347.858L75.2349 345.631L76.9592 367.017C77.0141 367.827 76.9162 368.613 76.6687 369.359C76.181 370.828 75.5537 371.609 74.7507 371.746C74.6691 371.76 74.587 371.767 74.5048 371.767ZM69.1214 348.53L72.3061 367.546C72.4431 368.424 72.7838 369.232 73.2921 369.887C73.7837 370.522 74.2556 370.852 74.5885 370.797C74.9852 370.728 75.4105 370.094 75.7554 369.055C75.9633 368.429 76.0455 367.767 75.9995 367.089L74.3722 346.906L69.1214 348.53Z" fill="#EE8B48"/>
<path d="M51.4464 349.649L46.6486 372.299C46.4347 373.309 46.4511 374.364 46.7437 375.362C47.198 376.912 48.2201 378.438 50.4491 375.672C50.9497 375.051 51.322 374.332 51.5546 373.564L58.4005 350.984L51.4464 349.649Z" fill="#FFD4AB"/>
<path d="M48.3063 377.687C48.2048 377.687 48.1044 377.677 48.005 377.657C47.2368 377.504 46.657 376.777 46.282 375.498C45.9771 374.457 45.9411 373.317 46.1779 372.198L51.0736 349.087L59.0163 350.612L52.0151 373.704C51.7597 374.546 51.3588 375.31 50.8236 375.975C49.8979 377.123 49.0708 377.687 48.3063 377.687ZM51.8192 350.211L47.1194 372.398C46.9155 373.361 46.9452 374.339 47.2054 375.226C47.4642 376.109 47.8149 376.637 48.1931 376.712C48.4508 376.764 49.0369 376.658 50.0746 375.37C50.5318 374.802 50.8749 374.148 51.0942 373.424L57.7847 351.356L51.8192 350.211Z" fill="#EE8B48"/>
<path d="M59.826 350.82L58.3386 372.156C58.2633 373.166 58.4184 374.192 58.8347 375.127C59.4811 376.579 60.6774 377.936 62.4835 374.962C62.8891 374.294 63.1568 373.547 63.2823 372.77L67.2837 348.485L59.826 350.82Z" fill="#FFD4AB"/>
<path d="M60.466 377.215C60.4336 377.215 60.4013 377.214 60.3689 377.212C59.5956 377.163 58.9318 376.527 58.3957 375.323C57.9614 374.347 57.7759 373.24 57.8593 372.12L59.3694 350.458L67.8862 347.792L63.7578 372.848C63.6199 373.701 63.3296 374.497 62.8951 375.212C62.0775 376.558 61.2817 377.215 60.466 377.215ZM60.2835 351.181L58.8191 372.189C58.7473 373.153 58.9048 374.1 59.2746 374.931C59.6374 375.746 60.0584 376.227 60.4298 376.25C60.6848 376.266 61.2368 376.088 62.0727 374.712C62.4422 374.103 62.6896 373.424 62.8078 372.693L66.6823 349.178L60.2835 351.181Z" fill="#EE8B48"/>
<path d="M170.992 79.0745L168.605 94.5388L181.134 127.802L185.31 128.385L196.049 90.4539L191.574 72.947L170.992 79.0745Z" fill="#FFD4AB"/>
<path d="M134.603 115.856L120.525 148.514C120.496 148.581 120.479 148.653 120.475 148.726C120.452 149.188 120.931 149.515 121.366 149.333L179.802 124.928C180.012 124.841 180.158 124.651 180.186 124.43L180.46 122.287C180.503 121.947 180.26 121.637 179.913 121.589L135.282 115.479C134.995 115.44 134.716 115.595 134.603 115.856Z" fill="#FFD4AB"/>
<path d="M134.603 115.856L120.525 148.514C120.496 148.581 120.479 148.653 120.475 148.726C120.452 149.188 120.931 149.515 121.366 149.333L179.802 124.928C180.012 124.841 180.158 124.651 180.186 124.43L180.46 122.287C180.503 121.947 180.26 121.637 179.913 121.589L135.282 115.479C134.995 115.44 134.716 115.595 134.603 115.856Z" fill="url(#paint0_linear_174_167961)"/>
<path d="M121.114 149.866C120.885 149.866 120.658 149.796 120.464 149.659C120.151 149.439 119.976 149.081 119.996 148.701C120.002 148.571 120.032 148.444 120.084 148.323L134.162 115.665C134.36 115.206 134.847 114.932 135.348 115.002L179.979 121.112C180.584 121.195 181.014 121.749 180.938 122.348L180.664 124.491C180.614 124.882 180.355 125.22 179.988 125.373L121.552 149.778C121.41 149.837 121.261 149.866 121.114 149.866ZM135.046 116.047L120.967 148.705C120.961 148.719 120.958 148.735 120.957 148.751C120.954 148.812 120.988 148.85 121.018 148.871C121.041 148.887 121.103 148.921 121.182 148.888L179.618 124.483C179.668 124.462 179.703 124.419 179.709 124.369L179.983 122.226C179.993 122.148 179.934 122.078 179.849 122.066L135.217 115.957C135.143 115.946 135.073 115.984 135.046 116.047V116.047Z" fill="#EE8B48"/>
<path d="M123.563 146.914L180.936 122.906C181.339 122.729 181.266 123.187 181.267 123.62L181.311 332.213H177.942C173.952 332.213 170.464 329.577 169.457 325.8L150.88 256.144L132.284 240.848L131.438 221.004L122.468 188.3C122.372 187.951 121.87 187.941 121.759 188.285L109.883 225.138L109.313 234.069C109.131 236.918 108.507 239.723 107.464 242.389L82.7032 305.65C81.3891 309.007 80.6063 312.54 80.3817 316.129L79.6266 328.191C79.511 330.039 79.1803 331.868 78.6409 333.643L74.8035 346.269L54.9391 352.057L44.3728 347.509L44.756 335.516C44.7693 335.098 44.2453 334.889 43.9565 335.197C41.2362 338.099 32.4999 346.859 26.666 346.264C26.2208 346.219 25.9608 345.755 26.1384 345.353C27.8679 341.438 39.1602 328.63 39.1602 328.63C39.1602 328.63 42.2331 322.493 55.7022 316.906C57.0035 316.366 57.9722 315.26 58.3205 313.92L59.8699 307.959L71.829 236.642C72.1182 234.918 72.7757 233.272 73.7587 231.813L82.9662 218.149C86.9672 212.211 89.1728 205.31 89.4901 198.205C89.7139 193.195 91.2691 186.053 96.3584 176.975C94.4566 155.271 85.5809 115.789 134.397 115.996L137.567 127.985L120.027 150.31" fill="#FFD4AB"/>
<path d="M123.563 146.914L180.936 122.906C181.339 122.729 181.266 123.187 181.267 123.62L181.311 332.213H177.942C173.952 332.213 170.464 329.577 169.457 325.8L150.88 256.144L132.284 240.848L131.438 221.004L122.468 188.3C122.372 187.951 121.87 187.941 121.759 188.285L109.883 225.138L109.313 234.069C109.131 236.918 108.507 239.723 107.464 242.389L82.7032 305.65C81.3891 309.007 80.6063 312.54 80.3817 316.129L79.6266 328.191C79.511 330.039 79.1803 331.868 78.6409 333.643L74.8035 346.269L54.9391 352.057L44.3728 347.509L44.756 335.516C44.7693 335.098 44.2453 334.889 43.9565 335.197C41.2362 338.099 32.4999 346.859 26.666 346.264C26.2208 346.219 25.9608 345.755 26.1384 345.353C27.8679 341.438 39.1602 328.63 39.1602 328.63C39.1602 328.63 42.2331 322.493 55.7022 316.906C57.0035 316.366 57.9722 315.26 58.3205 313.92L59.8699 307.959L71.829 236.642C72.1182 234.918 72.7757 233.272 73.7587 231.813L82.9662 218.149C86.9672 212.211 89.1728 205.31 89.4901 198.205C89.7139 193.195 91.2691 186.053 96.3584 176.975C94.4566 155.271 85.5809 115.789 134.397 115.996L137.567 127.985L120.027 150.31" fill="url(#paint1_linear_174_167961)"/>
<path d="M54.9076 352.567L43.8814 347.822L44.2733 335.551C40.928 339.129 32.5188 347.342 26.6171 346.743C26.2522 346.706 25.9378 346.503 25.7543 346.187C25.5727 345.874 25.5518 345.489 25.6983 345.158C27.4042 341.296 37.9179 329.312 38.7608 328.354C39.1319 327.665 42.582 321.827 55.5178 316.461C56.6724 315.981 57.5461 314.986 57.8548 313.798L59.3988 307.858L71.3543 236.562C71.6568 234.758 72.3316 233.07 73.3596 231.544L82.5672 217.879C86.4645 212.095 88.6921 205.284 89.0094 198.183C89.3004 191.671 91.6073 184.5 95.866 176.869C95.7037 175.039 95.4937 173.092 95.2717 171.033C93.7714 157.113 91.7166 138.049 102.23 126.376C108.778 119.106 119.593 115.452 134.399 115.514L134.767 115.516L138.093 128.094L123.792 146.296L180.75 122.462C181.071 122.321 181.303 122.399 181.439 122.49C181.766 122.709 181.758 123.105 181.75 123.454C181.749 123.508 181.748 123.564 181.748 123.619L181.792 332.694H177.942C173.735 332.694 170.055 329.91 168.992 325.924L150.455 256.418L131.812 241.083L130.96 221.079L122.103 188.788L110.359 225.229L109.793 234.1C109.607 237.002 108.974 239.85 107.912 242.565L83.1509 305.826C81.8536 309.14 81.0834 312.617 80.8618 316.159L80.1067 328.222C79.9889 330.104 79.6505 331.976 79.101 333.783L75.1877 346.659L54.9076 352.567ZM44.8643 347.196L54.9704 351.546L74.4189 345.879L78.1805 333.502C78.7083 331.766 79.0332 329.969 79.1464 328.161L79.9015 316.098C80.1295 312.456 80.9213 308.881 82.2551 305.474L107.016 242.213C108.042 239.591 108.653 236.84 108.832 234.038L109.407 225.047L121.301 188.137C121.417 187.778 121.746 187.535 122.13 187.551C122.51 187.559 122.832 187.809 122.932 188.172L131.917 220.928L132.755 240.612L151.305 255.87L169.922 325.675C170.872 329.24 174.171 331.731 177.942 331.731H180.829L180.786 123.62C180.786 123.577 180.786 123.534 180.787 123.49L123.749 147.358L123.474 146.7L120.405 150.607L119.648 150.011L137.04 127.876L134.026 116.477C134.025 116.477 134.025 116.477 134.025 116.477C119.702 116.477 109.247 120.023 102.945 127.021C92.7196 138.373 94.6653 156.425 96.2286 170.929C96.4569 173.048 96.6727 175.05 96.8377 176.932L96.8506 177.081L96.7779 177.21C92.5469 184.757 90.2566 191.828 89.9708 198.226C89.6456 205.504 87.3614 212.486 83.365 218.417L74.1574 232.082C73.2069 233.493 72.5831 235.054 72.3034 236.721L60.3409 308.059L58.7861 314.041C58.4019 315.519 57.3178 316.756 55.8863 317.35C42.7884 322.784 39.62 328.786 39.5896 328.846L39.5208 328.948C39.4084 329.076 28.2582 341.745 26.5783 345.547C26.5474 345.617 26.5702 345.675 26.5866 345.703C26.6058 345.736 26.6437 345.777 26.7149 345.785C32.3562 346.361 41.0687 337.574 43.6054 334.867C43.8772 334.577 44.2911 334.488 44.6593 334.641C45.0226 334.792 45.2493 335.141 45.2368 335.531L44.8643 347.196Z" fill="#EE8B48"/>
<path d="M181.732 328.401V342.844L175.792 342.791C175.792 342.791 129.301 280.365 128.455 279.539C128.033 263.415 132.284 240.848 132.284 240.848L151.472 256.286L176.362 328.45L181.732 328.401Z" fill="#FFD4AB"/>
<path d="M181.732 328.401V342.844L175.792 342.791C175.792 342.791 129.301 280.365 128.455 279.539C128.033 263.415 132.284 240.848 132.284 240.848L151.472 256.286L176.362 328.45L181.732 328.401Z" fill="url(#paint2_linear_174_167961)"/>
<path d="M182.213 343.33L175.549 343.271L175.406 343.079C159.433 321.63 128.991 280.818 128.113 279.877L127.989 279.743L127.975 279.551C127.556 263.561 131.769 240.984 131.812 240.758L131.96 239.969L151.882 255.997L151.927 256.128L176.705 327.965L182.213 327.915V343.33H182.213ZM176.035 342.311L181.251 342.358V328.887L176.021 328.935L151.062 256.574L132.613 241.73C131.877 245.856 128.59 265.18 128.932 279.36C131.691 282.78 170.778 335.252 176.035 342.311Z" fill="#EE8B48"/>
<path d="M180.723 122.981C153.905 122.472 134.895 115.477 134.895 115.477L163.212 98.9404L180.994 122.468C181.156 122.682 180.995 122.986 180.723 122.981Z" fill="#FFD4AB"/>
<path d="M180.723 122.981C153.905 122.472 134.895 115.477 134.895 115.477L163.212 98.9404L180.994 122.468C181.156 122.682 180.995 122.986 180.723 122.981Z" fill="url(#paint3_linear_174_167961)"/>
<path d="M180.73 123.463C180.724 123.463 180.719 123.463 180.713 123.463C154.123 122.958 134.919 116 134.729 115.93L133.77 115.577L163.338 98.3093L181.378 122.177C181.564 122.423 181.593 122.746 181.453 123.021C181.313 123.295 181.037 123.463 180.73 123.463ZM180.731 122.5C180.733 122.5 180.73 122.5 180.732 122.5H180.732C180.732 122.5 180.732 122.5 180.731 122.5ZM136.046 115.363C140.255 116.758 157.549 122.013 180.41 122.493L163.086 99.5721L136.046 115.363Z" fill="#EE8B48"/>
<path d="M80.1137 317.066C80.0872 317.066 80.0605 317.064 80.0335 317.06L58.7258 313.479C58.4638 313.435 58.2869 313.186 58.3309 312.924C58.3749 312.662 58.6227 312.484 58.8851 312.529L80.1928 316.109C80.4548 316.153 80.6316 316.402 80.5877 316.664C80.5482 316.9 80.3445 317.066 80.1137 317.066Z" fill="#EE8B48"/>
<path d="M62.9442 313.921C62.8899 313.921 62.8347 313.911 62.7808 313.892C62.5309 313.802 62.4014 313.526 62.4916 313.275L90.7607 234.86L85.721 213.087C85.661 212.828 85.8223 212.57 86.0811 212.509C86.3399 212.449 86.5984 212.611 86.6586 212.87L91.7624 234.92L63.3968 313.602C63.326 313.799 63.1412 313.921 62.9442 313.921Z" fill="#EE8B48"/>
<path d="M91.3792 235.108C91.2853 235.108 91.1902 235.08 91.1069 235.023C90.8879 234.872 90.8327 234.572 90.9833 234.353L114.886 199.578L119.793 151.171L96.7718 177.332C96.596 177.531 96.2921 177.55 96.0926 177.375C95.8932 177.199 95.874 176.894 96.0496 176.695L121.054 148.281L115.818 199.921L115.748 200.023L91.7759 234.899C91.6827 235.035 91.5323 235.108 91.3792 235.108Z" fill="#EE8B48"/>
<path d="M115.22 200.074L105.499 227.359L91.4762 235.024C91.3879 235.072 91.2929 234.972 91.3487 234.89L114.99 199.961C115.074 199.837 115.27 199.933 115.22 200.074Z" fill="#FFD4AB"/>
<path d="M115.22 200.074L105.499 227.359L91.4762 235.024C91.3879 235.072 91.2929 234.972 91.3487 234.89L114.99 199.961C115.074 199.837 115.27 199.933 115.22 200.074Z" fill="url(#paint4_linear_174_167961)"/>
<path d="M91.4291 235.519C91.2703 235.519 91.114 235.453 91.001 235.328C90.8224 235.131 90.8017 234.84 90.9507 234.62L114.592 199.691C114.769 199.431 115.099 199.348 115.377 199.49C115.652 199.631 115.777 199.944 115.674 200.235V200.236L105.891 227.694L91.7072 235.447C91.6194 235.495 91.5237 235.519 91.4291 235.519ZM113.837 202.523L92.642 233.838L105.108 227.024L113.837 202.523Z" fill="#EE8B48"/>
<path d="M68.2779 314.829C68.2148 314.829 68.1505 314.816 68.0887 314.79C67.8444 314.685 67.7313 314.402 67.8359 314.157L105.056 227.169C105.161 226.925 105.443 226.811 105.688 226.916C105.932 227.021 106.045 227.304 105.941 227.548L68.7205 314.536C68.6423 314.719 68.4646 314.829 68.2779 314.829Z" fill="#EE8B48"/>
<path d="M74.145 315.704C74.0756 315.704 74.0052 315.689 73.9384 315.657C73.6985 315.543 73.5966 315.255 73.711 315.015L100.359 259.042C100.473 258.802 100.76 258.699 101 258.814C101.24 258.929 101.342 259.216 101.227 259.456L74.5797 315.43C74.4972 315.603 74.3248 315.704 74.145 315.704Z" fill="#EE8B48"/>
<path d="M181.766 258.132L151.669 256.777C151.478 256.768 151.298 256.68 151.175 256.536C151.053 256.394 150.996 256.206 151.016 256.02C152.032 246.872 153.059 236.675 152.957 235.514L152.95 235.497C151.091 231.254 151.665 225.682 151.974 222.688C152.068 221.772 152.166 220.824 152.105 220.613L152.075 220.521C150.56 213.484 150.394 201.386 150.376 198.945C133.838 197.095 125.465 176.432 123.944 172.277C123.815 171.924 123.744 171.557 123.732 171.185L122.893 145.747L123.321 145.654C123.566 145.61 123.808 145.758 123.885 145.994L134.875 179.836C135.068 180.431 135.524 180.899 136.126 181.118L156.314 188.475L181.338 175.393L181.766 233.646V258.132ZM152.006 255.828L180.804 257.124V233.649L180.387 176.977L156.696 189.363L151.336 198.638C151.342 200.066 151.44 212.948 153.006 220.273C153.144 220.63 153.09 221.245 152.931 222.787C152.613 225.878 152.081 231.039 153.801 235.039C153.986 235.34 154.106 236.888 152.006 255.828ZM123.976 149.39L124.693 171.153C124.702 171.423 124.754 171.689 124.848 171.945C126.338 176.016 134.546 196.294 150.594 197.999L155.645 189.257L135.797 182.024C134.915 181.702 134.245 181.014 133.96 180.134L123.976 149.39Z" fill="#EE8B48"/>
<path d="M239.435 146.914L182.063 122.906C181.66 122.729 181.732 123.187 181.731 123.62L181.688 332.213H185.056C189.046 332.213 192.534 329.577 193.541 325.8L212.118 256.144L230.715 240.848L231.56 221.004L240.53 188.3C240.626 187.951 241.128 187.941 241.239 188.285L253.115 225.138L253.686 234.069C253.868 236.918 254.491 239.723 255.534 242.389L280.295 305.65C281.609 309.007 282.392 312.54 282.616 316.129L283.371 328.191C283.487 330.039 283.818 331.868 284.357 333.643L288.195 346.269L308.059 352.057L318.625 347.509L318.242 335.516C318.229 335.098 318.753 334.889 319.042 335.197C321.762 338.099 330.498 346.859 336.332 346.264C336.777 346.219 337.037 345.755 336.86 345.353C335.13 341.438 323.838 328.63 323.838 328.63C323.838 328.63 320.765 322.493 307.296 316.906C305.994 316.366 305.026 315.26 304.677 313.92L303.128 307.959L291.169 236.642C290.88 234.918 290.222 233.272 289.239 231.813L280.032 218.149C276.031 212.211 273.825 205.31 273.508 198.205C273.284 193.195 271.729 186.053 266.639 176.975C268.541 155.271 277.417 115.789 228.601 115.996L225.431 127.985L242.971 150.31" fill="#FFD4AB"/>
<path d="M239.435 146.914L182.063 122.906C181.66 122.729 181.732 123.187 181.731 123.62L181.688 332.213H185.056C189.046 332.213 192.534 329.577 193.541 325.8L212.118 256.144L230.715 240.848L231.56 221.004L240.53 188.3C240.626 187.951 241.128 187.941 241.239 188.285L253.115 225.138L253.686 234.069C253.868 236.918 254.491 239.723 255.534 242.389L280.295 305.65C281.609 309.007 282.392 312.54 282.616 316.129L283.371 328.191C283.487 330.039 283.818 331.868 284.357 333.643L288.195 346.269L308.059 352.057L318.625 347.509L318.242 335.516C318.229 335.098 318.753 334.889 319.042 335.197C321.762 338.099 330.498 346.859 336.332 346.264C336.777 346.219 337.037 345.755 336.86 345.353C335.13 341.438 323.838 328.63 323.838 328.63C323.838 328.63 320.765 322.493 307.296 316.906C305.994 316.366 305.026 315.26 304.677 313.92L303.128 307.959L291.169 236.642C290.88 234.918 290.222 233.272 289.239 231.813L280.032 218.149C276.031 212.211 273.825 205.31 273.508 198.205C273.284 193.195 271.729 186.053 266.639 176.975C268.541 155.271 277.417 115.789 228.601 115.996L225.431 127.985L242.971 150.31" fill="url(#paint5_linear_174_167961)"/>
<path d="M157.416 190.375L182.711 177.267L207.68 190.345L213.499 200.095L213.16 209.498C213.16 209.498 212.311 221.852 211.717 222.566C211.124 223.279 213.251 232.108 211.118 237.562C211.005 238.973 213.306 257.988 213.306 257.988L187.695 330.269L177.429 330.94L168.728 305.762L152.358 258.255L154.566 237.903C154.566 237.903 151.805 231.215 153.408 223.903C153.408 223.903 151.003 202.948 151.627 199.916C152.339 199.114 157.416 190.375 157.416 190.375Z" fill="url(#paint6_linear_174_167961)"/>
<path d="M151.006 208.815C150.954 208.815 150.902 208.807 150.85 208.789L135.394 203.502C134.514 203.201 133.818 202.502 133.533 201.631L123.77 171.787C123.687 171.534 123.825 171.262 124.078 171.179C124.33 171.096 124.602 171.235 124.685 171.487L134.448 201.33C134.639 201.916 135.109 202.387 135.705 202.591L151.161 207.878C151.413 207.964 151.547 208.238 151.461 208.489C151.393 208.689 151.206 208.815 151.006 208.815Z" fill="#EE8B48"/>
<path d="M152.166 223.027L134.904 215.791C134.344 215.556 133.876 215.165 133.55 214.66L126.108 203.115C125.964 202.892 126.028 202.594 126.252 202.449C126.475 202.306 126.773 202.369 126.917 202.593L134.359 214.138C134.578 214.479 134.895 214.743 135.275 214.902L152.079 221.947L180.78 204.034C181.005 203.893 181.302 203.962 181.443 204.188C181.583 204.414 181.514 204.711 181.289 204.852L152.166 223.027Z" fill="#EE8B48"/>
<path d="M153.391 235.785C153.323 235.785 153.254 235.771 153.189 235.74L131.713 225.791C131.472 225.679 131.367 225.393 131.478 225.152C131.59 224.91 131.876 224.805 132.117 224.917L153.593 234.866C153.834 234.978 153.939 235.264 153.828 235.505C153.746 235.681 153.572 235.785 153.391 235.785Z" fill="#EE8B48"/>
<path d="M181.281 233.174L153.385 234.821L153.442 235.783L181.338 234.136L181.281 233.174Z" fill="#EE8B48"/>
<path d="M128.455 279.539C128.455 279.539 108.59 332.456 119.579 391.574L127.959 430.92C128.007 431.145 128.014 431.375 127.98 431.603C127.556 434.446 124.703 454.451 126.458 466.66C126.629 467.856 126.524 469.072 126.158 470.225C123.678 478.05 115.336 511.47 135.217 559.008C137.075 569.184 138.932 585.749 139.355 589.607C139.41 590.111 139.297 590.616 139.03 591.051C137.804 593.05 134.589 599.53 139.866 605.724C127.609 626.808 122.538 627.221 129.3 633.836C136.461 635.393 149.24 639.147 160.234 629.927C161.582 628.796 162.416 627.19 162.578 625.46C163.379 616.887 162.689 604.07 162.689 604.07C162.689 604.07 166.493 600.763 159.308 585.053C152.123 569.343 159.731 549.499 159.731 549.499C159.731 549.499 171.987 515.599 159.731 480.872C160.153 474.258 166.916 454 165.648 437.877C165.648 439.117 183.399 361.809 177.482 344.858C178.75 345.685 128.455 279.539 128.455 279.539Z" fill="url(#paint7_linear_174_167961)"/>
<path d="M157.734 556.585C157.517 556.585 157.319 556.437 157.266 556.216L156.883 554.614C154.756 545.743 152.558 536.569 151.048 527.625C149.49 518.395 148.152 508.587 150.34 499.06C151.635 493.419 154.173 489.055 156.859 484.436C157.636 483.099 158.44 481.716 159.235 480.268C159.363 480.034 159.656 479.95 159.889 480.078C160.122 480.206 160.207 480.499 160.079 480.732C159.278 482.19 158.471 483.578 157.691 484.92C155.042 489.475 152.541 493.778 151.278 499.276C149.129 508.631 150.455 518.331 151.997 527.464C153.501 536.376 155.696 545.534 157.819 554.39L158.202 555.991C158.264 556.25 158.105 556.51 157.847 556.572C157.809 556.581 157.771 556.585 157.734 556.585Z" fill="#EE8B48"/>
<path d="M162.649 604.452C162.396 604.452 162.184 604.255 162.169 603.999C161.929 599.88 159.896 596.053 157.93 592.352C157.415 591.381 156.881 590.377 156.388 589.383C152.118 580.77 150.166 571.382 148.229 560.887C143.177 533.52 138.885 505.303 134.734 478.016L133.593 470.522C133.553 470.259 133.734 470.013 133.997 469.973C134.259 469.934 134.505 470.114 134.545 470.377L135.685 477.871C139.835 505.151 144.126 533.36 149.175 560.712C151.099 571.134 153.035 580.453 157.25 588.955C157.737 589.937 158.267 590.935 158.78 591.9C160.794 595.693 162.877 599.614 163.13 603.942C163.145 604.208 162.943 604.436 162.678 604.451C162.668 604.452 162.658 604.452 162.649 604.452Z" fill="#EE8B48"/>
<path d="M151.769 594.063C151.559 594.063 151.366 593.924 151.306 593.712C148.467 583.66 145.652 573.632 142.93 563.933C140.21 554.241 137.397 544.22 134.561 534.176C133.968 532.077 133.364 529.981 132.761 527.888C127.763 510.541 122.595 492.604 124.576 474.24C124.605 473.975 124.842 473.783 125.106 473.813C125.371 473.841 125.562 474.079 125.533 474.343C123.572 492.519 128.713 510.364 133.686 527.621C134.289 529.716 134.894 531.813 135.487 533.914C138.323 543.959 141.136 553.98 143.857 563.672C146.579 573.371 149.394 583.399 152.232 593.45C152.304 593.706 152.156 593.972 151.9 594.045C151.856 594.057 151.812 594.063 151.769 594.063Z" fill="#EE8B48"/>
<path d="M163.37 534.54C163.314 534.54 163.258 534.53 163.203 534.51C155.387 531.626 150.085 523.988 149.367 514.577C149.346 514.312 149.545 514.081 149.81 514.06C150.075 514.04 150.306 514.239 150.326 514.504C151.015 523.534 156.077 530.854 163.536 533.606C163.786 533.698 163.913 533.974 163.821 534.224C163.75 534.419 163.566 534.54 163.37 534.54Z" fill="#EE8B48"/>
<path d="M139.771 605.993C139.76 605.993 139.75 605.993 139.739 605.992C139.474 605.975 139.273 605.746 139.29 605.481C139.427 603.351 140.971 601.341 142.541 599.465C145.26 596.217 148.306 593.237 152.181 593.462C154.315 593.584 156.164 594.705 157.538 595.667C161.599 598.513 163.468 601.153 163.252 603.736C163.23 604.001 162.999 604.201 162.732 604.176C162.467 604.154 162.271 603.921 162.293 603.656C162.478 601.444 160.742 599.089 156.986 596.457C155.717 595.567 154.018 594.532 152.126 594.424C148.676 594.223 145.836 597.028 143.279 600.084C141.811 601.837 140.369 603.703 140.25 605.542C140.234 605.797 140.022 605.993 139.771 605.993Z" fill="#EE8B48"/>
<path d="M171.565 85.6471L181.131 122.31C181.211 122.618 180.965 122.915 180.64 122.902L176.76 122.745L163.112 98.8765L162.689 74.8984L171.565 85.6471Z" fill="#FFD4AB"/>
<path d="M180.659 123.384C180.646 123.384 180.633 123.384 180.62 123.383L176.474 123.215L162.633 99.0081L162.184 73.5298L172.004 85.4219L181.596 122.188C181.672 122.481 181.607 122.786 181.416 123.023C181.233 123.251 180.952 123.384 180.659 123.384ZM177.045 122.274L180.659 122.42L171.126 85.8716L163.195 76.2659L163.591 98.744L177.045 122.274Z" fill="#EE8B48"/>
<path d="M125.125 147.217L180.665 123.793L237.202 147.059L226.634 179.719L206.029 187.731L181.989 175.799L180.758 175.026L156.809 187.834L135.593 179.954L125.125 147.217Z" fill="url(#paint8_linear_174_167961)"/>
<path d="M228.397 115.856L242.475 148.514C242.504 148.581 242.521 148.653 242.525 148.726C242.548 149.188 242.069 149.515 241.634 149.333L183.198 124.928C182.988 124.841 182.842 124.651 182.814 124.43L182.54 122.287C182.497 121.947 182.74 121.637 183.087 121.589L227.718 115.479C228.005 115.44 228.284 115.595 228.397 115.856Z" fill="#FFD4AB"/>
<path d="M228.397 115.856L242.475 148.514C242.504 148.581 242.521 148.653 242.525 148.726C242.548 149.188 242.069 149.515 241.634 149.333L183.198 124.928C182.988 124.841 182.842 124.651 182.814 124.43L182.54 122.287C182.497 121.947 182.74 121.637 183.087 121.589L227.718 115.479C228.005 115.44 228.284 115.595 228.397 115.856Z" fill="url(#paint9_linear_174_167961)"/>
<path d="M241.887 149.866C241.74 149.866 241.591 149.837 241.449 149.778L183.013 125.373C182.646 125.22 182.387 124.882 182.337 124.491L182.063 122.348C181.987 121.749 182.417 121.195 183.022 121.112L227.654 115.002C228.153 114.932 228.641 115.206 228.839 115.665L242.917 148.323C242.969 148.444 242.999 148.571 243.006 148.701C243.025 149.081 242.85 149.439 242.537 149.659C242.343 149.796 242.116 149.866 241.887 149.866ZM227.807 115.955C227.8 115.955 227.792 115.956 227.784 115.957L183.152 122.066C183.067 122.078 183.008 122.148 183.018 122.226L183.292 124.369C183.298 124.419 183.333 124.462 183.384 124.483L241.82 148.888C241.899 148.921 241.96 148.887 241.983 148.871C242.013 148.85 242.048 148.812 242.045 148.751C242.044 148.735 242.04 148.719 242.034 148.704L227.955 116.047C227.931 115.991 227.871 115.955 227.807 115.955Z" fill="#EE8B48"/>
<path d="M308.091 352.567L287.811 346.659L283.898 333.783C283.348 331.975 283.01 330.104 282.892 328.222L282.137 316.159C281.915 312.617 281.145 309.14 279.848 305.825L255.087 242.565C254.025 239.85 253.392 237.002 253.206 234.1L252.639 225.229L240.896 188.788L232.039 221.079L231.187 241.083L212.544 256.418L194.007 325.924C192.944 329.91 189.263 332.694 185.057 332.694H181.207L181.207 332.212L181.251 123.62C181.251 123.564 181.25 123.508 181.249 123.454C181.241 123.105 181.233 122.709 181.56 122.49C181.696 122.399 181.928 122.321 182.257 122.465L239.206 146.295L224.906 128.094L228.231 115.516L228.6 115.514C243.391 115.447 254.221 119.106 260.769 126.376C271.282 138.049 269.227 157.113 267.727 171.033C267.505 173.091 267.295 175.039 267.133 176.869C271.391 184.5 273.698 191.671 273.989 198.183C274.307 205.284 276.534 212.095 280.432 217.879L289.639 231.544C290.667 233.07 291.342 234.758 291.644 236.562L303.6 307.858L305.144 313.798C305.453 314.986 306.326 315.981 307.481 316.46C320.418 321.827 323.867 327.665 324.238 328.354C325.081 329.312 335.595 341.296 337.3 345.158C337.447 345.489 337.426 345.874 337.244 346.187C337.061 346.503 336.747 346.706 336.382 346.743C336.175 346.764 335.964 346.775 335.751 346.775C329.905 346.775 321.98 339.03 318.726 335.563L319.117 347.822L308.091 352.567ZM288.58 345.879L308.029 351.546L318.135 347.196L317.762 335.532C317.75 335.142 317.976 334.792 318.34 334.641C318.708 334.489 319.122 334.577 319.394 334.867C321.93 337.574 330.642 346.364 336.284 345.785C336.355 345.778 336.393 345.737 336.412 345.704C336.429 345.675 336.451 345.618 336.421 345.548C334.741 341.745 323.59 329.076 323.478 328.948L323.409 328.845C323.379 328.787 320.211 322.784 307.113 317.351C305.681 316.757 304.597 315.52 304.213 314.041L302.655 308.039L290.695 236.722C290.416 235.054 289.792 233.494 288.841 232.083L279.634 218.418C275.637 212.487 273.353 205.505 273.028 198.226C272.742 191.828 270.452 184.757 266.221 177.211L266.148 177.081L266.161 176.933C266.326 175.051 266.542 173.049 266.771 170.929C268.334 156.425 270.279 138.374 260.054 127.021C253.752 120.024 243.296 116.477 228.974 116.477C228.973 116.477 228.974 116.477 228.973 116.477L225.959 127.876L243.35 150.012L242.594 150.607L239.525 146.701L239.25 147.358L182.212 123.491C182.213 123.534 182.213 123.578 182.213 123.621L182.17 331.731H185.056C188.828 331.731 192.126 329.241 193.077 325.676L211.694 255.87L211.813 255.772L230.244 240.612L231.082 220.929L240.067 188.173C240.166 187.809 240.489 187.559 240.869 187.551C241.248 187.544 241.582 187.778 241.698 188.138L253.592 225.047L254.166 234.038C254.346 236.841 254.957 239.591 255.983 242.213L280.744 305.474C282.078 308.882 282.869 312.456 283.097 316.099L283.852 328.162C283.966 329.969 284.29 331.766 284.818 333.503L288.58 345.879Z" fill="#EE8B48"/>
<path d="M181.73 328.401V342.844L187.207 342.791C187.207 342.791 233.699 280.365 234.544 279.539C234.966 263.415 230.715 240.848 230.715 240.848L211.527 256.286L186.901 328.255L181.73 328.401Z" fill="#FFD4AB"/>
<path d="M181.73 328.401V342.844L187.207 342.791C187.207 342.791 233.699 280.365 234.544 279.539C234.966 263.415 230.715 240.848 230.715 240.848L211.527 256.286L186.901 328.255L181.73 328.401Z" fill="url(#paint10_linear_174_167961)"/>
<path d="M181.25 343.331V327.933L186.555 327.783L211.118 255.997L231.04 239.969L231.189 240.758C231.231 240.984 235.445 263.561 235.025 279.551L235.02 279.746L234.881 279.883C234.009 280.818 203.567 321.63 187.594 343.079L187.451 343.27L181.25 343.331ZM182.212 328.869V342.358L186.965 342.312C192.222 335.252 231.309 282.78 234.068 279.36C234.41 265.18 231.123 245.856 230.387 241.73L211.938 256.574L187.249 328.727L182.212 328.869Z" fill="#EE8B48"/>
<path d="M182.278 122.981C209.095 122.472 228.106 115.477 228.106 115.477L199.789 98.9404L182.006 122.468C181.844 122.682 182.005 122.986 182.278 122.981Z" fill="#FFD4AB"/>
<path d="M182.278 122.981C209.095 122.472 228.106 115.477 228.106 115.477L199.789 98.9404L182.006 122.468C181.844 122.682 182.005 122.986 182.278 122.981Z" fill="url(#paint11_linear_174_167961)"/>
<path d="M182.27 123.463C181.962 123.463 181.686 123.295 181.547 123.021C181.407 122.746 181.436 122.423 181.621 122.177L199.661 98.3093L229.23 115.577L228.271 115.93C228.08 116 208.874 122.957 182.286 123.463C182.281 123.463 182.275 123.463 182.27 123.463ZM182.268 122.5C182.268 122.5 182.268 122.5 182.267 122.5H182.268ZM199.914 99.5721L182.589 122.493C205.451 122.013 222.745 116.758 226.954 115.363L199.914 99.5721Z" fill="#EE8B48"/>
<path d="M282.887 317.066C282.656 317.066 282.452 316.9 282.413 316.664C282.369 316.402 282.546 316.153 282.808 316.109L304.116 312.529C304.378 312.485 304.626 312.662 304.67 312.924C304.714 313.187 304.537 313.435 304.275 313.479L282.967 317.06C282.94 317.064 282.913 317.066 282.887 317.066Z" fill="#EE8B48"/>
<path d="M300.055 313.921C299.857 313.921 299.673 313.799 299.602 313.602L271.236 234.92L276.34 212.87C276.4 212.611 276.658 212.449 276.917 212.509C277.176 212.57 277.338 212.828 277.278 213.087L272.238 234.86L300.507 313.275C300.597 313.525 300.468 313.802 300.218 313.892C300.164 313.911 300.109 313.921 300.055 313.921Z" fill="#EE8B48"/>
<path d="M271.62 235.108C271.467 235.108 271.316 235.035 271.223 234.899L247.181 199.921L247.168 199.798L241.945 148.281L266.949 176.694C267.125 176.894 267.106 177.198 266.906 177.374C266.707 177.55 266.403 177.531 266.227 177.331L243.206 151.171L248.114 199.578L272.016 234.353C272.166 234.572 272.111 234.872 271.892 235.023C271.809 235.08 271.714 235.108 271.62 235.108Z" fill="#EE8B48"/>
<path d="M247.778 200.074L257.499 227.359L271.522 235.024C271.61 235.072 271.705 234.972 271.649 234.89L248.008 199.961C247.923 199.837 247.728 199.933 247.778 200.074Z" fill="#FFD4AB"/>
<path d="M247.778 200.074L257.499 227.359L271.522 235.024C271.61 235.072 271.705 234.972 271.649 234.89L248.008 199.961C247.923 199.837 247.728 199.933 247.778 200.074Z" fill="url(#paint12_linear_174_167961)"/>
<path d="M271.57 235.518C271.476 235.518 271.38 235.495 271.292 235.447L257.108 227.694L247.325 200.236C247.222 199.945 247.346 199.631 247.622 199.49C247.9 199.348 248.23 199.432 248.406 199.688L272.048 234.62C272.197 234.84 272.177 235.131 271.998 235.328C271.885 235.453 271.729 235.518 271.57 235.518ZM257.891 227.024L270.357 233.838L249.162 202.523L257.891 227.024ZM248.232 199.912V199.912C248.232 199.912 248.232 199.912 248.232 199.912Z" fill="#EE8B48"/>
<path d="M294.719 314.829C294.532 314.829 294.355 314.719 294.277 314.537L257.057 227.549C256.952 227.304 257.065 227.021 257.309 226.916C257.553 226.811 257.836 226.925 257.941 227.169L295.161 314.157C295.266 314.402 295.153 314.685 294.908 314.79C294.847 314.816 294.782 314.829 294.719 314.829Z" fill="#EE8B48"/>
<path d="M288.854 315.704C288.674 315.704 288.502 315.603 288.42 315.43L261.772 259.456C261.657 259.216 261.759 258.929 261.999 258.814C262.239 258.699 262.526 258.802 262.64 259.042L289.288 315.015C289.403 315.255 289.301 315.543 289.061 315.657C288.994 315.689 288.923 315.704 288.854 315.704Z" fill="#EE8B48"/>
<path d="M181.232 258.132V233.649L181.661 175.393L206.684 188.475L226.873 181.118C227.475 180.899 227.93 180.432 228.124 179.836L239.243 145.598L239.676 145.654C239.921 145.696 240.1 145.915 240.092 146.164L239.267 171.185C239.255 171.557 239.183 171.925 239.054 172.277C237.533 176.432 229.161 197.095 212.623 198.945C212.605 201.386 212.438 213.485 210.924 220.522L210.882 220.64C210.833 220.824 210.931 221.772 211.025 222.688C211.334 225.682 211.908 231.254 210.049 235.497L210.041 235.514C209.94 236.677 210.967 246.873 211.983 256.02C212.003 256.206 211.945 256.394 211.824 256.536C211.701 256.681 211.521 256.768 211.33 256.777L181.232 258.132ZM182.612 176.977L182.195 233.653V257.124L210.993 255.828C210.83 254.353 210.31 249.613 209.852 245.066C208.937 235.961 209.016 235.274 209.202 235.03C210.918 231.032 210.386 225.876 210.068 222.787C209.909 221.245 209.855 220.63 209.993 220.273C211.558 212.948 211.656 200.066 211.662 198.638L206.303 189.363L182.612 176.977ZM207.353 189.257L212.405 197.999C228.453 196.294 236.661 176.016 238.151 171.945C238.245 171.689 238.297 171.423 238.306 171.153L239.023 149.39L229.039 180.134C228.754 181.014 228.084 181.703 227.202 182.024L207.353 189.257ZM240.03 146.29L240.029 146.293C240.029 146.292 240.029 146.291 240.03 146.29Z" fill="#EE8B48"/>
<path d="M211.993 208.815C211.793 208.815 211.606 208.689 211.538 208.489C211.452 208.237 211.586 207.963 211.837 207.877L227.294 202.59C227.889 202.387 228.359 201.915 228.551 201.33L238.314 171.487C238.397 171.234 238.668 171.097 238.921 171.179C239.174 171.262 239.311 171.534 239.228 171.787L229.465 201.63C229.18 202.501 228.485 203.201 227.605 203.502L212.149 208.789C212.097 208.807 212.045 208.815 211.993 208.815Z" fill="#EE8B48"/>
<path d="M210.832 223.028L210.621 222.896L181.709 204.852C181.484 204.711 181.415 204.414 181.555 204.188C181.696 203.963 181.993 203.894 182.218 204.034L210.919 221.947L227.723 214.903C228.103 214.743 228.42 214.479 228.639 214.138L236.081 202.593C236.226 202.37 236.523 202.305 236.747 202.45C236.97 202.594 237.034 202.892 236.89 203.116L229.448 214.661C229.123 215.166 228.654 215.557 228.094 215.791L210.832 223.028Z" fill="#EE8B48"/>
<path d="M209.609 235.785C209.427 235.785 209.253 235.681 209.172 235.505C209.06 235.264 209.165 234.977 209.406 234.866L230.882 224.917C231.124 224.805 231.41 224.91 231.521 225.151C231.633 225.393 231.528 225.679 231.287 225.791L209.81 235.74C209.745 235.77 209.676 235.785 209.609 235.785Z" fill="#EE8B48"/>
<path d="M181.75 233.152L181.693 234.114L209.59 235.761L209.647 234.799L181.75 233.152Z" fill="#EE8B48"/>
<path d="M234.545 279.539C234.545 279.539 254.41 332.456 243.421 391.574L235.041 430.92C234.993 431.145 234.986 431.375 235.019 431.603C235.444 434.446 238.297 454.451 236.542 466.66C236.371 467.856 236.476 469.072 236.842 470.225C239.322 478.05 247.664 511.47 227.783 559.008C225.925 569.184 224.067 585.749 223.645 589.607C223.59 590.111 223.703 590.616 223.97 591.051C225.196 593.05 228.41 599.53 223.134 605.724C235.391 626.808 240.462 627.221 233.7 633.836C226.539 635.393 213.76 639.147 202.766 629.927C201.418 628.796 200.584 627.19 200.422 625.46C199.621 616.887 200.311 604.07 200.311 604.07C200.311 604.07 196.507 600.763 203.692 585.053C210.877 569.343 203.269 549.499 203.269 549.499C203.269 549.499 191.013 515.599 203.269 480.872C202.847 474.258 196.084 454 197.352 437.877C197.352 439.117 179.601 361.809 185.518 344.858C184.25 345.685 234.545 279.539 234.545 279.539Z" fill="url(#paint13_linear_174_167961)"/>
<path d="M205.265 556.585C205.228 556.585 205.191 556.581 205.153 556.572C204.894 556.51 204.735 556.25 204.797 555.991L205.181 554.386C207.304 545.531 209.498 536.375 211.003 527.464C212.545 518.331 213.87 508.631 211.722 499.276C210.459 493.778 207.957 489.475 205.309 484.92C204.528 483.578 203.721 482.19 202.921 480.732C202.793 480.499 202.878 480.206 203.111 480.078C203.344 479.95 203.637 480.035 203.764 480.268C204.559 481.716 205.363 483.098 206.141 484.436C208.827 489.056 211.364 493.419 212.66 499.06C214.848 508.587 213.51 518.395 211.952 527.625C210.442 536.568 208.244 545.741 206.118 554.611L205.733 556.216C205.68 556.437 205.483 556.585 205.265 556.585Z" fill="#EE8B48"/>
<path d="M200.349 604.452C200.339 604.452 200.33 604.452 200.32 604.451C200.055 604.436 199.852 604.208 199.868 603.942C200.12 599.614 202.203 595.693 204.218 591.9C204.73 590.935 205.261 589.937 205.747 588.955C209.963 580.453 211.899 571.134 213.822 560.712C218.872 533.357 223.163 505.146 227.314 477.864L228.453 470.377C228.493 470.114 228.738 469.933 229.001 469.973C229.264 470.013 229.445 470.259 229.405 470.522L228.265 478.009C224.114 505.299 219.821 533.518 214.769 560.887C212.832 571.382 210.88 580.77 206.61 589.383C206.117 590.377 205.583 591.382 205.068 592.353C203.102 596.054 201.069 599.88 200.829 603.999C200.814 604.255 200.602 604.452 200.349 604.452Z" fill="#EE8B48"/>
<path d="M211.231 594.063C211.188 594.063 211.144 594.057 211.1 594.045C210.845 593.972 210.696 593.706 210.768 593.45C213.607 583.399 216.421 573.37 219.144 563.672C221.864 553.98 224.677 543.958 227.513 533.914C228.107 531.813 228.711 529.715 229.315 527.62C234.287 510.363 239.428 492.519 237.467 474.343C237.438 474.079 237.629 473.841 237.894 473.812C238.158 473.784 238.395 473.975 238.424 474.239C240.405 492.604 235.237 510.541 230.239 527.887C229.636 529.981 229.032 532.076 228.44 534.176C225.603 544.22 222.79 554.241 220.07 563.933C217.348 573.631 214.533 583.66 211.694 593.712C211.635 593.924 211.442 594.063 211.231 594.063Z" fill="#EE8B48"/>
<path d="M199.63 534.539C199.434 534.539 199.25 534.419 199.178 534.224C199.086 533.974 199.214 533.698 199.463 533.606C206.922 530.854 211.984 523.534 212.673 514.504C212.694 514.239 212.924 514.037 213.19 514.06C213.455 514.081 213.653 514.312 213.633 514.578C212.915 523.988 207.613 531.626 199.796 534.51C199.741 534.53 199.685 534.539 199.63 534.539Z" fill="#EE8B48"/>
<path d="M223.228 605.993C222.977 605.993 222.765 605.797 222.749 605.543C222.63 603.704 221.188 601.838 219.72 600.084C217.163 597.028 214.319 594.227 210.873 594.424C208.981 594.532 207.282 595.567 206.013 596.457C202.257 599.089 200.521 601.444 200.706 603.656C200.728 603.921 200.532 604.154 200.267 604.176C200.003 604.201 199.769 604.002 199.747 603.736C199.531 601.153 201.4 598.513 205.461 595.667C206.834 594.705 208.684 593.585 210.818 593.462C214.685 593.241 217.739 596.216 220.458 599.465C222.028 601.341 223.572 603.351 223.709 605.481C223.726 605.746 223.525 605.975 223.26 605.992C223.249 605.993 223.239 605.993 223.228 605.993Z" fill="#EE8B48"/>
<path d="M191.436 85.6469L181.871 122.31C181.79 122.618 182.037 122.915 182.362 122.902L186.241 122.745L199.889 98.8763L200.312 74.8982L191.436 85.6469Z" fill="#FFD4AB"/>
<path d="M182.341 123.384C182.048 123.384 181.767 123.25 181.584 123.023C181.393 122.785 181.328 122.481 181.404 122.187L190.997 85.4216L200.816 73.5295L200.367 99.0079L186.526 123.215L182.38 123.383C182.367 123.383 182.354 123.384 182.341 123.384ZM191.874 85.8714L182.336 122.431L185.954 122.275L199.409 98.7438L199.806 76.2656L191.874 85.8714Z" fill="#EE8B48"/>
<path d="M158.404 69.2151C160.649 68.7486 161.589 64.1307 160.503 58.9008C159.416 53.6709 156.715 49.8094 154.47 50.2759C152.225 50.7424 151.285 55.3603 152.371 60.5902C153.458 65.8201 156.159 69.6816 158.404 69.2151Z" fill="#FFD4AB"/>
<path d="M158.034 69.7351C155.601 69.7351 152.967 65.9011 151.887 60.6438C151.084 56.7322 151.378 52.981 152.637 51.0873C153.114 50.3681 153.706 49.9348 154.395 49.7996C156.94 49.2992 159.835 53.2735 160.979 58.8484C161.783 62.76 161.489 66.5113 160.23 68.4048C159.752 69.124 159.161 69.5574 158.472 69.6926C158.327 69.721 158.18 69.7351 158.034 69.7351ZM154.837 50.7204C154.75 50.7204 154.664 50.7285 154.58 50.7449C154.153 50.8289 153.768 51.1237 153.438 51.6209C152.332 53.2856 152.087 56.8335 152.83 60.4497C153.936 65.8372 156.545 69.0905 158.287 68.7471C158.714 68.6632 159.098 68.3684 159.429 67.8711C160.535 66.2066 160.78 62.6585 160.037 59.0424C158.984 53.9141 156.569 50.7204 154.837 50.7204Z" fill="#EE8B48"/>
<path d="M211.081 60.5897C212.167 55.3598 211.227 50.7419 208.982 50.2754C206.737 49.8089 204.036 53.6704 202.949 58.9003C201.863 64.1302 202.803 68.7481 205.048 69.2146C207.294 69.6811 209.994 65.8197 211.081 60.5897Z" fill="#FFD4AB"/>
<path d="M205.411 69.735C205.264 69.735 205.118 69.7211 204.973 69.6925C204.284 69.5571 203.693 69.1239 203.215 68.4047C201.956 66.511 201.662 62.7599 202.465 58.8482C203.61 53.2733 206.502 49.2984 209.05 49.7994C209.739 49.9347 210.331 50.368 210.808 51.087C212.067 52.9807 212.361 56.732 211.558 60.6436C210.478 65.9006 207.844 69.735 205.411 69.735ZM203.408 59.0422C202.665 62.6584 202.91 66.2065 204.016 67.871C204.347 68.3682 204.731 68.663 205.158 68.747C206.901 69.0878 209.509 65.8368 210.615 60.4496C211.358 56.8334 211.113 53.2853 210.007 51.6208C209.677 51.1236 209.292 50.8288 208.865 50.7448C207.12 50.4019 204.515 53.6559 203.408 59.0422Z" fill="#EE8B48"/>
<path d="M205.354 52.8491C205.354 62.5261 205.785 72.8566 201.107 79.0321C196.723 84.8199 188.749 89.3675 181.515 89.3675C174.406 89.3675 164.799 83.0285 162.333 79.7211C157.636 73.4222 158.086 62.4391 158.086 52.5734C158.086 43.4521 158.005 34.0952 161.648 27.6306C166.197 19.5585 173.909 15.0903 181.514 15.0903C189.218 15.0903 197.654 19.5144 202.203 27.7684C205.741 34.1883 205.354 43.8755 205.354 52.8491Z" fill="#FFD4AB"/>
<path d="M181.515 89.8491C174.329 89.8491 164.526 83.4655 161.948 80.0092C157.531 74.0849 157.566 64.36 157.6 54.9554C157.603 54.1562 157.605 53.3611 157.605 52.5733V51.9926C157.604 43.0641 157.602 33.8316 161.23 27.3938C165.674 19.5077 173.447 14.6086 181.515 14.6086C190.012 14.6086 198.298 19.6828 202.625 27.5357C205.907 33.4914 205.874 42.1035 205.842 50.4317C205.839 51.2414 205.836 52.048 205.836 52.849C205.836 53.5992 205.839 54.3533 205.841 55.1092C205.873 64.1492 205.905 73.4969 201.491 79.323C196.796 85.5206 188.582 89.8491 181.515 89.8491ZM181.515 15.572C173.794 15.572 166.342 20.2832 162.068 27.8672C158.564 34.0845 158.566 43.1882 158.568 51.9924L158.568 52.5733C158.568 53.3623 158.565 54.1586 158.562 54.959C158.529 64.2052 158.494 73.7665 162.719 79.4329C165.195 82.7533 174.613 88.8858 181.515 88.8858C188.3 88.8858 196.2 84.7141 200.724 78.741C204.941 73.1743 204.909 63.9922 204.879 55.1126C204.876 54.3555 204.874 53.6004 204.874 52.849C204.874 52.0468 204.877 51.2388 204.88 50.4282C204.911 42.2226 204.944 33.738 201.782 28.001C197.622 20.4507 189.667 15.572 181.515 15.572Z" fill="#EE8B48"/>
<path d="M184.414 328.985H179.045V342.261H184.414V328.985Z" fill="#F5A532"/>
<path d="M128.527 280.455L177.931 344.845C177.931 344.845 179.331 367.197 176.789 377.378C175.821 386.225 171.099 412.646 171.099 412.646L165.11 438.135C165.11 438.135 157.057 446.581 150.278 432.765C150.278 433.492 140.109 441.006 137.446 433.128C137.446 433.371 128.375 431.593 128.375 431.593C128.375 431.593 116.382 380.226 116.745 368.227C116.745 359.137 115.898 321.99 123.464 296.418C124.916 290.055 128.527 280.455 128.527 280.455Z" fill="url(#paint14_linear_174_167961)"/>
<path d="M234.539 280.213L185.135 344.603C185.135 344.603 183.735 366.955 186.277 377.135C187.245 385.983 191.966 412.404 191.966 412.404L197.26 437.418C197.26 437.418 206.009 446.339 212.788 432.522C212.788 433.25 222.957 440.764 225.62 432.886C225.62 433.128 234.691 431.35 234.691 431.35C234.691 431.35 246.684 379.983 246.321 367.985C246.321 358.895 247.168 321.748 239.602 296.176C238.149 289.813 234.539 280.213 234.539 280.213Z" fill="url(#paint15_linear_174_167961)"/>
<path d="M111.068 283.943C111.124 283.967 111.188 283.982 111.258 283.982C111.191 283.982 111.126 283.968 111.068 283.943Z" fill="#EE8B48"/>
<path d="M143.177 636.391C138.429 636.391 134.073 635.406 130.746 634.653C130.205 634.53 129.688 634.413 129.197 634.307L129.062 634.277L128.963 634.181C123.933 629.26 125.2 627.392 130.531 619.531C132.719 616.304 135.702 611.905 139.28 605.773C134.075 599.376 137.447 592.71 138.619 590.799C138.831 590.454 138.92 590.06 138.876 589.659C138.514 586.36 136.621 569.404 134.752 559.146C126.284 538.881 121.932 518.89 121.82 499.727C121.73 484.297 124.503 473.853 125.699 470.079C126.048 468.98 126.142 467.853 125.981 466.729C124.203 454.363 127.161 433.832 127.504 431.531C127.529 431.361 127.524 431.189 127.488 431.021L119.108 391.675C113.416 361.053 116.137 332.156 119.422 313.304C122.981 292.877 127.954 279.502 128.004 279.369L128.31 278.553L128.837 279.247C128.96 279.409 141.326 295.673 153.491 311.773C160.636 321.229 166.314 328.779 170.369 334.213C172.777 337.441 174.632 339.949 175.883 341.668C177.591 344.016 178.033 344.623 178.012 344.926C180.96 353.941 177.668 378.514 174.369 397.627C172.423 408.902 170.344 419.104 168.943 425.677C167.893 430.6 166.618 436.401 166.131 437.89C166.989 448.958 164.14 461.769 162.058 471.127C161.114 475.37 160.366 478.735 160.217 480.805C166.546 498.8 166.206 516.541 164.804 528.265C163.283 540.989 160.213 549.578 160.183 549.663C160.104 549.868 152.729 569.512 159.745 584.852C166.178 598.918 163.893 603.324 163.179 604.241C163.261 605.895 163.797 617.573 163.056 625.505C162.881 627.382 161.988 629.083 160.542 630.296C154.906 635.023 148.77 636.391 143.177 636.391ZM129.537 633.395C129.99 633.494 130.464 633.601 130.958 633.713C138.488 635.417 149.869 637.992 159.924 629.558C161.175 628.509 161.947 627.038 162.098 625.415C162.887 616.975 162.215 604.224 162.208 604.096L162.196 603.861L162.373 603.706C162.4 603.681 165.732 600.258 158.87 585.253C151.684 569.541 159.204 549.527 159.281 549.326C159.308 549.251 162.346 540.745 163.852 528.123C165.24 516.488 165.573 498.874 159.276 481.033L159.244 480.94L159.25 480.841C159.386 478.705 160.151 475.269 161.119 470.918C163.171 461.69 165.976 449.084 165.19 438.216L165.169 438.207L165.166 437.877L165.584 437.86L165.218 437.689C165.523 436.889 169.909 417.931 173.525 396.858C178.181 369.719 179.392 351.793 177.027 345.017L176.984 344.895C175.185 341.954 145.049 302.162 128.608 280.536C127.485 283.742 123.408 296.024 120.365 313.494C117.097 332.262 114.39 361.028 120.052 391.486L128.429 430.82C128.489 431.102 128.498 431.389 128.456 431.674C128.115 433.96 125.175 454.362 126.933 466.592C127.113 467.843 127.004 469.149 126.617 470.371C123.79 479.288 116.087 512.021 135.66 558.822L135.69 558.921C137.568 569.207 139.47 586.243 139.832 589.554C139.9 590.17 139.764 590.774 139.44 591.303C138.337 593.1 135.136 599.43 140.232 605.411L140.453 605.671L140.282 605.966C136.612 612.279 133.557 616.783 131.327 620.072C126.04 627.869 125.194 629.116 129.537 633.395Z" fill="#EE8B48"/>
<path d="M158.743 441.106C158.007 441.106 157.297 441.014 156.654 440.821C153.476 439.867 151.09 436.74 149.754 431.778C146.456 419.525 148.611 405.879 150.695 392.681C152.332 382.32 154.024 371.606 153.014 361.762C152.987 361.497 153.179 361.26 153.444 361.233C153.708 361.205 153.945 361.399 153.972 361.663C154.994 371.632 153.292 382.409 151.646 392.831C149.577 405.929 147.438 419.473 150.683 431.528C151.551 434.751 153.34 438.82 156.931 439.898C159.915 440.793 164.637 439.192 165.563 436.263C165.643 436.009 165.913 435.869 166.167 435.949C166.421 436.03 166.561 436.3 166.481 436.554C165.585 439.385 161.917 441.106 158.743 441.106Z" fill="#EE8B48"/>
<path d="M140.107 472.312C139.128 472.312 138.149 472.268 137.17 472.161C136.127 472.048 134.938 471.835 134.019 471.115C133.119 470.409 132.65 469.358 132.311 468.422C129.711 461.255 131.305 453.465 133.414 446.115C133.649 445.298 133.889 444.479 134.131 443.659C135.981 437.361 137.894 430.849 137.212 424.359C136.726 419.729 134.921 415.265 133.176 410.949C132.811 410.045 132.446 409.143 132.092 408.239C122.666 384.132 120.31 354.867 125.277 323.608C125.319 323.346 125.566 323.167 125.828 323.208C126.09 323.25 126.269 323.497 126.227 323.76C121.287 354.85 123.625 383.941 132.989 407.888C133.341 408.788 133.704 409.687 134.068 410.587C135.838 414.966 137.669 419.493 138.169 424.258C138.871 430.938 136.93 437.543 135.054 443.931C134.813 444.749 134.573 445.566 134.339 446.382C132.275 453.575 130.71 461.184 133.215 468.093C133.508 468.9 133.903 469.801 134.612 470.357C135.34 470.927 136.366 471.105 137.273 471.203C140.825 471.589 144.447 471.132 147.949 470.69C150.417 470.379 153.213 470.026 155.301 468.474C157.706 466.687 158.74 463.652 159.521 460.948C161.741 453.259 162.877 446.569 163.205 439.256C163.217 438.991 163.443 438.788 163.707 438.797C163.972 438.809 164.178 439.034 164.166 439.3C163.834 446.691 162.687 453.45 160.445 461.215C159.561 464.281 158.395 467.375 155.874 469.248C153.584 470.95 150.526 471.336 148.069 471.646C145.463 471.975 142.79 472.312 140.107 472.312Z" fill="#EE8B48"/>
<path d="M117.089 338.878C117.028 338.878 116.967 338.865 116.908 338.841C116.672 338.74 116.562 338.466 116.662 338.229C117.233 336.867 118.275 334.815 118.673 334.097L118.752 333.955C120.09 331.541 121.354 329.261 122.878 327.018C124.457 324.694 125.808 322.479 127.007 320.244C129.754 315.124 131.558 310.095 132.367 305.298C133.46 298.818 133.34 292.353 133.124 286.287C133.114 286.029 133.315 285.813 133.57 285.804C133.827 285.797 134.041 285.996 134.051 286.253C134.269 292.368 134.389 298.887 133.281 305.455C132.455 310.353 130.619 315.478 127.823 320.688C126.608 322.952 125.241 325.194 123.644 327.545C122.143 329.753 120.889 332.015 119.561 334.41L119.483 334.552C119.093 335.255 118.075 337.261 117.516 338.592C117.441 338.77 117.27 338.878 117.089 338.878Z" fill="#EE8B48"/>
<path d="M169.138 422.496C168.899 422.496 168.693 422.314 168.667 422.07C167.39 409.717 163.618 397.571 159.97 385.826C158.247 380.279 156.466 374.544 154.984 368.893C152.589 359.759 149.791 350.572 147.086 341.687C141.705 324.013 136.14 305.738 133.474 287.007C133.437 286.747 133.617 286.507 133.876 286.47C134.136 286.432 134.375 286.613 134.412 286.873C137.069 305.531 142.622 323.771 147.993 341.41C150.701 350.304 153.501 359.5 155.901 368.652C157.378 374.282 159.156 380.007 160.875 385.544C164.537 397.334 168.323 409.525 169.611 421.972C169.638 422.233 169.448 422.467 169.188 422.493C169.171 422.495 169.155 422.496 169.138 422.496Z" fill="#EE8B48"/>
<path d="M167.892 381.53C167.827 381.53 167.76 381.516 167.696 381.487C167.457 381.378 167.353 381.097 167.461 380.858C168.057 379.554 168.575 378.199 169.003 376.829C169.494 375.253 169.88 373.609 170.253 372.02C170.703 370.107 171.167 368.129 171.446 366.159C172.646 357.669 170.864 349.355 169.141 341.314C168.445 338.065 167.725 334.705 167.203 331.356C167.163 331.097 167.34 330.854 167.598 330.813C167.857 330.776 168.1 330.951 168.14 331.209C168.658 334.532 169.375 337.879 170.069 341.115C171.809 349.237 173.609 357.634 172.385 366.292C172.1 368.305 171.631 370.304 171.177 372.237C170.8 373.843 170.41 375.503 169.908 377.112C169.469 378.519 168.936 379.912 168.324 381.253C168.244 381.427 168.072 381.53 167.892 381.53Z" fill="#EE8B48"/>
<path d="M172.795 403.425C172.578 403.425 172.383 403.276 172.333 403.056C172.158 402.288 172.048 401.594 171.942 400.923C171.838 400.268 171.731 399.59 171.563 398.853C167.102 379.251 162.549 360.115 155.938 341.494C154.348 337.014 152.374 332.534 150.464 328.202C146.105 318.308 141.597 308.078 141.188 296.893C141.178 296.631 141.383 296.411 141.644 296.401C141.907 296.393 142.126 296.597 142.136 296.858C142.538 307.861 147.008 318.007 151.332 327.819C153.248 332.167 155.229 336.663 156.832 341.176C163.46 359.845 168.02 379.012 172.488 398.642C172.663 399.41 172.773 400.104 172.879 400.775C172.982 401.43 173.09 402.108 173.257 402.845C173.316 403.101 173.156 403.355 172.901 403.413C172.865 403.421 172.83 403.425 172.795 403.425Z" fill="#EE8B48"/>
<path d="M148.908 323.112C148.768 323.112 148.629 323.05 148.535 322.931C148.373 322.725 148.409 322.427 148.614 322.264C151.059 320.336 153.138 316.75 153.786 313.341C153.835 313.083 154.083 312.913 154.34 312.963C154.597 313.012 154.766 313.261 154.717 313.518C154.029 317.136 151.813 320.95 149.201 323.01C149.114 323.079 149.011 323.112 148.908 323.112Z" fill="#EE8B48"/>
<path d="M153.144 332.969C152.906 332.969 152.702 332.791 152.673 332.55C152.643 332.29 152.828 332.055 153.086 332.023C153.104 332.001 153.124 331.978 153.144 331.954C155.641 329.095 157.597 325.355 158.957 320.838C159.032 320.587 159.297 320.445 159.547 320.52C159.798 320.596 159.94 320.861 159.865 321.112C158.466 325.76 156.445 329.618 153.858 332.579C153.844 332.595 153.832 332.609 153.824 332.62C153.768 332.785 153.615 332.956 153.341 332.956C153.32 332.956 153.28 332.956 153.199 332.966C153.181 332.968 153.162 332.969 153.144 332.969Z" fill="#EE8B48"/>
<path d="M144.791 312.608C144.778 312.608 144.764 312.608 144.75 312.606C144.489 312.584 144.296 312.354 144.318 312.093C144.537 309.543 145.313 307.603 146.212 305.357C146.363 304.979 146.517 304.595 146.672 304.197C146.768 303.953 147.042 303.833 147.286 303.928C147.53 304.023 147.651 304.299 147.555 304.543C147.399 304.943 147.244 305.33 147.092 305.71C146.221 307.886 145.469 309.765 145.263 312.174C145.242 312.421 145.035 312.608 144.791 312.608Z" fill="#EE8B48"/>
<path d="M204.401 440.985C205.137 440.985 205.847 440.893 206.489 440.7C209.668 439.746 212.054 436.619 213.39 431.657C216.688 419.404 214.533 405.757 212.448 392.56C210.812 382.199 209.12 371.485 210.13 361.641C210.157 361.376 209.964 361.139 209.7 361.112C209.436 361.083 209.199 361.277 209.172 361.542C208.15 371.511 209.852 382.288 211.498 392.71C213.567 405.808 215.706 419.352 212.46 431.407C211.593 434.63 209.804 438.699 206.213 439.777C203.229 440.672 198.507 439.071 197.581 436.142C197.5 435.888 197.23 435.748 196.977 435.828C196.723 435.908 196.583 436.179 196.663 436.433C197.559 439.264 201.226 440.985 204.401 440.985Z" fill="#EE8B48"/>
<path d="M223.036 472.191C224.015 472.191 224.995 472.146 225.974 472.04C227.016 471.926 228.206 471.714 229.124 470.994C230.025 470.288 230.493 469.236 230.832 468.3C233.432 461.133 231.838 453.344 229.729 445.994C229.494 445.177 229.254 444.358 229.013 443.537C227.163 437.239 225.25 430.727 225.931 424.237C226.417 419.607 228.222 415.144 229.967 410.827C230.332 409.924 230.697 409.021 231.051 408.118C240.477 384.011 242.834 354.746 237.866 323.487C237.825 323.224 237.577 323.045 237.315 323.087C237.053 323.129 236.874 323.375 236.916 323.638C241.856 354.728 239.518 383.819 230.155 407.766C229.803 408.667 229.439 409.566 229.075 410.466C227.305 414.844 225.474 419.371 224.974 424.137C224.273 430.816 226.213 437.421 228.089 443.809C228.33 444.628 228.57 445.445 228.804 446.26C230.869 453.454 232.434 461.063 229.928 467.971C229.635 468.779 229.24 469.679 228.531 470.235C227.803 470.806 226.777 470.983 225.87 471.082C222.318 471.468 218.696 471.011 215.194 470.569C212.726 470.257 209.93 469.905 207.843 468.353C205.437 466.566 204.403 463.531 203.622 460.826C201.403 453.137 200.267 446.447 199.938 439.135C199.927 438.869 199.7 438.667 199.436 438.675C199.171 438.687 198.965 438.912 198.977 439.178C199.309 446.57 200.456 453.329 202.698 461.094C203.582 464.159 204.749 467.254 207.269 469.127C209.559 470.829 212.617 471.215 215.074 471.525C217.68 471.854 220.353 472.191 223.036 472.191Z" fill="#EE8B48"/>
<path d="M246.054 338.756C246.114 338.756 246.175 338.744 246.234 338.719C246.47 338.619 246.581 338.345 246.481 338.107C245.91 336.746 244.868 334.694 244.47 333.976L244.391 333.834C243.053 331.42 241.789 329.14 240.265 326.897C238.685 324.573 237.335 322.357 236.136 320.123C233.389 315.003 231.585 309.974 230.776 305.177C229.683 298.696 229.803 292.232 230.019 286.166C230.028 285.908 229.828 285.692 229.572 285.682C229.315 285.676 229.101 285.874 229.092 286.132C228.874 292.247 228.754 298.766 229.862 305.333C230.688 310.231 232.524 315.357 235.32 320.567C236.535 322.83 237.902 325.073 239.499 327.424C241 329.632 242.254 331.894 243.581 334.289L243.66 334.431C244.05 335.134 245.068 337.14 245.627 338.471C245.701 338.649 245.873 338.756 246.054 338.756Z" fill="#EE8B48"/>
<path d="M194.002 422.375C193.986 422.375 193.969 422.374 193.953 422.372C193.692 422.345 193.503 422.112 193.53 421.851C194.817 409.404 198.604 397.213 202.265 385.423C203.985 379.886 205.763 374.161 207.239 368.531C209.64 359.379 212.44 350.183 215.147 341.289C220.518 323.65 226.072 305.41 228.728 286.751C228.765 286.492 229.005 286.311 229.265 286.349C229.524 286.386 229.704 286.626 229.667 286.885C227 305.617 221.436 323.892 216.055 341.566C213.349 350.451 210.552 359.638 208.157 368.772C206.675 374.423 204.893 380.158 203.171 385.705C199.523 397.45 195.751 409.596 194.473 421.949C194.448 422.193 194.242 422.375 194.002 422.375Z" fill="#EE8B48"/>
<path d="M195.252 381.409C195.072 381.409 194.9 381.306 194.82 381.131C194.209 379.791 193.676 378.398 193.237 376.991C192.734 375.382 192.345 373.721 191.968 372.116C191.514 370.182 191.044 368.183 190.76 366.171C189.536 357.513 191.335 349.115 193.076 340.994C193.769 337.757 194.486 334.411 195.004 331.088C195.045 330.829 195.288 330.653 195.546 330.692C195.805 330.733 195.982 330.976 195.941 331.235C195.419 334.584 194.699 337.944 194.003 341.193C192.28 349.233 190.498 357.547 191.699 366.038C191.977 368.007 192.442 369.986 192.891 371.898C193.264 373.488 193.65 375.132 194.142 376.708C194.569 378.077 195.088 379.433 195.683 380.737C195.792 380.975 195.687 381.257 195.449 381.366C195.385 381.395 195.318 381.409 195.252 381.409Z" fill="#EE8B48"/>
<path d="M190.348 403.304C190.313 403.304 190.277 403.3 190.242 403.292C189.987 403.233 189.827 402.979 189.885 402.723C190.053 401.986 190.16 401.309 190.264 400.653C190.37 399.982 190.48 399.289 190.655 398.521C195.123 378.891 199.682 359.725 206.311 341.055C207.913 336.541 209.894 332.045 211.81 327.697C216.134 317.885 220.605 307.74 221.007 296.737C221.017 296.475 221.235 296.262 221.498 296.28C221.76 296.29 221.964 296.51 221.955 296.772C221.546 307.957 217.038 318.187 212.678 328.08C210.769 332.413 208.795 336.893 207.204 341.373C200.593 359.994 196.041 379.13 191.579 398.731C191.411 399.469 191.304 400.146 191.2 400.802C191.094 401.473 190.985 402.166 190.81 402.934C190.76 403.155 190.564 403.304 190.348 403.304Z" fill="#EE8B48"/>
<path d="M214.236 322.99C214.133 322.99 214.029 322.957 213.943 322.889C211.331 320.829 209.114 317.014 208.426 313.397C208.377 313.139 208.546 312.891 208.804 312.842C209.061 312.794 209.309 312.962 209.358 313.219C210.006 316.628 212.084 320.214 214.53 322.143C214.735 322.305 214.771 322.604 214.608 322.809C214.515 322.928 214.376 322.99 214.236 322.99Z" fill="#EE8B48"/>
<path d="M209.999 332.848C209.981 332.848 209.962 332.847 209.944 332.845C209.863 332.836 209.823 332.835 209.802 332.835C209.527 332.835 209.375 332.664 209.319 332.499C209.31 332.488 209.299 332.474 209.285 332.458C206.698 329.497 204.677 325.639 203.278 320.991C203.203 320.74 203.345 320.475 203.595 320.399C203.846 320.324 204.11 320.466 204.186 320.717C205.546 325.234 207.501 328.974 209.998 331.833C210.019 331.857 210.039 331.88 210.056 331.902C210.315 331.934 210.5 332.169 210.47 332.428C210.441 332.67 210.237 332.848 209.999 332.848Z" fill="#EE8B48"/>
<path d="M218.351 312.487C218.108 312.487 217.901 312.3 217.88 312.053C217.673 309.644 216.921 307.765 216.051 305.589C215.899 305.209 215.743 304.822 215.587 304.421C215.492 304.177 215.612 303.902 215.856 303.807C216.1 303.712 216.375 303.832 216.471 304.076C216.626 304.474 216.78 304.859 216.931 305.236C217.83 307.482 218.606 309.422 218.825 311.971C218.847 312.233 218.654 312.463 218.393 312.485C218.379 312.486 218.365 312.487 218.351 312.487Z" fill="#EE8B48"/>
<path d="M219.821 636.391C214.227 636.391 208.092 635.024 202.455 630.296C201.009 629.083 200.117 627.382 199.941 625.505C199.2 617.573 199.737 605.895 199.819 604.241C199.105 603.324 196.82 598.918 203.253 584.852C210.269 569.513 202.894 549.868 202.818 549.672C202.784 549.578 199.715 540.989 198.194 528.265C196.792 516.541 196.452 498.8 202.781 480.805C202.632 478.735 201.884 475.37 200.94 471.128C198.858 461.769 196.008 448.958 196.867 437.89C196.379 436.401 195.104 430.6 194.055 425.677C192.654 419.104 190.575 408.902 188.629 397.627C185.33 378.514 182.038 353.941 184.986 344.926C184.965 344.623 185.407 344.016 187.115 341.668C188.365 339.949 190.221 337.441 192.629 334.213C196.684 328.779 202.362 321.229 209.507 311.773C221.672 295.673 234.037 279.409 234.161 279.247L234.688 278.553L234.994 279.369C235.044 279.502 240.017 292.877 243.576 313.304C246.861 332.156 249.582 361.053 243.892 391.662L235.51 431.02C235.474 431.189 235.468 431.361 235.494 431.531C235.837 433.832 238.795 454.363 237.017 466.729C236.855 467.853 236.95 468.98 237.299 470.079C238.495 473.853 241.268 484.297 241.178 499.727C241.065 518.89 236.714 538.881 228.245 559.146C226.376 569.406 224.483 586.36 224.122 589.659C224.078 590.06 224.167 590.454 224.378 590.799C225.55 592.71 228.922 599.376 223.718 605.773C227.295 611.905 230.279 616.305 232.467 619.531C237.798 627.392 239.065 629.26 234.034 634.181L233.936 634.277L233.8 634.307C233.31 634.413 232.793 634.53 232.252 634.653C228.925 635.406 224.568 636.391 219.821 636.391ZM197.808 438.203C197.02 449.074 199.826 461.687 201.879 470.918C202.847 475.269 203.611 478.705 203.748 480.841L203.754 480.94L203.722 481.033C197.425 498.874 197.758 516.488 199.146 528.123C200.652 540.745 203.69 549.251 203.72 549.335C203.794 549.527 211.314 569.541 204.128 585.253C197.266 600.258 200.598 603.681 200.633 603.713L200.793 603.867L200.789 604.096C200.783 604.224 200.111 616.976 200.899 625.415C201.051 627.038 201.823 628.509 203.073 629.558C213.129 637.992 224.509 635.417 232.04 633.713C232.534 633.601 233.008 633.494 233.46 633.395C237.804 629.116 236.958 627.869 231.671 620.072C229.441 616.783 226.386 612.279 222.716 605.966L222.545 605.671L222.766 605.411C227.862 599.43 224.661 593.1 223.558 591.303C223.234 590.774 223.098 590.17 223.165 589.554C223.528 586.244 225.43 569.208 227.308 558.921L227.337 558.821C246.91 512.021 239.208 479.288 236.381 470.37C235.994 469.149 235.884 467.842 236.064 466.592C237.823 454.361 234.883 433.96 234.542 431.674C234.499 431.389 234.508 431.101 234.569 430.819L242.948 391.474C248.608 361.027 245.901 332.262 242.632 313.494C239.59 296.024 235.513 283.742 234.39 280.536C217.948 302.163 187.809 341.959 186.013 344.895L185.971 345.017C183.605 351.793 184.816 369.719 189.473 396.858C193.089 417.931 197.475 436.889 197.78 437.689C197.727 437.55 197.524 437.368 197.26 437.418L197.341 437.857L197.832 437.877V438.192L197.808 438.203Z" fill="#EE8B48"/>
<defs>
<linearGradient id="paint0_linear_174_167961" x1="150.47" y1="149.384" x2="150.47" y2="115.473" gradientUnits="userSpaceOnUse">
<stop offset="2.8e-07" stop-color="#FFC0B7"/>
<stop offset="1" stop-color="#BE1622"/>
</linearGradient>
<linearGradient id="paint1_linear_174_167961" x1="103.696" y1="352.057" x2="103.696" y2="115.995" gradientUnits="userSpaceOnUse">
<stop offset="2.8e-07" stop-color="#FFC0B7"/>
<stop offset="1" stop-color="#BE1622"/>
</linearGradient>
<linearGradient id="paint2_linear_174_167961" x1="155.079" y1="342.844" x2="155.079" y2="240.848" gradientUnits="userSpaceOnUse">
<stop offset="2.8e-07" stop-color="#FFC0B7"/>
<stop offset="1" stop-color="#BE1622"/>
</linearGradient>
<linearGradient id="paint3_linear_174_167961" x1="157.977" y1="122.981" x2="157.977" y2="98.9404" gradientUnits="userSpaceOnUse">
<stop offset="2.8e-07" stop-color="#FFC0B7"/>
<stop offset="1" stop-color="#BE1622"/>
</linearGradient>
<linearGradient id="paint4_linear_174_167961" x1="91.332" y1="217.47" x2="115.228" y2="217.47" gradientUnits="userSpaceOnUse">
<stop offset="2.8e-07" stop-color="#FFC0B7"/>
<stop offset="1" stop-color="#BE1622"/>
</linearGradient>
<linearGradient id="paint5_linear_174_167961" x1="259.302" y1="352.057" x2="259.302" y2="115.995" gradientUnits="userSpaceOnUse">
<stop offset="2.8e-07" stop-color="#FFC0B7"/>
<stop offset="1" stop-color="#BE1622"/>
</linearGradient>
<linearGradient id="paint6_linear_174_167961" x1="182.511" y1="330.94" x2="182.511" y2="177.267" gradientUnits="userSpaceOnUse">
<stop offset="2.8e-07" stop-color="#FFC0B7"/>
<stop offset="1" stop-color="#BE1622"/>
</linearGradient>
<linearGradient id="paint7_linear_174_167961" x1="147.565" y1="645.246" x2="147.565" y2="425.851" gradientUnits="userSpaceOnUse">
<stop stop-color="#BE1622"/>
<stop offset="1" stop-color="#FFC0B7"/>
</linearGradient>
<linearGradient id="paint8_linear_174_167961" x1="181.163" y1="187.834" x2="181.163" y2="123.793" gradientUnits="userSpaceOnUse">
<stop offset="2.8e-07" stop-color="#FFC0B7"/>
<stop offset="1" stop-color="#BE1622"/>
</linearGradient>
<linearGradient id="paint9_linear_174_167961" x1="182.535" y1="132.429" x2="242.525" y2="132.429" gradientUnits="userSpaceOnUse">
<stop offset="2.8e-07" stop-color="#FFC0B7"/>
<stop offset="1" stop-color="#BE1622"/>
</linearGradient>
<linearGradient id="paint10_linear_174_167961" x1="208.152" y1="342.844" x2="208.152" y2="240.848" gradientUnits="userSpaceOnUse">
<stop offset="2.8e-07" stop-color="#FFC0B7"/>
<stop offset="1" stop-color="#BE1622"/>
</linearGradient>
<linearGradient id="paint11_linear_174_167961" x1="205.024" y1="122.981" x2="205.024" y2="98.9404" gradientUnits="userSpaceOnUse">
<stop offset="2.8e-07" stop-color="#FFC0B7"/>
<stop offset="1" stop-color="#BE1622"/>
</linearGradient>
<linearGradient id="paint12_linear_174_167961" x1="247.77" y1="217.47" x2="271.666" y2="217.47" gradientUnits="userSpaceOnUse">
<stop offset="2.8e-07" stop-color="#FFC0B7"/>
<stop offset="1" stop-color="#BE1622"/>
</linearGradient>
<linearGradient id="paint13_linear_174_167961" x1="215.61" y1="645.246" x2="215.61" y2="425.851" gradientUnits="userSpaceOnUse">
<stop stop-color="#BE1622"/>
<stop offset="1" stop-color="#FFC0B7"/>
</linearGradient>
<linearGradient id="paint14_linear_174_167961" x1="147.516" y1="440.691" x2="147.516" y2="280.455" gradientUnits="userSpaceOnUse">
<stop offset="2.77045e-07" stop-color="#FFC0B7"/>
<stop offset="1" stop-color="#BE1622"/>
</linearGradient>
<linearGradient id="paint15_linear_174_167961" x1="215.55" y1="440.251" x2="215.55" y2="280.213" gradientUnits="userSpaceOnUse">
<stop offset="2.77045e-07" stop-color="#FFC0B7"/>
<stop offset="1" stop-color="#BE1622"/>
</linearGradient>
</defs>
</svg>
