<svg width="17" height="24" viewBox="0 0 17 24" fill="none" xmlns="http://www.w3.org/2000/svg">
<path d="M4.125 23.25H13.125C13.6811 23.2485 14.2283 23.1107 14.7188 22.8488C14.7676 22.8211 14.8097 22.7828 14.8418 22.7367C14.8738 22.6906 14.8952 22.6379 14.9042 22.5825C14.9132 22.5271 14.9096 22.4703 14.8937 22.4164C14.8779 22.3626 14.8501 22.313 14.8125 22.2712C13.8868 21.2818 13.372 19.9774 13.3725 18.6225C13.3725 16.8525 14.76 14.3175 16.2825 12.7313C16.4213 12.5917 16.4995 12.4031 16.5 12.2062V9.5175C16.5132 9.06394 16.436 8.61229 16.2729 8.18888C16.1097 7.76547 15.8639 7.37878 15.5497 7.05137C15.2356 6.72395 14.8594 6.46236 14.4431 6.28185C14.0268 6.10135 13.5787 6.00553 13.125 6H10.5V1.875C10.4991 1.57691 10.3803 1.29127 10.1695 1.08049C9.95873 0.869703 9.67309 0.75089 9.375 0.75H7.875C7.57691 0.75089 7.29127 0.869703 7.08049 1.08049C6.8697 1.29127 6.75089 1.57691 6.75 1.875V6H4.125C3.23069 6.00257 2.37373 6.35898 1.74136 6.99136C1.10898 7.62373 0.752572 8.48069 0.75 9.375V19.875C0.752572 20.7693 1.10898 21.6263 1.74136 22.2586C2.37373 22.891 3.23069 23.2474 4.125 23.25ZM6.75 19.9688C6.75052 20.1007 6.71625 20.2304 6.65064 20.3448C6.58503 20.4592 6.4904 20.5543 6.37629 20.6205C6.26219 20.6867 6.13265 20.7216 6.00075 20.7217C5.86884 20.7219 5.73923 20.6872 5.625 20.6213L4.2975 19.8525C4.18385 19.7866 4.08951 19.6919 4.02393 19.5781C3.95835 19.4642 3.92383 19.3351 3.92383 19.2038C3.92383 19.0724 3.95835 18.9433 4.02393 18.8294C4.08951 18.7156 4.18385 18.6209 4.2975 18.555L5.625 17.79C5.73896 17.7242 5.86822 17.6896 5.99981 17.6895C6.1314 17.6895 6.26068 17.7241 6.37467 17.7898C6.48866 17.8555 6.58335 17.9501 6.64923 18.064C6.71511 18.1779 6.74987 18.3072 6.75 18.4387V19.9688ZM11.625 20.6063C11.511 20.672 11.3818 20.7067 11.2502 20.7067C11.1186 20.7068 10.9893 20.6722 10.8753 20.6064C10.7613 20.5407 10.6666 20.4461 10.6008 20.3322C10.5349 20.2183 10.5001 20.0891 10.5 19.9575V18.4387C10.5001 18.3072 10.5349 18.1779 10.6008 18.064C10.6666 17.9501 10.7613 17.8555 10.8753 17.7898C10.9893 17.7241 11.1186 17.6895 11.2502 17.6895C11.3818 17.6896 11.511 17.7242 11.625 17.79L12.63 18.3713C12.6035 18.9012 12.6489 19.4323 12.765 19.95L11.625 20.6063ZM7.5 3.25125H9.75V6H7.5V3.25125ZM3.75 10.4587C3.7499 10.2672 3.78757 10.0774 3.86084 9.90039C3.93411 9.72337 4.04156 9.56252 4.17704 9.42704C4.31252 9.29156 4.47337 9.18411 4.65039 9.11084C4.82742 9.03757 5.01716 8.9999 5.20875 9H12.0413C12.2328 8.9999 12.4226 9.03757 12.5996 9.11084C12.7766 9.18411 12.9375 9.29156 13.073 9.42704C13.2084 9.56252 13.3159 9.72337 13.3892 9.90039C13.4624 10.0774 13.5001 10.2672 13.5 10.4587V14.2913C13.5001 14.4828 13.4624 14.6726 13.3892 14.8496C13.3159 15.0266 13.2084 15.1875 13.073 15.323C12.9375 15.4584 12.7766 15.5659 12.5996 15.6392C12.4226 15.7124 12.2328 15.7501 12.0413 15.75H5.20875C5.01716 15.7501 4.82742 15.7124 4.65039 15.6392C4.47337 15.5659 4.31252 15.4584 4.17704 15.323C4.04156 15.1875 3.93411 15.0266 3.86084 14.8496C3.78757 14.6726 3.7499 14.4828 3.75 14.2913V10.4587Z" fill="#F0BB00"/>
</svg>
