<svg width="40" height="40" viewBox="0 0 40 40" fill="none" xmlns="http://www.w3.org/2000/svg">
<g id="fi_17783954">
<path id="Vector" d="M27.9724 24.5255C26.2317 24.5236 24.5629 23.8312 23.332 22.6004C22.1012 21.3695 21.4089 19.7007 21.4069 17.96C21.4069 16.1404 22.8763 13.2329 24.277 10.8756C21.7258 6.56115 19.3248 3.06587 19.1059 2.75322C19.0456 2.67448 18.968 2.61067 18.8791 2.56676C18.7902 2.52284 18.6924 2.5 18.5932 2.5C18.494 2.5 18.3962 2.52284 18.3073 2.56676C18.2183 2.61067 18.1407 2.67448 18.0805 2.75322C17.6115 3.42856 6.71289 19.2794 6.71289 25.6197C6.71289 28.7706 7.96456 31.7924 10.1926 34.0204C12.4205 36.2484 15.4423 37.5 18.5932 37.5C21.7441 37.5 24.7659 36.2484 26.9939 34.0204C29.2218 31.7924 30.4735 28.7706 30.4735 25.6197C30.468 25.1068 30.4114 24.5957 30.3047 24.094C29.5608 24.3816 28.7699 24.5279 27.9724 24.5255ZM23.5954 28.3709C23.5949 28.5366 23.5289 28.6954 23.4118 28.8125C23.2946 28.9297 23.1358 28.9957 22.9701 28.9962H20.7192V31.2472C20.7187 31.4129 20.6526 31.5717 20.5355 31.6888C20.4183 31.806 20.2596 31.872 20.0939 31.8725H17.0925C16.9268 31.872 16.7681 31.806 16.6509 31.6888C16.5337 31.5717 16.4677 31.4129 16.4672 31.2472V28.9962H14.2162C14.0506 28.9957 13.8918 28.9297 13.7746 28.8125C13.6575 28.6954 13.5914 28.5366 13.591 28.3709V25.3758C13.5914 25.2102 13.6575 25.0514 13.7746 24.9342C13.8918 24.8171 14.0506 24.7511 14.2162 24.7506H16.4672V22.4933C16.4677 22.3276 16.5337 22.1689 16.6509 22.0517C16.7681 21.9346 16.9268 21.8685 17.0925 21.868H20.0939C20.2596 21.8685 20.4183 21.9346 20.5355 22.0517C20.6526 22.1689 20.7187 22.3276 20.7192 22.4933V24.7506H22.9701C23.1358 24.7511 23.2946 24.8171 23.4117 24.9342C23.5289 25.0514 23.5949 25.2102 23.5954 25.3758V28.3709Z" fill="#004EBA"/>
<path id="Vector_2" d="M28.4858 8.22442C28.4255 8.14567 28.3479 8.08186 28.259 8.03795C28.1701 7.99403 28.0722 7.97119 27.9731 7.97119C27.8739 7.97119 27.7761 7.99403 27.6872 8.03795C27.5982 8.08186 27.5206 8.14567 27.4603 8.22442C26.9664 8.93725 22.6582 15.2525 22.6582 17.96C22.6574 18.6585 22.7944 19.3502 23.0611 19.9957C23.3279 20.6412 23.7193 21.2278 24.2129 21.722C24.7065 22.2161 25.2926 22.6081 25.9378 22.8756C26.583 23.143 27.2746 23.2807 27.9731 23.2807C28.6715 23.2807 29.3631 23.143 30.0083 22.8756C30.6535 22.6081 31.2397 22.2161 31.7333 21.722C32.2269 21.2278 32.6183 20.6412 32.885 19.9957C33.1518 19.3502 33.2887 18.6585 33.288 17.96C33.288 15.2526 28.9798 8.93725 28.4858 8.22442Z" fill="#004EBA"/>
<path id="Vector_3" d="M19.4689 25.3759V23.1187H17.7181V25.3759C17.7184 25.4581 17.7024 25.5395 17.6711 25.6155C17.6397 25.6915 17.5937 25.7606 17.5356 25.8187C17.4774 25.8768 17.4084 25.9228 17.3324 25.9542C17.2564 25.9855 17.175 26.0015 17.0928 26.0012H14.8418V27.7457H17.0928C17.175 27.7454 17.2564 27.7614 17.3324 27.7927C17.4084 27.824 17.4774 27.8701 17.5356 27.9282C17.5937 27.9863 17.6397 28.0554 17.6711 28.1314C17.7024 28.2074 17.7184 28.2888 17.7181 28.371V30.622H19.4689V28.371C19.4686 28.2888 19.4846 28.2073 19.5159 28.1314C19.5472 28.0554 19.5933 27.9863 19.6514 27.9282C19.7095 27.8701 19.7785 27.824 19.8545 27.7927C19.9305 27.7614 20.012 27.7454 20.0942 27.7457H22.3452V26.0012H20.0942C20.012 26.0015 19.9305 25.9855 19.8545 25.9542C19.7785 25.9228 19.7095 25.8768 19.6514 25.8187C19.5933 25.7606 19.5472 25.6915 19.5159 25.6155C19.4846 25.5395 19.4686 25.4581 19.4689 25.3759Z" fill="#004EBA"/>
</g>
</svg>
