<svg width="363" height="651" viewBox="0 0 363 651" fill="none" xmlns="http://www.w3.org/2000/svg">
<path d="M318.626 347.509L327.244 366.005C327.647 366.853 327.85 367.785 327.791 368.719C327.698 370.17 327.085 371.706 324.49 369.692C323.907 369.24 323.42 368.677 323.05 368.045L312.17 349.462L318.626 347.509Z" fill="#FFD4AB"/>
<path d="M326.526 371.141C325.886 371.141 325.117 370.787 324.196 370.073C323.569 369.587 323.044 368.986 322.636 368.289L311.446 349.178L318.887 346.927L327.681 365.801C328.13 366.746 328.334 367.766 328.272 368.75C328.195 369.949 327.82 370.709 327.157 371.009C326.962 371.097 326.752 371.141 326.526 371.141ZM312.895 349.746L323.466 367.801C323.813 368.393 324.256 368.901 324.785 369.311C325.671 369.999 326.392 370.297 326.762 370.131C327.061 369.995 327.261 369.47 327.311 368.689C327.364 367.868 327.19 367.012 326.81 366.211L318.367 348.091L312.895 349.746Z" fill="#EE8B48"/>
<path d="M294.421 348.194L291.167 367.625C291.023 368.55 290.665 369.437 290.087 370.182C289.19 371.34 287.81 372.289 286.787 369.207C286.557 368.514 286.47 367.782 286.519 367.056L288.195 346.269L294.421 348.194Z" fill="#FFD4AB"/>
<path d="M288.495 371.767C288.412 371.767 288.331 371.76 288.249 371.746C287.446 371.608 286.819 370.827 286.331 369.358C286.083 368.613 285.986 367.827 286.04 367.023L287.765 345.631L294.966 347.858L291.642 367.705C291.482 368.733 291.076 369.693 290.468 370.478C289.804 371.334 289.141 371.767 288.495 371.767ZM288.627 346.906L287 367.094C286.954 367.767 287.036 368.428 287.244 369.054C287.589 370.093 288.014 370.728 288.411 370.796C288.742 370.852 289.216 370.522 289.707 369.887C290.215 369.231 290.556 368.423 290.692 367.551L293.878 348.53L288.627 346.906Z" fill="#EE8B48"/>
<path d="M311.552 349.649L316.35 372.298C316.564 373.308 316.547 374.364 316.255 375.362C315.801 376.912 314.779 378.438 312.55 375.672C312.049 375.051 311.677 374.331 311.444 373.564L304.599 350.984L311.552 349.649Z" fill="#FFD4AB"/>
<path d="M314.692 377.687C313.928 377.687 313.101 377.123 312.175 375.974C311.64 375.31 311.239 374.546 310.983 373.704L303.982 350.612L311.925 349.087L316.82 372.198C317.057 373.317 317.021 374.457 316.716 375.497C316.341 376.777 315.762 377.504 314.993 377.657C314.894 377.677 314.793 377.687 314.692 377.687ZM305.214 351.356L311.904 373.424C312.124 374.148 312.467 374.802 312.924 375.37C313.962 376.658 314.549 376.763 314.805 376.712C315.183 376.637 315.534 376.109 315.793 375.226C316.053 374.339 316.083 373.361 315.879 372.398L311.179 350.211L305.214 351.356Z" fill="#EE8B48"/>
<path d="M303.172 350.82L304.66 372.156C304.735 373.166 304.58 374.192 304.164 375.127C303.517 376.579 302.321 377.936 300.515 374.962C300.109 374.294 299.842 373.546 299.716 372.77L295.715 348.485L303.172 350.82Z" fill="#FFD4AB"/>
<path d="M302.532 377.215C301.716 377.215 300.921 376.558 300.103 375.212C299.668 374.496 299.378 373.7 299.24 372.846L295.112 347.792L303.629 350.458L305.139 372.122C305.222 373.24 305.037 374.347 304.602 375.323C304.066 376.527 303.403 377.162 302.629 377.212C302.597 377.214 302.564 377.215 302.532 377.215ZM296.316 349.178L300.19 372.691C300.308 373.423 300.556 374.102 300.925 374.711C301.761 376.088 302.315 376.268 302.568 376.25C302.94 376.226 303.361 375.745 303.723 374.93C304.093 374.1 304.25 373.153 304.179 372.191L302.714 351.181L296.316 349.178Z" fill="#EE8B48"/>
<path d="M44.3728 347.509L35.7548 366.005C35.3519 366.853 35.1489 367.785 35.2085 368.719C35.3009 370.17 35.9139 371.706 38.5094 369.692C39.0923 369.24 39.579 368.677 39.9488 368.045L50.8293 349.462L44.3728 347.509Z" fill="#FFD4AB"/>
<path d="M36.4732 371.141C36.2469 371.141 36.0369 371.097 35.8418 371.009C35.1791 370.709 34.8043 369.949 34.7278 368.75C34.6652 367.766 34.8699 366.745 35.3199 365.798L44.1126 346.927L51.5532 349.178L40.3636 368.289C39.955 368.986 39.4302 369.587 38.8037 370.073C37.8827 370.787 37.1133 371.141 36.4732 371.141ZM44.6322 348.091L36.1904 366.208C35.8091 367.011 35.6359 367.868 35.6882 368.689C35.738 369.47 35.9382 369.995 36.2377 370.131C36.6077 370.298 37.3279 369.999 38.2142 369.311C38.7432 368.901 39.187 368.393 39.5334 367.801L50.1048 349.746L44.6322 348.091Z" fill="#EE8B48"/>
<path d="M68.5771 348.194L71.8314 367.625C71.9758 368.55 72.3338 369.437 72.9116 370.182C73.8088 371.34 75.1885 372.289 76.2116 369.207C76.4414 368.514 76.5284 367.782 76.4792 367.056L74.8033 346.269L68.5771 348.194Z" fill="#FFD4AB"/>
<path d="M74.5046 371.767C73.8577 371.767 73.1952 371.334 72.5316 370.478C71.9237 369.693 71.5173 368.733 71.356 367.7L68.0332 347.858L75.2347 345.631L76.9588 367.017C77.0138 367.827 76.9159 368.612 76.6683 369.358C76.1806 370.827 75.5534 371.608 74.7505 371.746C74.6688 371.76 74.5868 371.767 74.5046 371.767ZM69.1214 348.53L72.3059 367.546C72.4429 368.423 72.7836 369.231 73.2919 369.887C73.7834 370.522 74.2554 370.852 74.5882 370.796C74.985 370.728 75.4102 370.093 75.7551 369.055C75.963 368.428 76.0451 367.767 75.9992 367.088L74.372 346.906L69.1214 348.53Z" fill="#EE8B48"/>
<path d="M51.4471 349.649L46.6496 372.298C46.4356 373.308 46.4521 374.364 46.7447 375.362C47.199 376.912 48.221 378.438 50.4499 375.672C50.9505 375.051 51.3228 374.331 51.5554 373.564L58.4009 350.984L51.4471 349.649Z" fill="#FFD4AB"/>
<path d="M48.3072 377.687C48.2057 377.687 48.1053 377.677 48.0059 377.657C47.2377 377.504 46.658 376.777 46.283 375.497C45.9781 374.457 45.9421 373.317 46.1789 372.198L51.0743 349.087L59.0167 350.612L52.0158 373.704C51.7604 374.546 51.3596 375.31 50.8244 375.975C49.8987 377.123 49.0717 377.687 48.3072 377.687ZM51.8199 350.211L47.1203 372.398C46.9164 373.361 46.9462 374.339 47.2063 375.226C47.4651 376.109 47.8158 376.637 48.194 376.712C48.4517 376.764 49.0377 376.658 50.0754 375.37C50.5326 374.802 50.8757 374.148 51.095 373.424L57.7852 351.356L51.8199 350.211Z" fill="#EE8B48"/>
<path d="M59.8269 350.82L58.3396 372.156C58.2643 373.166 58.4193 374.192 58.8356 375.127C59.4821 376.579 60.6782 377.936 62.4843 374.962C62.8899 374.294 63.1576 373.546 63.2831 372.77L67.2843 348.485L59.8269 350.82Z" fill="#FFD4AB"/>
<path d="M60.4669 377.215C60.4345 377.215 60.4022 377.214 60.3697 377.212C59.5965 377.162 58.9327 376.527 58.3966 375.323C57.9623 374.347 57.7769 373.24 57.8603 372.12L59.3704 350.458L67.8868 347.792L63.7585 372.848C63.6206 373.701 63.3304 374.497 62.8959 375.212C62.0783 376.558 61.2825 377.215 60.4669 377.215ZM60.2844 351.181L58.82 372.189C58.7482 373.153 58.9058 374.1 59.2755 374.93C59.6383 375.745 60.0593 376.226 60.4307 376.25C60.6857 376.266 61.2376 376.088 62.0735 374.711C62.443 374.103 62.6904 373.424 62.8086 372.692L66.6829 349.178L60.2844 351.181Z" fill="#EE8B48"/>
<path d="M170.993 79.0741L168.606 94.5383L181.135 127.801L185.311 128.384L196.05 90.4534L191.575 72.9468L170.993 79.0741Z" fill="#FFD4AB"/>
<path d="M134.603 115.856L120.525 148.514C120.496 148.581 120.479 148.653 120.475 148.726C120.452 149.188 120.931 149.514 121.366 149.333L179.802 124.928C180.012 124.841 180.158 124.651 180.186 124.43L180.46 122.287C180.503 121.947 180.26 121.637 179.913 121.589L135.282 115.479C134.995 115.44 134.716 115.595 134.603 115.856Z" fill="#FFD4AB"/>
<path d="M134.603 115.856L120.525 148.514C120.496 148.581 120.479 148.653 120.475 148.726C120.452 149.188 120.931 149.514 121.366 149.333L179.802 124.928C180.012 124.841 180.158 124.651 180.186 124.43L180.46 122.287C180.503 121.947 180.26 121.637 179.913 121.589L135.282 115.479C134.995 115.44 134.716 115.595 134.603 115.856Z" fill="url(#paint0_linear_174_150677)"/>
<path d="M121.113 149.865C120.884 149.865 120.658 149.795 120.463 149.658C120.15 149.438 119.975 149.08 119.995 148.701C120.001 148.57 120.031 148.443 120.083 148.323L134.161 115.665C134.359 115.206 134.846 114.932 135.347 115.002L179.978 121.112C180.583 121.194 181.013 121.749 180.937 122.348L180.663 124.491C180.613 124.881 180.354 125.219 179.987 125.373L121.551 149.777C121.409 149.836 121.261 149.865 121.113 149.865ZM135.045 116.047L120.966 148.704C120.96 148.719 120.957 148.734 120.956 148.75C120.953 148.812 120.987 148.85 121.017 148.871C121.04 148.887 121.102 148.921 121.181 148.888L179.617 124.483C179.667 124.462 179.702 124.418 179.708 124.369L179.982 122.226C179.992 122.148 179.933 122.078 179.848 122.066L135.216 115.957C135.142 115.946 135.072 115.984 135.045 116.047V116.047Z" fill="#EE8B48"/>
<path d="M123.562 146.913L180.935 122.906C181.338 122.729 181.265 123.187 181.266 123.619L181.31 332.212H177.941C173.951 332.212 170.463 329.577 169.456 325.8L150.879 256.144L132.282 240.847L131.437 221.003L122.467 188.3C122.371 187.951 121.869 187.94 121.758 188.285L109.882 225.138L109.312 234.069C109.13 236.918 108.506 239.723 107.463 242.389L82.7022 305.649C81.3881 309.007 80.6053 312.54 80.3807 316.128L79.6257 328.191C79.51 330.039 79.1793 331.868 78.6399 333.642L74.8025 346.268L54.9381 352.056L44.3719 347.509L44.755 335.516C44.7684 335.098 44.2443 334.888 43.9555 335.197C41.2353 338.099 32.4989 346.859 26.6651 346.264C26.2198 346.219 25.9599 345.754 26.1374 345.353C27.8669 341.438 39.1592 328.629 39.1592 328.629C39.1592 328.629 42.2321 322.493 55.7012 316.905C57.0025 316.366 57.9712 315.26 58.3195 313.92L59.8689 307.959L71.828 236.642C72.1172 234.917 72.7747 233.272 73.7577 231.813L82.9652 218.148C86.9662 212.21 89.1718 205.31 89.4891 198.205C89.7129 193.195 91.2681 186.053 96.3575 176.975C94.4556 155.27 85.5799 115.789 134.396 115.996L137.565 127.985L120.026 150.309" fill="#FFD4AB"/>
<path d="M123.562 146.913L180.935 122.906C181.338 122.729 181.265 123.187 181.266 123.619L181.31 332.212H177.941C173.951 332.212 170.463 329.577 169.456 325.8L150.879 256.144L132.282 240.847L131.437 221.003L122.467 188.3C122.371 187.951 121.869 187.94 121.758 188.285L109.882 225.138L109.312 234.069C109.13 236.918 108.506 239.723 107.463 242.389L82.7022 305.649C81.3881 309.007 80.6053 312.54 80.3807 316.128L79.6257 328.191C79.51 330.039 79.1793 331.868 78.6399 333.642L74.8025 346.268L54.9381 352.056L44.3719 347.509L44.755 335.516C44.7684 335.098 44.2443 334.888 43.9555 335.197C41.2353 338.099 32.4989 346.859 26.6651 346.264C26.2198 346.219 25.9599 345.754 26.1374 345.353C27.8669 341.438 39.1592 328.629 39.1592 328.629C39.1592 328.629 42.2321 322.493 55.7012 316.905C57.0025 316.366 57.9712 315.26 58.3195 313.92L59.8689 307.959L71.828 236.642C72.1172 234.917 72.7747 233.272 73.7577 231.813L82.9652 218.148C86.9662 212.21 89.1718 205.31 89.4891 198.205C89.7129 193.195 91.2681 186.053 96.3575 176.975C94.4556 155.27 85.5799 115.789 134.396 115.996L137.565 127.985L120.026 150.309" fill="url(#paint1_linear_174_150677)"/>
<path d="M54.9076 352.567L43.8814 347.822L44.2733 335.551C40.928 339.129 32.5188 347.343 26.6171 346.744C26.2522 346.706 25.9378 346.504 25.7543 346.187C25.5727 345.874 25.5518 345.49 25.6983 345.158C27.4042 341.296 37.9179 329.312 38.7608 328.355C39.1319 327.665 42.582 321.827 55.5178 316.461C56.6724 315.982 57.5461 314.987 57.8548 313.799L59.3988 307.859L71.3543 236.562C71.6568 234.758 72.3315 233.07 73.3596 231.544L82.5672 217.879C86.4645 212.095 88.6921 205.285 89.0094 198.184C89.3004 191.671 91.6073 184.5 95.866 176.87C95.7037 175.04 95.4937 173.092 95.2717 171.033C93.7714 157.113 91.7166 138.049 102.23 126.376C108.778 119.106 119.593 115.452 134.399 115.515L134.767 115.516L138.093 128.095L123.792 146.296L180.75 122.462C181.071 122.321 181.303 122.399 181.439 122.49C181.766 122.709 181.758 123.105 181.75 123.454C181.749 123.509 181.748 123.564 181.748 123.619L181.792 332.695H177.942C173.735 332.695 170.055 329.911 168.992 325.925L150.455 256.419L131.812 241.084L130.96 221.079L122.103 188.788L110.359 225.229L109.793 234.1C109.607 237.002 108.974 239.85 107.912 242.565L83.1509 305.826C81.8536 309.14 81.0834 312.617 80.8618 316.159L80.1067 328.222C79.9889 330.105 79.6505 331.976 79.101 333.784L75.1877 346.659L54.9076 352.567ZM44.8643 347.196L54.9704 351.546L74.4189 345.879L78.1805 333.503C78.7083 331.766 79.0332 329.969 79.1464 328.161L79.9015 316.098C80.1294 312.456 80.9213 308.882 82.2551 305.474L107.016 242.213C108.042 239.591 108.653 236.841 108.832 234.038L109.407 225.047L121.301 188.137C121.417 187.778 121.746 187.535 122.13 187.551C122.51 187.559 122.832 187.809 122.932 188.173L131.917 220.929L132.755 240.612L151.305 255.87L169.922 325.675C170.872 329.241 174.171 331.731 177.942 331.731H180.829L180.786 123.62C180.786 123.577 180.786 123.534 180.787 123.491L123.749 147.358L123.474 146.701L120.405 150.607L119.648 150.012L137.04 127.876L134.026 116.477C134.025 116.477 134.025 116.477 134.025 116.477C119.702 116.477 109.247 120.023 102.945 127.021C92.7196 138.374 94.6652 156.425 96.2285 170.929C96.4569 173.049 96.6727 175.051 96.8377 176.933L96.8506 177.081L96.7779 177.211C92.5469 184.758 90.2566 191.828 89.9708 198.226C89.6456 205.505 87.3614 212.487 83.365 218.418L74.1574 232.083C73.2069 233.494 72.5831 235.054 72.3034 236.721L60.3409 308.059L58.7861 314.041C58.4019 315.519 57.3178 316.757 55.8863 317.351C42.7884 322.784 39.62 328.787 39.5896 328.847L39.5208 328.948C39.4084 329.076 28.2582 341.745 26.5783 345.548C26.5474 345.618 26.5702 345.675 26.5866 345.703C26.6058 345.737 26.6437 345.778 26.7149 345.785C32.3562 346.361 41.0687 337.574 43.6054 334.867C43.8772 334.577 44.2911 334.489 44.6593 334.641C45.0226 334.792 45.2493 335.141 45.2368 335.531L44.8643 347.196Z" fill="#EE8B48"/>
<path d="M181.73 328.401V342.845L175.79 342.791C175.79 342.791 129.299 280.366 128.453 279.539C128.031 263.416 132.282 240.848 132.282 240.848L151.47 256.286L176.36 328.45L181.73 328.401Z" fill="#FFD4AB"/>
<path d="M181.73 328.401V342.845L175.79 342.791C175.79 342.791 129.299 280.366 128.453 279.539C128.031 263.416 132.282 240.848 132.282 240.848L151.47 256.286L176.36 328.45L181.73 328.401Z" fill="url(#paint2_linear_174_150677)"/>
<path d="M182.212 343.33L175.548 343.271L175.405 343.079C159.432 321.631 128.99 280.818 128.112 279.877L127.988 279.743L127.974 279.551C127.555 263.562 131.768 240.985 131.811 240.758L131.959 239.969L151.881 255.997L151.926 256.128L176.704 327.965L182.212 327.915V343.33H182.212ZM176.034 342.312L181.25 342.358V328.887L176.02 328.935L151.062 256.574L132.612 241.73C131.876 245.856 128.589 265.18 128.931 279.36C131.69 282.78 170.777 335.252 176.034 342.312Z" fill="#EE8B48"/>
<path d="M180.722 122.981C153.904 122.471 134.894 115.477 134.894 115.477L163.211 98.9404L180.993 122.467C181.155 122.682 180.994 122.986 180.722 122.981Z" fill="#FFD4AB"/>
<path d="M180.722 122.981C153.904 122.471 134.894 115.477 134.894 115.477L163.211 98.9404L180.993 122.467C181.155 122.682 180.994 122.986 180.722 122.981Z" fill="url(#paint3_linear_174_150677)"/>
<path d="M180.729 123.463C180.723 123.463 180.718 123.463 180.712 123.463C154.122 122.957 134.918 115.999 134.728 115.929L133.769 115.576L163.337 98.3093L181.377 122.177C181.563 122.423 181.592 122.746 181.452 123.021C181.312 123.294 181.036 123.463 180.729 123.463ZM180.73 122.499C180.732 122.499 180.729 122.499 180.731 122.499H180.731C180.731 122.499 180.731 122.499 180.73 122.499ZM136.045 115.363C140.254 116.758 157.548 122.012 180.409 122.493L163.085 99.5721L136.045 115.363Z" fill="#EE8B48"/>
<path d="M80.1119 317.066C80.0854 317.066 80.0586 317.064 80.0316 317.06L58.7248 313.479C58.4628 313.435 58.286 313.186 58.33 312.924C58.3739 312.662 58.6218 312.484 58.8841 312.529L80.1909 316.109C80.4529 316.153 80.6298 316.402 80.5858 316.664C80.5463 316.9 80.3426 317.066 80.1119 317.066Z" fill="#EE8B48"/>
<path d="M62.9442 313.921C62.8899 313.921 62.8347 313.911 62.7808 313.892C62.5309 313.802 62.4014 313.526 62.4916 313.275L90.7607 234.86L85.721 213.087C85.661 212.828 85.8223 212.57 86.0811 212.509C86.3399 212.449 86.5984 212.611 86.6586 212.87L91.7623 234.92L63.3968 313.602C63.326 313.799 63.1412 313.921 62.9442 313.921Z" fill="#EE8B48"/>
<path d="M91.3802 235.108C91.2862 235.108 91.1912 235.08 91.1078 235.023C90.8889 234.872 90.8336 234.572 90.9842 234.353L114.887 199.578L119.794 151.171L96.7728 177.332C96.5969 177.531 96.2931 177.55 96.0936 177.375C95.8942 177.199 95.875 176.894 96.0506 176.695L121.055 148.281L115.819 199.921L115.749 200.023L91.7769 234.899C91.6837 235.035 91.5333 235.108 91.3802 235.108Z" fill="#EE8B48"/>
<path d="M115.22 200.074L105.499 227.359L91.4762 235.024C91.3879 235.072 91.2929 234.972 91.3487 234.889L114.99 199.961C115.074 199.837 115.27 199.933 115.22 200.074Z" fill="#FFD4AB"/>
<path d="M115.22 200.074L105.499 227.359L91.4762 235.024C91.3879 235.072 91.2929 234.972 91.3487 234.889L114.99 199.961C115.074 199.837 115.27 199.933 115.22 200.074Z" fill="url(#paint4_linear_174_150677)"/>
<path d="M91.4281 235.518C91.2693 235.518 91.1131 235.452 91.0001 235.328C90.8214 235.131 90.8007 234.839 90.9497 234.619L114.591 199.691C114.768 199.431 115.098 199.348 115.376 199.49C115.652 199.631 115.776 199.944 115.673 200.235V200.235L105.89 227.694L91.7062 235.447C91.6184 235.495 91.5227 235.518 91.4281 235.518ZM113.836 202.523L92.641 233.838L105.107 227.024L113.836 202.523Z" fill="#EE8B48"/>
<path d="M68.2789 314.829C68.2157 314.829 68.1515 314.816 68.0897 314.79C67.8454 314.685 67.7322 314.402 67.8368 314.157L105.057 227.169C105.162 226.925 105.444 226.811 105.689 226.916C105.933 227.021 106.046 227.304 105.942 227.549L68.7215 314.537C68.6432 314.719 68.4656 314.829 68.2789 314.829Z" fill="#EE8B48"/>
<path d="M74.145 315.703C74.0755 315.703 74.0052 315.688 73.9384 315.656C73.6985 315.542 73.5966 315.254 73.711 315.014L100.359 259.042C100.473 258.802 100.76 258.699 101 258.814C101.24 258.929 101.342 259.216 101.227 259.456L74.5797 315.429C74.4972 315.602 74.3248 315.703 74.145 315.703Z" fill="#EE8B48"/>
<path d="M181.766 258.132L151.669 256.777C151.478 256.768 151.298 256.68 151.175 256.536C151.053 256.394 150.996 256.206 151.016 256.02C152.032 246.872 153.059 236.675 152.957 235.514L152.95 235.497C151.091 231.254 151.665 225.682 151.974 222.688C152.068 221.772 152.166 220.824 152.105 220.613L152.075 220.521C150.56 213.484 150.394 201.386 150.376 198.945C133.838 197.095 125.465 176.432 123.944 172.277C123.815 171.924 123.744 171.557 123.732 171.185L122.893 145.747L123.321 145.654C123.566 145.61 123.808 145.758 123.885 145.994L134.875 179.836C135.068 180.431 135.524 180.899 136.126 181.118L156.314 188.475L181.338 175.393L181.766 233.646V258.132ZM152.006 255.828L180.804 257.124V233.649L180.387 176.977L156.696 189.363L151.336 198.638C151.342 200.066 151.44 212.948 153.006 220.273C153.144 220.63 153.09 221.245 152.931 222.787C152.613 225.878 152.081 231.039 153.801 235.039C153.986 235.34 154.106 236.888 152.006 255.828ZM123.976 149.39L124.693 171.153C124.702 171.423 124.754 171.689 124.848 171.945C126.338 176.016 134.546 196.294 150.594 197.999L155.645 189.257L135.797 182.024C134.915 181.702 134.245 181.014 133.96 180.134L123.976 149.39Z" fill="#EE8B48"/>
<path d="M239.436 146.913L182.063 122.906C181.661 122.729 181.733 123.187 181.732 123.619L181.688 332.212H185.057C189.047 332.212 192.535 329.577 193.542 325.8L212.119 256.144L230.716 240.847L231.561 221.003L240.531 188.3C240.627 187.951 241.129 187.94 241.24 188.285L253.116 225.138L253.686 234.069C253.868 236.918 254.492 239.723 255.535 242.389L280.296 305.649C281.61 309.007 282.393 312.54 282.617 316.128L283.372 328.191C283.488 330.039 283.819 331.868 284.358 333.642L288.196 346.268L308.06 352.056L318.626 347.509L318.243 335.516C318.23 335.098 318.754 334.888 319.043 335.197C321.763 338.099 330.499 346.859 336.333 346.264C336.778 346.219 337.038 345.754 336.861 345.353C335.131 341.438 323.839 328.629 323.839 328.629C323.839 328.629 320.766 322.493 307.297 316.905C305.995 316.366 305.027 315.26 304.678 313.92L303.129 307.959L291.17 236.642C290.881 234.917 290.223 233.272 289.24 231.813L280.033 218.148C276.032 212.21 273.826 205.31 273.509 198.205C273.285 193.195 271.73 186.053 266.64 176.975C268.542 155.27 277.418 115.789 228.602 115.996L225.432 127.985L242.972 150.309" fill="#FFD4AB"/>
<path d="M239.436 146.913L182.063 122.906C181.661 122.729 181.733 123.187 181.732 123.619L181.688 332.212H185.057C189.047 332.212 192.535 329.577 193.542 325.8L212.119 256.144L230.716 240.847L231.561 221.003L240.531 188.3C240.627 187.951 241.129 187.94 241.24 188.285L253.116 225.138L253.686 234.069C253.868 236.918 254.492 239.723 255.535 242.389L280.296 305.649C281.61 309.007 282.393 312.54 282.617 316.128L283.372 328.191C283.488 330.039 283.819 331.868 284.358 333.642L288.196 346.268L308.06 352.056L318.626 347.509L318.243 335.516C318.23 335.098 318.754 334.888 319.043 335.197C321.763 338.099 330.499 346.859 336.333 346.264C336.778 346.219 337.038 345.754 336.861 345.353C335.131 341.438 323.839 328.629 323.839 328.629C323.839 328.629 320.766 322.493 307.297 316.905C305.995 316.366 305.027 315.26 304.678 313.92L303.129 307.959L291.17 236.642C290.881 234.917 290.223 233.272 289.24 231.813L280.033 218.148C276.032 212.21 273.826 205.31 273.509 198.205C273.285 193.195 271.73 186.053 266.64 176.975C268.542 155.27 277.418 115.789 228.602 115.996L225.432 127.985L242.972 150.309" fill="url(#paint5_linear_174_150677)"/>
<path d="M157.416 190.375L182.711 177.267L207.68 190.345L213.499 200.095L213.16 209.498C213.16 209.498 212.311 221.852 211.717 222.566C211.124 223.279 213.251 232.108 211.118 237.562C211.005 238.973 213.306 257.988 213.306 257.988L187.695 330.269L177.429 330.94L168.728 305.762L152.358 258.255L154.566 237.903C154.566 237.903 151.805 231.215 153.408 223.903C153.408 223.903 151.003 202.948 151.627 199.916C152.339 199.114 157.416 190.375 157.416 190.375Z" fill="url(#paint6_linear_174_150677)"/>
<path d="M151.007 208.815C150.955 208.815 150.903 208.807 150.851 208.789L135.395 203.502C134.515 203.201 133.819 202.501 133.534 201.63L123.771 171.787C123.688 171.534 123.826 171.262 124.079 171.179C124.331 171.096 124.603 171.235 124.686 171.487L134.449 201.33C134.64 201.915 135.11 202.386 135.706 202.59L151.162 207.877C151.414 207.963 151.548 208.237 151.462 208.489C151.394 208.689 151.207 208.815 151.007 208.815Z" fill="#EE8B48"/>
<path d="M152.167 223.027L134.905 215.791C134.345 215.556 133.877 215.165 133.551 214.66L126.109 203.115C125.965 202.892 126.029 202.594 126.253 202.449C126.476 202.306 126.774 202.369 126.918 202.593L134.36 214.138C134.579 214.479 134.896 214.743 135.276 214.902L152.08 221.946L180.781 204.034C181.006 203.893 181.303 203.962 181.444 204.188C181.584 204.414 181.515 204.711 181.29 204.852L152.167 223.027Z" fill="#EE8B48"/>
<path d="M153.39 235.785C153.322 235.785 153.254 235.77 153.188 235.74L131.713 225.791C131.472 225.679 131.367 225.393 131.478 225.152C131.59 224.91 131.876 224.805 132.117 224.917L153.592 234.866C153.833 234.978 153.938 235.264 153.827 235.505C153.746 235.681 153.572 235.785 153.39 235.785Z" fill="#EE8B48"/>
<path d="M181.282 233.174L153.386 234.821L153.443 235.783L181.339 234.136L181.282 233.174Z" fill="#EE8B48"/>
<path d="M128.455 279.539C128.455 279.539 108.59 332.456 119.579 391.574L127.959 430.92C128.007 431.145 128.014 431.375 127.98 431.603C127.556 434.446 124.703 454.451 126.458 466.66C126.629 467.856 126.524 469.072 126.158 470.225C123.678 478.05 115.336 511.47 135.217 559.008C137.075 569.184 138.932 585.749 139.355 589.607C139.41 590.111 139.297 590.616 139.03 591.051C137.804 593.05 134.589 599.53 139.866 605.724C127.609 626.808 122.538 627.221 129.3 633.836C136.461 635.393 149.24 639.147 160.234 629.927C161.582 628.796 162.416 627.19 162.578 625.46C163.379 616.887 162.689 604.07 162.689 604.07C162.689 604.07 166.493 600.763 159.308 585.053C152.123 569.343 159.731 549.499 159.731 549.499C159.731 549.499 171.987 515.599 159.731 480.872C160.153 474.258 166.916 454 165.648 437.877C165.648 439.117 183.399 361.809 177.482 344.858C178.75 345.685 128.455 279.539 128.455 279.539Z" fill="url(#paint7_linear_174_150677)"/>
<path d="M157.734 556.585C157.516 556.585 157.319 556.437 157.266 556.216L156.882 554.614C154.756 545.743 152.558 536.569 151.048 527.625C149.49 518.395 148.152 508.587 150.34 499.06C151.635 493.419 154.173 489.055 156.859 484.436C157.636 483.099 158.44 481.716 159.235 480.268C159.363 480.034 159.655 479.95 159.888 480.078C160.121 480.206 160.206 480.499 160.078 480.732C159.278 482.19 158.471 483.578 157.691 484.92C155.042 489.475 152.541 493.778 151.278 499.276C149.129 508.631 150.455 518.331 151.997 527.464C153.501 536.376 155.696 545.534 157.818 554.39L158.202 555.991C158.264 556.25 158.105 556.51 157.846 556.572C157.809 556.581 157.771 556.585 157.734 556.585Z" fill="#EE8B48"/>
<path d="M162.65 604.452C162.397 604.452 162.185 604.255 162.17 603.999C161.93 599.88 159.897 596.053 157.931 592.352C157.416 591.381 156.882 590.377 156.389 589.383C152.119 580.77 150.167 571.382 148.23 560.887C143.178 533.52 138.886 505.303 134.735 478.016L133.594 470.522C133.554 470.259 133.735 470.013 133.998 469.973C134.26 469.934 134.506 470.114 134.546 470.377L135.686 477.871C139.836 505.151 144.127 533.36 149.176 560.712C151.1 571.134 153.036 580.453 157.251 588.955C157.738 589.937 158.268 590.935 158.781 591.9C160.795 595.692 162.878 599.614 163.131 603.942C163.146 604.208 162.944 604.436 162.679 604.451C162.669 604.452 162.659 604.452 162.65 604.452Z" fill="#EE8B48"/>
<path d="M151.769 594.063C151.559 594.063 151.366 593.924 151.306 593.712C148.467 583.66 145.652 573.632 142.93 563.933C140.21 554.241 137.397 544.22 134.561 534.176C133.968 532.077 133.364 529.981 132.761 527.888C127.763 510.541 122.595 492.604 124.576 474.24C124.605 473.975 124.842 473.783 125.106 473.813C125.371 473.841 125.562 474.079 125.533 474.343C123.572 492.519 128.713 510.364 133.686 527.621C134.289 529.716 134.894 531.813 135.487 533.914C138.323 543.959 141.136 553.98 143.857 563.672C146.579 573.371 149.394 583.399 152.232 593.45C152.304 593.706 152.156 593.972 151.9 594.045C151.856 594.057 151.812 594.063 151.769 594.063Z" fill="#EE8B48"/>
<path d="M163.37 534.539C163.315 534.539 163.259 534.53 163.204 534.509C155.387 531.625 150.086 523.988 149.368 514.577C149.347 514.312 149.546 514.081 149.811 514.06C150.076 514.04 150.307 514.239 150.327 514.504C151.016 523.534 156.078 530.853 163.537 533.605C163.786 533.697 163.914 533.974 163.822 534.224C163.75 534.419 163.566 534.539 163.37 534.539Z" fill="#EE8B48"/>
<path d="M139.771 605.993C139.76 605.993 139.75 605.993 139.739 605.992C139.474 605.975 139.273 605.746 139.29 605.48C139.427 603.351 140.971 601.341 142.541 599.465C145.26 596.216 148.306 593.237 152.181 593.462C154.315 593.584 156.164 594.705 157.538 595.667C161.599 598.513 163.468 601.153 163.252 603.736C163.23 604.001 162.999 604.201 162.732 604.176C162.467 604.154 162.271 603.921 162.293 603.656C162.478 601.444 160.742 599.089 156.986 596.457C155.717 595.567 154.018 594.532 152.126 594.424C148.676 594.223 145.836 597.028 143.279 600.084C141.811 601.837 140.369 603.703 140.25 605.542C140.234 605.797 140.022 605.993 139.771 605.993Z" fill="#EE8B48"/>
<path d="M171.565 85.6467L181.13 122.309C181.21 122.617 180.964 122.914 180.639 122.901L176.76 122.744L163.112 98.876L162.689 74.8982L171.565 85.6467Z" fill="#FFD4AB"/>
<path d="M180.658 123.383C180.645 123.383 180.632 123.383 180.619 123.382L176.474 123.214L162.633 99.0075L162.184 73.5295L172.003 85.4215L181.595 122.187C181.671 122.48 181.606 122.785 181.415 123.022C181.232 123.25 180.951 123.383 180.658 123.383ZM177.045 122.273L180.658 122.419L171.126 85.8712L163.195 76.2656L163.591 98.7435L177.045 122.273Z" fill="#EE8B48"/>
<path d="M125.124 147.217L180.664 123.793L237.201 147.059L226.633 179.718L206.028 187.73L181.988 175.798L180.757 175.025L156.808 187.833L135.592 179.953L125.124 147.217Z" fill="url(#paint8_linear_174_150677)"/>
<path d="M228.396 115.856L242.475 148.514C242.504 148.581 242.521 148.653 242.525 148.726C242.548 149.188 242.069 149.514 241.634 149.333L183.198 124.928C182.988 124.841 182.842 124.651 182.814 124.43L182.54 122.287C182.497 121.947 182.74 121.637 183.087 121.589L227.718 115.479C228.005 115.44 228.284 115.595 228.396 115.856Z" fill="#FFD4AB"/>
<path d="M228.396 115.856L242.475 148.514C242.504 148.581 242.521 148.653 242.525 148.726C242.548 149.188 242.069 149.514 241.634 149.333L183.198 124.928C182.988 124.841 182.842 124.651 182.814 124.43L182.54 122.287C182.497 121.947 182.74 121.637 183.087 121.589L227.718 115.479C228.005 115.44 228.284 115.595 228.396 115.856Z" fill="url(#paint9_linear_174_150677)"/>
<path d="M241.885 149.866C241.738 149.866 241.589 149.836 241.447 149.777L183.011 125.373C182.644 125.219 182.385 124.882 182.336 124.491L182.062 122.348C181.985 121.749 182.415 121.194 183.02 121.112L227.652 115.002C228.151 114.932 228.639 115.206 228.837 115.665L242.915 148.323C242.968 148.443 242.997 148.571 243.004 148.701C243.023 149.08 242.848 149.438 242.535 149.658C242.341 149.795 242.114 149.866 241.885 149.866ZM227.805 115.955C227.798 115.955 227.79 115.956 227.782 115.957L183.15 122.066C183.065 122.078 183.006 122.148 183.016 122.226L183.29 124.369C183.297 124.418 183.331 124.462 183.382 124.483L241.818 148.888C241.897 148.92 241.958 148.887 241.981 148.871C242.011 148.85 242.046 148.812 242.043 148.75C242.042 148.734 242.038 148.719 242.032 148.703L227.953 116.047C227.929 115.991 227.869 115.955 227.805 115.955Z" fill="#EE8B48"/>
<path d="M308.092 352.567L287.812 346.659L283.899 333.783C283.349 331.975 283.011 330.104 282.893 328.222L282.138 316.159C281.916 312.617 281.146 309.14 279.849 305.825L255.088 242.565C254.025 239.85 253.393 237.002 253.207 234.1L252.64 225.229L240.897 188.788L232.04 221.079L231.188 241.083L212.545 256.418L194.008 325.924C192.945 329.91 189.264 332.694 185.058 332.694H181.208L181.208 332.212L181.252 123.62C181.252 123.564 181.251 123.508 181.25 123.454C181.242 123.105 181.234 122.709 181.561 122.49C181.697 122.399 181.929 122.321 182.258 122.465L239.207 146.295L224.907 128.094L228.232 115.516L228.601 115.514C243.392 115.447 254.222 119.106 260.77 126.376C271.283 138.049 269.228 157.113 267.728 171.033C267.506 173.091 267.296 175.039 267.134 176.869C271.392 184.5 273.699 191.671 273.99 198.183C274.308 205.284 276.535 212.095 280.432 217.879L289.64 231.544C290.668 233.07 291.343 234.758 291.645 236.562L303.601 307.858L305.145 313.798C305.454 314.986 306.327 315.981 307.482 316.46C320.418 321.827 323.868 327.665 324.239 328.354C325.082 329.312 335.596 341.296 337.301 345.158C337.448 345.489 337.427 345.874 337.245 346.187C337.062 346.503 336.748 346.706 336.383 346.743C336.176 346.764 335.965 346.775 335.752 346.775C329.906 346.775 321.981 339.03 318.727 335.563L319.118 347.822L308.092 352.567ZM288.581 345.879L308.03 351.546L318.136 347.196L317.763 335.532C317.751 335.142 317.977 334.792 318.341 334.641C318.709 334.489 319.123 334.577 319.394 334.867C321.931 337.574 330.643 346.364 336.285 345.785C336.356 345.778 336.394 345.737 336.413 345.704C336.43 345.675 336.452 345.618 336.421 345.548C334.742 341.745 323.591 329.076 323.479 328.948L323.41 328.845C323.38 328.787 320.212 322.784 307.114 317.351C305.682 316.757 304.598 315.52 304.214 314.041L302.655 308.039L290.696 236.722C290.417 235.054 289.793 233.494 288.842 232.083L279.635 218.418C275.638 212.487 273.354 205.505 273.029 198.226C272.743 191.828 270.453 184.757 266.222 177.211L266.149 177.081L266.162 176.933C266.327 175.051 266.543 173.049 266.771 170.929C268.335 156.425 270.28 138.374 260.055 127.021C253.753 120.024 243.297 116.477 228.975 116.477C228.974 116.477 228.975 116.477 228.974 116.477L225.96 127.876L243.351 150.012L242.595 150.607L239.526 146.701L239.251 147.358L182.213 123.491C182.214 123.534 182.214 123.578 182.214 123.621L182.171 331.731H185.057C188.829 331.731 192.127 329.241 193.078 325.676L211.695 255.87L211.814 255.772L230.245 240.612L231.083 220.929L240.068 188.173C240.167 187.809 240.49 187.559 240.869 187.551C241.249 187.544 241.583 187.778 241.698 188.138L253.593 225.047L254.167 234.038C254.346 236.841 254.958 239.591 255.984 242.213L280.745 305.474C282.078 308.882 282.87 312.456 283.098 316.099L283.853 328.162C283.967 329.969 284.291 331.766 284.819 333.503L288.581 345.879Z" fill="#EE8B48"/>
<path d="M181.73 328.401V342.845L187.207 342.791C187.207 342.791 233.698 280.366 234.544 279.539C234.966 263.416 230.715 240.848 230.715 240.848L211.527 256.286L186.901 328.256L181.73 328.401Z" fill="#FFD4AB"/>
<path d="M181.73 328.401V342.845L187.207 342.791C187.207 342.791 233.698 280.366 234.544 279.539C234.966 263.416 230.715 240.848 230.715 240.848L211.527 256.286L186.901 328.256L181.73 328.401Z" fill="url(#paint10_linear_174_150677)"/>
<path d="M181.25 343.331V327.933L186.555 327.783L211.118 255.998L231.04 239.969L231.189 240.758C231.231 240.985 235.445 263.562 235.025 279.551L235.02 279.747L234.881 279.883C234.009 280.819 203.567 321.631 187.594 343.079L187.451 343.271L181.25 343.331ZM182.212 328.87V342.358L186.965 342.312C192.222 335.253 231.309 282.78 234.068 279.36C234.41 265.18 231.123 245.857 230.387 241.731L211.938 256.574L187.249 328.728L182.212 328.87Z" fill="#EE8B48"/>
<path d="M182.277 122.981C209.094 122.471 228.105 115.477 228.105 115.477L199.788 98.9404L182.005 122.467C181.843 122.682 182.004 122.986 182.277 122.981Z" fill="#FFD4AB"/>
<path d="M182.277 122.981C209.094 122.471 228.105 115.477 228.105 115.477L199.788 98.9404L182.005 122.467C181.843 122.682 182.004 122.986 182.277 122.981Z" fill="url(#paint11_linear_174_150677)"/>
<path d="M182.27 123.463C181.962 123.463 181.686 123.295 181.547 123.021C181.407 122.746 181.436 122.423 181.621 122.177L199.661 98.3093L229.23 115.576L228.271 115.929C228.08 115.999 208.874 122.957 182.286 123.463C182.281 123.463 182.275 123.463 182.27 123.463ZM182.268 122.499C182.268 122.499 182.268 122.499 182.267 122.499H182.268ZM199.914 99.5721L182.589 122.493C205.451 122.012 222.745 116.758 226.954 115.363L199.914 99.5721Z" fill="#EE8B48"/>
<path d="M282.887 317.066C282.656 317.066 282.452 316.9 282.413 316.664C282.369 316.402 282.546 316.153 282.808 316.109L304.115 312.529C304.377 312.485 304.625 312.662 304.669 312.924C304.713 313.187 304.536 313.435 304.274 313.479L282.967 317.06C282.94 317.064 282.913 317.066 282.887 317.066Z" fill="#EE8B48"/>
<path d="M300.055 313.92C299.857 313.92 299.673 313.798 299.602 313.602L271.236 234.919L276.34 212.87C276.4 212.611 276.658 212.449 276.917 212.509C277.176 212.569 277.338 212.828 277.278 213.087L272.238 234.86L300.507 313.275C300.597 313.525 300.468 313.801 300.218 313.892C300.164 313.911 300.109 313.92 300.055 313.92Z" fill="#EE8B48"/>
<path d="M271.62 235.108C271.467 235.108 271.316 235.035 271.223 234.899L247.181 199.921L247.168 199.798L241.945 148.281L266.949 176.694C267.125 176.894 267.106 177.198 266.906 177.374C266.707 177.55 266.403 177.531 266.227 177.331L243.206 151.171L248.114 199.578L272.016 234.353C272.166 234.572 272.111 234.872 271.892 235.023C271.809 235.08 271.714 235.108 271.62 235.108Z" fill="#EE8B48"/>
<path d="M247.778 200.074L257.499 227.359L271.522 235.024C271.61 235.072 271.705 234.972 271.649 234.889L248.008 199.961C247.923 199.837 247.728 199.933 247.778 200.074Z" fill="#FFD4AB"/>
<path d="M247.778 200.074L257.499 227.359L271.522 235.024C271.61 235.072 271.705 234.972 271.649 234.889L248.008 199.961C247.923 199.837 247.728 199.933 247.778 200.074Z" fill="url(#paint12_linear_174_150677)"/>
<path d="M271.57 235.518C271.476 235.518 271.38 235.495 271.292 235.447L257.108 227.694L247.325 200.236C247.222 199.945 247.346 199.631 247.622 199.49C247.9 199.348 248.23 199.432 248.406 199.688L272.048 234.619C272.198 234.839 272.177 235.131 271.998 235.328C271.885 235.452 271.729 235.518 271.57 235.518ZM257.891 227.024L270.357 233.838L249.162 202.523L257.891 227.024ZM248.232 199.912V199.912C248.232 199.912 248.232 199.912 248.232 199.912Z" fill="#EE8B48"/>
<path d="M294.72 314.829C294.533 314.829 294.356 314.719 294.278 314.537L257.058 227.549C256.953 227.304 257.066 227.021 257.31 226.916C257.554 226.811 257.837 226.925 257.942 227.169L295.162 314.157C295.267 314.402 295.154 314.685 294.909 314.79C294.848 314.816 294.783 314.829 294.72 314.829Z" fill="#EE8B48"/>
<path d="M288.854 315.704C288.674 315.704 288.502 315.602 288.42 315.429L261.772 259.456C261.657 259.216 261.759 258.929 261.999 258.814C262.239 258.699 262.526 258.802 262.64 259.042L289.288 315.014C289.403 315.254 289.301 315.542 289.061 315.656C288.994 315.688 288.923 315.704 288.854 315.704Z" fill="#EE8B48"/>
<path d="M181.232 258.132V233.649L181.661 175.393L206.684 188.475L226.873 181.118C227.475 180.899 227.93 180.432 228.124 179.836L239.243 145.598L239.676 145.654C239.92 145.696 240.1 145.915 240.092 146.164L239.267 171.185C239.255 171.557 239.183 171.925 239.054 172.277C237.533 176.432 229.161 197.095 212.623 198.945C212.605 201.386 212.438 213.485 210.924 220.522L210.882 220.64C210.833 220.824 210.931 221.772 211.025 222.688C211.334 225.682 211.908 231.254 210.049 235.497L210.041 235.514C209.94 236.677 210.967 246.873 211.983 256.02C212.003 256.206 211.945 256.394 211.824 256.536C211.701 256.681 211.521 256.768 211.33 256.777L181.232 258.132ZM182.612 176.977L182.195 233.653V257.124L210.993 255.828C210.83 254.353 210.31 249.613 209.852 245.066C208.937 235.961 209.016 235.274 209.202 235.03C210.917 231.032 210.386 225.876 210.068 222.787C209.909 221.245 209.855 220.63 209.993 220.273C211.558 212.948 211.656 200.066 211.662 198.638L206.303 189.363L182.612 176.977ZM207.353 189.257L212.405 197.999C228.453 196.294 236.661 176.016 238.151 171.945C238.245 171.689 238.296 171.423 238.305 171.153L239.023 149.39L229.039 180.134C228.754 181.014 228.084 181.703 227.202 182.024L207.353 189.257ZM240.03 146.29L240.029 146.293C240.029 146.292 240.029 146.291 240.03 146.29Z" fill="#EE8B48"/>
<path d="M211.993 208.815C211.793 208.815 211.606 208.689 211.538 208.489C211.452 208.237 211.586 207.963 211.837 207.877L227.294 202.59C227.889 202.386 228.359 201.915 228.551 201.33L238.314 171.487C238.397 171.234 238.668 171.097 238.921 171.179C239.174 171.262 239.311 171.534 239.228 171.787L229.465 201.63C229.18 202.501 228.485 203.201 227.605 203.502L212.149 208.789C212.097 208.807 212.045 208.815 211.993 208.815Z" fill="#EE8B48"/>
<path d="M210.833 223.027L210.622 222.896L181.71 204.852C181.485 204.711 181.416 204.414 181.556 204.188C181.697 203.963 181.994 203.894 182.219 204.034L210.92 221.947L227.724 214.902C228.104 214.743 228.421 214.479 228.64 214.138L236.082 202.593C236.227 202.37 236.524 202.305 236.748 202.45C236.971 202.594 237.035 202.892 236.891 203.116L229.449 214.66C229.124 215.165 228.655 215.556 228.095 215.791L210.833 223.027Z" fill="#EE8B48"/>
<path d="M209.609 235.785C209.427 235.785 209.253 235.681 209.172 235.505C209.06 235.264 209.165 234.977 209.406 234.866L230.882 224.917C231.123 224.805 231.409 224.91 231.52 225.151C231.632 225.393 231.527 225.679 231.286 225.791L209.81 235.74C209.745 235.77 209.676 235.785 209.609 235.785Z" fill="#EE8B48"/>
<path d="M181.75 233.152L181.693 234.114L209.59 235.761L209.647 234.799L181.75 233.152Z" fill="#EE8B48"/>
<path d="M234.544 279.539C234.544 279.539 254.409 332.456 243.42 391.574L235.04 430.92C234.992 431.145 234.985 431.375 235.019 431.603C235.443 434.446 238.296 454.451 236.541 466.66C236.37 467.856 236.475 469.072 236.841 470.225C239.321 478.05 247.663 511.47 227.782 559.008C225.924 569.184 224.066 585.749 223.644 589.607C223.589 590.111 223.702 590.616 223.969 591.051C225.195 593.05 228.409 599.53 223.133 605.724C235.39 626.808 240.461 627.221 233.699 633.836C226.538 635.393 213.759 639.147 202.765 629.927C201.417 628.796 200.583 627.19 200.421 625.46C199.62 616.887 200.31 604.07 200.31 604.07C200.31 604.07 196.506 600.763 203.691 585.053C210.876 569.343 203.268 549.499 203.268 549.499C203.268 549.499 191.012 515.599 203.268 480.872C202.846 474.258 196.083 454 197.351 437.877C197.351 439.117 179.6 361.809 185.517 344.858C184.249 345.685 234.544 279.539 234.544 279.539Z" fill="url(#paint13_linear_174_150677)"/>
<path d="M205.265 556.585C205.228 556.585 205.19 556.581 205.153 556.572C204.894 556.51 204.735 556.25 204.797 555.991L205.181 554.386C207.304 545.531 209.498 536.375 211.002 527.464C212.544 518.331 213.87 508.631 211.721 499.276C210.458 493.778 207.957 489.475 205.309 484.92C204.528 483.578 203.721 482.19 202.921 480.732C202.793 480.499 202.878 480.206 203.111 480.078C203.344 479.95 203.637 480.035 203.764 480.268C204.559 481.716 205.363 483.098 206.14 484.436C208.826 489.056 211.364 493.419 212.659 499.06C214.847 508.587 213.509 518.395 211.951 527.625C210.442 536.568 208.243 545.741 206.117 554.611L205.733 556.216C205.68 556.437 205.483 556.585 205.265 556.585Z" fill="#EE8B48"/>
<path d="M200.349 604.452C200.339 604.452 200.33 604.452 200.32 604.451C200.055 604.436 199.852 604.208 199.868 603.942C200.12 599.614 202.203 595.693 204.218 591.9C204.73 590.935 205.261 589.937 205.747 588.955C209.963 580.453 211.899 571.134 213.822 560.712C218.872 533.357 223.163 505.146 227.314 477.864L228.453 470.377C228.493 470.114 228.738 469.933 229.001 469.973C229.264 470.013 229.445 470.259 229.405 470.522L228.265 478.009C224.114 505.299 219.821 533.518 214.769 560.887C212.832 571.382 210.88 580.77 206.61 589.383C206.117 590.377 205.583 591.382 205.068 592.353C203.102 596.054 201.069 599.88 200.829 603.999C200.814 604.255 200.602 604.452 200.349 604.452Z" fill="#EE8B48"/>
<path d="M211.231 594.063C211.187 594.063 211.143 594.057 211.099 594.045C210.844 593.972 210.695 593.706 210.767 593.45C213.606 583.399 216.42 573.37 219.143 563.672C221.863 553.98 224.676 543.958 227.512 533.914C228.106 531.813 228.71 529.715 229.314 527.62C234.286 510.363 239.427 492.519 237.466 474.343C237.437 474.079 237.628 473.841 237.893 473.812C238.157 473.784 238.394 473.975 238.423 474.239C240.404 492.604 235.236 510.541 230.239 527.887C229.635 529.981 229.031 532.076 228.439 534.176C225.602 544.22 222.789 554.241 220.069 563.933C217.347 573.631 214.532 583.66 211.693 593.712C211.634 593.924 211.441 594.063 211.231 594.063Z" fill="#EE8B48"/>
<path d="M199.63 534.539C199.434 534.539 199.25 534.419 199.178 534.224C199.086 533.974 199.214 533.697 199.463 533.605C206.922 530.853 211.984 523.534 212.673 514.504C212.693 514.239 212.923 514.037 213.189 514.06C213.454 514.081 213.653 514.312 213.632 514.578C212.914 523.988 207.612 531.625 199.796 534.509C199.741 534.53 199.685 534.539 199.63 534.539Z" fill="#EE8B48"/>
<path d="M223.228 605.993C222.977 605.993 222.765 605.797 222.749 605.542C222.63 603.703 221.188 601.837 219.72 600.084C217.163 597.028 214.319 594.227 210.873 594.424C208.981 594.532 207.282 595.567 206.013 596.457C202.257 599.089 200.521 601.444 200.706 603.656C200.728 603.921 200.532 604.154 200.267 604.176C200.003 604.201 199.769 604.001 199.747 603.736C199.531 601.153 201.4 598.513 205.461 595.667C206.834 594.705 208.684 593.585 210.818 593.462C214.685 593.241 217.739 596.216 220.458 599.465C222.028 601.341 223.572 603.351 223.709 605.481C223.726 605.746 223.525 605.975 223.26 605.992C223.249 605.993 223.239 605.993 223.228 605.993Z" fill="#EE8B48"/>
<path d="M191.435 85.6467L181.87 122.309C181.789 122.617 182.036 122.914 182.361 122.901L186.24 122.744L199.888 98.876L200.31 74.8982L191.435 85.6467Z" fill="#FFD4AB"/>
<path d="M182.341 123.383C182.048 123.383 181.767 123.25 181.584 123.022C181.393 122.785 181.328 122.48 181.404 122.187L190.996 85.4215L200.816 73.5295L200.367 99.0075L186.525 123.214L182.38 123.382C182.367 123.383 182.354 123.383 182.341 123.383ZM191.873 85.8712L182.336 122.43L185.954 122.274L199.409 98.7435L199.805 76.2656L191.873 85.8712Z" fill="#EE8B48"/>
<path d="M158.405 69.2151C160.65 68.7486 161.59 64.1308 160.503 58.9009C159.417 53.6711 156.716 49.8097 154.471 50.2762C152.225 50.7427 151.286 55.3605 152.372 60.5903C153.459 65.8201 156.159 69.6816 158.405 69.2151Z" fill="#FFD4AB"/>
<path d="M158.033 69.7348C155.6 69.7348 152.967 65.9008 151.887 60.6436C151.084 56.7321 151.378 52.981 152.637 51.0873C153.114 50.3681 153.706 49.9348 154.395 49.7996C156.94 49.2992 159.834 53.2735 160.979 58.8483C161.782 62.7599 161.488 66.5111 160.23 68.4046C159.752 69.1238 159.16 69.5571 158.471 69.6923C158.327 69.7207 158.18 69.7348 158.033 69.7348ZM154.837 50.7204C154.75 50.7204 154.664 50.7285 154.58 50.7449C154.153 50.8289 153.768 51.1237 153.438 51.6209C152.331 53.2856 152.087 56.8334 152.83 60.4496C153.936 65.837 156.545 69.0903 158.286 68.7469C158.714 68.6629 159.098 68.3681 159.429 67.8709C160.535 66.2064 160.779 62.6584 160.037 59.0422C158.983 53.914 156.569 50.7204 154.837 50.7204Z" fill="#EE8B48"/>
<path d="M211.08 60.5903C212.167 55.3605 211.227 50.7426 208.982 50.2761C206.736 49.8096 204.036 53.6711 202.949 58.9009C201.863 64.1308 202.803 68.7485 205.048 69.2151C207.293 69.6816 209.994 65.8201 211.08 60.5903Z" fill="#FFD4AB"/>
<path d="M205.411 69.7349C205.264 69.7349 205.118 69.7211 204.973 69.6924C204.284 69.5571 203.693 69.1239 203.215 68.4047C201.956 66.511 201.662 62.76 202.465 58.8484C203.61 53.2735 206.502 49.2987 209.05 49.7997C209.739 49.935 210.33 50.3682 210.808 51.0872C212.067 52.9809 212.361 56.7321 211.557 60.6437C210.478 65.9006 207.844 69.7349 205.411 69.7349ZM203.408 59.0423C202.665 62.6585 202.91 66.2065 204.016 67.871C204.346 68.3682 204.731 68.663 205.158 68.747C206.901 69.0878 209.508 65.8369 210.615 60.4497C211.357 56.8335 211.113 53.2855 210.007 51.621C209.676 51.1238 209.292 50.829 208.864 50.745C207.12 50.4021 204.515 53.6561 203.408 59.0423Z" fill="#EE8B48"/>
<path d="M205.355 52.8493C205.355 62.5263 205.786 72.8568 201.108 79.0323C196.724 84.8202 188.75 89.3677 181.516 89.3677C174.407 89.3677 164.8 83.0287 162.334 79.7213C157.637 73.4224 158.087 62.4393 158.087 52.5737C158.087 43.4523 158.006 34.0954 161.649 27.6309C166.198 19.5587 173.91 15.0906 181.515 15.0906C189.219 15.0906 197.655 19.5147 202.204 27.7687C205.742 34.1885 205.355 43.8757 205.355 52.8493Z" fill="#FFD4AB"/>
<path d="M181.516 89.8491C174.33 89.8491 164.527 83.4655 161.949 80.0092C157.532 74.0849 157.567 64.36 157.601 54.9554C157.604 54.1562 157.606 53.3611 157.606 52.5733V51.9926C157.605 43.0641 157.603 33.8316 161.231 27.3938C165.675 19.5077 173.448 14.6086 181.516 14.6086C190.013 14.6086 198.299 19.6828 202.626 27.5357C205.908 33.4914 205.875 42.1035 205.843 50.4317C205.84 51.2414 205.837 52.048 205.837 52.849C205.837 53.5992 205.84 54.3533 205.842 55.1092C205.874 64.1492 205.906 73.4969 201.492 79.323C196.797 85.5206 188.583 89.8491 181.516 89.8491ZM181.516 15.572C173.795 15.572 166.343 20.2832 162.069 27.8672C158.565 34.0845 158.567 43.1882 158.569 51.9924L158.569 52.5733C158.569 53.3623 158.566 54.1586 158.563 54.959C158.53 64.2052 158.495 73.7665 162.72 79.4329C165.196 82.7533 174.613 88.8858 181.516 88.8858C188.301 88.8858 196.2 84.7141 200.725 78.741C204.942 73.1743 204.91 63.9922 204.88 55.1126C204.877 54.3555 204.875 53.6004 204.875 52.849C204.875 52.0468 204.878 51.2388 204.881 50.4282C204.912 42.2226 204.945 33.738 201.783 28.001C197.623 20.4507 189.668 15.572 181.516 15.572Z" fill="#EE8B48"/>
<path d="M128.528 280.455L177.932 344.845C177.932 344.845 179.332 367.197 176.79 377.378C175.822 386.225 171.1 412.646 171.1 412.646L165.11 438.135C165.11 438.135 157.058 446.581 150.279 432.765C150.279 433.492 140.11 441.006 137.447 433.128C137.447 433.371 128.376 431.593 128.376 431.593C128.376 431.593 116.383 380.226 116.746 368.227C116.746 359.138 115.899 321.991 123.465 296.418C124.917 290.055 128.528 280.455 128.528 280.455Z" fill="url(#paint14_linear_174_150677)"/>
<path d="M234.54 280.213L185.135 344.603C185.135 344.603 183.736 366.955 186.278 377.135C187.246 385.983 191.967 412.404 191.967 412.404L197.261 437.418C197.261 437.418 206.01 446.339 212.789 432.522C212.789 433.25 222.958 440.764 225.621 432.886C225.621 433.128 234.692 431.35 234.692 431.35C234.692 431.35 246.685 379.983 246.322 367.985C246.322 358.895 247.169 321.748 239.603 296.176C238.15 289.813 234.54 280.213 234.54 280.213Z" fill="url(#paint15_linear_174_150677)"/>
<path d="M111.067 283.942C111.123 283.967 111.187 283.981 111.257 283.982C111.19 283.982 111.126 283.968 111.067 283.942Z" fill="#EE8B48"/>
<path d="M143.178 636.391C138.43 636.391 134.074 635.406 130.747 634.653C130.206 634.53 129.689 634.413 129.198 634.307L129.063 634.277L128.964 634.18C123.934 629.26 125.201 627.392 130.532 619.531C132.72 616.304 135.703 611.905 139.281 605.773C134.076 599.376 137.448 592.71 138.62 590.799C138.832 590.454 138.921 590.06 138.877 589.659C138.515 586.359 136.622 569.404 134.753 559.145C126.284 538.881 121.933 518.89 121.821 499.727C121.731 484.297 124.504 473.853 125.7 470.079C126.049 468.98 126.143 467.853 125.982 466.729C124.204 454.363 127.162 433.832 127.505 431.531C127.53 431.361 127.525 431.189 127.489 431.02L119.109 391.675C113.417 361.053 116.138 332.156 119.423 313.304C122.982 292.877 127.955 279.502 128.005 279.369L128.311 278.553L128.838 279.247C128.961 279.409 141.327 295.673 153.492 311.773C160.636 321.229 166.315 328.779 170.37 334.213C172.778 337.441 174.633 339.949 175.884 341.668C177.592 344.016 178.034 344.623 178.013 344.926C180.961 353.941 177.669 378.514 174.37 397.627C172.423 408.902 170.345 419.104 168.944 425.677C167.894 430.6 166.619 436.401 166.132 437.89C166.99 448.958 164.141 461.769 162.059 471.127C161.115 475.37 160.367 478.735 160.218 480.805C166.546 498.8 166.207 516.541 164.805 528.265C163.284 540.989 160.214 549.578 160.184 549.663C160.105 549.868 152.73 569.512 159.746 584.852C166.179 598.918 163.894 603.324 163.18 604.241C163.262 605.895 163.798 617.573 163.057 625.505C162.882 627.382 161.989 629.083 160.543 630.296C154.907 635.023 148.771 636.391 143.178 636.391ZM129.538 633.395C129.991 633.494 130.465 633.601 130.959 633.713C138.489 635.417 149.87 637.992 159.925 629.557C161.176 628.509 161.948 627.038 162.099 625.415C162.888 616.975 162.216 604.224 162.209 604.096L162.197 603.861L162.374 603.706C162.401 603.681 165.733 600.257 158.871 585.253C151.685 569.541 159.205 549.527 159.282 549.326C159.309 549.251 162.347 540.745 163.853 528.123C165.241 516.488 165.574 498.873 159.277 481.033L159.245 480.94L159.251 480.841C159.387 478.705 160.152 475.269 161.12 470.918C163.172 461.69 165.977 449.084 165.191 438.216L165.17 438.207L165.167 437.877L165.585 437.86L165.219 437.689C165.524 436.889 169.91 417.931 173.526 396.858C178.182 369.719 179.393 351.793 177.028 345.017L176.985 344.895C175.186 341.954 145.05 302.162 128.609 280.536C127.486 283.742 123.409 296.024 120.366 313.494C117.098 332.262 114.391 361.028 120.053 391.486L128.43 430.82C128.49 431.101 128.499 431.389 128.457 431.674C128.116 433.96 125.176 454.361 126.934 466.592C127.114 467.843 127.005 469.149 126.617 470.371C123.791 479.288 116.088 512.021 135.661 558.822L135.691 558.921C137.569 569.207 139.471 586.243 139.833 589.554C139.901 590.169 139.765 590.774 139.441 591.303C138.338 593.1 135.137 599.429 140.233 605.411L140.454 605.671L140.283 605.966C136.613 612.279 133.558 616.783 131.328 620.072C126.041 627.869 125.195 629.116 129.538 633.395Z" fill="#EE8B48"/>
<path d="M158.742 441.106C158.005 441.106 157.296 441.014 156.653 440.821C153.475 439.867 151.089 436.74 149.753 431.778C146.455 419.525 148.61 405.879 150.694 392.681C152.331 382.32 154.023 371.606 153.013 361.762C152.986 361.497 153.178 361.26 153.443 361.233C153.706 361.205 153.943 361.399 153.97 361.663C154.993 371.632 153.291 382.409 151.645 392.831C149.576 405.929 147.437 419.473 150.682 431.528C151.55 434.751 153.338 438.82 156.93 439.898C159.913 440.793 164.635 439.192 165.562 436.263C165.642 436.009 165.912 435.869 166.166 435.949C166.419 436.03 166.559 436.3 166.479 436.554C165.584 439.385 161.916 441.106 158.742 441.106Z" fill="#EE8B48"/>
<path d="M140.105 472.312C139.126 472.312 138.147 472.268 137.168 472.161C136.125 472.048 134.936 471.835 134.017 471.115C133.117 470.409 132.648 469.358 132.309 468.422C129.709 461.255 131.303 453.465 133.412 446.115C133.647 445.298 133.887 444.479 134.129 443.659C135.979 437.361 137.892 430.849 137.21 424.359C136.724 419.729 134.919 415.265 133.174 410.949C132.809 410.045 132.444 409.143 132.09 408.239C122.664 384.132 120.308 354.867 125.275 323.608C125.317 323.346 125.564 323.167 125.826 323.208C126.088 323.25 126.267 323.497 126.225 323.76C121.285 354.85 123.623 383.941 132.987 407.888C133.339 408.788 133.702 409.687 134.066 410.588C135.836 414.966 137.667 419.493 138.167 424.258C138.869 430.938 136.928 437.543 135.052 443.931C134.811 444.749 134.571 445.566 134.337 446.382C132.273 453.575 130.708 461.184 133.213 468.093C133.506 468.9 133.901 469.801 134.61 470.357C135.338 470.927 136.364 471.105 137.271 471.203C140.823 471.589 144.445 471.132 147.947 470.69C150.415 470.379 153.211 470.026 155.299 468.475C157.704 466.687 158.738 463.652 159.519 460.948C161.739 453.259 162.875 446.569 163.203 439.256C163.215 438.991 163.441 438.788 163.705 438.797C163.97 438.809 164.176 439.034 164.164 439.3C163.832 446.691 162.685 453.45 160.444 461.215C159.559 464.281 158.393 467.375 155.872 469.248C153.582 470.95 150.524 471.336 148.067 471.646C145.461 471.975 142.788 472.312 140.105 472.312Z" fill="#EE8B48"/>
<path d="M117.088 338.877C117.027 338.877 116.966 338.865 116.907 338.84C116.671 338.739 116.561 338.465 116.661 338.228C117.232 336.866 118.274 334.814 118.672 334.097L118.751 333.954C120.089 331.541 121.353 329.261 122.877 327.017C124.456 324.694 125.806 322.478 127.005 320.244C129.753 315.123 131.556 310.095 132.365 305.298C133.458 298.817 133.338 292.353 133.122 286.287C133.113 286.029 133.313 285.813 133.569 285.804C133.826 285.797 134.04 285.996 134.049 286.253C134.267 292.368 134.387 298.887 133.28 305.454C132.453 310.352 130.617 315.478 127.821 320.688C126.607 322.951 125.24 325.194 123.642 327.545C122.142 329.753 120.888 332.015 119.56 334.409L119.481 334.552C119.092 335.254 118.073 337.26 117.515 338.591C117.44 338.77 117.269 338.877 117.088 338.877Z" fill="#EE8B48"/>
<path d="M169.137 422.496C168.898 422.496 168.692 422.314 168.666 422.07C167.389 409.717 163.617 397.571 159.969 385.825C158.246 380.279 156.465 374.544 154.983 368.893C152.588 359.759 149.79 350.572 147.085 341.687C141.704 324.013 136.139 305.738 133.473 287.007C133.436 286.747 133.616 286.507 133.875 286.469C134.135 286.432 134.374 286.613 134.411 286.873C137.068 305.531 142.621 323.771 147.992 341.41C150.7 350.304 153.5 359.5 155.9 368.652C157.377 374.282 159.155 380.007 160.874 385.544C164.536 397.334 168.322 409.525 169.61 421.972C169.637 422.233 169.447 422.466 169.187 422.493C169.17 422.495 169.154 422.496 169.137 422.496Z" fill="#EE8B48"/>
<path d="M167.89 381.529C167.825 381.529 167.758 381.516 167.694 381.487C167.456 381.378 167.351 381.096 167.459 380.858C168.055 379.553 168.573 378.198 169 376.829C169.492 375.252 169.878 373.609 170.251 372.019C170.701 370.107 171.165 368.129 171.444 366.159C172.644 357.668 170.862 349.354 169.139 341.314C168.443 338.065 167.723 334.705 167.201 331.356C167.161 331.097 167.338 330.854 167.596 330.813C167.855 330.776 168.098 330.951 168.138 331.209C168.656 334.532 169.373 337.878 170.067 341.115C171.807 349.236 173.607 357.634 172.383 366.292C172.098 368.304 171.629 370.303 171.175 372.236C170.798 373.842 170.408 375.503 169.906 377.112C169.466 378.519 168.934 379.912 168.322 381.252C168.242 381.427 168.07 381.529 167.89 381.529Z" fill="#EE8B48"/>
<path d="M172.794 403.425C172.577 403.425 172.382 403.276 172.332 403.056C172.157 402.287 172.047 401.594 171.941 400.923C171.837 400.268 171.73 399.59 171.562 398.853C167.101 379.251 162.548 360.115 155.937 341.494C154.347 337.014 152.373 332.534 150.463 328.202C146.104 318.308 141.596 308.078 141.187 296.893C141.177 296.631 141.382 296.411 141.643 296.401C141.906 296.392 142.125 296.596 142.135 296.858C142.537 307.861 147.007 318.007 151.331 327.818C153.247 332.167 155.229 336.663 156.831 341.176C163.459 359.845 168.019 379.012 172.487 398.642C172.662 399.41 172.772 400.104 172.878 400.774C172.981 401.43 173.089 402.107 173.256 402.845C173.315 403.1 173.155 403.355 172.9 403.413C172.864 403.421 172.829 403.425 172.794 403.425Z" fill="#EE8B48"/>
<path d="M148.907 323.112C148.767 323.112 148.628 323.049 148.534 322.93C148.372 322.725 148.408 322.426 148.613 322.264C151.058 320.335 153.136 316.749 153.785 313.34C153.834 313.083 154.082 312.913 154.339 312.963C154.596 313.012 154.765 313.261 154.716 313.518C154.028 317.135 151.812 320.95 149.2 323.01C149.113 323.078 149.01 323.112 148.907 323.112Z" fill="#EE8B48"/>
<path d="M153.142 332.969C152.904 332.969 152.7 332.791 152.671 332.549C152.641 332.29 152.826 332.055 153.084 332.023C153.102 332.001 153.122 331.977 153.142 331.954C155.639 329.095 157.595 325.355 158.954 320.838C159.03 320.587 159.295 320.445 159.545 320.52C159.796 320.596 159.938 320.861 159.863 321.112C158.464 325.76 156.443 329.618 153.856 332.578C153.842 332.595 153.83 332.609 153.822 332.62C153.766 332.785 153.613 332.956 153.339 332.956C153.318 332.956 153.278 332.956 153.197 332.966C153.179 332.968 153.16 332.969 153.142 332.969Z" fill="#EE8B48"/>
<path d="M144.791 312.608C144.778 312.608 144.764 312.607 144.75 312.606C144.489 312.584 144.296 312.354 144.318 312.093C144.537 309.543 145.313 307.603 146.212 305.357C146.363 304.979 146.517 304.594 146.672 304.197C146.767 303.953 147.042 303.833 147.286 303.928C147.53 304.023 147.651 304.299 147.555 304.543C147.399 304.943 147.244 305.33 147.092 305.71C146.221 307.886 145.469 309.765 145.263 312.174C145.242 312.421 145.035 312.608 144.791 312.608Z" fill="#EE8B48"/>
<path d="M204.401 440.985C205.137 440.985 205.847 440.893 206.489 440.7C209.667 439.746 212.053 436.619 213.389 431.657C216.687 419.404 214.532 405.757 212.448 392.56C210.811 382.199 209.119 371.485 210.129 361.641C210.156 361.376 209.964 361.139 209.7 361.112C209.436 361.083 209.199 361.277 209.172 361.542C208.149 371.511 209.851 382.288 211.497 392.71C213.566 405.808 215.705 419.352 212.46 431.407C211.592 434.63 209.804 438.699 206.213 439.777C203.229 440.672 198.507 439.071 197.581 436.142C197.5 435.888 197.23 435.748 196.977 435.828C196.723 435.908 196.583 436.179 196.663 436.433C197.558 439.264 201.226 440.985 204.401 440.985Z" fill="#EE8B48"/>
<path d="M223.037 472.191C224.016 472.191 224.996 472.146 225.975 472.04C227.017 471.927 228.207 471.714 229.125 470.994C230.026 470.288 230.494 469.236 230.833 468.3C233.433 461.133 231.839 453.344 229.73 445.994C229.495 445.177 229.255 444.358 229.014 443.537C227.164 437.24 225.251 430.728 225.932 424.238C226.418 419.607 228.223 415.144 229.968 410.828C230.333 409.924 230.698 409.022 231.052 408.118C240.478 384.011 242.835 354.746 237.867 323.487C237.825 323.224 237.578 323.046 237.316 323.087C237.054 323.129 236.875 323.376 236.917 323.639C241.857 354.728 239.519 383.819 230.156 407.767C229.804 408.667 229.44 409.566 229.076 410.466C227.306 414.844 225.475 419.372 224.975 424.137C224.274 430.817 226.214 437.422 228.09 443.809C228.331 444.628 228.571 445.445 228.805 446.26C230.869 453.454 232.435 461.063 229.929 467.972C229.636 468.779 229.241 469.68 228.532 470.235C227.804 470.806 226.778 470.983 225.871 471.082C222.319 471.468 218.697 471.011 215.195 470.569C212.727 470.257 209.931 469.905 207.843 468.353C205.438 466.566 204.404 463.531 203.623 460.826C201.404 453.138 200.268 446.448 199.939 439.135C199.928 438.869 199.701 438.667 199.437 438.675C199.172 438.687 198.966 438.912 198.978 439.178C199.31 446.57 200.457 453.329 202.699 461.094C203.583 464.159 204.75 467.254 207.27 469.127C209.56 470.829 212.618 471.215 215.075 471.525C217.681 471.854 220.354 472.191 223.037 472.191Z" fill="#EE8B48"/>
<path d="M246.054 338.756C246.115 338.756 246.176 338.743 246.235 338.719C246.471 338.618 246.581 338.344 246.481 338.107C245.91 336.745 244.868 334.693 244.47 333.975L244.391 333.833C243.053 331.419 241.789 329.139 240.265 326.896C238.686 324.573 237.336 322.357 236.137 320.122C233.389 315.002 231.586 309.974 230.777 305.177C229.684 298.696 229.804 292.232 230.02 286.166C230.029 285.908 229.829 285.692 229.573 285.682C229.316 285.676 229.102 285.874 229.093 286.132C228.875 292.246 228.755 298.765 229.862 305.333C230.689 310.231 232.525 315.356 235.321 320.566C236.535 322.83 237.902 325.073 239.5 327.423C241 329.631 242.254 331.893 243.582 334.288L243.661 334.43C244.05 335.133 245.069 337.139 245.627 338.47C245.702 338.648 245.874 338.756 246.054 338.756Z" fill="#EE8B48"/>
<path d="M194.004 422.375C193.988 422.375 193.971 422.374 193.955 422.372C193.694 422.345 193.505 422.112 193.532 421.851C194.819 409.404 198.606 397.213 202.267 385.423C203.987 379.886 205.765 374.161 207.241 368.531C209.641 359.379 212.441 350.183 215.149 341.289C220.52 323.65 226.074 305.41 228.73 286.751C228.767 286.492 229.007 286.311 229.267 286.349C229.526 286.386 229.706 286.626 229.669 286.885C227.002 305.617 221.438 323.892 216.056 341.566C213.351 350.451 210.554 359.638 208.158 368.772C206.677 374.423 204.895 380.158 203.173 385.705C199.525 397.45 195.753 409.596 194.475 421.949C194.45 422.193 194.244 422.375 194.004 422.375Z" fill="#EE8B48"/>
<path d="M195.252 381.408C195.072 381.408 194.9 381.305 194.82 381.131C194.208 379.79 193.676 378.397 193.237 376.99C192.734 375.381 192.345 373.721 191.968 372.115C191.514 370.182 191.044 368.182 190.76 366.17C189.536 357.513 191.335 349.115 193.076 340.994C193.769 337.757 194.486 334.411 195.004 331.088C195.045 330.829 195.287 330.653 195.546 330.692C195.805 330.733 195.982 330.976 195.941 331.235C195.419 334.584 194.699 337.944 194.003 341.193C192.28 349.233 190.498 357.547 191.699 366.037C191.977 368.007 192.441 369.985 192.891 371.898C193.264 373.487 193.65 375.131 194.142 376.707C194.569 378.076 195.087 379.432 195.683 380.736C195.792 380.975 195.687 381.256 195.449 381.365C195.385 381.394 195.318 381.408 195.252 381.408Z" fill="#EE8B48"/>
<path d="M190.349 403.304C190.314 403.304 190.278 403.3 190.243 403.292C189.988 403.233 189.828 402.979 189.886 402.723C190.054 401.986 190.161 401.309 190.265 400.653C190.371 399.982 190.481 399.289 190.655 398.521C195.124 378.891 199.683 359.725 206.312 341.055C207.914 336.541 209.895 332.045 211.811 327.697C216.135 317.885 220.606 307.74 221.008 296.737C221.018 296.475 221.236 296.262 221.499 296.28C221.761 296.29 221.965 296.51 221.956 296.772C221.547 307.957 217.039 318.187 212.679 328.08C210.77 332.413 208.796 336.893 207.205 341.373C200.594 359.994 196.042 379.13 191.58 398.731C191.412 399.469 191.305 400.146 191.201 400.802C191.095 401.473 190.986 402.166 190.811 402.934C190.761 403.155 190.565 403.304 190.349 403.304Z" fill="#EE8B48"/>
<path d="M214.236 322.99C214.134 322.99 214.03 322.957 213.943 322.889C211.332 320.829 209.115 317.014 208.427 313.397C208.378 313.139 208.547 312.891 208.805 312.842C209.062 312.794 209.31 312.962 209.359 313.219C210.007 316.628 212.085 320.214 214.53 322.143C214.736 322.305 214.771 322.604 214.609 322.809C214.516 322.928 214.377 322.99 214.236 322.99Z" fill="#EE8B48"/>
<path d="M210 332.848C209.982 332.848 209.963 332.847 209.945 332.845C209.864 332.835 209.824 332.835 209.803 332.835C209.528 332.835 209.376 332.663 209.32 332.499C209.311 332.487 209.3 332.474 209.285 332.458C206.699 329.496 204.678 325.638 203.279 320.991C203.204 320.74 203.346 320.475 203.596 320.399C203.847 320.324 204.111 320.466 204.187 320.717C205.547 325.234 207.502 328.974 209.999 331.833C210.02 331.856 210.039 331.88 210.057 331.902C210.316 331.934 210.501 332.169 210.47 332.428C210.442 332.67 210.237 332.848 210 332.848Z" fill="#EE8B48"/>
<path d="M218.351 312.487C218.108 312.487 217.901 312.3 217.88 312.052C217.673 309.644 216.921 307.765 216.051 305.589C215.899 305.209 215.743 304.822 215.587 304.421C215.492 304.177 215.612 303.902 215.856 303.807C216.1 303.712 216.375 303.832 216.471 304.076C216.626 304.474 216.78 304.859 216.931 305.236C217.83 307.482 218.606 309.422 218.824 311.971C218.847 312.232 218.653 312.462 218.393 312.485C218.379 312.486 218.365 312.487 218.351 312.487Z" fill="#EE8B48"/>
<path d="M219.821 636.391C214.228 636.391 208.093 635.024 202.456 630.296C201.01 629.083 200.118 627.382 199.942 625.505C199.201 617.573 199.738 605.895 199.82 604.241C199.106 603.324 196.821 598.918 203.254 584.852C210.27 569.512 202.895 549.868 202.819 549.672C202.785 549.578 199.716 540.989 198.195 528.265C196.793 516.541 196.453 498.8 202.782 480.805C202.633 478.735 201.885 475.37 200.941 471.128C198.859 461.769 196.009 448.958 196.868 437.89C196.38 436.401 195.105 430.6 194.056 425.677C192.655 419.104 190.576 408.902 188.63 397.627C185.331 378.514 182.039 353.941 184.987 344.926C184.966 344.623 185.408 344.016 187.116 341.668C188.366 339.949 190.222 337.441 192.63 334.213C196.685 328.779 202.363 321.229 209.508 311.773C221.673 295.673 234.038 279.409 234.162 279.247L234.689 278.553L234.995 279.369C235.045 279.502 240.018 292.877 243.577 313.304C246.862 332.156 249.583 361.053 243.893 391.662L235.511 431.02C235.475 431.189 235.469 431.361 235.495 431.531C235.838 433.832 238.796 454.363 237.018 466.729C236.856 467.853 236.951 468.98 237.299 470.079C238.496 473.853 241.269 484.297 241.178 499.727C241.066 518.89 236.715 538.881 228.246 559.146C226.377 569.406 224.484 586.36 224.123 589.659C224.079 590.06 224.168 590.454 224.379 590.799C225.551 592.71 228.923 599.376 223.719 605.773C227.296 611.905 230.28 616.304 232.468 619.531C237.799 627.392 239.066 629.26 234.035 634.18L233.937 634.277L233.801 634.307C233.311 634.413 232.794 634.53 232.253 634.653C228.926 635.405 224.569 636.391 219.821 636.391ZM197.809 438.203C197.021 449.074 199.827 461.687 201.88 470.918C202.848 475.269 203.612 478.705 203.749 480.841L203.755 480.94L203.722 481.033C197.425 498.873 197.759 516.488 199.147 528.123C200.653 540.745 203.691 549.251 203.721 549.335C203.795 549.527 211.315 569.541 204.129 585.253C197.267 600.257 200.599 603.681 200.633 603.713L200.794 603.866L200.79 604.096C200.784 604.224 200.112 616.976 200.9 625.415C201.052 627.038 201.824 628.509 203.074 629.557C213.13 637.992 224.51 635.417 232.041 633.713C232.535 633.601 233.009 633.494 233.461 633.395C237.805 629.116 236.959 627.869 231.672 620.072C229.442 616.783 226.387 612.279 222.717 605.966L222.546 605.671L222.767 605.411C227.863 599.429 224.662 593.1 223.559 591.303C223.235 590.774 223.099 590.17 223.166 589.554C223.529 586.243 225.431 569.208 227.309 558.921L227.338 558.821C246.911 512.021 239.209 479.288 236.382 470.37C235.995 469.149 235.885 467.842 236.065 466.592C237.823 454.361 234.884 433.96 234.543 431.674C234.5 431.389 234.509 431.101 234.57 430.819L242.949 391.474C248.609 361.027 245.901 332.262 242.633 313.494C239.591 296.024 235.514 283.742 234.391 280.536C217.949 302.163 187.81 341.959 186.014 344.895L185.972 345.017C183.606 351.793 184.817 369.719 189.474 396.858C193.09 417.931 197.476 436.889 197.781 437.689C197.728 437.55 197.525 437.368 197.261 437.418L197.342 437.857L197.833 437.877V438.192L197.809 438.203Z" fill="#EE8B48"/>
<defs>
<linearGradient id="paint0_linear_174_150677" x1="150.47" y1="149.384" x2="150.47" y2="115.473" gradientUnits="userSpaceOnUse">
<stop offset="2.8e-07" stop-color="#FF7561"/>
<stop offset="1" stop-color="#BE1622"/>
</linearGradient>
<linearGradient id="paint1_linear_174_150677" x1="103.695" y1="352.056" x2="103.695" y2="115.995" gradientUnits="userSpaceOnUse">
<stop offset="2.8e-07" stop-color="#FF7561"/>
<stop offset="1" stop-color="#BE1622"/>
</linearGradient>
<linearGradient id="paint2_linear_174_150677" x1="155.077" y1="342.845" x2="155.077" y2="240.848" gradientUnits="userSpaceOnUse">
<stop offset="2.8e-07" stop-color="#FF7561"/>
<stop offset="1" stop-color="#BE1622"/>
</linearGradient>
<linearGradient id="paint3_linear_174_150677" x1="157.976" y1="122.981" x2="157.976" y2="98.9404" gradientUnits="userSpaceOnUse">
<stop offset="2.8e-07" stop-color="#FF7561"/>
<stop offset="1" stop-color="#BE1622"/>
</linearGradient>
<linearGradient id="paint4_linear_174_150677" x1="91.332" y1="217.47" x2="115.228" y2="217.47" gradientUnits="userSpaceOnUse">
<stop offset="2.8e-07" stop-color="#FF7561"/>
<stop offset="1" stop-color="#BE1622"/>
</linearGradient>
<linearGradient id="paint5_linear_174_150677" x1="259.303" y1="352.056" x2="259.303" y2="115.995" gradientUnits="userSpaceOnUse">
<stop offset="2.8e-07" stop-color="#FF7561"/>
<stop offset="1" stop-color="#BE1622"/>
</linearGradient>
<linearGradient id="paint6_linear_174_150677" x1="182.511" y1="330.94" x2="182.511" y2="177.267" gradientUnits="userSpaceOnUse">
<stop offset="2.8e-07" stop-color="#FF7561"/>
<stop offset="1" stop-color="#BE1622"/>
</linearGradient>
<linearGradient id="paint7_linear_174_150677" x1="147.477" y1="635.923" x2="147.565" y2="427.819" gradientUnits="userSpaceOnUse">
<stop stop-color="#BE1622"/>
<stop offset="1" stop-color="#FF7561"/>
</linearGradient>
<linearGradient id="paint8_linear_174_150677" x1="181.162" y1="187.833" x2="181.162" y2="123.793" gradientUnits="userSpaceOnUse">
<stop offset="2.8e-07" stop-color="#FF7561"/>
<stop offset="1" stop-color="#BE1622"/>
</linearGradient>
<linearGradient id="paint9_linear_174_150677" x1="182.535" y1="132.429" x2="242.525" y2="132.429" gradientUnits="userSpaceOnUse">
<stop offset="2.8e-07" stop-color="#FF7561"/>
<stop offset="1" stop-color="#BE1622"/>
</linearGradient>
<linearGradient id="paint10_linear_174_150677" x1="208.152" y1="342.845" x2="208.152" y2="240.848" gradientUnits="userSpaceOnUse">
<stop offset="2.8e-07" stop-color="#FF7561"/>
<stop offset="1" stop-color="#BE1622"/>
</linearGradient>
<linearGradient id="paint11_linear_174_150677" x1="205.023" y1="122.981" x2="205.023" y2="98.9404" gradientUnits="userSpaceOnUse">
<stop offset="2.8e-07" stop-color="#FF7561"/>
<stop offset="1" stop-color="#BE1622"/>
</linearGradient>
<linearGradient id="paint12_linear_174_150677" x1="247.77" y1="217.47" x2="271.666" y2="217.47" gradientUnits="userSpaceOnUse">
<stop offset="2.8e-07" stop-color="#FF7561"/>
<stop offset="1" stop-color="#BE1622"/>
</linearGradient>
<linearGradient id="paint13_linear_174_150677" x1="215.521" y1="635.923" x2="215.609" y2="427.819" gradientUnits="userSpaceOnUse">
<stop stop-color="#BE1622"/>
<stop offset="1" stop-color="#FF7561"/>
</linearGradient>
<linearGradient id="paint14_linear_174_150677" x1="147.517" y1="440.691" x2="147.517" y2="280.455" gradientUnits="userSpaceOnUse">
<stop offset="2.77045e-07" stop-color="#FF7561"/>
<stop offset="1" stop-color="#BE1622"/>
</linearGradient>
<linearGradient id="paint15_linear_174_150677" x1="215.551" y1="440.251" x2="215.551" y2="280.213" gradientUnits="userSpaceOnUse">
<stop offset="2.77045e-07" stop-color="#FF7561"/>
<stop offset="1" stop-color="#BE1622"/>
</linearGradient>
</defs>
</svg>
