<svg width="24" height="24" viewBox="0 0 24 24" fill="none" xmlns="http://www.w3.org/2000/svg">
<g id="fi_3740526">
<path id="Vector" d="M13 16.9999C12.667 16.9999 12.354 16.8339 12.168 16.5549L10.465 13.9999H9C8.448 13.9999 8 13.5519 8 12.9999C8 12.4479 8.448 11.9999 9 11.9999H11C11.334 11.9999 11.646 12.1669 11.832 12.4449L12.876 14.0109L15.105 9.5519C15.269 9.2259 15.596 9.0139 15.961 8.9999C16.346 8.9899 16.669 9.1719 16.857 9.4839L19.566 13.9999H21C21.552 13.9999 22 14.4479 22 14.9999C22 15.5519 21.552 15.9999 21 15.9999H19C18.649 15.9999 18.323 15.8159 18.143 15.5149L16.08 12.0769L13.895 16.4479C13.735 16.7669 13.418 16.9769 13.062 16.9989C13.042 16.9999 13.021 16.9999 13 16.9999Z" fill="#6938EF"/>
<path id="Vector_2" d="M19 18C17.95 18 16.97 17.44 16.43 16.54L16.24 16.23L15.68 17.34C15.21 18.3 14.25 18.93 13.19 18.99L13 19C11.99 19 11.06 18.5 10.5 17.66L9.39 16H9C7.35 16 6 14.65 6 13C6 11.35 7.35 10 9 10H11C11.52 10 12.02 10.13 12.46 10.38L13.32 8.66001C13.81 7.68001 14.79 7.04001 15.89 7.00001C16.32 6.99001 16.74 7.06001 17.12 7.22001C14.75 3.49001 11.74 0.43001 11.53 0.22001C11.25 -0.0599902 10.75 -0.0599902 10.47 0.22001C10.12 0.57001 2 8.83001 2 14.93C2 19.93 6.04 24 11 24C14.89 24 18.22 21.49 19.47 18H19Z" fill="#6938EF"/>
</g>
</svg>
