<svg width="25" height="24" viewBox="0 0 25 24" fill="none" xmlns="http://www.w3.org/2000/svg">
<g id="fi_2739060" clip-path="url(#clip0_545_143117)">
<g id="Page-1">
<g id="039---LDL">
<path id="Shape" d="M3.30156 16.8C2.63882 16.8 2.10156 17.3373 2.10156 18C2.10156 18.221 2.28065 18.4 2.50156 18.4C2.72248 18.4 2.90156 18.221 2.90156 18C2.90156 17.7791 3.08065 17.6 3.30156 17.6C3.52248 17.6 3.70156 17.421 3.70156 17.2C3.70156 16.9791 3.52248 16.8 3.30156 16.8Z" fill="#DD54FF"/>
<path id="Shape_2" d="M7.25688 19.3522C6.80104 19.2667 6.35128 19.1515 5.91048 19.0074C6.30685 17.99 6.07396 16.8349 5.31432 16.0505C4.55469 15.2662 3.40763 14.9965 2.37808 15.3602C2.39888 13.4942 4.16608 11.4246 7.00488 9.90855C7.19288 9.50855 7.39688 9.10855 7.61288 8.71655C3.67848 10.5018 1.33208 13.2534 1.60288 15.779C0.738883 16.4366 0.333655 17.535 0.563454 18.5962C0.793254 19.6575 1.61654 20.4898 2.67522 20.7312C3.73389 20.9725 4.83659 20.5793 5.50368 19.7226C6.34009 20.0009 7.20419 20.1879 8.08088 20.2802C7.78026 19.9949 7.50459 19.6844 7.25688 19.3522ZM3.30088 20.0002C2.19631 20.0002 1.30088 19.1047 1.30088 18.0002C1.30088 16.8956 2.19631 16.0002 3.30088 16.0002C4.40545 16.0002 5.30088 16.8956 5.30088 18.0002C5.29955 19.1042 4.4049 19.9988 3.30088 20.0002Z" fill="#DD54FF"/>
<path id="Shape_3" d="M23.9896 10.5201C24.7204 9.70572 24.6578 8.45432 23.8492 7.71705C23.0407 6.97977 21.7888 7.03255 21.0452 7.83528C20.0679 7.42368 19.0375 7.15194 17.9844 7.02808C18.1684 7.32008 18.3524 7.62008 18.5364 7.92408C19.2533 8.04601 19.9544 8.24724 20.6268 8.52408C20.5455 8.74031 20.5027 8.96909 20.5004 9.20008C20.5017 10.3041 21.3964 11.1988 22.5004 11.2001C22.7842 11.1992 23.0646 11.1373 23.3224 11.0185C23.3472 11.0949 23.3728 11.1701 23.3924 11.2521C23.7484 12.8081 22.7604 14.5961 20.7604 16.1321C20.6851 16.5476 20.574 16.9558 20.4284 17.3521C23.2244 15.5121 24.6484 13.1561 24.1684 11.0721C24.1243 10.8834 24.0644 10.6988 23.9896 10.5201ZM21.3004 9.20008C21.3004 8.53733 21.8376 8.00008 22.5004 8.00008C23.1631 8.00008 23.7004 8.53733 23.7004 9.20008C23.7004 9.86282 23.1631 10.4001 22.5004 10.4001C21.8376 10.4001 21.3004 9.86282 21.3004 9.20008Z" fill="#DD54FF"/>
<path id="Shape_4" d="M12.5012 6V8C12.5012 8.22091 12.3221 8.4 12.1012 8.4H11.7012L13.3012 10.532L14.9012 8.4H14.5012C14.2803 8.4 14.1012 8.22091 14.1012 8V6H12.5012Z" fill="#DD54FF"/>
<path id="Shape_5" d="M13.0015 2.5369C11.6891 4.0401 6.5003 10.2537 6.5003 14.6717C6.46523 18.4625 9.50947 21.5643 13.3003 21.6001C17.0911 21.5643 20.1354 18.4625 20.1003 14.6717C20.1003 10.2537 14.9115 4.0401 13.5991 2.5369C13.5241 2.45006 13.415 2.40015 13.3003 2.40015C13.1856 2.40015 13.0765 2.45006 13.0015 2.5369ZM10.9003 16.8001H8.5003C8.27939 16.8001 8.1003 16.621 8.1003 16.4001V12.4001C8.1003 12.1792 8.27939 12.0001 8.5003 12.0001C8.72121 12.0001 8.9003 12.1792 8.9003 12.4001V16.0001H10.9003C11.1212 16.0001 11.3003 16.1792 11.3003 16.4001C11.3003 16.621 11.1212 16.8001 10.9003 16.8001ZM14.9003 15.2001C14.9003 16.0838 14.184 16.8001 13.3003 16.8001H12.1003C11.8794 16.8001 11.7003 16.621 11.7003 16.4001V12.4001C11.7003 12.1792 11.8794 12.0001 12.1003 12.0001H13.3003C14.184 12.0001 14.9003 12.7164 14.9003 13.6001V15.2001ZM15.7003 12.4001C15.7003 12.1792 15.8794 12.0001 16.1003 12.0001C16.3212 12.0001 16.5003 12.1792 16.5003 12.4001V16.0001H18.5003C18.7212 16.0001 18.9003 16.1792 18.9003 16.4001C18.9003 16.621 18.7212 16.8001 18.5003 16.8001H16.1003C15.8794 16.8001 15.7003 16.621 15.7003 16.4001V12.4001ZM14.9003 6.0001V7.6001C15.2033 7.6001 15.4803 7.77131 15.6158 8.04233C15.7514 8.31336 15.7221 8.63769 15.5403 8.88011L13.9403 11.0137C13.7896 11.216 13.552 11.335 13.2998 11.3346C13.0476 11.3342 12.8104 11.2144 12.6603 11.0117L11.0603 8.88171C10.8775 8.63929 10.8477 8.3143 10.9834 8.04269C11.119 7.77108 11.3967 7.59965 11.7003 7.6001V6.0001C11.7003 5.55828 12.0585 5.2001 12.5003 5.2001H14.1003C14.5421 5.2001 14.9003 5.55828 14.9003 6.0001Z" fill="#DD54FF"/>
<path id="Shape_6" d="M13.3 12.8H12.5V16H13.3C13.7418 16 14.1 15.6419 14.1 15.2V13.6C14.1 13.1582 13.7418 12.8 13.3 12.8Z" fill="#DD54FF"/>
</g>
</g>
</g>
<defs>
<clipPath id="clip0_545_143117">
<rect width="24" height="24" fill="white" transform="translate(0.5)"/>
</clipPath>
</defs>
</svg>
