<svg width="109" height="232" viewBox="0 0 109 232" fill="none" xmlns="http://www.w3.org/2000/svg">
<g filter="url(#filter0_b_99_135731)">
<ellipse cx="54.6648" cy="215.265" rx="54.3352" ry="16.1761" fill="white"/>
</g>
<path d="M74.1162 31.0182L75.422 31.3955C82.0327 33.2824 83.5839 39.4268 82.6304 47.0255C82.6626 48.2524 82.8587 49.4396 83.2186 50.587C88.0816 62.5203 85.5414 63.2383 88.414 73.3175C88.454 73.4404 88.4535 73.5222 88.4526 73.6449C89.5029 75.4515 88.9811 91.3947 88.0523 101.283C88.0918 101.488 88.0906 101.652 88.0483 101.856C87.6548 105.451 87.5759 105.042 88.017 106.272C88.4581 107.501 90.171 113.892 90.2093 114.261C90.287 114.834 90.283 115.406 90.1974 115.937C89.8576 117.734 89.5148 119.939 88.7774 120.139C88.3607 121.24 87.7013 121.971 87.291 122.172C86.3007 123.433 86.009 124.208 85.6013 124.041C85.1935 123.875 85.0335 123.383 85.1999 122.975C85.1999 122.975 85.1999 122.975 85.2002 122.935C85.3675 122.404 85.1602 122.812 84.8287 123.423C84.4147 124.156 84.0412 124.93 83.7538 125.091C82.573 124.388 83.3606 122.881 84.0638 121.741C84.4773 121.089 83.8582 121.903 83.1135 123.124C82.4515 124.224 81.7903 125.2 81.6276 125.076C80.0815 124.002 82.0669 120.786 82.3966 120.42C82.3633 119.357 82.3705 118.335 82.419 117.272C82.0968 116.575 81.8599 115.387 81.7088 113.628C81.5403 114.322 81.2903 114.974 81.0404 115.627C80.6695 116.033 81.6662 119.638 78.8858 119.619C78.8957 118.228 78.9093 116.307 78.9186 114.998C78.9261 113.935 79.2726 111.198 79.2801 110.135C79.2877 109.072 81.6788 106.308 81.8024 106.187C81.896 104.511 81.8264 102.793 81.6748 101.115C81.675 101.075 81.6756 100.993 81.7168 100.952C81.2137 96.9415 79.9751 92.8438 79.1344 90.3027C78.2938 87.7616 76.7751 82.8032 77.0862 79.2889C77.0462 79.1659 77.0065 79.0021 77.0482 78.8797C77.0152 77.7755 77.1459 76.6315 77.4806 75.5707C74.2887 70.1507 72.5331 64.0048 72.4551 57.7073C71.4425 62.1162 68.458 67.8196 68.434 71.2132C68.405 75.302 69.6085 78.5817 69.5893 81.2802C69.5777 82.9157 69.1118 85.2022 68.1908 88.2215C69.8031 91.5041 76.4377 107.334 77.4478 120.59C78.4202 133.395 78.6047 141.983 77.2343 150.724C80.2316 154.752 81.4104 167.273 79.2705 180.751C78.458 185.775 79.4437 196.699 80.3447 202.267C81.2457 207.834 75.0714 207.831 72.916 206.18C71.696 205.231 69.7534 202.396 70.6257 200.48C70.5732 196.35 69.2722 183.747 66.0652 174.688C64.3822 169.851 64.5196 162.001 64.7544 157.709C64.7153 157.464 64.6352 157.218 64.5961 156.972C64.1219 154.638 64.4134 153.904 64.4638 152.555C63.14 148.948 59.6677 142.708 58.3982 137.22C57.3272 132.551 56.3424 127.269 55.3619 121.374L54.34 121.326C53.9611 122.877 53.6635 124.469 53.4475 126.103C53.1349 129.822 53.5816 136.041 47.8603 152.887C47.8435 155.259 48.5775 155.55 48.271 158.41C48.1831 159.268 48.0547 160.085 47.8441 160.942C49.0346 166.062 50.2003 174.657 46.4245 182.399C43.9345 187.575 42.4928 194.843 43.3233 198.815C44.3733 200.662 43.8528 204.87 42.7414 205.926C40.7248 207.751 33.0055 206.511 33.9868 200.752C34.968 194.994 35.0297 186.285 33.4426 179.445C32.0135 173.383 32.5555 166.15 33.878 158.39C33.8801 158.104 33.8821 157.818 33.8844 157.491C33.8945 156.06 33.9447 154.751 34.0352 153.525C33.3615 150.495 32.4799 147.953 31.6076 138.338C31.1517 133.428 31.7531 129.344 31.6632 124.722C32.0966 109.719 34.8815 91.7882 36.256 88.2406L36.3377 88.2412C36.1452 86.5633 36.0347 84.8452 36.0057 83.1685C36.0205 81.0833 37.3198 76.5946 37.7583 72.427C38.1074 69.3219 36.3318 65.9973 35.171 62.4725C34.7308 66.8855 32.5319 71.3677 29.6849 74.9867C32.7365 88.6654 27.4194 94.6385 25.8707 105.463C26.0737 105.669 26.2358 105.875 26.3979 106.08C28.1398 108.383 28.4046 111.41 27.2746 115.082C27.8383 116.313 28.2422 117.011 28.4858 117.258C29.1769 117.835 29.7519 117.471 29.9433 119.313C29.3314 119.104 28.6381 118.854 28.0265 118.604C29.3691 119.554 29.7713 120.497 29.3155 121.353L27.5237 120.318C27.9705 120.73 28.253 121.263 28.3307 121.836C28.2858 122.409 28.1185 122.939 27.8288 123.428L26.1695 121.003L23.9905 116.899L25.2322 120.547C26.0828 121.698 26.5253 122.723 26.6013 123.542C26.6773 124.36 26.3876 124.849 25.651 124.925C24.193 122.952 23.3021 121.719 22.9779 121.308C22.13 119.789 21.4051 118.23 20.8033 116.59C20.5238 115.648 20.4582 113.357 20.6073 109.638C20.5716 108.901 20.5771 108.124 20.6641 107.389C21.364 100.933 17.9576 91.1777 19.0104 81.0854C19.1879 79.124 19.6515 77.1646 20.3597 75.3296C20.5351 73.6543 21.532 71.4534 21.4604 70.0217C20.8296 55.1744 24.3262 57.9796 24.1719 50.9047C24.0176 43.8297 23.6011 39.1244 26.324 35.709C28.4284 33.0252 33.1824 31.5051 36.0868 31.3212C36.6624 30.8755 37.3192 30.5122 37.9758 30.1897C39.9038 29.3038 41.9131 28.5002 43.9218 27.7785C46.3568 24.6063 45.9125 23.8263 45.9522 18.2247C45.9925 12.5414 60.2851 15.1778 60.268 17.5901C60.2521 19.8389 59.1119 24.9421 61.9572 27.3338" fill="url(#paint0_linear_99_135731)"/>
<path d="M84.3867 116.592L84.8116 120.112" stroke="#F29353" stroke-width="1.14" stroke-linecap="round"/>
<path d="M86.4308 116.605L86.5646 120.818L85.9855 121.754" stroke="#F29353" stroke-width="1.14" stroke-linecap="round"/>
<path d="M88.8113 115.396L88.7005 119.484L87.9109 121.277" stroke="#F29353" stroke-width="1.14" stroke-linecap="round"/>
<path d="M82.1508 114.735L81.7144 112.851L81.2536 114.402" stroke="#F29353" stroke-width="1.14" stroke-linecap="round"/>
<path d="M82.2208 104.841L81.7597 106.433" stroke="#F29353" stroke-width="1.14" stroke-linecap="round"/>
<path d="M73.1888 52.2744C73.0162 53.5408 73.4541 55.2203 74.5848 57.2319" stroke="#EE8B48" stroke-width="1.14" stroke-linecap="round"/>
<path d="M79.7585 71.4979C78.9327 72.6369 78.3104 73.9001 77.9328 75.2468" stroke="#F29353" stroke-width="1.14" stroke-linecap="round"/>
<path d="M36.9655 155.469C36.376 157.877 36.6486 159.801 37.7421 161.281C38.8356 162.76 39.3898 165.34 39.3228 169.02" stroke="#F08944" stroke-width="1.14" stroke-linecap="round"/>
<path d="M45.3494 155.283C45.9836 158.108 45.8056 160.152 44.775 161.33" stroke="#F08944" stroke-width="1.14" stroke-linecap="round"/>
<path d="M37.1362 56.3943C35.0599 55.112 34.143 51.7935 33.4891 51.7479C32.8352 51.7024 31.9214 53.6995 30.6038 54.9987" stroke="#EE8B48" stroke-width="1.14" stroke-linecap="round"/>
<path d="M34.1284 53.8381C34.1536 56.0463 33.6885 58.2101 32.8156 60.2075" stroke="#EE8B48" stroke-width="1.14" stroke-linecap="round"/>
<path d="M34.582 53.2698C36.1526 56.6747 38.9669 57.676 43.8325 57.7105C48.6981 57.745 52.3817 57.2395 52.6952 53.3981" stroke="#EE8B48" stroke-width="1.14" stroke-linecap="round"/>
<path d="M69.437 56.6238C71.5312 55.3711 72.4951 52.0659 73.1496 52.0296C73.8041 51.9934 74.6894 54.0032 75.9885 55.3209" stroke="#EE8B48" stroke-width="1.14" stroke-linecap="round"/>
<path d="M72.035 53.5358C70.4164 56.9182 67.5882 57.8795 62.7226 57.845C57.857 57.8105 54.1809 57.2529 53.9219 53.4075" stroke="#EE8B48" stroke-width="1.14" stroke-linecap="round"/>
<path d="M60.8589 26.51C61.0143 27.656 61.2927 28.762 61.6938 29.8689" stroke="#F89451" stroke-width="1.14" stroke-linecap="round"/>
<path d="M45.0323 26.8474C44.9847 27.7875 44.8145 28.7268 44.5628 29.6246" stroke="#F89451" stroke-width="1.14" stroke-linecap="round"/>
<path d="M66.1249 154.735C66.0257 157.188 66.5442 159.032 67.7215 160.226C68.8989 161.42 69.7407 163.798 70.3285 167.4" stroke="#F08944" stroke-width="1.14" stroke-linecap="round"/>
<path d="M74.4632 155.203C74.8106 158.109 74.4287 160.069 73.2761 161.165" stroke="#F08944" stroke-width="1.14" stroke-linecap="round"/>
<path fill-rule="evenodd" clip-rule="evenodd" d="M29.0792 218.18C29.5545 220.35 31.384 221.835 34.16 222.468C36.936 223.101 41.9257 222.932 43.4867 221.921C45.0477 220.91 48.0991 217.292 43.8468 211.496C45.0577 207.948 46.9574 205.303 43.7568 201.11C42.304 204.166 37.8171 202.622 34.5145 201.29C33.7397 200.998 32.0575 207.569 31.5037 210.714C29.593 214.912 28.4073 214.904 29.0792 218.18Z" fill="#C6C6C6"/>
<path fill-rule="evenodd" clip-rule="evenodd" d="M36.3194 200.486C37.5924 199.718 39.2273 199.811 40.4064 200.76C40.7317 201.008 41.2563 201.993 42.0758 201.753C43.3459 201.394 43.2325 200.085 43.6855 199.638C44.1384 199.192 45.3819 202.594 44.2144 205.775C43.047 208.957 45.4249 213.839 45.4249 213.839C45.4249 213.839 46.568 219.858 42.3143 220.032C41.0871 220.106 41.1338 219.288 37.616 219.468C35.489 219.575 35.9298 220.846 32.7487 219.678C29.5676 218.511 28.7686 215.847 29.3915 214.503C30.0558 213.076 31.2999 210.632 32.0126 208.142C32.1234 204.054 32.879 201.279 34.1979 199.816C34.2329 200.634 34.8019 201.129 35.0881 201.131C35.9873 201.178 35.9905 200.729 36.3194 200.486Z" fill="black"/>
<path fill-rule="evenodd" clip-rule="evenodd" d="M34.7368 204.563L39.8347 206.439L35.7283 208.904L40.09 210.816L35.1811 211.108L39.9418 208.648L35.6213 206.695L40.464 204.194L34.7368 204.563Z" stroke="#F7FBFF" stroke-width="1.07" stroke-linecap="round" stroke-linejoin="round"/>
<path fill-rule="evenodd" clip-rule="evenodd" d="M85.4222 218.578C84.9976 220.783 83.1879 222.283 80.4435 222.958C77.6991 223.634 72.6699 223.598 71.0823 222.606C69.4943 221.654 66.3712 218.075 70.5426 212.216C69.2591 208.691 67.3147 206.101 70.4117 201.829C71.944 204.866 76.3717 203.221 79.6529 201.813C80.432 201.491 82.2256 208.046 82.8578 211.158C84.8726 215.343 86.0586 215.311 85.4222 218.578Z" fill="#C6C6C6"/>
<path fill-rule="evenodd" clip-rule="evenodd" d="M77.8593 201.024C76.5562 200.279 74.9195 200.431 73.7677 201.404C73.4386 201.688 72.9413 202.625 72.125 202.415C70.8598 202.079 71.3194 200.692 70.8725 200.28C70.4257 199.868 68.8473 203.332 70.0516 206.489C71.2968 209.646 69.013 214.578 69.013 214.578C69.013 214.578 67.9888 220.622 72.2817 220.693C73.5083 220.702 73.4729 219.925 76.9478 220.031C79.0736 220.087 78.6555 221.393 81.8537 220.148C85.0519 218.903 85.7252 216.209 85.0803 214.896C84.3953 213.46 83.104 211.038 82.3037 208.579C82.0873 204.489 81.2893 201.703 79.9498 200.303C79.9031 201.121 79.3678 201.648 79.1225 201.647C78.2224 201.722 78.1847 201.272 77.8593 201.024Z" fill="black"/>
<path fill-rule="evenodd" clip-rule="evenodd" d="M79.507 205.083L74.4636 207.051L78.5765 209.452L74.2688 211.466L79.215 211.665L74.3662 209.259L78.6739 207.245L73.7842 204.838L79.507 205.083Z" stroke="#F7FBFF" stroke-width="1.07" stroke-linecap="round" stroke-linejoin="round"/>
<g opacity="0.42" filter="url(#filter1_f_99_135731)">
<path fill-rule="evenodd" clip-rule="evenodd" d="M46.5959 19.7424C46.7012 22.1965 47.1881 28.4969 49.7538 29.9463C52.3196 31.3956 55.3456 31.3761 56.9091 29.997C58.4727 28.6178 60.0192 23.8856 60.0934 19.1838C60.5248 15.9975 45.5548 16.6274 46.5959 19.7424Z" fill="#915D2E" fill-opacity="0.7"/>
</g>
<path fill-rule="evenodd" clip-rule="evenodd" d="M45.1592 20.5503C45.3033 23.2909 48.5485 26.9531 49.89 28.0666C51.2315 29.1801 54.7449 29.6139 56.3093 28.1121C57.8738 26.6102 59.2764 24.8619 59.6107 23.8421C59.9451 22.8222 60.9832 20.5806 61.1514 19.9276C62.2003 21.9386 66.2306 12.8897 62.7097 13.519C62.7268 11.1066 63.0138 5.22056 59.7614 2.58059C56.5089 -0.0593857 52.2598 -0.539277 47.7883 1.51441C43.3168 3.56809 42.4678 7.97814 43.4482 13.8732C44.2645 14.0834 40.3863 13.1972 41.8708 17.2149C42.8782 19.3074 42.8648 21.1883 45.1592 20.5503Z" fill="#FFD4AB"/>
<path d="M52.6309 27.8811L53.5713 27.8878" stroke="#EA833E" stroke-width="1.14" stroke-linecap="round"/>
<path d="M63.19 14.9536C61.7517 15.9656 61.0102 16.7373 61.0061 17.3097" stroke="#EA833E" stroke-width="1.14" stroke-linecap="round"/>
<path d="M62.1171 16.3364L62.1102 17.3177L60.9952 18.8636" stroke="#EA833E" stroke-width="1.14" stroke-linecap="round"/>
<path d="M42.415 15.4597C43.231 15.7108 43.8806 16.3697 44.1201 17.1892" stroke="#EA833E" stroke-width="1.14" stroke-linecap="round"/>
<path d="M43.2271 16.2021L43.4202 17.7982L44.4357 18.7459" stroke="#EA833E" stroke-width="1.14" stroke-linecap="round"/>
<path opacity="0.75" fill-rule="evenodd" clip-rule="evenodd" d="M68.1268 88.332C62.4777 92.0405 38.7856 91.4121 36.1185 88.2933C34.406 81.4831 37.1552 77.385 37.4214 71.7685C37.5469 69.1185 35.7898 66.7368 35.2477 62.7837C34.7574 60.6414 34.5175 58.8269 34.528 57.3401C37.1937 54.5196 38.5476 50.137 38.5897 44.1921C38.6506 35.5972 37.0309 33.4891 36.0686 31.2279C35.8436 30.8163 37.0078 30.1386 38.2949 29.6304C39.7794 29.0444 41.3573 28.1986 41.5676 28.5329C41.5621 29.3056 44.5819 40.4574 52.8794 40.5162C61.1768 40.575 63.7768 38.6906 66.0753 28.6291C65.9827 28.3392 67.0804 28.5899 68.9172 29.0947C70.7541 29.5994 72.1564 30.0779 71.7884 30.3064C71.216 30.5398 70.9875 32.2159 69.5485 42.8425C68.1094 53.4691 71.0671 53.5523 72.7161 55.5063C72.7522 57.1047 72.5073 58.958 71.9816 61.0661C69.2935 67.1461 68.3504 72.0218 69.1522 75.6933C70.3549 81.2005 70.5074 86.0774 68.1268 88.332Z" fill="#F7FBFF"/>
<path opacity="0.85" fill-rule="evenodd" clip-rule="evenodd" d="M53.8384 127.338L54.2383 123.455L55.2694 123.447L55.6449 127.351C63.8422 127.438 69.6151 127.003 72.9636 126.046C75.61 125.289 77.2888 123.248 78 119.923C76.249 110.022 74.6081 102.879 73.0773 98.495C71.5822 94.2132 69.2131 88.2298 68.1909 88.2225C52.9822 92.3601 38.8755 89.7332 36.256 88.2416C35.4216 88.1784 35.0464 91.0385 34.4778 93.5243C33.5954 97.3816 31.662 114.18 31.3489 120.94C31.314 125.864 38.8105 127.997 53.8384 127.338Z" fill="#001940"/>
<g filter="url(#filter2_d_99_135731)">
<path d="M80.2564 35.4128C88.5054 36.6153 93.6898 38.3556 93.6898 40.2915C93.6898 43.9201 75.475 46.8616 53.0058 46.8616C30.5366 46.8616 12.3218 43.9201 12.3218 40.2915C12.3218 38.4318 17.1062 36.7525 24.7957 35.5573" stroke="#43B02A" stroke-width="2" stroke-linecap="round"/>
</g>
<g filter="url(#filter3_d_99_135731)">
<path d="M68.2773 68.532C73.0858 69.7344 76.1079 71.4747 76.1079 73.4106C76.1079 77.0392 65.4902 79.9808 52.3926 79.9808C39.295 79.9808 28.6772 77.0392 28.6772 73.4106C28.6772 71.5509 31.4661 69.8717 35.9484 68.6764" stroke="#43B02A" stroke-width="2" stroke-linecap="round"/>
</g>
<g filter="url(#filter4_d_99_135731)">
<path d="M73.8188 103.287C79.9951 104.489 83.8769 106.23 83.8769 108.165C83.8769 111.794 70.2387 114.736 53.415 114.736C36.5914 114.736 22.9531 111.794 22.9531 108.165C22.9531 106.306 26.5354 104.627 32.2929 103.431" stroke="#43B02A" stroke-width="2" stroke-linecap="round"/>
</g>
<defs>
<filter id="filter0_b_99_135731" x="-49.6704" y="149.089" width="208.67" height="132.352" filterUnits="userSpaceOnUse" color-interpolation-filters="sRGB">
<feFlood flood-opacity="0" result="BackgroundImageFix"/>
<feGaussianBlur in="BackgroundImageFix" stdDeviation="25"/>
<feComposite in2="SourceAlpha" operator="in" result="effect1_backgroundBlur_99_135731"/>
<feBlend mode="normal" in="SourceGraphic" in2="effect1_backgroundBlur_99_135731" result="shape"/>
</filter>
<filter id="filter1_f_99_135731" x="42.5439" y="13.0793" width="21.5586" height="21.9529" filterUnits="userSpaceOnUse" color-interpolation-filters="sRGB">
<feFlood flood-opacity="0" result="BackgroundImageFix"/>
<feBlend mode="normal" in="SourceGraphic" in2="BackgroundImageFix" result="shape"/>
<feGaussianBlur stdDeviation="2" result="effect1_foregroundBlur_99_135731"/>
</filter>
<filter id="filter2_d_99_135731" x="7.32178" y="31.4126" width="91.3682" height="21.449" filterUnits="userSpaceOnUse" color-interpolation-filters="sRGB">
<feFlood flood-opacity="0" result="BackgroundImageFix"/>
<feColorMatrix in="SourceAlpha" type="matrix" values="0 0 0 0 0 0 0 0 0 0 0 0 0 0 0 0 0 0 127 0" result="hardAlpha"/>
<feOffset dy="1"/>
<feGaussianBlur stdDeviation="2"/>
<feComposite in2="hardAlpha" operator="out"/>
<feColorMatrix type="matrix" values="0 0 0 0 0.262745 0 0 0 0 0.690196 0 0 0 0 0.164706 0 0 0 0.37 0"/>
<feBlend mode="normal" in2="BackgroundImageFix" result="effect1_dropShadow_99_135731"/>
<feBlend mode="normal" in="SourceGraphic" in2="effect1_dropShadow_99_135731" result="shape"/>
</filter>
<filter id="filter3_d_99_135731" x="23.6772" y="64.5317" width="57.4307" height="21.449" filterUnits="userSpaceOnUse" color-interpolation-filters="sRGB">
<feFlood flood-opacity="0" result="BackgroundImageFix"/>
<feColorMatrix in="SourceAlpha" type="matrix" values="0 0 0 0 0 0 0 0 0 0 0 0 0 0 0 0 0 0 127 0" result="hardAlpha"/>
<feOffset dy="1"/>
<feGaussianBlur stdDeviation="2"/>
<feComposite in2="hardAlpha" operator="out"/>
<feColorMatrix type="matrix" values="0 0 0 0 0.262745 0 0 0 0 0.690196 0 0 0 0 0.164706 0 0 0 0.37 0"/>
<feBlend mode="normal" in2="BackgroundImageFix" result="effect1_dropShadow_99_135731"/>
<feBlend mode="normal" in="SourceGraphic" in2="effect1_dropShadow_99_135731" result="shape"/>
</filter>
<filter id="filter4_d_99_135731" x="17.9531" y="99.2866" width="70.9238" height="21.4492" filterUnits="userSpaceOnUse" color-interpolation-filters="sRGB">
<feFlood flood-opacity="0" result="BackgroundImageFix"/>
<feColorMatrix in="SourceAlpha" type="matrix" values="0 0 0 0 0 0 0 0 0 0 0 0 0 0 0 0 0 0 127 0" result="hardAlpha"/>
<feOffset dy="1"/>
<feGaussianBlur stdDeviation="2"/>
<feComposite in2="hardAlpha" operator="out"/>
<feColorMatrix type="matrix" values="0 0 0 0 0.262745 0 0 0 0 0.690196 0 0 0 0 0.164706 0 0 0 0.37 0"/>
<feBlend mode="normal" in2="BackgroundImageFix" result="effect1_dropShadow_99_135731"/>
<feBlend mode="normal" in="SourceGraphic" in2="effect1_dropShadow_99_135731" result="shape"/>
</filter>
<linearGradient id="paint0_linear_99_135731" x1="54.7183" y1="-14.1653" x2="63.5131" y2="258.399" gradientUnits="userSpaceOnUse">
<stop stop-color="#FFD6A7"/>
<stop offset="0.49" stop-color="#FFCFB0"/>
<stop offset="1" stop-color="#FFB783"/>
</linearGradient>
</defs>
</svg>
