<svg width="363" height="651" viewBox="0 0 363 651" fill="none" xmlns="http://www.w3.org/2000/svg">
<path d="M318.627 347.509L327.245 366.005C327.648 366.853 327.851 367.785 327.792 368.719C327.699 370.17 327.086 371.706 324.491 369.692C323.908 369.24 323.421 368.677 323.051 368.045L312.171 349.462L318.627 347.509Z" fill="#FFD4AB"/>
<path d="M326.526 371.141C325.886 371.141 325.117 370.788 324.196 370.073C323.569 369.587 323.044 368.987 322.636 368.289L311.446 349.178L318.887 346.927L327.681 365.801C328.13 366.746 328.334 367.767 328.272 368.75C328.195 369.95 327.82 370.71 327.157 371.009C326.963 371.097 326.752 371.141 326.526 371.141ZM312.895 349.746L323.466 367.802C323.813 368.393 324.256 368.901 324.785 369.311C325.671 369.999 326.392 370.298 326.762 370.131C327.061 369.996 327.261 369.47 327.311 368.689C327.364 367.869 327.19 367.012 326.81 366.211L318.367 348.091L312.895 349.746Z" fill="#EE8B48"/>
<path d="M294.422 348.193L291.168 367.625C291.024 368.55 290.666 369.437 290.088 370.182C289.191 371.341 287.811 372.289 286.788 369.207C286.558 368.514 286.471 367.782 286.52 367.056L288.196 346.269L294.422 348.193Z" fill="#FFD4AB"/>
<path d="M288.495 371.767C288.413 371.767 288.331 371.76 288.249 371.746C287.446 371.608 286.819 370.827 286.331 369.358C286.083 368.613 285.986 367.827 286.04 367.023L287.765 345.631L294.966 347.857L291.642 367.705C291.482 368.733 291.076 369.693 290.468 370.478C289.804 371.334 289.141 371.767 288.495 371.767ZM288.627 346.906L287 367.094C286.954 367.767 287.036 368.428 287.244 369.055C287.589 370.093 288.014 370.728 288.411 370.796C288.742 370.852 289.216 370.522 289.707 369.887C290.215 369.231 290.556 368.423 290.692 367.551L293.878 348.529L288.627 346.906Z" fill="#EE8B48"/>
<path d="M311.552 349.649L316.35 372.298C316.564 373.309 316.547 374.364 316.255 375.362C315.801 376.912 314.779 378.438 312.55 375.672C312.049 375.051 311.677 374.331 311.444 373.564L304.599 350.984L311.552 349.649Z" fill="#FFD4AB"/>
<path d="M314.692 377.687C313.928 377.687 313.101 377.123 312.175 375.974C311.64 375.31 311.239 374.546 310.983 373.704L303.982 350.612L311.925 349.087L316.82 372.199C317.057 373.317 317.021 374.458 316.716 375.498C316.341 376.777 315.762 377.504 314.993 377.657C314.894 377.677 314.793 377.687 314.692 377.687ZM305.214 351.356L311.904 373.424C312.124 374.148 312.467 374.802 312.924 375.37C313.962 376.658 314.549 376.763 314.805 376.712C315.183 376.637 315.534 376.109 315.793 375.226C316.053 374.339 316.083 373.361 315.879 372.398L311.179 350.211L305.214 351.356Z" fill="#EE8B48"/>
<path d="M303.171 350.82L304.659 372.156C304.734 373.166 304.579 374.192 304.163 375.127C303.516 376.579 302.32 377.936 300.514 374.962C300.108 374.294 299.841 373.547 299.715 372.77L295.714 348.485L303.171 350.82Z" fill="#FFD4AB"/>
<path d="M302.532 377.215C301.716 377.215 300.921 376.559 300.103 375.212C299.669 374.497 299.378 373.701 299.24 372.847L295.112 347.792L303.629 350.458L305.139 372.123C305.222 373.24 305.037 374.348 304.602 375.323C304.066 376.527 303.403 377.163 302.629 377.212C302.597 377.214 302.565 377.215 302.532 377.215ZM296.316 349.179L300.19 372.692C300.308 373.424 300.556 374.103 300.925 374.712C301.761 376.088 302.315 376.269 302.568 376.251C302.94 376.227 303.361 375.746 303.723 374.931C304.093 374.101 304.25 373.153 304.179 372.192L302.714 351.181L296.316 349.179Z" fill="#EE8B48"/>
<path d="M44.3728 347.509L35.7548 366.005C35.3519 366.853 35.1489 367.785 35.2085 368.719C35.3009 370.17 35.9139 371.706 38.5094 369.692C39.0923 369.24 39.579 368.677 39.9488 368.045L50.8293 349.462L44.3728 347.509Z" fill="#FFD4AB"/>
<path d="M36.4732 371.141C36.2469 371.141 36.0369 371.097 35.8418 371.009C35.1791 370.71 34.8043 369.95 34.7278 368.75C34.6652 367.767 34.8699 366.746 35.3199 365.798L44.1127 346.927L51.5532 349.178L40.3636 368.289C39.955 368.987 39.4302 369.587 38.8037 370.073C37.8827 370.788 37.1133 371.141 36.4732 371.141ZM44.6323 348.091L36.1904 366.208C35.8091 367.012 35.636 367.868 35.6882 368.689C35.738 369.47 35.9382 369.996 36.2377 370.131C36.6077 370.298 37.3279 369.999 38.2142 369.311C38.7432 368.901 39.187 368.393 39.5334 367.802L50.1049 349.746L44.6323 348.091Z" fill="#EE8B48"/>
<path d="M68.5771 348.193L71.8314 367.625C71.9758 368.55 72.3338 369.437 72.9116 370.182C73.8088 371.341 75.1885 372.289 76.2116 369.207C76.4415 368.514 76.5284 367.782 76.4792 367.056L74.8033 346.269L68.5771 348.193Z" fill="#FFD4AB"/>
<path d="M74.5046 371.767C73.8577 371.767 73.1952 371.335 72.5316 370.478C71.9237 369.693 71.5173 368.733 71.356 367.7L68.0332 347.857L75.2347 345.631L76.9589 367.017C77.0138 367.827 76.9159 368.613 76.6683 369.358C76.1806 370.827 75.5534 371.608 74.7505 371.746C74.6688 371.76 74.5868 371.767 74.5046 371.767ZM69.1214 348.529L72.3059 367.546C72.4429 368.423 72.7836 369.231 73.2919 369.887C73.7834 370.522 74.2554 370.852 74.5882 370.796C74.985 370.728 75.4102 370.093 75.7551 369.055C75.963 368.428 76.0451 367.767 75.9992 367.088L74.372 346.906L69.1214 348.529Z" fill="#EE8B48"/>
<path d="M51.4471 349.649L46.6496 372.298C46.4356 373.309 46.4521 374.364 46.7447 375.362C47.199 376.912 48.221 378.438 50.4499 375.672C50.9505 375.051 51.3228 374.331 51.5554 373.564L58.401 350.984L51.4471 349.649Z" fill="#FFD4AB"/>
<path d="M48.3072 377.687C48.2057 377.687 48.1053 377.677 48.0059 377.657C47.2377 377.504 46.658 376.777 46.283 375.498C45.9781 374.458 45.9421 373.317 46.1789 372.199L51.0743 349.087L59.0168 350.612L52.0158 373.704C51.7604 374.546 51.3596 375.31 50.8244 375.975C49.8987 377.123 49.0717 377.687 48.3072 377.687ZM51.8199 350.211L47.1203 372.398C46.9164 373.361 46.9462 374.339 47.2063 375.226C47.4651 376.109 47.8158 376.637 48.194 376.712C48.4517 376.764 49.0377 376.658 50.0754 375.37C50.5326 374.802 50.8757 374.148 51.095 373.424L57.7852 351.356L51.8199 350.211Z" fill="#EE8B48"/>
<path d="M59.8279 350.82L58.3406 372.156C58.2653 373.166 58.4203 374.192 58.8366 375.127C59.483 376.579 60.6792 377.936 62.4853 374.962C62.8909 374.294 63.1586 373.547 63.2841 372.77L67.2853 348.485L59.8279 350.82Z" fill="#FFD4AB"/>
<path d="M60.4669 377.215C60.4345 377.215 60.4022 377.214 60.3697 377.212C59.5965 377.163 58.9327 376.528 58.3966 375.323C57.9623 374.348 57.7769 373.24 57.8603 372.12L59.3704 350.458L67.8868 347.792L63.7585 372.849C63.6206 373.701 63.3304 374.497 62.8959 375.212C62.0783 376.559 61.2825 377.215 60.4669 377.215ZM60.2844 351.181L58.82 372.19C58.7482 373.153 58.9058 374.101 59.2755 374.931C59.6383 375.746 60.0593 376.227 60.4307 376.251C60.6857 376.266 61.2376 376.088 62.0736 374.712C62.443 374.103 62.6904 373.424 62.8086 372.693L66.6829 349.179L60.2844 351.181Z" fill="#EE8B48"/>
<path d="M170.993 79.0747L168.606 94.539L181.135 127.802L185.311 128.386L196.05 90.4542L191.575 72.9473L170.993 79.0747Z" fill="#FFD4AB"/>
<path d="M134.603 115.856L120.525 148.514C120.496 148.581 120.479 148.653 120.475 148.726C120.452 149.188 120.931 149.514 121.366 149.333L179.802 124.928C180.012 124.841 180.158 124.651 180.186 124.43L180.46 122.287C180.503 121.947 180.26 121.637 179.913 121.589L135.282 115.479C134.995 115.44 134.716 115.594 134.603 115.856Z" fill="#FFD4AB"/>
<path d="M121.113 149.866C120.884 149.866 120.658 149.796 120.463 149.659C120.15 149.439 119.975 149.081 119.995 148.701C120.001 148.571 120.031 148.444 120.083 148.323L134.161 115.665C134.36 115.206 134.846 114.932 135.347 115.002L179.978 121.112C180.584 121.195 181.013 121.749 180.937 122.348L180.663 124.491C180.613 124.882 180.354 125.22 179.987 125.373L121.551 149.778C121.409 149.837 121.261 149.866 121.113 149.866ZM135.045 116.047L120.966 148.705C120.96 148.719 120.957 148.735 120.956 148.751C120.953 148.812 120.987 148.85 121.017 148.871C121.04 148.887 121.102 148.921 121.181 148.888L179.617 124.483C179.667 124.462 179.702 124.419 179.708 124.369L179.982 122.226C179.992 122.148 179.933 122.078 179.848 122.066L135.217 115.957C135.142 115.946 135.072 115.984 135.045 116.047V116.047Z" fill="#EE8B48"/>
<path d="M123.563 146.914L180.936 122.906C181.339 122.729 181.266 123.187 181.267 123.62L181.311 332.212H177.943C173.952 332.212 170.464 329.577 169.457 325.8L150.88 256.144L132.284 240.848L131.438 221.004L122.468 188.3C122.373 187.951 121.87 187.941 121.759 188.285L109.883 225.138L109.313 234.069C109.131 236.918 108.507 239.723 107.464 242.389L82.7032 305.65C81.3892 309.007 80.6063 312.54 80.3817 316.129L79.6267 328.191C79.5111 330.039 79.1804 331.868 78.641 333.643L74.8035 346.269L54.9391 352.057L44.3729 347.509L44.756 335.516C44.7694 335.098 44.2453 334.889 43.9565 335.197C41.2362 338.099 32.4999 346.859 26.666 346.264C26.2208 346.219 25.9608 345.755 26.1384 345.353C27.8679 341.438 39.1602 328.63 39.1602 328.63C39.1602 328.63 42.2331 322.493 55.7022 316.906C57.0036 316.366 57.9722 315.26 58.3206 313.92L59.8699 307.959L71.8291 236.642C72.1182 234.918 72.7757 233.272 73.7587 231.813L82.9662 218.149C86.9673 212.211 89.1728 205.31 89.4902 198.205C89.714 193.195 91.2692 186.053 96.3585 176.975C94.4566 155.271 85.581 115.789 134.397 115.996L137.567 127.985L120.027 150.31" fill="#FFD4AB"/>
<path d="M54.9077 352.567L43.8814 347.822L44.2734 335.551C40.9281 339.129 32.5188 347.342 26.6172 346.743C26.2522 346.706 25.9378 346.503 25.7543 346.187C25.5727 345.874 25.5518 345.489 25.6983 345.158C27.4042 341.296 37.9179 329.312 38.7608 328.354C39.132 327.665 42.582 321.827 55.5179 316.461C56.6725 315.981 57.5461 314.986 57.8548 313.798L59.3988 307.858L71.3544 236.562C71.6569 234.758 72.3316 233.07 73.3597 231.544L82.5673 217.879C86.4646 212.095 88.6922 205.284 89.0095 198.183C89.3005 191.671 91.6074 184.5 95.8661 176.869C95.7038 175.039 95.4938 173.092 95.2718 171.033C93.7715 157.113 91.7167 138.049 102.23 126.376C108.778 119.106 119.594 115.452 134.399 115.514L134.767 115.516L138.093 128.094L123.793 146.296L180.75 122.462C181.071 122.321 181.303 122.399 181.439 122.49C181.766 122.709 181.758 123.105 181.75 123.454C181.749 123.508 181.748 123.564 181.748 123.619L181.792 332.694H177.942C173.736 332.694 170.055 329.91 168.992 325.924L150.455 256.418L131.812 241.083L130.96 221.079L122.103 188.788L110.36 225.229L109.793 234.1C109.607 237.002 108.974 239.85 107.912 242.565L83.151 305.826C81.8537 309.14 81.0835 312.617 80.8619 316.159L80.1068 328.222C79.989 330.104 79.6506 331.976 79.1011 333.783L75.1878 346.659L54.9077 352.567ZM44.8643 347.196L54.9704 351.546L74.4189 345.879L78.1806 333.502C78.7083 331.766 79.0333 329.969 79.1464 328.161L79.9016 316.098C80.1295 312.456 80.9214 308.881 82.2552 305.474L107.016 242.213C108.042 239.591 108.653 236.84 108.832 234.038L109.407 225.047L121.301 188.137C121.417 187.778 121.746 187.535 122.131 187.551C122.51 187.559 122.832 187.809 122.932 188.172L131.917 220.928L132.755 240.612L151.305 255.87L169.922 325.675C170.873 329.24 174.171 331.731 177.943 331.731H180.829L180.786 123.62C180.786 123.577 180.786 123.534 180.787 123.49L123.749 147.358L123.474 146.7L120.405 150.607L119.648 150.011L137.04 127.876L134.026 116.477C134.025 116.477 134.026 116.477 134.025 116.477C119.702 116.477 109.247 120.023 102.945 127.021C92.7197 138.373 94.6653 156.425 96.2286 170.929C96.457 173.048 96.6728 175.05 96.8378 176.932L96.8507 177.081L96.778 177.21C92.5469 184.757 90.2567 191.828 89.9709 198.226C89.6457 205.504 87.3615 212.486 83.365 218.417L74.1575 232.082C73.2069 233.493 72.5832 235.054 72.3035 236.721L60.3409 308.059L58.7862 314.041C58.4019 315.519 57.3179 316.756 55.8863 317.35C42.7884 322.784 39.6201 328.786 39.5897 328.846L39.5208 328.948C39.4084 329.076 28.2582 341.745 26.5783 345.547C26.5474 345.617 26.5702 345.675 26.5866 345.703C26.6058 345.736 26.6437 345.777 26.7149 345.785C32.3562 346.361 41.0687 337.573 43.6054 334.867C43.8772 334.577 44.2911 334.488 44.6593 334.641C45.0226 334.792 45.2493 335.141 45.2368 335.531L44.8643 347.196Z" fill="#EE8B48"/>
<path d="M181.731 328.401V342.844L175.791 342.791C175.791 342.791 129.3 280.365 128.454 279.538C128.032 263.415 132.283 240.847 132.283 240.847L151.471 256.285L176.361 328.45L181.731 328.401Z" fill="#FFD4AB"/>
<path d="M182.212 343.33L175.548 343.271L175.405 343.079C159.432 321.631 128.99 280.818 128.112 279.877L127.988 279.743L127.974 279.551C127.555 263.562 131.768 240.985 131.811 240.758L131.959 239.969L151.881 255.997L151.926 256.128L176.704 327.965L182.212 327.915V343.33H182.212ZM176.034 342.312L181.25 342.358V328.887L176.02 328.935L151.062 256.574L132.612 241.73C131.876 245.856 128.589 265.18 128.931 279.36C131.69 282.78 170.777 335.252 176.034 342.312Z" fill="#EE8B48"/>
<path d="M180.722 122.981C153.904 122.472 134.894 115.477 134.894 115.477L163.211 98.9407L180.993 122.468C181.155 122.682 180.994 122.987 180.722 122.981Z" fill="#FFD4AB"/>
<path d="M180.729 123.463C180.723 123.463 180.718 123.463 180.713 123.463C154.122 122.958 134.918 116 134.728 115.93L133.769 115.577L163.337 98.3096L181.377 122.177C181.563 122.423 181.592 122.746 181.452 123.021C181.313 123.295 181.037 123.463 180.729 123.463ZM180.73 122.5C180.732 122.5 180.729 122.5 180.731 122.5H180.731C180.731 122.5 180.731 122.5 180.73 122.5ZM136.045 115.363C140.254 116.758 157.548 122.013 180.409 122.494L163.085 99.5723L136.045 115.363Z" fill="#EE8B48"/>
<path d="M80.1129 317.065C80.0864 317.065 80.0596 317.063 80.0326 317.059L58.7258 313.479C58.4638 313.435 58.2869 313.186 58.3309 312.924C58.3749 312.662 58.6227 312.484 58.8851 312.529L80.1919 316.109C80.4539 316.153 80.6308 316.401 80.5868 316.663C80.5473 316.899 80.3436 317.065 80.1129 317.065Z" fill="#EE8B48"/>
<path d="M62.9442 313.92C62.8899 313.92 62.8347 313.911 62.7808 313.892C62.5309 313.801 62.4014 313.525 62.4916 313.275L90.7607 234.86L85.721 213.087C85.6611 212.828 85.8223 212.569 86.0812 212.509C86.3399 212.449 86.5985 212.611 86.6586 212.87L91.7624 234.919L63.3968 313.602C63.326 313.798 63.1412 313.92 62.9442 313.92Z" fill="#EE8B48"/>
<path d="M91.3802 235.108C91.2862 235.108 91.1912 235.08 91.1078 235.023C90.8889 234.872 90.8336 234.572 90.9842 234.353L114.887 199.578L119.794 151.171L96.7728 177.331C96.5969 177.531 96.2931 177.55 96.0936 177.374C95.8942 177.198 95.875 176.894 96.0506 176.694L121.055 148.281L115.819 199.921L115.749 200.022L91.7769 234.899C91.6837 235.035 91.5333 235.108 91.3802 235.108Z" fill="#EE8B48"/>
<path d="M115.22 200.073L105.499 227.359L91.4762 235.024C91.3879 235.072 91.2929 234.972 91.3487 234.889L114.99 199.961C115.074 199.837 115.27 199.933 115.22 200.073Z" fill="#FFD4AB"/>
<path d="M91.4291 235.518C91.2703 235.518 91.114 235.453 91.001 235.328C90.8224 235.131 90.8017 234.84 90.9507 234.619L114.592 199.691C114.769 199.431 115.099 199.348 115.377 199.49C115.653 199.631 115.777 199.944 115.674 200.235V200.235L105.891 227.694L91.7072 235.447C91.6194 235.495 91.5237 235.518 91.4291 235.518ZM113.837 202.523L92.642 233.838L105.108 227.024L113.837 202.523Z" fill="#EE8B48"/>
<path d="M68.2789 314.829C68.2157 314.829 68.1515 314.816 68.0897 314.79C67.8454 314.685 67.7322 314.402 67.8368 314.157L105.057 227.169C105.162 226.925 105.444 226.811 105.689 226.916C105.933 227.021 106.046 227.304 105.942 227.549L68.7215 314.537C68.6432 314.719 68.4656 314.829 68.2789 314.829Z" fill="#EE8B48"/>
<path d="M74.145 315.704C74.0756 315.704 74.0052 315.689 73.9384 315.657C73.6985 315.543 73.5966 315.255 73.711 315.015L100.359 259.042C100.473 258.802 100.761 258.699 101 258.814C101.24 258.929 101.342 259.216 101.227 259.456L74.5797 315.429C74.4972 315.603 74.3248 315.704 74.145 315.704Z" fill="#EE8B48"/>
<path d="M181.767 258.132L151.669 256.777C151.478 256.768 151.298 256.68 151.175 256.536C151.053 256.394 150.996 256.206 151.016 256.02C152.032 246.872 153.059 236.675 152.957 235.514L152.95 235.497C151.091 231.254 151.665 225.682 151.974 222.688C152.068 221.772 152.166 220.824 152.105 220.613L152.075 220.521C150.56 213.484 150.394 201.386 150.376 198.945C133.838 197.095 125.465 176.432 123.944 172.277C123.815 171.924 123.744 171.557 123.732 171.185L122.893 145.747L123.321 145.654C123.566 145.61 123.808 145.758 123.885 145.994L134.875 179.836C135.068 180.431 135.524 180.899 136.126 181.118L156.314 188.475L181.338 175.393L181.767 233.646V258.132ZM152.006 255.828L180.804 257.124V233.649L180.387 176.977L156.696 189.363L151.336 198.638C151.342 200.066 151.44 212.948 153.006 220.273C153.144 220.63 153.09 221.245 152.931 222.787C152.613 225.878 152.081 231.039 153.801 235.039C153.986 235.34 154.106 236.888 152.006 255.828ZM123.976 149.39L124.693 171.153C124.702 171.423 124.754 171.689 124.848 171.945C126.338 176.016 134.546 196.294 150.594 197.999L155.645 189.257L135.797 182.024C134.915 181.702 134.245 181.014 133.96 180.134L123.976 149.39Z" fill="#EE8B48"/>
<path d="M151.007 208.815C150.955 208.815 150.903 208.807 150.851 208.789L135.395 203.502C134.515 203.201 133.819 202.501 133.534 201.63L123.771 171.787C123.688 171.534 123.826 171.262 124.079 171.179C124.331 171.096 124.603 171.234 124.686 171.487L134.449 201.33C134.64 201.916 135.11 202.387 135.706 202.59L151.162 207.877C151.414 207.963 151.548 208.237 151.462 208.489C151.394 208.689 151.207 208.815 151.007 208.815Z" fill="#EE8B48"/>
<path d="M152.167 223.028L134.905 215.791C134.345 215.557 133.877 215.166 133.551 214.661L126.109 203.116C125.965 202.892 126.029 202.594 126.253 202.45C126.476 202.306 126.774 202.37 126.918 202.593L134.36 214.138C134.579 214.479 134.896 214.743 135.276 214.902L152.08 221.947L180.781 204.034C181.006 203.894 181.303 203.962 181.444 204.188C181.584 204.414 181.515 204.711 181.29 204.852L152.167 223.028Z" fill="#EE8B48"/>
<path d="M153.391 235.785C153.323 235.785 153.255 235.771 153.189 235.74L131.714 225.791C131.473 225.679 131.368 225.393 131.479 225.152C131.591 224.91 131.877 224.805 132.118 224.917L153.593 234.866C153.834 234.978 153.939 235.264 153.828 235.505C153.747 235.681 153.573 235.785 153.391 235.785Z" fill="#EE8B48"/>
<path d="M181.282 233.172L153.386 234.821L153.443 235.782L181.339 234.134L181.282 233.172Z" fill="#EE8B48"/>
<path d="M128.455 279.539C128.455 279.539 108.59 332.456 119.579 391.574L127.959 430.92C128.007 431.145 128.014 431.375 127.98 431.602C127.556 434.446 124.703 454.451 126.458 466.66C126.629 467.856 126.524 469.072 126.158 470.225C123.678 478.05 115.336 511.47 135.217 559.008C137.075 569.184 138.932 585.749 139.355 589.607C139.41 590.111 139.297 590.616 139.03 591.051C137.804 593.05 134.59 599.53 139.866 605.724C127.609 626.808 122.538 627.221 129.3 633.836C136.461 635.393 149.24 639.147 160.234 629.927C161.582 628.796 162.416 627.189 162.578 625.46C163.379 616.887 162.689 604.07 162.689 604.07C162.689 604.07 166.493 600.763 159.308 585.053C152.123 569.343 159.731 549.499 159.731 549.499C159.731 549.499 171.987 515.599 159.731 480.872C160.153 474.258 166.916 454 165.648 437.877C165.648 439.117 183.399 361.808 177.482 344.858C178.75 345.685 128.455 279.539 128.455 279.539Z" fill="#FFD4AB"/>
<path d="M157.735 556.585C157.517 556.585 157.32 556.437 157.267 556.216L156.883 554.614C154.757 545.743 152.559 536.569 151.049 527.625C149.491 518.395 148.153 508.587 150.341 499.06C151.636 493.419 154.173 489.055 156.86 484.436C157.637 483.099 158.441 481.716 159.236 480.268C159.364 480.034 159.656 479.95 159.889 480.078C160.122 480.206 160.207 480.499 160.079 480.732C159.279 482.19 158.472 483.578 157.691 484.92C155.043 489.475 152.542 493.778 151.279 499.276C149.13 508.631 150.456 518.331 151.998 527.464C153.502 536.376 155.697 545.534 157.819 554.39L158.203 555.991C158.265 556.25 158.106 556.51 157.847 556.572C157.81 556.581 157.772 556.585 157.735 556.585Z" fill="#EE8B48"/>
<path d="M162.65 604.452C162.397 604.452 162.185 604.255 162.17 603.999C161.93 599.88 159.897 596.053 157.931 592.352C157.416 591.381 156.882 590.377 156.389 589.383C152.119 580.77 150.167 571.382 148.23 560.887C143.178 533.52 138.886 505.303 134.735 478.016L133.594 470.522C133.554 470.259 133.735 470.013 133.998 469.973C134.26 469.934 134.506 470.114 134.546 470.377L135.686 477.871C139.836 505.151 144.127 533.36 149.176 560.712C151.1 571.134 153.036 580.453 157.251 588.955C157.738 589.937 158.268 590.935 158.781 591.9C160.795 595.692 162.878 599.614 163.131 603.942C163.146 604.208 162.944 604.436 162.679 604.451C162.669 604.452 162.659 604.452 162.65 604.452Z" fill="#EE8B48"/>
<path d="M151.769 594.063C151.559 594.063 151.366 593.924 151.306 593.712C148.467 583.66 145.652 573.632 142.93 563.933C140.21 554.241 137.397 544.22 134.561 534.176C133.968 532.077 133.364 529.981 132.761 527.888C127.763 510.541 122.595 492.604 124.576 474.24C124.605 473.975 124.842 473.783 125.106 473.813C125.371 473.841 125.562 474.079 125.533 474.343C123.572 492.519 128.713 510.364 133.686 527.621C134.289 529.716 134.894 531.813 135.487 533.914C138.323 543.958 141.136 553.98 143.857 563.672C146.579 573.371 149.394 583.399 152.232 593.45C152.304 593.706 152.156 593.972 151.9 594.045C151.856 594.057 151.812 594.063 151.769 594.063Z" fill="#EE8B48"/>
<path d="M163.369 534.54C163.314 534.54 163.258 534.53 163.203 534.51C155.386 531.626 150.085 523.988 149.367 514.577C149.346 514.312 149.545 514.081 149.81 514.06C150.075 514.04 150.306 514.239 150.326 514.504C151.015 523.534 156.077 530.854 163.536 533.606C163.785 533.698 163.913 533.974 163.821 534.224C163.749 534.419 163.565 534.54 163.369 534.54Z" fill="#EE8B48"/>
<path d="M139.772 605.993C139.761 605.993 139.751 605.993 139.74 605.992C139.475 605.975 139.274 605.746 139.291 605.481C139.428 603.351 140.972 601.341 142.542 599.465C145.261 596.217 148.307 593.237 152.182 593.462C154.316 593.584 156.165 594.705 157.539 595.667C161.6 598.513 163.469 601.153 163.253 603.736C163.231 604.001 163 604.201 162.733 604.176C162.468 604.154 162.272 603.921 162.294 603.656C162.479 601.444 160.743 599.089 156.987 596.457C155.718 595.567 154.019 594.532 152.127 594.424C148.677 594.223 145.837 597.028 143.28 600.084C141.812 601.837 140.37 603.703 140.251 605.542C140.235 605.797 140.023 605.993 139.772 605.993Z" fill="#EE8B48"/>
<path d="M171.565 85.6464L181.13 122.309C181.21 122.617 180.964 122.915 180.639 122.901L176.76 122.744L163.112 98.8758L162.689 74.8977L171.565 85.6464Z" fill="#FFD4AB"/>
<path d="M180.658 123.384C180.645 123.384 180.632 123.383 180.619 123.383L176.474 123.215L162.633 99.0079L162.184 73.5295L172.003 85.4216L181.595 122.187C181.671 122.481 181.606 122.785 181.415 123.023C181.232 123.25 180.951 123.384 180.658 123.384ZM177.045 122.274L180.658 122.42L171.126 85.8714L163.195 76.2656L163.591 98.7438L177.045 122.274Z" fill="#EE8B48"/>
<path d="M228.397 115.856L242.475 148.514C242.504 148.581 242.521 148.653 242.525 148.726C242.548 149.188 242.069 149.514 241.634 149.333L183.198 124.928C182.988 124.841 182.842 124.651 182.814 124.43L182.54 122.287C182.497 121.947 182.74 121.637 183.087 121.589L227.718 115.479C228.005 115.44 228.284 115.594 228.397 115.856Z" fill="#FFD4AB"/>
<path d="M241.886 149.866C241.739 149.866 241.59 149.837 241.448 149.778L183.012 125.373C182.645 125.22 182.386 124.882 182.336 124.491L182.063 122.348C181.986 121.749 182.416 121.195 183.021 121.112L227.653 115.002C228.152 114.932 228.64 115.206 228.838 115.665L242.916 148.323C242.969 148.444 242.998 148.571 243.005 148.701C243.024 149.081 242.849 149.439 242.536 149.659C242.342 149.796 242.115 149.866 241.886 149.866ZM227.806 115.955C227.799 115.955 227.791 115.956 227.783 115.957L183.151 122.066C183.066 122.078 183.007 122.148 183.017 122.226L183.291 124.369C183.297 124.419 183.332 124.462 183.383 124.483L241.819 148.888C241.898 148.921 241.959 148.887 241.982 148.871C242.012 148.85 242.047 148.812 242.044 148.751C242.043 148.735 242.039 148.719 242.033 148.704L227.954 116.047C227.93 115.991 227.87 115.955 227.806 115.955Z" fill="#EE8B48"/>
<path d="M239.436 146.914L182.063 122.906C181.661 122.729 181.733 123.187 181.732 123.62L181.688 332.212H185.057C189.047 332.212 192.535 329.577 193.542 325.8L212.119 256.144L230.716 240.848L231.561 221.004L240.531 188.3C240.627 187.951 241.129 187.941 241.24 188.285L253.116 225.138L253.687 234.069C253.869 236.918 254.492 239.723 255.535 242.389L280.296 305.65C281.61 309.007 282.393 312.54 282.617 316.129L283.373 328.191C283.488 330.039 283.819 331.868 284.358 333.643L288.196 346.269L308.06 352.057L318.626 347.509L318.243 335.516C318.23 335.098 318.754 334.889 319.043 335.197C321.763 338.099 330.499 346.859 336.333 346.264C336.778 346.219 337.038 345.755 336.861 345.353C335.131 341.438 323.839 328.63 323.839 328.63C323.839 328.63 320.766 322.493 307.297 316.906C305.996 316.366 305.027 315.26 304.679 313.92L303.129 307.959L291.17 236.642C290.881 234.918 290.223 233.272 289.24 231.813L280.033 218.149C276.032 212.211 273.826 205.31 273.509 198.205C273.285 193.195 271.73 186.053 266.641 176.975C268.542 155.271 277.418 115.789 228.602 115.996L225.432 127.985L242.972 150.31" fill="#FFD4AB"/>
<path d="M308.092 352.567L287.811 346.658L283.898 333.783C283.348 331.975 283.01 330.104 282.892 328.222L282.137 316.159C281.915 312.616 281.145 309.14 279.848 305.825L255.087 242.564C254.025 239.85 253.392 237.002 253.206 234.1L252.639 225.228L240.896 188.788L232.039 221.078L231.187 241.083L212.544 256.418L194.007 325.924C192.944 329.91 189.263 332.694 185.057 332.694H181.207L181.207 332.212L181.251 123.619C181.251 123.563 181.25 123.508 181.249 123.454C181.241 123.104 181.233 122.708 181.56 122.49C181.696 122.398 181.928 122.321 182.257 122.465L239.206 146.295L224.906 128.094L228.231 115.516L228.6 115.514C243.391 115.446 254.221 119.106 260.769 126.376C271.282 138.048 269.228 157.112 267.727 171.032C267.505 173.091 267.295 175.039 267.133 176.869C271.391 184.499 273.698 191.67 273.99 198.183C274.307 205.284 276.534 212.095 280.432 217.879L289.639 231.544C290.667 233.07 291.342 234.758 291.644 236.562L303.6 307.858L305.144 313.798C305.453 314.986 306.327 315.981 307.481 316.46C320.418 321.827 323.867 327.665 324.238 328.354C325.081 329.312 335.595 341.296 337.301 345.157C337.447 345.489 337.426 345.874 337.245 346.187C337.061 346.503 336.747 346.706 336.382 346.743C336.175 346.764 335.964 346.774 335.752 346.774C329.906 346.775 321.98 339.029 318.726 335.563L319.117 347.821L308.092 352.567ZM288.58 345.879L308.029 351.546L318.135 347.196L317.762 335.531C317.75 335.141 317.977 334.792 318.34 334.641C318.708 334.489 319.122 334.577 319.394 334.867C321.93 337.574 330.643 346.364 336.284 345.785C336.355 345.777 336.393 345.736 336.413 345.703C336.429 345.675 336.452 345.617 336.421 345.547C334.741 341.745 323.591 329.076 323.478 328.948L323.409 328.845C323.379 328.787 320.211 322.784 307.113 317.351C305.681 316.757 304.597 315.519 304.213 314.041L302.655 308.038L290.696 236.721C290.416 235.054 289.792 233.494 288.842 232.083L279.634 218.418C275.638 212.486 273.353 205.504 273.028 198.226C272.742 191.828 270.452 184.757 266.221 177.211L266.148 177.081L266.161 176.933C266.326 175.05 266.542 173.048 266.771 170.929C268.334 156.425 270.279 138.374 260.054 127.021C253.752 120.024 243.296 116.477 228.974 116.477C228.973 116.477 228.974 116.477 228.973 116.477L225.959 127.876L243.351 150.012L242.594 150.607L239.525 146.701L239.25 147.358L182.212 123.491C182.213 123.534 182.213 123.577 182.213 123.62L182.17 331.731H185.056C188.828 331.731 192.126 329.241 193.077 325.675L211.694 255.87L211.813 255.772L230.244 240.612L231.082 220.929L240.067 188.173C240.166 187.809 240.489 187.559 240.869 187.551C241.248 187.544 241.582 187.778 241.698 188.137L253.592 225.047L254.167 234.038C254.346 236.841 254.957 239.591 255.983 242.213L280.744 305.474C282.078 308.882 282.87 312.456 283.098 316.098L283.853 328.161C283.966 329.969 284.291 331.766 284.818 333.503L288.58 345.879Z" fill="#EE8B48"/>
<path d="M181.731 328.401V342.844L187.208 342.791C187.208 342.791 233.7 280.365 234.545 279.538C234.967 263.415 230.716 240.847 230.716 240.847L211.528 256.285L186.902 328.255L181.731 328.401Z" fill="#FFD4AB"/>
<path d="M181.25 343.331V327.933L186.555 327.783L211.118 255.997L231.04 239.969L231.189 240.758C231.231 240.984 235.445 263.561 235.025 279.551L235.02 279.746L234.881 279.883C234.009 280.818 203.567 321.63 187.594 343.079L187.451 343.27L181.25 343.331ZM182.212 328.869V342.358L186.965 342.312C192.222 335.252 231.309 282.78 234.068 279.36C234.41 265.18 231.123 245.856 230.387 241.73L211.938 256.574L187.249 328.727L182.212 328.869Z" fill="#EE8B48"/>
<path d="M182.277 122.981C209.094 122.472 228.105 115.477 228.105 115.477L199.788 98.9407L182.005 122.468C181.843 122.682 182.004 122.987 182.277 122.981Z" fill="#FFD4AB"/>
<path d="M182.27 123.463C181.962 123.463 181.686 123.295 181.547 123.021C181.407 122.747 181.436 122.423 181.621 122.178L199.661 98.3096L229.23 115.577L228.271 115.93C228.08 116 208.874 122.957 182.286 123.463C182.281 123.463 182.275 123.463 182.27 123.463ZM182.268 122.5C182.268 122.5 182.268 122.5 182.267 122.5H182.268ZM199.914 99.5723L182.589 122.494C205.451 122.013 222.745 116.758 226.954 115.363L199.914 99.5723Z" fill="#EE8B48"/>
<path d="M282.887 317.065C282.656 317.065 282.452 316.899 282.413 316.663C282.369 316.401 282.546 316.153 282.808 316.109L304.115 312.529C304.377 312.485 304.625 312.662 304.669 312.924C304.713 313.186 304.536 313.435 304.274 313.479L282.967 317.059C282.94 317.063 282.913 317.065 282.887 317.065Z" fill="#EE8B48"/>
<path d="M300.056 313.92C299.859 313.92 299.674 313.798 299.603 313.602L271.237 234.919L276.341 212.87C276.401 212.611 276.659 212.449 276.918 212.509C277.177 212.569 277.339 212.828 277.279 213.087L272.239 234.86L300.508 313.275C300.598 313.525 300.469 313.801 300.219 313.892C300.165 313.911 300.11 313.92 300.056 313.92Z" fill="#EE8B48"/>
<path d="M271.619 235.108C271.466 235.108 271.315 235.035 271.222 234.899L247.18 199.921L247.167 199.798L241.944 148.281L266.948 176.694C267.124 176.894 267.105 177.198 266.906 177.374C266.706 177.55 266.402 177.531 266.226 177.331L243.205 151.171L248.113 199.578L272.015 234.353C272.166 234.572 272.11 234.872 271.891 235.023C271.808 235.08 271.713 235.108 271.619 235.108Z" fill="#EE8B48"/>
<path d="M247.78 200.073L257.501 227.359L271.524 235.024C271.612 235.072 271.707 234.972 271.651 234.889L248.01 199.961C247.925 199.837 247.729 199.933 247.78 200.073Z" fill="#FFD4AB"/>
<path d="M271.571 235.518C271.477 235.518 271.381 235.495 271.293 235.447L257.109 227.694L247.326 200.235C247.223 199.944 247.347 199.631 247.623 199.49C247.901 199.348 248.231 199.431 248.407 199.688L272.049 234.619C272.199 234.839 272.178 235.131 271.999 235.328C271.886 235.453 271.73 235.518 271.571 235.518ZM257.892 227.024L270.358 233.838L249.163 202.523L257.892 227.024ZM248.233 199.911V199.912C248.233 199.912 248.233 199.912 248.233 199.911Z" fill="#EE8B48"/>
<path d="M294.72 314.829C294.533 314.829 294.356 314.719 294.278 314.536L257.058 227.548C256.953 227.304 257.066 227.021 257.31 226.916C257.554 226.811 257.837 226.925 257.942 227.169L295.162 314.157C295.267 314.402 295.154 314.685 294.909 314.79C294.848 314.816 294.783 314.829 294.72 314.829Z" fill="#EE8B48"/>
<path d="M288.854 315.704C288.674 315.704 288.502 315.603 288.42 315.429L261.772 259.456C261.657 259.216 261.759 258.929 261.999 258.814C262.239 258.699 262.526 258.801 262.64 259.042L289.288 315.015C289.403 315.255 289.301 315.543 289.061 315.657C288.994 315.689 288.924 315.704 288.854 315.704Z" fill="#EE8B48"/>
<path d="M181.232 258.132V233.649L181.661 175.393L206.684 188.475L226.873 181.118C227.475 180.899 227.931 180.432 228.124 179.836L239.243 145.598L239.676 145.654C239.921 145.696 240.1 145.915 240.092 146.164L239.267 171.185C239.255 171.557 239.183 171.925 239.054 172.277C237.533 176.432 229.161 197.095 212.623 198.945C212.605 201.386 212.438 213.485 210.924 220.522L210.882 220.64C210.833 220.824 210.931 221.772 211.025 222.688C211.334 225.682 211.908 231.254 210.049 235.497L210.041 235.514C209.94 236.677 210.967 246.873 211.983 256.02C212.003 256.206 211.945 256.394 211.824 256.536C211.701 256.681 211.521 256.768 211.33 256.777L181.232 258.132ZM182.612 176.977L182.195 233.653V257.124L210.993 255.828C210.83 254.353 210.31 249.613 209.852 245.066C208.937 235.961 209.016 235.274 209.202 235.03C210.918 231.032 210.386 225.876 210.068 222.787C209.909 221.245 209.855 220.63 209.993 220.273C211.558 212.948 211.656 200.066 211.662 198.638L206.303 189.363L182.612 176.977ZM207.354 189.257L212.405 197.999C228.453 196.294 236.661 176.016 238.151 171.945C238.245 171.689 238.297 171.423 238.306 171.153L239.023 149.39L229.039 180.134C228.754 181.014 228.084 181.703 227.203 182.024L207.354 189.257ZM240.03 146.29L240.029 146.293C240.029 146.292 240.029 146.291 240.03 146.29Z" fill="#EE8B48"/>
<path d="M211.993 208.815C211.793 208.815 211.606 208.689 211.538 208.489C211.452 208.237 211.586 207.963 211.837 207.877L227.294 202.59C227.889 202.387 228.359 201.915 228.551 201.33L238.314 171.487C238.397 171.234 238.668 171.097 238.921 171.179C239.174 171.262 239.311 171.534 239.228 171.787L229.465 201.63C229.18 202.501 228.485 203.201 227.605 203.502L212.149 208.789C212.097 208.807 212.045 208.815 211.993 208.815Z" fill="#EE8B48"/>
<path d="M210.833 223.028L210.622 222.896L181.71 204.852C181.485 204.711 181.416 204.414 181.556 204.188C181.697 203.963 181.994 203.894 182.219 204.034L210.92 221.947L227.724 214.903C228.104 214.743 228.421 214.479 228.64 214.138L236.082 202.593C236.227 202.37 236.524 202.305 236.748 202.45C236.971 202.594 237.035 202.892 236.891 203.116L229.449 214.661C229.124 215.166 228.655 215.557 228.096 215.791L210.833 223.028Z" fill="#EE8B48"/>
<path d="M209.609 235.785C209.427 235.785 209.253 235.681 209.172 235.505C209.06 235.264 209.165 234.977 209.406 234.866L230.882 224.917C231.123 224.805 231.409 224.91 231.52 225.151C231.632 225.393 231.527 225.679 231.286 225.791L209.81 235.74C209.745 235.77 209.676 235.785 209.609 235.785Z" fill="#EE8B48"/>
<path d="M181.75 233.152L181.693 234.114L209.59 235.762L209.647 234.801L181.75 233.152Z" fill="#EE8B48"/>
<path d="M234.544 279.539C234.544 279.539 254.409 332.456 243.42 391.574L235.04 430.92C234.992 431.145 234.985 431.375 235.019 431.602C235.443 434.446 238.296 454.451 236.541 466.66C236.37 467.856 236.475 469.072 236.841 470.225C239.321 478.05 247.663 511.47 227.782 559.008C225.924 569.184 224.067 585.749 223.644 589.607C223.589 590.111 223.702 590.616 223.969 591.051C225.195 593.05 228.41 599.53 223.133 605.724C235.39 626.808 240.461 627.221 233.699 633.836C226.538 635.393 213.759 639.147 202.765 629.927C201.417 628.796 200.583 627.189 200.421 625.46C199.62 616.887 200.31 604.07 200.31 604.07C200.31 604.07 196.506 600.763 203.691 585.053C210.876 569.343 203.268 549.499 203.268 549.499C203.268 549.499 191.012 515.599 203.268 480.872C202.846 474.258 196.083 454 197.351 437.877C197.351 439.117 179.6 361.808 185.517 344.858C184.249 345.685 234.544 279.539 234.544 279.539Z" fill="#FFD4AB"/>
<path d="M205.265 556.585C205.228 556.585 205.19 556.581 205.153 556.572C204.894 556.51 204.735 556.25 204.797 555.991L205.181 554.386C207.304 545.531 209.498 536.375 211.002 527.464C212.544 518.331 213.87 508.631 211.721 499.276C210.458 493.778 207.957 489.475 205.309 484.92C204.528 483.578 203.721 482.19 202.921 480.732C202.793 480.499 202.878 480.206 203.111 480.078C203.344 479.95 203.637 480.035 203.764 480.268C204.559 481.716 205.363 483.098 206.14 484.436C208.826 489.056 211.364 493.419 212.659 499.06C214.847 508.587 213.509 518.395 211.951 527.625C210.442 536.568 208.243 545.741 206.117 554.611L205.733 556.216C205.68 556.437 205.483 556.585 205.265 556.585Z" fill="#EE8B48"/>
<path d="M200.35 604.452C200.34 604.452 200.331 604.452 200.321 604.451C200.056 604.436 199.853 604.208 199.869 603.942C200.121 599.614 202.204 595.693 204.219 591.9C204.731 590.935 205.262 589.937 205.748 588.955C209.964 580.453 211.9 571.134 213.823 560.712C218.873 533.357 223.165 505.146 227.315 477.864L228.454 470.377C228.494 470.114 228.739 469.933 229.002 469.973C229.265 470.013 229.446 470.259 229.406 470.522L228.266 478.009C224.115 505.299 219.822 533.518 214.77 560.887C212.833 571.382 210.881 580.77 206.611 589.383C206.118 590.377 205.584 591.382 205.069 592.353C203.103 596.054 201.07 599.88 200.83 603.999C200.815 604.255 200.603 604.452 200.35 604.452Z" fill="#EE8B48"/>
<path d="M211.231 594.063C211.187 594.063 211.143 594.057 211.099 594.045C210.844 593.972 210.695 593.706 210.767 593.45C213.606 583.399 216.42 573.37 219.143 563.672C221.863 553.98 224.676 543.958 227.512 533.913C228.106 531.813 228.71 529.715 229.314 527.62C234.286 510.363 239.427 492.519 237.466 474.343C237.437 474.079 237.628 473.841 237.893 473.812C238.157 473.784 238.394 473.975 238.423 474.239C240.405 492.604 235.236 510.541 230.239 527.887C229.635 529.981 229.031 532.076 228.439 534.176C225.602 544.22 222.789 554.241 220.069 563.933C217.347 573.631 214.532 583.66 211.693 593.712C211.634 593.924 211.441 594.063 211.231 594.063Z" fill="#EE8B48"/>
<path d="M199.63 534.539C199.434 534.539 199.25 534.419 199.178 534.224C199.086 533.974 199.214 533.698 199.463 533.606C206.922 530.854 211.984 523.534 212.673 514.504C212.693 514.239 212.923 514.037 213.189 514.06C213.454 514.081 213.653 514.312 213.632 514.578C212.914 523.988 207.612 531.626 199.796 534.51C199.741 534.53 199.685 534.539 199.63 534.539Z" fill="#EE8B48"/>
<path d="M223.228 605.993C222.977 605.993 222.765 605.797 222.749 605.543C222.63 603.704 221.188 601.838 219.72 600.084C217.163 597.028 214.319 594.227 210.873 594.424C208.981 594.532 207.282 595.567 206.013 596.457C202.257 599.089 200.521 601.444 200.706 603.656C200.728 603.921 200.532 604.154 200.267 604.176C200.003 604.201 199.769 604.002 199.747 603.736C199.531 601.153 201.4 598.513 205.461 595.667C206.834 594.705 208.684 593.585 210.818 593.462C214.685 593.241 217.739 596.216 220.458 599.465C222.028 601.341 223.572 603.351 223.709 605.481C223.726 605.746 223.525 605.975 223.26 605.992C223.249 605.993 223.239 605.993 223.228 605.993Z" fill="#EE8B48"/>
<path d="M191.435 85.6464L181.87 122.309C181.789 122.617 182.036 122.915 182.361 122.901L186.24 122.744L199.888 98.8758L200.31 74.8977L191.435 85.6464Z" fill="#FFD4AB"/>
<path d="M182.341 123.384C182.048 123.384 181.767 123.25 181.584 123.023C181.393 122.785 181.328 122.481 181.404 122.187L190.996 85.4216L200.816 73.5295L200.367 99.0079L186.525 123.215L182.38 123.383C182.367 123.383 182.354 123.384 182.341 123.384ZM191.873 85.8714L182.336 122.431L185.954 122.275L199.409 98.7438L199.805 76.2656L191.873 85.8714Z" fill="#EE8B48"/>
<path d="M158.401 69.2151C160.646 68.7482 161.587 64.1298 160.501 58.8997C159.416 53.6696 156.716 49.8083 154.471 50.2752C152.225 50.7421 151.285 55.3604 152.371 60.5906C153.456 65.8207 156.156 69.682 158.401 69.2151Z" fill="#FFD4AB"/>
<path d="M158.034 69.7351C155.601 69.7351 152.968 65.9011 151.888 60.6438C151.085 56.7322 151.379 52.981 152.638 51.0873C153.115 50.3681 153.707 49.9348 154.396 49.7996C156.941 49.2992 159.835 53.2735 160.98 58.8484C161.783 62.76 161.489 66.5113 160.231 68.4048C159.753 69.124 159.161 69.5574 158.472 69.6926C158.328 69.721 158.181 69.7351 158.034 69.7351ZM154.838 50.7204C154.751 50.7204 154.665 50.7285 154.581 50.7449C154.154 50.8289 153.769 51.1237 153.439 51.6209C152.332 53.2856 152.088 56.8335 152.831 60.4497C153.937 65.8372 156.546 69.0905 158.287 68.7471C158.715 68.6632 159.099 68.3684 159.43 67.8711C160.536 66.2066 160.78 62.6585 160.037 59.0424C158.984 53.9141 156.57 50.7204 154.838 50.7204Z" fill="#EE8B48"/>
<path d="M211.078 60.5909C212.163 55.3608 211.223 50.7424 208.978 50.2754C206.733 49.8085 204.033 53.6698 202.947 58.8999C201.862 64.13 202.803 68.7484 205.048 69.2154C207.293 69.6824 209.993 65.8211 211.078 60.5909Z" fill="#FFD4AB"/>
<path d="M205.411 69.7352C205.264 69.7352 205.118 69.7213 204.973 69.6927C204.284 69.5574 203.693 69.1241 203.215 68.4049C201.956 66.5112 201.662 62.7601 202.465 58.8485C203.61 53.2735 206.502 49.2987 209.05 49.7997C209.739 49.935 210.33 50.3682 210.808 51.0872C212.067 52.981 212.361 56.7322 211.557 60.6439C210.478 65.9008 207.844 69.7352 205.411 69.7352ZM203.408 59.0425C202.665 62.6586 202.91 66.2067 204.016 67.8712C204.346 68.3685 204.731 68.6633 205.158 68.7472C206.901 69.0881 209.508 65.8371 210.615 60.4498C211.357 56.8336 211.113 53.2855 210.007 51.6211C209.676 51.1238 209.292 50.829 208.865 50.745C207.12 50.4021 204.515 53.6561 203.408 59.0425Z" fill="#EE8B48"/>
<path d="M205.357 52.8488C205.357 62.5258 205.788 72.8564 201.11 79.0318C196.726 84.8197 188.752 89.3672 181.517 89.3672C174.409 89.3672 164.802 83.0282 162.336 79.7208C157.639 73.422 158.089 62.4388 158.089 52.5732C158.089 43.4518 158.008 34.095 161.651 27.6304C166.2 19.5582 173.912 15.0901 181.517 15.0901C189.221 15.0901 197.657 19.5142 202.206 27.7682C205.744 34.188 205.357 43.8752 205.357 52.8488Z" fill="#FFD4AB"/>
<path d="M181.517 89.8491C174.331 89.8491 164.528 83.4655 161.95 80.0092C157.533 74.0849 157.568 64.3599 157.602 54.9554C157.605 54.1562 157.607 53.3611 157.607 52.5733V51.9926C157.606 43.0641 157.604 33.8316 161.232 27.3938C165.676 19.5077 173.449 14.6086 181.517 14.6086C190.014 14.6086 198.3 19.6828 202.627 27.5357C205.909 33.4914 205.876 42.1035 205.844 50.4317C205.841 51.2414 205.838 52.048 205.838 52.849C205.838 53.5992 205.841 54.3533 205.843 55.1092C205.875 64.1492 205.907 73.4969 201.493 79.323C196.798 85.5206 188.584 89.8491 181.517 89.8491ZM181.517 15.572C173.796 15.572 166.344 20.2832 162.07 27.8672C158.566 34.0845 158.568 43.1882 158.57 51.9924L158.57 52.5733C158.57 53.3623 158.567 54.1586 158.564 54.959C158.531 64.2052 158.496 73.7665 162.721 79.4329C165.197 82.7533 174.614 88.8858 181.517 88.8858C188.302 88.8858 196.201 84.7141 200.726 78.7409C204.943 73.1743 204.911 63.9922 204.881 55.1126C204.878 54.3555 204.876 53.6004 204.876 52.849C204.876 52.0468 204.879 51.2388 204.882 50.4282C204.913 42.2226 204.946 33.738 201.784 28.001C197.624 20.4507 189.669 15.572 181.517 15.572Z" fill="#EE8B48"/>
<path d="M184.416 328.985H179.047V342.261H184.416V328.985Z" fill="#FFD4AB"/>
<path d="M111.068 283.943C111.124 283.967 111.187 283.982 111.258 283.982C111.19 283.982 111.126 283.968 111.068 283.943Z" fill="#EE8B48"/>
<path d="M143.177 636.391C138.429 636.391 134.073 635.406 130.746 634.653C130.205 634.53 129.688 634.413 129.197 634.307L129.062 634.277L128.963 634.18C123.933 629.26 125.2 627.392 130.531 619.531C132.719 616.304 135.702 611.905 139.28 605.773C134.075 599.376 137.447 592.71 138.619 590.799C138.831 590.454 138.92 590.06 138.876 589.659C138.515 586.359 136.621 569.404 134.752 559.145C126.284 538.881 121.932 518.89 121.82 499.727C121.73 484.297 124.503 473.853 125.699 470.079C126.048 468.98 126.142 467.853 125.981 466.729C124.203 454.363 127.161 433.832 127.504 431.531C127.529 431.361 127.524 431.189 127.488 431.02L119.108 391.675C113.416 361.053 116.137 332.156 119.422 313.304C122.981 292.877 127.954 279.502 128.004 279.369L128.31 278.553L128.837 279.247C128.96 279.409 141.326 295.673 153.491 311.773C160.636 321.229 166.314 328.779 170.369 334.213C172.777 337.441 174.632 339.949 175.883 341.668C177.591 344.016 178.033 344.623 178.012 344.926C180.96 353.941 177.668 378.514 174.369 397.627C172.423 408.902 170.344 419.104 168.943 425.677C167.893 430.6 166.619 436.401 166.131 437.89C166.99 448.958 164.14 461.769 162.058 471.127C161.114 475.37 160.366 478.735 160.217 480.805C166.546 498.8 166.206 516.541 164.804 528.265C163.283 540.989 160.213 549.578 160.183 549.663C160.104 549.868 152.729 569.512 159.745 584.852C166.178 598.918 163.893 603.324 163.179 604.241C163.261 605.895 163.797 617.573 163.057 625.505C162.881 627.382 161.988 629.083 160.542 630.296C154.906 635.023 148.77 636.391 143.177 636.391ZM129.537 633.395C129.99 633.494 130.464 633.601 130.958 633.713C138.488 635.417 149.869 637.992 159.924 629.557C161.175 628.509 161.947 627.038 162.098 625.415C162.887 616.975 162.215 604.224 162.208 604.096L162.196 603.861L162.373 603.706C162.4 603.681 165.732 600.257 158.87 585.253C151.684 569.541 159.204 549.527 159.281 549.326C159.308 549.251 162.346 540.745 163.852 528.123C165.24 516.488 165.573 498.873 159.276 481.033L159.244 480.94L159.25 480.841C159.386 478.705 160.151 475.269 161.119 470.918C163.171 461.69 165.976 449.084 165.19 438.216L165.169 438.207L165.166 437.877L165.584 437.86L165.218 437.689C165.523 436.889 169.909 417.931 173.525 396.858C178.181 369.719 179.392 351.793 177.027 345.017L176.985 344.895C175.185 341.954 145.049 302.162 128.608 280.536C127.485 283.742 123.408 296.024 120.365 313.494C117.097 332.262 114.39 361.028 120.052 391.486L128.429 430.82C128.489 431.101 128.498 431.389 128.456 431.674C128.115 433.96 125.175 454.361 126.933 466.592C127.113 467.843 127.004 469.149 126.617 470.371C123.79 479.288 116.087 512.021 135.66 558.822L135.69 558.921C137.568 569.207 139.47 586.243 139.832 589.554C139.9 590.169 139.764 590.774 139.44 591.303C138.337 593.1 135.136 599.429 140.232 605.411L140.453 605.671L140.282 605.966C136.612 612.279 133.557 616.783 131.327 620.072C126.04 627.869 125.194 629.116 129.537 633.395Z" fill="#EE8B48"/>
<path d="M158.743 441.106C158.006 441.106 157.297 441.014 156.654 440.821C153.476 439.867 151.09 436.74 149.754 431.778C146.456 419.525 148.611 405.878 150.695 392.681C152.332 382.32 154.024 371.606 153.014 361.762C152.987 361.497 153.179 361.26 153.444 361.233C153.707 361.205 153.944 361.399 153.971 361.663C154.994 371.632 153.292 382.409 151.646 392.831C149.577 405.929 147.438 419.473 150.683 431.528C151.551 434.751 153.339 438.82 156.931 439.898C159.914 440.793 164.636 439.192 165.563 436.263C165.643 436.009 165.913 435.869 166.167 435.949C166.42 436.03 166.56 436.3 166.48 436.554C165.585 439.385 161.917 441.106 158.743 441.106Z" fill="#EE8B48"/>
<path d="M140.106 472.312C139.127 472.312 138.148 472.267 137.169 472.161C136.126 472.048 134.937 471.835 134.018 471.115C133.118 470.409 132.649 469.357 132.31 468.421C129.71 461.254 131.304 453.465 133.413 446.115C133.648 445.298 133.888 444.479 134.13 443.658C135.98 437.361 137.893 430.849 137.211 424.359C136.725 419.728 134.92 415.265 133.175 410.949C132.81 410.045 132.445 409.143 132.091 408.239C122.665 384.132 120.309 354.867 125.276 323.608C125.318 323.345 125.565 323.167 125.827 323.208C126.089 323.25 126.268 323.497 126.226 323.76C121.286 354.849 123.624 383.94 132.988 407.888C133.34 408.788 133.703 409.687 134.067 410.587C135.837 414.965 137.668 419.493 138.168 424.258C138.87 430.938 136.929 437.543 135.053 443.93C134.812 444.749 134.572 445.566 134.338 446.381C132.274 453.575 130.709 461.184 133.214 468.093C133.507 468.9 133.902 469.801 134.611 470.357C135.339 470.927 136.365 471.105 137.272 471.203C140.824 471.589 144.446 471.132 147.948 470.69C150.416 470.378 153.212 470.026 155.3 468.474C157.705 466.687 158.739 463.652 159.52 460.948C161.74 453.259 162.876 446.569 163.204 439.256C163.216 438.99 163.442 438.788 163.706 438.797C163.971 438.808 164.177 439.034 164.165 439.299C163.834 446.691 162.686 453.45 160.445 461.215C159.56 464.28 158.394 467.375 155.873 469.248C153.583 470.95 150.525 471.336 148.068 471.646C145.462 471.975 142.789 472.312 140.106 472.312Z" fill="#EE8B48"/>
<path d="M117.089 338.878C117.028 338.878 116.967 338.865 116.908 338.841C116.672 338.74 116.562 338.466 116.662 338.229C117.233 336.867 118.275 334.815 118.673 334.097L118.752 333.955C120.09 331.541 121.354 329.261 122.878 327.018C124.457 324.694 125.807 322.479 127.006 320.244C129.754 315.124 131.557 310.095 132.366 305.298C133.459 298.818 133.339 292.353 133.123 286.287C133.114 286.029 133.314 285.813 133.57 285.804C133.827 285.797 134.041 285.996 134.05 286.253C134.268 292.368 134.388 298.887 133.281 305.455C132.454 310.353 130.618 315.478 127.822 320.688C126.608 322.952 125.241 325.194 123.643 327.545C122.143 329.753 120.889 332.015 119.561 334.41L119.482 334.552C119.093 335.255 118.074 337.261 117.516 338.592C117.441 338.77 117.269 338.878 117.089 338.878Z" fill="#EE8B48"/>
<path d="M169.139 422.496C168.9 422.496 168.694 422.314 168.668 422.07C167.391 409.717 163.619 397.571 159.971 385.825C158.248 380.279 156.467 374.544 154.985 368.893C152.59 359.759 149.792 350.572 147.087 341.687C141.706 324.013 136.141 305.738 133.475 287.007C133.438 286.747 133.618 286.507 133.877 286.469C134.137 286.432 134.376 286.613 134.413 286.873C137.07 305.531 142.623 323.771 147.994 341.41C150.702 350.304 153.502 359.5 155.902 368.652C157.379 374.282 159.157 380.007 160.876 385.544C164.538 397.334 168.324 409.525 169.612 421.972C169.639 422.233 169.449 422.466 169.189 422.493C169.172 422.495 169.156 422.496 169.139 422.496Z" fill="#EE8B48"/>
<path d="M167.891 381.53C167.826 381.53 167.759 381.516 167.695 381.487C167.456 381.378 167.352 381.097 167.46 380.858C168.056 379.554 168.574 378.199 169.001 376.829C169.493 375.253 169.879 373.609 170.252 372.02C170.702 370.107 171.166 368.129 171.445 366.159C172.645 357.669 170.863 349.355 169.14 341.314C168.444 338.065 167.724 334.705 167.202 331.356C167.162 331.097 167.339 330.854 167.597 330.813C167.856 330.776 168.099 330.951 168.139 331.209C168.657 334.532 169.374 337.879 170.068 341.115C171.808 349.237 173.608 357.634 172.384 366.292C172.099 368.305 171.629 370.304 171.176 372.237C170.799 373.843 170.409 375.503 169.907 377.112C169.467 378.519 168.935 379.912 168.323 381.253C168.243 381.427 168.071 381.53 167.891 381.53Z" fill="#EE8B48"/>
<path d="M172.795 403.425C172.578 403.425 172.383 403.276 172.333 403.056C172.158 402.288 172.048 401.594 171.942 400.923C171.838 400.268 171.731 399.59 171.563 398.853C167.102 379.251 162.549 360.115 155.938 341.494C154.348 337.014 152.374 332.534 150.464 328.202C146.105 318.308 141.597 308.078 141.188 296.893C141.178 296.631 141.383 296.411 141.644 296.401C141.907 296.393 142.126 296.597 142.136 296.858C142.538 307.861 147.008 318.007 151.332 327.819C153.248 332.167 155.23 336.663 156.832 341.176C163.46 359.845 168.02 379.012 172.488 398.642C172.663 399.41 172.773 400.104 172.879 400.775C172.982 401.43 173.09 402.108 173.258 402.845C173.316 403.101 173.156 403.355 172.901 403.413C172.865 403.421 172.83 403.425 172.795 403.425Z" fill="#EE8B48"/>
<path d="M148.907 323.112C148.767 323.112 148.628 323.05 148.534 322.931C148.372 322.725 148.408 322.427 148.613 322.264C151.058 320.336 153.136 316.75 153.785 313.341C153.834 313.083 154.082 312.913 154.339 312.963C154.596 313.012 154.765 313.261 154.716 313.518C154.028 317.136 151.812 320.95 149.2 323.01C149.113 323.079 149.01 323.112 148.907 323.112Z" fill="#EE8B48"/>
<path d="M153.143 332.969C152.905 332.969 152.701 332.791 152.672 332.55C152.642 332.29 152.827 332.055 153.085 332.023C153.103 332.001 153.123 331.978 153.143 331.954C155.64 329.095 157.596 325.355 158.955 320.838C159.031 320.587 159.296 320.445 159.546 320.52C159.797 320.596 159.939 320.861 159.863 321.112C158.465 325.76 156.444 329.618 153.857 332.579C153.843 332.595 153.831 332.609 153.823 332.62C153.767 332.785 153.614 332.956 153.34 332.956C153.319 332.956 153.279 332.956 153.198 332.966C153.18 332.968 153.161 332.969 153.143 332.969Z" fill="#EE8B48"/>
<path d="M144.791 312.608C144.778 312.608 144.764 312.608 144.75 312.606C144.489 312.584 144.296 312.354 144.318 312.093C144.537 309.543 145.313 307.603 146.212 305.357C146.363 304.979 146.517 304.595 146.672 304.197C146.767 303.953 147.042 303.833 147.286 303.928C147.53 304.023 147.651 304.299 147.555 304.543C147.399 304.943 147.244 305.33 147.092 305.71C146.221 307.886 145.469 309.765 145.263 312.174C145.242 312.421 145.035 312.608 144.791 312.608Z" fill="#EE8B48"/>
<path d="M204.401 440.985C205.137 440.985 205.847 440.893 206.489 440.7C209.667 439.746 212.053 436.619 213.389 431.657C216.688 419.404 214.532 405.757 212.448 392.56C210.811 382.199 209.119 371.485 210.129 361.641C210.156 361.376 209.964 361.139 209.7 361.112C209.436 361.083 209.199 361.277 209.172 361.542C208.149 371.511 209.851 382.288 211.497 392.71C213.566 405.808 215.705 419.352 212.46 431.407C211.592 434.63 209.804 438.699 206.213 439.777C203.229 440.672 198.507 439.071 197.581 436.142C197.5 435.888 197.23 435.748 196.977 435.828C196.723 435.908 196.583 436.179 196.663 436.433C197.559 439.264 201.226 440.985 204.401 440.985Z" fill="#EE8B48"/>
<path d="M223.038 472.191C224.017 472.191 224.997 472.146 225.976 472.04C227.018 471.927 228.208 471.714 229.126 470.994C230.027 470.288 230.495 469.236 230.834 468.3C233.434 461.133 231.84 453.344 229.731 445.994C229.496 445.177 229.256 444.358 229.015 443.537C227.165 437.24 225.252 430.728 225.933 424.238C226.419 419.607 228.224 415.144 229.969 410.828C230.334 409.924 230.699 409.022 231.053 408.118C240.479 384.011 242.836 354.746 237.868 323.487C237.827 323.224 237.579 323.046 237.317 323.087C237.055 323.129 236.876 323.376 236.918 323.639C241.858 354.728 239.52 383.819 230.157 407.767C229.805 408.667 229.441 409.566 229.077 410.466C227.307 414.844 225.476 419.372 224.976 424.137C224.275 430.817 226.215 437.422 228.091 443.809C228.332 444.628 228.572 445.445 228.806 446.26C230.87 453.454 232.436 461.063 229.93 467.972C229.637 468.779 229.242 469.68 228.533 470.236C227.805 470.806 226.779 470.984 225.872 471.082C222.32 471.468 218.698 471.011 215.196 470.569C212.728 470.257 209.932 469.905 207.844 468.353C205.439 466.566 204.405 463.531 203.624 460.826C201.405 453.138 200.268 446.448 199.94 439.135C199.929 438.869 199.702 438.667 199.438 438.675C199.173 438.687 198.967 438.912 198.979 439.178C199.311 446.57 200.458 453.329 202.7 461.094C203.584 464.159 204.751 467.254 207.271 469.127C209.561 470.829 212.619 471.215 215.076 471.525C217.682 471.854 220.355 472.191 223.038 472.191Z" fill="#EE8B48"/>
<path d="M246.054 338.756C246.115 338.756 246.176 338.744 246.235 338.719C246.471 338.619 246.581 338.345 246.481 338.107C245.91 336.746 244.868 334.694 244.47 333.976L244.391 333.834C243.053 331.42 241.789 329.14 240.265 326.897C238.686 324.573 237.336 322.357 236.137 320.123C233.389 315.003 231.586 309.974 230.777 305.177C229.684 298.696 229.804 292.232 230.02 286.166C230.029 285.908 229.829 285.692 229.573 285.682C229.316 285.676 229.102 285.874 229.093 286.132C228.875 292.247 228.755 298.766 229.862 305.333C230.689 310.231 232.525 315.357 235.321 320.567C236.535 322.83 237.902 325.073 239.5 327.424C241 329.632 242.254 331.894 243.582 334.289L243.661 334.431C244.05 335.134 245.069 337.14 245.627 338.471C245.702 338.649 245.874 338.756 246.054 338.756Z" fill="#EE8B48"/>
<path d="M194.004 422.374C193.988 422.374 193.971 422.374 193.955 422.372C193.694 422.345 193.505 422.112 193.532 421.851C194.819 409.404 198.606 397.212 202.267 385.422C203.987 379.886 205.765 374.161 207.241 368.531C209.641 359.379 212.441 350.183 215.149 341.289C220.52 323.65 226.074 305.41 228.73 286.751C228.767 286.492 229.007 286.311 229.267 286.348C229.526 286.385 229.706 286.626 229.669 286.885C227.002 305.616 221.438 323.892 216.057 341.566C213.351 350.451 210.554 359.638 208.159 368.772C206.677 374.422 204.895 380.158 203.173 385.704C199.525 397.45 195.753 409.596 194.475 421.949C194.45 422.193 194.244 422.374 194.004 422.374Z" fill="#EE8B48"/>
<path d="M195.253 381.409C195.073 381.409 194.901 381.306 194.821 381.131C194.209 379.791 193.677 378.398 193.237 376.991C192.735 375.382 192.346 373.721 191.969 372.116C191.515 370.182 191.045 368.183 190.761 366.171C189.537 357.513 191.336 349.115 193.077 340.994C193.77 337.757 194.487 334.411 195.005 331.088C195.046 330.829 195.288 330.653 195.547 330.692C195.806 330.733 195.983 330.976 195.942 331.235C195.42 334.584 194.7 337.944 194.004 341.193C192.281 349.233 190.499 357.547 191.7 366.038C191.978 368.007 192.442 369.986 192.892 371.898C193.265 373.488 193.651 375.132 194.143 376.708C194.57 378.077 195.088 379.433 195.684 380.737C195.793 380.975 195.688 381.257 195.45 381.366C195.386 381.395 195.319 381.409 195.253 381.409Z" fill="#EE8B48"/>
<path d="M190.349 403.304C190.314 403.304 190.278 403.3 190.243 403.292C189.988 403.234 189.828 402.979 189.886 402.724C190.054 401.986 190.161 401.309 190.265 400.653C190.371 399.983 190.481 399.289 190.655 398.521C195.124 378.891 199.683 359.725 206.312 341.055C207.914 336.542 209.895 332.046 211.811 327.697C216.135 317.886 220.606 307.74 221.008 296.737C221.018 296.475 221.236 296.262 221.499 296.28C221.761 296.29 221.965 296.51 221.956 296.772C221.547 307.957 217.039 318.187 212.679 328.081C210.77 332.413 208.796 336.893 207.205 341.373C200.594 359.994 196.042 379.131 191.58 398.732C191.412 399.469 191.305 400.147 191.201 400.802C191.095 401.473 190.986 402.167 190.811 402.935C190.761 403.155 190.565 403.304 190.349 403.304Z" fill="#EE8B48"/>
<path d="M214.236 322.991C214.134 322.991 214.03 322.957 213.943 322.889C211.332 320.829 209.115 317.014 208.427 313.397C208.378 313.139 208.547 312.891 208.805 312.842C209.062 312.794 209.31 312.962 209.359 313.219C210.007 316.628 212.085 320.214 214.53 322.143C214.736 322.305 214.771 322.604 214.609 322.809C214.516 322.928 214.377 322.991 214.236 322.991Z" fill="#EE8B48"/>
<path d="M210 332.848C209.982 332.848 209.963 332.847 209.945 332.845C209.864 332.836 209.824 332.835 209.803 332.835C209.528 332.835 209.376 332.664 209.32 332.499C209.311 332.488 209.3 332.474 209.285 332.458C206.699 329.497 204.678 325.639 203.279 320.991C203.204 320.74 203.346 320.475 203.596 320.399C203.847 320.324 204.111 320.466 204.187 320.717C205.547 325.234 207.502 328.974 209.999 331.833C210.02 331.857 210.039 331.88 210.057 331.902C210.316 331.934 210.501 332.169 210.47 332.428C210.442 332.67 210.237 332.848 210 332.848Z" fill="#EE8B48"/>
<path d="M218.352 312.487C218.109 312.487 217.902 312.3 217.881 312.053C217.674 309.644 216.922 307.765 216.052 305.589C215.9 305.209 215.744 304.822 215.588 304.421C215.493 304.177 215.613 303.902 215.857 303.807C216.101 303.712 216.376 303.832 216.472 304.076C216.627 304.474 216.781 304.859 216.932 305.236C217.831 307.482 218.607 309.422 218.825 311.971C218.848 312.233 218.654 312.463 218.394 312.485C218.38 312.486 218.366 312.487 218.352 312.487Z" fill="#EE8B48"/>
<path d="M219.822 636.391C214.228 636.391 208.093 635.024 202.456 630.296C201.01 629.083 200.118 627.382 199.942 625.505C199.201 617.573 199.738 605.895 199.82 604.241C199.106 603.324 196.821 598.918 203.254 584.852C210.27 569.512 202.895 549.868 202.819 549.672C202.785 549.578 199.716 540.989 198.195 528.265C196.793 516.541 196.453 498.8 202.782 480.805C202.633 478.735 201.885 475.37 200.941 471.128C198.859 461.769 196.009 448.958 196.868 437.89C196.38 436.401 195.105 430.6 194.056 425.677C192.655 419.104 190.576 408.902 188.63 397.627C185.331 378.514 182.039 353.941 184.987 344.926C184.966 344.623 185.408 344.016 187.116 341.668C188.366 339.949 190.222 337.441 192.63 334.213C196.685 328.779 202.363 321.229 209.508 311.773C221.673 295.673 234.038 279.409 234.162 279.247L234.689 278.553L234.995 279.369C235.045 279.502 240.018 292.877 243.577 313.304C246.862 332.156 249.583 361.053 243.893 391.662L235.511 431.02C235.475 431.189 235.469 431.361 235.495 431.531C235.838 433.832 238.796 454.363 237.018 466.729C236.856 467.853 236.951 468.98 237.3 470.079C238.496 473.853 241.269 484.297 241.179 499.727C241.066 518.89 236.715 538.881 228.246 559.146C226.377 569.406 224.484 586.36 224.123 589.659C224.079 590.06 224.168 590.454 224.379 590.799C225.551 592.71 228.923 599.376 223.719 605.773C227.296 611.905 230.28 616.304 232.468 619.531C237.799 627.392 239.066 629.26 234.035 634.18L233.937 634.277L233.801 634.307C233.311 634.413 232.794 634.53 232.253 634.653C228.926 635.405 224.569 636.391 219.822 636.391ZM197.809 438.203C197.021 449.074 199.827 461.687 201.88 470.918C202.848 475.269 203.612 478.705 203.749 480.841L203.755 480.94L203.723 481.033C197.425 498.873 197.759 516.488 199.147 528.123C200.653 540.745 203.691 549.251 203.721 549.335C203.795 549.527 211.315 569.541 204.129 585.253C197.267 600.257 200.599 603.681 200.634 603.713L200.794 603.866L200.79 604.096C200.784 604.224 200.112 616.976 200.9 625.415C201.052 627.038 201.824 628.509 203.074 629.557C213.13 637.992 224.51 635.417 232.041 633.713C232.535 633.601 233.009 633.494 233.461 633.395C237.805 629.116 236.959 627.869 231.672 620.072C229.442 616.783 226.387 612.279 222.717 605.966L222.546 605.671L222.767 605.411C227.863 599.429 224.662 593.1 223.559 591.303C223.235 590.774 223.099 590.17 223.166 589.554C223.529 586.243 225.431 569.208 227.309 558.921L227.338 558.821C246.911 512.021 239.209 479.288 236.382 470.37C235.995 469.149 235.885 467.842 236.065 466.592C237.824 454.361 234.884 433.96 234.543 431.674C234.5 431.389 234.509 431.101 234.57 430.819L242.949 391.474C248.609 361.027 245.902 332.262 242.633 313.494C239.591 296.024 235.514 283.742 234.391 280.536C217.949 302.163 187.81 341.959 186.014 344.895L185.972 345.017C183.606 351.793 184.817 369.719 189.474 396.858C193.09 417.931 197.476 436.889 197.781 437.689C197.728 437.55 197.525 437.368 197.261 437.418L197.342 437.857L197.833 437.877V438.192L197.809 438.203Z" fill="#EE8B48"/>
<path fill-rule="evenodd" clip-rule="evenodd" d="M181.028 389.789L182.225 379.145L185.331 379.124L186.47 389.828C211.166 390.084 228.556 388.902 238.642 386.283C246.613 384.213 251.667 378.62 253.803 369.506C248.509 342.354 247.592 318.369 242.972 306.345C238.46 294.602 237.691 280.828 234.612 280.806C188.802 292.122 185.331 291.12 128.386 279.824C125.872 279.649 124.347 290.227 122.638 297.041C118.55 307.819 114.194 353.67 113.264 372.205C113.168 385.706 135.756 391.567 181.028 389.789Z" fill="#001940"/>
<g filter="url(#filter0_d_174_126892)">
<path d="M267.072 137.394C289.719 140.69 293.722 143.347 293.722 148.655C293.722 158.604 243.714 166.669 182.025 166.669C120.337 166.669 70.3291 158.604 70.3291 148.655C70.3291 143.556 74.8171 140.671 95.9282 137.394" stroke="#43B02A" stroke-width="2" stroke-linecap="round"/>
</g>
<g filter="url(#filter1_d_174_126892)">
<path d="M233.56 251.338C246.822 253.333 248.876 254.961 248.876 258.173C248.876 264.193 216.644 269.019 180.519 269.019C144.394 269.019 115.108 264.139 115.108 258.119C115.108 255.034 117.443 253.321 129.806 251.338" stroke="#43B02A" stroke-width="2" stroke-linecap="round"/>
</g>
<g filter="url(#filter2_d_174_126892)">
<path d="M247.541 324.453C263.979 327.319 267.563 328.378 267.563 332.992C267.563 341.641 226.695 348.583 181.922 348.583C137.148 348.583 96.4199 341.641 96.4199 332.992C96.4199 328.56 100.643 326.875 115.966 324.026" stroke="#43B02A" stroke-width="2" stroke-linecap="round"/>
</g>
<defs>
<filter id="filter0_d_174_126892" x="65.3291" y="133.393" width="233.393" height="39.2761" filterUnits="userSpaceOnUse" color-interpolation-filters="sRGB">
<feFlood flood-opacity="0" result="BackgroundImageFix"/>
<feColorMatrix in="SourceAlpha" type="matrix" values="0 0 0 0 0 0 0 0 0 0 0 0 0 0 0 0 0 0 127 0" result="hardAlpha"/>
<feOffset dy="1"/>
<feGaussianBlur stdDeviation="2"/>
<feComposite in2="hardAlpha" operator="out"/>
<feColorMatrix type="matrix" values="0 0 0 0 0.262745 0 0 0 0 0.690196 0 0 0 0 0.164706 0 0 0 0.37 0"/>
<feBlend mode="normal" in2="BackgroundImageFix" result="effect1_dropShadow_174_126892"/>
<feBlend mode="normal" in="SourceGraphic" in2="effect1_dropShadow_174_126892" result="shape"/>
</filter>
<filter id="filter1_d_174_126892" x="110.108" y="247.338" width="143.768" height="27.6814" filterUnits="userSpaceOnUse" color-interpolation-filters="sRGB">
<feFlood flood-opacity="0" result="BackgroundImageFix"/>
<feColorMatrix in="SourceAlpha" type="matrix" values="0 0 0 0 0 0 0 0 0 0 0 0 0 0 0 0 0 0 127 0" result="hardAlpha"/>
<feOffset dy="1"/>
<feGaussianBlur stdDeviation="2"/>
<feComposite in2="hardAlpha" operator="out"/>
<feColorMatrix type="matrix" values="0 0 0 0 0.262745 0 0 0 0 0.690196 0 0 0 0 0.164706 0 0 0 0.37 0"/>
<feBlend mode="normal" in2="BackgroundImageFix" result="effect1_dropShadow_174_126892"/>
<feBlend mode="normal" in="SourceGraphic" in2="effect1_dropShadow_174_126892" result="shape"/>
</filter>
<filter id="filter2_d_174_126892" x="91.4199" y="320.026" width="181.144" height="34.5571" filterUnits="userSpaceOnUse" color-interpolation-filters="sRGB">
<feFlood flood-opacity="0" result="BackgroundImageFix"/>
<feColorMatrix in="SourceAlpha" type="matrix" values="0 0 0 0 0 0 0 0 0 0 0 0 0 0 0 0 0 0 127 0" result="hardAlpha"/>
<feOffset dy="1"/>
<feGaussianBlur stdDeviation="2"/>
<feComposite in2="hardAlpha" operator="out"/>
<feColorMatrix type="matrix" values="0 0 0 0 0.262745 0 0 0 0 0.690196 0 0 0 0 0.164706 0 0 0 0.37 0"/>
<feBlend mode="normal" in2="BackgroundImageFix" result="effect1_dropShadow_174_126892"/>
<feBlend mode="normal" in="SourceGraphic" in2="effect1_dropShadow_174_126892" result="shape"/>
</filter>
</defs>
</svg>
