<svg width="24" height="24" viewBox="0 0 24 24" fill="none" xmlns="http://www.w3.org/2000/svg">
<g id="fi_30473">
<g id="Group">
<g id="Group_2">
<path id="Vector" d="M12.1281 13.7211C12.0928 14.1375 12.3754 16.3417 12.5213 17.2059C12.5907 17.6154 12.7811 18.2825 12.7126 18.6367C12.6148 19.1303 12.5865 19.7692 12.6404 20.1412C12.6744 20.3671 12.7813 21.409 12.6283 21.79C12.5483 21.9899 12.4016 23.0139 12.4016 23.0139C12.0195 23.9787 12.2351 23.9313 12.2351 23.9313C12.3534 24.0764 12.5561 23.9427 12.5561 23.9427C12.7104 24.0411 12.8173 23.9193 12.8173 23.9193C12.9498 24.029 13.1043 23.9058 13.1043 23.9058C13.2707 23.9922 13.4251 23.8328 13.4251 23.8328C13.5207 23.881 13.5441 23.8202 13.5441 23.8202C13.8309 23.8018 13.384 22.8838 13.384 22.8838C13.277 22.0593 13.4902 21.6004 13.4902 21.6004C14.1886 19.5293 14.2241 18.9797 13.9449 18.1992C13.8663 17.9739 13.8464 17.8847 13.8826 17.7868C13.9662 17.5611 13.9053 16.6529 14.0073 16.2924C14.2041 15.5969 14.3982 13.8331 14.4994 13.0101C14.6354 11.9016 14.0177 10.4152 14.0177 10.4152C13.8825 9.81038 14.0808 7.6553 14.0808 7.6553C14.3578 8.08627 14.3472 8.84701 14.3472 8.84701C14.3032 9.64485 14.9917 10.8642 14.9917 10.8642C15.3225 11.3681 15.4478 11.8462 15.4478 11.8817C15.4478 12.0269 15.416 12.3783 15.416 12.3783L15.4287 12.6843C15.4344 12.7622 15.4783 13.0306 15.4712 13.1603C15.4195 13.9585 15.5463 13.8083 15.5463 13.8083C15.6533 13.8083 15.7709 13.166 15.7709 13.166C15.7709 13.3316 15.7305 13.8275 15.8198 14.0146C15.9267 14.2377 16.0053 13.9763 16.0067 13.9238C16.035 12.9075 16.0961 13.1738 16.0961 13.1738C16.1555 13.9983 16.2285 14.1845 16.3595 14.1201C16.4587 14.0727 16.368 13.1306 16.368 13.1306C16.538 13.6903 16.6668 13.7794 16.6668 13.7794C16.9473 13.9763 16.7739 13.4324 16.7349 13.3247C16.5274 12.7524 16.521 12.554 16.521 12.554C16.7802 13.0683 16.9757 13.0492 16.9757 13.0492C17.2285 12.9685 16.7547 12.2403 16.477 11.8915C16.3353 11.7137 16.1526 11.4757 16.0995 11.3344C16.0131 11.095 15.9479 10.3254 15.9479 10.3254C15.9217 9.41733 15.6972 9.02289 15.6972 9.02289C15.3133 8.40848 15.2411 7.26237 15.2411 7.26237L15.2241 5.32737C15.0895 4.00748 14.117 3.99794 14.117 3.99794C13.1339 3.85161 12.9971 3.53406 12.9971 3.53406C12.7889 3.23442 12.9079 2.66002 12.9079 2.66002C13.0807 2.51951 13.1473 2.14647 13.1473 2.14647C13.4342 1.9265 13.4201 1.60464 13.2876 1.60813C13.1813 1.61093 13.2054 1.52287 13.2054 1.52287C13.3847 0.07398 12.0985 0 12.0985 0H11.9021C11.9021 0 10.6152 0.07398 10.7944 1.52252C10.7944 1.52252 10.8185 1.61069 10.7112 1.60779C10.5791 1.6043 10.5667 1.92616 10.8525 2.14612C10.8525 2.14612 10.9191 2.51904 11.0919 2.65967C11.0919 2.65967 11.2109 3.23407 11.0027 3.53371C11.0027 3.53371 10.8664 3.85126 9.88289 3.9976C9.88289 3.9976 8.90871 4.00713 8.77622 5.32703L8.75784 7.26202C8.75784 7.26202 8.687 8.40813 8.30163 9.02254C8.30163 9.02254 8.07818 9.4171 8.05235 10.3251C8.05235 10.3251 7.98686 11.0947 7.90079 11.3341C7.84833 11.4747 7.6657 11.7127 7.52286 11.8911C7.24276 12.2393 6.77201 12.9659 7.02385 13.0489C7.02385 13.0489 7.22031 13.0679 7.47854 12.5537C7.47854 12.5537 7.47319 12.7506 7.26603 13.3243C7.22531 13.4306 7.05211 13.9745 7.33268 13.779C7.33268 13.779 7.46261 13.6898 7.63151 13.1303C7.63151 13.1303 7.54089 14.0724 7.64174 14.1197C7.77353 14.1843 7.84542 13.9979 7.90486 13.1734C7.90486 13.1734 7.96581 12.9072 7.99408 13.9235C7.99547 13.9759 8.07236 14.2373 8.17972 14.0142C8.27034 13.8272 8.22963 13.3321 8.22963 13.1656C8.22963 13.1656 8.34583 13.808 8.45447 13.808C8.45447 13.808 8.58231 13.9581 8.52985 13.16C8.52136 13.0296 8.56707 12.7619 8.57277 12.684L8.5851 12.3779C8.5851 12.3779 8.55323 12.0273 8.55323 11.8814C8.55323 11.8452 8.67863 11.3678 9.00933 10.8639C9.00933 10.8639 9.69713 9.64392 9.65281 8.84666C9.65281 8.84666 9.64327 8.08592 9.92023 7.65495C9.92023 7.65495 10.1168 9.80991 9.98363 10.4149C9.98363 10.4149 9.36492 11.9012 9.50136 13.0098C9.60186 13.835 9.79565 15.5964 9.99293 16.292C10.096 16.6519 10.035 17.5598 10.1176 17.7865C10.1549 17.885 10.1353 17.9757 10.0553 18.1988C9.77762 18.9794 9.81298 19.5291 10.5114 21.6001C10.5114 21.6001 10.7263 22.059 10.6177 22.8834C10.6177 22.8834 10.1715 23.8014 10.4573 23.8198C10.4573 23.8198 10.4796 23.8807 10.5763 23.8325C10.5763 23.8325 10.7306 23.9919 10.8974 23.9054C10.8974 23.9054 11.0519 24.0287 11.1839 23.9189C11.1839 23.9189 11.2898 24.0407 11.4442 23.9423C11.4442 23.9423 11.6468 24.079 11.7672 23.9309C11.7672 23.9309 11.9811 23.9784 11.6003 23.0136C11.6003 23.0136 11.4544 21.9908 11.374 21.7897C11.2207 21.4087 11.329 20.3646 11.3617 20.1408C11.4144 19.7667 11.3861 19.1294 11.2898 18.6363C11.2193 18.2829 11.4102 17.6157 11.4807 17.2056C11.6255 16.3421 11.9093 14.1379 11.8738 13.7207L11.9911 13.7619C12.0751 13.7621 12.1281 13.7211 12.1281 13.7211Z" fill="#004EBA"/>
</g>
</g>
</g>
</svg>
