<svg width="48" height="49" viewBox="0 0 48 49" fill="none" xmlns="http://www.w3.org/2000/svg">
<path d="M0 24.4414C0 11.1866 10.7452 0.441406 24 0.441406C37.2548 0.441406 48 11.1866 48 24.4414C48 37.6962 37.2548 48.4414 24 48.4414C10.7452 48.4414 0 37.6962 0 24.4414Z" fill="#DDFDFF"/>
<g clip-path="url(#clip0_99_138562)">
<path d="M17.3011 30.4002C17.3011 29.7767 17.3011 25.6517 17.3011 25.6517C17.3011 25.1028 16.8562 24.6577 16.3071 24.6577H13.1747C12.6262 24.6577 12.1807 25.1028 12.1807 25.6517V40.4414H23.6653L24.7697 36.0121C24.7697 36.0121 28.2486 35.4047 28.2486 32.7816C28.2486 32.1466 28.2486 31.4563 28.2486 31.4563H18.3501C18.3501 31.4563 17.3011 31.2078 17.3011 30.4002Z" fill="#02C1E0"/>
<path d="M26.9765 15.8963C29.0351 15.8963 30.7039 14.2275 30.7039 12.1689C30.7039 10.1102 29.0351 8.44141 26.9765 8.44141C24.9179 8.44141 23.249 10.1102 23.249 12.1689C23.249 14.2275 24.9179 15.8963 26.9765 15.8963Z" fill="#02C1E0"/>
<path d="M27.3162 24.3524C26.5134 24.2445 25.7434 24.1814 25.1567 24.1449L24.0488 18.6752C23.9035 17.9577 23.2035 17.4945 22.4868 17.6393C21.7695 17.7846 21.3057 18.4839 21.4509 19.2013L22.7641 25.685C22.7885 25.8054 22.8293 25.9188 22.883 26.024H31.094C31.3801 26.024 31.6573 26.0753 31.9165 26.1684C31.2464 25.2519 29.8133 24.6879 27.3162 24.3524Z" fill="#02C1E0"/>
<path d="M31.7527 38.5622C32.0078 39.4782 32.8399 40.0781 33.7465 40.0781C33.9303 40.078 34.1173 40.0533 34.303 40.0016C35.4049 39.6948 36.0493 38.5529 35.7426 37.4512L33.0889 27.9206C32.8394 27.0249 32.0237 26.4053 31.0939 26.4053H22.6669C22.535 26.217 22.439 25.9995 22.3907 25.7609L21.0775 19.2772C20.8907 18.355 21.4889 17.4529 22.4112 17.2661C22.5232 17.2435 22.6373 17.232 22.7505 17.232C23.5588 17.232 24.2617 17.8072 24.4222 18.5998L24.969 21.2992C25.0924 20.6743 25.216 20.0832 25.3208 19.5476C25.7961 17.8987 25.1743 15.9253 23.7603 15.573C22.346 15.2203 20.2959 15.9884 19.4617 18.4142C18.3344 21.7563 18.0921 23.9316 18.5205 27.6118C18.9938 30.0475 20.5592 30.4871 21.9835 30.5304C22.0656 30.5403 22.1487 30.5469 22.2334 30.5469H22.7955H29.5209L31.7527 38.5622Z" fill="#02C1E0"/>
</g>
<defs>
<clipPath id="clip0_99_138562">
<rect width="32" height="32" fill="white" transform="translate(8 8.44141)"/>
</clipPath>
</defs>
</svg>
