<svg width="40" height="41" viewBox="0 0 40 41" fill="none" xmlns="http://www.w3.org/2000/svg">
<path d="M0 20.5C0 9.45431 8.95431 0.5 20 0.5C31.0457 0.5 40 9.45431 40 20.5C40 31.5457 31.0457 40.5 20 40.5C8.95431 40.5 0 31.5457 0 20.5Z" fill="#001940"/>
<g filter="url(#filter0_d_99_136068)">
<path fill-rule="evenodd" clip-rule="evenodd" d="M14.3745 16.4526C15.0528 13.9819 17.3138 12.1667 20.0002 12.1667C22.6865 12.1667 24.9475 13.9819 25.6258 16.4526C27.6552 16.9248 29.1668 18.7438 29.1668 20.9167C29.1668 22.5066 28.3566 23.907 27.1304 24.7278C26.7479 24.9838 26.2303 24.8813 25.9743 24.4988C25.7183 24.1164 25.8208 23.5988 26.2033 23.3428C26.987 22.8181 27.5002 21.9272 27.5002 20.9167C27.5002 19.3982 26.3391 18.1499 24.8569 18.0127C24.4793 17.9777 24.1729 17.6922 24.1114 17.3181C23.7865 15.3415 22.0686 13.8334 20.0002 13.8334C17.9317 13.8334 16.2139 15.3415 15.8889 17.3181C15.8274 17.6922 15.521 17.9777 15.1435 18.0127C13.6612 18.1499 12.5002 19.3982 12.5002 20.9167C12.5002 21.9272 13.0133 22.8181 13.797 23.3428C14.1795 23.5988 14.282 24.1164 14.026 24.4988C13.77 24.8813 13.2524 24.9838 12.8699 24.7278C11.6437 23.907 10.8335 22.5066 10.8335 20.9167C10.8335 18.7438 12.3451 16.9248 14.3745 16.4526ZM20.0002 19.6667C20.4604 19.6667 20.8335 20.0398 20.8335 20.5001V25.9882L22.7442 24.0775C23.0697 23.7521 23.5973 23.7521 23.9228 24.0775C24.2482 24.4029 24.2482 24.9306 23.9228 25.256L20.5894 28.5893C20.264 28.9148 19.7363 28.9148 19.4109 28.5893L16.0776 25.256C15.7521 24.9306 15.7521 24.4029 16.0776 24.0775C16.403 23.7521 16.9306 23.7521 17.2561 24.0775L19.1668 25.9882V20.5001C19.1668 20.0398 19.5399 19.6667 20.0002 19.6667Z" fill="white"/>
</g>
<defs>
<filter id="filter0_d_99_136068" x="-2" y="-0.5" width="44" height="44" filterUnits="userSpaceOnUse" color-interpolation-filters="sRGB">
<feFlood flood-opacity="0" result="BackgroundImageFix"/>
<feColorMatrix in="SourceAlpha" type="matrix" values="0 0 0 0 0 0 0 0 0 0 0 0 0 0 0 0 0 0 127 0" result="hardAlpha"/>
<feOffset dy="1"/>
<feGaussianBlur stdDeviation="1"/>
<feColorMatrix type="matrix" values="0 0 0 0 0.0627451 0 0 0 0 0.0941176 0 0 0 0 0.156863 0 0 0 0.05 0"/>
<feBlend mode="normal" in2="BackgroundImageFix" result="effect1_dropShadow_99_136068"/>
<feBlend mode="normal" in="SourceGraphic" in2="effect1_dropShadow_99_136068" result="shape"/>
</filter>
</defs>
</svg>
