<svg width="20" height="20" viewBox="0 0 20 20" fill="none" xmlns="http://www.w3.org/2000/svg">
<path fill-rule="evenodd" clip-rule="evenodd" d="M6.6665 0.833252C7.12674 0.833252 7.49984 1.20635 7.49984 1.66659V2.49992H12.4998V1.66659C12.4998 1.20635 12.8729 0.833252 13.3332 0.833252C13.7934 0.833252 14.1665 1.20635 14.1665 1.66659V2.50127C14.5627 2.504 14.909 2.51218 15.2097 2.53675C15.6781 2.57502 16.1087 2.65715 16.5131 2.86323C17.1403 3.18281 17.6503 3.69274 17.9699 4.31995C18.1759 4.7244 18.2581 5.15498 18.2963 5.6234C18.3332 6.07439 18.3332 6.62802 18.3332 7.29882V14.3677C18.3332 15.0385 18.3332 15.5921 18.2963 16.0431C18.2581 16.5115 18.1759 16.9421 17.9699 17.3466C17.6503 17.9738 17.1403 18.4837 16.5131 18.8033C16.1087 19.0093 15.6781 19.0915 15.2097 19.1298C14.7587 19.1666 14.2051 19.1666 13.5343 19.1666H6.4654C5.7946 19.1666 5.24097 19.1666 4.78998 19.1298C4.32157 19.0915 3.89098 19.0093 3.48654 18.8033C2.85933 18.4837 2.34939 17.9738 2.02982 17.3466C1.82374 16.9421 1.7416 16.5115 1.70333 16.0431C1.66648 15.5921 1.66649 15.0385 1.6665 14.3677V7.29883C1.66649 6.62803 1.66648 6.07439 1.70333 5.6234C1.7416 5.15498 1.82374 4.7244 2.02982 4.31995C2.34939 3.69274 2.85933 3.18281 3.48654 2.86323C3.89098 2.65715 4.32157 2.57502 4.78998 2.53675C5.09066 2.51218 5.43695 2.504 5.83317 2.50127V1.66659C5.83317 1.20635 6.20627 0.833252 6.6665 0.833252ZM5.83317 4.16805C5.4619 4.17066 5.17036 4.17789 4.9257 4.19788C4.56036 4.22773 4.37352 4.28183 4.24319 4.34824C3.92958 4.50803 3.67462 4.763 3.51483 5.0766C3.44842 5.20693 3.39431 5.39377 3.36446 5.75912C3.33382 6.13419 3.33317 6.61944 3.33317 7.33325V7.49992H16.6665V7.33325C16.6665 6.61944 16.6659 6.13419 16.6352 5.75912C16.6054 5.39377 16.5513 5.20693 16.4848 5.0766C16.3251 4.763 16.0701 4.50803 15.7565 4.34824C15.6262 4.28183 15.4393 4.22773 15.074 4.19788C14.8293 4.17789 14.5378 4.17066 14.1665 4.16805V4.99992C14.1665 5.46016 13.7934 5.83325 13.3332 5.83325C12.8729 5.83325 12.4998 5.46016 12.4998 4.99992V4.16658H7.49984V4.99992C7.49984 5.46016 7.12674 5.83325 6.6665 5.83325C6.20627 5.83325 5.83317 5.46016 5.83317 4.99992V4.16805ZM16.6665 9.16658H3.33317V14.3333C3.33317 15.0471 3.33382 15.5323 3.36446 15.9074C3.39431 16.2727 3.44842 16.4596 3.51483 16.5899C3.67462 16.9035 3.92958 17.1585 4.24319 17.3183C4.37352 17.3847 4.56036 17.4388 4.9257 17.4686C5.30078 17.4993 5.78602 17.4999 6.49984 17.4999H13.4998C14.2137 17.4999 14.6989 17.4993 15.074 17.4686C15.4393 17.4388 15.6262 17.3847 15.7565 17.3183C16.0701 17.1585 16.3251 16.9035 16.4848 16.5899C16.5513 16.4596 16.6054 16.2727 16.6352 15.9074C16.6659 15.5323 16.6665 15.0471 16.6665 14.3333V9.16658Z" fill="black"/>
</svg>
