<svg width="48" height="49" viewBox="0 0 48 49" fill="none" xmlns="http://www.w3.org/2000/svg">
<path d="M0 24.4414C0 11.1866 10.7452 0.441406 24 0.441406C37.2548 0.441406 48 11.1866 48 24.4414C48 37.6962 37.2548 48.4414 24 48.4414C10.7452 48.4414 0 37.6962 0 24.4414Z" fill="#FFE0E0"/>
<g clip-path="url(#clip0_99_138519)">
<path d="M37.8765 21.8089C37.4292 18.7388 36.531 16.4844 36.4932 16.3899L36.2187 15.7085L35.4914 15.8118C35.3909 15.8259 32.9892 16.1753 30.1069 17.323C26.2307 18.8665 23.3422 21.1365 21.7538 23.8877C20.1652 26.6387 19.6437 30.2752 20.245 34.4039C20.5832 36.7244 21.1786 38.6961 21.4658 39.5042L24.7736 33.6573L23.5014 28.9097L25.3125 28.4244L26.0993 31.3609L28.5236 27.1619L27.2514 22.4146L29.0627 21.9292L29.8493 24.8655L31.0615 22.7661L32.6853 23.7036L29.5984 29.0506L32.5346 28.2637L33.02 30.075L28.2724 31.347L23.0898 40.4415C23.9331 40.2862 25.8364 39.7572 28.0151 38.8897C31.8913 37.3463 34.7798 35.0762 36.3682 32.325C37.9563 29.574 38.478 25.9375 37.8765 21.8089Z" fill="#FF6354"/>
<path d="M13.2244 19.5603L13.7098 17.7493L16.6461 18.5362L15.4339 16.4368L17.0577 15.4993L20.1449 20.8462L20.9317 17.9099L22.7428 18.3953L22.2752 20.1404C22.8775 19.5227 23.545 18.9392 24.2774 18.3936C24.975 17.8743 25.7311 17.388 26.5404 16.9373C26.4833 16.8308 26.4256 16.7249 26.3656 16.6206C24.7772 13.8694 21.8888 11.5996 18.0125 10.0562C15.1299 8.90845 12.7283 8.55908 12.6277 8.54468L11.9004 8.44141L11.626 9.12281C11.5882 9.21729 10.69 11.4719 10.2427 14.542C9.64115 18.6707 10.1629 22.3069 11.7513 25.0582C13.2864 27.7174 15.7752 29.5267 18.1302 30.7288C18.1431 30.0765 18.1854 29.4393 18.2579 28.8199C18.3514 28.0223 18.4949 27.253 18.6871 26.5145L16.9742 26.0557L17.4595 24.2444L19.2706 24.7298C19.3975 24.4112 19.535 24.0999 19.6827 23.796L17.9718 20.8326L13.2244 19.5603Z" fill="#FF6354"/>
</g>
<defs>
<clipPath id="clip0_99_138519">
<rect width="32" height="32" fill="white" transform="translate(8 8.44141)"/>
</clipPath>
</defs>
</svg>
