<svg width="20" height="20" viewBox="0 0 20 20" fill="none" xmlns="http://www.w3.org/2000/svg">
<path fill-rule="evenodd" clip-rule="evenodd" d="M7.91686 3.33341C6.30603 3.33341 5.0002 4.63925 5.0002 6.25008C5.0002 7.86091 6.30603 9.16675 7.91686 9.16675C9.5277 9.16675 10.8335 7.86091 10.8335 6.25008C10.8335 4.63925 9.5277 3.33341 7.91686 3.33341ZM3.33353 6.25008C3.33353 3.71878 5.38556 1.66675 7.91686 1.66675C10.4482 1.66675 12.5002 3.71878 12.5002 6.25008C12.5002 8.78139 10.4482 10.8334 7.91686 10.8334C5.38556 10.8334 3.33353 8.78139 3.33353 6.25008ZM12.5873 2.51902C12.7921 2.10687 13.2922 1.9388 13.7044 2.14362C15.2115 2.8926 16.2502 4.44928 16.2502 6.25008C16.2502 8.05088 15.2115 9.60756 13.7044 10.3565C13.2922 10.5614 12.7921 10.3933 12.5873 9.98114C12.3824 9.56899 12.5505 9.06884 12.9627 8.86402C13.9251 8.38575 14.5835 7.39405 14.5835 6.25008C14.5835 5.10611 13.9251 4.11441 12.9627 3.63614C12.5505 3.43132 12.3824 2.93117 12.5873 2.51902ZM7.91686 13.3334C5.87803 13.3334 4.0249 14.4446 2.82647 16.244C2.75199 16.3558 2.69484 16.4417 2.64744 16.517C2.61013 16.5763 2.58508 16.6193 2.5679 16.6517C2.68968 16.6655 2.86273 16.6667 3.1855 16.6667H12.6482C12.971 16.6667 13.144 16.6655 13.2658 16.6517C13.2486 16.6193 13.2236 16.5763 13.1863 16.517C13.1389 16.4417 13.0817 16.3558 13.0073 16.244C11.8088 14.4446 9.9557 13.3334 7.91686 13.3334ZM1.43931 15.3201C2.89806 13.1298 5.23799 11.6667 7.91686 11.6667C10.5957 11.6667 12.9357 13.1298 14.3944 15.3201C14.4011 15.3301 14.4078 15.3401 14.4145 15.3502C14.5425 15.5422 14.679 15.7471 14.7744 15.9417C14.8893 16.176 14.9718 16.4452 14.9525 16.7666C14.9371 17.023 14.8521 17.2608 14.751 17.4497C14.6498 17.6385 14.499 17.8411 14.2942 17.9961C14.0197 18.2036 13.724 18.2763 13.4626 18.3068C13.2324 18.3335 12.9598 18.3335 12.6851 18.3334C12.6728 18.3334 12.6605 18.3334 12.6482 18.3334H3.1855C3.17319 18.3334 3.16089 18.3334 3.14859 18.3334C2.87397 18.3335 2.60135 18.3335 2.37115 18.3068C2.10973 18.2763 1.81399 18.2036 1.53957 17.9961L2.04223 17.3314M14.2555 12.8234C14.4621 12.4121 14.963 12.2462 15.3743 12.4528C16.7363 13.137 17.8876 14.2263 18.7209 15.5686C18.7302 15.5835 18.7397 15.5988 18.7496 15.6145C18.8734 15.8123 19.0351 16.0705 19.0879 16.4115C19.149 16.8055 19.0421 17.1822 18.8827 17.4687C18.7234 17.7552 18.4596 18.0448 18.0927 18.2007C17.7732 18.3364 17.4281 18.3349 17.1566 18.3336C17.1316 18.3335 17.1072 18.3334 17.0835 18.3334C16.6233 18.3334 16.2502 17.9603 16.2502 17.5001C16.2502 17.0398 16.6233 16.6667 17.0835 16.6667C17.2628 16.6667 17.3571 16.6662 17.4244 16.6616C17.425 16.6606 17.4256 16.6596 17.4262 16.6586C17.4272 16.6568 17.4281 16.6551 17.429 16.6534C17.4212 16.6391 17.4106 16.6206 17.3959 16.596C17.3721 16.5559 17.3436 16.51 17.3049 16.4476C16.6196 15.3438 15.6906 14.4769 14.6261 13.9421C14.2149 13.7355 14.0489 13.2347 14.2555 12.8234ZM1.43931 15.3201C1.43265 15.3301 1.42597 15.3401 1.41927 15.3502ZM1.41927 15.3502C1.29125 15.5422 1.15474 15.747 1.0593 15.9417ZM1.0593 15.9417C0.944428 16.176 0.861928 16.4452 0.881223 16.7666ZM0.881223 16.7666C0.896612 17.023 0.981655 17.2608 1.08277 17.4497ZM1.08277 17.4497C1.18389 17.6385 1.33471 17.8411 1.53957 17.9961Z" fill="black"/>
</svg>
