<svg width="271" height="111" viewBox="0 0 271 111" fill="none" xmlns="http://www.w3.org/2000/svg">
<path d="M0 24.4414C0 11.1866 10.7452 0.441406 24 0.441406C37.2548 0.441406 48 11.1866 48 24.4414C48 37.6962 37.2548 48.4414 24 48.4414C10.7452 48.4414 0 37.6962 0 24.4414Z" fill="#DEFFD6"/>
<g clip-path="url(#clip0_99_137538)">
<path d="M23.0623 18.7539C23.0623 18.2358 22.6429 17.8164 22.1248 17.8164H20.638L22.7876 15.6667C23.0559 15.3984 23.1365 14.9956 22.991 14.645C22.8462 14.2944 22.5037 14.0664 22.1248 14.0664H18.3748C17.8567 14.0664 17.4373 14.4858 17.4373 15.0039C17.4373 15.522 17.8567 15.9414 18.3748 15.9414H19.8616L17.712 18.0911C17.4436 18.3594 17.3631 18.7622 17.5086 19.1128C17.6534 19.4634 17.9956 19.6914 18.3748 19.6914H22.1248C22.6429 19.6914 23.0623 19.272 23.0623 18.7539Z" fill="#1C9401"/>
<path d="M25.0092 13.4878C25.1538 13.8384 25.4963 14.0664 25.8752 14.0664H29.6252C30.1433 14.0664 30.5627 13.647 30.5627 13.1289C30.5627 12.6108 30.1433 12.1914 29.6252 12.1914H28.1384L30.2881 10.0417C30.5564 9.77344 30.6369 9.37061 30.4914 9.02002C30.3466 8.66943 30.0041 8.44141 29.6252 8.44141H25.8752C25.3571 8.44141 24.9377 8.86084 24.9377 9.37891C24.9377 9.89697 25.3571 10.3164 25.8752 10.3164H27.362L25.2124 12.4661C24.9441 12.7344 24.8635 13.1372 25.0092 13.4878Z" fill="#1C9401"/>
<path d="M37.1875 23.4414H24C22.4492 23.4414 21.1875 24.7031 21.1875 26.2539V30.0039C21.1875 30.522 21.6069 30.9414 22.125 30.9414H40V26.2539C40 24.7031 38.7383 23.4414 37.1875 23.4414Z" fill="#1C9401"/>
<path d="M19.3125 30.0039V29.0664H9.875V18.7539C9.875 18.2358 9.45557 17.8164 8.9375 17.8164C8.41943 17.8164 8 18.2358 8 18.7539V39.5039C8 40.022 8.41943 40.4414 8.9375 40.4414C9.45557 40.4414 9.875 40.022 9.875 39.5039V36.6289H38.125V39.5039C38.125 40.0217 38.5447 40.4414 39.0625 40.4414C39.5803 40.4414 40 40.0217 40 39.5039V32.8164H22.125C20.5718 32.8164 19.3125 31.5571 19.3125 30.0039Z" fill="#1C9401"/>
<path d="M19.3125 24.3789C19.3125 25.9321 18.0532 27.1914 16.5 27.1914C14.9468 27.1914 13.6875 25.9321 13.6875 24.3789C13.6875 22.8257 14.9468 21.5664 16.5 21.5664C18.0532 21.5664 19.3125 22.8257 19.3125 24.3789Z" fill="#1C9401"/>
</g>
<path d="M5.29102 79.582C4.57031 79.582 3.89941 79.4414 3.27832 79.1602C2.66309 78.873 2.13867 78.498 1.70508 78.0352C1.27148 77.5664 0.966797 77.0684 0.791016 76.541L2.82129 75.6797C2.93262 76.002 3.09961 76.3125 3.32227 76.6113C3.55078 76.9043 3.82617 77.1445 4.14844 77.332C4.47656 77.5195 4.8457 77.6133 5.25586 77.6133C5.61328 77.6133 5.94727 77.5371 6.25781 77.3848C6.56836 77.2324 6.81738 77.0215 7.00488 76.752C7.19824 76.4766 7.29492 76.1689 7.29492 75.8291C7.29492 75.4658 7.19531 75.1582 6.99609 74.9062C6.79688 74.6484 6.54785 74.4346 6.24902 74.2646C5.95605 74.0947 5.6543 73.9541 5.34375 73.8428C5.03906 73.7256 4.77246 73.6289 4.54395 73.5527C3.96387 73.3535 3.42188 73.0957 2.91797 72.7793C2.41406 72.457 2.00684 72.0527 1.69629 71.5664C1.38574 71.0801 1.23047 70.4883 1.23047 69.791C1.23047 69.0879 1.3916 68.4785 1.71387 67.9629C2.04199 67.4473 2.49316 67.0488 3.06738 66.7676C3.64746 66.4863 4.3125 66.3457 5.0625 66.3457C5.76562 66.3457 6.38086 66.46 6.9082 66.6885C7.43555 66.917 7.87793 67.2217 8.23535 67.6025C8.59863 67.9775 8.87402 68.3848 9.06152 68.8242L7.10156 69.6152C7.01953 69.4453 6.8877 69.2578 6.70605 69.0527C6.53027 68.8477 6.30469 68.6689 6.0293 68.5166C5.75977 68.3643 5.44336 68.2881 5.08008 68.2881C4.64648 68.2881 4.25098 68.417 3.89355 68.6748C3.53613 68.9268 3.35742 69.3047 3.35742 69.8086C3.35742 70.1484 3.44238 70.4385 3.6123 70.6787C3.78809 70.9189 4.00781 71.124 4.27148 71.2939C4.53516 71.458 4.80762 71.5957 5.08887 71.707C5.37598 71.8184 5.63086 71.9121 5.85352 71.9883C6.11133 72.0703 6.43945 72.1963 6.83789 72.3662C7.23633 72.5303 7.63184 72.7559 8.02441 73.043C8.41699 73.3301 8.74805 73.6963 9.01758 74.1416C9.28711 74.5869 9.42188 75.1318 9.42188 75.7764C9.42188 76.5088 9.23438 77.1621 8.85938 77.7363C8.49023 78.3105 7.99219 78.7617 7.36523 79.0898C6.74414 79.418 6.05273 79.582 5.29102 79.582ZM13.5703 79.582C13.0781 79.582 12.6709 79.4766 12.3486 79.2656C12.0322 79.0547 11.7949 78.7617 11.6367 78.3867C11.4785 78.0117 11.3994 77.5781 11.3994 77.0859V65.9062H13.4736V76.9189C13.4736 77.0537 13.4883 77.1855 13.5176 77.3145C13.5469 77.4434 13.6055 77.5518 13.6934 77.6396C13.7871 77.7217 13.9336 77.7627 14.1328 77.7627C14.2148 77.7627 14.2881 77.7568 14.3525 77.7451C14.4229 77.7275 14.4844 77.71 14.5371 77.6924V79.4238C14.4141 79.4766 14.2646 79.5146 14.0889 79.5381C13.9189 79.5674 13.7461 79.582 13.5703 79.582ZM20.2676 79.582C19.3184 79.582 18.4893 79.3799 17.7803 78.9756C17.0713 78.5654 16.5176 77.9971 16.1191 77.2705C15.7207 76.5439 15.5215 75.7061 15.5215 74.7568C15.5215 73.7725 15.7207 72.9199 16.1191 72.1992C16.5176 71.4785 17.0537 70.9219 17.7275 70.5293C18.4014 70.1309 19.1484 69.9316 19.9688 69.9316C20.7539 69.9316 21.4629 70.1133 22.0957 70.4766C22.7344 70.8398 23.2412 71.3467 23.6162 71.9971C23.9912 72.6416 24.1787 73.3975 24.1787 74.2646C24.1787 74.4873 24.167 74.6953 24.1436 74.8887C24.1201 75.082 24.0908 75.2754 24.0557 75.4688H17.0771V74.001H22.2363C22.2363 73.5557 22.1426 73.1602 21.9551 72.8145C21.7676 72.4629 21.5039 72.1875 21.1641 71.9883C20.8242 71.7832 20.4258 71.6807 19.9688 71.6807C19.4531 71.6807 19.002 71.8096 18.6152 72.0674C18.2344 72.3193 17.9355 72.6738 17.7188 73.1309C17.5078 73.582 17.4023 74.1094 17.4023 74.7129C17.4023 75.3281 17.5166 75.8701 17.7451 76.3389C17.9795 76.8076 18.3076 77.1738 18.7295 77.4375C19.1572 77.7012 19.6641 77.833 20.25 77.833C20.584 77.833 20.9004 77.792 21.1992 77.71C21.498 77.6279 21.7705 77.5225 22.0166 77.3936C22.2627 77.2588 22.4736 77.1182 22.6494 76.9717L23.3613 78.6768C22.9922 78.9404 22.5381 79.1572 21.999 79.3271C21.4658 79.4971 20.8887 79.582 20.2676 79.582ZM30.2168 79.582C29.2676 79.582 28.4385 79.3799 27.7295 78.9756C27.0205 78.5654 26.4668 77.9971 26.0684 77.2705C25.6699 76.5439 25.4707 75.7061 25.4707 74.7568C25.4707 73.7725 25.6699 72.9199 26.0684 72.1992C26.4668 71.4785 27.0029 70.9219 27.6768 70.5293C28.3506 70.1309 29.0977 69.9316 29.918 69.9316C30.7031 69.9316 31.4121 70.1133 32.0449 70.4766C32.6836 70.8398 33.1904 71.3467 33.5654 71.9971C33.9404 72.6416 34.1279 73.3975 34.1279 74.2646C34.1279 74.4873 34.1162 74.6953 34.0928 74.8887C34.0693 75.082 34.04 75.2754 34.0049 75.4688H27.0264V74.001H32.1855C32.1855 73.5557 32.0918 73.1602 31.9043 72.8145C31.7168 72.4629 31.4531 72.1875 31.1133 71.9883C30.7734 71.7832 30.375 71.6807 29.918 71.6807C29.4023 71.6807 28.9512 71.8096 28.5645 72.0674C28.1836 72.3193 27.8848 72.6738 27.668 73.1309C27.457 73.582 27.3516 74.1094 27.3516 74.7129C27.3516 75.3281 27.4658 75.8701 27.6943 76.3389C27.9287 76.8076 28.2568 77.1738 28.6787 77.4375C29.1064 77.7012 29.6133 77.833 30.1992 77.833C30.5332 77.833 30.8496 77.792 31.1484 77.71C31.4473 77.6279 31.7197 77.5225 31.9658 77.3936C32.2119 77.2588 32.4229 77.1182 32.5986 76.9717L33.3105 78.6768C32.9414 78.9404 32.4873 79.1572 31.9482 79.3271C31.415 79.4971 30.8379 79.582 30.2168 79.582ZM35.8506 83.1328V70.0635H37.8633V71.1533H38.1357L37.6787 72.085V77.2705L38.2676 78.3428H37.9248V83.1328H35.8506ZM40.7637 79.582C39.9785 79.582 39.2754 79.3682 38.6543 78.9404C38.0391 78.5127 37.5527 77.9297 37.1953 77.1914C36.8379 76.4531 36.6562 75.624 36.6504 74.7041C36.6562 73.7842 36.832 72.9639 37.1777 72.2432C37.5293 71.5166 38.0098 70.9453 38.6191 70.5293C39.2344 70.1133 39.9375 69.9053 40.7285 69.9053C41.4609 69.9053 42.1494 70.0957 42.7939 70.4766C43.4385 70.8574 43.957 71.4082 44.3496 72.1289C44.748 72.8496 44.9414 73.7256 44.9297 74.7568C44.9355 75.5244 44.8242 76.21 44.5957 76.8135C44.3672 77.4111 44.0566 77.915 43.6641 78.3252C43.2715 78.7354 42.8232 79.0488 42.3193 79.2656C41.8213 79.4766 41.3027 79.582 40.7637 79.582ZM40.333 77.7891C40.8252 77.7891 41.2646 77.6572 41.6514 77.3936C42.0381 77.1299 42.3369 76.7695 42.5479 76.3125C42.7646 75.8496 42.8701 75.3223 42.8643 74.7305C42.8701 74.1211 42.7646 73.5908 42.5479 73.1396C42.3311 72.6826 42.0264 72.3281 41.6338 72.0762C41.2471 71.8242 40.8047 71.7012 40.3066 71.707C39.8379 71.7012 39.4131 71.8213 39.0322 72.0674C38.6572 72.3076 38.3555 72.6533 38.127 73.1045C37.9043 73.5557 37.793 74.0977 37.793 74.7305C37.793 75.3223 37.9014 75.8496 38.1182 76.3125C38.3408 76.7695 38.6426 77.1299 39.0234 77.3936C39.4043 77.6572 39.8408 77.7891 40.333 77.7891ZM51.4424 79.4414V66.4863H53.6045V71.8828H59.625V66.4863H61.7871V79.4414H59.625V73.8252H53.6045V79.4414H51.4424ZM66.9375 79.582C66.3281 79.582 65.7861 79.4619 65.3115 79.2217C64.8369 78.9756 64.4648 78.6416 64.1953 78.2197C63.9258 77.792 63.791 77.2998 63.791 76.7432C63.791 76.1572 63.9492 75.6504 64.2656 75.2227C64.582 74.7891 65.0508 74.4551 65.6719 74.2207C66.293 73.9805 67.0518 73.8604 67.9482 73.8604H69.9785V75.3105H68.001C67.2979 75.3105 66.7529 75.4248 66.3662 75.6533C65.9795 75.8818 65.7861 76.2217 65.7861 76.6729C65.7861 76.9424 65.8535 77.1709 65.9883 77.3584C66.123 77.5459 66.3076 77.6895 66.542 77.7891C66.7822 77.8887 67.0488 77.9385 67.3418 77.9385C67.6465 77.9385 67.9805 77.8711 68.3438 77.7363C68.707 77.6016 69.0205 77.3936 69.2842 77.1123C69.5479 76.8311 69.6797 76.4736 69.6797 76.04V75.0732L69.5654 74.5723V73.4209C69.5654 73.2393 69.542 73.0488 69.4951 72.8496C69.4541 72.6504 69.3691 72.4658 69.2402 72.2959C69.1172 72.1201 68.9385 71.9795 68.7041 71.874C68.4697 71.7627 68.165 71.707 67.79 71.707C67.4912 71.707 67.1777 71.7422 66.8496 71.8125C66.5215 71.877 66.2051 71.9678 65.9004 72.085C65.6016 72.2021 65.3408 72.334 65.1182 72.4805L64.4062 70.8018C64.6758 70.6494 65.001 70.5059 65.3818 70.3711C65.7686 70.2363 66.1904 70.1279 66.6475 70.0459C67.1045 69.9639 67.5703 69.9229 68.0449 69.9229C68.8184 69.9229 69.4365 70.0312 69.8994 70.248C70.3682 70.4648 70.7197 70.749 70.9541 71.1006C71.1885 71.4463 71.3438 71.8213 71.4199 72.2256C71.502 72.624 71.543 73.0107 71.543 73.3857V76.4531C71.543 76.8223 71.5811 77.1064 71.6572 77.3057C71.7393 77.5049 71.8887 77.6426 72.1055 77.7188L72.2988 77.7891L71.543 79.582L71.2705 79.4766C70.8252 79.3008 70.4854 79.0811 70.251 78.8174C70.0166 78.5537 69.8906 78.29 69.873 78.0264L70.2686 78.2461H69.5654L70.04 78C69.8291 78.4277 69.4424 78.7998 68.8799 79.1162C68.3174 79.4268 67.6699 79.582 66.9375 79.582ZM73.9248 79.4414V65.9062H75.999V71.0742H76.1748L75.7881 72.2695V77.3408L76.2627 78.2637H75.9375V79.4414H73.9248ZM78.8555 79.582C78.0703 79.582 77.3672 79.3682 76.7461 78.9404C76.1309 78.5127 75.6445 77.9297 75.2871 77.1914C74.9297 76.4531 74.748 75.624 74.7422 74.7041C74.748 73.7842 74.9238 72.9639 75.2695 72.2432C75.6211 71.5166 76.1016 70.9453 76.7109 70.5293C77.3262 70.1133 78.0293 69.9053 78.8203 69.9053C79.5527 69.9053 80.2412 70.0957 80.8857 70.4766C81.5303 70.8574 82.0488 71.4082 82.4414 72.1289C82.8398 72.8496 83.0332 73.7256 83.0215 74.7568C83.0273 75.5244 82.916 76.21 82.6875 76.8135C82.459 77.4111 82.1484 77.915 81.7559 78.3252C81.3633 78.7354 80.915 79.0488 80.4111 79.2656C79.9131 79.4766 79.3945 79.582 78.8555 79.582ZM78.4248 77.7891C78.917 77.7891 79.3564 77.6572 79.7432 77.3936C80.1299 77.1299 80.4287 76.7695 80.6396 76.3125C80.8564 75.8496 80.9619 75.3223 80.9561 74.7305C80.9619 74.1211 80.8564 73.5908 80.6396 73.1396C80.4229 72.6826 80.1182 72.3281 79.7256 72.0762C79.3389 71.8242 78.8965 71.7012 78.3984 71.707C77.9297 71.7012 77.5049 71.8213 77.124 72.0674C76.749 72.3076 76.4473 72.6533 76.2188 73.1045C75.9961 73.5557 75.8848 74.0977 75.8848 74.7305C75.8848 75.3223 75.9932 75.8496 76.21 76.3125C76.4326 76.7695 76.7344 77.1299 77.1152 77.3936C77.4961 77.6572 77.9326 77.7891 78.4248 77.7891ZM84.7266 79.4414V70.0635H86.8008V79.4414H84.7266ZM85.7637 68.7539C85.3711 68.7539 85.04 68.6191 84.7705 68.3496C84.5068 68.0801 84.375 67.752 84.375 67.3652C84.375 66.9785 84.5068 66.6504 84.7705 66.3809C85.04 66.1113 85.3711 65.9766 85.7637 65.9766C86.1504 65.9766 86.4785 66.1113 86.748 66.3809C87.0176 66.6504 87.1523 66.9785 87.1523 67.3652C87.1523 67.752 87.0176 68.0801 86.748 68.3496C86.4785 68.6191 86.1504 68.7539 85.7637 68.7539ZM92.8389 79.582C91.8428 79.582 91.0898 79.3008 90.5801 78.7383C90.0762 78.1758 89.8242 77.4551 89.8242 76.5762V67.1807H91.8984V76.4268C91.8984 76.8779 92.0039 77.209 92.2148 77.4199C92.4258 77.6309 92.6895 77.7363 93.0059 77.7363C93.1465 77.7363 93.2783 77.7188 93.4014 77.6836C93.5244 77.6426 93.6357 77.5957 93.7354 77.543L94.4473 79.2393C94.2305 79.3447 93.9873 79.4268 93.7178 79.4854C93.4482 79.5498 93.1553 79.582 92.8389 79.582ZM88.2773 71.7949V70.0635H94.1484V71.7949H88.2773ZM98.6572 79.582C98.0947 79.582 97.5732 79.4795 97.0928 79.2744C96.6123 79.0693 96.1992 78.7969 95.8535 78.457C95.5137 78.1113 95.2676 77.7363 95.1152 77.332L96.873 76.5762C97.002 76.9043 97.2275 77.1973 97.5498 77.4551C97.8779 77.7129 98.2471 77.8418 98.6572 77.8418C98.9092 77.8418 99.1406 77.7949 99.3516 77.7012C99.5625 77.6016 99.7324 77.4697 99.8613 77.3057C99.9902 77.1416 100.055 76.96 100.055 76.7607C100.055 76.5381 99.9785 76.3477 99.8262 76.1895C99.6797 76.0254 99.4922 75.8877 99.2637 75.7764C99.041 75.665 98.8066 75.5713 98.5605 75.4951C98.3203 75.4189 98.1094 75.3516 97.9277 75.293C97.5293 75.1699 97.1338 75 96.7412 74.7832C96.3545 74.5664 96.0322 74.2822 95.7744 73.9307C95.5166 73.5732 95.3877 73.125 95.3877 72.5859C95.3877 72.041 95.5283 71.5693 95.8096 71.1709C96.0908 70.7666 96.4658 70.459 96.9346 70.248C97.4033 70.0312 97.9219 69.9229 98.4902 69.9229C99.2754 69.9229 99.9521 70.1133 100.521 70.4941C101.089 70.8691 101.49 71.3203 101.725 71.8477L100.002 72.5684C99.8848 72.3516 99.709 72.1406 99.4746 71.9355C99.2402 71.7305 98.9297 71.6279 98.543 71.6279C98.209 71.6279 97.9219 71.7158 97.6816 71.8916C97.4473 72.0615 97.3301 72.3018 97.3301 72.6123C97.3301 72.876 97.415 73.0898 97.585 73.2539C97.7607 73.4121 97.9922 73.5469 98.2793 73.6582C98.5664 73.7637 98.877 73.8721 99.2109 73.9834C99.457 74.0596 99.7354 74.1621 100.046 74.291C100.362 74.4141 100.667 74.5781 100.96 74.7832C101.259 74.9883 101.502 75.249 101.689 75.5654C101.883 75.876 101.979 76.2568 101.979 76.708C101.979 77.2705 101.827 77.7686 101.522 78.2021C101.218 78.6357 100.813 78.9756 100.31 79.2217C99.8057 79.4619 99.2549 79.582 98.6572 79.582Z" fill="black"/>
<g opacity="0.05" clip-path="url(#clip1_99_137538)">
<path d="M212.777 35.8906C212.777 34.1098 211.336 32.668 209.555 32.668H204.444L211.833 25.2785C212.756 24.3562 213.032 22.9715 212.532 21.7663C212.035 20.5612 210.857 19.7773 209.555 19.7773H196.664C194.883 19.7773 193.441 21.2191 193.441 23C193.441 24.7809 194.883 26.2227 196.664 26.2227H201.775L194.386 33.6121C193.463 34.5344 193.186 35.9192 193.686 37.1243C194.184 38.3294 195.361 39.1133 196.664 39.1133H209.555C211.336 39.1133 212.777 37.6715 212.777 35.8906Z" fill="black"/>
<path d="M219.469 17.7884C219.966 18.9935 221.143 19.7773 222.446 19.7773H235.336C237.117 19.7773 238.559 18.3355 238.559 16.5547C238.559 14.7738 237.117 13.332 235.336 13.332H230.225L237.615 5.94258C238.537 5.02026 238.814 3.63553 238.314 2.43039C237.816 1.22525 236.639 0.441406 235.336 0.441406H222.446C220.665 0.441406 219.223 1.88321 219.223 3.66406C219.223 5.44492 220.665 6.88672 222.446 6.88672H227.556L220.167 14.2762C219.245 15.1985 218.968 16.5832 219.469 17.7884Z" fill="black"/>
<path d="M261.332 52.0039H216C210.669 52.0039 206.332 56.3411 206.332 61.6719V74.5625C206.332 76.3434 207.774 77.7852 209.555 77.7852H271V61.6719C271 56.3411 266.663 52.0039 261.332 52.0039Z" fill="black"/>
<path d="M199.887 74.5625V71.3398H167.445V35.8906C167.445 34.1098 166.004 32.668 164.223 32.668C162.442 32.668 161 34.1098 161 35.8906V107.219C161 109 162.442 110.441 164.223 110.441C166.004 110.441 167.445 109 167.445 107.219V97.3359H264.555V107.219C264.555 108.999 265.997 110.441 267.777 110.441C269.557 110.441 271 108.999 271 107.219V84.2305H209.555C204.215 84.2305 199.887 79.9017 199.887 74.5625Z" fill="black"/>
<path d="M199.887 55.2266C199.887 60.5658 195.558 64.8945 190.219 64.8945C184.88 64.8945 180.551 60.5658 180.551 55.2266C180.551 49.8874 184.88 45.5586 190.219 45.5586C195.558 45.5586 199.887 49.8874 199.887 55.2266Z" fill="black"/>
</g>
<defs>
<clipPath id="clip0_99_137538">
<rect width="32" height="32" fill="white" transform="translate(8 8.44141)"/>
</clipPath>
<clipPath id="clip1_99_137538">
<rect width="110" height="110" fill="white" transform="translate(161 0.441406)"/>
</clipPath>
</defs>
</svg>
