<svg width="40" height="40" viewBox="0 0 40 40" fill="none" xmlns="http://www.w3.org/2000/svg">
<g id="fi_10036298">
<g id="Group">
<path id="Vector" d="M34.4358 0.317163C31.5991 -0.692562 28.4807 0.788579 27.4712 3.62507C26.5614 6.18234 27.6755 8.96697 29.9815 10.2312C30.2864 9.50237 30.6029 8.68581 30.9292 7.7711C31.2898 6.76283 32.3996 6.23785 33.4084 6.5985C34.4167 6.95963 34.9412 8.06922 34.5805 9.07749C34.3711 9.66257 34.1644 10.214 33.96 10.7358C35.6566 10.2998 37.1131 9.05592 37.7444 7.2815C38.7539 4.44453 37.2723 1.3264 34.4358 0.317163Z" fill="#FA4D56"/>
<path id="Vector_2" d="M29.1143 21.3996C28.8818 20.1332 27.779 19.2134 26.4913 19.2134H18.2152C19.4351 17.4925 20.8663 15.9304 22.4754 14.5649C22.3649 14.2913 22.2621 14.0171 22.1652 13.7454C21.4187 11.6198 21.0815 9.61904 21.0689 9.55942C20.8884 8.50388 21.5973 7.50119 22.6528 7.32086C23.7084 7.14005 24.7106 7.84923 24.8914 8.90477C24.8919 8.90525 24.8967 8.93797 24.9132 9.02305C24.9292 9.10909 24.9544 9.23755 24.9879 9.40042C25.0548 9.72471 25.1573 10.1862 25.2945 10.7107C25.372 11.0132 25.4641 11.3384 25.5657 11.6695C26.5684 10.1295 26.9271 8.21279 26.2063 6.48855C25.1876 4.02168 21.3649 3.28753 18.2055 5.59395C14.2476 8.48304 10.9407 12.1739 8.50238 16.4241C6.55516 19.8174 7.70401 23.5373 10.2671 24.2794C10.6716 24.3984 11.0795 24.4561 11.4855 24.4695C11.6862 24.5177 11.8946 24.5461 12.1101 24.5461V24.5456H24.2685L26.6956 37.8126C26.9314 39.0991 28.0529 39.9995 29.3152 39.9997C29.4744 39.9997 29.6361 39.9852 29.7985 39.9556C31.2466 39.6907 32.2062 38.3017 31.9415 36.8535L29.1143 21.3996Z" fill="#FA4D56"/>
<path id="Vector_3" d="M4.21605 26.0403L1.9375 39.3708H19.8256L17.5466 26.0403H4.21605Z" fill="#FA4D56"/>
<path id="Vector_4" d="M34.0706 7.80252C33.9046 7.45132 33.6118 7.18568 33.2465 7.05504C33.0875 6.99832 32.9227 6.96924 32.7562 6.96924C32.1437 6.96924 31.593 7.35752 31.3868 7.93388C31.045 8.89222 30.7222 9.72162 30.4197 10.4446C29.5801 12.4498 28.9008 13.6134 28.4352 14.2685C27.9441 14.9697 27.5757 15.264 27.4402 15.3582L27.0948 15.5977L26.8081 15.3195C26.6096 15.1258 26.3028 14.731 26.0427 14.2133C25.7087 13.5792 25.4261 12.8213 25.2116 12.1601C25.0315 11.6053 24.8989 11.1187 24.8255 10.8327C24.7111 10.3952 24.6062 9.94606 24.5131 9.49767C24.4789 9.3314 24.4537 9.20028 24.4372 9.11327L24.4132 8.98602C24.2935 8.28484 23.6912 7.77658 22.9818 7.77658C22.8996 7.77658 22.8162 7.78361 22.7346 7.79791C22.3514 7.86335 22.0171 8.07446 21.7925 8.391C21.5685 8.70826 21.4805 9.09339 21.5431 9.45792L21.553 9.50906C21.6686 10.1487 22.0048 11.8259 22.6216 13.5817C22.6951 13.7877 22.7767 14.0085 22.8667 14.2373C23.1614 14.9877 23.5533 15.8348 24.0989 16.6048C24.4818 17.1358 24.8638 17.5255 25.3042 17.8326C25.6166 18.0527 26.2659 18.4226 27.0995 18.4226H27.1247C27.7963 18.4226 28.5093 18.1741 29.1327 17.7233C30.0116 17.0847 30.7532 16.1712 31.6112 14.6704C32.2036 13.6233 32.7923 12.3591 33.3944 10.8484C33.6353 10.243 33.8784 9.60213 34.1251 8.9138C34.2562 8.54806 34.2368 8.15347 34.0706 7.80252Z" fill="#FA4D56"/>
</g>
</g>
</svg>
