<svg width="32" height="32" viewBox="0 0 32 32" fill="none" xmlns="http://www.w3.org/2000/svg">
<g id="fi_1529815" clip-path="url(#clip0_96_98813)">
<path id="Vector" d="M15.5813 27.0625H10.375V25.1875H15.0918C14.99 24.6038 14.9263 23.98 14.9087 23.3125H10.375V21.4375H15.1045C15.2781 20.7812 15.5605 20.1399 15.9395 19.5476H10.375V17.6726H16.0132V19.4351C16.1851 19.1768 16.3757 18.9282 16.583 18.6931C17.1287 18.0757 17.7581 17.5825 18.4551 17.228C19.2412 16.8281 20.0713 16.625 20.9226 16.625C21.5242 16.625 22.0945 16.7004 22.625 16.8469V5.73242H18.875V10.1455H3.875V5.73242H0.125V32H18.916C17.937 31.0222 16.4434 29.4924 15.5813 27.0625ZM10.375 13.9141H16.0132V15.7891H10.375V13.9141ZM8.5 27.0625H6.625V25.1875H8.5V27.0625ZM8.5 23.3125H6.625V21.4375H8.5V23.3125ZM8.5 19.5833H6.625V17.7083H8.5V19.5833ZM8.5 15.7891H6.625V13.9141H8.5V15.7891Z" fill="#8638E5"/>
<path id="Vector_2" d="M17 5.73242V3.88379H14.3374V3.00439C14.3374 2.20215 14.0249 1.44775 13.4573 0.880371C12.8896 0.312744 12.1353 0 11.333 0C9.67651 0 8.32886 1.34766 8.32886 3.00439V3.88379H5.75V8.27051H17V5.73242ZM12.4624 3.88379H10.2036V3.00439C10.2036 2.38159 10.7102 1.875 11.333 1.875C11.6343 1.875 11.918 1.99268 12.1313 2.20605C12.345 2.41968 12.4624 2.70312 12.4624 3.00439V3.88379Z" fill="#8638E5"/>
<path id="Vector_3" d="M30.5215 19.699C29.7466 18.9255 28.7329 18.5 27.6663 18.5C27.6636 18.5 27.6609 18.5 27.6582 18.5C26.7852 18.5017 25.9702 18.7566 25.2917 19.1907V18.8955C25.2917 17.8159 26.1702 16.9375 27.2498 16.9375V15.0625C25.1362 15.0625 23.4167 16.782 23.4167 18.8955V19.1904C23.1694 19.0327 22.9043 18.8984 22.6248 18.7915V18.7869C22.1375 18.5762 21.5654 18.5 20.9224 18.5C18.6248 18.5 16.7778 20.8438 16.7778 22.9412C16.7778 27.5205 19.2854 29.6995 20.5867 31.0193C21.1216 31.5625 21.7517 32 22.5085 32C22.5474 32 22.5862 31.9968 22.6248 31.9919V31.9858C22.6357 31.9861 22.6467 31.9863 22.6577 31.9868C22.6743 31.9841 22.6912 31.9822 22.7078 31.9788V31.9875C22.9211 31.9863 23.1357 31.9451 23.3462 31.8645H23.3464C23.9321 31.6401 24.5703 31.6304 25.1436 31.8364C25.4231 31.9368 25.7148 31.9878 26.011 31.9878C26.8538 31.9878 27.6531 31.5959 28.3225 30.8542C28.4634 30.6982 28.6182 30.5349 28.782 30.3623C30.1079 28.9641 31.9238 27.0496 31.9238 23.2769C31.9238 21.8721 31.4258 20.6013 30.5215 19.699Z" fill="#8638E5"/>
</g>
<defs>
<clipPath id="clip0_96_98813">
<rect width="32" height="32" fill="white"/>
</clipPath>
</defs>
</svg>
