<svg width="41" height="40" viewBox="0 0 41 40" fill="none" xmlns="http://www.w3.org/2000/svg">
<g id="fi_1493072">
<g id="13 Egg">
<path id="Vector" d="M37.7638 19.5875C37.3959 18.673 37.2139 17.6944 37.2286 16.7088C37.2433 15.7233 37.4544 14.7505 37.8495 13.8475C38.5728 12.2804 38.7982 10.5292 38.4951 8.83006C38.1921 7.13092 37.3753 5.56557 36.1549 4.34514C34.9345 3.12471 33.3691 2.30791 31.67 2.0049C29.9708 1.70189 28.2196 1.92725 26.6526 2.65059C25.7494 3.04518 24.7767 3.25598 23.7912 3.27068C22.8057 3.28538 21.8271 3.10369 20.9126 2.73621C18.9443 2.00091 16.8329 1.7295 14.7426 1.94309C11.5207 2.28767 8.52164 3.75131 6.26764 6.07919C4.01365 8.40707 2.64747 11.4517 2.40696 14.6831C2.28533 16.44 2.50391 18.204 3.05071 19.8781C3.56851 21.4749 3.53506 23.1994 2.95571 24.775C2.42889 26.2433 2.25587 27.8153 2.45071 29.3631C2.73695 31.5669 3.7443 33.6141 5.31574 35.1856C6.88717 36.757 8.93438 37.7644 11.1382 38.0506C11.5529 38.1016 11.9704 38.1273 12.3882 38.1275C13.5276 38.128 14.6585 37.9311 15.7307 37.5456C17.3061 36.9662 19.0303 36.9328 20.627 37.4506C22.3006 37.9977 24.0642 38.2163 25.8207 38.0943C29.0514 37.8531 32.0953 36.4866 34.4224 34.2327C36.7496 31.9787 38.2126 28.9801 38.557 25.7587C38.7707 23.668 38.4992 21.5562 37.7638 19.5875Z" fill="#EDEFF0"/>
<path id="Vector_2" d="M20.5 27.5C24.6421 27.5 28 24.1421 28 20C28 15.8579 24.6421 12.5 20.5 12.5C16.3579 12.5 13 15.8579 13 20C13 24.1421 16.3579 27.5 20.5 27.5Z" fill="#F8981D"/>
<path id="Vector_3" d="M16.125 20.625C15.9592 20.625 15.8003 20.5592 15.6831 20.4419C15.5658 20.3247 15.5 20.1658 15.5 20C15.5015 18.6744 16.0288 17.4035 16.9661 16.4661C17.9035 15.5288 19.1744 15.0015 20.5 15C20.6658 15 20.8247 15.0658 20.9419 15.1831C21.0592 15.3003 21.125 15.4592 21.125 15.625C21.125 15.7908 21.0592 15.9497 20.9419 16.0669C20.8247 16.1842 20.6658 16.25 20.5 16.25C19.5057 16.251 18.5525 16.6464 17.8494 17.3494C17.1464 18.0525 16.751 19.0057 16.75 20C16.75 20.1658 16.6842 20.3247 16.5669 20.4419C16.4497 20.5592 16.2908 20.625 16.125 20.625Z" fill="#FECC81"/>
<path id="Vector_4" d="M7.28937 13.1249C7.18915 13.1249 7.09039 13.1009 7.00142 13.0547C6.91244 13.0086 6.83586 12.9418 6.77814 12.8598C6.72042 12.7779 6.68324 12.6833 6.66975 12.584C6.65626 12.4847 6.66685 12.3836 6.70062 12.2892C7.33669 10.5066 8.46351 8.93988 9.95123 7.76975C11.4389 6.59961 13.227 5.87364 15.1094 5.6755C15.2743 5.65892 15.4391 5.70854 15.5674 5.81345C15.6958 5.91835 15.7772 6.06994 15.7937 6.23487C15.8103 6.3998 15.7607 6.56457 15.6558 6.69291C15.5509 6.82126 15.3993 6.90267 15.2344 6.91925C13.5865 7.09258 12.0212 7.72826 10.719 8.75295C9.41688 9.77763 8.43096 11.1496 7.875 12.7105C7.83174 12.8313 7.75233 12.9359 7.64756 13.0101C7.54278 13.0842 7.41772 13.1243 7.28937 13.1249Z" fill="#FAFBFB"/>
<path id="Vector_5" d="M7.20972 19.1436C7.07792 19.1435 6.94953 19.1018 6.84289 19.0243C6.73625 18.9469 6.65683 18.8377 6.61597 18.7124C6.35993 17.9279 6.20268 17.1145 6.14785 16.2911C6.13691 16.1254 6.19226 15.9621 6.30174 15.8371C6.41121 15.7122 6.56583 15.6358 6.7316 15.6249C6.89736 15.614 7.06067 15.6693 7.18562 15.7788C7.31056 15.8883 7.3869 16.0429 7.39785 16.2086C7.44517 16.9282 7.58249 17.6389 7.8066 18.3243C7.83731 18.4181 7.84535 18.518 7.83003 18.6155C7.81472 18.7131 7.7765 18.8057 7.7185 18.8856C7.6605 18.9656 7.58438 19.0307 7.49638 19.0755C7.40837 19.1204 7.31099 19.1437 7.21222 19.1436H7.20972Z" fill="#FAFBFB"/>
<path id="Vector_6" d="M11.6643 34.3319C11.6388 34.3321 11.6133 34.3304 11.5881 34.3269C10.2143 34.1481 8.93828 33.5199 7.95874 32.5402C6.9792 31.5606 6.35116 30.2844 6.17245 28.9107C6.04959 27.9427 6.15666 26.9595 6.48495 26.0407C6.54098 25.8846 6.65671 25.7572 6.80668 25.6865C6.95665 25.6157 7.12857 25.6075 7.28464 25.6635C7.4407 25.7195 7.56812 25.8352 7.63885 25.9852C7.70959 26.1352 7.71785 26.3071 7.66183 26.4632C7.41163 27.1664 7.32235 27.9168 7.40054 28.6591C7.47874 29.4014 7.72242 30.1167 8.11365 30.7524C8.50489 31.388 9.0337 31.9279 9.66117 32.3321C10.2886 32.7363 10.9988 32.9947 11.7393 33.0882C11.8977 33.107 12.0428 33.1856 12.1451 33.308C12.2473 33.4304 12.299 33.5872 12.2894 33.7464C12.2798 33.9055 12.2097 34.055 12.0935 34.1642C11.9773 34.2734 11.8238 34.3341 11.6643 34.3338V34.3319Z" fill="#FAFBFB"/>
</g>
</g>
</svg>
