<svg width="40" height="40" viewBox="0 0 40 40" fill="none" xmlns="http://www.w3.org/2000/svg">
<g id="fi_9996451">
<path id="Vector" d="M36.8263 10.37C37.2487 10.9762 37.5 11.7087 37.5 12.5V32.5C37.5 34.5625 35.8125 36.25 33.75 36.25H6.25C4.1875 36.25 2.5 34.5625 2.5 32.5V12.5C2.5 11.7087 2.75125 10.9762 3.17375 10.37L8.21875 18.33C8.91625 19.375 10.0825 20 11.3387 20H15.2313C15.7488 21.4513 17.1238 22.5 18.7513 22.5H21.2512C22.8787 22.5 24.2537 21.4513 24.7712 20H28.6637C29.92 20 31.0863 19.375 31.8 18.3063L36.8288 10.3713L36.8263 10.37ZM18.75 17.5C18.0612 17.5 17.5 18.0612 17.5 18.75C17.5 19.4388 18.0612 20 18.75 20H21.25C21.9387 20 22.5 19.4388 22.5 18.75C22.5 18.0612 21.9387 17.5 21.25 17.5H18.75ZM5.21125 8.91625C5.54375 8.81875 5.8875 8.75 6.25 8.75H12.5V7.5C12.5 5.4375 14.1875 3.75 16.25 3.75H23.75C25.8125 3.75 27.5 5.4375 27.5 7.5V8.75H33.75C34.1125 8.75 34.4562 8.81875 34.7887 8.91625L29.7025 16.9438C29.47 17.2925 29.0813 17.5 28.6625 17.5H24.77C24.2525 16.0487 22.8775 15 21.25 15H18.75C17.1225 15 15.7475 16.0487 15.23 17.5H11.3375C10.9187 17.5 10.53 17.2913 10.3138 16.9675L5.21125 8.91625ZM15 8.75H25V7.5C25 6.8125 24.4375 6.25 23.75 6.25H16.25C15.5625 6.25 15 6.8125 15 7.5V8.75Z" fill="#FF832B"/>
</g>
</svg>
