<svg width="73" height="73" viewBox="0 0 73 73" fill="none" xmlns="http://www.w3.org/2000/svg">
<path d="M0.5 36.4414C0.5 16.5592 16.6178 0.441406 36.5 0.441406C56.3823 0.441406 72.5 16.5592 72.5 36.4414C72.5 56.3237 56.3823 72.4414 36.5 72.4414C16.6178 72.4414 0.5 56.3237 0.5 36.4414Z" fill="#EAF7FF"/>
<g clip-path="url(#clip0_99_138790)">
<path d="M51.3737 12.4524C43.6784 13.1306 37.9999 16.9716 34.6896 22.5245C32.4711 25.3056 28.0395 33.7962 26.4278 38.241C23.5055 43.7682 20.9572 50.3446 18.963 56.273C17.7439 59.8983 23.2176 62.2635 24.4437 58.6219C25.9351 54.1864 27.7369 49.3909 29.773 44.9407C31.7937 49.4631 33.8469 53.9707 36.0514 58.4069C37.7601 61.8507 42.9017 58.8306 41.1992 55.3985C38.9295 50.8319 36.8212 46.1924 34.7439 41.5373C34.7703 41.4473 34.8037 41.3596 34.8316 41.2704C35.1777 41.3689 35.5595 41.3992 35.98 41.3193C39.1584 40.7225 42.3368 40.1274 45.5175 39.5306C46.8762 39.2754 47.3969 37.7886 47.1827 36.5983C46.5402 33.0311 44.508 30.5496 41.9783 28.2015C41.6027 26.9242 40.3503 25.7944 38.9605 24.6716C41.7781 20.1166 46.378 17.6444 52.3654 17.1167C55.4212 16.849 54.4031 12.1862 51.3737 12.4524ZM39.7932 32.7277C40.5792 33.5456 41.2481 34.4061 41.7533 35.4025C40.2153 35.6911 38.6765 35.979 37.1386 36.2677C37.9145 35.0184 38.8077 33.8389 39.7932 32.7277Z" fill="#004EBA"/>
<path d="M46.3735 28.667C48.6342 28.667 50.4668 26.8344 50.4668 24.5737C50.4668 22.3131 48.6342 20.4805 46.3735 20.4805C44.1129 20.4805 42.2803 22.3131 42.2803 24.5737C42.2803 26.8344 44.1129 28.667 46.3735 28.667Z" fill="#004EBA"/>
</g>
<defs>
<clipPath id="clip0_99_138790">
<rect width="48" height="48" fill="white" transform="translate(12.5 12.4414)"/>
</clipPath>
</defs>
</svg>
