<svg width="33" height="32" viewBox="0 0 33 32" fill="none" xmlns="http://www.w3.org/2000/svg">
<g id="fi_10699" clip-path="url(#clip0_96_98847)">
<g id="Group">
<g id="Group_2">
<path id="Vector" d="M26.5828 0.00731338C21.4526 0.459446 17.6669 3.02015 15.4601 6.72205C13.9811 8.5761 11.0267 14.2365 9.95221 17.1997C8.00401 20.8845 6.30515 25.2688 4.97566 29.2211C4.16296 31.638 7.81209 33.2147 8.62944 30.787C9.62372 27.83 10.8249 24.633 12.1824 21.6662C13.5294 24.6811 14.8983 27.6862 16.3679 30.6437C17.5071 32.9395 20.9348 30.9261 19.7998 28.638C18.2867 25.5937 16.8811 22.5006 15.4963 19.3973C15.5139 19.3373 15.5361 19.2788 15.5547 19.2193C15.7854 19.285 16.04 19.3052 16.3203 19.2519C18.4393 18.8541 20.5582 18.4573 22.6787 18.0595C23.5845 17.8893 23.9316 16.8981 23.7888 16.1046C23.3605 13.7265 22.0056 12.0721 20.3192 10.5067C20.0688 9.65522 19.2339 8.90201 18.3074 8.15345C20.1857 5.11682 23.2524 3.46866 27.2439 3.11689C29.2811 2.93841 28.6024 -0.170125 26.5828 0.00731338ZM18.8624 13.5242C19.3865 14.0695 19.8324 14.6432 20.1692 15.3074C19.1438 15.4998 18.118 15.6918 17.0927 15.8842C17.61 15.0513 18.2054 14.265 18.8624 13.5242Z" fill="#FC8500"/>
<path id="Vector_2" d="M23.2493 10.817C24.7564 10.817 25.9782 9.5953 25.9782 8.08821C25.9782 6.58111 24.7564 5.35938 23.2493 5.35938C21.7422 5.35938 20.5205 6.58111 20.5205 8.08821C20.5205 9.5953 21.7422 10.817 23.2493 10.817Z" fill="#FC8500"/>
</g>
</g>
</g>
<defs>
<clipPath id="clip0_96_98847">
<rect width="32" height="32" fill="white" transform="translate(0.666992)"/>
</clipPath>
</defs>
</svg>
