<svg width="48" height="49" viewBox="0 0 48 49" fill="none" xmlns="http://www.w3.org/2000/svg">
<path d="M0 24.4414C0 11.1866 10.7452 0.441406 24 0.441406C37.2548 0.441406 48 11.1866 48 24.4414C48 37.6962 37.2548 48.4414 24 48.4414C10.7452 48.4414 0 37.6962 0 24.4414Z" fill="#EDEBFE"/>
<g clip-path="url(#clip0_99_137630)">
<path d="M39.8242 23.8959C39.5386 23.4965 32.7292 14.1289 24.0628 14.1289C15.3958 14.1289 8.46141 23.4965 8.17578 23.8959C7.94141 24.2222 7.94141 24.6615 8.17578 24.9872C8.46141 25.3865 15.3958 34.7541 24.0628 34.7541C32.7292 34.7541 39.5386 25.3865 39.8242 24.9871C40.0586 24.6615 40.0586 24.2221 39.8242 23.8959ZM24.0628 31.004C20.4447 31.004 17.3753 28.0597 17.3753 24.4415C17.3753 20.8233 20.4447 17.8789 24.0628 17.8789C27.681 17.8789 30.6254 20.8233 30.6254 24.4415C30.6254 28.0597 27.681 31.004 24.0628 31.004Z" fill="#6938EF"/>
<path d="M24.063 21.6289C22.5117 21.6289 21.1255 22.8908 21.1255 24.4414C21.1255 25.9927 22.5117 27.2539 24.063 27.2539C25.6136 27.2539 26.8755 25.9927 26.8755 24.4414C26.8755 22.8908 25.6136 21.6289 24.063 21.6289Z" fill="#6938EF"/>
</g>
<defs>
<clipPath id="clip0_99_137630">
<rect width="32" height="32" fill="white" transform="translate(8 8.44141)"/>
</clipPath>
</defs>
</svg>
