<svg width="110" height="111" viewBox="0 0 110 111" fill="none" xmlns="http://www.w3.org/2000/svg">
<g opacity="0.05" clip-path="url(#clip0_99_137804)">
<path d="M109.396 53.5658C108.414 52.1929 85.0065 19.9917 55.216 19.9917C25.4232 19.9917 1.58608 52.1929 0.604248 53.5658C-0.201416 54.6872 -0.201416 56.1976 0.604248 57.3169C1.58608 58.6898 25.4232 90.8908 55.216 90.8908C85.0065 90.8908 108.414 58.6898 109.396 57.3167C110.201 56.1976 110.201 54.687 109.396 53.5658ZM55.216 77.9999C42.7785 77.9999 32.2275 67.8787 32.2275 55.4411C32.2275 43.0036 42.7785 32.8823 55.216 32.8823C67.6535 32.8823 77.7748 43.0036 77.7748 55.4411C77.7748 67.8787 67.6535 77.9999 55.216 77.9999Z" fill="#111928"/>
<path d="M55.2163 45.7734C49.8839 45.7734 45.1187 50.1111 45.1187 55.4414C45.1187 60.7738 49.8839 65.1094 55.2163 65.1094C60.5466 65.1094 64.8843 60.7738 64.8843 55.4414C64.8843 50.1111 60.5466 45.7734 55.2163 45.7734Z" fill="#111928"/>
</g>
<defs>
<clipPath id="clip0_99_137804">
<rect width="110" height="110" fill="white" transform="translate(0 0.441406)"/>
</clipPath>
</defs>
</svg>
