<svg width="24" height="24" viewBox="0 0 24 24" fill="none" xmlns="http://www.w3.org/2000/svg">
<g id="fi_57992" clip-path="url(#clip0_545_143216)">
<g id="Group">
<g id="Group_2">
<path id="Vector" d="M15.1484 6.47696C16.012 6.47696 16.8043 5.91838 17.0935 5.10416C17.3859 4.28088 17.1141 3.339 16.4306 2.7963C15.7462 2.25283 14.7625 2.20458 14.0285 2.67961C13.2968 3.15327 12.9361 4.0611 13.1444 4.90798C13.3499 5.74314 14.0802 6.37854 14.9357 6.46609C15.0063 6.47338 15.0773 6.47696 15.1484 6.47696Z" fill="#FF832B"/>
<path id="Vector_2" d="M21.5005 11.6149C21.9287 11.6149 22.3381 11.403 22.5861 11.0539C22.8375 10.6999 22.8997 10.2328 22.7499 9.82511C22.6043 9.42885 22.2688 9.11789 21.8625 9.00331C21.4449 8.88553 20.9856 8.98242 20.6517 9.25933C20.32 9.53433 20.1401 9.9612 20.174 10.3907C20.2076 10.815 20.4502 11.205 20.8145 11.4247C21.0208 11.5491 21.2596 11.6149 21.5005 11.6149Z" fill="#FF832B"/>
<path id="Vector_3" d="M23.999 15.8683C23.998 15.7166 24.002 15.5647 23.9937 15.4131C23.9851 15.2584 23.9704 15.1042 23.9572 14.9497C23.9312 14.6444 23.8578 14.3447 23.7854 14.0477C23.7492 13.8994 23.6944 13.7492 23.6386 13.607C23.5831 13.4653 23.5184 13.3259 23.4443 13.193C23.2972 12.9297 23.1306 12.6845 22.9192 12.4679C22.779 12.3242 22.623 12.1999 22.4599 12.0836C22.3321 11.9926 22.1991 11.9083 22.0557 11.8442C21.8903 11.7702 21.712 11.7246 21.5301 11.7234C21.3081 11.722 21.092 11.7878 20.8986 11.8945C20.7344 11.9851 20.5954 12.1057 20.4515 12.2243C20.3027 12.3469 20.1491 12.4637 19.9914 12.5744C19.7035 12.7767 19.3794 12.9968 19.0258 13.0578C19.0321 12.4333 19.0139 11.8041 18.9195 11.186C18.8731 10.8827 18.8239 10.5756 18.7453 10.2788C18.6677 9.98606 18.5763 9.69985 18.4661 9.41756C18.2592 8.88759 17.9887 8.3898 17.6263 7.94972C17.3011 7.55493 16.9137 7.20984 16.4722 6.94991C15.9944 6.66857 15.4505 6.49676 14.8917 6.55484C14.3513 6.61101 13.879 6.89331 13.4542 7.21589C12.8632 7.66461 12.3692 8.24198 12.0276 8.90127C11.6705 8.00594 11.0585 7.18728 10.2184 6.69522C9.75671 6.42485 9.22097 6.23716 8.68232 6.22972C8.11516 6.22185 7.54961 6.41769 7.06618 6.70523C6.10967 7.27416 5.46687 8.24069 5.13322 9.28628C4.78283 10.3841 4.73958 11.5641 4.83304 12.7052C4.8422 12.8172 4.85279 12.9291 4.86471 13.0409C4.58961 12.9742 4.33259 12.8246 4.09617 12.6737C3.84449 12.5132 3.59281 12.3413 3.37083 12.1413C3.18534 11.9742 2.96055 11.8512 2.71159 11.8152C2.51794 11.7871 2.32114 11.8119 2.13498 11.8691C1.1202 12.1813 0.450746 13.1439 0.200114 14.1369C0.124724 14.4357 0.0644025 14.7351 0.0358392 15.0422C0.00694209 15.3533 0.00226896 15.6623 2.77666e-05 15.9746C-0.000830563 16.093 0.0179096 16.1991 0.0983065 16.2912C0.169453 16.3727 0.272452 16.4238 0.380935 16.4276C0.6031 16.4354 0.768233 16.2592 0.789596 16.0476C0.816442 15.7821 0.839856 15.5171 0.887827 15.2544C0.937419 14.983 1.00747 14.7213 1.09793 14.4607C1.07227 14.9346 1.04662 15.4085 1.02096 15.8824C1.01772 15.9427 1.01443 16.0029 1.01119 16.0633C1.00442 16.1883 1.01386 16.3142 1.03827 16.4368C1.05158 16.5035 1.06941 16.5694 1.09168 16.6337C1.10284 16.6659 1.11509 16.6977 1.12845 16.729C1.13903 16.7539 1.1705 16.7958 1.17184 16.8219C1.17618 16.9058 1.18056 16.9897 1.18486 17.0736C1.21094 17.5773 1.23702 18.081 1.26311 18.5847C1.29434 19.1877 1.32557 19.7907 1.35681 20.3937C1.36759 20.6017 1.37831 20.8099 1.38914 21.0179C1.39391 21.1102 1.39105 21.2074 1.40693 21.2988C1.44398 21.5122 1.63543 21.679 1.85245 21.6837C2.07208 21.6883 2.27107 21.5256 2.3137 21.3107C2.33559 21.2004 2.32977 21.0801 2.33516 20.9685C2.36191 20.4157 2.38866 19.8629 2.41542 19.3101C2.43883 18.8263 2.46224 18.3426 2.4857 17.8587C2.48723 17.8273 2.48871 17.7959 2.49028 17.7643C2.5084 18.1143 2.52652 18.4642 2.54464 18.8141C2.57573 19.4149 2.60687 20.0156 2.63796 20.6164C2.6475 20.8004 2.65704 20.9845 2.66657 21.1684C2.66815 21.1989 2.669 21.2295 2.67153 21.2598C2.68989 21.4759 2.86733 21.6575 3.08281 21.6811C3.30188 21.7052 3.51298 21.5592 3.57416 21.3486C3.58856 21.2989 3.59123 21.2493 3.59371 21.1983C3.60067 21.0539 3.60768 20.9094 3.61465 20.7649C3.64173 20.2046 3.66891 19.6442 3.696 19.0838C3.72341 18.517 3.75083 17.9503 3.7783 17.3835C3.78564 17.2311 3.79308 17.0786 3.80043 16.9261C3.80219 16.8894 3.80138 16.87 3.8185 16.8375C3.94334 16.6005 4.00185 16.3315 3.98735 16.064C3.9636 15.6253 3.93986 15.1867 3.91611 14.748C3.89699 14.3947 3.87782 14.0414 3.8587 13.688C4.1274 13.7957 4.42076 13.8932 4.71045 13.9208C4.85732 13.9348 5.01096 13.9374 5.15616 13.9072C5.22358 13.8932 5.2922 13.874 5.35572 13.8471C5.37208 13.8401 5.388 13.8323 5.40374 13.8242C5.41695 13.8262 5.43025 13.8278 5.44356 13.8289C5.47398 13.8316 5.50459 13.8318 5.53506 13.8296C5.74612 13.8147 5.93943 13.6844 6.03628 13.4969C6.0874 13.3979 6.106 13.2909 6.10132 13.1803C6.09522 13.0344 6.09126 12.8885 6.08993 12.7426C6.08449 12.1666 6.11858 11.5885 6.22087 11.0211C6.32368 10.4508 6.49272 9.88315 6.77626 9.37536C6.73596 9.70815 6.69567 10.0409 6.65537 10.3737C6.58203 10.9791 6.50874 11.5846 6.4354 12.19C6.40865 12.4107 6.38195 12.6315 6.3552 12.8522C6.33679 13.0042 6.31595 13.1552 6.31409 13.3086C6.3108 13.5802 6.35372 13.8522 6.44156 14.1092C6.48552 14.2379 6.54064 14.3627 6.60635 14.4818C6.63806 14.5393 6.6723 14.5955 6.70878 14.65C6.71765 14.6631 6.71775 14.6587 6.71813 14.6663C6.72142 14.7362 6.72476 14.8062 6.72805 14.876C6.74717 15.279 6.76629 15.6821 6.78541 16.0851C6.81378 16.6838 6.84216 17.2824 6.87058 17.8811C6.89938 18.4891 6.92823 19.0971 6.95703 19.7051C6.97749 20.136 6.9979 20.567 7.01835 20.998C7.02264 21.0889 7.02698 21.1798 7.03127 21.2707C7.04568 21.5741 7.24648 21.844 7.54003 21.9328C7.96967 22.0628 8.42425 21.7337 8.44428 21.2871C8.44761 21.2121 8.45105 21.1371 8.45439 21.0621C8.47537 20.5939 8.4964 20.1257 8.51733 19.6575C8.54518 19.0369 8.57303 18.4163 8.60083 17.7957C8.6209 17.3487 8.64093 16.9017 8.66101 16.4547C8.66358 16.3971 8.66615 16.3395 8.66873 16.2818C8.68122 16.5491 8.69362 16.8165 8.70607 17.0838C8.7333 17.6683 8.76057 18.2529 8.78775 18.8374C8.8146 19.413 8.8414 19.9886 8.86824 20.5641C8.87673 20.7466 8.88522 20.9291 8.89371 21.1116C8.89867 21.2175 8.89685 21.3282 8.92427 21.4312C9.04043 21.8683 9.55333 22.0958 9.95022 21.872C10.1783 21.7433 10.3039 21.5103 10.3157 21.2534C10.3291 20.9598 10.3425 20.6663 10.3559 20.3727C10.3811 19.82 10.4064 19.2674 10.4316 18.7147C10.4603 18.0884 10.4888 17.4621 10.5175 16.8359C10.541 16.3212 10.5644 15.8066 10.588 15.292C10.598 15.0744 10.6079 14.8568 10.6178 14.6393C10.6183 14.6299 10.6385 14.6074 10.6436 14.5992C10.6605 14.5724 10.6769 14.5454 10.6928 14.518C10.7272 14.4585 10.759 14.3975 10.7881 14.3352C10.8444 14.2147 10.8904 14.0893 10.9254 13.9609C10.9975 13.6967 11.0222 13.4202 10.999 13.1473C10.9891 13.0312 10.9724 12.9155 10.9584 12.7999C10.8932 12.2614 10.828 11.7229 10.7628 11.1845C10.6998 10.6641 10.6367 10.1437 10.5737 9.62337C10.5654 9.55546 10.5572 9.48751 10.549 9.41956C10.8139 9.90909 10.9776 10.4474 11.0752 10.9938C11.1742 11.5483 11.2125 12.1138 11.1995 12.6764C11.1959 12.8296 11.1992 12.9829 11.2007 13.1361C11.1973 13.2366 11.1995 13.3322 11.2348 13.4282C11.3093 13.6309 11.4911 13.7869 11.7048 13.8228C11.9196 13.8588 12.1425 13.7722 12.2825 13.6068C12.4454 13.4147 12.4336 13.1627 12.4531 12.9254C12.4905 12.4698 12.5644 12.0152 12.6687 11.5705C12.7715 11.1323 12.9013 10.6953 13.0926 10.2869C13.0926 10.4028 13.0926 10.5188 13.0926 10.6348C13.0926 10.6806 13.0996 10.731 13.0901 10.7762C13.0702 10.8716 13.0504 10.9669 13.0306 11.0623C12.934 11.5266 12.8374 11.9909 12.7407 12.4552C12.6137 13.0658 12.4866 13.6764 12.3596 14.287C12.2567 14.7815 12.1539 15.276 12.0509 15.7705C12.0256 15.8923 12.0002 16.014 11.9749 16.1357C11.9685 16.1662 11.9616 16.1963 11.9591 16.2274C11.941 16.4599 12.131 16.6571 12.3617 16.6571C12.6123 16.6571 13.1016 16.6571 13.1016 16.6571L13.2215 16.6583C13.2215 16.6583 13.2249 16.7359 13.2267 16.7712C13.2477 17.2077 13.2689 17.6443 13.2899 18.0807C13.3199 18.6988 13.3498 19.3169 13.3797 19.935C13.3996 20.3462 13.4195 20.7575 13.4394 21.1687C13.4406 21.1937 13.4418 21.2187 13.443 21.2436C13.4524 21.4393 13.5479 21.6248 13.6962 21.7516C13.8625 21.894 14.0889 21.9553 14.3039 21.9091C14.5129 21.8642 14.695 21.7225 14.7932 21.533C14.8647 21.3946 14.8708 21.2515 14.8786 21.1016C14.888 20.9198 14.8974 20.738 14.9068 20.5562C14.9371 19.9722 14.9673 19.3884 14.9975 18.8044C15.0262 18.2506 15.0549 17.6968 15.0836 17.143C15.0911 16.9989 15.0985 16.8547 15.106 16.7105C15.1074 16.6832 15.0972 16.6572 15.1271 16.6572C15.1916 16.6572 15.1894 16.6458 15.1919 16.6998C15.2105 17.0821 15.2289 17.4642 15.2474 17.8465C15.2772 18.4627 15.3071 19.079 15.3369 19.6952C15.3593 20.1571 15.3816 20.619 15.4039 21.0808C15.4105 21.2152 15.4112 21.3467 15.4635 21.4742C15.6361 21.895 16.1678 22.0578 16.5395 21.7903C16.7143 21.6644 16.8286 21.4627 16.8398 21.2469C16.8411 21.2259 16.842 21.205 16.843 21.1841C16.8508 21.0348 16.8585 20.8855 16.8662 20.7362C16.8951 20.178 16.9241 19.6198 16.9529 19.0616C16.983 18.481 17.0131 17.9004 17.0431 17.3199C17.0523 17.1426 17.0615 16.9654 17.0707 16.7883C17.0727 16.7492 17.0767 16.6591 17.0767 16.6591C17.0767 16.6591 17.6686 16.6574 17.9122 16.6574C18.1614 16.6574 18.3521 16.4249 18.3047 16.1805C18.3016 16.1632 18.2977 16.146 18.2941 16.1288C18.2238 15.784 18.1537 15.4392 18.0835 15.0943C17.9637 14.5063 17.844 13.9183 17.7243 13.3303C17.6088 12.7634 17.4934 12.1966 17.3779 11.6297C17.3206 11.3483 17.2633 11.0669 17.206 10.7855C17.198 10.7459 17.2046 10.7001 17.2046 10.6599C17.2046 10.5651 17.2046 10.4703 17.2046 10.3755C17.3221 10.6543 17.4126 10.9407 17.4912 11.2326C17.572 11.5335 17.6394 11.8373 17.6844 12.1459C17.7291 12.4528 17.7646 12.7598 17.7902 13.0689C17.7995 13.1809 17.8041 13.2908 17.8502 13.3952C17.8932 13.4924 17.9621 13.5775 18.0473 13.641C18.1648 13.7285 18.312 13.7731 18.4584 13.7622C18.5002 13.7591 18.5312 13.7906 18.5682 13.8102C18.6108 13.8328 18.6553 13.8517 18.7008 13.8674C18.7963 13.9002 18.8939 13.9185 18.9945 13.9233C19.4012 13.9422 19.8056 13.81 20.1746 13.6496L20.1739 14.5444L19.8087 16.0972C19.6841 16.6271 19.5594 17.157 19.4347 17.6869C19.4053 17.8119 19.3391 17.9731 19.4072 18.0945C19.4871 18.2367 19.6356 18.2246 19.7739 18.2246C19.9167 18.2246 20.0594 18.2246 20.2022 18.2246C20.2071 18.2246 20.2619 18.2224 20.2621 18.226C20.2627 18.2378 20.2632 18.2495 20.2638 18.2613C20.2669 18.3266 20.2701 18.3919 20.2733 18.4572C20.2853 18.7056 20.2973 18.9541 20.3093 19.2026C20.3372 19.779 20.3651 20.3555 20.393 20.9321C20.399 21.0552 20.392 21.1884 20.4163 21.31C20.4589 21.5224 20.6541 21.6848 20.8714 21.6837C21.091 21.6826 21.286 21.5152 21.3231 21.2992C21.344 21.1783 21.3393 21.0495 21.3456 20.9274C21.3593 20.6621 21.3731 20.3967 21.3867 20.1314C21.4157 19.5716 21.4448 19.0118 21.4737 18.452C21.477 18.3877 21.4804 18.3233 21.4837 18.2591C21.4843 18.2479 21.4848 18.2367 21.4854 18.2255C21.4853 18.2284 21.5311 18.2136 21.5319 18.2302C21.5387 18.3693 21.5453 18.5084 21.5522 18.6475C21.5807 19.2371 21.6091 19.8268 21.6378 20.4164C21.6487 20.6429 21.6597 20.8694 21.6706 21.0959C21.6729 21.1431 21.6752 21.1902 21.6775 21.2373C21.6851 21.3952 21.7719 21.5399 21.9084 21.6203C22.1001 21.7334 22.3476 21.6872 22.4904 21.5179C22.5629 21.432 22.5944 21.3288 22.6001 21.2186C22.6089 21.051 22.6174 20.8836 22.6262 20.7161C22.657 20.1199 22.6879 19.5238 22.7187 18.9276C22.7294 18.723 22.7399 18.5186 22.7505 18.3141C22.7508 18.3093 22.7542 18.2247 22.7554 18.2247C22.869 18.2247 22.9827 18.2247 23.0962 18.2247C23.2119 18.2247 23.3682 18.2492 23.4687 18.1797C23.5659 18.1125 23.5909 17.9999 23.5671 17.8909C23.5339 17.7389 23.5006 17.5869 23.4674 17.4349C23.3411 16.8571 23.2147 16.2792 23.0884 15.7014C23.004 15.3159 22.8254 14.5373 22.8254 14.5373L22.8262 14.2412C23.077 14.8021 23.1469 15.4216 23.2078 16.026C23.2179 16.1267 23.242 16.2175 23.3116 16.2947C23.3834 16.3744 23.4865 16.4239 23.5939 16.4273C23.8127 16.4343 24.0011 16.2485 24 16.0301C23.9996 15.9762 23.9993 15.9222 23.999 15.8683Z" fill="#FF832B"/>
<path id="Vector_4" d="M2.49845 11.6149C2.92671 11.6149 3.33613 11.4031 3.58414 11.0539C3.83554 10.6999 3.89767 10.2328 3.74789 9.82511C3.60226 9.42885 3.26689 9.11789 2.86047 9.00331C2.44289 8.88553 1.98364 8.98242 1.64975 9.25933C1.31805 9.53433 1.13809 9.9612 1.17204 10.3907C1.20566 10.815 1.44823 11.205 1.81259 11.4247C2.01888 11.5491 2.25764 11.6149 2.49845 11.6149Z" fill="#FF832B"/>
<path id="Vector_5" d="M8.66013 6.11597C9.52504 6.11597 10.316 5.54947 10.5935 4.72991C10.874 3.90162 10.5808 2.96346 9.88135 2.44017C9.18071 1.91597 8.19258 1.90371 7.47926 2.41065C6.76737 2.91654 6.45165 3.84649 6.71096 4.68127C6.96722 5.50641 7.74296 6.09293 8.60644 6.11525C8.62437 6.11578 8.64225 6.11597 8.66013 6.11597Z" fill="#FF832B"/>
</g>
</g>
</g>
<defs>
<clipPath id="clip0_545_143216">
<rect width="24" height="24" fill="white"/>
</clipPath>
</defs>
</svg>
