<svg width="40" height="40" viewBox="0 0 40 40" fill="none" xmlns="http://www.w3.org/2000/svg">
<g id="fi_10426214">
<path id="Vector" d="M7.84375 19.1172C8.6875 15.6172 10.1641 9.44531 11 5.94531C11.0547 5.71094 11.2422 5.51563 11.4766 5.46094L15.6094 4.35938L16.0156 5.625L12.2031 6.64062C11.4141 9.92969 10 15.7969 9.21094 19.1094C8.75781 19.0312 8.30469 19.0234 7.84375 19.1172ZM17.2109 16.8203C20.3906 14.8438 23.7344 14.4375 26.625 14.8047C26.7969 13.8438 27.375 13.0156 28.4766 13.0625C28.4375 12.5781 28.4531 12.1172 28.5313 11.6484C28.125 10.1953 26.25 9.94531 25.1016 10.9453C25.0078 11.0313 24.8906 11.0625 24.7656 11.0547C24.6406 11.0469 24.5312 10.9766 24.4609 10.8828C24.0078 10.2734 23.3281 9.94531 22.7734 10.0547C21.7344 10.3047 21.3047 11.6875 21.6406 12.6875C21.7734 13.0781 21.2734 13.4297 20.9531 13.1719C19.8281 12.3516 18.1797 13.0781 18.3203 14.7812C18.3438 14.9922 18.2109 15.1953 18 15.25C17.3516 15.4219 16.8906 16.2109 17.2109 16.8203ZM28.0234 14.0312C27.2656 14.4688 27.3906 16.0078 27.7188 16.7891C27.8828 17.0703 27.7969 17.4766 27.4453 17.5391C25.4297 17.8906 26.0859 20.5156 26.9141 21.7578H31.2422L32 19.5078L30.6406 14.1172C30.5781 13.875 30.7266 13.6406 30.9609 13.5781C31.1953 13.5156 31.4375 13.6641 31.5 13.8984L32.5156 17.9531L33.6172 14.6797L33.0391 11.9062C32.9297 11.3359 33.7891 11.1641 33.9062 11.7266L34.1719 13.0078L34.8438 11.0078C35.0234 10.4531 35.8672 10.7422 35.6797 11.2891L34.0312 16.25L37.4375 14.9062C37.9766 14.6953 38.2969 15.5156 37.7656 15.7344L33.6641 17.3438L32.1797 21.7578H36.0703C37.2344 21.4219 38.0547 20.5703 38.0391 19.7266C38.0312 19.5469 37.9844 19.1797 37.6562 18.7656C37.5 18.5781 37.5391 18.2656 37.75 18.125C39.5547 16.8594 40.2266 15.2344 39.8125 14.4531C39.7266 14.2969 39.4922 14.0078 38.8672 13.8125C38.75 13.7734 38.6484 13.6953 38.5938 13.5781C38.5391 13.4688 38.5391 13.3359 38.5859 13.2188C39.0312 12.1484 38.9453 11.0859 38.375 10.5859C38.2031 10.4375 37.9844 10.3359 37.7266 10.2812C37.4453 10.2344 37.2891 9.90625 37.4141 9.65625C38.1406 7.98438 36.0469 6.76562 35.1094 8.49219C35.0078 8.71875 34.6875 8.8125 34.4766 8.66406C34.3516 8.58594 33.9219 8.34375 33.4453 8.47656C32.9141 8.625 32.5312 9.17188 32.5 9.8125C32.5 10.1406 32.1094 10.3594 31.8281 10.1797C29.6953 8.91406 29.1094 11.9609 29.4375 13.5156C29.5078 13.8359 29.1641 14.1328 28.8594 14.0156C28.6172 13.9297 28.1563 13.9219 28.0234 14.0312ZM25.3906 18.2266C24.9922 19.3984 25.3438 20.6875 25.8906 21.7656H13.4922C16.2188 17.1953 21.9375 14.9297 26.5859 15.7031C26.6094 16.0781 26.6797 16.4687 26.7891 16.8125C26.1094 17.0391 25.625 17.5547 25.3906 18.2266ZM16.6562 19.3672C15.9922 19.375 15.9922 20.3672 16.6562 20.3828C17.3281 20.375 17.3359 19.3828 16.6562 19.3672ZM20.0391 20.2031C19.375 20.2109 19.375 21.2031 20.0391 21.2188C20.7109 21.2031 20.7109 20.2188 20.0391 20.2031ZM20.7031 17.2734C20.0391 17.2812 20.0391 18.2734 20.7031 18.2891C21.375 18.2812 21.375 17.2812 20.7031 17.2734ZM23.8906 19.6953C23.2266 19.7031 23.2266 20.6953 23.8906 20.7109C24.5547 20.7031 24.5547 19.7109 23.8906 19.6953ZM24.0547 16.2578C23.3828 16.2656 23.3828 17.2578 24.0547 17.2734C24.7188 17.2656 24.7188 16.2734 24.0547 16.2578ZM18.2812 33.5391C18.5703 33.7031 18.5391 34.1641 18.2422 34.3047C17.6953 34.5781 17.3125 35.0703 17.1875 35.6328H33.7891C33.6562 35.0625 33.2812 34.5703 32.7344 34.3047C32.5938 34.2344 32.4922 34.0859 32.4844 33.9297C32.4766 33.7734 32.5547 33.6172 32.6953 33.5391C36.4688 31.1328 38.7734 27.0859 38.9219 22.6406H12.0625C12.1797 27.0312 14.5547 31.1875 18.2812 33.5391ZM11.6094 21.7578H12.4609C12.6328 21.4609 12.8125 21.1641 13.0156 20.875C10.8516 21.1172 10.0078 19.7812 8.15625 19.9609C6.04688 20.2422 5.46094 22.8359 2.96094 22.2422C2.27344 22.1016 1.57812 21.6562 1.02344 21.1562L2.59375 34.5703C2.66406 35.1797 3.17969 35.6406 3.79687 35.6406H12.4063C13.0156 35.6406 13.5312 35.1875 13.6094 34.5703C13.6094 34.5703 14.0547 30.8047 14.0469 30.8047C12.3828 28.6172 11.3906 25.9375 11.2109 23.1953C11.2266 22.7266 10.9141 21.8203 11.6094 21.7578ZM3.66406 21.4297C5.02344 21.3828 5.61719 19.9922 6.85156 19.4453L8.42969 12.8594H0.34375C0.15625 12.8828 0.0703125 12.9688 0.0703125 13.1719L0.835938 19.6953C1.53906 20.5547 2.49219 21.4297 3.66406 21.4297ZM11.6328 12.8594L10.0703 19.3516C11.0937 19.8203 12.3906 20.2344 13.7578 19.875V19.8672C14.3047 19.2188 14.8828 18.6094 15.5313 18.0547L16.1094 13.1641C16.1094 12.9688 16.0234 12.875 15.8359 12.8516H11.6328V12.8594Z" fill="#12B76A"/>
</g>
</svg>
