<svg width="41" height="40" viewBox="0 0 41 40" fill="none" xmlns="http://www.w3.org/2000/svg">
<g id="fi_11289051">
<path id="Vector" fill-rule="evenodd" clip-rule="evenodd" d="M20.3239 8.20499C20.9356 9.03635 21.2214 10.0051 21.3819 11.0519L19.9178 12.2464C18.8648 12.9483 16.9946 13.9396 16.1321 12.8586C14.9588 11.394 16.1371 7.29491 18.3433 7.29491C19.0754 7.29491 19.7774 7.72915 20.3239 8.20499ZM22.851 14.9575C22.7307 13.8523 22.7056 12.651 22.5852 11.5319L25.4583 9.17971C26.3859 8.42259 27.4188 8.16483 28.0355 8.53787C28.5419 8.84171 28.7074 9.59835 28.5019 10.6147L27.8651 12.831C26.8723 12.8376 25.8695 13.1188 24.8616 13.6748C24.1747 14.0635 23.5079 14.4911 22.851 14.9575ZM31.2847 17.811C31.6207 16.6693 31.2847 15.1254 29.3292 14.2079C29.1187 14.1367 28.908 14.081 28.7024 14.0414L27.0427 19.8327C27.2433 19.8793 27.4539 19.9214 27.6745 19.9585C29.6251 20.2453 30.9087 19.0464 31.2847 17.811ZM27.5342 13.9787C26.8423 14.0368 26.1403 14.2655 25.4132 14.6656C24.6059 15.1224 23.8238 15.6363 23.0716 16.211C23.4226 17.642 24.1697 18.8133 25.9547 19.5037L27.5342 13.9787ZM25.6489 20.5999L25.5787 20.817C25.1976 21.7035 24.7212 22.2339 24.1597 22.3914C23.5028 22.5759 22.6304 22.2886 21.5824 21.5365L19.4063 19.6953C20.2787 18.6844 21.1763 17.7849 22.1039 16.9872C22.6655 18.7306 23.7586 19.9003 25.6489 20.5999ZM14.5576 17.0794L17.7817 19.804C16.6435 20.9122 15.4401 21.4175 13.961 21.4175C13.6651 21.4175 13.4746 21.3815 13.2841 21.0611C12.7576 20.1821 12.9933 18.1675 13.4145 17.3943C13.7504 16.8889 14.0563 16.8041 14.5576 17.0794ZM27.4991 21.0802C30.0061 21.4517 31.8463 19.8793 32.3678 18.1354C32.8241 16.6066 32.4179 14.3879 29.7755 13.1649C29.6351 13.0967 29.1687 12.9804 29.0133 12.9468L29.605 10.8655C29.9209 9.33971 29.5649 8.13731 28.6272 7.56723C27.5793 6.93643 26.06 7.22379 24.7413 8.30179L22.3847 10.2312C22.1741 9.25499 21.8281 8.31835 21.2013 7.47851C21.1763 7.44843 21.1511 7.41987 21.1211 7.39427C18.6541 5.21067 16.8491 6.43859 16.1872 7.06939C15.395 7.82499 14.8183 8.99483 14.6127 10.2759C14.4022 11.6036 14.6278 12.8035 15.2445 13.5671C15.8612 14.3388 17.3705 15.314 20.5745 13.1756L21.5272 12.3994C21.5974 13.4643 21.6526 14.7324 21.818 15.7493C20.6799 16.6779 19.5867 17.7439 18.5438 18.9623C18.1727 18.651 15.2896 16.19 15.1693 16.1199C14.1113 15.5162 13.1286 15.7599 12.4567 16.7898C12.4516 16.8003 12.4467 16.8113 12.4366 16.8219C11.8499 17.8558 11.5039 20.3077 12.3062 21.6455C12.6722 22.2441 13.2388 22.5671 13.9107 22.5525H13.9608C16.1921 22.5525 17.6612 21.5351 18.649 20.5403L20.9054 22.4452C21.9533 23.1999 22.906 23.5789 23.7584 23.5789C24.0041 23.5789 24.2398 23.5478 24.4654 23.4847C25.383 23.2275 26.1151 22.4693 26.6415 21.2298L26.7318 20.9255L27.4991 21.0802ZM29.6602 30.0579C30.6579 25.3903 34.7996 23.7356 34.7996 16.5585C34.7996 8.39603 30.6479 3.13075 23.6984 2.47387C23.6984 2.47339 23.6934 2.47339 23.6934 2.47339C17.6614 1.86267 12.0356 5.89555 10.6166 11.8518C10.5363 12.1822 10.5514 12.7528 10.5615 13.2101C10.5815 13.9727 10.5765 14.4912 10.1252 15.1967L6.19922 21.3209C8.96698 22.6195 9.36314 22.945 9.36314 23.4489V30.5058C9.36314 30.6402 9.42834 30.7464 9.5537 30.8307C10.1303 30.962 13.5099 30.8883 14.7984 30.8598C15.3048 30.8492 15.706 30.8403 15.9015 30.8403C16.2124 30.8403 16.4681 31.0935 16.4681 31.4074V37.5878H31.3499C29.8055 34.2773 29.2691 31.8755 29.6602 30.0579Z" fill="#002364"/>
</g>
</svg>
