<svg width="40" height="40" viewBox="0 0 40 40" fill="none" xmlns="http://www.w3.org/2000/svg">
<g clip-path="url(#clip0_1509_19115)">
<path d="M9.375 29.4531V22.4219C9.375 21.7753 8.84969 21.25 8.20312 21.25H0V30.625H8.20312C8.84969 30.625 9.375 30.0997 9.375 29.4531Z" fill="#DD54FF"/>
<path d="M5.85938 0C5.21164 0 4.6875 0.524141 4.6875 1.17188V4.84375H11.7188V1.17188C11.7188 0.524141 11.1946 0 10.5469 0H5.85938Z" fill="#DD54FF"/>
<path d="M11.7188 11.9929V7.1875H4.6875V11.9929C2.01648 12.5376 0 14.9042 0 17.7344V18.9062H8.20312C10.1417 18.9062 11.7188 20.4833 11.7188 22.4219V29.4531C11.7188 31.3917 10.1417 32.9688 8.20312 32.9688H0V38.8281C0 39.4759 0.524141 40 1.17188 40H15.2344C15.8821 40 16.4062 39.4759 16.4062 38.8281V17.7344C16.4062 14.9042 14.3898 12.5376 11.7188 11.9929Z" fill="#DD54FF"/>
<path d="M18.9062 10.7031V13.0469C18.9062 13.6946 19.4304 14.2188 20.0781 14.2188H25.9375V9.53125H20.0781C19.4304 9.53125 18.9062 10.0554 18.9062 10.7031Z" fill="#DD54FF"/>
<path d="M38.8281 9.53125H28.2812V14.2188H38.8281C39.4759 14.2188 40 13.6946 40 13.0469V10.7031C40 10.0554 39.4759 9.53125 38.8281 9.53125Z" fill="#DD54FF"/>
<path d="M36.4844 2.34375H29.4531C28.8066 2.34375 28.2812 1.81844 28.2812 1.17188C28.2812 0.524141 27.7571 0 27.1094 0C26.4616 0 25.9375 0.524141 25.9375 1.17188C25.9375 3.11047 27.5145 4.6875 29.4531 4.6875H36.4844C37.1309 4.6875 37.6562 5.21281 37.6562 5.85938C37.6562 6.50711 38.1804 7.03125 38.8281 7.03125C39.4759 7.03125 40 6.50711 40 5.85938C40 3.92078 38.423 2.34375 36.4844 2.34375Z" fill="#DD54FF"/>
<path d="M29.4531 18.9062C23.6373 18.9062 18.9062 23.6373 18.9062 29.4531C18.9062 35.3116 23.7091 40 29.4531 40C35.269 40 40 35.269 40 29.4531C40 23.6521 35.2787 18.9062 29.4531 18.9062ZM21.25 29.4531C21.25 24.9304 24.9304 21.25 29.4531 21.25C31.2919 21.25 32.9734 21.8803 34.3429 22.9063L22.9063 34.3429C21.8803 32.9734 21.25 31.2919 21.25 29.4531ZM29.4531 37.6562C27.6144 37.6562 25.9329 37.0259 24.5634 36L36 24.5634C37.0259 25.9329 37.6562 27.6144 37.6562 29.4531C37.6562 33.9759 33.9759 37.6562 29.4531 37.6562Z" fill="#DD54FF"/>
</g>
<defs>
<clipPath id="clip0_1509_19115">
<rect width="40" height="40" fill="white"/>
</clipPath>
</defs>
</svg>
