<svg width="40" height="40" viewBox="0 0 40 40" fill="none" xmlns="http://www.w3.org/2000/svg">
<g id="fi_6162961">
<path id="Vector" d="M8.34107 9.49306C8.17441 9.43308 7.98772 9.43976 7.82773 9.51975L4.72108 11.0064C4.42107 11.1464 4.27442 11.4864 4.36773 11.7997C5.30775 14.9197 6.76775 16.8664 8.19439 18.0931C6.90772 21.0397 6.88775 24.5464 8.14776 27.5731C9.84775 31.6397 13.7011 34.8731 18.4411 36.2197C19.4877 36.5198 20.4544 36.6664 21.3277 36.6664C22.5811 36.6664 23.6544 36.3664 24.5344 35.7597C26.4211 34.4664 27.0077 32.0664 27.3144 30.1131C27.3411 29.9464 27.3611 29.7864 27.3877 29.6264H21.0477C20.3344 29.6264 19.7011 29.2664 19.3344 28.6664C18.9877 28.1331 18.9411 27.3797 19.2477 26.7531L24.4944 16.2664C23.4144 15.0797 22.1277 14.1931 20.7411 13.6998C21.4544 13.0664 22.4277 12.5664 23.7278 12.2531C23.9077 12.2131 24.0611 12.0998 24.1478 11.9398C24.2411 11.7798 24.2611 11.5931 24.2077 11.4197L23.0277 7.47308C22.9344 7.1664 22.6411 6.97308 22.3144 7.00641C22.1411 7.02643 18.0011 7.54641 15.0677 12.5864C14.4944 13.5731 14.1411 14.5931 13.8011 15.5731C13.7944 15.5931 13.7877 15.6131 13.7744 15.6397C10.5544 13.7798 8.74106 9.88641 8.72108 9.83974C8.64776 9.67975 8.50774 9.55308 8.34107 9.49306Z" fill="#0043B3"/>
<path id="Vector_2" d="M9.93346 9.27983C10.3001 10.0798 11.4668 12.0732 13.1334 13.5332C13.3468 12.9998 13.6001 12.4531 13.9134 11.9198C15.1001 9.87981 16.4668 8.50648 17.7468 7.5798C17.9401 6.25314 18.3535 5.30649 18.3668 5.29314C18.4401 5.13315 18.4468 4.9465 18.3801 4.77983C18.3135 4.61317 18.1868 4.47983 18.0268 4.4065L15.6601 3.38648C15.3601 3.25981 15.0135 3.3665 14.8334 3.63982L13.4801 5.72649L13.0801 4.43315C12.9735 4.08647 12.6134 3.88648 12.2601 3.9865L9.40009 4.77316C9.2001 4.82646 9.04011 4.97315 8.96011 5.16647C8.88679 5.35983 8.90009 5.57317 9.00678 5.75314C9.60012 6.75981 9.84011 8.01315 9.89346 9.19984C9.90676 9.22649 9.92011 9.25314 9.93346 9.27983Z" fill="#0043B3"/>
<path id="Vector_3" d="M27.4279 13.3798L20.4479 27.3332C20.3479 27.5398 20.3546 27.7865 20.4812 27.9799C20.6012 28.1799 20.8146 28.2932 21.0479 28.2932H34.9946C35.2279 28.2932 35.4412 28.1799 35.5612 27.9799C35.6879 27.7865 35.6945 27.5398 35.5946 27.3332L28.6212 13.3798C28.5079 13.1532 28.2746 13.0132 28.0279 13.0132C27.7746 13.0132 27.5412 13.1532 27.4279 13.3798ZM28.6876 25.9959H27.3543V24.8091H28.6876V25.9959ZM28.6876 18.2498V23.7381H27.3543V18.2498H28.6876Z" fill="#0043B3"/>
</g>
</svg>
