<svg width="212" height="37" viewBox="0 0 212 37" fill="none" xmlns="http://www.w3.org/2000/svg">
<rect width="2.83673" height="10" rx="1.41837" transform="matrix(1 0 0 -1 45.0815 37)" fill="#282828" fill-opacity="0.28"/>
<rect width="3" height="18" rx="1.5" transform="matrix(1 0 0 -1 55.9185 37)" fill="#282828" fill-opacity="0.28"/>
<rect width="3" height="18" rx="1.5" transform="matrix(1 0 0 -1 66.9185 37)" fill="#282828" fill-opacity="0.4"/>
<rect width="2" height="18" rx="1" transform="matrix(1 0 0 -1 77.9185 37)" fill="#282828" fill-opacity="0.7"/>
<rect width="3" height="18" rx="1.5" transform="matrix(1 0 0 -1 87.9185 37)" fill="#282828"/>
<rect width="3" height="18" rx="1.5" transform="matrix(1 0 0 -1 98.9185 37)" fill="#282828"/>
<rect width="3" height="18" rx="1.5" transform="matrix(1 0 0 -1 109.918 37)" fill="#282828"/>
<rect width="3" height="35" rx="1.5" transform="matrix(1 0 0 -1 120.918 37)" fill="#0073DE"/>
<rect width="3" height="18" rx="1.5" transform="matrix(1 0 0 -1 131.918 37)" fill="#282828" fill-opacity="0.6"/>
<rect width="3" height="18" rx="1.5" transform="matrix(1 0 0 -1 142.918 37)" fill="#282828" fill-opacity="0.3"/>
<rect width="2" height="18" rx="1" transform="matrix(1 0 0 -1 153.918 37)" fill="#282828" fill-opacity="0.3"/>
<rect width="3" height="18" rx="1.5" transform="matrix(1 0 0 -1 163.918 37)" fill="#282828" fill-opacity="0.3"/>
</svg>
