<svg width="40" height="40" viewBox="0 0 40 40" fill="none" xmlns="http://www.w3.org/2000/svg">
<g id="fi_2739060" clip-path="url(#clip0_80_239661)">
<g id="Page-1">
<g id="039---LDL">
<path id="Shape" d="M4.66602 28C3.56145 28 2.66602 28.8954 2.66602 30C2.66602 30.3682 2.96449 30.6667 3.33268 30.6667C3.70087 30.6667 3.99935 30.3682 3.99935 30C3.99935 29.6318 4.29783 29.3333 4.66602 29.3333C5.03421 29.3333 5.33268 29.0349 5.33268 28.6667C5.33268 28.2985 5.03421 28 4.66602 28Z" fill="#004EBA"/>
<path id="Shape_2" d="M11.2595 32.2533C10.4998 32.1109 9.75018 31.9189 9.01551 31.6787C9.67613 29.983 9.28798 28.0579 8.02192 26.7506C6.75586 25.4434 4.8441 24.9939 3.12818 25.6C3.16284 22.49 6.10818 19.0407 10.8395 16.514C11.1528 15.8473 11.4928 15.1807 11.8528 14.5273C5.29551 17.5027 1.38484 22.0887 1.83618 26.298C0.396184 27.3942 -0.279195 29.2247 0.103804 30.9935C0.486803 32.7622 1.85895 34.1494 3.62341 34.5517C5.38787 34.954 7.2257 34.2986 8.33751 32.8707C9.73152 33.3347 11.1717 33.6463 12.6328 33.8C12.1318 33.3245 11.6724 32.8071 11.2595 32.2533ZM4.66618 33.3333C2.82523 33.3333 1.33284 31.841 1.33284 30C1.33284 28.1591 2.82523 26.6667 4.66618 26.6667C6.50712 26.6667 7.99951 28.1591 7.99951 30C7.99731 31.84 6.50621 33.3311 4.66618 33.3333Z" fill="#004EBA"/>
<path id="Shape_3" d="M39.1473 17.5334C40.3655 16.1761 40.261 14.0905 38.9134 12.8617C37.5658 11.6329 35.4794 11.7208 34.24 13.0587C32.6112 12.3727 30.8939 11.9198 29.1387 11.7134C29.4453 12.2 29.752 12.7 30.0587 13.2067C31.2535 13.4099 32.422 13.7453 33.5427 14.2067C33.4072 14.5671 33.3359 14.9484 33.332 15.3334C33.3342 17.1734 34.8253 18.6645 36.6653 18.6667C37.1384 18.6653 37.6057 18.562 38.0353 18.364C38.0767 18.4914 38.1193 18.6167 38.152 18.7534C38.7453 21.3467 37.0987 24.3267 33.7653 26.8867C33.6399 27.5792 33.4548 28.2595 33.212 28.92C37.872 25.8534 40.2453 21.9267 39.4453 18.4534C39.3718 18.1389 39.2721 17.8312 39.1473 17.5334ZM34.6653 15.3334C34.6653 14.2288 35.5608 13.3334 36.6653 13.3334C37.7699 13.3334 38.6653 14.2288 38.6653 15.3334C38.6653 16.4379 37.7699 17.3334 36.6653 17.3334C35.5608 17.3334 34.6653 16.4379 34.6653 15.3334Z" fill="#004EBA"/>
<path id="Shape_4" d="M19.9993 10V13.3333C19.9993 13.7015 19.7009 14 19.3327 14H18.666L21.3327 17.5533L23.9993 14H23.3327C22.9645 14 22.666 13.7015 22.666 13.3333V10H19.9993Z" fill="#004EBA"/>
<path id="Shape_5" d="M20.8339 4.22793C18.6465 6.73326 9.99855 17.0893 9.99855 24.4526C9.9401 30.7707 15.0138 35.9402 21.3319 35.9999C27.6499 35.9402 32.7237 30.7707 32.6652 24.4526C32.6652 17.0893 24.0172 6.73326 21.8299 4.22793C21.7049 4.0832 21.5231 4 21.3319 4C21.1406 4 20.9589 4.0832 20.8339 4.22793ZM17.3319 27.9999H13.3319C12.9637 27.9999 12.6652 27.7015 12.6652 27.3333V20.6666C12.6652 20.2984 12.9637 19.9999 13.3319 19.9999C13.7001 19.9999 13.9985 20.2984 13.9985 20.6666V26.6666H17.3319C17.7001 26.6666 17.9985 26.9651 17.9985 27.3333C17.9985 27.7015 17.7001 27.9999 17.3319 27.9999ZM23.9985 25.3333C23.9985 26.806 22.8046 27.9999 21.3319 27.9999H19.3319C18.9637 27.9999 18.6652 27.7015 18.6652 27.3333V20.6666C18.6652 20.2984 18.9637 19.9999 19.3319 19.9999H21.3319C22.8046 19.9999 23.9985 21.1938 23.9985 22.6666V25.3333ZM25.3319 20.6666C25.3319 20.2984 25.6304 19.9999 25.9985 19.9999C26.3667 19.9999 26.6652 20.2984 26.6652 20.6666V26.6666H29.9985C30.3667 26.6666 30.6652 26.9651 30.6652 27.3333C30.6652 27.7015 30.3667 27.9999 29.9985 27.9999H25.9985C25.6304 27.9999 25.3319 27.7015 25.3319 27.3333V20.6666ZM23.9985 9.99993V12.6666C24.5036 12.6666 24.9653 12.9519 25.1911 13.4036C25.417 13.8554 25.3682 14.3959 25.0652 14.7999L22.3985 18.3559C22.1474 18.693 21.7514 18.8914 21.331 18.8907C20.9106 18.8901 20.5153 18.6905 20.2652 18.3526L17.5985 14.8026C17.2939 14.3986 17.2443 13.8569 17.4703 13.4042C17.6964 12.9516 18.1592 12.6658 18.6652 12.6666V9.99993C18.6652 9.26355 19.2622 8.6666 19.9985 8.6666H22.6652C23.4016 8.6666 23.9985 9.26355 23.9985 9.99993Z" fill="#004EBA"/>
<path id="Shape_6" d="M21.3333 21.3333H20V26.6666H21.3333C22.0697 26.6666 22.6667 26.0696 22.6667 25.3333V22.6666C22.6667 21.9302 22.0697 21.3333 21.3333 21.3333Z" fill="#004EBA"/>
</g>
</g>
</g>
<defs>
<clipPath id="clip0_80_239661">
<rect width="40" height="40" fill="white"/>
</clipPath>
</defs>
</svg>
