<svg width="41" height="40" viewBox="0 0 41 40" fill="none" xmlns="http://www.w3.org/2000/svg">
<g id="fi_4807583" clip-path="url(#clip0_80_239673)">
<g id="Group">
<g id="Group_2">
<path id="Vector" d="M25.0048 18.318C23.039 16.3477 21.956 13.7266 21.956 10.9383C21.956 10.2703 22.0193 9.61719 22.1396 8.98359C19.9831 9.06875 17.8228 9.94297 15.9952 11.7703C14.0755 9.85078 11.8675 8.98047 9.48289 8.98047C7.08188 8.98047 4.82461 9.91484 3.12758 11.6117C-0.375859 15.1148 -0.375859 20.8148 3.12758 24.3188L15.167 36.3562C15.6265 36.8156 16.3671 36.8141 16.825 36.3562L28.8629 24.3195C29.7419 23.4414 30.4201 22.4062 30.8685 21.2711C28.6535 20.9484 26.6112 19.9281 25.0048 18.318ZM24.089 22.6617H20.4824L18.1619 27.0516C17.6926 27.9414 16.3944 27.8613 16.0327 26.9266L13.0707 19.2688L11.5901 22.0414C11.3862 22.4234 10.9884 22.6617 10.5564 22.6617H7.14125C6.49352 22.6617 5.9693 22.1367 5.9693 21.4898C5.9693 20.8422 6.49359 20.318 7.14125 20.318H9.8532L12.2073 15.9086C12.6794 15.0277 13.9725 15.1034 14.3349 16.0383L17.2915 23.6828L18.7401 20.9422C18.9432 20.5578 19.3417 20.318 19.7761 20.318H24.089C24.7367 20.318 25.2609 20.8422 25.2609 21.4898C25.261 22.1367 24.7367 22.6617 24.089 22.6617Z" fill="#FF832B"/>
</g>
<g id="Group_3">
<path id="Vector_2" d="M33.512 10.9719C33.512 11.6024 32.9986 12.1157 32.3673 12.1157C31.7359 12.1157 31.2227 11.6024 31.2227 10.9719C31.2227 10.3407 31.736 9.82739 32.3673 9.82739C32.9987 9.82739 33.512 10.3407 33.512 10.9719Z" fill="#FF832B"/>
<path id="Vector_3" d="M32.4008 2.83984C27.9777 2.83984 24.3008 6.41953 24.3008 10.9383C24.3008 15.4047 27.9059 19.0375 32.4008 19.0375C36.8677 19.0375 40.5008 15.4047 40.5008 10.9383C40.5008 6.47266 36.8676 2.83984 32.4008 2.83984ZM36.2027 8.79453L35.5198 9.47734C35.7355 9.93047 35.8566 10.4375 35.8566 10.9719C35.8566 12.8945 34.2916 14.4594 32.3679 14.4594C30.4443 14.4594 28.8793 12.8945 28.8793 10.9719C28.8793 9.04844 30.4443 7.48359 32.3679 7.48359C32.9023 7.48359 33.4086 7.60469 33.8618 7.82031L34.5447 7.1375C35.0026 6.67969 35.7448 6.67969 36.2027 7.1375C36.6605 7.59531 36.6605 8.33672 36.2027 8.79453Z" fill="#FF832B"/>
</g>
<g id="Group_4">
<path id="Vector_4" d="M35.7902 33.0968C35.7285 35.7647 33.6244 37.1601 31.5781 37.1601C29.5326 37.1601 27.4285 35.7647 27.3668 33.0968C27.366 33.0468 27.3652 32.9976 27.3652 32.9476C27.3652 29.2413 30.5437 25.4116 30.6812 25.2483C30.9038 24.9835 31.232 24.8296 31.5789 24.8296C31.7523 24.8296 31.9211 24.8679 32.0742 24.9397C32.2273 25.0108 32.3648 25.1155 32.4766 25.2483C32.6149 25.414 35.8777 29.3444 35.7902 33.0968Z" fill="#FF832B"/>
</g>
</g>
</g>
<defs>
<clipPath id="clip0_80_239673">
<rect width="40" height="40" fill="white" transform="translate(0.5)"/>
</clipPath>
</defs>
</svg>
