<svg width="20" height="21" viewBox="0 0 20 21" fill="none" xmlns="http://www.w3.org/2000/svg">
<path fill-rule="evenodd" clip-rule="evenodd" d="M10.0007 2.99992C5.85851 2.99992 2.50065 6.35778 2.50065 10.4999C2.50065 14.6421 5.85851 17.9999 10.0007 17.9999C14.1428 17.9999 17.5006 14.6421 17.5006 10.4999C17.5006 6.35778 14.1428 2.99992 10.0007 2.99992ZM0.833984 10.4999C0.833984 5.43731 4.93804 1.33325 10.0007 1.33325C15.0633 1.33325 19.1673 5.43731 19.1673 10.4999C19.1673 15.5625 15.0633 19.6666 10.0007 19.6666C4.93804 19.6666 0.833984 15.5625 0.833984 10.4999ZM9.16732 7.16658C9.16732 6.70635 9.54041 6.33325 10.0007 6.33325H10.009C10.4692 6.33325 10.8423 6.70635 10.8423 7.16658C10.8423 7.62682 10.4692 7.99992 10.009 7.99992H10.0007C9.54041 7.99992 9.16732 7.62682 9.16732 7.16658ZM10.0007 9.66658C10.4609 9.66658 10.834 10.0397 10.834 10.4999V13.8333C10.834 14.2935 10.4609 14.6666 10.0007 14.6666C9.54041 14.6666 9.16732 14.2935 9.16732 13.8333V10.4999C9.16732 10.0397 9.54041 9.66658 10.0007 9.66658Z" fill="#004EBA"/>
</svg>
