<svg width="41" height="40" viewBox="0 0 41 40" fill="none" xmlns="http://www.w3.org/2000/svg">
<g id="fi_10699" clip-path="url(#clip0_1509_19134)">
<g id="Group">
<g id="Group_2">
<path id="Vector" d="M32.8958 0.00914172C26.483 0.574307 21.7509 3.77519 18.9923 8.40256C17.1436 10.7201 13.4506 17.7957 12.1075 21.4997C9.67225 26.1057 7.54868 31.586 5.88681 36.5263C4.87093 39.5474 9.43235 41.5184 10.454 38.4837C11.6969 34.7875 13.1984 30.7913 14.8952 27.0828C16.579 30.8514 18.2901 34.6077 20.1272 38.3046C21.5511 41.1744 25.8357 38.6577 24.417 35.7976C22.5256 31.9921 20.7686 28.1258 19.0376 24.2466C19.0596 24.1716 19.0874 24.0985 19.1106 24.0241C19.399 24.1063 19.7172 24.1315 20.0677 24.0649C22.7163 23.5676 25.365 23.0716 28.0156 22.5744C29.1478 22.3616 29.5817 21.1227 29.4032 20.1307C28.8678 17.1581 27.1743 15.0901 25.0662 13.1334C24.7532 12.069 23.7096 11.1275 22.5514 10.1918C24.8994 6.39603 28.7327 4.33583 33.7222 3.89611C36.2687 3.67302 35.4203 -0.212657 32.8958 0.00914172ZM23.2453 16.9053C23.9003 17.5868 24.4577 18.3039 24.8787 19.1342C23.597 19.3748 22.3148 19.6147 21.0331 19.8552C21.6798 18.8141 22.424 17.8312 23.2453 16.9053Z" fill="#004EBA"/>
<path id="Vector_2" d="M28.7294 13.5213C30.6133 13.5213 32.1404 11.9941 32.1404 10.1103C32.1404 8.22639 30.6133 6.69922 28.7294 6.69922C26.8455 6.69922 25.3184 8.22639 25.3184 10.1103C25.3184 11.9941 26.8455 13.5213 28.7294 13.5213Z" fill="#004EBA"/>
</g>
</g>
</g>
<defs>
<clipPath id="clip0_1509_19134">
<rect width="40" height="40" fill="white" transform="translate(0.5)"/>
</clipPath>
</defs>
</svg>
