<svg width="40" height="40" viewBox="0 0 40 40" fill="none" xmlns="http://www.w3.org/2000/svg">
<g clip-path="url(#clip0_1509_19103)">
<path d="M37.6562 24.5312C37.0761 24.5312 36.5197 24.7617 36.1095 25.172C35.6992 25.5822 35.4688 26.1386 35.4688 26.7188V35.7812C35.4688 36.3614 35.6992 36.9178 36.1095 37.328C36.5197 37.7383 37.0761 37.9688 37.6562 37.9688C38.2364 37.9688 38.7928 37.7383 39.203 37.328C39.6133 36.9178 39.8438 36.3614 39.8438 35.7812V26.7188C39.8438 26.1386 39.6133 25.5822 39.203 25.172C38.7928 24.7617 38.2364 24.5312 37.6562 24.5312Z" fill="#02C1E0"/>
<path d="M31.0938 22.6562C30.5136 22.6562 29.9572 22.8867 29.547 23.297C29.1367 23.7072 28.9063 24.2636 28.9062 24.8438V37.6562C28.9063 38.2364 29.1367 38.7928 29.547 39.203C29.9572 39.6133 30.5136 39.8438 31.0938 39.8438C31.6739 39.8438 32.2303 39.6133 32.6405 39.203C33.0508 38.7928 33.2812 38.2364 33.2812 37.6562V24.8438C33.2812 24.2636 33.0508 23.7072 32.6405 23.297C32.2303 22.8867 31.6739 22.6562 31.0938 22.6562Z" fill="#02C1E0"/>
<path d="M2.34375 24.5312C1.76359 24.5312 1.20719 24.7617 0.796954 25.172C0.386718 25.5822 0.15625 26.1386 0.15625 26.7188V35.7812C0.15625 36.3614 0.386718 36.9178 0.796954 37.328C1.20719 37.7383 1.76359 37.9688 2.34375 37.9688C2.92391 37.9688 3.48031 37.7383 3.89055 37.328C4.30078 36.9178 4.53125 36.3614 4.53125 35.7812V26.7188C4.53125 26.1386 4.30078 25.5822 3.89055 25.172C3.48031 24.7617 2.92391 24.5312 2.34375 24.5312Z" fill="#02C1E0"/>
<path d="M13.2812 29.0625H26.7188V33.4375H13.2812V29.0625Z" fill="#02C1E0"/>
<path d="M8.90625 22.6562C8.32609 22.6562 7.76969 22.8867 7.35945 23.297C6.94922 23.7072 6.71875 24.2636 6.71875 24.8438V37.6562C6.71875 38.2364 6.94922 38.7928 7.35945 39.203C7.76969 39.6133 8.32609 39.8438 8.90625 39.8438C9.48641 39.8438 10.0428 39.6133 10.453 39.203C10.8633 38.7928 11.0938 38.2364 11.0938 37.6562V24.8438C11.0938 24.2636 10.8633 23.7072 10.453 23.297C10.0428 22.8867 9.48641 22.6562 8.90625 22.6562Z" fill="#02C1E0"/>
<path d="M22.1931 7.67873C21.7988 8.44131 21.2912 9.13967 20.6875 9.74998C19.6565 10.7509 18.4038 11.4942 17.0312 11.9194V12.5C17.0312 13.3702 16.6855 14.2048 16.0702 14.8202C15.4548 15.4355 14.6202 15.7812 13.75 15.7812C12.8797 15.7812 12.0451 15.4355 11.4298 14.8202C10.8144 14.2048 10.4687 13.3702 10.4687 12.5V6.91623C9.52459 6.71625 8.55106 6.69759 7.59997 6.86123C2.48122 7.76436 -0.75441 13.7675 0.387465 20.2444C0.526064 21.0319 0.727329 21.807 0.98934 22.5625C1.63745 22.3492 2.32673 22.2917 3.00122 22.3947C3.67571 22.4978 4.31638 22.7585 4.87122 23.1556C5.26171 22.2238 5.96268 21.4559 6.85509 20.9822C7.7475 20.5085 8.77634 20.3583 9.76692 20.5571C10.7575 20.7558 11.6488 21.2913 12.2894 22.0726C12.93 22.8539 13.2804 23.8328 13.2812 24.8431V26.875H24.0831C25.6582 24.9695 26.7031 22.6824 27.1125 20.2444C28.0718 14.8025 25.9375 9.70748 22.1931 7.67873Z" fill="#02C1E0"/>
<path d="M10.0631 2.18754C10.8524 2.66419 11.5056 3.33607 11.9599 4.13846C12.4142 4.94086 12.6542 5.84672 12.6568 6.76879V12.5C12.6568 12.7901 12.772 13.0683 12.9772 13.2734C13.1823 13.4786 13.4605 13.5938 13.7506 13.5938C14.0406 13.5938 14.3188 13.4786 14.5239 13.2734C14.7291 13.0683 14.8443 12.7901 14.8443 12.5V10.2013C16.4472 9.98913 17.9468 9.29117 19.1412 8.20129C20.2061 7.03752 20.8961 5.58012 21.1212 4.01879C21.1457 3.87161 21.1347 3.72071 21.0892 3.57863C21.0436 3.43655 20.9648 3.30739 20.8593 3.20189C20.7538 3.09639 20.6247 3.01759 20.4826 2.97205C20.3405 2.92651 20.1896 2.91553 20.0424 2.94004C18.4811 3.16516 17.0237 3.8551 15.8599 4.92004C15.445 5.34075 15.0924 5.81873 14.8131 6.33941C14.7426 5.11625 14.3758 3.92856 13.7443 2.87865C13.1128 1.82873 12.2355 0.948079 11.1881 0.312538C10.9399 0.173111 10.6471 0.13594 10.3719 0.208921C10.0968 0.281902 9.86093 0.459284 9.71446 0.703386C9.568 0.947488 9.52248 1.23907 9.58757 1.5162C9.65266 1.79333 9.82323 2.03416 10.0631 2.18754Z" fill="#02C1E0"/>
</g>
<defs>
<clipPath id="clip0_1509_19103">
<rect width="40" height="40" fill="white"/>
</clipPath>
</defs>
</svg>
