<svg width="110" height="111" viewBox="0 0 110 111" fill="none" xmlns="http://www.w3.org/2000/svg">
<g opacity="0.05" clip-path="url(#clip0_99_137525)">
<path d="M51.7773 35.8906C51.7773 34.1098 50.3355 32.668 48.5547 32.668H43.4438L50.8332 25.2785C51.7555 24.3562 52.0325 22.9715 51.5323 21.7663C51.0346 20.5612 49.8572 19.7773 48.5547 19.7773H35.6641C33.8832 19.7773 32.4414 21.2191 32.4414 23C32.4414 24.7809 33.8832 26.2227 35.6641 26.2227H40.775L33.3855 33.6121C32.4632 34.5344 32.1863 35.9192 32.6865 37.1243C33.1841 38.3294 34.3607 39.1133 35.6641 39.1133H48.5547C50.3355 39.1133 51.7773 37.6715 51.7773 35.8906Z" fill="black"/>
<path d="M58.4688 17.7884C58.9656 18.9935 60.1431 19.7773 61.4455 19.7773H74.3362C76.117 19.7773 77.5588 18.3355 77.5588 16.5547C77.5588 14.7738 76.117 13.332 74.3362 13.332H69.2252L76.6147 5.94258C77.537 5.02026 77.814 3.63553 77.3138 2.43039C76.8161 1.22525 75.6387 0.441406 74.3362 0.441406H61.4455C59.6647 0.441406 58.2229 1.88321 58.2229 3.66406C58.2229 5.44492 59.6647 6.88672 61.4455 6.88672H66.5565L59.167 14.2762C58.2447 15.1985 57.9678 16.5832 58.4688 17.7884Z" fill="black"/>
<path d="M100.332 52.0039H55C49.6692 52.0039 45.332 56.3411 45.332 61.6719V74.5625C45.332 76.3434 46.7738 77.7852 48.5547 77.7852H110V61.6719C110 56.3411 105.663 52.0039 100.332 52.0039Z" fill="black"/>
<path d="M38.8867 74.5625V71.3398H6.44531V35.8906C6.44531 34.1098 5.00351 32.668 3.22266 32.668C1.4418 32.668 0 34.1098 0 35.8906V107.219C0 109 1.4418 110.441 3.22266 110.441C5.00351 110.441 6.44531 109 6.44531 107.219V97.3359H103.555V107.219C103.555 108.999 104.997 110.441 106.777 110.441C108.557 110.441 110 108.999 110 107.219V84.2305H48.5547C43.2155 84.2305 38.8867 79.9017 38.8867 74.5625Z" fill="black"/>
<path d="M38.8867 55.2266C38.8867 60.5658 34.558 64.8945 29.2188 64.8945C23.8795 64.8945 19.5508 60.5658 19.5508 55.2266C19.5508 49.8874 23.8795 45.5586 29.2188 45.5586C34.558 45.5586 38.8867 49.8874 38.8867 55.2266Z" fill="black"/>
</g>
<defs>
<clipPath id="clip0_99_137525">
<rect width="110" height="110" fill="white" transform="translate(0 0.441406)"/>
</clipPath>
</defs>
</svg>
