<svg width="41" height="40" viewBox="0 0 41 40" fill="none" xmlns="http://www.w3.org/2000/svg">
<g id="fi_6903683" clip-path="url(#clip0_80_239685)">
<g id="Group">
<path id="Vector" d="M23.9591 9.295C22.7629 11.1364 22.1516 13.9463 21.8432 16.1275C21.0316 15.5617 19.9666 15.5617 19.1549 16.1275C18.8485 13.9599 18.2381 11.1409 17.0391 9.295C17.5299 8.365 17.7949 7.315 17.7949 6.23667V0.666667C17.7949 0.298333 18.0932 0 18.4616 0H22.5366C22.9049 0 23.2032 0.298333 23.2032 0.666667V6.23667C23.2032 7.315 23.4691 8.365 23.9591 9.295Z" fill="#FA4D56"/>
<path id="Vector_2" d="M37.3889 31.271C37.035 31.8896 36.5292 32.3949 35.9016 32.7497C35.7979 32.8083 35.6852 32.8362 35.5742 32.8362C34.8907 32.8362 34.6507 31.9252 35.2455 31.589C35.5848 31.3972 35.865 31.1468 36.0839 30.8417C35.4902 30.5648 34.9423 30.1931 34.4502 29.7303C34.1819 29.4781 34.1689 29.0562 34.4212 28.7879C34.6733 28.5197 35.0952 28.5067 35.3636 28.7589C36.7671 30.0787 38.6415 30.36 40.3452 29.8046C40.1812 27.2649 39.8937 25.0247 39.5107 23.0492C39.0132 23.1983 38.5453 23.2644 38.1052 23.2644C36.4101 23.2644 35.1194 22.3063 34.0645 21.5233C33.5435 21.1367 32.5206 20.3527 31.8769 20.3527C31.7475 20.3527 31.3433 20.2587 30.6682 20.6887C30.3576 20.8864 29.9455 20.795 29.7477 20.4844C29.55 20.1738 29.6415 19.7617 29.952 19.564C30.3775 19.2931 30.7823 19.1328 31.1695 19.0569C31.1521 18.5522 31.1677 18.0483 31.217 17.5472C30.5724 17.3127 29.9842 16.938 29.4924 16.4438C29.2327 16.1828 29.2337 15.7607 29.4947 15.5011C29.7557 15.2413 30.1779 15.2424 30.4375 15.5034C30.7327 15.8002 31.066 16.0319 31.4326 16.1977C31.4579 16.0833 31.4843 15.969 31.5132 15.8552C31.6036 15.4982 31.9665 15.2823 32.3232 15.3727C32.6801 15.4631 32.8961 15.8257 32.8057 16.1827C32.5622 17.1437 32.463 18.1271 32.5069 19.1125C34.8407 19.7469 36.3083 22.6974 39.235 21.7417C36.4548 9.58807 29.8732 8.42749 27.4934 8.42749C24.5284 8.42749 23.4384 13.9092 23.0526 17.1767C22.5881 21.1056 22.6425 26.218 23.5192 29.9267L25.1692 27.0683C26.4524 24.8464 29.6585 24.8445 30.9426 27.0683C36.7403 37.1092 36.4752 36.5553 36.6351 37.1667C36.7509 37.6058 36.7742 38.06 36.7034 38.505C38.7366 38.2794 40.5009 36.9227 40.5009 34.865C40.5009 33.572 40.4729 32.3427 40.4201 31.1723C39.4008 31.4452 38.3674 31.4678 37.3889 31.271Z" fill="#FA4D56"/>
<path id="Vector_3" d="M17.9483 17.1767C17.5625 13.9092 16.4725 8.42749 13.5075 8.42749C11.1278 8.42749 4.54608 9.58807 1.76583 21.7416C4.694 22.6978 6.16017 19.7467 8.49392 19.1123C8.53783 18.1269 8.43867 17.1437 8.19517 16.1826C8.10475 15.8257 8.32075 15.463 8.67767 15.3726C9.03458 15.2823 9.39725 15.4982 9.48767 15.8551C9.5165 15.969 9.543 16.0832 9.56825 16.1977C9.93483 16.0318 10.2681 15.8001 10.5633 15.5033C10.8229 15.2423 11.2451 15.2412 11.5061 15.501C11.7671 15.7607 11.7682 16.1827 11.5084 16.4437C11.0167 16.938 10.4284 17.3127 9.78383 17.5471C9.83317 18.0482 9.84883 18.5522 9.83133 19.0567C10.2185 19.1327 10.6233 19.293 11.0488 19.5639C11.3594 19.7617 11.4508 20.1737 11.2531 20.4843C11.0553 20.7949 10.6433 20.8863 10.3327 20.6886C9.94467 20.4416 9.59742 20.3345 9.25425 20.3395C9.21192 20.348 9.16842 20.3527 9.12392 20.3527C8.48017 20.3527 7.45658 21.1372 6.93633 21.5233C5.8815 22.3062 4.5905 23.2644 2.89558 23.2644C2.4555 23.2644 1.98758 23.1983 1.49008 23.0492C1.10833 25.0192 0.821333 27.2523 0.657167 29.7831C2.32933 30.3962 4.243 30.0702 5.63742 28.759C5.90567 28.5067 6.3275 28.5197 6.57983 28.788C6.83208 29.0562 6.81908 29.4782 6.55083 29.7304C6.05875 30.1932 5.51083 30.565 4.91708 30.8418C5.136 31.1469 5.41617 31.3972 5.7555 31.5891C6.35042 31.9253 6.11017 32.8362 5.42683 32.8362C5.31567 32.8362 5.203 32.8084 5.09942 32.7498C4.47392 32.3962 3.96942 31.8931 3.61575 31.2775C2.63533 31.4866 1.595 31.4589 0.581417 31.1607C0.528167 32.3344 0.5 33.5677 0.5 34.865C0.5 38.2439 5.25958 39.7048 8.0125 37.4608C9.03 36.63 10.6808 35.5617 14.4367 34.6625C16.4867 34.1717 17.4142 30.8242 17.8317 28.1025C18.3292 24.8558 18.3733 20.7717 17.9483 17.1767Z" fill="#FA4D56"/>
<path id="Vector_4" d="M35.1359 36.9999L29.7868 27.7349C29.0179 26.4013 27.0925 26.401 26.3234 27.7349L20.9743 36.9999C20.2043 38.3323 21.1658 39.9999 22.7059 39.9999H33.4043C34.9429 39.9999 35.9068 38.3338 35.1359 36.9999ZM28.7218 36.8252C28.7218 37.1933 28.4233 37.4918 28.0551 37.4918C27.6869 37.4918 27.3884 37.1933 27.3884 36.8252V36.4918C27.3884 36.1237 27.6869 35.8252 28.0551 35.8252C28.4233 35.8252 28.7218 36.1237 28.7218 36.4918V36.8252ZM28.7218 33.9623C28.7218 34.3304 28.4233 34.6289 28.0551 34.6289C27.6869 34.6289 27.3884 34.3304 27.3884 33.9623V31.309C27.3884 30.9408 27.6869 30.6423 28.0551 30.6423C28.4233 30.6423 28.7218 30.9408 28.7218 31.309V33.9623Z" fill="#FA4D56"/>
</g>
</g>
<defs>
<clipPath id="clip0_80_239685">
<rect width="40" height="40" fill="white" transform="translate(0.5)"/>
</clipPath>
</defs>
</svg>
