<svg width="271" height="111" viewBox="0 0 271 111" fill="none" xmlns="http://www.w3.org/2000/svg">
<path d="M0 24.4414C0 11.1866 10.7452 0.441406 24 0.441406C37.2548 0.441406 48 11.1866 48 24.4414C48 37.6962 37.2548 48.4414 24 48.4414C10.7452 48.4414 0 37.6962 0 24.4414Z" fill="#DFFBFC"/>
<g clip-path="url(#clip0_99_137541)">
<path d="M39.9499 28.2915C39.9499 27.8915 39.6499 27.5415 39.2499 27.4415L39.2999 24.4415L39.5499 11.9415C39.5499 11.3415 38.7499 11.0915 38.3999 11.5915C37.9499 12.3915 37.5999 13.2415 37.4999 14.1915L36.1499 24.4415L36.0499 25.1915C35.9999 25.5415 36.2999 25.8915 36.6499 25.8915H37.4499C37.5999 25.8915 37.7499 25.9415 37.8999 26.0415C37.9999 26.1415 38.0999 26.2915 38.0999 26.4915V27.3915H37.7999C37.5499 27.3915 37.3499 27.4915 37.1499 27.6415C36.9999 27.7915 36.8999 28.0415 36.8999 28.2915L36.9499 36.0415C36.9499 36.5415 37.3499 36.9415 37.8499 36.9415H39.1499C39.6499 36.9415 40.0499 36.5415 40.0499 36.0415L39.9499 28.2915Z" fill="#02C1E0"/>
<path d="M24.6 16.9913C20.5 16.9913 17.2 20.3413 17.2 24.3913C17.2 28.4913 20.5 31.7913 24.6 31.7913C28.7 31.7913 32 28.4913 32 24.3913C32 20.3413 28.7 16.9913 24.6 16.9913ZM24.6 19.4913C21.9 19.4913 19.7 21.6913 19.7 24.3913C19.7 24.6913 19.45 24.9913 19.1 24.9913C18.75 24.9913 18.5 24.7413 18.5 24.3913C18.5 21.0413 21.25 18.2913 24.6 18.2913C24.95 18.2913 25.2 18.5413 25.2 18.8913C25.2 19.2413 24.95 19.4913 24.6 19.4913ZM24.6 16.9913C20.5 16.9913 17.2 20.3413 17.2 24.3913C17.2 28.4913 20.5 31.7913 24.6 31.7913C28.7 31.7913 32 28.4913 32 24.3913C32 20.3413 28.7 16.9913 24.6 16.9913ZM24.6 19.4913C21.9 19.4913 19.7 21.6913 19.7 24.3913C19.7 24.6913 19.45 24.9913 19.1 24.9913C18.75 24.9913 18.5 24.7413 18.5 24.3913C18.5 21.0413 21.25 18.2913 24.6 18.2913C24.95 18.2913 25.2 18.5413 25.2 18.8913C25.2 19.2413 24.95 19.4913 24.6 19.4913ZM24.6 14.0913C18.9 14.0913 14.25 18.7413 14.25 24.4413C14.25 30.1413 18.9 34.7913 24.6 34.7913C30.3 34.7913 34.95 30.1413 34.95 24.4413C34.95 18.6913 30.3 14.0913 24.6 14.0913ZM24.6 32.9913C19.85 32.9913 16 29.1413 16 24.3913C16 19.6413 19.85 15.7913 24.6 15.7913C29.35 15.7913 33.2 19.6413 33.2 24.3913C33.2 29.1413 29.35 32.9913 24.6 32.9913ZM24.6 16.9913C20.5 16.9913 17.2 20.3413 17.2 24.3913C17.2 28.4913 20.5 31.7913 24.6 31.7913C28.7 31.7913 32 28.4913 32 24.3913C32 20.3413 28.7 16.9913 24.6 16.9913ZM24.6 19.4913C21.9 19.4913 19.7 21.6913 19.7 24.3913C19.7 24.6913 19.45 24.9913 19.1 24.9913C18.75 24.9913 18.5 24.7413 18.5 24.3913C18.5 21.0413 21.25 18.2913 24.6 18.2913C24.95 18.2913 25.2 18.5413 25.2 18.8913C25.2 19.2413 24.95 19.4913 24.6 19.4913Z" fill="#02C1E0"/>
<path d="M14.25 11.8913L14.2 18.5913C14.2 20.2913 12.8 21.6413 11.1 21.6413C9.4 21.6413 8 20.2913 8 18.5913V11.8913C8 11.5913 8.25 11.3413 8.55 11.3413C8.85 11.3413 9.1 11.5913 9.1 11.8913V17.5413C9.1 17.8913 9.4 18.1913 9.75 18.1913H9.9C10.25 18.1913 10.55 17.8913 10.55 17.5413V11.8913C10.55 11.5913 10.8 11.3413 11.1 11.3413H11.2C11.5 11.3413 11.75 11.5913 11.75 11.8913V17.5413C11.75 17.8913 12.05 18.1913 12.4 18.1913H12.5C12.85 18.1913 13.15 17.8913 13.15 17.5413V11.8913C13.15 11.5913 13.4 11.3413 13.7 11.3413C14 11.3413 14.25 11.5913 14.25 11.8913Z" fill="#02C1E0"/>
<path d="M11.7001 37.5913H10.5501C9.7501 37.5913 9.1001 36.9413 9.1001 36.1413V30.2913C9.1001 29.4913 9.7501 28.8413 10.5501 28.8413H11.7001C12.5001 28.8413 13.1501 29.4913 13.1501 30.2913V36.0913C13.2001 36.8913 12.5001 37.5913 11.7001 37.5913Z" fill="#02C1E0"/>
<path d="M12.1998 22.6411V27.8911C11.8498 27.7911 11.4998 27.6911 11.0998 27.6911C10.6998 27.6911 10.3498 27.7411 10.0498 27.8911V22.6411C10.3998 22.7411 10.7498 22.7911 11.1498 22.7911H11.1998C11.4998 22.7911 11.8998 22.7411 12.1998 22.6411Z" fill="#02C1E0"/>
</g>
<path d="M1.3623 79.4414V66.4863H3.04102L7.52344 73.7021H7.59375L12.0762 66.4863H13.7549V79.4414H11.6016V73.6406L11.6455 70.6875H11.5752L7.83984 76.8574H7.27734L3.54199 70.6875H3.47168L3.52441 73.6406V79.4414H1.3623ZM20.3203 79.582C19.3711 79.582 18.542 79.3799 17.833 78.9756C17.124 78.5654 16.5703 77.9971 16.1719 77.2705C15.7734 76.5439 15.5742 75.7061 15.5742 74.7568C15.5742 73.7725 15.7734 72.9199 16.1719 72.1992C16.5703 71.4785 17.1064 70.9219 17.7803 70.5293C18.4541 70.1309 19.2012 69.9316 20.0215 69.9316C20.8066 69.9316 21.5156 70.1133 22.1484 70.4766C22.7871 70.8398 23.2939 71.3467 23.6689 71.9971C24.0439 72.6416 24.2314 73.3975 24.2314 74.2646C24.2314 74.4873 24.2197 74.6953 24.1963 74.8887C24.1729 75.082 24.1436 75.2754 24.1084 75.4688H17.1299V74.001H22.2891C22.2891 73.5557 22.1953 73.1602 22.0078 72.8145C21.8203 72.4629 21.5566 72.1875 21.2168 71.9883C20.877 71.7832 20.4785 71.6807 20.0215 71.6807C19.5059 71.6807 19.0547 71.8096 18.668 72.0674C18.2871 72.3193 17.9883 72.6738 17.7715 73.1309C17.5605 73.582 17.4551 74.1094 17.4551 74.7129C17.4551 75.3281 17.5693 75.8701 17.7979 76.3389C18.0322 76.8076 18.3604 77.1738 18.7822 77.4375C19.21 77.7012 19.7168 77.833 20.3027 77.833C20.6367 77.833 20.9531 77.792 21.252 77.71C21.5508 77.6279 21.8232 77.5225 22.0693 77.3936C22.3154 77.2588 22.5264 77.1182 22.7021 76.9717L23.4141 78.6768C23.0449 78.9404 22.5908 79.1572 22.0518 79.3271C21.5186 79.4971 20.9414 79.582 20.3203 79.582ZM28.4766 79.582C27.8672 79.582 27.3252 79.4619 26.8506 79.2217C26.376 78.9756 26.0039 78.6416 25.7344 78.2197C25.4648 77.792 25.3301 77.2998 25.3301 76.7432C25.3301 76.1572 25.4883 75.6504 25.8047 75.2227C26.1211 74.7891 26.5898 74.4551 27.2109 74.2207C27.832 73.9805 28.5908 73.8604 29.4873 73.8604H31.5176V75.3105H29.54C28.8369 75.3105 28.292 75.4248 27.9053 75.6533C27.5186 75.8818 27.3252 76.2217 27.3252 76.6729C27.3252 76.9424 27.3926 77.1709 27.5273 77.3584C27.6621 77.5459 27.8467 77.6895 28.0811 77.7891C28.3213 77.8887 28.5879 77.9385 28.8809 77.9385C29.1855 77.9385 29.5195 77.8711 29.8828 77.7363C30.2461 77.6016 30.5596 77.3936 30.8232 77.1123C31.0869 76.8311 31.2188 76.4736 31.2188 76.04V75.0732L31.1045 74.5723V73.4209C31.1045 73.2393 31.0811 73.0488 31.0342 72.8496C30.9932 72.6504 30.9082 72.4658 30.7793 72.2959C30.6562 72.1201 30.4775 71.9795 30.2432 71.874C30.0088 71.7627 29.7041 71.707 29.3291 71.707C29.0303 71.707 28.7168 71.7422 28.3887 71.8125C28.0605 71.877 27.7441 71.9678 27.4395 72.085C27.1406 72.2021 26.8799 72.334 26.6572 72.4805L25.9453 70.8018C26.2148 70.6494 26.54 70.5059 26.9209 70.3711C27.3076 70.2363 27.7295 70.1279 28.1865 70.0459C28.6436 69.9639 29.1094 69.9229 29.584 69.9229C30.3574 69.9229 30.9756 70.0312 31.4385 70.248C31.9072 70.4648 32.2588 70.749 32.4932 71.1006C32.7275 71.4463 32.8828 71.8213 32.959 72.2256C33.041 72.624 33.082 73.0107 33.082 73.3857V76.4531C33.082 76.8223 33.1201 77.1064 33.1963 77.3057C33.2783 77.5049 33.4277 77.6426 33.6445 77.7188L33.8379 77.7891L33.082 79.582L32.8096 79.4766C32.3643 79.3008 32.0244 79.0811 31.79 78.8174C31.5557 78.5537 31.4297 78.29 31.4121 78.0264L31.8076 78.2461H31.1045L31.5791 78C31.3682 78.4277 30.9814 78.7998 30.4189 79.1162C29.8564 79.4268 29.209 79.582 28.4766 79.582ZM37.5996 79.582C37.1074 79.582 36.7002 79.4766 36.3779 79.2656C36.0615 79.0547 35.8242 78.7617 35.666 78.3867C35.5078 78.0117 35.4287 77.5781 35.4287 77.0859V65.9062H37.5029V76.9189C37.5029 77.0537 37.5176 77.1855 37.5469 77.3145C37.5762 77.4434 37.6348 77.5518 37.7227 77.6396C37.8164 77.7217 37.9629 77.7627 38.1621 77.7627C38.2441 77.7627 38.3174 77.7568 38.3818 77.7451C38.4521 77.7275 38.5137 77.71 38.5664 77.6924V79.4238C38.4434 79.4766 38.2939 79.5146 38.1182 79.5381C37.9482 79.5674 37.7754 79.582 37.5996 79.582ZM43.0928 79.582C42.5303 79.582 42.0088 79.4795 41.5283 79.2744C41.0479 79.0693 40.6348 78.7969 40.2891 78.457C39.9492 78.1113 39.7031 77.7363 39.5508 77.332L41.3086 76.5762C41.4375 76.9043 41.6631 77.1973 41.9854 77.4551C42.3135 77.7129 42.6826 77.8418 43.0928 77.8418C43.3447 77.8418 43.5762 77.7949 43.7871 77.7012C43.998 77.6016 44.168 77.4697 44.2969 77.3057C44.4258 77.1416 44.4902 76.96 44.4902 76.7607C44.4902 76.5381 44.4141 76.3477 44.2617 76.1895C44.1152 76.0254 43.9277 75.8877 43.6992 75.7764C43.4766 75.665 43.2422 75.5713 42.9961 75.4951C42.7559 75.4189 42.5449 75.3516 42.3633 75.293C41.9648 75.1699 41.5693 75 41.1768 74.7832C40.79 74.5664 40.4678 74.2822 40.21 73.9307C39.9521 73.5732 39.8232 73.125 39.8232 72.5859C39.8232 72.041 39.9639 71.5693 40.2451 71.1709C40.5264 70.7666 40.9014 70.459 41.3701 70.248C41.8389 70.0312 42.3574 69.9229 42.9258 69.9229C43.7109 69.9229 44.3877 70.1133 44.9561 70.4941C45.5244 70.8691 45.9258 71.3203 46.1602 71.8477L44.4375 72.5684C44.3203 72.3516 44.1445 72.1406 43.9102 71.9355C43.6758 71.7305 43.3652 71.6279 42.9785 71.6279C42.6445 71.6279 42.3574 71.7158 42.1172 71.8916C41.8828 72.0615 41.7656 72.3018 41.7656 72.6123C41.7656 72.876 41.8506 73.0898 42.0205 73.2539C42.1963 73.4121 42.4277 73.5469 42.7148 73.6582C43.002 73.7637 43.3125 73.8721 43.6465 73.9834C43.8926 74.0596 44.1709 74.1621 44.4814 74.291C44.7979 74.4141 45.1025 74.5781 45.3955 74.7832C45.6943 74.9883 45.9375 75.249 46.125 75.5654C46.3184 75.876 46.415 76.2568 46.415 76.708C46.415 77.2705 46.2627 77.7686 45.958 78.2021C45.6533 78.6357 45.249 78.9756 44.7451 79.2217C44.2412 79.4619 43.6904 79.582 43.0928 79.582Z" fill="black"/>
<g opacity="0.05" clip-path="url(#clip1_99_137541)">
<path d="M270.828 68.676C270.828 67.301 269.797 66.0978 268.422 65.7541L268.594 55.4416L269.453 12.4728C269.453 10.4103 266.703 9.55095 265.5 11.2697C263.953 14.0197 262.75 16.9416 262.406 20.2072L257.765 55.4416L257.422 58.0197C257.25 59.2228 258.281 60.426 259.484 60.426H262.234C262.75 60.426 263.265 60.5978 263.781 60.9416C264.125 61.2853 264.469 61.8009 264.469 62.4884V65.5822H263.437C262.578 65.5822 261.89 65.926 261.203 66.4416C260.687 66.9572 260.344 67.8166 260.344 68.676L260.515 95.3166C260.515 97.0353 261.89 98.4103 263.609 98.4103H268.078C269.797 98.4103 271.172 97.0353 271.172 95.3166L270.828 68.676Z" fill="black"/>
<path d="M218.062 29.832C203.969 29.832 192.625 41.3477 192.625 55.2695C192.625 69.3633 203.969 80.707 218.062 80.707C232.156 80.707 243.5 69.3633 243.5 55.2695C243.5 41.3477 232.156 29.832 218.062 29.832ZM218.062 38.4258C208.781 38.4258 201.219 45.9883 201.219 55.2695C201.219 56.3008 200.359 57.332 199.156 57.332C197.953 57.332 197.094 56.4727 197.094 55.2695C197.094 43.7539 206.547 34.3008 218.062 34.3008C219.266 34.3008 220.125 35.1602 220.125 36.3633C220.125 37.5664 219.266 38.4258 218.062 38.4258ZM218.062 29.832C203.969 29.832 192.625 41.3477 192.625 55.2695C192.625 69.3633 203.969 80.707 218.062 80.707C232.156 80.707 243.5 69.3633 243.5 55.2695C243.5 41.3477 232.156 29.832 218.062 29.832ZM218.062 38.4258C208.781 38.4258 201.219 45.9883 201.219 55.2695C201.219 56.3008 200.359 57.332 199.156 57.332C197.953 57.332 197.094 56.4727 197.094 55.2695C197.094 43.7539 206.547 34.3008 218.062 34.3008C219.266 34.3008 220.125 35.1602 220.125 36.3633C220.125 37.5664 219.266 38.4258 218.062 38.4258ZM218.062 19.8633C198.469 19.8633 182.484 35.8477 182.484 55.4414C182.484 75.0352 198.469 91.0195 218.062 91.0195C237.656 91.0195 253.641 75.0352 253.641 55.4414C253.641 35.6758 237.656 19.8633 218.062 19.8633ZM218.062 84.832C201.734 84.832 188.5 71.5976 188.5 55.2695C188.5 38.9414 201.734 25.707 218.062 25.707C234.391 25.707 247.625 38.9414 247.625 55.2695C247.625 71.5976 234.391 84.832 218.062 84.832ZM218.062 29.832C203.969 29.832 192.625 41.3477 192.625 55.2695C192.625 69.3633 203.969 80.707 218.062 80.707C232.156 80.707 243.5 69.3633 243.5 55.2695C243.5 41.3477 232.156 29.832 218.062 29.832ZM218.062 38.4258C208.781 38.4258 201.219 45.9883 201.219 55.2695C201.219 56.3008 200.359 57.332 199.156 57.332C197.953 57.332 197.094 56.4727 197.094 55.2695C197.094 43.7539 206.547 34.3008 218.062 34.3008C219.266 34.3008 220.125 35.1602 220.125 36.3633C220.125 37.5664 219.266 38.4258 218.062 38.4258Z" fill="black"/>
<path d="M182.484 12.3008L182.312 35.332C182.312 41.1758 177.5 45.8164 171.656 45.8164C165.812 45.8164 161 41.1758 161 35.332V12.3008C161 11.2695 161.859 10.4102 162.891 10.4102C163.922 10.4102 164.781 11.2695 164.781 12.3008V31.7227C164.781 32.9258 165.812 33.957 167.016 33.957H167.531C168.734 33.957 169.766 32.9258 169.766 31.7227V12.3008C169.766 11.2695 170.625 10.4102 171.656 10.4102H172C173.031 10.4102 173.891 11.2695 173.891 12.3008V31.7227C173.891 32.9258 174.922 33.957 176.125 33.957H176.469C177.672 33.957 178.703 32.9258 178.703 31.7227V12.3008C178.703 11.2695 179.562 10.4102 180.594 10.4102C181.625 10.4102 182.484 11.2695 182.484 12.3008Z" fill="black"/>
<path d="M173.719 100.645H169.766C167.016 100.645 164.781 98.4102 164.781 95.6602V75.5508C164.781 72.8008 167.016 70.5664 169.766 70.5664H173.719C176.469 70.5664 178.703 72.8008 178.703 75.5508V95.4883C178.875 98.2383 176.469 100.645 173.719 100.645Z" fill="black"/>
<path d="M175.437 49.2539V67.3008C174.234 66.957 173.031 66.6133 171.656 66.6133C170.281 66.6133 169.078 66.7852 168.047 67.3008V49.2539C169.25 49.5977 170.453 49.7695 171.828 49.7695H172C173.031 49.7695 174.406 49.5977 175.437 49.2539Z" fill="black"/>
</g>
<defs>
<clipPath id="clip0_99_137541">
<rect width="32" height="32" fill="white" transform="translate(8 8.44141)"/>
</clipPath>
<clipPath id="clip1_99_137541">
<rect width="110" height="110" fill="white" transform="translate(161 0.441406)"/>
</clipPath>
</defs>
</svg>
