<svg width="110" height="111" viewBox="0 0 110 111" fill="none" xmlns="http://www.w3.org/2000/svg">
<g opacity="0.05" clip-path="url(#clip0_99_137590)">
<path d="M109.828 68.676C109.828 67.301 108.797 66.0978 107.422 65.7541L107.594 55.4416L108.453 12.4728C108.453 10.4103 105.703 9.55095 104.5 11.2697C102.953 14.0197 101.75 16.9416 101.406 20.2072L96.7654 55.4416L96.4216 58.0197C96.2498 59.2228 97.281 60.426 98.4841 60.426H101.234C101.75 60.426 102.265 60.5978 102.781 60.9416C103.125 61.2853 103.469 61.8009 103.469 62.4884V65.5822H102.437C101.578 65.5822 100.89 65.926 100.203 66.4416C99.6873 66.9572 99.3435 67.8166 99.3435 68.676L99.5154 95.3166C99.5154 97.0353 100.89 98.4103 102.609 98.4103H107.078C108.797 98.4103 110.172 97.0353 110.172 95.3166L109.828 68.676Z" fill="#111928"/>
<path d="M57.0625 29.832C42.9688 29.832 31.625 41.3477 31.625 55.2695C31.625 69.3633 42.9688 80.707 57.0625 80.707C71.1562 80.707 82.5 69.3633 82.5 55.2695C82.5 41.3477 71.1562 29.832 57.0625 29.832ZM57.0625 38.4258C47.7812 38.4258 40.2187 45.9883 40.2187 55.2695C40.2187 56.3008 39.3594 57.332 38.1562 57.332C36.9531 57.332 36.0937 56.4727 36.0937 55.2695C36.0937 43.7539 45.5469 34.3008 57.0625 34.3008C58.2656 34.3008 59.125 35.1602 59.125 36.3633C59.125 37.5664 58.2656 38.4258 57.0625 38.4258ZM57.0625 29.832C42.9688 29.832 31.625 41.3477 31.625 55.2695C31.625 69.3633 42.9688 80.707 57.0625 80.707C71.1562 80.707 82.5 69.3633 82.5 55.2695C82.5 41.3477 71.1562 29.832 57.0625 29.832ZM57.0625 38.4258C47.7812 38.4258 40.2187 45.9883 40.2187 55.2695C40.2187 56.3008 39.3594 57.332 38.1562 57.332C36.9531 57.332 36.0937 56.4727 36.0937 55.2695C36.0937 43.7539 45.5469 34.3008 57.0625 34.3008C58.2656 34.3008 59.125 35.1602 59.125 36.3633C59.125 37.5664 58.2656 38.4258 57.0625 38.4258ZM57.0625 19.8633C37.4688 19.8633 21.4844 35.8477 21.4844 55.4414C21.4844 75.0352 37.4688 91.0195 57.0625 91.0195C76.6562 91.0195 92.6406 75.0352 92.6406 55.4414C92.6406 35.6758 76.6562 19.8633 57.0625 19.8633ZM57.0625 84.832C40.7344 84.832 27.5 71.5976 27.5 55.2695C27.5 38.9414 40.7344 25.707 57.0625 25.707C73.3906 25.707 86.625 38.9414 86.625 55.2695C86.625 71.5976 73.3906 84.832 57.0625 84.832ZM57.0625 29.832C42.9688 29.832 31.625 41.3477 31.625 55.2695C31.625 69.3633 42.9688 80.707 57.0625 80.707C71.1562 80.707 82.5 69.3633 82.5 55.2695C82.5 41.3477 71.1562 29.832 57.0625 29.832ZM57.0625 38.4258C47.7812 38.4258 40.2187 45.9883 40.2187 55.2695C40.2187 56.3008 39.3594 57.332 38.1562 57.332C36.9531 57.332 36.0937 56.4727 36.0937 55.2695C36.0937 43.7539 45.5469 34.3008 57.0625 34.3008C58.2656 34.3008 59.125 35.1602 59.125 36.3633C59.125 37.5664 58.2656 38.4258 57.0625 38.4258Z" fill="#111928"/>
<path d="M21.4844 12.3008L21.3125 35.332C21.3125 41.1758 16.5 45.8164 10.6562 45.8164C4.8125 45.8164 0 41.1758 0 35.332V12.3008C0 11.2695 0.859375 10.4102 1.89062 10.4102C2.92188 10.4102 3.78125 11.2695 3.78125 12.3008V31.7227C3.78125 32.9258 4.8125 33.957 6.01562 33.957H6.53125C7.73438 33.957 8.76562 32.9258 8.76562 31.7227V12.3008C8.76562 11.2695 9.625 10.4102 10.6562 10.4102H11C12.0312 10.4102 12.8906 11.2695 12.8906 12.3008V31.7227C12.8906 32.9258 13.9219 33.957 15.125 33.957H15.4688C16.6719 33.957 17.7031 32.9258 17.7031 31.7227V12.3008C17.7031 11.2695 18.5625 10.4102 19.5938 10.4102C20.625 10.4102 21.4844 11.2695 21.4844 12.3008Z" fill="#111928"/>
<path d="M12.7188 100.645H8.76562C6.01562 100.645 3.78125 98.4102 3.78125 95.6602V75.5508C3.78125 72.8008 6.01562 70.5664 8.76562 70.5664H12.7188C15.4688 70.5664 17.7031 72.8008 17.7031 75.5508V95.4883C17.875 98.2383 15.4688 100.645 12.7188 100.645Z" fill="#111928"/>
<path d="M14.4375 49.2539V67.3008C13.2344 66.957 12.0312 66.6133 10.6562 66.6133C9.28125 66.6133 8.07812 66.7852 7.04688 67.3008V49.2539C8.25 49.5977 9.45313 49.7695 10.8281 49.7695H11C12.0313 49.7695 13.4062 49.5977 14.4375 49.2539Z" fill="#111928"/>
</g>
<defs>
<clipPath id="clip0_99_137590">
<rect width="110" height="110" fill="white" transform="translate(0 0.441406)"/>
</clipPath>
</defs>
</svg>
