<svg width="48" height="49" viewBox="0 0 48 49" fill="none" xmlns="http://www.w3.org/2000/svg">
<path d="M0 24.4414C0 11.1866 10.7452 0.441406 24 0.441406C37.2548 0.441406 48 11.1866 48 24.4414C48 37.6962 37.2548 48.4414 24 48.4414C10.7452 48.4414 0 37.6962 0 24.4414Z" fill="#DFFBFC"/>
<g clip-path="url(#clip0_99_137543)">
<path d="M39.9499 28.2915C39.9499 27.8915 39.6499 27.5415 39.2499 27.4415L39.2999 24.4415L39.5499 11.9415C39.5499 11.3415 38.7499 11.0915 38.3999 11.5915C37.9499 12.3915 37.5999 13.2415 37.4999 14.1915L36.1499 24.4415L36.0499 25.1915C35.9999 25.5415 36.2999 25.8915 36.6499 25.8915H37.4499C37.5999 25.8915 37.7499 25.9415 37.8999 26.0415C37.9999 26.1415 38.0999 26.2915 38.0999 26.4915V27.3915H37.7999C37.5499 27.3915 37.3499 27.4915 37.1499 27.6415C36.9999 27.7915 36.8999 28.0415 36.8999 28.2915L36.9499 36.0415C36.9499 36.5415 37.3499 36.9415 37.8499 36.9415H39.1499C39.6499 36.9415 40.0499 36.5415 40.0499 36.0415L39.9499 28.2915Z" fill="#02C1E0"/>
<path d="M24.6 16.9913C20.5 16.9913 17.2 20.3413 17.2 24.3913C17.2 28.4913 20.5 31.7913 24.6 31.7913C28.7 31.7913 32 28.4913 32 24.3913C32 20.3413 28.7 16.9913 24.6 16.9913ZM24.6 19.4913C21.9 19.4913 19.7 21.6913 19.7 24.3913C19.7 24.6913 19.45 24.9913 19.1 24.9913C18.75 24.9913 18.5 24.7413 18.5 24.3913C18.5 21.0413 21.25 18.2913 24.6 18.2913C24.95 18.2913 25.2 18.5413 25.2 18.8913C25.2 19.2413 24.95 19.4913 24.6 19.4913ZM24.6 16.9913C20.5 16.9913 17.2 20.3413 17.2 24.3913C17.2 28.4913 20.5 31.7913 24.6 31.7913C28.7 31.7913 32 28.4913 32 24.3913C32 20.3413 28.7 16.9913 24.6 16.9913ZM24.6 19.4913C21.9 19.4913 19.7 21.6913 19.7 24.3913C19.7 24.6913 19.45 24.9913 19.1 24.9913C18.75 24.9913 18.5 24.7413 18.5 24.3913C18.5 21.0413 21.25 18.2913 24.6 18.2913C24.95 18.2913 25.2 18.5413 25.2 18.8913C25.2 19.2413 24.95 19.4913 24.6 19.4913ZM24.6 14.0913C18.9 14.0913 14.25 18.7413 14.25 24.4413C14.25 30.1413 18.9 34.7913 24.6 34.7913C30.3 34.7913 34.95 30.1413 34.95 24.4413C34.95 18.6913 30.3 14.0913 24.6 14.0913ZM24.6 32.9913C19.85 32.9913 16 29.1413 16 24.3913C16 19.6413 19.85 15.7913 24.6 15.7913C29.35 15.7913 33.2 19.6413 33.2 24.3913C33.2 29.1413 29.35 32.9913 24.6 32.9913ZM24.6 16.9913C20.5 16.9913 17.2 20.3413 17.2 24.3913C17.2 28.4913 20.5 31.7913 24.6 31.7913C28.7 31.7913 32 28.4913 32 24.3913C32 20.3413 28.7 16.9913 24.6 16.9913ZM24.6 19.4913C21.9 19.4913 19.7 21.6913 19.7 24.3913C19.7 24.6913 19.45 24.9913 19.1 24.9913C18.75 24.9913 18.5 24.7413 18.5 24.3913C18.5 21.0413 21.25 18.2913 24.6 18.2913C24.95 18.2913 25.2 18.5413 25.2 18.8913C25.2 19.2413 24.95 19.4913 24.6 19.4913Z" fill="#02C1E0"/>
<path d="M14.25 11.8913L14.2 18.5913C14.2 20.2913 12.8 21.6413 11.1 21.6413C9.4 21.6413 8 20.2913 8 18.5913V11.8913C8 11.5913 8.25 11.3413 8.55 11.3413C8.85 11.3413 9.1 11.5913 9.1 11.8913V17.5413C9.1 17.8913 9.4 18.1913 9.75 18.1913H9.9C10.25 18.1913 10.55 17.8913 10.55 17.5413V11.8913C10.55 11.5913 10.8 11.3413 11.1 11.3413H11.2C11.5 11.3413 11.75 11.5913 11.75 11.8913V17.5413C11.75 17.8913 12.05 18.1913 12.4 18.1913H12.5C12.85 18.1913 13.15 17.8913 13.15 17.5413V11.8913C13.15 11.5913 13.4 11.3413 13.7 11.3413C14 11.3413 14.25 11.5913 14.25 11.8913Z" fill="#02C1E0"/>
<path d="M11.7001 37.5913H10.5501C9.7501 37.5913 9.1001 36.9413 9.1001 36.1413V30.2913C9.1001 29.4913 9.7501 28.8413 10.5501 28.8413H11.7001C12.5001 28.8413 13.1501 29.4913 13.1501 30.2913V36.0913C13.2001 36.8913 12.5001 37.5913 11.7001 37.5913Z" fill="#02C1E0"/>
<path d="M12.1998 22.6411V27.8911C11.8498 27.7911 11.4998 27.6911 11.0998 27.6911C10.6998 27.6911 10.3498 27.7411 10.0498 27.8911V22.6411C10.3998 22.7411 10.7498 22.7911 11.1498 22.7911H11.1998C11.4998 22.7911 11.8998 22.7411 12.1998 22.6411Z" fill="#02C1E0"/>
</g>
<defs>
<clipPath id="clip0_99_137543">
<rect width="32" height="32" fill="white" transform="translate(8 8.44141)"/>
</clipPath>
</defs>
</svg>
