<svg width="40" height="40" viewBox="0 0 40 40" fill="none" xmlns="http://www.w3.org/2000/svg">
<g id="fi_3389979" clip-path="url(#clip0_584_127595)">
<g id="Page-1">
<g id="018---Heart-Transplant">
<path id="Shape" d="M34.9989 0C32.9749 0.00768333 31.0745 0.975084 29.8775 2.60714C29.746 2.8067 29.5235 2.92734 29.2846 2.92857C29.0459 2.92657 28.8237 2.80612 28.6917 2.60714C27.4936 0.976335 25.5939 0.00927824 23.5703 0C20.7203 0 18.5703 2.44286 18.5703 5.69286C18.5703 9.56 21.9489 13.4679 28.9025 17.6343C29.1339 17.7707 29.4211 17.7707 29.6525 17.6343C36.6203 13.4679 39.9989 9.56 39.9989 5.69286C39.9989 2.44286 37.8489 0 34.9989 0ZM34.7846 6.22714L28.1517 12.6557C27.8926 12.9068 27.4868 12.9252 27.206 12.6986L24.5532 10.5557C24.2547 10.3056 24.2115 9.86255 24.4561 9.55953C24.7007 9.25651 25.1429 9.20525 25.4503 9.44429L27.611 11.19L33.7846 5.20143C33.9678 5.0228 34.2324 4.95548 34.4787 5.02484C34.7251 5.09421 34.9157 5.28971 34.9787 5.5377C35.0418 5.7857 34.9678 6.04851 34.7846 6.22714Z" fill="#FA4D56"/>
<path id="Shape_2" d="M18.2221 28.0428C17.2578 28.3643 16.3864 29.3 15.465 30.2857C14.1935 31.6428 12.7792 33.1571 10.8435 33.1571C10.4638 33.1561 10.0862 33.1008 9.7221 32.9928C8.81701 32.6791 7.96991 32.2182 7.21496 31.6286C6.1221 30.8643 5.1721 30.2 3.96496 30.4428C2.92545 30.7107 2.03891 31.3885 1.50781 32.3214C3.12567 34.7443 6.05281 37.215 10.3342 39.7786C10.5648 39.9143 10.8508 39.9143 11.0814 39.7786C17.4042 36 20.7614 32.4286 21.3292 28.9071C20.5529 28.0342 19.3377 27.6962 18.2221 28.0428ZM5.00067 33.5714C4.60618 33.5714 4.28638 33.2516 4.28638 32.8571C4.28638 32.4626 4.60618 32.1428 5.00067 32.1428C5.39516 32.1428 5.71496 32.4626 5.71496 32.8571C5.71496 33.2516 5.39516 33.5714 5.00067 33.5714ZM8.5721 35.7143C8.17761 35.7143 7.85781 35.3945 7.85781 35C7.85781 34.6055 8.17761 34.2857 8.5721 34.2857C8.96659 34.2857 9.28639 34.6055 9.28639 35C9.28639 35.3945 8.96659 35.7143 8.5721 35.7143ZM10.715 37.8571C10.3205 37.8571 10.0007 37.5373 10.0007 37.1428C10.0007 36.7484 10.3205 36.4286 10.715 36.4286C11.1094 36.4286 11.4292 36.7484 11.4292 37.1428C11.4292 37.5373 11.1094 37.8571 10.715 37.8571ZM12.8578 35.7143C12.4633 35.7143 12.1435 35.3945 12.1435 35C12.1435 34.6055 12.4633 34.2857 12.8578 34.2857C13.2523 34.2857 13.5721 34.6055 13.5721 35C13.5721 35.3945 13.2523 35.7143 12.8578 35.7143ZM16.4292 33.5714C16.0348 33.5714 15.715 33.2516 15.715 32.8571C15.715 32.4626 16.0348 32.1428 16.4292 32.1428C16.8237 32.1428 17.1435 32.4626 17.1435 32.8571C17.1435 33.2516 16.8237 33.5714 16.4292 33.5714ZM18.5721 30.7143C18.1776 30.7143 17.8578 30.3945 17.8578 30C17.8578 29.6055 18.1776 29.2857 18.5721 29.2857C18.9666 29.2857 19.2864 29.6055 19.2864 30C19.2864 30.3945 18.9666 30.7143 18.5721 30.7143Z" fill="#FA4D56"/>
<path id="Shape_3" d="M16.4286 22.1428C14.4046 22.1505 12.5042 23.1179 11.3071 24.75C11.1757 24.9495 10.9532 25.0702 10.7143 25.0714C10.4755 25.0694 10.2534 24.9489 10.1214 24.75C8.92328 23.1192 7.02361 22.1521 5 22.1428C2.15 22.1428 0 24.5857 0 27.8357C0.0110931 28.9124 0.259876 29.9734 0.728571 30.9428C1.45745 29.9818 2.50216 29.309 3.67857 29.0428C5.48571 28.6714 6.84286 29.6214 8.03571 30.4571C8.66134 30.9546 9.36324 31.3478 10.1143 31.6214C11.6929 32.0714 12.7929 31.05 14.4214 29.3071C15.4214 28.2357 16.4643 27.1285 17.7643 26.6857C18.9826 26.2927 20.3127 26.4629 21.3929 27.15C21.1143 24.25 19.0786 22.1428 16.4286 22.1428Z" fill="#FA4D56"/>
<path id="Shape_4" d="M4.28668 19.3114H4.35025C4.72144 19.3128 5.03188 19.0297 5.06454 18.66C5.53467 13.3335 8.81238 8.6631 13.6617 6.40996L12.2045 9.71424C12.128 9.88766 12.1235 10.0844 12.1921 10.2611C12.2607 10.4378 12.3968 10.58 12.5703 10.6564C12.6611 10.6956 12.7592 10.7154 12.8581 10.7142C13.142 10.7141 13.3988 10.5459 13.5124 10.2857L15.6767 5.37853C15.7605 5.17559 15.7482 4.94566 15.6432 4.75281C15.5383 4.55996 15.3519 4.42479 15.136 4.38496L10.1145 3.57781C9.85893 3.52914 9.59706 3.62331 9.431 3.82364C9.26494 4.02396 9.22095 4.29875 9.31618 4.5409C9.41141 4.78306 9.63079 4.95427 9.88882 4.98781L12.4524 5.39996C7.45679 7.97851 4.13062 12.9368 3.63954 18.5371C3.60485 18.9295 3.89437 19.2759 4.28668 19.3114Z" fill="#FA4D56"/>
<path id="Shape_5" d="M35.4913 17.2921C35.1004 17.3439 34.8255 17.7026 34.877 18.0935C34.9591 18.7257 34.9999 19.3625 34.9992 20C34.9705 26.0152 31.3739 31.4394 25.8442 33.8071L27.0813 31C27.2407 30.639 27.0773 30.2172 26.7163 30.0578C26.3553 29.8985 25.9335 30.0619 25.7742 30.4228L23.6099 35.33C23.5299 35.5331 23.544 35.7612 23.6484 35.9529C23.7527 36.1447 23.9366 36.2804 24.1506 36.3235L29.172 37.1307C29.2092 37.1379 29.247 37.1419 29.2849 37.1428C29.6565 37.1415 29.965 36.8553 29.9943 36.4848C30.0236 36.1143 29.7639 35.7833 29.397 35.7235L26.2006 35.2093C32.3642 32.665 36.3968 26.668 36.4277 20C36.4287 19.2999 36.3838 18.6006 36.2934 17.9064C36.2686 17.7186 36.1701 17.5483 36.0196 17.4331C35.8692 17.3179 35.6791 17.2672 35.4913 17.2921Z" fill="#FA4D56"/>
</g>
</g>
</g>
<defs>
<clipPath id="clip0_584_127595">
<rect width="40" height="40" fill="white"/>
</clipPath>
</defs>
</svg>
