<svg width="40" height="40" viewBox="0 0 40 40" fill="none" xmlns="http://www.w3.org/2000/svg">
<g id="fi_3367329">
<path id="Vector" fill-rule="evenodd" clip-rule="evenodd" d="M32.5312 33.7344C23.9922 24.4219 18.5547 17.7734 15.4531 12.8203C13.5156 9.73438 12.4609 7.28125 12.2344 5.26562C10.7422 7.95312 9.92188 10.9453 9.83594 14.0625C9.80469 15.2188 10.7266 17.8906 15.3125 24.0469C18.5078 28.3359 22.4922 33.0078 25.3984 36.4219C26.6328 37.875 27.6719 39.0859 28.4141 40L32.5312 33.7344ZM19.1328 31.0703C17.5312 33 15.9844 34.8203 14.6172 36.4219C13.3828 37.875 12.3438 39.0859 11.6016 40L7.47656 33.7344C10.3203 30.6172 11.5938 29.0625 13.8359 26.3359C14.0859 26.0312 14.3516 25.7109 14.625 25.375C15.9844 27.1875 17.5156 29.1016 19.1328 31.0703ZM20 7.22656C18.1406 7.22656 16.3047 7.78906 14.7578 8.8125C13.5469 6.24219 13.2422 4.3125 13.8203 2.85156C15.3672 1.03906 17.6094 0 20 0C22.3906 0 24.6328 1.03906 26.1797 2.85156C26.5234 3.77344 26.3984 5.46875 24.8594 8.57031C23.3906 7.6875 21.7188 7.22656 20 7.22656ZM20.5938 17.7656C23.3516 14.0078 25.3281 10.8359 26.4609 8.33594C27.0469 7.04688 27.4219 5.92188 27.5859 4.9375C29.1953 7.70312 30.0859 10.8203 30.1719 14.0703C30.2031 15.1797 29.3516 17.7031 25.1719 23.4062C23.4375 21.3516 21.9141 19.4766 20.5938 17.7656Z" fill="#02C1E0"/>
</g>
</svg>
