<svg width="40" height="40" viewBox="0 0 40 40" fill="none" xmlns="http://www.w3.org/2000/svg">
<g id="fi_10058472" clip-path="url(#clip0_584_127587)">
<g id="Group">
<path id="Vector" d="M11.0083 25.6792C11.0596 25.6792 11.1114 25.6768 11.1633 25.672C12.0672 25.5876 12.7315 24.7861 12.6469 23.8822C12.6441 23.8517 12.6425 23.8226 12.6397 23.7921C11.8965 22.6673 11.5008 21.2753 11.5008 19.6527C11.5008 17.9646 11.8851 16.3055 12.5406 14.8113H13.1173C12.4177 16.3182 12.0049 17.994 12.0049 19.6527C12.0049 24.7304 15.8535 26.5336 20.0645 26.5336C24.2756 26.5336 28.1239 24.7304 28.1239 19.6527C28.1239 17.9942 27.7114 16.3182 27.0115 14.8113H27.588C28.2435 16.3055 28.6278 17.9646 28.6278 19.6527C28.6278 21.3781 28.1815 22.8437 27.344 24.0038C27.3269 24.8569 27.9698 25.5911 28.8329 25.6718C28.8851 25.6766 28.9366 25.679 28.9879 25.679C29.8267 25.679 30.5429 25.0399 30.6225 24.1882C31.1608 18.4306 30.2185 14.1091 27.8221 11.344C26.5646 9.89323 25.1797 9.19098 24.1515 8.85082C23.133 9.95065 21.6779 10.6411 20.0641 10.6411C18.4343 10.6411 16.9656 9.93772 15.9457 8.8186C14.9084 9.1454 13.4732 9.84479 12.1737 11.3442C9.77745 14.1091 8.83521 18.4306 9.37351 24.1882C9.45329 25.0401 10.1696 25.6792 11.0083 25.6792Z" fill="#FF832B"/>
<path id="Vector_2" d="M20.066 27.0376C17.1461 27.0376 14.8687 26.2174 13.3984 24.7249L15.0673 37.726C15.0673 38.9817 16.0855 39.9999 17.3419 39.9999C18.5971 39.9999 19.6154 38.9817 19.6154 37.726V29.0214H20.4071V37.726C20.4071 38.9817 21.4254 39.9999 22.6806 39.9999C23.9369 39.9999 24.9552 38.9817 24.9552 37.726L26.6076 24.8522C25.1343 26.2646 22.9028 27.0376 20.066 27.0376Z" fill="#FF832B"/>
<path id="Vector_3" d="M20.0646 10.1369C22.8638 10.1369 25.133 7.8677 25.133 5.06847C25.133 2.26923 22.8638 0 20.0646 0C17.2653 0 14.9961 2.26923 14.9961 5.06847C14.9961 7.8677 17.2653 10.1369 20.0646 10.1369Z" fill="#FF832B"/>
</g>
</g>
<defs>
<clipPath id="clip0_584_127587">
<rect width="40" height="40" fill="white"/>
</clipPath>
</defs>
</svg>
