<svg width="40" height="40" viewBox="0 0 40 40" fill="none" xmlns="http://www.w3.org/2000/svg">
<g id="fi_5359437">
<g id="Group">
<path id="Vector" d="M20.0016 3.6001C10.9576 3.6001 3.60156 10.9561 3.60156 20.0001C3.60156 29.0441 10.9576 36.4001 20.0016 36.4001C29.0416 36.4001 36.4016 29.0441 36.4016 20.0001C36.4016 10.9561 29.0416 3.6001 20.0016 3.6001ZM10.2376 19.1601C10.2136 19.4361 10.2016 19.7161 10.2016 20.0001C10.2016 20.4401 9.84156 20.8001 9.40156 20.8001C8.95756 20.8001 8.60156 20.4401 8.60156 20.0001C8.60156 13.8881 13.4376 8.8841 19.4816 8.6121L18.2336 7.3641C17.9216 7.0521 17.9216 6.5441 18.2336 6.2321C18.5456 5.9201 19.0536 5.9201 19.3656 6.2321L21.7656 8.6321C21.9176 8.7841 22.0016 8.9881 22.0016 9.2001C22.0016 9.4121 21.9176 9.6161 21.7656 9.7641L19.3656 12.1641C19.2096 12.3201 19.0056 12.4001 18.8016 12.4001C18.5976 12.4001 18.3896 12.3201 18.2336 12.1641C18.0176 11.9481 17.9536 11.6361 18.0416 11.3601C18.0776 11.2401 18.1416 11.1281 18.2336 11.0321L19.0216 10.2481C14.3496 10.7161 10.6376 14.4721 10.2376 19.1601ZM15.7016 21.5881C15.5096 20.4001 15.8056 19.2161 16.5336 18.2601L18.7256 15.3761C19.0336 14.9761 19.4976 14.7481 20.0016 14.7481C20.5056 14.7481 20.9696 14.9761 21.2736 15.3761L23.4656 18.2601C24.1976 19.2161 24.4936 20.4001 24.3016 21.5881C24.1096 22.7801 23.4576 23.8081 22.4616 24.4881C21.7256 24.9921 20.8616 25.2481 20.0016 25.2481C19.1376 25.2481 18.2736 24.9921 17.5376 24.4881C16.5456 23.8081 15.8936 22.7801 15.7016 21.5881ZM20.5176 31.3841L21.7656 32.6321C22.0776 32.9441 22.0776 33.4521 21.7656 33.7641C21.6096 33.9201 21.4056 34.0001 21.2016 34.0001C20.9976 34.0001 20.7896 33.9201 20.6336 33.7641L18.2336 31.3641C18.0856 31.2161 18.0016 31.0121 18.0016 30.8001C18.0016 30.5881 18.0856 30.3841 18.2336 30.2321L20.6336 27.8321C20.9456 27.5201 21.4536 27.5201 21.7656 27.8321C21.9856 28.0521 22.0456 28.3641 21.9616 28.6401C21.9216 28.7601 21.8616 28.8721 21.7656 28.9641L20.9816 29.7481C25.6496 29.2841 29.3616 25.5281 29.7616 20.8361C29.7856 20.5601 29.8016 20.2801 29.8016 20.0001C29.8016 19.5561 30.1576 19.2001 30.6016 19.2001C31.0416 19.2001 31.4016 19.5561 31.4016 20.0001C31.4016 26.1121 26.5656 31.1121 20.5176 31.3841Z" fill="#FF122B"/>
<path id="Vector_2" d="M22.7233 21.3361C22.8433 20.5841 22.6553 19.8361 22.1953 19.2281L20.0033 16.3481L17.8113 19.2281C17.3473 19.8361 17.1593 20.5841 17.2833 21.3361C17.4033 22.0881 17.8153 22.7401 18.4433 23.1681C19.3753 23.8081 20.6273 23.8081 21.5593 23.1681C22.1873 22.7401 22.5993 22.0881 22.7233 21.3361Z" fill="#FF122B"/>
</g>
</g>
</svg>
