<svg width="40" height="40" viewBox="0 0 40 40" fill="none" xmlns="http://www.w3.org/2000/svg">
<g id="fi_9836818" clip-path="url(#clip0_584_127648)">
<g id="Group">
<path id="Vector" d="M11.8438 34.7278L13.5436 36.4275C14.4886 37.3724 15.0195 38.654 15.0195 39.9904V39.9992H19.9992V33.7618C21.7408 33.7618 23.1526 32.3501 23.1526 30.6087V29.9722H17.2007C16.4156 32.3829 14.3688 34.2284 11.8438 34.7278Z" fill="#FF832B"/>
<path id="Vector_2" d="M1.03 7.3089L3.67563 8.93101L4.9007 6.93296L3.67242 6.17983L4.14078 4.01585L1.57008 1.70679L0.00390625 3.45046L1.56219 4.85015L1.03 7.3089Z" fill="#FF832B"/>
<path id="Vector_3" d="M6.43187 6.14362L8.60664 5.26972L8.20086 4.25987L9.59086 3.04339L8.98914 0.0788574L6.69219 0.545107L7.0232 2.17597L5.40625 3.59112L6.43187 6.14362Z" fill="#FF832B"/>
<path id="Vector_4" d="M36.3266 8.85288L38.9723 7.23077L38.4401 4.77202L39.9984 3.37233L38.4322 1.62866L35.8615 3.93772L36.3298 6.10171L35.1016 6.85483L36.3266 8.85288Z" fill="#FF832B"/>
<path id="Vector_5" d="M31.3945 5.19159L33.5691 6.0655L34.5948 3.513L32.9779 2.09784L33.3089 0.466982L31.012 0.000732422L30.4102 2.96526L31.8002 4.18175L31.3945 5.19159Z" fill="#FF832B"/>
<path id="Vector_6" d="M34.9614 11.7072C34.6064 9.35448 32.576 7.55098 30.124 7.55098H28.078C27.7652 5.61708 26.0884 4.14014 24.0661 4.14014C21.8242 4.14014 20.0065 5.95481 20.0014 8.19527C19.9962 5.95481 18.1785 4.14014 15.9366 4.14014C13.9143 4.14014 12.2375 5.61708 11.9247 7.55098H9.87916C7.42636 7.55098 5.39536 9.35589 5.04145 11.7098C2.23046 11.8695 0 14.1987 0 17.0496C0 19.0225 1.06898 20.7448 2.65866 21.6721V24.7113C2.65866 26.4091 4.03506 27.7853 5.73294 27.7853C5.73294 30.3998 7.85261 32.5193 10.4673 32.5193C13.082 32.5193 15.2016 30.3998 15.2016 27.7853V27.6287H21.2368C23.5178 27.6279 25.3734 25.772 25.3734 23.4911H27.7172C27.7172 25.0628 27.1545 26.5054 26.2203 27.6287H29.3801C32.3126 27.6287 34.69 25.2516 34.69 22.3193C37.6225 22.3193 39.9998 19.9422 39.9998 17.0098C39.9998 14.1685 37.7678 11.8486 34.9614 11.7072ZM13.7627 23.508L12.1054 25.1652L11.0732 24.1331L10.041 25.1652L8.38378 23.508L9.41596 22.4758L8.38378 21.4436L10.041 19.7864L11.0732 20.8186L12.1054 19.7864L13.7627 21.4436L12.7305 22.4758L13.7627 23.508ZM21.3159 21.215C21.3159 20.0308 20.3525 19.0674 19.1682 19.0674H17.5085C15.0319 19.0674 13.0171 17.0526 13.0171 14.576H15.3608C15.3608 15.7602 16.3243 16.7237 17.5085 16.7237H19.1682C21.6448 16.7237 23.6596 18.7385 23.6596 21.215H21.3159ZM25.7631 13.7473L24.1058 15.4046L23.0737 14.3725L22.0416 15.4046L20.3843 13.7473L21.4164 12.7152L20.3843 11.6831L22.0416 10.0259L23.0737 11.058L24.1058 10.0259L25.7631 11.6831L24.731 12.7152L25.7631 13.7473Z" fill="#FF832B"/>
</g>
</g>
<defs>
<clipPath id="clip0_584_127648">
<rect width="40" height="40" fill="white"/>
</clipPath>
</defs>
</svg>
