<svg width="40" height="40" viewBox="0 0 40 40" fill="none" xmlns="http://www.w3.org/2000/svg">
<g id="fi_10048144" clip-path="url(#clip0_584_127606)">
<g id="Group">
<path id="Vector" d="M15.9371 35.1634H11.9707V26.9479H14.129L13.7791 25.3578H13.5642H11.9707V20.9855C11.9707 20.4239 11.6002 19.9536 11.0923 19.7916C10.9716 19.753 10.8453 19.7268 10.712 19.7268C10.0169 19.7268 9.45312 20.2906 9.45312 20.9855V23.6031V38.741C9.45312 39.4362 10.0169 40.0002 10.712 40.0002C11.4067 40.0002 11.9707 39.4364 11.9707 38.741V36.7535H16.6602C16.3453 36.4043 16.1153 35.9748 16.01 35.495L15.9371 35.1634Z" fill="#1F2A37"/>
<path id="Vector_2" d="M24.3763 4.78949C24.3763 2.14442 22.4161 0 19.999 0C17.5805 0 15.6211 2.14442 15.6211 4.78949C15.6211 7.43432 17.5805 10.7136 19.999 10.7136C22.4161 10.7136 24.3763 7.43432 24.3763 4.78949Z" fill="#1F2A37"/>
<path id="Vector_3" d="M18.5534 34.2995L19.7288 28.9572L18.4803 23.2844C18.2132 22.0694 17.0111 21.3012 15.7966 21.5692C14.5812 21.8363 13.813 23.0379 14.0805 24.2529L16.5294 35.3822C16.797 36.5969 17.9991 37.3651 19.2138 37.098C19.3041 37.0781 19.3908 37.0517 19.4763 37.0218C18.7146 36.3752 18.3242 35.3404 18.5534 34.2995Z" fill="#1F2A37"/>
<path id="Vector_4" d="M24.2019 21.569C22.9874 21.3009 21.7853 22.0694 21.5177 23.2841L19.0688 34.4134C18.8012 35.6281 19.5697 36.83 20.7839 37.0978C21.9994 37.3649 23.2015 36.5966 23.4686 35.3819L25.918 24.2526C26.1855 23.0377 25.4168 21.836 24.2019 21.569Z" fill="#1F2A37"/>
<path id="Vector_5" d="M8.5272 22.7079C8.5272 22.6336 8.5119 22.5632 8.48689 22.4976C8.76393 22.3218 8.97832 22.0472 9.06452 21.7039C10.3213 16.6578 11.7021 13.7791 12.8573 12.2689C13.7559 11.1149 14.4226 10.7596 14.8964 10.6484C14.8536 13.759 15.279 18.5788 15.279 18.5788C15.279 18.9483 15.1452 20.0541 15.0352 21.2829C15.2365 21.1819 15.4516 21.101 15.6811 21.0503C15.8785 21.0068 16.081 20.985 16.281 20.985C17.5761 20.985 18.719 21.9037 18.9975 23.1699L19.8289 26.9474H20.17L21.0011 23.1699C21.2808 21.9037 22.4232 20.985 23.7176 20.985C23.9186 20.985 24.1206 21.0068 24.3175 21.0503C24.5477 21.101 24.7628 21.1819 24.9643 21.2831C24.8543 20.0541 24.7206 18.9483 24.7206 18.5788C24.7206 18.5788 25.146 13.7587 25.1032 10.6484C25.5769 10.7599 26.2437 11.1156 27.1413 12.2689C28.2961 13.7789 29.6773 16.658 30.9341 21.7039C31.0203 22.0475 31.2352 22.3221 31.5124 22.4981C31.4877 22.5637 31.4724 22.6338 31.4724 22.7079V37.0183C31.4724 37.3473 31.7395 37.6144 32.0689 37.6144C32.3977 37.6144 32.665 37.3473 32.665 37.0183V22.7079C32.665 22.6821 32.6604 22.6576 32.6575 22.6329C33.2973 22.41 33.6734 21.7316 33.5053 21.0614C32.1884 15.8118 30.742 12.6355 29.2507 10.6647C27.783 8.6985 26.0977 7.93125 24.7133 7.94801C24.5222 7.94971 24.3411 7.9633 24.1704 7.98588C23.2951 9.81199 21.7582 11.277 20.0005 11.277C18.2417 11.277 16.7047 9.81223 15.8292 7.98612C15.6583 7.96354 15.4774 7.94971 15.2858 7.94776C13.9018 7.9315 12.2156 8.69826 10.7481 10.6652C9.2556 12.636 7.80972 15.8118 6.49277 21.0612C6.32572 21.7316 6.70134 22.4107 7.34184 22.6333C7.33869 22.6581 7.33456 22.6824 7.33456 22.7081V24.1246V37.0186C7.33456 37.3476 7.60116 37.6146 7.93064 37.6146C8.25963 37.6146 8.5272 37.3476 8.5272 37.0186V24.0615V22.7079Z" fill="#1F2A37"/>
<path id="Vector_6" d="M30.5467 20.9855C30.5467 20.2906 29.9829 19.7268 29.288 19.7268C29.1357 19.7268 28.9915 19.7579 28.8565 19.8074C28.8422 19.8128 28.8269 19.8154 28.8128 19.821C28.3532 20.0087 28.0293 20.4589 28.0293 20.9855V21.5813V25.3581H26.4358H26.2212L25.8713 26.9482H28.0295V35.1636H24.0631L23.9901 35.4953C23.8847 35.975 23.6548 36.4046 23.3398 36.7537H28.0293V38.7413C28.0293 39.4364 28.5926 40.0004 29.288 40.0004C29.9826 40.0004 30.5467 39.4367 30.5467 38.7413V38.3904V20.9855Z" fill="#1F2A37"/>
<path id="Vector_7" d="M13.6823 20.1241H13.97V14.2939H13.5266H13.2763H12.6445V15.5417V20.1241H13.6823Z" fill="#1F2A37"/>
<path id="Vector_8" d="M26.0273 14.2939H27.3528V20.1241H26.0273V14.2939Z" fill="#1F2A37"/>
</g>
</g>
<defs>
<clipPath id="clip0_584_127606">
<rect width="40" height="40" fill="white"/>
</clipPath>
</defs>
</svg>
