<svg width="41" height="40" viewBox="0 0 41 40" fill="none" xmlns="http://www.w3.org/2000/svg">
<g id="fi_6326686">
<g id="Glyph">
<g id="Glyph_2">
<path id="Vector" d="M7.375 38.75H22.375C23.3018 38.7475 24.2138 38.5179 25.0312 38.0812C25.1127 38.0351 25.1828 37.9713 25.2363 37.8945C25.2897 37.8177 25.3253 37.7299 25.3403 37.6375C25.3553 37.5451 25.3494 37.4505 25.3229 37.3607C25.2965 37.271 25.2502 37.1883 25.1875 37.1188C23.6447 35.4697 22.7867 33.2957 22.7875 31.0375C22.7875 28.0875 25.1 23.8625 27.6375 21.2188C27.8689 20.9862 27.9992 20.6718 28 20.3438V15.8625C28.022 15.1066 27.8934 14.3538 27.6214 13.6481C27.3495 12.9424 26.9398 12.298 26.4163 11.7523C25.8927 11.2066 25.2657 10.7706 24.5718 10.4698C23.878 10.1689 23.1312 10.0092 22.375 10H18V3.125C17.9985 2.62818 17.8005 2.15212 17.4492 1.80081C17.0979 1.4495 16.6218 1.25148 16.125 1.25H13.625C13.1282 1.25148 12.6521 1.4495 12.3008 1.80081C11.9495 2.15212 11.7515 2.62818 11.75 3.125V10H7.375C5.88448 10.0043 4.45622 10.5983 3.40226 11.6523C2.3483 12.7062 1.75429 14.1345 1.75 15.625V33.125C1.75429 34.6155 2.3483 36.0438 3.40226 37.0977C4.45622 38.1517 5.88448 38.7457 7.375 38.75ZM11.75 33.2812C11.7509 33.5011 11.6938 33.7173 11.5844 33.908C11.475 34.0987 11.3173 34.2572 11.1272 34.3675C10.937 34.4778 10.7211 34.536 10.5012 34.5362C10.2814 34.5364 10.0654 34.4787 9.875 34.3688L7.6625 33.0875C7.47308 32.9776 7.31584 32.8199 7.20654 32.6301C7.09724 32.4404 7.03971 32.2252 7.03971 32.0062C7.03971 31.7873 7.09724 31.5721 7.20654 31.3824C7.31584 31.1926 7.47308 31.0349 7.6625 30.925L9.875 29.65C10.0649 29.5403 10.2804 29.4826 10.4997 29.4825C10.719 29.4825 10.9345 29.5401 11.1244 29.6497C11.3144 29.7592 11.4722 29.9169 11.5821 30.1067C11.6919 30.2965 11.7498 30.5119 11.75 30.7312V33.2812ZM19.875 34.3438C19.6851 34.4534 19.4696 34.5112 19.2503 34.5112C19.031 34.5113 18.8155 34.4536 18.6256 34.3441C18.4356 34.2345 18.2778 34.0769 18.1679 33.8871C18.0581 33.6972 18.0002 33.4818 18 33.2625V30.7312C18.0002 30.5119 18.0581 30.2965 18.1679 30.1067C18.2778 29.9169 18.4356 29.7592 18.6256 29.6497C18.8155 29.5401 19.031 29.4825 19.2503 29.4825C19.4696 29.4826 19.6851 29.5403 19.875 29.65L21.55 30.6188C21.5058 31.502 21.5815 32.3871 21.775 33.25L19.875 34.3438ZM13 5.41875H16.75V10H13V5.41875ZM6.75 17.4312C6.74984 17.1119 6.81261 16.7957 6.93473 16.5007C7.05686 16.2056 7.23593 15.9375 7.46173 15.7117C7.68753 15.4859 7.95561 15.3069 8.25066 15.1847C8.5457 15.0626 8.86193 14.9998 9.18125 15H20.5688C20.8881 14.9998 21.2043 15.0626 21.4993 15.1847C21.7944 15.3069 22.0625 15.4859 22.2883 15.7117C22.5141 15.9375 22.6931 16.2056 22.8153 16.5007C22.9374 16.7957 23.0002 17.1119 23 17.4312V23.8188C23.0002 24.1381 22.9374 24.4543 22.8153 24.7493C22.6931 25.0444 22.5141 25.3125 22.2883 25.5383C22.0625 25.7641 21.7944 25.9431 21.4993 26.0653C21.2043 26.1874 20.8881 26.2502 20.5688 26.25H9.18125C8.86193 26.2502 8.5457 26.1874 8.25066 26.0653C7.95561 25.9431 7.68753 25.7641 7.46173 25.5383C7.23593 25.3125 7.05686 25.0444 6.93473 24.7493C6.81261 24.4543 6.74984 24.1381 6.75 23.8188V17.4312Z" fill="#F0BB00"/>
<path id="Vector_2" d="M32.2708 20.0838C31.8996 19.9693 31.5007 19.9829 31.1383 20.1225C28.532 21.0907 24.0352 27.2425 24.0352 31.0344C24.0535 33.0683 24.8743 35.0126 26.3189 36.4444C27.7636 37.8761 29.7153 38.6794 31.7492 38.6794C33.7832 38.6794 35.7348 37.8761 37.1795 36.4444C38.6242 35.0126 39.445 33.0683 39.4633 31.0344C39.4633 27.0907 34.9227 20.8713 32.2708 20.0838ZM33.0008 36.25C32.8772 36.25 32.7563 36.2134 32.6536 36.1447C32.5508 36.076 32.4707 35.9784 32.4234 35.8642C32.3761 35.75 32.3637 35.6243 32.3878 35.5031C32.4119 35.3819 32.4714 35.2705 32.5588 35.1831C32.6462 35.0957 32.7576 35.0362 32.8788 35.0121C33.0001 34.9879 33.1258 35.0003 33.24 35.0476C33.3542 35.0949 33.4518 35.175 33.5205 35.2778C33.5891 35.3806 33.6258 35.5014 33.6258 35.625C33.6258 35.7908 33.5599 35.9498 33.4427 36.067C33.3255 36.1842 33.1665 36.25 33.0008 36.25ZM35.7133 31.0375C35.7133 30.8718 35.7791 30.7128 35.8963 30.5956C36.0135 30.4784 36.1725 30.4125 36.3383 30.4125C36.504 30.4125 36.663 30.4784 36.7802 30.5956C36.8974 30.7128 36.9633 30.8718 36.9633 31.0375C36.9647 32.3698 36.4546 33.6517 35.5383 34.6188C35.4236 34.7393 35.2659 34.8095 35.0997 34.8142C34.9334 34.8189 34.7721 34.7576 34.6508 34.6438C34.531 34.53 34.4611 34.3735 34.4564 34.2083C34.4517 34.0432 34.5126 33.8829 34.6258 33.7625C35.3258 33.0282 35.7154 32.0521 35.7133 31.0375Z" fill="#F0BB00"/>
</g>
</g>
</g>
</svg>
