<svg width="40" height="40" viewBox="0 0 40 40" fill="none" xmlns="http://www.w3.org/2000/svg">
<g id="fi_17098264">
<g id="Group">
<path id="Vector" d="M4.36517 26.1944C4.00517 25.3944 3.71374 24.5087 3.50231 23.5258C3.08517 21.5887 3.04517 19.5601 3.38803 17.4915C4.32517 11.863 7.43946 8.89726 11.7252 9.56012C11.9652 9.60583 12.1937 9.66297 12.4166 9.73726C11.7823 9.04583 10.9252 8.58869 9.8966 8.3944C5.91945 7.77726 3.11374 10.4915 2.22231 15.8515C1.89088 17.8515 1.93088 19.8115 2.3366 21.6744C2.73088 23.5315 3.42803 25.0573 4.36517 26.1944Z" fill="#F631E2"/>
<path id="Vector_2" d="M14.9551 23.1199C14.9551 23.1142 14.9551 23.1142 14.9551 23.1199C14.898 22.9771 14.8237 22.8342 14.7265 22.6857C14.578 22.4742 14.3837 22.2628 14.098 22.0171C13.8294 21.7828 13.618 21.5028 13.4637 21.1828C13.458 21.1714 13.458 21.1599 13.4522 21.1428C13.4522 21.1428 13.4522 21.1428 13.4522 21.1371C13.4237 21.0742 13.4122 21.0228 13.3894 20.9657C12.0351 21.5942 11.7722 22.8971 11.7608 22.9542C11.7322 23.0914 11.6122 23.1885 11.4808 23.1885C11.4637 23.1885 11.4465 23.1885 11.4294 23.1828C11.2751 23.1542 11.1722 23.0057 11.2008 22.8514C11.2122 22.7771 11.538 21.1371 13.2522 20.4057C13.2237 20.1828 13.2294 19.9599 13.2694 19.7428C11.5437 19.0114 11.2122 17.3599 11.2008 17.2914C11.1722 17.1371 11.2751 16.9885 11.4294 16.9599C11.5837 16.9314 11.7322 17.0342 11.7608 17.1885C11.7722 17.2457 12.0408 18.5771 13.4294 19.1999C13.458 19.1371 13.4808 19.0685 13.5151 19.0057L13.5494 18.9428C13.5951 18.8685 13.6637 18.7599 13.738 18.6742C15.1894 17.0571 15.7094 14.9085 15.0865 13.0628C14.5665 11.5142 13.3037 10.4457 11.6237 10.1314C11.2522 10.0742 10.8922 10.0457 10.5437 10.0457C7.13796 10.0457 4.76082 12.7314 3.94939 17.5942C3.61796 19.5885 3.65796 21.5485 4.05796 23.4114C4.9551 27.5771 7.26368 30.0228 10.5551 30.2971C12.4408 30.2971 14.8122 29.4971 15.2522 25.6857C15.3665 24.7428 15.2637 23.8857 14.9551 23.1199Z" fill="#F631E2"/>
<path id="Vector_3" d="M18.4095 34.1715C18.7581 34.1715 19.0381 33.8915 19.0381 33.5429V25.3029C19.0381 23.0115 17.2552 21.1201 14.9752 20.9829L14.1523 21.2286C14.2438 21.3601 14.3466 21.4801 14.4666 21.5886C14.6609 21.7601 14.9009 21.9886 15.1123 22.2686C16.6381 22.4743 17.7752 23.7543 17.7752 25.3086V33.5429C17.7809 33.8915 18.0609 34.1715 18.4095 34.1715Z" fill="#F631E2"/>
<path id="Vector_4" d="M14.9313 19.0858L13.9656 19.3715C13.7828 19.7543 13.7428 20.1886 13.8571 20.6058C13.8685 20.64 13.8799 20.6686 13.8913 20.7029L15.2856 20.2858C17.5885 19.6058 19.5313 17.96 20.6056 15.7715C20.6513 15.6743 20.7542 15.6115 20.8628 15.6115C20.9713 15.6115 21.0685 15.6743 21.1199 15.7715C22.1942 17.96 24.1313 19.6058 26.4342 20.2858L27.8285 20.7029C27.8399 20.6686 27.8571 20.64 27.8628 20.6058C27.9771 20.1829 27.9371 19.7486 27.7542 19.3658L26.7885 19.08C23.6685 18.1543 21.4856 15.24 21.4856 11.9829V6.45718C21.4856 6.10861 21.1999 5.82861 20.8571 5.82861C20.5085 5.82861 20.2285 6.11433 20.2285 6.45718V11.9886C20.2342 15.2458 18.0513 18.16 14.9313 19.0858Z" fill="#F631E2"/>
<path id="Vector_5" d="M23.9522 33.543V25.303C23.9522 23.7487 25.0893 22.4744 26.615 22.263C26.8265 21.983 27.0664 21.7487 27.2607 21.583C27.3807 21.4744 27.4836 21.3544 27.575 21.223L26.7522 20.9773C24.4665 21.1144 22.6836 23.0059 22.6836 25.2973V33.543C22.6836 33.8916 22.9693 34.1716 23.3179 34.1716C23.6665 34.1716 23.9522 33.8916 23.9522 33.543Z" fill="#F631E2"/>
<path id="Vector_6" d="M37.775 17.583C36.9635 12.7259 34.5864 10.0344 31.175 10.0344C30.8207 10.0344 30.4607 10.063 30.0893 10.1201C28.4207 10.4344 27.1635 11.503 26.6378 13.0516C26.015 14.8916 26.535 17.0459 27.9921 18.663C28.0664 18.743 28.135 18.8516 28.1807 18.9259L28.215 18.9887C28.2493 19.0516 28.2721 19.1201 28.3007 19.183C29.6893 18.5601 29.9578 17.2344 29.9693 17.1716C29.9978 17.0173 30.1521 16.9144 30.3007 16.943C30.455 16.9716 30.5578 17.1201 30.5293 17.2744C30.5178 17.3487 30.1864 19.0001 28.4607 19.7259C28.495 19.943 28.5007 20.1659 28.4778 20.3887C30.1921 21.1259 30.5178 22.7659 30.5293 22.8344C30.5578 22.9887 30.455 23.1373 30.3007 23.1659C30.2835 23.1716 30.2664 23.1716 30.2493 23.1716C30.1121 23.1716 29.9921 23.0744 29.9693 22.9373C29.9578 22.8801 29.695 21.5773 28.3407 20.9487C28.3178 21.0173 28.3007 21.0859 28.2664 21.1601C28.1121 21.4859 27.9007 21.7659 27.6321 22.0001C27.3464 22.2459 27.1521 22.4573 27.0035 22.6744C26.9064 22.823 26.8321 22.9601 26.775 23.103C26.4664 23.8687 26.3693 24.7316 26.4721 25.663C26.9121 29.4744 29.2835 30.2744 31.1921 30.2744C34.4607 30.0001 36.7693 27.5544 37.6664 23.3887C38.0664 21.5373 38.1064 19.5773 37.775 17.583Z" fill="#F631E2"/>
</g>
</g>
</svg>
