<svg width="40" height="40" viewBox="0 0 40 40" fill="none" xmlns="http://www.w3.org/2000/svg">
<g id="fi_10052346" clip-path="url(#clip0_584_127637)">
<g id="Group">
<path id="Vector" d="M19.7976 7.56639C19.8925 7.55203 19.989 7.54467 20.0845 7.54467C21.0275 7.54467 21.8145 8.22251 21.9562 9.15635C22.0321 9.65695 21.9086 10.1572 21.6082 10.5648C21.308 10.9725 20.8671 11.239 20.3663 11.3148L16.0066 11.9761C15.9613 12.1589 15.919 12.34 15.8794 12.5192L15.6904 12.024L15.1882 12.1002L16.9042 17.0561C17.0696 17.5346 17.0391 18.049 16.8181 18.5044C16.5968 18.9601 16.2116 19.302 15.7331 19.4677C15.7013 19.4787 15.6691 19.4874 15.6369 19.4966C15.6481 19.5989 15.6577 19.6979 15.6698 19.8024C15.9543 21.2665 16.5944 22.0809 17.3724 22.5282C17.894 25.5772 18.0138 31.4842 12.6202 35.9226C11.639 36.73 11.498 38.1797 12.3055 39.1609C13.1129 40.1418 14.5631 40.2826 15.5437 39.4754C18.6948 36.8826 20.7771 33.5764 21.6803 29.7788C22.3806 32.0258 22.9567 34.7237 23.1991 37.8753C23.2918 39.0823 24.2997 39.9996 25.4903 39.9996C25.5495 39.9996 25.6092 39.9973 25.6693 39.9927C26.9361 39.8952 27.884 38.7893 27.7866 37.5225C27.1134 28.7699 24.1031 22.9901 22.2397 20.1801C21.8462 17.0379 22.7255 13.3931 23.2247 10.8429C23.7527 9.01169 23.0618 6.81935 21.491 6.42751C20.9508 6.29298 20.3271 6.30549 19.7035 6.48935L12.8348 8.14686C12.4509 8.23962 12.1231 8.48348 11.9204 8.81992C12.0621 8.76084 12.2112 8.71667 12.3667 8.69311L19.7976 7.56639Z" fill="#02C1E0"/>
<path id="Vector_2" d="M13.7223 18.1586C13.9332 18.7675 14.5034 19.1495 15.1137 19.1495C15.2735 19.1495 15.436 19.1232 15.5955 19.0682C16.3639 18.8022 16.771 17.9635 16.5049 17.1952L14.6223 11.7585L20.3036 10.8966C21.1075 10.7746 21.6604 10.024 21.5384 9.22012C21.4165 8.41621 20.668 7.86297 19.8619 7.98517L12.4311 9.11245C11.9986 9.17797 11.6178 9.4325 11.3918 9.80685C11.1656 10.1812 11.1177 10.6367 11.2607 11.0499L13.7223 18.1586Z" fill="#02C1E0"/>
<path id="Vector_3" d="M27.0277 8.28203C29.3148 8.28203 31.1687 6.42804 31.1687 4.14102C31.1687 1.854 29.3148 0 27.0277 0C24.7407 0 22.8867 1.854 22.8867 4.14102C22.8867 6.42804 24.7407 8.28203 27.0277 8.28203Z" fill="#02C1E0"/>
<path id="Vector_4" d="M11.896 22.0651L11.1038 21.1951L13.822 20.4094L13.781 20.2869L10.4313 20.8679L11.2413 21.8928L8.82812 22.6325L9.03149 23.1598L11.896 22.0651Z" fill="#02C1E0"/>
<path id="Vector_5" d="M11.4723 18.8119L13.7977 19.3774L13.8191 19.2705L11.1158 18.2888L11.28 19.3822L9.19733 18.9109L9.125 19.3833L11.6882 19.7836L11.4723 18.8119Z" fill="#02C1E0"/>
<path id="Vector_6" d="M12.096 25.051L13.8561 23.2001L12.9485 22.83L14.7099 21.2641L14.6357 21.187L12.3259 22.8254L13.3023 23.3056L11.7539 24.7273L12.096 25.051Z" fill="#02C1E0"/>
</g>
</g>
<defs>
<clipPath id="clip0_584_127637">
<rect width="40" height="40" fill="white"/>
</clipPath>
</defs>
</svg>
