<svg width="20" height="20" viewBox="0 0 20 20" fill="none" xmlns="http://www.w3.org/2000/svg">
<path fill-rule="evenodd" clip-rule="evenodd" d="M8.80659 1.66675H11.1931C11.4034 1.66673 11.6082 1.6667 11.7817 1.68087C11.9722 1.69644 12.197 1.73316 12.4232 1.84841C12.7368 2.0082 12.9917 2.26317 13.1515 2.57677C13.2668 2.80295 13.3035 3.02773 13.3191 3.21823C13.3332 3.3917 13.3332 3.59653 13.3332 3.80685L13.3332 6.16675C13.3332 6.41386 13.3338 6.54907 13.3418 6.64622C13.3421 6.65009 13.3424 6.65375 13.3427 6.65721C13.3462 6.65753 13.3498 6.65785 13.3537 6.65817C13.4509 6.6661 13.5861 6.66675 13.8332 6.66675L16.1931 6.66675C16.4034 6.66672 16.6082 6.6667 16.7817 6.68087C16.9722 6.69644 17.197 6.73316 17.4232 6.84841C17.7368 7.0082 17.9917 7.26317 18.1515 7.57677C18.2668 7.80295 18.3035 8.02773 18.3191 8.21823C18.3332 8.39169 18.3332 8.59651 18.3332 8.80682V11.1933C18.3332 11.4037 18.3332 11.6085 18.3191 11.7819C18.3035 11.9724 18.2668 12.1972 18.1515 12.4234C17.9917 12.737 17.7368 12.992 17.4232 13.1518C17.197 13.267 16.9722 13.3037 16.7817 13.3193C16.6082 13.3335 16.4034 13.3334 16.1931 13.3334L13.8332 13.3334C13.5861 13.3334 13.4509 13.3341 13.3537 13.342C13.3498 13.3423 13.3462 13.3426 13.3427 13.343C13.3424 13.3464 13.3421 13.3501 13.3418 13.3539C13.3338 13.4511 13.3332 13.5863 13.3332 13.8334L13.3332 16.1933C13.3332 16.4036 13.3332 16.6085 13.3191 16.7819C13.3035 16.9724 13.2668 17.1972 13.1515 17.4234C12.9917 17.737 12.7368 17.992 12.4232 18.1518C12.197 18.267 11.9722 18.3037 11.7817 18.3193C11.6082 18.3335 11.4034 18.3334 11.1931 18.3334H8.80658C8.59626 18.3334 8.39144 18.3335 8.21798 18.3193C8.02749 18.3037 7.80271 18.267 7.57652 18.1518C7.26292 17.992 7.00795 17.737 6.84816 17.4234C6.73292 17.1972 6.69619 16.9724 6.68063 16.7819C6.66646 16.6085 6.66648 16.4037 6.66651 16.1933L6.66651 13.8334C6.66651 13.5863 6.66586 13.4511 6.65792 13.3539C6.65761 13.3501 6.65729 13.3464 6.65697 13.343C6.65351 13.3426 6.64985 13.3423 6.64598 13.342C6.54883 13.3341 6.41361 13.3334 6.16651 13.3334L3.80661 13.3334C3.59628 13.3334 3.39145 13.3335 3.21798 13.3193C3.02749 13.3037 2.80271 13.267 2.57652 13.1518C2.26292 12.992 2.00795 12.737 1.84816 12.4234C1.73292 12.1972 1.69619 11.9724 1.68063 11.7819C1.66646 11.6085 1.66648 11.4037 1.66651 11.1933V8.80684C1.66648 8.59652 1.66646 8.39169 1.68063 8.21823C1.69619 8.02773 1.73292 7.80295 1.84816 7.57677C2.00795 7.26316 2.26292 7.0082 2.57652 6.84841C2.80271 6.73316 3.02749 6.69644 3.21798 6.68087C3.39145 6.6667 3.59627 6.66672 3.80659 6.66675C3.81544 6.66675 3.82431 6.66675 3.83318 6.66675H6.16651C6.41361 6.66675 6.54883 6.6661 6.64598 6.65817C6.64985 6.65785 6.65351 6.65753 6.65697 6.65721C6.65729 6.65375 6.65761 6.65009 6.65792 6.64622C6.66586 6.54907 6.66651 6.41386 6.66651 6.16675V3.83342C6.66651 3.82455 6.66651 3.81569 6.66651 3.80684C6.66648 3.59652 6.66646 3.39169 6.68063 3.21823C6.69619 3.02773 6.73292 2.80295 6.84816 2.57677C7.00795 2.26316 7.26292 2.0082 7.57652 1.84841C7.80271 1.73316 8.02749 1.69644 8.21798 1.68087C8.39145 1.6667 8.59627 1.66673 8.80659 1.66675ZM8.34272 3.34296C8.3424 3.34642 8.34208 3.35008 8.34176 3.35395C8.33382 3.4511 8.33317 3.58631 8.33317 3.83342V6.16675C8.33317 6.17562 8.33318 6.18448 8.33318 6.19333C8.3332 6.40365 8.33323 6.60848 8.31905 6.78194C8.30349 6.97244 8.26677 7.19722 8.15152 7.4234C7.99173 7.73701 7.73676 7.99197 7.42316 8.15176C7.19697 8.26701 6.97219 8.30373 6.7817 8.3193C6.60823 8.33347 6.40341 8.33345 6.19309 8.33342C6.18424 8.33342 6.17538 8.33342 6.16651 8.33342H3.83318C3.58607 8.33342 3.45086 8.33407 3.3537 8.342C3.34983 8.34232 3.34617 8.34264 3.34272 8.34296C3.3424 8.34642 3.34208 8.35008 3.34176 8.35395C3.33382 8.4511 3.33317 8.58631 3.33317 8.83342V11.1668C3.33317 11.4139 3.33382 11.5491 3.34176 11.6462C3.34208 11.6501 3.3424 11.6538 3.34272 11.6572C3.34617 11.6575 3.34983 11.6578 3.3537 11.6582C3.45086 11.6661 3.58607 11.6668 3.83317 11.6668L6.19308 11.6668C6.4034 11.6667 6.60823 11.6667 6.7817 11.6809C6.97219 11.6964 7.19697 11.7332 7.42316 11.8484C7.73676 12.0082 7.99173 12.2632 8.15152 12.5768C8.26677 12.803 8.30349 13.0277 8.31905 13.2182C8.33323 13.3917 8.3332 13.5965 8.33318 13.8068L8.33317 16.1668C8.33317 16.4139 8.33382 16.5491 8.34176 16.6462C8.34208 16.6501 8.3424 16.6537 8.34271 16.6572C8.34617 16.6575 8.34984 16.6578 8.3537 16.6582C8.45086 16.6661 8.58607 16.6668 8.83317 16.6668H11.1665C11.4136 16.6668 11.5488 16.6661 11.646 16.6582C11.6498 16.6578 11.6535 16.6575 11.657 16.6572C11.6573 16.6537 11.6576 16.6501 11.6579 16.6462C11.6659 16.5491 11.6665 16.4139 11.6665 16.1668L11.6665 13.8069C11.6665 13.5965 11.6665 13.3917 11.6806 13.2182C11.6962 13.0277 11.7329 12.803 11.8482 12.5768C12.008 12.2632 12.2629 12.0082 12.5765 11.8484C12.8027 11.7332 13.0275 11.6964 13.218 11.6809C13.3915 11.6667 13.5963 11.6667 13.8066 11.6668L16.1665 11.6668C16.4136 11.6668 16.5488 11.6661 16.646 11.6582C16.6498 11.6579 16.6535 11.6575 16.657 11.6572C16.6573 11.6537 16.6576 11.6501 16.6579 11.6462C16.6659 11.5491 16.6665 11.4139 16.6665 11.1668V8.83342C16.6665 8.58631 16.6659 8.4511 16.6579 8.35395C16.6576 8.35008 16.6573 8.34642 16.657 8.34296C16.6535 8.34264 16.6498 8.34232 16.646 8.342C16.5488 8.33407 16.4136 8.33342 16.1665 8.33342L13.8066 8.33342C13.5963 8.33345 13.3914 8.33347 13.218 8.3193C13.0275 8.30373 12.8027 8.26701 12.5765 8.15176C12.2629 7.99197 12.008 7.73701 11.8482 7.4234C11.7329 7.19722 11.6962 6.97244 11.6806 6.78194C11.6665 6.60847 11.6665 6.40364 11.6665 6.19332L11.6665 3.83342C11.6665 3.58631 11.6659 3.4511 11.6579 3.35395C11.6576 3.35008 11.6573 3.34642 11.657 3.34296C11.6535 3.34264 11.6498 3.34232 11.646 3.342C11.5488 3.33407 11.4136 3.33342 11.1665 3.33342H8.83317C8.58607 3.33342 8.45086 3.33407 8.3537 3.342C8.34983 3.34232 8.34617 3.34264 8.34272 3.34296Z" fill="black"/>
</svg>
