<svg width="40" height="40" viewBox="0 0 40 40" fill="none" xmlns="http://www.w3.org/2000/svg">
<g id="fi_3740526">
<path id="Vector" d="M21.6673 28.3333C21.1123 28.3333 20.5907 28.0566 20.2807 27.5916L17.4423 23.3333H15.0007C14.0807 23.3333 13.334 22.5866 13.334 21.6666C13.334 20.7466 14.0807 19.9999 15.0007 19.9999H18.334C18.8907 19.9999 19.4107 20.2783 19.7207 20.7416L21.4607 23.3516L25.1757 15.9199C25.449 15.3766 25.994 15.0233 26.6023 14.9999C27.244 14.9833 27.7823 15.2866 28.0957 15.8066L32.6107 23.3333H35.0007C35.9207 23.3333 36.6673 24.0799 36.6673 24.9999C36.6673 25.9199 35.9207 26.6666 35.0007 26.6666H31.6673C31.0823 26.6666 30.539 26.3599 30.239 25.8583L26.8007 20.1283L23.159 27.4133C22.8923 27.9449 22.364 28.2949 21.7707 28.3316C21.7373 28.3333 21.7023 28.3333 21.6673 28.3333Z" fill="#6938EF"/>
<path id="Vector_2" d="M31.6673 29.9999C29.9173 29.9999 28.284 29.0666 27.384 27.5666L27.0673 27.0499L26.134 28.8999C25.3507 30.4999 23.7507 31.5499 21.984 31.6499L21.6673 31.6666C19.984 31.6666 18.434 30.8333 17.5007 29.4333L15.6507 26.6666H15.0007C12.2507 26.6666 10.0007 24.4166 10.0007 21.6666C10.0007 18.9166 12.2507 16.6666 15.0007 16.6666H18.334C19.2007 16.6666 20.034 16.8833 20.7673 17.2999L22.2007 14.4333C23.0173 12.7999 24.6507 11.7333 26.484 11.6666C27.2007 11.6499 27.9007 11.7666 28.534 12.0333C24.584 5.8166 19.5673 0.716602 19.2173 0.366602C18.7507 -0.100065 17.9173 -0.100065 17.4507 0.366602C16.8673 0.949935 3.33398 14.7166 3.33398 24.8833C3.33398 33.2166 10.0673 39.9999 18.334 39.9999C24.8173 39.9999 30.3673 35.8166 32.4507 29.9999H31.6673Z" fill="#6938EF"/>
</g>
</svg>
