<svg width="33" height="32" viewBox="0 0 33 32" fill="none" xmlns="http://www.w3.org/2000/svg">
<g id="fi_844219" clip-path="url(#clip0_96_98827)">
<g id="Group">
<g id="Group_2">
<path id="Vector" d="M24.9692 1.89229C22.4756 -0.601244 18.4216 -0.6095 15.928 1.89229L9.66943 8.1509L18.7188 17.2003L24.9692 10.9334C27.4627 8.43163 27.4627 4.38583 24.9692 1.89229ZM18.5537 5.59131L15.7051 8.39861L15.6969 8.40686C15.3666 8.72888 14.8464 8.72062 14.5327 8.39035C14.2106 8.06008 14.2189 7.53991 14.5492 7.22615L17.406 4.41886L17.4143 4.4106C17.7445 4.08859 18.2647 4.09684 18.5785 4.42711C18.8922 4.74913 18.884 5.27756 18.5537 5.59131Z" fill="#014377"/>
</g>
</g>
<g id="Group_3">
<g id="Group_4">
<path id="Vector_2" d="M8.49686 9.31519L2.19697 15.6233C-0.288312 18.1251 -0.288312 22.1627 2.19697 24.6645C4.71527 27.1498 8.76933 27.1498 11.2876 24.6645L17.5545 18.3728L8.49686 9.31519Z" fill="#014377"/>
</g>
</g>
<g id="Group_5">
<g id="Group_6">
<path id="Vector_3" d="M31.013 21.7498L22.104 30.667C24.6388 32.6074 28.214 32.3762 30.4681 30.1221C32.7304 27.868 32.9616 24.2846 31.013 21.7498Z" fill="#014377"/>
</g>
</g>
<g id="Group_7">
<g id="Group_8">
<path id="Vector_4" d="M25.9763 19.2727C22.4672 19.2727 19.6187 22.113 19.6187 25.6304C19.6187 27.034 20.081 28.3964 20.9315 29.5028L29.8405 20.5938C28.7341 19.7351 27.38 19.2727 25.9763 19.2727Z" fill="#014377"/>
</g>
</g>
</g>
<defs>
<clipPath id="clip0_96_98827">
<rect width="32" height="32" fill="white" transform="translate(0.333008)"/>
</clipPath>
</defs>
</svg>
