<svg width="40" height="40" viewBox="0 0 40 40" fill="none" xmlns="http://www.w3.org/2000/svg">
<g id="fi_3023746">
<path id="Vector" d="M5.90703 12.8875L4.92578 12.1131C6.83141 9.70064 9.07328 7.58438 11.5895 5.82251L12.3058 6.84688C9.88953 8.53813 7.73641 10.5706 5.90703 12.8875Z" fill="#FF832B"/>
<path id="Vector_2" d="M30.625 1.25H38.75L35.625 6.875H37.5L30.625 13.75L31.875 7.5H30L30.625 1.25Z" fill="#FF832B"/>
<path id="Vector_3" d="M25.3688 8.38125C25.1313 8.2125 24.8438 8.125 24.5501 8.125C23.7626 8.125 23.1251 8.7625 23.1251 9.55V17.5C21.7445 17.5 20.6251 16.3806 20.6251 15V1.25H18.1251V15C18.1251 16.3806 17.0057 17.5 15.6251 17.5V9.55C15.6251 8.7625 14.9876 8.125 14.2001 8.125C13.9063 8.125 13.6188 8.2125 13.3813 8.38125C9.91508 10.8106 7.08508 13.9438 5.0332 17.5125C6.5707 20.1231 9.3382 21.875 12.5001 21.875C13.602 21.875 14.6532 21.6537 15.6251 21.2669V20C17.1188 20 18.4626 19.3438 19.3751 18.3063C20.2876 19.3438 21.6313 20 23.1251 20V30.3938C23.1251 30.9663 23.3201 31.5112 23.662 31.9462C29.1757 30.4969 33.592 26.32 35.3832 20.9519C33.347 15.9519 29.9113 11.5644 25.3688 8.38125Z" fill="#FF832B"/>
<path id="Vector_4" d="M24.9336 32.8745L35.3055 38.5751C35.5117 38.6876 35.7492 38.7501 35.993 38.7501H36.0742C36.8623 38.7501 37.4992 38.1126 37.4992 37.3251V31.6814C37.4992 28.597 36.9955 25.5782 36.0473 22.7295C33.9967 27.5232 29.9373 31.2576 24.9336 32.8745Z" fill="#FF832B"/>
<path id="Vector_5" d="M2.20812 24.4019C2.18375 24.4931 2.15438 24.5831 2.13125 24.675C1.55 26.9375 1.25 29.2875 1.25 31.6812V37.325C1.25 38.1125 1.8875 38.75 2.675 38.75H2.75625C3 38.75 3.2375 38.6875 3.44375 38.575L8.43125 35.8312L8.70125 35.6825C5.77812 33.4794 3.44062 29.4281 2.20812 24.4019Z" fill="#FF832B"/>
<path id="Vector_6" d="M12.4994 23.125C9.14063 23.125 6.17 21.4025 4.35562 18.7756C4.31187 18.8619 4.26125 18.945 4.21813 19.0319C3.74563 19.9806 3.33125 20.9581 2.96875 21.9575C3.98438 28.01 6.56937 32.8713 9.88312 35.0338L14.3306 32.5888C15.1306 32.1513 15.6244 31.3075 15.6244 30.395V22.6019C14.64 22.9375 13.5913 23.125 12.4994 23.125Z" fill="#FF832B"/>
</g>
</svg>
