<svg width="20" height="20" viewBox="0 0 20 20" fill="none" xmlns="http://www.w3.org/2000/svg">
<path fill-rule="evenodd" clip-rule="evenodd" d="M6.46543 1.66675H13.5343C14.2051 1.66674 14.7587 1.66673 15.2097 1.70358C15.6781 1.74185 16.1087 1.82398 16.5131 2.03006C17.1404 2.34964 17.6503 2.85957 17.9699 3.48678C18.1759 3.89123 18.2581 4.32181 18.2964 4.79023C18.3332 5.24122 18.3332 5.79485 18.3332 6.46565V11.0345C18.3332 11.7053 18.3332 12.2589 18.2964 12.7099C18.2581 13.1784 18.1759 13.6089 17.9699 14.0134C17.6503 14.6406 17.1404 15.1505 16.5131 15.4701C16.1087 15.6762 15.6781 15.7583 15.2097 15.7966C14.7587 15.8334 14.2051 15.8334 13.5343 15.8334H8.06964C7.51621 15.8334 7.35505 15.8373 7.20839 15.8674C7.06129 15.8976 6.91894 15.9476 6.78521 16.0159C6.65189 16.084 6.52359 16.1816 6.09143 16.5273L4.08049 18.1361C3.92742 18.2586 3.7714 18.3835 3.63424 18.4741C3.50305 18.5609 3.24868 18.7161 2.91786 18.7165C2.53718 18.7169 2.17707 18.5438 1.93958 18.2463C1.7332 17.9878 1.69553 17.6921 1.68131 17.5355C1.66643 17.3718 1.66647 17.1719 1.66651 16.9759L1.66651 6.46567C1.6665 5.79486 1.66649 5.24122 1.70334 4.79023C1.74161 4.32181 1.82375 3.89123 2.02982 3.48678C2.3494 2.85957 2.85934 2.34964 3.48654 2.03006C3.89099 1.82398 4.32158 1.74185 4.78999 1.70358C5.24099 1.66673 5.79462 1.66674 6.46543 1.66675ZM4.92571 3.36471C4.56036 3.39456 4.37353 3.44866 4.24319 3.51507C3.92959 3.67486 3.67462 3.92983 3.51483 4.24343C3.44843 4.37376 3.39432 4.5606 3.36447 4.92595C3.33383 5.30102 3.33318 5.78627 3.33318 6.50008V16.5996L5.05028 15.2259C5.06923 15.2107 5.08792 15.1958 5.10638 15.181C5.4581 14.8994 5.72398 14.6865 6.02696 14.5317C6.29442 14.3951 6.57911 14.2952 6.87332 14.2348C7.2066 14.1664 7.54721 14.1665 7.9978 14.1667C8.02143 14.1667 8.04538 14.1667 8.06964 14.1667H13.4998C14.2137 14.1667 14.6989 14.1661 15.074 14.1355C15.4393 14.1056 15.6262 14.0515 15.7565 13.9851C16.0701 13.8253 16.3251 13.5703 16.4849 13.2567C16.5513 13.1264 16.6054 12.9396 16.6352 12.5742C16.6659 12.1991 16.6665 11.7139 16.6665 11.0001V6.50008C16.6665 5.78627 16.6659 5.30102 16.6352 4.92595C16.6054 4.5606 16.5513 4.37376 16.4849 4.24343C16.3251 3.92983 16.0701 3.67486 15.7565 3.51507C15.6262 3.44866 15.4393 3.39456 15.074 3.36471C14.6989 3.33406 14.2137 3.33342 13.4998 3.33342H6.49985C5.78603 3.33342 5.30078 3.33406 4.92571 3.36471Z" fill="black"/>
</svg>
