<svg width="197" height="41" viewBox="0 0 197 41" fill="none" xmlns="http://www.w3.org/2000/svg">
<path d="M0 20.5C0 9.17816 9.17816 0 20.5 0H176.5C187.822 0 197 9.17816 197 20.5C197 31.8218 187.822 41 176.5 41H20.5C9.17816 41 0 31.8218 0 20.5Z" fill="#1C9401"/>
<path d="M27.1494 26V16.5298H28.9438V26H27.1494ZM24.3809 16.8228V15.2041H31.7051V16.8228H24.3809ZM33.9609 26.1172C33.4531 26.1172 33.0015 26.0171 32.606 25.8169C32.2104 25.6118 31.9004 25.3335 31.6758 24.9819C31.4512 24.6255 31.3389 24.2153 31.3389 23.7515C31.3389 23.2632 31.4707 22.8408 31.7344 22.4844C31.998 22.123 32.3887 21.8447 32.9062 21.6494C33.4238 21.4492 34.0562 21.3491 34.8032 21.3491H36.4951V22.5576H34.8472C34.2612 22.5576 33.8071 22.6528 33.4849 22.8433C33.1626 23.0337 33.0015 23.3169 33.0015 23.6929C33.0015 23.9175 33.0576 24.1079 33.1699 24.2642C33.2822 24.4204 33.436 24.54 33.6313 24.623C33.8315 24.7061 34.0537 24.7476 34.2979 24.7476C34.5518 24.7476 34.8301 24.6914 35.1328 24.5791C35.4355 24.4668 35.6968 24.2935 35.9165 24.0591C36.1362 23.8247 36.2461 23.5269 36.2461 23.1655V22.3599L36.1509 21.9424V20.9829C36.1509 20.8315 36.1313 20.6729 36.0923 20.5068C36.0581 20.3408 35.9873 20.187 35.8799 20.0454C35.7773 19.8989 35.6284 19.7817 35.4331 19.6938C35.2378 19.6011 34.9839 19.5547 34.6714 19.5547C34.4224 19.5547 34.1611 19.584 33.8877 19.6426C33.6143 19.6963 33.3506 19.772 33.0967 19.8696C32.8477 19.9673 32.6304 20.0771 32.4448 20.1992L31.8516 18.8003C32.0762 18.6733 32.3472 18.5537 32.6646 18.4414C32.9868 18.3291 33.3384 18.2388 33.7192 18.1704C34.1001 18.1021 34.4883 18.0679 34.8838 18.0679C35.5283 18.0679 36.0435 18.1582 36.4292 18.3389C36.8198 18.5195 37.1128 18.7563 37.3081 19.0493C37.5034 19.3374 37.6328 19.6499 37.6963 19.9868C37.7646 20.3188 37.7988 20.6411 37.7988 20.9536V23.5098C37.7988 23.8174 37.8306 24.0542 37.894 24.2202C37.9624 24.3862 38.0869 24.501 38.2676 24.5645L38.4287 24.623L37.7988 26.1172L37.5718 26.0293C37.2007 25.8828 36.9175 25.6997 36.7222 25.48C36.5269 25.2603 36.4219 25.0405 36.4072 24.8208L36.7368 25.0039H36.1509L36.5464 24.7988C36.3706 25.1553 36.0483 25.4653 35.5796 25.729C35.1108 25.9878 34.5713 26.1172 33.9609 26.1172ZM39.7837 26V14.7207H41.5122V21.3271H42.1421L41.5049 21.6787L44.603 18.1777H46.7417L42.9038 22.3965V21.4224L46.9468 26H44.8228L41.4902 22.1841L42.1421 22.5503H41.5122V26H39.7837ZM50.8506 26.1172C50.0596 26.1172 49.3687 25.9487 48.7778 25.6118C48.187 25.27 47.7256 24.7964 47.3936 24.1909C47.0615 23.5854 46.8955 22.8872 46.8955 22.0962C46.8955 21.2759 47.0615 20.5654 47.3936 19.9648C47.7256 19.3643 48.1724 18.9004 48.7339 18.5732C49.2954 18.2412 49.918 18.0752 50.6016 18.0752C51.2559 18.0752 51.8467 18.2266 52.374 18.5293C52.9062 18.832 53.3286 19.2544 53.6411 19.7964C53.9536 20.3335 54.1099 20.9634 54.1099 21.686C54.1099 21.8716 54.1001 22.0449 54.0806 22.2061C54.061 22.3672 54.0366 22.5283 54.0073 22.6895H48.1919V21.4663H52.4912C52.4912 21.0952 52.4131 20.7656 52.2568 20.4775C52.1006 20.1846 51.8809 19.9551 51.5977 19.7891C51.3145 19.6182 50.9824 19.5327 50.6016 19.5327C50.1719 19.5327 49.7959 19.6401 49.4736 19.855C49.1562 20.0649 48.9072 20.3604 48.7266 20.7412C48.5508 21.1172 48.4629 21.5566 48.4629 22.0596C48.4629 22.5723 48.5581 23.0239 48.7485 23.4146C48.9438 23.8052 49.2173 24.1104 49.5688 24.3301C49.9253 24.5498 50.3477 24.6597 50.8359 24.6597C51.1143 24.6597 51.3779 24.6255 51.627 24.5571C51.876 24.4888 52.103 24.4009 52.3081 24.2935C52.5132 24.1812 52.689 24.064 52.8354 23.9419L53.4287 25.3628C53.1211 25.5825 52.7427 25.7632 52.2935 25.9048C51.8491 26.0464 51.3682 26.1172 50.8506 26.1172ZM59.5884 26V15.2041H60.9067L65.6455 21.459L66.5537 22.7407H66.6196L66.5684 20.2065V15.2041H68.3701V26H67.0591L62.3496 19.6865L61.4121 18.4048H61.3535L61.3901 20.939V26H59.5884ZM73.834 26.1172C73.043 26.1172 72.3521 25.9487 71.7612 25.6118C71.1704 25.27 70.709 24.7964 70.377 24.1909C70.0449 23.5854 69.8789 22.8872 69.8789 22.0962C69.8789 21.2759 70.0449 20.5654 70.377 19.9648C70.709 19.3643 71.1558 18.9004 71.7173 18.5732C72.2788 18.2412 72.9014 18.0752 73.585 18.0752C74.2393 18.0752 74.8301 18.2266 75.3574 18.5293C75.8896 18.832 76.312 19.2544 76.6245 19.7964C76.937 20.3335 77.0933 20.9634 77.0933 21.686C77.0933 21.8716 77.0835 22.0449 77.064 22.2061C77.0444 22.3672 77.02 22.5283 76.9907 22.6895H71.1753V21.4663H75.4746C75.4746 21.0952 75.3965 20.7656 75.2402 20.4775C75.084 20.1846 74.8643 19.9551 74.5811 19.7891C74.2979 19.6182 73.9658 19.5327 73.585 19.5327C73.1553 19.5327 72.7793 19.6401 72.457 19.855C72.1396 20.0649 71.8906 20.3604 71.71 20.7412C71.5342 21.1172 71.4463 21.5566 71.4463 22.0596C71.4463 22.5723 71.5415 23.0239 71.7319 23.4146C71.9272 23.8052 72.2007 24.1104 72.5522 24.3301C72.9087 24.5498 73.3311 24.6597 73.8193 24.6597C74.0977 24.6597 74.3613 24.6255 74.6104 24.5571C74.8594 24.4888 75.0864 24.4009 75.2915 24.2935C75.4966 24.1812 75.6724 24.064 75.8188 23.9419L76.4121 25.3628C76.1045 25.5825 75.7261 25.7632 75.2769 25.9048C74.8325 26.0464 74.3516 26.1172 73.834 26.1172ZM79.9497 26L77.6719 18.1851H79.415L80.4185 22.1255L80.8359 23.8247H80.8872L81.3999 22.4917L82.8574 18.6611H83.6484L85.106 22.4917L85.604 23.8247H85.6626L86.0947 22.1255L87.1055 18.1851H88.834L86.5488 26H85.0547L84.3003 24.103L83.2822 21.5615H83.2236L82.2129 24.103L81.4512 26H79.9497ZM92.9722 26L97.4399 15.2041H98.9414L103.409 26H101.512L100.296 22.9824L100.113 22.3086L98.2163 17.4526H98.1577L96.2681 22.3086L96.085 22.9824L94.8691 26H92.9722ZM95.2427 23.4658V21.9204H101.131V23.4658H95.2427ZM106.625 26.1172C106.156 26.1172 105.721 26.0317 105.321 25.8608C104.92 25.6899 104.576 25.4629 104.288 25.1797C104.005 24.8916 103.8 24.5791 103.673 24.2422L105.138 23.6123C105.245 23.8857 105.433 24.1299 105.702 24.3447C105.975 24.5596 106.283 24.667 106.625 24.667C106.834 24.667 107.027 24.6279 107.203 24.5498C107.379 24.4668 107.521 24.3569 107.628 24.2202C107.735 24.0835 107.789 23.9321 107.789 23.7661C107.789 23.5806 107.726 23.4219 107.599 23.29C107.477 23.1533 107.32 23.0386 107.13 22.9458C106.944 22.853 106.749 22.7749 106.544 22.7114C106.344 22.6479 106.168 22.5918 106.017 22.543C105.685 22.4404 105.355 22.2988 105.028 22.1182C104.706 21.9375 104.437 21.7007 104.222 21.4077C104.007 21.1099 103.9 20.7363 103.9 20.2871C103.9 19.833 104.017 19.4399 104.251 19.1079C104.486 18.771 104.798 18.5146 105.189 18.3389C105.58 18.1582 106.012 18.0679 106.485 18.0679C107.14 18.0679 107.704 18.2266 108.177 18.5439C108.651 18.8564 108.985 19.2324 109.181 19.6719L107.745 20.2725C107.647 20.0918 107.501 19.916 107.306 19.7451C107.11 19.5742 106.852 19.4888 106.529 19.4888C106.251 19.4888 106.012 19.562 105.812 19.7085C105.616 19.8501 105.519 20.0503 105.519 20.3091C105.519 20.5288 105.589 20.707 105.731 20.8438C105.877 20.9756 106.07 21.0879 106.31 21.1807C106.549 21.2686 106.808 21.3589 107.086 21.4517C107.291 21.5151 107.523 21.6006 107.782 21.708C108.045 21.8105 108.299 21.9473 108.543 22.1182C108.792 22.2891 108.995 22.5063 109.151 22.77C109.312 23.0288 109.393 23.3462 109.393 23.7222C109.393 24.1909 109.266 24.606 109.012 24.9673C108.758 25.3286 108.421 25.6118 108.001 25.8169C107.582 26.0171 107.123 26.1172 106.625 26.1172ZM113.275 26.1172C112.806 26.1172 112.372 26.0317 111.971 25.8608C111.571 25.6899 111.227 25.4629 110.938 25.1797C110.655 24.8916 110.45 24.5791 110.323 24.2422L111.788 23.6123C111.896 23.8857 112.083 24.1299 112.352 24.3447C112.625 24.5596 112.933 24.667 113.275 24.667C113.485 24.667 113.678 24.6279 113.854 24.5498C114.029 24.4668 114.171 24.3569 114.278 24.2202C114.386 24.0835 114.439 23.9321 114.439 23.7661C114.439 23.5806 114.376 23.4219 114.249 23.29C114.127 23.1533 113.971 23.0386 113.78 22.9458C113.595 22.853 113.399 22.7749 113.194 22.7114C112.994 22.6479 112.818 22.5918 112.667 22.543C112.335 22.4404 112.005 22.2988 111.678 22.1182C111.356 21.9375 111.087 21.7007 110.873 21.4077C110.658 21.1099 110.55 20.7363 110.55 20.2871C110.55 19.833 110.667 19.4399 110.902 19.1079C111.136 18.771 111.449 18.5146 111.839 18.3389C112.23 18.1582 112.662 18.0679 113.136 18.0679C113.79 18.0679 114.354 18.2266 114.828 18.5439C115.301 18.8564 115.636 19.2324 115.831 19.6719L114.396 20.2725C114.298 20.0918 114.151 19.916 113.956 19.7451C113.761 19.5742 113.502 19.4888 113.18 19.4888C112.901 19.4888 112.662 19.562 112.462 19.7085C112.267 19.8501 112.169 20.0503 112.169 20.3091C112.169 20.5288 112.24 20.707 112.381 20.8438C112.528 20.9756 112.721 21.0879 112.96 21.1807C113.199 21.2686 113.458 21.3589 113.736 21.4517C113.941 21.5151 114.173 21.6006 114.432 21.708C114.696 21.8105 114.95 21.9473 115.194 22.1182C115.443 22.2891 115.646 22.5063 115.802 22.77C115.963 23.0288 116.043 23.3462 116.043 23.7222C116.043 24.1909 115.917 24.606 115.663 24.9673C115.409 25.3286 115.072 25.6118 114.652 25.8169C114.232 26.0171 113.773 26.1172 113.275 26.1172ZM120.973 26.1172C120.182 26.1172 119.491 25.9487 118.9 25.6118C118.309 25.27 117.848 24.7964 117.516 24.1909C117.184 23.5854 117.018 22.8872 117.018 22.0962C117.018 21.2759 117.184 20.5654 117.516 19.9648C117.848 19.3643 118.294 18.9004 118.856 18.5732C119.417 18.2412 120.04 18.0752 120.724 18.0752C121.378 18.0752 121.969 18.2266 122.496 18.5293C123.028 18.832 123.451 19.2544 123.763 19.7964C124.076 20.3335 124.232 20.9634 124.232 21.686C124.232 21.8716 124.222 22.0449 124.203 22.2061C124.183 22.3672 124.159 22.5283 124.129 22.6895H118.314V21.4663H122.613C122.613 21.0952 122.535 20.7656 122.379 20.4775C122.223 20.1846 122.003 19.9551 121.72 19.7891C121.437 19.6182 121.104 19.5327 120.724 19.5327C120.294 19.5327 119.918 19.6401 119.596 19.855C119.278 20.0649 119.029 20.3604 118.849 20.7412C118.673 21.1172 118.585 21.5566 118.585 22.0596C118.585 22.5723 118.68 23.0239 118.871 23.4146C119.066 23.8052 119.339 24.1104 119.691 24.3301C120.047 24.5498 120.47 24.6597 120.958 24.6597C121.236 24.6597 121.5 24.6255 121.749 24.5571C121.998 24.4888 122.225 24.4009 122.43 24.2935C122.635 24.1812 122.811 24.064 122.958 23.9419L123.551 25.3628C123.243 25.5825 122.865 25.7632 122.416 25.9048C121.971 26.0464 121.49 26.1172 120.973 26.1172ZM128.055 26.1172C127.586 26.1172 127.152 26.0317 126.751 25.8608C126.351 25.6899 126.007 25.4629 125.719 25.1797C125.436 24.8916 125.23 24.5791 125.104 24.2422L126.568 23.6123C126.676 23.8857 126.864 24.1299 127.132 24.3447C127.406 24.5596 127.713 24.667 128.055 24.667C128.265 24.667 128.458 24.6279 128.634 24.5498C128.81 24.4668 128.951 24.3569 129.059 24.2202C129.166 24.0835 129.22 23.9321 129.22 23.7661C129.22 23.5806 129.156 23.4219 129.029 23.29C128.907 23.1533 128.751 23.0386 128.561 22.9458C128.375 22.853 128.18 22.7749 127.975 22.7114C127.774 22.6479 127.599 22.5918 127.447 22.543C127.115 22.4404 126.786 22.2988 126.458 22.1182C126.136 21.9375 125.868 21.7007 125.653 21.4077C125.438 21.1099 125.331 20.7363 125.331 20.2871C125.331 19.833 125.448 19.4399 125.682 19.1079C125.917 18.771 126.229 18.5146 126.62 18.3389C127.01 18.1582 127.442 18.0679 127.916 18.0679C128.57 18.0679 129.134 18.2266 129.608 18.5439C130.082 18.8564 130.416 19.2324 130.611 19.6719L129.176 20.2725C129.078 20.0918 128.932 19.916 128.736 19.7451C128.541 19.5742 128.282 19.4888 127.96 19.4888C127.682 19.4888 127.442 19.562 127.242 19.7085C127.047 19.8501 126.949 20.0503 126.949 20.3091C126.949 20.5288 127.02 20.707 127.162 20.8438C127.308 20.9756 127.501 21.0879 127.74 21.1807C127.979 21.2686 128.238 21.3589 128.517 21.4517C128.722 21.5151 128.954 21.6006 129.212 21.708C129.476 21.8105 129.73 21.9473 129.974 22.1182C130.223 22.2891 130.426 22.5063 130.582 22.77C130.743 23.0288 130.824 23.3462 130.824 23.7222C130.824 24.1909 130.697 24.606 130.443 24.9673C130.189 25.3286 129.852 25.6118 129.432 25.8169C129.012 26.0171 128.553 26.1172 128.055 26.1172ZM134.706 26.1172C134.237 26.1172 133.802 26.0317 133.402 25.8608C133.001 25.6899 132.657 25.4629 132.369 25.1797C132.086 24.8916 131.881 24.5791 131.754 24.2422L133.219 23.6123C133.326 23.8857 133.514 24.1299 133.783 24.3447C134.056 24.5596 134.364 24.667 134.706 24.667C134.916 24.667 135.108 24.6279 135.284 24.5498C135.46 24.4668 135.602 24.3569 135.709 24.2202C135.816 24.0835 135.87 23.9321 135.87 23.7661C135.87 23.5806 135.807 23.4219 135.68 23.29C135.558 23.1533 135.401 23.0386 135.211 22.9458C135.025 22.853 134.83 22.7749 134.625 22.7114C134.425 22.6479 134.249 22.5918 134.098 22.543C133.766 22.4404 133.436 22.2988 133.109 22.1182C132.787 21.9375 132.518 21.7007 132.303 21.4077C132.088 21.1099 131.981 20.7363 131.981 20.2871C131.981 19.833 132.098 19.4399 132.333 19.1079C132.567 18.771 132.879 18.5146 133.27 18.3389C133.661 18.1582 134.093 18.0679 134.566 18.0679C135.221 18.0679 135.785 18.2266 136.258 18.5439C136.732 18.8564 137.066 19.2324 137.262 19.6719L135.826 20.2725C135.729 20.0918 135.582 19.916 135.387 19.7451C135.191 19.5742 134.933 19.4888 134.61 19.4888C134.332 19.4888 134.093 19.562 133.893 19.7085C133.697 19.8501 133.6 20.0503 133.6 20.3091C133.6 20.5288 133.67 20.707 133.812 20.8438C133.958 20.9756 134.151 21.0879 134.391 21.1807C134.63 21.2686 134.889 21.3589 135.167 21.4517C135.372 21.5151 135.604 21.6006 135.863 21.708C136.126 21.8105 136.38 21.9473 136.625 22.1182C136.874 22.2891 137.076 22.5063 137.232 22.77C137.394 23.0288 137.474 23.3462 137.474 23.7222C137.474 24.1909 137.347 24.606 137.093 24.9673C136.839 25.3286 136.502 25.6118 136.083 25.8169C135.663 26.0171 135.204 26.1172 134.706 26.1172ZM138.866 26V18.1851H140.543V19.1445H140.814L140.184 19.9062C140.404 19.3203 140.731 18.8687 141.166 18.5513C141.6 18.229 142.11 18.0679 142.696 18.0679C143.243 18.0679 143.705 18.207 144.081 18.4854C144.461 18.7588 144.73 19.1274 144.886 19.5913L144.425 19.1665H145.055L144.491 19.5913C144.735 19.0786 145.094 18.6978 145.567 18.4487C146.041 18.1948 146.556 18.0679 147.113 18.0679C147.586 18.0679 147.989 18.1484 148.321 18.3096C148.658 18.4707 148.929 18.688 149.134 18.9614C149.344 19.2349 149.498 19.5449 149.596 19.8916C149.698 20.2334 149.75 20.5874 149.75 20.9536V26H148.014V21.2246C148.014 20.6826 147.892 20.2725 147.647 19.9941C147.403 19.7109 147.071 19.5693 146.651 19.5693C146.383 19.5693 146.136 19.6304 145.912 19.7524C145.687 19.8745 145.506 20.0576 145.37 20.3018C145.238 20.5459 145.172 20.8535 145.172 21.2246V26H143.443V21.2246C143.443 20.6826 143.319 20.2725 143.07 19.9941C142.826 19.7109 142.494 19.5693 142.074 19.5693C141.668 19.5693 141.319 19.7109 141.026 19.9941C140.738 20.2773 140.594 20.6997 140.594 21.2612V26H138.866ZM154.972 26.1172C154.181 26.1172 153.49 25.9487 152.899 25.6118C152.308 25.27 151.847 24.7964 151.515 24.1909C151.183 23.5854 151.017 22.8872 151.017 22.0962C151.017 21.2759 151.183 20.5654 151.515 19.9648C151.847 19.3643 152.293 18.9004 152.855 18.5732C153.417 18.2412 154.039 18.0752 154.723 18.0752C155.377 18.0752 155.968 18.2266 156.495 18.5293C157.027 18.832 157.45 19.2544 157.762 19.7964C158.075 20.3335 158.231 20.9634 158.231 21.686C158.231 21.8716 158.221 22.0449 158.202 22.2061C158.182 22.3672 158.158 22.5283 158.128 22.6895H152.313V21.4663H156.612C156.612 21.0952 156.534 20.7656 156.378 20.4775C156.222 20.1846 156.002 19.9551 155.719 19.7891C155.436 19.6182 155.104 19.5327 154.723 19.5327C154.293 19.5327 153.917 19.6401 153.595 19.855C153.277 20.0649 153.028 20.3604 152.848 20.7412C152.672 21.1172 152.584 21.5566 152.584 22.0596C152.584 22.5723 152.679 23.0239 152.87 23.4146C153.065 23.8052 153.338 24.1104 153.69 24.3301C154.046 24.5498 154.469 24.6597 154.957 24.6597C155.235 24.6597 155.499 24.6255 155.748 24.5571C155.997 24.4888 156.224 24.4009 156.429 24.2935C156.634 24.1812 156.81 24.064 156.957 23.9419L157.55 25.3628C157.242 25.5825 156.864 25.7632 156.415 25.9048C155.97 26.0464 155.489 26.1172 154.972 26.1172ZM159.659 26V18.1851H161.351V19.1738H161.673L161.073 19.8403C161.19 19.4497 161.38 19.125 161.644 18.8662C161.913 18.6025 162.228 18.4048 162.589 18.2729C162.955 18.1362 163.348 18.0679 163.768 18.0679C164.364 18.0679 164.857 18.2021 165.248 18.4707C165.643 18.7393 165.938 19.0908 166.134 19.5254C166.329 19.96 166.427 20.4312 166.427 20.939V26H164.698V21.3125C164.698 20.7363 164.557 20.3018 164.273 20.0088C163.99 19.7158 163.604 19.5693 163.116 19.5693C162.794 19.5693 162.501 19.6377 162.237 19.7744C161.974 19.9062 161.766 20.1016 161.615 20.3604C161.463 20.6191 161.388 20.939 161.388 21.3198V26H159.659ZM171.253 26.1172C170.423 26.1172 169.796 25.8828 169.371 25.4141C168.951 24.9453 168.741 24.3447 168.741 23.6123V15.7827H170.47V23.4878C170.47 23.8638 170.558 24.1396 170.733 24.3154C170.909 24.4912 171.129 24.5791 171.393 24.5791C171.51 24.5791 171.62 24.5645 171.722 24.5352C171.825 24.501 171.917 24.4619 172 24.418L172.594 25.8315C172.413 25.9194 172.21 25.9878 171.986 26.0366C171.761 26.0903 171.517 26.1172 171.253 26.1172ZM167.452 19.6279V18.1851H172.345V19.6279H167.452Z" fill="white"/>
</svg>
