<svg width="25" height="24" viewBox="0 0 25 24" fill="none" xmlns="http://www.w3.org/2000/svg">
<g clip-path="url(#clip0_1932_31960)">
<path d="M0.5 12C0.5 5.37258 5.87258 0 12.5 0C19.1274 0 24.5 5.37258 24.5 12C24.5 18.6274 19.1274 24 12.5 24C5.87258 24 0.5 18.6274 0.5 12Z" fill="#E5E7EB"/>
<path d="M24.5 12C24.5 18.6274 19.1274 24 12.5 24C5.87258 24 0.5 18.6274 0.5 12C0.5 5.37258 5.87258 0 12.5 0C19.1274 0 24.5 5.37258 24.5 12ZM1.7 12C1.7 17.9647 6.53533 22.8 12.5 22.8C18.4647 22.8 23.3 17.9647 23.3 12C23.3 6.03533 18.4647 1.2 12.5 1.2C6.53533 1.2 1.7 6.03533 1.7 12Z" fill="#9CA3AF"/>
<g clip-path="url(#clip1_1932_31960)">
<path fill-rule="evenodd" clip-rule="evenodd" d="M12.4997 6.66659C9.55416 6.66659 7.16634 9.0544 7.16634 11.9999C7.16634 14.9454 9.55416 17.3333 12.4997 17.3333C15.0271 17.3333 17.144 15.5752 17.6939 13.2152L17.4376 13.4714C17.1773 13.7317 16.7551 13.7316 16.4948 13.4713C16.2345 13.2109 16.2346 12.7888 16.495 12.5284L17.8287 11.1951C17.9537 11.0701 18.1233 10.9999 18.3001 10.9999C18.4769 10.9999 18.6465 11.0702 18.7715 11.1953L20.1045 12.5286C20.3648 12.789 20.3647 13.2111 20.1043 13.4714C19.8439 13.7317 19.4218 13.7316 19.1615 13.4713L19.0314 13.3411C18.4107 16.3802 15.7222 18.6666 12.4997 18.6666C8.81778 18.6666 5.83301 15.6818 5.83301 11.9999C5.83301 8.31802 8.81778 5.33325 12.4997 5.33325C14.9464 5.33325 17.0844 6.65164 18.2433 8.61357C18.4306 8.93058 18.3254 9.33938 18.0084 9.52664C17.6914 9.71391 17.2826 9.60873 17.0953 9.29172C16.1663 7.71904 14.4556 6.66659 12.4997 6.66659ZM12.4997 7.99992C12.8679 7.99992 13.1663 8.2984 13.1663 8.66659V11.6431L14.8695 12.7786C15.1758 12.9828 15.2586 13.3967 15.0544 13.7031C14.8501 14.0094 14.4362 14.0922 14.1299 13.888L12.1299 12.5546C11.9444 12.431 11.833 12.2228 11.833 11.9999V8.66659C11.833 8.2984 12.1315 7.99992 12.4997 7.99992Z" fill="#6B7280"/>
</g>
</g>
<defs>
<clipPath id="clip0_1932_31960">
<path d="M0.5 12C0.5 5.37258 5.87258 0 12.5 0C19.1274 0 24.5 5.37258 24.5 12C24.5 18.6274 19.1274 24 12.5 24C5.87258 24 0.5 18.6274 0.5 12Z" fill="white"/>
</clipPath>
<clipPath id="clip1_1932_31960">
<rect width="16" height="16" fill="white" transform="translate(4.5 4)"/>
</clipPath>
</defs>
</svg>
