<svg width="25" height="24" viewBox="0 0 25 24" fill="none" xmlns="http://www.w3.org/2000/svg">
<g clip-path="url(#clip0_1932_2918)">
<path d="M0.5 12C0.5 5.37258 5.87258 0 12.5 0C19.1274 0 24.5 5.37258 24.5 12C24.5 18.6274 19.1274 24 12.5 24C5.87258 24 0.5 18.6274 0.5 12Z" fill="#DEF7EC"/>
<path d="M24.5 12C24.5 18.6274 19.1274 24 12.5 24C5.87258 24 0.5 18.6274 0.5 12C0.5 5.37258 5.87258 0 12.5 0C19.1274 0 24.5 5.37258 24.5 12ZM1.7 12C1.7 17.9647 6.53533 22.8 12.5 22.8C18.4647 22.8 23.3 17.9647 23.3 12C23.3 6.03533 18.4647 1.2 12.5 1.2C6.53533 1.2 1.7 6.03533 1.7 12Z" fill="#12B76A"/>
<path d="M12.5 24C14.1176 24 15.7185 23.673 17.2065 23.0385C18.6945 22.4041 20.0388 21.4754 21.1588 20.3082C22.2787 19.141 23.1511 17.7594 23.7235 16.2465C24.2959 14.7336 24.5566 13.1205 24.4898 11.5043C24.4229 9.88811 24.0301 8.30209 23.3347 6.84158C22.6393 5.38107 21.6559 4.07622 20.4434 3.00545C19.231 1.93468 17.8145 1.1201 16.2793 0.610654C14.744 0.101212 13.1216 -0.092571 11.5095 0.04095L11.6085 1.23686C13.0594 1.11669 14.5196 1.29109 15.9013 1.74959C17.2831 2.20809 18.5579 2.94121 19.6491 3.9049C20.7403 4.8686 21.6254 6.04296 22.2512 7.35742C22.877 8.67188 23.2306 10.0993 23.2908 11.5539C23.3509 13.0085 23.1163 14.4602 22.6012 15.8218C22.086 17.1835 21.3008 18.4269 20.2929 19.4774C19.2849 20.5278 18.075 21.3637 16.7358 21.9347C15.3966 22.5057 13.9558 22.8 12.5 22.8L12.5 24Z" fill="#12B76A"/>
<path fill-rule="evenodd" clip-rule="evenodd" d="M12.4993 6.00008C9.18564 6.00008 6.49935 8.68637 6.49935 12.0001C6.49935 15.3138 9.18564 18.0001 12.4993 18.0001C15.8131 18.0001 18.4993 15.3138 18.4993 12.0001C18.4993 8.68637 15.8131 6.00008 12.4993 6.00008ZM5.16602 12.0001C5.16602 7.94999 8.44926 4.66675 12.4993 4.66675C16.5494 4.66675 19.8327 7.94999 19.8327 12.0001C19.8327 16.0502 16.5494 19.3334 12.4993 19.3334C8.44926 19.3334 5.16602 16.0502 5.16602 12.0001ZM15.9708 9.52868C16.2311 9.78903 16.2311 10.2111 15.9708 10.4715L11.9708 14.4715C11.7104 14.7318 11.2883 14.7318 11.0279 14.4715L9.02794 12.4715C8.76759 12.2111 8.76759 11.789 9.02794 11.5287C9.28829 11.2683 9.7104 11.2683 9.97075 11.5287L11.4993 13.0573L15.0279 9.52868C15.2883 9.26833 15.7104 9.26833 15.9708 9.52868Z" fill="#12B76A"/>
</g>
<defs>
<clipPath id="clip0_1932_2918">
<path d="M0.5 12C0.5 5.37258 5.87258 0 12.5 0C19.1274 0 24.5 5.37258 24.5 12C24.5 18.6274 19.1274 24 12.5 24C5.87258 24 0.5 18.6274 0.5 12Z" fill="white"/>
</clipPath>
</defs>
</svg>
