<svg width="25" height="24" viewBox="0 0 25 24" fill="none" xmlns="http://www.w3.org/2000/svg">
<g clip-path="url(#clip0_1932_31942)">
<path d="M0.5 12C0.5 5.37258 5.87258 0 12.5 0C19.1274 0 24.5 5.37258 24.5 12C24.5 18.6274 19.1274 24 12.5 24C5.87258 24 0.5 18.6274 0.5 12Z" fill="#FFF2E8"/>
<path d="M24.5 12C24.5 18.6274 19.1274 24 12.5 24C5.87258 24 0.5 18.6274 0.5 12C0.5 5.37258 5.87258 0 12.5 0C19.1274 0 24.5 5.37258 24.5 12ZM1.7 12C1.7 17.9647 6.53533 22.8 12.5 22.8C18.4647 22.8 23.3 17.9647 23.3 12C23.3 6.03533 18.4647 1.2 12.5 1.2C6.53533 1.2 1.7 6.03533 1.7 12Z" fill="#FCD1B1"/>
<path d="M12.5 24C14.1176 24 15.7185 23.673 17.2065 23.0385C18.6945 22.4041 20.0388 21.4754 21.1588 20.3082C22.2787 19.141 23.1511 17.7594 23.7235 16.2465C24.2959 14.7336 24.5566 13.1205 24.4898 11.5043C24.4229 9.88811 24.0301 8.30209 23.3347 6.84158C22.6393 5.38107 21.6559 4.07622 20.4434 3.00545C19.231 1.93468 17.8145 1.1201 16.2793 0.610654C14.744 0.101212 13.1216 -0.092571 11.5095 0.04095L11.6085 1.23686C13.0594 1.11669 14.5196 1.29109 15.9013 1.74959C17.2831 2.20809 18.5579 2.94121 19.6491 3.9049C20.7403 4.8686 21.6254 6.04296 22.2512 7.35742C22.877 8.67188 23.2306 10.0993 23.2908 11.5539C23.3509 13.0085 23.1163 14.4602 22.6012 15.8218C22.086 17.1835 21.3008 18.4269 20.2929 19.4774C19.2849 20.5278 18.075 21.3637 16.7358 21.9347C15.3966 22.5057 13.9558 22.8 12.5 22.8L12.5 24Z" fill="#FF832B"/>
<path fill-rule="evenodd" clip-rule="evenodd" d="M5.83301 11.9999C5.83301 8.31802 8.81778 5.33325 12.4997 5.33325C14.3413 5.33325 16.0095 6.08085 17.2154 7.28751C17.6418 7.71422 18.0984 8.24157 18.4997 8.72955V6.66659C18.4997 6.2984 18.7982 5.99992 19.1663 5.99992C19.5345 5.99992 19.833 6.2984 19.833 6.66659V10.6666C19.833 11.0348 19.5345 11.3333 19.1663 11.3333H15.1663C14.7982 11.3333 14.4997 11.0348 14.4997 10.6666C14.4997 10.2984 14.7982 9.99992 15.1663 9.99992H17.8125C17.351 9.42077 16.7774 8.73549 16.2722 8.22999C15.3062 7.26335 13.9733 6.66659 12.4997 6.66659C9.55416 6.66659 7.16634 9.0544 7.16634 11.9999C7.16634 14.9454 9.55416 17.3333 12.4997 17.3333C14.9302 17.3333 16.9825 15.7069 17.6246 13.4818C17.7267 13.128 18.0962 12.924 18.45 13.0261C18.8038 13.1281 19.0078 13.4977 18.9057 13.8514C18.1033 16.632 15.54 18.6666 12.4997 18.6666C8.81778 18.6666 5.83301 15.6818 5.83301 11.9999Z" fill="#FF832B"/>
</g>
<defs>
<clipPath id="clip0_1932_31942">
<path d="M0.5 12C0.5 5.37258 5.87258 0 12.5 0C19.1274 0 24.5 5.37258 24.5 12C24.5 18.6274 19.1274 24 12.5 24C5.87258 24 0.5 18.6274 0.5 12Z" fill="white"/>
</clipPath>
</defs>
</svg>
