<svg width="24" height="25" viewBox="0 0 24 25" fill="none" xmlns="http://www.w3.org/2000/svg">
<rect width="24" height="25" fill="#BDBDBD"/>
<g id="HRA">
<path d="M-2857 -1523C-2857 -1524.1 -2856.1 -1525 -2855 -1525H41623C41624.1 -1525 41625 -1524.1 41625 -1523V5056C41625 5057.1 41624.1 5058 41623 5058H-2855C-2856.11 5058 -2857 5057.1 -2857 5056V-1523Z" fill="#444444"/>
<path d="M-2855 -1524H41623V-1526H-2855V-1524ZM41624 -1523V5056H41626V-1523H41624ZM41623 5057H-2855V5059H41623V5057ZM-2856 5056V-1523H-2858V5056H-2856ZM-2855 5057C-2855.55 5057 -2856 5056.55 -2856 5056H-2858C-2858 5057.66 -2856.66 5059 -2855 5059V5057ZM41624 5056C41624 5056.55 41623.6 5057 41623 5057V5059C41624.7 5059 41626 5057.66 41626 5056H41624ZM41623 -1524C41623.6 -1524 41624 -1523.55 41624 -1523H41626C41626 -1524.66 41624.7 -1526 41623 -1526V-1524ZM-2855 -1526C-2856.66 -1526 -2858 -1524.66 -2858 -1523H-2856C-2856 -1523.55 -2855.55 -1524 -2855 -1524V-1526Z" fill="white" fill-opacity="0.1"/>
<g id="HRA - Basic Information" clip-path="url(#clip0_0_1)">
<rect width="1440" height="4302" transform="translate(-159 -833)" fill="white"/>
<g id="Frame 1437254379">
<g id="Frame 1437254309">
<g id="Frame 1437254026">
<path d="M-99 -132C-99 -138.627 -93.6274 -144 -87 -144H539C545.627 -144 551 -138.627 551 -132V202.441C551 209.069 545.627 214.441 539 214.441H-87C-93.6274 214.441 -99 209.069 -99 202.441V-132Z" fill="#F9FAFB"/>
<g id="Frame 1437254021">
<g id="Frame 1437254019">
<g id="Frame 4">
<rect x="-82.5" y="-36.2793" width="144" height="68" rx="11.5" fill="white"/>
<rect x="-82.5" y="-36.2793" width="144" height="68" rx="11.5" stroke="#E7ECF1"/>
<g id="Frame 8">
<g id="Frame" clip-path="url(#clip1_0_1)">
<path id="Vector" d="M13.0002 8.0487V20.2207H11.0002V8.0487L5.63617 13.4127L4.22217 11.9987L12.0002 4.2207L19.7782 11.9987L18.3642 13.4127L13.0002 8.0487Z" fill="#E95D5C"/>
</g>
</g>
</g>
</g>
</g>
</g>
</g>
</g>
</g>
</g>
<defs>
<clipPath id="clip0_0_1">
<rect width="1440" height="4302" fill="white" transform="translate(-159 -833)"/>
</clipPath>
<clipPath id="clip1_0_1">
<rect width="24" height="24" fill="white" transform="translate(0 0.220703)"/>
</clipPath>
</defs>
</svg>
