<svg width="20" height="21" viewBox="0 0 20 21" fill="none" xmlns="http://www.w3.org/2000/svg">
<g id="share-07">
<path id="Icon (Stroke)" fill-rule="evenodd" clip-rule="evenodd" d="M14.9998 2.99992C14.0794 2.99992 13.3332 3.74611 13.3332 4.66658C13.3332 4.95601 13.4069 5.2282 13.5367 5.46538C13.5452 5.47825 13.5534 5.49142 13.5612 5.50489C13.5691 5.51827 13.5764 5.53178 13.5834 5.5454C13.8775 6.01838 14.4019 6.33325 14.9998 6.33325C15.9203 6.33325 16.6665 5.58706 16.6665 4.66658C16.6665 3.74611 15.9203 2.99992 14.9998 2.99992ZM12.6316 7.01229C13.2356 7.62215 14.0736 7.99992 14.9998 7.99992C16.8408 7.99992 18.3332 6.50753 18.3332 4.66658C18.3332 2.82564 16.8408 1.33325 14.9998 1.33325C13.1589 1.33325 11.6665 2.82564 11.6665 4.66658C11.6665 4.98077 11.71 5.2848 11.7912 5.57299L7.36812 8.15421C6.76404 7.54435 5.92605 7.16658 4.99984 7.16658C3.15889 7.16658 1.6665 8.65897 1.6665 10.4999C1.6665 12.3409 3.15889 13.8333 4.99984 13.8333C5.92623 13.8333 6.76435 13.4553 7.36846 12.8453L11.7923 15.4231C11.7103 15.7124 11.6665 16.0177 11.6665 16.3333C11.6665 18.1742 13.1589 19.6666 14.9998 19.6666C16.8408 19.6666 18.3332 18.1742 18.3332 16.3333C18.3332 14.4923 16.8408 12.9999 14.9998 12.9999C14.075 12.9999 13.2381 13.3766 12.6343 13.9848L8.20859 11.4059C8.28975 11.1178 8.33317 10.8139 8.33317 10.4999C8.33317 10.1857 8.2897 9.88171 8.20846 9.59352L12.6316 7.01229ZM6.41625 9.62111C6.42323 9.63473 6.43063 9.64823 6.43843 9.66161C6.4463 9.67508 6.45448 9.68826 6.46297 9.70112C6.59273 9.9383 6.6665 10.2105 6.6665 10.4999C6.6665 10.7893 6.59273 11.0615 6.46297 11.2987C6.45439 11.3117 6.44611 11.325 6.43816 11.3387C6.43046 11.3519 6.42315 11.3653 6.41625 11.3787C6.12217 11.8517 5.59778 12.1666 4.99984 12.1666C4.07936 12.1666 3.33317 11.4204 3.33317 10.4999C3.33317 9.57944 4.07936 8.83325 4.99984 8.83325C5.59778 8.83325 6.12217 9.14813 6.41625 9.62111ZM13.5126 15.5803C13.5331 15.5532 13.5523 15.5246 13.5698 15.4945C13.5867 15.4656 13.6016 15.4361 13.6146 15.4062C13.9137 14.9602 14.4225 14.6666 14.9998 14.6666C15.9203 14.6666 16.6665 15.4128 16.6665 16.3333C16.6665 17.2537 15.9203 17.9999 14.9998 17.9999C14.0794 17.9999 13.3332 17.2537 13.3332 16.3333C13.3332 16.0623 13.3978 15.8064 13.5126 15.5803Z" fill="#111928"/>
</g>
</svg>
