<svg width="303" height="289" viewBox="0 0 303 289" fill="none" xmlns="http://www.w3.org/2000/svg">
<path d="M0 8.44141C0 4.02313 3.58172 0.441406 8 0.441406H295C299.418 0.441406 303 4.02313 303 8.44141V280.441C303 284.86 299.418 288.441 295 288.441H8C3.58173 288.441 0 284.86 0 280.441V8.44141Z" fill="#F5FFF2"/>
<path d="M16 48.4414C16 35.1866 26.7452 24.4414 40 24.4414C53.2548 24.4414 64 35.1866 64 48.4414C64 61.6962 53.2548 72.4414 40 72.4414C26.7452 72.4414 16 61.6962 16 48.4414Z" fill="#DEFFD6"/>
<g clip-path="url(#clip0_99_137539)">
<path d="M39.0623 42.7539C39.0623 42.2358 38.6429 41.8164 38.1248 41.8164H36.638L38.7876 39.6667C39.0559 39.3984 39.1365 38.9956 38.991 38.645C38.8462 38.2944 38.5037 38.0664 38.1248 38.0664H34.3748C33.8567 38.0664 33.4373 38.4858 33.4373 39.0039C33.4373 39.522 33.8567 39.9414 34.3748 39.9414H35.8616L33.712 42.0911C33.4436 42.3594 33.3631 42.7622 33.5086 43.1128C33.6534 43.4634 33.9956 43.6914 34.3748 43.6914H38.1248C38.6429 43.6914 39.0623 43.272 39.0623 42.7539Z" fill="#1C9401"/>
<path d="M41.0092 37.4878C41.1538 37.8384 41.4963 38.0664 41.8752 38.0664H45.6252C46.1433 38.0664 46.5627 37.647 46.5627 37.1289C46.5627 36.6108 46.1433 36.1914 45.6252 36.1914H44.1384L46.2881 34.0417C46.5564 33.7734 46.6369 33.3706 46.4914 33.02C46.3466 32.6694 46.0041 32.4414 45.6252 32.4414H41.8752C41.3571 32.4414 40.9377 32.8608 40.9377 33.3789C40.9377 33.897 41.3571 34.3164 41.8752 34.3164H43.362L41.2124 36.4661C40.9441 36.7344 40.8635 37.1372 41.0092 37.4878Z" fill="#1C9401"/>
<path d="M53.1875 47.4414H40C38.4492 47.4414 37.1875 48.7031 37.1875 50.2539V54.0039C37.1875 54.522 37.6069 54.9414 38.125 54.9414H56V50.2539C56 48.7031 54.7383 47.4414 53.1875 47.4414Z" fill="#1C9401"/>
<path d="M35.3125 54.0039V53.0664H25.875V42.7539C25.875 42.2358 25.4556 41.8164 24.9375 41.8164C24.4194 41.8164 24 42.2358 24 42.7539V63.5039C24 64.022 24.4194 64.4414 24.9375 64.4414C25.4556 64.4414 25.875 64.022 25.875 63.5039V60.6289H54.125V63.5039C54.125 64.0217 54.5447 64.4414 55.0625 64.4414C55.5803 64.4414 56 64.0217 56 63.5039V56.8164H38.125C36.5718 56.8164 35.3125 55.5571 35.3125 54.0039Z" fill="#1C9401"/>
<path d="M35.3125 48.3789C35.3125 49.9321 34.0532 51.1914 32.5 51.1914C30.9468 51.1914 29.6875 49.9321 29.6875 48.3789C29.6875 46.8257 30.9468 45.5664 32.5 45.5664C34.0532 45.5664 35.3125 46.8257 35.3125 48.3789Z" fill="#1C9401"/>
</g>
<path d="M21.291 103.582C20.5703 103.582 19.8994 103.441 19.2783 103.16C18.6631 102.873 18.1387 102.498 17.7051 102.035C17.2715 101.566 16.9668 101.068 16.791 100.541L18.8213 99.6797C18.9326 100.002 19.0996 100.312 19.3223 100.611C19.5508 100.904 19.8262 101.145 20.1484 101.332C20.4766 101.52 20.8457 101.613 21.2559 101.613C21.6133 101.613 21.9473 101.537 22.2578 101.385C22.5684 101.232 22.8174 101.021 23.0049 100.752C23.1982 100.477 23.2949 100.169 23.2949 99.8291C23.2949 99.4658 23.1953 99.1582 22.9961 98.9062C22.7969 98.6484 22.5479 98.4346 22.249 98.2646C21.9561 98.0947 21.6543 97.9541 21.3438 97.8428C21.0391 97.7256 20.7725 97.6289 20.5439 97.5527C19.9639 97.3535 19.4219 97.0957 18.918 96.7793C18.4141 96.457 18.0068 96.0527 17.6963 95.5664C17.3857 95.0801 17.2305 94.4883 17.2305 93.791C17.2305 93.0879 17.3916 92.4785 17.7139 91.9629C18.042 91.4473 18.4932 91.0488 19.0674 90.7676C19.6475 90.4863 20.3125 90.3457 21.0625 90.3457C21.7656 90.3457 22.3809 90.46 22.9082 90.6885C23.4355 90.917 23.8779 91.2217 24.2354 91.6025C24.5986 91.9775 24.874 92.3848 25.0615 92.8242L23.1016 93.6152C23.0195 93.4453 22.8877 93.2578 22.7061 93.0527C22.5303 92.8477 22.3047 92.6689 22.0293 92.5166C21.7598 92.3643 21.4434 92.2881 21.0801 92.2881C20.6465 92.2881 20.251 92.417 19.8936 92.6748C19.5361 92.9268 19.3574 93.3047 19.3574 93.8086C19.3574 94.1484 19.4424 94.4385 19.6123 94.6787C19.7881 94.9189 20.0078 95.124 20.2715 95.2939C20.5352 95.458 20.8076 95.5957 21.0889 95.707C21.376 95.8184 21.6309 95.9121 21.8535 95.9883C22.1113 96.0703 22.4395 96.1963 22.8379 96.3662C23.2363 96.5303 23.6318 96.7559 24.0244 97.043C24.417 97.3301 24.748 97.6963 25.0176 98.1416C25.2871 98.5869 25.4219 99.1318 25.4219 99.7764C25.4219 100.509 25.2344 101.162 24.8594 101.736C24.4902 102.311 23.9922 102.762 23.3652 103.09C22.7441 103.418 22.0527 103.582 21.291 103.582ZM29.5703 103.582C29.0781 103.582 28.6709 103.477 28.3486 103.266C28.0322 103.055 27.7949 102.762 27.6367 102.387C27.4785 102.012 27.3994 101.578 27.3994 101.086V89.9062H29.4736V100.919C29.4736 101.054 29.4883 101.186 29.5176 101.314C29.5469 101.443 29.6055 101.552 29.6934 101.64C29.7871 101.722 29.9336 101.763 30.1328 101.763C30.2148 101.763 30.2881 101.757 30.3525 101.745C30.4229 101.728 30.4844 101.71 30.5371 101.692V103.424C30.4141 103.477 30.2646 103.515 30.0889 103.538C29.9189 103.567 29.7461 103.582 29.5703 103.582ZM36.2676 103.582C35.3184 103.582 34.4893 103.38 33.7803 102.976C33.0713 102.565 32.5176 101.997 32.1191 101.271C31.7207 100.544 31.5215 99.7061 31.5215 98.7568C31.5215 97.7725 31.7207 96.9199 32.1191 96.1992C32.5176 95.4785 33.0537 94.9219 33.7275 94.5293C34.4014 94.1309 35.1484 93.9316 35.9688 93.9316C36.7539 93.9316 37.4629 94.1133 38.0957 94.4766C38.7344 94.8398 39.2412 95.3467 39.6162 95.9971C39.9912 96.6416 40.1787 97.3975 40.1787 98.2646C40.1787 98.4873 40.167 98.6953 40.1436 98.8887C40.1201 99.082 40.0908 99.2754 40.0557 99.4688H33.0771V98.001H38.2363C38.2363 97.5557 38.1426 97.1602 37.9551 96.8145C37.7676 96.4629 37.5039 96.1875 37.1641 95.9883C36.8242 95.7832 36.4258 95.6807 35.9688 95.6807C35.4531 95.6807 35.002 95.8096 34.6152 96.0674C34.2344 96.3193 33.9355 96.6738 33.7188 97.1309C33.5078 97.582 33.4023 98.1094 33.4023 98.7129C33.4023 99.3281 33.5166 99.8701 33.7451 100.339C33.9795 100.808 34.3076 101.174 34.7295 101.438C35.1572 101.701 35.6641 101.833 36.25 101.833C36.584 101.833 36.9004 101.792 37.1992 101.71C37.498 101.628 37.7705 101.522 38.0166 101.394C38.2627 101.259 38.4736 101.118 38.6494 100.972L39.3613 102.677C38.9922 102.94 38.5381 103.157 37.999 103.327C37.4658 103.497 36.8887 103.582 36.2676 103.582ZM46.2168 103.582C45.2676 103.582 44.4385 103.38 43.7295 102.976C43.0205 102.565 42.4668 101.997 42.0684 101.271C41.6699 100.544 41.4707 99.7061 41.4707 98.7568C41.4707 97.7725 41.6699 96.9199 42.0684 96.1992C42.4668 95.4785 43.0029 94.9219 43.6768 94.5293C44.3506 94.1309 45.0977 93.9316 45.918 93.9316C46.7031 93.9316 47.4121 94.1133 48.0449 94.4766C48.6836 94.8398 49.1904 95.3467 49.5654 95.9971C49.9404 96.6416 50.1279 97.3975 50.1279 98.2646C50.1279 98.4873 50.1162 98.6953 50.0928 98.8887C50.0693 99.082 50.04 99.2754 50.0049 99.4688H43.0264V98.001H48.1855C48.1855 97.5557 48.0918 97.1602 47.9043 96.8145C47.7168 96.4629 47.4531 96.1875 47.1133 95.9883C46.7734 95.7832 46.375 95.6807 45.918 95.6807C45.4023 95.6807 44.9512 95.8096 44.5645 96.0674C44.1836 96.3193 43.8848 96.6738 43.668 97.1309C43.457 97.582 43.3516 98.1094 43.3516 98.7129C43.3516 99.3281 43.4658 99.8701 43.6943 100.339C43.9287 100.808 44.2568 101.174 44.6787 101.438C45.1064 101.701 45.6133 101.833 46.1992 101.833C46.5332 101.833 46.8496 101.792 47.1484 101.71C47.4473 101.628 47.7197 101.522 47.9658 101.394C48.2119 101.259 48.4229 101.118 48.5986 100.972L49.3105 102.677C48.9414 102.94 48.4873 103.157 47.9482 103.327C47.415 103.497 46.8379 103.582 46.2168 103.582ZM51.8506 107.133V94.0635H53.8633V95.1533H54.1357L53.6787 96.085V101.271L54.2676 102.343H53.9248V107.133H51.8506ZM56.7637 103.582C55.9785 103.582 55.2754 103.368 54.6543 102.94C54.0391 102.513 53.5527 101.93 53.1953 101.191C52.8379 100.453 52.6562 99.624 52.6504 98.7041C52.6562 97.7842 52.832 96.9639 53.1777 96.2432C53.5293 95.5166 54.0098 94.9453 54.6191 94.5293C55.2344 94.1133 55.9375 93.9053 56.7285 93.9053C57.4609 93.9053 58.1494 94.0957 58.7939 94.4766C59.4385 94.8574 59.957 95.4082 60.3496 96.1289C60.748 96.8496 60.9414 97.7256 60.9297 98.7568C60.9355 99.5244 60.8242 100.21 60.5957 100.813C60.3672 101.411 60.0566 101.915 59.6641 102.325C59.2715 102.735 58.8232 103.049 58.3193 103.266C57.8213 103.477 57.3027 103.582 56.7637 103.582ZM56.333 101.789C56.8252 101.789 57.2646 101.657 57.6514 101.394C58.0381 101.13 58.3369 100.77 58.5479 100.312C58.7646 99.8496 58.8701 99.3223 58.8643 98.7305C58.8701 98.1211 58.7646 97.5908 58.5479 97.1396C58.3311 96.6826 58.0264 96.3281 57.6338 96.0762C57.2471 95.8242 56.8047 95.7012 56.3066 95.707C55.8379 95.7012 55.4131 95.8213 55.0322 96.0674C54.6572 96.3076 54.3555 96.6533 54.127 97.1045C53.9043 97.5557 53.793 98.0977 53.793 98.7305C53.793 99.3223 53.9014 99.8496 54.1182 100.312C54.3408 100.77 54.6426 101.13 55.0234 101.394C55.4043 101.657 55.8408 101.789 56.333 101.789ZM67.4424 103.441V90.4863H69.6045V95.8828H75.625V90.4863H77.7871V103.441H75.625V97.8252H69.6045V103.441H67.4424ZM82.9375 103.582C82.3281 103.582 81.7861 103.462 81.3115 103.222C80.8369 102.976 80.4648 102.642 80.1953 102.22C79.9258 101.792 79.791 101.3 79.791 100.743C79.791 100.157 79.9492 99.6504 80.2656 99.2227C80.582 98.7891 81.0508 98.4551 81.6719 98.2207C82.293 97.9805 83.0518 97.8604 83.9482 97.8604H85.9785V99.3105H84.001C83.2979 99.3105 82.7529 99.4248 82.3662 99.6533C81.9795 99.8818 81.7861 100.222 81.7861 100.673C81.7861 100.942 81.8535 101.171 81.9883 101.358C82.123 101.546 82.3076 101.689 82.542 101.789C82.7822 101.889 83.0488 101.938 83.3418 101.938C83.6465 101.938 83.9805 101.871 84.3438 101.736C84.707 101.602 85.0205 101.394 85.2842 101.112C85.5479 100.831 85.6797 100.474 85.6797 100.04V99.0732L85.5654 98.5723V97.4209C85.5654 97.2393 85.542 97.0488 85.4951 96.8496C85.4541 96.6504 85.3691 96.4658 85.2402 96.2959C85.1172 96.1201 84.9385 95.9795 84.7041 95.874C84.4697 95.7627 84.165 95.707 83.79 95.707C83.4912 95.707 83.1777 95.7422 82.8496 95.8125C82.5215 95.877 82.2051 95.9678 81.9004 96.085C81.6016 96.2021 81.3408 96.334 81.1182 96.4805L80.4062 94.8018C80.6758 94.6494 81.001 94.5059 81.3818 94.3711C81.7686 94.2363 82.1904 94.1279 82.6475 94.0459C83.1045 93.9639 83.5703 93.9229 84.0449 93.9229C84.8184 93.9229 85.4365 94.0312 85.8994 94.248C86.3682 94.4648 86.7197 94.749 86.9541 95.1006C87.1885 95.4463 87.3438 95.8213 87.4199 96.2256C87.502 96.624 87.543 97.0107 87.543 97.3857V100.453C87.543 100.822 87.5811 101.106 87.6572 101.306C87.7393 101.505 87.8887 101.643 88.1055 101.719L88.2988 101.789L87.543 103.582L87.2705 103.477C86.8252 103.301 86.4854 103.081 86.251 102.817C86.0166 102.554 85.8906 102.29 85.873 102.026L86.2686 102.246H85.5654L86.04 102C85.8291 102.428 85.4424 102.8 84.8799 103.116C84.3174 103.427 83.6699 103.582 82.9375 103.582ZM89.9248 103.441V89.9062H91.999V95.0742H92.1748L91.7881 96.2695V101.341L92.2627 102.264H91.9375V103.441H89.9248ZM94.8555 103.582C94.0703 103.582 93.3672 103.368 92.7461 102.94C92.1309 102.513 91.6445 101.93 91.2871 101.191C90.9297 100.453 90.748 99.624 90.7422 98.7041C90.748 97.7842 90.9238 96.9639 91.2695 96.2432C91.6211 95.5166 92.1016 94.9453 92.7109 94.5293C93.3262 94.1133 94.0293 93.9053 94.8203 93.9053C95.5527 93.9053 96.2412 94.0957 96.8857 94.4766C97.5303 94.8574 98.0488 95.4082 98.4414 96.1289C98.8398 96.8496 99.0332 97.7256 99.0215 98.7568C99.0273 99.5244 98.916 100.21 98.6875 100.813C98.459 101.411 98.1484 101.915 97.7559 102.325C97.3633 102.735 96.915 103.049 96.4111 103.266C95.9131 103.477 95.3945 103.582 94.8555 103.582ZM94.4248 101.789C94.917 101.789 95.3564 101.657 95.7432 101.394C96.1299 101.13 96.4287 100.77 96.6396 100.312C96.8564 99.8496 96.9619 99.3223 96.9561 98.7305C96.9619 98.1211 96.8564 97.5908 96.6396 97.1396C96.4229 96.6826 96.1182 96.3281 95.7256 96.0762C95.3389 95.8242 94.8965 95.7012 94.3984 95.707C93.9297 95.7012 93.5049 95.8213 93.124 96.0674C92.749 96.3076 92.4473 96.6533 92.2188 97.1045C91.9961 97.5557 91.8848 98.0977 91.8848 98.7305C91.8848 99.3223 91.9932 99.8496 92.21 100.312C92.4326 100.77 92.7344 101.13 93.1152 101.394C93.4961 101.657 93.9326 101.789 94.4248 101.789ZM100.727 103.441V94.0635H102.801V103.441H100.727ZM101.764 92.7539C101.371 92.7539 101.04 92.6191 100.771 92.3496C100.507 92.0801 100.375 91.752 100.375 91.3652C100.375 90.9785 100.507 90.6504 100.771 90.3809C101.04 90.1113 101.371 89.9766 101.764 89.9766C102.15 89.9766 102.479 90.1113 102.748 90.3809C103.018 90.6504 103.152 90.9785 103.152 91.3652C103.152 91.752 103.018 92.0801 102.748 92.3496C102.479 92.6191 102.15 92.7539 101.764 92.7539ZM108.839 103.582C107.843 103.582 107.09 103.301 106.58 102.738C106.076 102.176 105.824 101.455 105.824 100.576V91.1807H107.898V100.427C107.898 100.878 108.004 101.209 108.215 101.42C108.426 101.631 108.689 101.736 109.006 101.736C109.146 101.736 109.278 101.719 109.401 101.684C109.524 101.643 109.636 101.596 109.735 101.543L110.447 103.239C110.23 103.345 109.987 103.427 109.718 103.485C109.448 103.55 109.155 103.582 108.839 103.582ZM104.277 95.7949V94.0635H110.148V95.7949H104.277ZM114.657 103.582C114.095 103.582 113.573 103.479 113.093 103.274C112.612 103.069 112.199 102.797 111.854 102.457C111.514 102.111 111.268 101.736 111.115 101.332L112.873 100.576C113.002 100.904 113.228 101.197 113.55 101.455C113.878 101.713 114.247 101.842 114.657 101.842C114.909 101.842 115.141 101.795 115.352 101.701C115.562 101.602 115.732 101.47 115.861 101.306C115.99 101.142 116.055 100.96 116.055 100.761C116.055 100.538 115.979 100.348 115.826 100.189C115.68 100.025 115.492 99.8877 115.264 99.7764C115.041 99.665 114.807 99.5713 114.561 99.4951C114.32 99.4189 114.109 99.3516 113.928 99.293C113.529 99.1699 113.134 99 112.741 98.7832C112.354 98.5664 112.032 98.2822 111.774 97.9307C111.517 97.5732 111.388 97.125 111.388 96.5859C111.388 96.041 111.528 95.5693 111.81 95.1709C112.091 94.7666 112.466 94.459 112.935 94.248C113.403 94.0312 113.922 93.9229 114.49 93.9229C115.275 93.9229 115.952 94.1133 116.521 94.4941C117.089 94.8691 117.49 95.3203 117.725 95.8477L116.002 96.5684C115.885 96.3516 115.709 96.1406 115.475 95.9355C115.24 95.7305 114.93 95.6279 114.543 95.6279C114.209 95.6279 113.922 95.7158 113.682 95.8916C113.447 96.0615 113.33 96.3018 113.33 96.6123C113.33 96.876 113.415 97.0898 113.585 97.2539C113.761 97.4121 113.992 97.5469 114.279 97.6582C114.566 97.7637 114.877 97.8721 115.211 97.9834C115.457 98.0596 115.735 98.1621 116.046 98.291C116.362 98.4141 116.667 98.5781 116.96 98.7832C117.259 98.9883 117.502 99.249 117.689 99.5654C117.883 99.876 117.979 100.257 117.979 100.708C117.979 101.271 117.827 101.769 117.522 102.202C117.218 102.636 116.813 102.976 116.31 103.222C115.806 103.462 115.255 103.582 114.657 103.582Z" fill="black"/>
<g opacity="0.05" clip-path="url(#clip1_99_137539)">
<path d="M228.777 59.8906C228.777 58.1098 227.336 56.668 225.555 56.668H220.444L227.833 49.2785C228.756 48.3562 229.032 46.9715 228.532 45.7663C228.035 44.5612 226.857 43.7773 225.555 43.7773H212.664C210.883 43.7773 209.441 45.2191 209.441 47C209.441 48.7809 210.883 50.2227 212.664 50.2227H217.775L210.386 57.6121C209.463 58.5344 209.186 59.9192 209.686 61.1243C210.184 62.3294 211.361 63.1133 212.664 63.1133H225.555C227.336 63.1133 228.777 61.6715 228.777 59.8906Z" fill="black"/>
<path d="M235.469 41.7884C235.966 42.9935 237.143 43.7773 238.446 43.7773H251.336C253.117 43.7773 254.559 42.3355 254.559 40.5547C254.559 38.7738 253.117 37.332 251.336 37.332H246.225L253.615 29.9426C254.537 29.0203 254.814 27.6355 254.314 26.4304C253.816 25.2253 252.639 24.4414 251.336 24.4414H238.446C236.665 24.4414 235.223 25.8832 235.223 27.6641C235.223 29.4449 236.665 30.8867 238.446 30.8867H243.556L236.167 38.2762C235.245 39.1985 234.968 40.5832 235.469 41.7884Z" fill="black"/>
<path d="M277.332 76.0039H232C226.669 76.0039 222.332 80.3411 222.332 85.6719V98.5625C222.332 100.343 223.774 101.785 225.555 101.785H287V85.6719C287 80.3411 282.663 76.0039 277.332 76.0039Z" fill="black"/>
<path d="M215.887 98.5625V95.3398H183.445V59.8906C183.445 58.1098 182.004 56.668 180.223 56.668C178.442 56.668 177 58.1098 177 59.8906V131.219C177 133 178.442 134.441 180.223 134.441C182.004 134.441 183.445 133 183.445 131.219V121.336H280.555V131.219C280.555 132.999 281.997 134.441 283.777 134.441C285.557 134.441 287 132.999 287 131.219V108.23H225.555C220.215 108.23 215.887 103.902 215.887 98.5625Z" fill="black"/>
<path d="M215.887 79.2266C215.887 84.5658 211.558 88.8945 206.219 88.8945C200.88 88.8945 196.551 84.5658 196.551 79.2266C196.551 73.8874 200.88 69.5586 206.219 69.5586C211.558 69.5586 215.887 73.8874 215.887 79.2266Z" fill="black"/>
</g>
<path d="M179.923 200.361V198.771H182.507C183.005 198.771 183.441 198.677 183.816 198.489C184.191 198.296 184.484 198.026 184.695 197.681C184.906 197.329 185.012 196.919 185.012 196.45C185.012 195.741 184.771 195.188 184.291 194.789C183.816 194.385 183.187 194.183 182.401 194.183H179.923V192.486H182.7C183.485 192.486 184.191 192.636 184.818 192.935C185.451 193.233 185.949 193.664 186.312 194.227C186.682 194.789 186.866 195.466 186.866 196.257C186.866 197.019 186.685 197.71 186.321 198.331C185.958 198.952 185.437 199.447 184.757 199.816C184.083 200.18 183.277 200.361 182.34 200.361H179.923ZM178.666 205.441V192.486H180.529V205.441H178.666ZM185.759 205.441L182.445 200.08L183.878 198.964L187.903 205.441H185.759ZM193.019 205.582C192.11 205.582 191.308 205.383 190.61 204.984C189.919 204.58 189.377 204.018 188.984 203.297C188.592 202.57 188.396 201.724 188.396 200.757C188.396 199.778 188.589 198.932 188.976 198.217C189.362 197.502 189.887 196.948 190.549 196.556C191.211 196.157 191.949 195.958 192.764 195.958C193.561 195.958 194.27 196.14 194.891 196.503C195.518 196.866 196.013 197.373 196.376 198.023C196.739 198.668 196.921 199.415 196.921 200.265C196.921 200.499 196.906 200.716 196.877 200.915C196.854 201.108 196.827 201.278 196.798 201.425H189.749V200.071H195.207C195.207 199.603 195.107 199.178 194.908 198.797C194.709 198.41 194.425 198.105 194.056 197.883C193.692 197.654 193.262 197.54 192.764 197.54C192.23 197.54 191.762 197.675 191.357 197.944C190.953 198.208 190.637 198.58 190.408 199.061C190.186 199.541 190.074 200.101 190.074 200.739C190.074 201.39 190.194 201.961 190.435 202.453C190.675 202.939 191.018 203.32 191.463 203.596C191.908 203.865 192.436 204 193.045 204C193.396 204 193.725 203.956 194.029 203.868C194.334 203.78 194.606 203.669 194.847 203.534C195.087 203.394 195.292 203.253 195.462 203.112L196.112 204.65C195.749 204.908 195.298 205.128 194.759 205.31C194.226 205.491 193.646 205.582 193.019 205.582ZM202.722 209.273C202.024 209.273 201.362 209.18 200.735 208.992C200.114 208.811 199.622 208.608 199.259 208.386L199.909 206.856C200.202 207.067 200.595 207.258 201.087 207.428C201.585 207.604 202.095 207.691 202.616 207.691C203.056 207.691 203.501 207.609 203.952 207.445C204.403 207.281 204.781 207.015 205.086 206.646C205.391 206.282 205.543 205.799 205.543 205.195V204.044H205.271L205.622 203.191V198.103L205.13 197.206H205.534V196.09H207.283V205.099C207.283 205.825 207.157 206.449 206.905 206.971C206.653 207.498 206.311 207.932 205.877 208.271C205.449 208.611 204.963 208.863 204.418 209.027C203.879 209.191 203.313 209.273 202.722 209.273ZM202.572 205.433C202.027 205.433 201.503 205.324 200.999 205.107C200.495 204.891 200.047 204.577 199.654 204.167C199.262 203.757 198.951 203.259 198.723 202.673C198.5 202.081 198.389 201.413 198.389 200.669C198.389 199.667 198.588 198.814 198.986 198.111C199.385 197.408 199.906 196.872 200.551 196.503C201.201 196.134 201.898 195.949 202.643 195.949C203.434 195.949 204.131 196.148 204.734 196.547C205.344 196.945 205.818 197.496 206.158 198.199C206.504 198.902 206.677 199.705 206.677 200.607C206.677 201.527 206.498 202.351 206.141 203.077C205.783 203.804 205.294 204.378 204.673 204.8C204.058 205.222 203.357 205.433 202.572 205.433ZM202.906 203.833C203.428 203.833 203.891 203.698 204.295 203.429C204.699 203.153 205.016 202.775 205.244 202.295C205.479 201.814 205.596 201.258 205.596 200.625C205.596 199.998 205.479 199.456 205.244 198.999C205.016 198.536 204.699 198.179 204.295 197.927C203.896 197.675 203.437 197.549 202.915 197.549C202.376 197.549 201.901 197.681 201.491 197.944C201.081 198.202 200.762 198.565 200.533 199.034C200.305 199.497 200.19 200.036 200.19 200.651C200.19 201.267 200.305 201.814 200.533 202.295C200.768 202.77 201.09 203.145 201.5 203.42C201.91 203.695 202.379 203.833 202.906 203.833ZM213.005 205.582C212.325 205.582 211.722 205.438 211.194 205.151C210.673 204.858 210.263 204.437 209.964 203.886C209.665 203.335 209.516 202.667 209.516 201.882V196.099H211.309V201.75C211.309 202.488 211.511 203.042 211.915 203.411C212.319 203.78 212.806 203.965 213.374 203.965C213.813 203.965 214.2 203.868 214.534 203.675C214.868 203.476 215.126 203.209 215.308 202.875C215.495 202.535 215.589 202.16 215.589 201.75V196.099H217.382V202.655C217.382 203.048 217.432 203.341 217.531 203.534C217.631 203.728 217.833 203.883 218.138 204L217.47 205.582C216.983 205.383 216.6 205.131 216.318 204.826C216.043 204.521 215.902 204.199 215.896 203.859L216.591 204.246H215.413L216.318 203.657C216.049 204.173 215.639 204.624 215.088 205.011C214.537 205.392 213.843 205.582 213.005 205.582ZM221.899 205.582C221.437 205.582 221.056 205.485 220.757 205.292C220.458 205.093 220.235 204.812 220.089 204.448C219.942 204.079 219.869 203.646 219.869 203.147V191.906H221.662V203.086C221.662 203.209 221.674 203.341 221.697 203.481C221.721 203.616 221.779 203.733 221.873 203.833C221.967 203.927 222.119 203.974 222.33 203.974C222.406 203.974 222.477 203.968 222.541 203.956C222.611 203.938 222.679 203.921 222.743 203.903V205.45C222.638 205.491 222.509 205.523 222.356 205.547C222.21 205.57 222.058 205.582 221.899 205.582ZM227.067 205.582C226.476 205.582 225.945 205.468 225.477 205.239C225.008 205.005 224.639 204.677 224.369 204.255C224.1 203.833 223.965 203.338 223.965 202.77C223.965 202.172 224.126 201.656 224.448 201.223C224.776 200.789 225.254 200.458 225.881 200.229C226.508 200.001 227.27 199.887 228.166 199.887H230.152V201.214H228.245C227.437 201.214 226.81 201.346 226.364 201.609C225.925 201.867 225.705 202.245 225.705 202.743C225.705 203.03 225.778 203.276 225.925 203.481C226.071 203.681 226.268 203.836 226.514 203.947C226.766 204.053 227.047 204.105 227.357 204.105C227.703 204.105 228.069 204.029 228.456 203.877C228.843 203.725 229.174 203.496 229.449 203.191C229.725 202.881 229.862 202.497 229.862 202.04V201.073L229.783 200.555V199.465C229.783 199.295 229.766 199.102 229.73 198.885C229.701 198.662 229.625 198.451 229.502 198.252C229.385 198.047 229.2 197.877 228.948 197.742C228.696 197.607 228.354 197.54 227.92 197.54C227.633 197.54 227.322 197.575 226.988 197.646C226.66 197.716 226.341 197.812 226.03 197.936C225.726 198.059 225.456 198.199 225.222 198.357L224.58 196.846C224.867 196.676 225.204 196.523 225.591 196.389C225.978 196.248 226.388 196.14 226.821 196.063C227.255 195.987 227.688 195.949 228.122 195.949C228.825 195.949 229.396 196.049 229.836 196.248C230.281 196.447 230.624 196.717 230.864 197.057C231.104 197.396 231.269 197.771 231.356 198.182C231.45 198.592 231.497 199.008 231.497 199.43V202.594C231.497 202.975 231.538 203.273 231.62 203.49C231.702 203.701 231.852 203.848 232.068 203.93L232.253 204L231.585 205.582L231.33 205.477C230.943 205.318 230.633 205.104 230.398 204.835C230.164 204.565 230.041 204.296 230.029 204.026L230.372 204.193H229.739L230.17 203.947C229.947 204.393 229.558 204.776 229.001 205.099C228.45 205.421 227.806 205.582 227.067 205.582ZM234.002 205.441V196.099H235.777V197.496H236.023L235.487 198.094C235.651 197.73 235.877 197.385 236.164 197.057C236.457 196.729 236.809 196.465 237.219 196.266C237.635 196.061 238.112 195.958 238.651 195.958C238.862 195.958 239.059 195.973 239.24 196.002C239.422 196.031 239.551 196.061 239.627 196.09L238.897 197.821C238.856 197.798 238.771 197.777 238.643 197.76C238.514 197.736 238.37 197.725 238.212 197.725C237.954 197.725 237.685 197.78 237.403 197.892C237.122 198.003 236.858 198.164 236.612 198.375C236.372 198.58 236.176 198.838 236.023 199.148C235.871 199.459 235.795 199.816 235.795 200.221V205.441H234.002ZM248.108 205.582C247.546 205.582 247.033 205.479 246.57 205.274C246.107 205.063 245.712 204.791 245.384 204.457C245.062 204.117 244.833 203.757 244.698 203.376L246.263 202.717C246.392 203.057 246.623 203.358 246.957 203.622C247.297 203.88 247.681 204.009 248.108 204.009C248.372 204.009 248.618 203.959 248.847 203.859C249.081 203.754 249.269 203.613 249.409 203.438C249.556 203.256 249.629 203.045 249.629 202.805C249.629 202.564 249.556 202.359 249.409 202.189C249.263 202.014 249.075 201.867 248.847 201.75C248.618 201.627 248.381 201.524 248.135 201.442C247.889 201.36 247.669 201.287 247.476 201.223C247.101 201.1 246.72 200.936 246.333 200.73C245.946 200.525 245.618 200.25 245.349 199.904C245.085 199.553 244.953 199.104 244.953 198.56C244.953 198.015 245.091 197.549 245.366 197.162C245.647 196.77 246.017 196.471 246.474 196.266C246.937 196.055 247.435 195.949 247.968 195.949C248.735 195.949 249.386 196.143 249.919 196.529C250.458 196.91 250.839 197.35 251.062 197.848L249.515 198.498C249.386 198.252 249.201 198.023 248.961 197.812C248.721 197.596 248.398 197.487 247.994 197.487C247.643 197.487 247.332 197.581 247.062 197.769C246.799 197.956 246.667 198.223 246.667 198.568C246.667 198.861 246.761 199.099 246.948 199.28C247.142 199.456 247.382 199.603 247.669 199.72C247.956 199.831 248.249 199.934 248.548 200.027C248.794 200.104 249.072 200.206 249.383 200.335C249.699 200.464 250.004 200.631 250.297 200.836C250.596 201.041 250.842 201.299 251.035 201.609C251.234 201.92 251.334 202.301 251.334 202.752C251.334 203.303 251.185 203.792 250.886 204.22C250.587 204.647 250.191 204.981 249.699 205.222C249.213 205.462 248.683 205.582 248.108 205.582ZM255.228 205.582C254.765 205.582 254.384 205.485 254.085 205.292C253.786 205.093 253.563 204.812 253.417 204.448C253.271 204.079 253.197 203.646 253.197 203.147V191.906H254.99V203.086C254.99 203.209 255.002 203.341 255.025 203.481C255.049 203.616 255.107 203.733 255.201 203.833C255.295 203.927 255.447 203.974 255.658 203.974C255.734 203.974 255.805 203.968 255.869 203.956C255.939 203.938 256.007 203.921 256.071 203.903V205.45C255.966 205.491 255.837 205.523 255.685 205.547C255.538 205.57 255.386 205.582 255.228 205.582ZM261.784 205.582C260.876 205.582 260.073 205.383 259.376 204.984C258.685 204.58 258.143 204.018 257.75 203.297C257.357 202.57 257.161 201.724 257.161 200.757C257.161 199.778 257.354 198.932 257.741 198.217C258.128 197.502 258.652 196.948 259.314 196.556C259.977 196.157 260.715 195.958 261.529 195.958C262.326 195.958 263.035 196.14 263.656 196.503C264.283 196.866 264.778 197.373 265.142 198.023C265.505 198.668 265.687 199.415 265.687 200.265C265.687 200.499 265.672 200.716 265.643 200.915C265.619 201.108 265.593 201.278 265.563 201.425H258.515V200.071H263.973C263.973 199.603 263.873 199.178 263.674 198.797C263.475 198.41 263.19 198.105 262.821 197.883C262.458 197.654 262.027 197.54 261.529 197.54C260.996 197.54 260.527 197.675 260.123 197.944C259.719 198.208 259.402 198.58 259.174 199.061C258.951 199.541 258.84 200.101 258.84 200.739C258.84 201.39 258.96 201.961 259.2 202.453C259.44 202.939 259.783 203.32 260.229 203.596C260.674 203.865 261.201 204 261.811 204C262.162 204 262.49 203.956 262.795 203.868C263.1 203.78 263.372 203.669 263.612 203.534C263.853 203.394 264.058 203.253 264.228 203.112L264.878 204.65C264.515 204.908 264.063 205.128 263.524 205.31C262.991 205.491 262.411 205.582 261.784 205.582ZM271.698 205.582C270.79 205.582 269.987 205.383 269.29 204.984C268.599 204.58 268.057 204.018 267.664 203.297C267.271 202.57 267.075 201.724 267.075 200.757C267.075 199.778 267.269 198.932 267.655 198.217C268.042 197.502 268.566 196.948 269.229 196.556C269.891 196.157 270.629 195.958 271.443 195.958C272.24 195.958 272.949 196.14 273.57 196.503C274.197 196.866 274.692 197.373 275.056 198.023C275.419 198.668 275.601 199.415 275.601 200.265C275.601 200.499 275.586 200.716 275.557 200.915C275.533 201.108 275.507 201.278 275.478 201.425H268.429V200.071H273.887C273.887 199.603 273.787 199.178 273.588 198.797C273.389 198.41 273.104 198.105 272.735 197.883C272.372 197.654 271.941 197.54 271.443 197.54C270.91 197.54 270.441 197.675 270.037 197.944C269.633 198.208 269.316 198.58 269.088 199.061C268.865 199.541 268.754 200.101 268.754 200.739C268.754 201.39 268.874 201.961 269.114 202.453C269.354 202.939 269.697 203.32 270.143 203.596C270.588 203.865 271.115 204 271.725 204C272.076 204 272.404 203.956 272.709 203.868C273.014 203.78 273.286 203.669 273.526 203.534C273.767 203.394 273.972 203.253 274.142 203.112L274.792 204.65C274.429 204.908 273.978 205.128 273.438 205.31C272.905 205.491 272.325 205.582 271.698 205.582ZM277.455 209.133V196.099H279.222V197.25H279.468L278.993 198.138V203.183L279.564 204.255H279.248V209.133H277.455ZM282.166 205.582C281.381 205.582 280.681 205.371 280.065 204.949C279.456 204.527 278.976 203.95 278.624 203.218C278.272 202.485 278.094 201.659 278.088 200.739C278.094 199.802 278.27 198.973 278.615 198.252C278.967 197.531 279.447 196.966 280.057 196.556C280.666 196.146 281.363 195.94 282.148 195.94C282.893 195.94 283.584 196.134 284.223 196.521C284.867 196.901 285.383 197.452 285.77 198.173C286.162 198.894 286.355 199.755 286.35 200.757C286.355 201.513 286.244 202.189 286.016 202.787C285.793 203.379 285.485 203.883 285.093 204.299C284.706 204.715 284.261 205.034 283.757 205.257C283.253 205.474 282.723 205.582 282.166 205.582ZM281.814 204C282.348 204 282.819 203.859 283.229 203.578C283.646 203.297 283.971 202.913 284.205 202.427C284.439 201.935 284.554 201.375 284.548 200.748C284.554 200.109 284.439 199.547 284.205 199.061C283.971 198.574 283.646 198.196 283.229 197.927C282.813 197.657 282.339 197.522 281.806 197.522C281.313 197.522 280.862 197.651 280.452 197.909C280.048 198.167 279.723 198.539 279.477 199.025C279.236 199.506 279.116 200.08 279.116 200.748C279.116 201.375 279.233 201.935 279.468 202.427C279.702 202.913 280.021 203.297 280.426 203.578C280.836 203.859 281.299 204 281.814 204Z" fill="#111928"/>
<line x1="16" y1="226.941" x2="287" y2="226.941" stroke="#D1D5DB"/>
<path d="M186.819 259.559C186.136 259.559 185.518 259.419 184.966 259.141C184.419 258.863 183.985 258.487 183.663 258.013C183.345 257.535 183.187 257 183.187 256.409C183.187 255.823 183.345 255.296 183.663 254.827C183.985 254.354 184.419 253.98 184.966 253.707C185.518 253.428 186.136 253.289 186.819 253.289C187.503 253.289 188.118 253.428 188.665 253.707C189.217 253.98 189.651 254.354 189.969 254.827C190.291 255.296 190.452 255.823 190.452 256.409C190.452 257 190.291 257.535 189.969 258.013C189.651 258.487 189.217 258.863 188.665 259.141C188.118 259.419 187.503 259.559 186.819 259.559ZM186.819 258.357C187.254 258.357 187.645 258.27 187.991 258.094C188.343 257.918 188.621 257.681 188.826 257.383C189.031 257.085 189.134 256.751 189.134 256.38C189.134 255.994 189.031 255.65 188.826 255.347C188.626 255.04 188.353 254.795 188.006 254.615C187.659 254.434 187.269 254.344 186.834 254.344C186.399 254.344 186.004 254.434 185.647 254.615C185.296 254.795 185.018 255.042 184.812 255.354C184.607 255.662 184.505 256.009 184.505 256.395C184.505 256.761 184.607 257.093 184.812 257.391C185.018 257.688 185.293 257.925 185.64 258.101C185.992 258.272 186.385 258.357 186.819 258.357ZM186.805 254.139C186.229 254.139 185.711 254.014 185.252 253.765C184.793 253.516 184.429 253.179 184.161 252.754C183.892 252.325 183.758 251.844 183.758 251.312C183.758 250.789 183.892 250.318 184.161 249.898C184.434 249.478 184.8 249.146 185.259 248.902C185.723 248.653 186.243 248.528 186.819 248.528C187.396 248.528 187.913 248.653 188.372 248.902C188.836 249.146 189.202 249.48 189.471 249.905C189.744 250.325 189.881 250.799 189.881 251.326C189.881 251.854 189.744 252.33 189.471 252.754C189.202 253.179 188.836 253.516 188.372 253.765C187.908 254.014 187.386 254.139 186.805 254.139ZM186.834 253.143C187.171 253.143 187.474 253.064 187.742 252.908C188.016 252.752 188.23 252.54 188.387 252.271C188.543 252.002 188.621 251.702 188.621 251.37C188.621 251.062 188.541 250.784 188.379 250.535C188.223 250.286 188.008 250.091 187.735 249.949C187.466 249.803 187.161 249.729 186.819 249.729C186.482 249.729 186.177 249.803 185.904 249.949C185.63 250.091 185.413 250.286 185.252 250.535C185.096 250.784 185.018 251.062 185.018 251.37C185.018 251.702 185.098 252.002 185.259 252.271C185.42 252.54 185.638 252.752 185.911 252.908C186.185 253.064 186.492 253.143 186.834 253.143ZM195.96 259.441V248.162H197.22V252.571H197.513L196.941 253.143C197.063 252.811 197.251 252.527 197.505 252.293C197.764 252.054 198.069 251.873 198.421 251.751C198.777 251.624 199.163 251.561 199.578 251.561C200.252 251.561 200.792 251.707 201.197 252C201.602 252.293 201.895 252.662 202.076 253.106C202.256 253.55 202.347 254.002 202.347 254.461V259.441H201.087V254.725C201.087 254.065 200.916 253.57 200.574 253.238C200.232 252.901 199.783 252.732 199.227 252.732C198.855 252.732 198.519 252.808 198.216 252.959C197.913 253.106 197.671 253.328 197.491 253.626C197.31 253.919 197.22 254.285 197.22 254.725V259.441H195.96ZM207.62 259.559C206.893 259.559 206.243 259.388 205.672 259.046C205.105 258.704 204.659 258.23 204.332 257.625C204.004 257.015 203.841 256.312 203.841 255.516C203.841 254.734 204.004 254.048 204.332 253.458C204.659 252.862 205.105 252.398 205.672 252.066C206.243 251.729 206.893 251.561 207.62 251.561C208.353 251.561 209.002 251.729 209.568 252.066C210.14 252.398 210.586 252.862 210.909 253.458C211.236 254.048 211.399 254.734 211.399 255.516C211.399 256.312 211.233 257.015 210.901 257.625C210.574 258.23 210.125 258.704 209.554 259.046C208.987 259.388 208.343 259.559 207.62 259.559ZM207.62 258.387C208.104 258.387 208.533 258.267 208.909 258.028C209.285 257.789 209.578 257.454 209.788 257.024C210.003 256.595 210.11 256.092 210.11 255.516C210.11 254.954 210.003 254.466 209.788 254.051C209.578 253.631 209.285 253.306 208.909 253.077C208.533 252.847 208.104 252.732 207.62 252.732C207.142 252.732 206.714 252.847 206.338 253.077C205.962 253.306 205.667 253.631 205.452 254.051C205.237 254.466 205.13 254.954 205.13 255.516C205.13 256.092 205.235 256.595 205.445 257.024C205.66 257.454 205.953 257.789 206.324 258.028C206.7 258.267 207.132 258.387 207.62 258.387ZM215.867 259.559C215.291 259.559 214.786 259.437 214.351 259.192C213.917 258.948 213.577 258.597 213.333 258.138C213.089 257.674 212.967 257.117 212.967 256.468V251.678H214.227V256.409C214.227 257.068 214.407 257.564 214.769 257.896C215.135 258.223 215.574 258.387 216.087 258.387C216.487 258.387 216.836 258.299 217.134 258.123C217.437 257.942 217.671 257.703 217.837 257.405C218.008 257.103 218.094 256.771 218.094 256.409V251.678H219.354V257.244C219.354 257.586 219.395 257.842 219.478 258.013C219.561 258.179 219.729 258.313 219.983 258.416L219.5 259.559C219.144 259.388 218.853 259.175 218.628 258.921C218.409 258.663 218.299 258.406 218.299 258.152L218.899 258.416H217.918L218.577 257.977C218.382 258.392 218.06 258.76 217.61 259.083C217.161 259.4 216.58 259.559 215.867 259.559ZM221.551 259.441V251.678H222.811V252.864H223.016L222.591 253.348C222.732 253.025 222.923 252.73 223.162 252.461C223.406 252.188 223.697 251.971 224.034 251.81C224.375 251.644 224.764 251.561 225.198 251.561C225.369 251.561 225.528 251.573 225.674 251.597C225.826 251.617 225.931 251.639 225.989 251.663L225.477 252.879C225.447 252.864 225.381 252.852 225.279 252.842C225.176 252.828 225.062 252.82 224.935 252.82C224.71 252.82 224.473 252.869 224.224 252.967C223.98 253.064 223.75 253.206 223.536 253.392C223.321 253.577 223.145 253.807 223.008 254.08C222.876 254.349 222.811 254.656 222.811 255.003V259.441H221.551ZM229.109 259.559C228.65 259.559 228.233 259.473 227.857 259.302C227.486 259.126 227.173 258.902 226.919 258.628C226.666 258.35 226.487 258.06 226.385 257.757L227.527 257.288C227.63 257.581 227.825 257.837 228.113 258.057C228.406 258.277 228.738 258.387 229.109 258.387C229.344 258.387 229.566 258.343 229.776 258.255C229.986 258.162 230.157 258.035 230.289 257.874C230.42 257.708 230.486 257.513 230.486 257.288C230.486 257.068 230.425 256.883 230.303 256.731C230.181 256.575 230.025 256.443 229.834 256.336C229.644 256.229 229.444 256.138 229.234 256.065C229.029 255.992 228.841 255.926 228.67 255.867C228.377 255.77 228.069 255.64 227.747 255.479C227.425 255.313 227.151 255.088 226.927 254.805C226.702 254.517 226.59 254.144 226.59 253.685C226.59 253.23 226.705 252.845 226.934 252.527C227.164 252.21 227.464 251.971 227.835 251.81C228.206 251.644 228.602 251.561 229.021 251.561C229.651 251.561 230.174 251.722 230.589 252.044C231.009 252.361 231.307 252.718 231.482 253.113L230.34 253.597C230.223 253.367 230.059 253.162 229.849 252.981C229.644 252.796 229.368 252.703 229.021 252.703C228.709 252.703 228.431 252.789 228.187 252.959C227.942 253.125 227.82 253.367 227.82 253.685C227.82 253.953 227.906 254.168 228.077 254.329C228.248 254.49 228.453 254.62 228.692 254.717C228.936 254.815 229.168 254.9 229.388 254.974C229.588 255.037 229.82 255.123 230.083 255.23C230.347 255.337 230.604 255.477 230.853 255.647C231.102 255.818 231.307 256.033 231.468 256.292C231.634 256.551 231.717 256.868 231.717 257.244C231.717 257.693 231.595 258.094 231.351 258.445C231.111 258.792 230.794 259.065 230.398 259.266C230.003 259.461 229.573 259.559 229.109 259.559ZM237.034 262.518V251.678H238.294V252.688H238.47L238.074 253.406V257.493L238.528 258.387H238.294V262.518H237.034ZM240.784 259.559C240.135 259.559 239.556 259.388 239.048 259.046C238.545 258.699 238.147 258.223 237.854 257.618C237.566 257.012 237.42 256.321 237.415 255.545C237.42 254.754 237.566 254.058 237.854 253.458C238.147 252.857 238.545 252.388 239.048 252.051C239.556 251.714 240.135 251.546 240.784 251.546C241.414 251.546 241.995 251.709 242.527 252.037C243.06 252.359 243.487 252.82 243.809 253.421C244.131 254.017 244.29 254.725 244.285 255.545C244.29 256.155 244.2 256.707 244.014 257.2C243.829 257.693 243.572 258.116 243.245 258.467C242.923 258.819 242.549 259.09 242.125 259.28C241.705 259.466 241.258 259.559 240.784 259.559ZM240.564 258.416C241.038 258.416 241.458 258.292 241.824 258.042C242.195 257.789 242.483 257.447 242.688 257.017C242.898 256.583 243.001 256.092 242.996 255.545C243.001 254.983 242.898 254.488 242.688 254.058C242.483 253.628 242.195 253.294 241.824 253.055C241.458 252.811 241.038 252.688 240.564 252.688C240.13 252.688 239.732 252.803 239.371 253.033C239.009 253.262 238.719 253.592 238.499 254.021C238.284 254.446 238.177 254.954 238.177 255.545C238.177 256.092 238.279 256.583 238.484 257.017C238.694 257.447 238.978 257.789 239.334 258.042C239.695 258.292 240.105 258.416 240.564 258.416ZM249.207 259.559C248.479 259.559 247.833 259.395 247.266 259.068C246.705 258.736 246.263 258.27 245.94 257.669C245.618 257.068 245.457 256.36 245.457 255.545C245.457 254.734 245.613 254.031 245.926 253.436C246.238 252.84 246.663 252.378 247.2 252.051C247.742 251.724 248.353 251.561 249.031 251.561C249.7 251.561 250.291 251.714 250.804 252.022C251.316 252.325 251.717 252.745 252.005 253.282C252.298 253.819 252.444 254.432 252.444 255.12C252.444 255.33 252.432 255.518 252.408 255.684C252.388 255.85 252.371 255.975 252.356 256.058H246.409V255.032H251.214C251.214 254.612 251.126 254.229 250.95 253.882C250.774 253.531 250.523 253.252 250.196 253.047C249.869 252.837 249.48 252.732 249.031 252.732C248.572 252.732 248.167 252.85 247.815 253.084C247.464 253.318 247.188 253.648 246.988 254.073C246.788 254.493 246.688 254.983 246.688 255.545C246.688 256.111 246.792 256.609 247.002 257.039C247.212 257.464 247.51 257.796 247.896 258.035C248.282 258.27 248.738 258.387 249.266 258.387C249.578 258.387 249.861 258.348 250.115 258.27C250.374 258.187 250.601 258.086 250.796 257.969C250.997 257.847 251.165 257.728 251.302 257.61L251.785 258.753C251.487 258.973 251.114 259.163 250.665 259.324C250.22 259.48 249.734 259.559 249.207 259.559ZM254.1 259.441V251.678H255.359V252.864H255.564L255.14 253.348C255.281 253.025 255.472 252.73 255.711 252.461C255.955 252.188 256.246 251.971 256.583 251.81C256.924 251.644 257.312 251.561 257.747 251.561C257.918 251.561 258.077 251.573 258.223 251.597C258.375 251.617 258.479 251.639 258.538 251.663L258.025 252.879C257.996 252.864 257.93 252.852 257.828 252.842C257.725 252.828 257.61 252.82 257.483 252.82C257.259 252.82 257.022 252.869 256.773 252.967C256.529 253.064 256.299 253.206 256.084 253.392C255.87 253.577 255.694 253.807 255.557 254.08C255.425 254.349 255.359 254.656 255.359 255.003V259.441H254.1ZM270.213 259.559C269.915 259.417 269.676 259.271 269.495 259.119C269.314 258.968 269.183 258.802 269.1 258.621C269.021 258.44 268.982 258.235 268.982 258.006L269.334 258.182H268.616L269.012 257.317V253.406L268.646 252.63H268.807V248.162H270.066V257.288C270.066 257.61 270.108 257.85 270.191 258.006C270.274 258.162 270.442 258.299 270.696 258.416L270.213 259.559ZM266.331 259.559C265.857 259.559 265.408 259.466 264.983 259.28C264.563 259.09 264.19 258.819 263.863 258.467C263.541 258.116 263.287 257.693 263.101 257.2C262.916 256.707 262.825 256.155 262.83 255.545C262.825 254.725 262.984 254.017 263.306 253.421C263.628 252.82 264.056 252.359 264.588 252.037C265.12 251.709 265.701 251.546 266.331 251.546C266.98 251.546 267.557 251.714 268.06 252.051C268.567 252.388 268.965 252.857 269.253 253.458C269.546 254.058 269.695 254.754 269.7 255.545C269.695 256.321 269.546 257.012 269.253 257.618C268.965 258.223 268.567 258.699 268.06 259.046C267.557 259.388 266.98 259.559 266.331 259.559ZM266.551 258.416C267.01 258.416 267.417 258.292 267.774 258.042C268.135 257.789 268.418 257.447 268.624 257.017C268.833 256.583 268.938 256.092 268.938 255.545C268.938 254.954 268.829 254.446 268.609 254.021C268.394 253.592 268.106 253.262 267.745 253.033C267.383 252.803 266.985 252.688 266.551 252.688C266.077 252.688 265.655 252.811 265.284 253.055C264.917 253.294 264.629 253.628 264.419 254.058C264.214 254.488 264.114 254.983 264.119 255.545C264.114 256.092 264.214 256.583 264.419 257.017C264.629 257.447 264.917 257.789 265.284 258.042C265.655 258.292 266.077 258.416 266.551 258.416ZM274.505 259.559C274.026 259.559 273.594 259.466 273.208 259.28C272.823 259.095 272.518 258.831 272.293 258.489C272.068 258.143 271.956 257.728 271.956 257.244C271.956 256.731 272.095 256.294 272.374 255.933C272.652 255.572 273.055 255.298 273.582 255.113C274.109 254.922 274.749 254.827 275.501 254.827H277.112V255.838H275.589C274.822 255.838 274.229 255.96 273.809 256.204C273.394 256.448 273.187 256.795 273.187 257.244C273.187 257.503 273.252 257.725 273.384 257.911C273.516 258.091 273.692 258.23 273.912 258.328C274.136 258.426 274.383 258.475 274.651 258.475C274.974 258.475 275.306 258.404 275.647 258.262C275.994 258.116 276.285 257.906 276.519 257.632C276.758 257.354 276.878 257.015 276.878 256.614V255.809L276.849 255.354V254.49C276.849 254.363 276.839 254.202 276.819 254.007C276.8 253.807 276.741 253.609 276.644 253.414C276.551 253.218 276.392 253.055 276.167 252.923C275.943 252.786 275.628 252.718 275.223 252.718C274.983 252.718 274.725 252.75 274.446 252.813C274.173 252.872 273.904 252.955 273.641 253.062C273.382 253.169 273.152 253.294 272.952 253.436L272.469 252.308C272.728 252.156 273.016 252.024 273.333 251.912C273.655 251.795 273.987 251.705 274.329 251.641C274.676 251.578 275.013 251.546 275.34 251.546C275.867 251.546 276.304 251.624 276.651 251.78C277.002 251.937 277.281 252.151 277.486 252.425C277.691 252.698 277.835 253.011 277.918 253.362C278.006 253.709 278.05 254.075 278.05 254.461V257.186C278.05 257.513 278.084 257.771 278.152 257.962C278.226 258.152 278.353 258.284 278.533 258.357L278.68 258.416L278.196 259.559L277.991 259.471C277.718 259.354 277.483 259.18 277.288 258.951C277.093 258.721 276.995 258.494 276.995 258.27L277.244 258.357H276.761L277.083 258.152C276.893 258.538 276.568 258.87 276.109 259.148C275.655 259.422 275.12 259.559 274.505 259.559ZM280.789 262.635C280.491 262.635 280.213 262.601 279.954 262.532C279.695 262.464 279.515 262.4 279.412 262.342L279.896 261.199C280.052 261.277 280.213 261.341 280.379 261.39C280.545 261.438 280.696 261.463 280.833 261.463C281.131 261.468 281.375 261.395 281.565 261.243C281.761 261.097 281.912 260.923 282.02 260.723C282.127 260.528 282.205 260.359 282.254 260.218L282.649 259.046L282.679 259.808L279.295 251.678H280.672L282.503 256.409L283.104 258.006H283.162L283.704 256.409L285.374 251.678H286.707L283.367 260.525C283.304 260.701 283.211 260.906 283.089 261.141C282.972 261.38 282.815 261.612 282.62 261.836C282.425 262.066 282.178 262.256 281.88 262.408C281.583 262.559 281.219 262.635 280.789 262.635Z" fill="#374151"/>
<defs>
<clipPath id="clip0_99_137539">
<rect width="32" height="32" fill="white" transform="translate(24 32.4414)"/>
</clipPath>
<clipPath id="clip1_99_137539">
<rect width="110" height="110" fill="white" transform="translate(177 24.4414)"/>
</clipPath>
</defs>
</svg>
