<svg width="48" height="49" viewBox="0 0 48 49" fill="none" xmlns="http://www.w3.org/2000/svg">
<path d="M0 24.4414C0 11.1866 10.7452 0.441406 24 0.441406C37.2548 0.441406 48 11.1866 48 24.4414C48 37.6962 37.2548 48.4414 24 48.4414C10.7452 48.4414 0 37.6962 0 24.4414Z" fill="#DEFFD6"/>
<g clip-path="url(#clip0_99_137517)">
<path d="M23.0623 18.7539C23.0623 18.2358 22.6429 17.8164 22.1248 17.8164H20.638L22.7876 15.6667C23.0559 15.3984 23.1365 14.9956 22.991 14.645C22.8462 14.2944 22.5037 14.0664 22.1248 14.0664H18.3748C17.8567 14.0664 17.4373 14.4858 17.4373 15.0039C17.4373 15.522 17.8567 15.9414 18.3748 15.9414H19.8616L17.712 18.0911C17.4436 18.3594 17.3631 18.7622 17.5086 19.1128C17.6534 19.4634 17.9956 19.6914 18.3748 19.6914H22.1248C22.6429 19.6914 23.0623 19.272 23.0623 18.7539Z" fill="#1C9401"/>
<path d="M25.0092 13.4878C25.1538 13.8384 25.4963 14.0664 25.8752 14.0664H29.6252C30.1433 14.0664 30.5627 13.647 30.5627 13.1289C30.5627 12.6108 30.1433 12.1914 29.6252 12.1914H28.1384L30.2881 10.0417C30.5564 9.77344 30.6369 9.37061 30.4914 9.02002C30.3466 8.66943 30.0041 8.44141 29.6252 8.44141H25.8752C25.3571 8.44141 24.9377 8.86084 24.9377 9.37891C24.9377 9.89697 25.3571 10.3164 25.8752 10.3164H27.362L25.2124 12.4661C24.9441 12.7344 24.8635 13.1372 25.0092 13.4878Z" fill="#1C9401"/>
<path d="M37.1875 23.4414H24C22.4492 23.4414 21.1875 24.7031 21.1875 26.2539V30.0039C21.1875 30.522 21.6069 30.9414 22.125 30.9414H40V26.2539C40 24.7031 38.7383 23.4414 37.1875 23.4414Z" fill="#1C9401"/>
<path d="M19.3125 30.0039V29.0664H9.875V18.7539C9.875 18.2358 9.45557 17.8164 8.9375 17.8164C8.41943 17.8164 8 18.2358 8 18.7539V39.5039C8 40.022 8.41943 40.4414 8.9375 40.4414C9.45557 40.4414 9.875 40.022 9.875 39.5039V36.6289H38.125V39.5039C38.125 40.0217 38.5447 40.4414 39.0625 40.4414C39.5803 40.4414 40 40.0217 40 39.5039V32.8164H22.125C20.5718 32.8164 19.3125 31.5571 19.3125 30.0039Z" fill="#1C9401"/>
<path d="M19.3125 24.3789C19.3125 25.9321 18.0532 27.1914 16.5 27.1914C14.9468 27.1914 13.6875 25.9321 13.6875 24.3789C13.6875 22.8257 14.9468 21.5664 16.5 21.5664C18.0532 21.5664 19.3125 22.8257 19.3125 24.3789Z" fill="#1C9401"/>
</g>
<defs>
<clipPath id="clip0_99_137517">
<rect width="32" height="32" fill="white" transform="translate(8 8.44141)"/>
</clipPath>
</defs>
</svg>
