<svg width="32" height="33" viewBox="0 0 32 33" fill="none" xmlns="http://www.w3.org/2000/svg">
<g id="fi_1422872" clip-path="url(#clip0_99_137518)">
<path id="Vector" d="M15.0623 10.7539C15.0623 10.2358 14.6429 9.81641 14.1248 9.81641H12.638L14.7876 7.66675C15.0559 7.39844 15.1365 6.99561 14.991 6.64502C14.8462 6.29443 14.5037 6.06641 14.1248 6.06641H10.3748C9.85673 6.06641 9.4373 6.48584 9.4373 7.00391C9.4373 7.52197 9.85673 7.94141 10.3748 7.94141H11.8616L9.71195 10.0911C9.44364 10.3594 9.36308 10.7622 9.50858 11.1128C9.65336 11.4634 9.99564 11.6914 10.3748 11.6914H14.1248C14.6429 11.6914 15.0623 11.272 15.0623 10.7539Z" fill="#1C9401"/>
<path id="Vector_2" d="M17.0092 5.48779C17.1538 5.83838 17.4963 6.06641 17.8752 6.06641H21.6252C22.1433 6.06641 22.5627 5.64697 22.5627 5.12891C22.5627 4.61084 22.1433 4.19141 21.6252 4.19141H20.1384L22.2881 2.04175C22.5564 1.77344 22.6369 1.37061 22.4914 1.02002C22.3466 0.669434 22.0041 0.441406 21.6252 0.441406H17.8752C17.3571 0.441406 16.9377 0.86084 16.9377 1.37891C16.9377 1.89697 17.3571 2.31641 17.8752 2.31641H19.362L17.2124 4.46606C16.9441 4.73438 16.8635 5.13721 17.0092 5.48779Z" fill="#1C9401"/>
<path id="Vector_3" d="M29.1875 15.4414H16C14.4492 15.4414 13.1875 16.7031 13.1875 18.2539V22.0039C13.1875 22.522 13.6069 22.9414 14.125 22.9414H32V18.2539C32 16.7031 30.7383 15.4414 29.1875 15.4414Z" fill="#1C9401"/>
<path id="Vector_4" d="M11.3125 22.0039V21.0664H1.875V10.7539C1.875 10.2358 1.45557 9.81641 0.9375 9.81641C0.419434 9.81641 0 10.2358 0 10.7539V31.5039C0 32.022 0.419434 32.4414 0.9375 32.4414C1.45557 32.4414 1.875 32.022 1.875 31.5039V28.6289H30.125V31.5039C30.125 32.0217 30.5447 32.4414 31.0625 32.4414C31.5803 32.4414 32 32.0217 32 31.5039V24.8164H14.125C12.5718 24.8164 11.3125 23.5571 11.3125 22.0039Z" fill="#1C9401"/>
<path id="Vector_5" d="M11.3125 16.3789C11.3125 17.9321 10.0532 19.1914 8.5 19.1914C6.94678 19.1914 5.6875 17.9321 5.6875 16.3789C5.6875 14.8257 6.94678 13.5664 8.5 13.5664C10.0532 13.5664 11.3125 14.8257 11.3125 16.3789Z" fill="#1C9401"/>
</g>
<defs>
<clipPath id="clip0_99_137518">
<rect width="32" height="32" fill="white" transform="translate(0 0.441406)"/>
</clipPath>
</defs>
</svg>
