<svg width="48" height="49" viewBox="0 0 48 49" fill="none" xmlns="http://www.w3.org/2000/svg">
<path d="M0 24.4414C0 11.1866 10.7452 0.441406 24 0.441406C37.2548 0.441406 48 11.1866 48 24.4414C48 37.6962 37.2548 48.4414 24 48.4414C10.7452 48.4414 0 37.6962 0 24.4414Z" fill="#FFF9E4"/>
<path d="M30.4482 23.9535H28.0002V23.9615C26.3682 23.9615 25.0401 22.3935 25.0401 20.7615C25.0401 19.1295 26.3682 17.9615 28.0002 17.9615V15.5615C25.0482 15.5615 22.6401 17.9615 22.6401 20.9215C22.6401 23.8816 25.0401 26.2816 28.0002 26.2816V26.2735H30.4482C32.1201 26.2735 33.6002 27.4576 33.6002 29.5615V31.6415H36.0002V29.0095C36.0001 26.1295 33.4401 23.9535 30.4482 23.9535Z" fill="#F0BB00"/>
<path d="M36.0001 33.2412H33.6001V38.0412H36.0001V33.2412Z" fill="#F0BB00"/>
<path d="M32 33.2412H8V38.0412H32V33.2412Z" fill="#F0BB00"/>
<path d="M34.9602 20.0093C35.9442 19.0413 36.5602 17.6893 36.5602 16.2013C36.5602 13.2413 34.1522 10.8413 31.2002 10.8413V13.2413C32.8322 13.2413 34.1602 14.5693 34.1602 16.2013C34.1602 17.8333 32.8322 19.1614 31.2002 19.1614V21.5614C34.7922 21.5614 37.6002 24.4813 37.6002 28.0734V31.6413H40.0002V28.0653C40.0002 24.5053 37.9522 21.4333 34.9602 20.0093Z" fill="#F0BB00"/>
<path d="M40.0001 33.2412H37.6001V38.0412H40.0001V33.2412Z" fill="#F0BB00"/>
</svg>
