<svg width="41" height="40" viewBox="0 0 41 40" fill="none" xmlns="http://www.w3.org/2000/svg">
<g id="fi_10855853">
<path id="Vector" d="M17.4017 23.2818C21.8464 25.6074 27.6384 22.1189 27.5293 16.9799C27.5277 15.1168 26.7869 13.3304 25.4695 12.013C24.152 10.6956 22.3657 9.95473 20.5025 9.95312C13.0378 10.0521 10.8228 19.9812 17.4017 23.2818Z" fill="#FA4D56"/>
<path id="Vector_2" d="M29.3168 25.1823L25.172 23.807C23.7959 24.7468 22.1683 25.2496 20.5019 25.2496C18.8355 25.2496 17.2079 24.7468 15.8319 23.8069L11.6933 25.1823C10.4969 25.5794 9.45612 26.3435 8.71877 27.3659C7.98141 28.3883 7.58503 29.6171 7.58594 30.8776V33.6597C7.58613 34.2333 7.81409 34.7834 8.21971 35.189C8.62533 35.5946 9.17543 35.8226 9.74906 35.8228H31.2549C31.8285 35.8226 32.3786 35.5946 32.7842 35.189C33.1898 34.7834 33.4178 34.2333 33.418 33.6597V30.8776C33.4189 29.6179 33.0233 28.3899 32.2872 27.3677C31.5511 26.3454 30.5119 25.5808 29.3168 25.1823Z" fill="#FA4D56"/>
<path id="Vector_3" d="M9.42617 8.02788C9.45859 8.13041 9.51673 8.22292 9.59505 8.29659C9.67337 8.37027 9.76926 8.42266 9.87357 8.44877C9.97789 8.47487 10.0871 8.47382 10.1909 8.44572C10.2947 8.41762 10.3896 8.3634 10.4665 8.28823L10.9537 7.80077L12.0044 9.61676C12.0874 9.76022 12.2239 9.86484 12.3841 9.9076C12.5442 9.95036 12.7147 9.92777 12.8582 9.84478C13.0016 9.7618 13.1063 9.62523 13.149 9.46511C13.1918 9.30499 13.1692 9.13444 13.0862 8.99098L11.6283 6.47015C11.5797 6.38791 11.513 6.31781 11.4333 6.26515C11.3536 6.21249 11.263 6.17866 11.1683 6.16622C11.0736 6.15377 10.9773 6.16305 10.8867 6.19333C10.7961 6.22362 10.7136 6.27413 10.6454 6.34103L10.32 6.66643L9.6966 4.61234C9.6459 4.45671 9.53621 4.32716 9.39107 4.2515C9.24592 4.17583 9.0769 4.16009 8.92028 4.20764C8.76366 4.25519 8.63192 4.36225 8.55334 4.50583C8.47476 4.64942 8.45561 4.81809 8.49999 4.97564L9.42617 8.02788Z" fill="#FA4D56"/>
<path id="Vector_4" d="M9.85259 17.4225C9.87383 17.3432 9.87923 17.2605 9.86848 17.179C9.85772 17.0976 9.83103 17.0191 9.78993 16.948C9.74882 16.8769 9.69411 16.8146 9.62891 16.7647C9.56372 16.7147 9.48932 16.6781 9.40997 16.6569L6.59671 15.9054C6.50416 15.8816 6.40739 15.8791 6.31375 15.8982C6.2201 15.9173 6.13205 15.9575 6.05626 16.0158C5.98047 16.074 5.91893 16.1487 5.87633 16.2343C5.83372 16.3198 5.81116 16.4139 5.81036 16.5095V16.9699L3.91714 15.9582C3.77129 15.8839 3.60209 15.8697 3.44589 15.9187C3.28969 15.9677 3.15894 16.076 3.08173 16.2204C3.00452 16.3648 2.987 16.5336 3.03294 16.6908C3.07887 16.8479 3.1846 16.9808 3.32742 17.0608L6.14065 18.5642C6.23611 18.6138 6.34266 18.638 6.45015 18.6347C6.55765 18.6314 6.66251 18.6007 6.75475 18.5454C6.84699 18.4901 6.92353 18.4121 6.97709 18.3188C7.03065 18.2255 7.05943 18.1201 7.0607 18.0126V17.3236L9.08761 17.8652C9.24772 17.907 9.41784 17.8839 9.56106 17.8011C9.70428 17.7182 9.80904 17.5822 9.85259 17.4225Z" fill="#FA4D56"/>
<path id="Vector_5" d="M37.6759 17.4611L34.8626 15.958C34.7672 15.9084 34.6607 15.884 34.5532 15.8872C34.4456 15.8905 34.3408 15.9212 34.2485 15.9765C34.1562 16.0318 34.0797 16.1098 34.0261 16.2031C33.9726 16.2963 33.9438 16.4018 33.9426 16.5093V17.1983L31.9157 16.6568C31.7564 16.617 31.5879 16.6414 31.4465 16.7247C31.3051 16.808 31.2021 16.9436 31.1598 17.1022C31.1175 17.2608 31.1392 17.4297 31.2204 17.5724C31.3015 17.7151 31.4354 17.8202 31.5933 17.865L34.4066 18.6165C34.4991 18.6404 34.5959 18.6429 34.6896 18.6238C34.7832 18.6047 34.8713 18.5645 34.9471 18.5063C35.0229 18.448 35.0844 18.3733 35.127 18.2877C35.1696 18.2022 35.1922 18.108 35.1929 18.0124V17.5521C35.3759 17.619 37.2092 18.7113 37.3804 18.638C37.5183 18.6351 37.6514 18.587 37.7593 18.501C37.8671 18.4151 37.9437 18.2961 37.9773 18.1623C38.0109 18.0286 37.9996 17.8875 37.9451 17.7608C37.8906 17.6341 37.7961 17.5288 37.6759 17.4611Z" fill="#FA4D56"/>
<path id="Vector_6" d="M28.4601 9.92904C28.5567 10.0635 31.1495 8.43571 31.2935 8.38752C31.3758 8.3389 31.4459 8.27219 31.4986 8.19244C31.5513 8.11269 31.5851 8.022 31.5975 7.92725C31.6099 7.83249 31.6006 7.73615 31.5702 7.64553C31.5398 7.55492 31.4893 7.4724 31.4223 7.40424L31.0963 7.07853L33.1506 6.45519C33.3064 6.40466 33.4361 6.29505 33.5119 6.14993C33.5877 6.0048 33.6036 5.83573 33.5561 5.67904C33.5086 5.52234 33.4015 5.39053 33.2579 5.31191C33.1143 5.23329 32.9455 5.21414 32.7879 5.25857L29.7354 6.18473C29.6329 6.21711 29.5403 6.27522 29.4666 6.35353C29.3929 6.43183 29.3405 6.52771 29.3143 6.63203C29.2882 6.73635 29.2892 6.84563 29.3173 6.94944C29.3454 7.05325 29.3996 7.14814 29.4748 7.22505L29.9626 7.71256L28.1463 8.76264C28.0299 8.83332 27.9395 8.93987 27.8889 9.06628C27.8382 9.19269 27.83 9.33213 27.8653 9.46363C27.9007 9.59514 27.9778 9.71161 28.0851 9.79554C28.1923 9.87946 28.3239 9.92631 28.4601 9.92904Z" fill="#FA4D56"/>
</g>
</svg>
