<svg width="169" height="41" viewBox="0 0 169 41" fill="none" xmlns="http://www.w3.org/2000/svg">
<path d="M0.5 20.5C0.5 9.4543 9.45431 0.5 20.5 0.5H148.5C159.546 0.5 168.5 9.4543 168.5 20.5C168.5 31.5457 159.546 40.5 148.5 40.5H20.5C9.4543 40.5 0.5 31.5457 0.5 20.5Z" fill="white"/>
<path d="M0.5 20.5C0.5 9.4543 9.45431 0.5 20.5 0.5H148.5C159.546 0.5 168.5 9.4543 168.5 20.5C168.5 31.5457 159.546 40.5 148.5 40.5H20.5C9.4543 40.5 0.5 31.5457 0.5 20.5Z" stroke="#001940"/>
<path d="M28.5264 26L24.0732 15.2041H26.0435L27.999 20.3091L29.2441 23.5024H29.3027L30.5332 20.3091L32.4961 15.2041H34.4663L30.0278 26H28.5264ZM35.5869 26V18.1851H37.3154V26H35.5869ZM36.4512 17.0938C36.124 17.0938 35.8481 16.9814 35.6235 16.7568C35.4038 16.5322 35.2939 16.2588 35.2939 15.9365C35.2939 15.6143 35.4038 15.3408 35.6235 15.1162C35.8481 14.8916 36.124 14.7793 36.4512 14.7793C36.7734 14.7793 37.0469 14.8916 37.2715 15.1162C37.4961 15.3408 37.6084 15.6143 37.6084 15.9365C37.6084 16.2588 37.4961 16.5322 37.2715 16.7568C37.0469 16.9814 36.7734 17.0938 36.4512 17.0938ZM42.6914 26.1172C41.9004 26.1172 41.2095 25.9487 40.6187 25.6118C40.0278 25.27 39.5664 24.7964 39.2344 24.1909C38.9023 23.5854 38.7363 22.8872 38.7363 22.0962C38.7363 21.2759 38.9023 20.5654 39.2344 19.9648C39.5664 19.3643 40.0132 18.9004 40.5747 18.5732C41.1362 18.2412 41.7588 18.0752 42.4424 18.0752C43.0967 18.0752 43.6875 18.2266 44.2148 18.5293C44.7471 18.832 45.1694 19.2544 45.4819 19.7964C45.7944 20.3335 45.9507 20.9634 45.9507 21.686C45.9507 21.8716 45.9409 22.0449 45.9214 22.2061C45.9019 22.3672 45.8774 22.5283 45.8481 22.6895H40.0327V21.4663H44.332C44.332 21.0952 44.2539 20.7656 44.0977 20.4775C43.9414 20.1846 43.7217 19.9551 43.4385 19.7891C43.1553 19.6182 42.8232 19.5327 42.4424 19.5327C42.0127 19.5327 41.6367 19.6401 41.3145 19.855C40.9971 20.0649 40.748 20.3604 40.5674 20.7412C40.3916 21.1172 40.3037 21.5566 40.3037 22.0596C40.3037 22.5723 40.3989 23.0239 40.5894 23.4146C40.7847 23.8052 41.0581 24.1104 41.4097 24.3301C41.7661 24.5498 42.1885 24.6597 42.6768 24.6597C42.9551 24.6597 43.2188 24.6255 43.4678 24.5571C43.7168 24.4888 43.9438 24.4009 44.1489 24.2935C44.354 24.1812 44.5298 24.064 44.6763 23.9419L45.2695 25.3628C44.9619 25.5825 44.5835 25.7632 44.1343 25.9048C43.6899 26.0464 43.209 26.1172 42.6914 26.1172ZM48.8071 26L46.5293 18.1851H48.2725L49.2759 22.1255L49.6934 23.8247H49.7446L50.2573 22.4917L51.7148 18.6611H52.5059L53.9634 22.4917L54.4614 23.8247H54.52L54.9521 22.1255L55.9629 18.1851H57.6914L55.4062 26H53.9121L53.1577 24.103L52.1396 21.5615H52.0811L51.0703 24.103L50.3086 26H48.8071ZM66.2021 26.1172C65.6016 26.1172 65.0425 26 64.5249 25.7656C64.0122 25.5264 63.5752 25.2139 63.2139 24.8281C62.8525 24.4375 62.5986 24.0225 62.4521 23.583L64.144 22.8652C64.2368 23.1338 64.376 23.3926 64.5615 23.6416C64.752 23.8857 64.9814 24.0859 65.25 24.2422C65.5234 24.3984 65.8311 24.4766 66.1729 24.4766C66.4707 24.4766 66.749 24.4131 67.0078 24.2861C67.2666 24.1592 67.4741 23.9834 67.6304 23.7588C67.7915 23.5293 67.8721 23.2729 67.8721 22.9897C67.8721 22.687 67.7891 22.4307 67.623 22.2207C67.457 22.0059 67.2495 21.8276 67.0005 21.686C66.7563 21.5444 66.5049 21.4272 66.2461 21.3345C65.9922 21.2368 65.77 21.1562 65.5796 21.0928C65.0962 20.9268 64.6445 20.7119 64.2246 20.4482C63.8047 20.1797 63.4653 19.8428 63.2065 19.4375C62.9478 19.0322 62.8184 18.5391 62.8184 17.958C62.8184 17.3721 62.9526 16.8643 63.2212 16.4346C63.4946 16.0049 63.8706 15.6729 64.3491 15.4385C64.8325 15.2041 65.3867 15.0869 66.0117 15.0869C66.5977 15.0869 67.1104 15.1821 67.5498 15.3726C67.9893 15.563 68.3579 15.8169 68.6558 16.1343C68.9585 16.4468 69.188 16.7861 69.3442 17.1523L67.7109 17.8115C67.6426 17.6699 67.5327 17.5137 67.3813 17.3428C67.2349 17.1719 67.0469 17.0229 66.8174 16.896C66.5928 16.769 66.3291 16.7056 66.0264 16.7056C65.665 16.7056 65.3354 16.813 65.0376 17.0278C64.7397 17.2378 64.5908 17.5527 64.5908 17.9727C64.5908 18.2559 64.6616 18.4976 64.8032 18.6978C64.9497 18.8979 65.1328 19.0688 65.3525 19.2104C65.5723 19.3472 65.7993 19.4619 66.0337 19.5547C66.2729 19.6475 66.4854 19.7256 66.6709 19.7891C66.8857 19.8574 67.1592 19.9624 67.4912 20.104C67.8232 20.2407 68.1528 20.4287 68.48 20.668C68.8071 20.9072 69.083 21.2124 69.3076 21.5835C69.5322 21.9546 69.6445 22.4087 69.6445 22.9458C69.6445 23.5562 69.4883 24.1006 69.1758 24.5791C68.8682 25.0576 68.4531 25.4336 67.9307 25.707C67.4131 25.9805 66.8369 26.1172 66.2021 26.1172ZM74.1636 26.1172C73.6021 26.1172 73.1016 25.9976 72.6621 25.7583C72.2227 25.519 71.876 25.1724 71.6221 24.7183C71.373 24.2593 71.2485 23.7026 71.2485 23.0483V18.1851H72.9771V22.8726C72.9771 23.4438 73.1309 23.8735 73.4385 24.1616C73.7461 24.4497 74.1172 24.5938 74.5518 24.5938C74.8887 24.5938 75.1816 24.5205 75.4307 24.374C75.6846 24.2227 75.8823 24.0176 76.0239 23.7588C76.1704 23.5 76.2437 23.2046 76.2437 22.8726V18.1851H77.9722V23.5537C77.9722 23.8662 78.0137 24.0981 78.0967 24.2495C78.1797 24.4009 78.3481 24.5254 78.6021 24.623L77.9648 26.1172C77.5107 25.9561 77.1616 25.751 76.9175 25.502C76.6733 25.248 76.5513 24.9648 76.5513 24.6523L77.1006 25.0332H76.1191L76.9614 24.4912C76.7124 24.9404 76.3535 25.3237 75.8848 25.6411C75.416 25.9585 74.8423 26.1172 74.1636 26.1172ZM83.1064 29.1934C82.501 29.1934 81.9346 29.1152 81.4072 28.959C80.8848 28.8027 80.4697 28.6367 80.1621 28.4609L80.77 27.0254C81.0142 27.1963 81.3364 27.3501 81.7368 27.4868C82.1372 27.6235 82.5449 27.6919 82.96 27.6919C83.3115 27.6919 83.6704 27.6284 84.0366 27.5015C84.4077 27.3745 84.7202 27.1694 84.9741 26.8862C85.228 26.603 85.355 26.2271 85.355 25.7583V24.8721H85.1206L85.4209 24.147V19.833L84.9741 19.0493H85.3696V18.1851H87.0103V25.6631C87.0103 26.2686 86.9053 26.791 86.6953 27.2305C86.4902 27.6748 86.207 28.041 85.8457 28.3291C85.4844 28.6221 85.0669 28.8394 84.5933 28.981C84.1245 29.1226 83.6289 29.1934 83.1064 29.1934ZM82.9453 25.9561C82.4961 25.9561 82.064 25.8682 81.6489 25.6924C81.2339 25.5166 80.8604 25.2603 80.5283 24.9233C80.1963 24.5864 79.9326 24.1738 79.7373 23.6855C79.5469 23.1924 79.4517 22.6309 79.4517 22.001C79.4517 21.1611 79.6201 20.4482 79.957 19.8623C80.2988 19.2764 80.7407 18.832 81.2827 18.5293C81.8247 18.2217 82.4009 18.0679 83.0112 18.0679C83.6753 18.0679 84.2588 18.2363 84.7617 18.5732C85.2695 18.9102 85.665 19.3716 85.9482 19.9575C86.2314 20.5386 86.373 21.1953 86.373 21.9277C86.373 22.6797 86.2241 23.3608 85.9263 23.9712C85.6284 24.5767 85.2207 25.0601 84.7031 25.4214C84.1904 25.7778 83.6045 25.9561 82.9453 25.9561ZM83.3042 24.4619C83.7095 24.4619 84.0708 24.3569 84.3882 24.147C84.7056 23.9321 84.9546 23.6367 85.1353 23.2607C85.3159 22.8848 85.4062 22.4526 85.4062 21.9644C85.4062 21.4712 85.3159 21.0439 85.1353 20.6826C84.9546 20.3213 84.7056 20.043 84.3882 19.8477C84.0757 19.6475 83.7168 19.5474 83.3115 19.5474C82.8965 19.5474 82.5278 19.6499 82.2056 19.855C81.8833 20.0552 81.6318 20.3384 81.4512 20.7046C81.2705 21.0659 81.1802 21.4883 81.1802 21.9717C81.1802 22.4551 81.2705 22.8848 81.4512 23.2607C81.6318 23.6318 81.8809 23.9248 82.1982 24.1396C82.5205 24.3545 82.8892 24.4619 83.3042 24.4619ZM92.1299 29.1934C91.5244 29.1934 90.958 29.1152 90.4307 28.959C89.9082 28.8027 89.4932 28.6367 89.1855 28.4609L89.7935 27.0254C90.0376 27.1963 90.3599 27.3501 90.7603 27.4868C91.1606 27.6235 91.5684 27.6919 91.9834 27.6919C92.335 27.6919 92.6938 27.6284 93.0601 27.5015C93.4312 27.3745 93.7437 27.1694 93.9976 26.8862C94.2515 26.603 94.3784 26.2271 94.3784 25.7583V24.8721H94.144L94.4443 24.147V19.833L93.9976 19.0493H94.3931V18.1851H96.0337V25.6631C96.0337 26.2686 95.9287 26.791 95.7188 27.2305C95.5137 27.6748 95.2305 28.041 94.8691 28.3291C94.5078 28.6221 94.0903 28.8394 93.6167 28.981C93.1479 29.1226 92.6523 29.1934 92.1299 29.1934ZM91.9688 25.9561C91.5195 25.9561 91.0874 25.8682 90.6724 25.6924C90.2573 25.5166 89.8838 25.2603 89.5518 24.9233C89.2197 24.5864 88.9561 24.1738 88.7607 23.6855C88.5703 23.1924 88.4751 22.6309 88.4751 22.001C88.4751 21.1611 88.6436 20.4482 88.9805 19.8623C89.3223 19.2764 89.7642 18.832 90.3062 18.5293C90.8481 18.2217 91.4243 18.0679 92.0347 18.0679C92.6987 18.0679 93.2822 18.2363 93.7852 18.5732C94.293 18.9102 94.6885 19.3716 94.9717 19.9575C95.2549 20.5386 95.3965 21.1953 95.3965 21.9277C95.3965 22.6797 95.2476 23.3608 94.9497 23.9712C94.6519 24.5767 94.2441 25.0601 93.7266 25.4214C93.2139 25.7778 92.6279 25.9561 91.9688 25.9561ZM92.3276 24.4619C92.7329 24.4619 93.0942 24.3569 93.4116 24.147C93.729 23.9321 93.978 23.6367 94.1587 23.2607C94.3394 22.8848 94.4297 22.4526 94.4297 21.9644C94.4297 21.4712 94.3394 21.0439 94.1587 20.6826C93.978 20.3213 93.729 20.043 93.4116 19.8477C93.0991 19.6475 92.7402 19.5474 92.335 19.5474C91.9199 19.5474 91.5513 19.6499 91.229 19.855C90.9067 20.0552 90.6553 20.3384 90.4746 20.7046C90.2939 21.0659 90.2036 21.4883 90.2036 21.9717C90.2036 22.4551 90.2939 22.8848 90.4746 23.2607C90.6553 23.6318 90.9043 23.9248 91.2217 24.1396C91.5439 24.3545 91.9126 24.4619 92.3276 24.4619ZM101.358 26.1172C100.567 26.1172 99.8765 25.9487 99.2856 25.6118C98.6948 25.27 98.2334 24.7964 97.9014 24.1909C97.5693 23.5854 97.4033 22.8872 97.4033 22.0962C97.4033 21.2759 97.5693 20.5654 97.9014 19.9648C98.2334 19.3643 98.6802 18.9004 99.2417 18.5732C99.8032 18.2412 100.426 18.0752 101.109 18.0752C101.764 18.0752 102.354 18.2266 102.882 18.5293C103.414 18.832 103.836 19.2544 104.149 19.7964C104.461 20.3335 104.618 20.9634 104.618 21.686C104.618 21.8716 104.608 22.0449 104.588 22.2061C104.569 22.3672 104.544 22.5283 104.515 22.6895H98.6997V21.4663H102.999C102.999 21.0952 102.921 20.7656 102.765 20.4775C102.608 20.1846 102.389 19.9551 102.105 19.7891C101.822 19.6182 101.49 19.5327 101.109 19.5327C100.68 19.5327 100.304 19.6401 99.9814 19.855C99.6641 20.0649 99.415 20.3604 99.2344 20.7412C99.0586 21.1172 98.9707 21.5566 98.9707 22.0596C98.9707 22.5723 99.0659 23.0239 99.2563 23.4146C99.4517 23.8052 99.7251 24.1104 100.077 24.3301C100.433 24.5498 100.855 24.6597 101.344 24.6597C101.622 24.6597 101.886 24.6255 102.135 24.5571C102.384 24.4888 102.611 24.4009 102.816 24.2935C103.021 24.1812 103.197 24.064 103.343 23.9419L103.937 25.3628C103.629 25.5825 103.25 25.7632 102.801 25.9048C102.357 26.0464 101.876 26.1172 101.358 26.1172ZM108.441 26.1172C107.972 26.1172 107.538 26.0317 107.137 25.8608C106.737 25.6899 106.393 25.4629 106.104 25.1797C105.821 24.8916 105.616 24.5791 105.489 24.2422L106.954 23.6123C107.062 23.8857 107.25 24.1299 107.518 24.3447C107.792 24.5596 108.099 24.667 108.441 24.667C108.651 24.667 108.844 24.6279 109.02 24.5498C109.195 24.4668 109.337 24.3569 109.444 24.2202C109.552 24.0835 109.605 23.9321 109.605 23.7661C109.605 23.5806 109.542 23.4219 109.415 23.29C109.293 23.1533 109.137 23.0386 108.946 22.9458C108.761 22.853 108.565 22.7749 108.36 22.7114C108.16 22.6479 107.984 22.5918 107.833 22.543C107.501 22.4404 107.171 22.2988 106.844 22.1182C106.522 21.9375 106.253 21.7007 106.039 21.4077C105.824 21.1099 105.716 20.7363 105.716 20.2871C105.716 19.833 105.833 19.4399 106.068 19.1079C106.302 18.771 106.615 18.5146 107.005 18.3389C107.396 18.1582 107.828 18.0679 108.302 18.0679C108.956 18.0679 109.52 18.2266 109.994 18.5439C110.467 18.8564 110.802 19.2324 110.997 19.6719L109.562 20.2725C109.464 20.0918 109.317 19.916 109.122 19.7451C108.927 19.5742 108.668 19.4888 108.346 19.4888C108.067 19.4888 107.828 19.562 107.628 19.7085C107.433 19.8501 107.335 20.0503 107.335 20.3091C107.335 20.5288 107.406 20.707 107.547 20.8438C107.694 20.9756 107.887 21.0879 108.126 21.1807C108.365 21.2686 108.624 21.3589 108.902 21.4517C109.107 21.5151 109.339 21.6006 109.598 21.708C109.862 21.8105 110.116 21.9473 110.36 22.1182C110.609 22.2891 110.812 22.5063 110.968 22.77C111.129 23.0288 111.209 23.3462 111.209 23.7222C111.209 24.1909 111.083 24.606 110.829 24.9673C110.575 25.3286 110.238 25.6118 109.818 25.8169C109.398 26.0171 108.939 26.1172 108.441 26.1172ZM115.721 26.1172C114.891 26.1172 114.264 25.8828 113.839 25.4141C113.419 24.9453 113.209 24.3447 113.209 23.6123V15.7827H114.938V23.4878C114.938 23.8638 115.025 24.1396 115.201 24.3154C115.377 24.4912 115.597 24.5791 115.86 24.5791C115.978 24.5791 116.087 24.5645 116.19 24.5352C116.292 24.501 116.385 24.4619 116.468 24.418L117.062 25.8315C116.881 25.9194 116.678 25.9878 116.454 26.0366C116.229 26.0903 115.985 26.1172 115.721 26.1172ZM111.92 19.6279V18.1851H116.812V19.6279H111.92ZM118.277 26V18.1851H120.006V26H118.277ZM119.142 17.0938C118.814 17.0938 118.539 16.9814 118.314 16.7568C118.094 16.5322 117.984 16.2588 117.984 15.9365C117.984 15.6143 118.094 15.3408 118.314 15.1162C118.539 14.8916 118.814 14.7793 119.142 14.7793C119.464 14.7793 119.737 14.8916 119.962 15.1162C120.187 15.3408 120.299 15.6143 120.299 15.9365C120.299 16.2588 120.187 16.5322 119.962 16.7568C119.737 16.9814 119.464 17.0938 119.142 17.0938ZM125.353 26.1172C124.61 26.1172 123.944 25.9463 123.353 25.6045C122.762 25.2578 122.293 24.7817 121.947 24.1763C121.6 23.5659 121.427 22.8628 121.427 22.0669C121.427 21.2759 121.6 20.5801 121.947 19.9795C122.293 19.3789 122.762 18.9102 123.353 18.5732C123.944 18.2363 124.61 18.0679 125.353 18.0679C126.104 18.0679 126.776 18.2363 127.367 18.5732C127.958 18.9102 128.424 19.3789 128.766 19.9795C129.107 20.5801 129.278 21.2759 129.278 22.0669C129.278 22.8628 129.105 23.5659 128.758 24.1763C128.417 24.7817 127.948 25.2578 127.352 25.6045C126.761 25.9463 126.095 26.1172 125.353 26.1172ZM125.353 24.5864C125.782 24.5864 126.166 24.4814 126.502 24.2715C126.839 24.0615 127.103 23.7686 127.293 23.3926C127.489 23.0117 127.586 22.5698 127.586 22.0669C127.586 21.5737 127.491 21.1416 127.301 20.7705C127.11 20.3994 126.847 20.1113 126.51 19.9062C126.178 19.7012 125.794 19.5986 125.36 19.5986C124.93 19.5986 124.547 19.7012 124.21 19.9062C123.873 20.1113 123.607 20.3994 123.412 20.7705C123.221 21.1416 123.126 21.5737 123.126 22.0669C123.126 22.5698 123.221 23.0117 123.412 23.3926C123.607 23.7686 123.871 24.0615 124.203 24.2715C124.54 24.4814 124.923 24.5864 125.353 24.5864ZM130.67 26V18.1851H132.362V19.1738H132.684L132.083 19.8403C132.201 19.4497 132.391 19.125 132.655 18.8662C132.923 18.6025 133.238 18.4048 133.6 18.2729C133.966 18.1362 134.359 18.0679 134.779 18.0679C135.375 18.0679 135.868 18.2021 136.258 18.4707C136.654 18.7393 136.949 19.0908 137.145 19.5254C137.34 19.96 137.438 20.4312 137.438 20.939V26H135.709V21.3125C135.709 20.7363 135.567 20.3018 135.284 20.0088C135.001 19.7158 134.615 19.5693 134.127 19.5693C133.805 19.5693 133.512 19.6377 133.248 19.7744C132.984 19.9062 132.777 20.1016 132.625 20.3604C132.474 20.6191 132.398 20.939 132.398 21.3198V26H130.67ZM141.649 26.1172C141.18 26.1172 140.746 26.0317 140.345 25.8608C139.945 25.6899 139.601 25.4629 139.312 25.1797C139.029 24.8916 138.824 24.5791 138.697 24.2422L140.162 23.6123C140.27 23.8857 140.458 24.1299 140.726 24.3447C141 24.5596 141.307 24.667 141.649 24.667C141.859 24.667 142.052 24.6279 142.228 24.5498C142.403 24.4668 142.545 24.3569 142.652 24.2202C142.76 24.0835 142.813 23.9321 142.813 23.7661C142.813 23.5806 142.75 23.4219 142.623 23.29C142.501 23.1533 142.345 23.0386 142.154 22.9458C141.969 22.853 141.773 22.7749 141.568 22.7114C141.368 22.6479 141.192 22.5918 141.041 22.543C140.709 22.4404 140.379 22.2988 140.052 22.1182C139.73 21.9375 139.461 21.7007 139.247 21.4077C139.032 21.1099 138.924 20.7363 138.924 20.2871C138.924 19.833 139.042 19.4399 139.276 19.1079C139.51 18.771 139.823 18.5146 140.213 18.3389C140.604 18.1582 141.036 18.0679 141.51 18.0679C142.164 18.0679 142.728 18.2266 143.202 18.5439C143.675 18.8564 144.01 19.2324 144.205 19.6719L142.77 20.2725C142.672 20.0918 142.525 19.916 142.33 19.7451C142.135 19.5742 141.876 19.4888 141.554 19.4888C141.275 19.4888 141.036 19.562 140.836 19.7085C140.641 19.8501 140.543 20.0503 140.543 20.3091C140.543 20.5288 140.614 20.707 140.755 20.8438C140.902 20.9756 141.095 21.0879 141.334 21.1807C141.573 21.2686 141.832 21.3589 142.11 21.4517C142.315 21.5151 142.547 21.6006 142.806 21.708C143.07 21.8105 143.324 21.9473 143.568 22.1182C143.817 22.2891 144.02 22.5063 144.176 22.77C144.337 23.0288 144.417 23.3462 144.417 23.7222C144.417 24.1909 144.291 24.606 144.037 24.9673C143.783 25.3286 143.446 25.6118 143.026 25.8169C142.606 26.0171 142.147 26.1172 141.649 26.1172Z" fill="#111928"/>
</svg>
