<svg width="56" height="57" viewBox="0 0 56 57" fill="none" xmlns="http://www.w3.org/2000/svg">
<g clip-path="url(#clip0_99_135930)">
<path d="M28.983 56.4414C22.4445 56.4414 17.125 51.1789 17.125 44.7106C17.125 40.8959 18.965 37.4121 21.981 35.2385V7.36834C21.9809 3.54875 25.1221 0.441406 28.983 0.441406C32.8438 0.441406 35.985 3.54875 35.985 7.36834V35.2385C39.0009 37.4122 40.841 40.8959 40.841 44.7106C40.841 51.1789 35.5215 56.4414 28.983 56.4414Z" fill="white"/>
<path d="M35.9851 35.2385V7.36823C35.9851 3.54875 32.844 0.441406 28.9831 0.441406C28.1318 0.441406 27.3158 0.592891 26.5605 0.869281C29.231 1.84666 31.14 4.39094 31.14 7.36834V44.7795L35.996 44.7107C35.996 50.358 31.9412 55.0856 26.5605 56.195C27.3429 56.3563 28.153 56.4415 28.9831 56.4415C35.5216 56.4415 40.8411 51.1792 40.8411 44.7107C40.8411 40.8959 39.0011 37.4122 35.9851 35.2385Z" fill="#ECECEC"/>
<path d="M26.8276 18.5418V7.4675C26.8276 6.29182 27.7945 5.33545 28.9829 5.33545C30.1712 5.33545 31.138 6.29193 31.138 7.4675V18.5418H26.8276Z" fill="#99CAF7"/>
<path d="M31.1381 18.5415V37.5519C31.1381 37.8762 31.3363 38.1683 31.6394 38.2913C34.2848 39.364 35.994 41.8837 35.994 44.7106C35.994 48.5351 32.8488 51.6465 28.9828 51.6465C25.1169 51.6465 21.9717 48.5351 21.9717 44.7106C21.9717 41.8838 23.681 39.3641 26.3262 38.2913C26.6295 38.1684 26.8276 37.8762 26.8276 37.5519V18.5415H31.1381Z" fill="#FF4C30"/>
<path d="M35.8566 30.8989H34.3836C33.9169 30.8989 33.5386 31.2773 33.5386 31.744C33.5386 32.2107 33.9169 32.589 34.3836 32.589H35.8566C36.3233 32.589 36.7016 32.2107 36.7016 31.744C36.7016 31.2773 36.3233 30.8989 35.8566 30.8989Z" fill="#99CAF7"/>
<path d="M35.8566 26.458H34.3836C33.9169 26.458 33.5386 26.8363 33.5386 27.303C33.5386 27.7697 33.9169 28.1481 34.3836 28.1481H35.8566C36.3233 28.1481 36.7016 27.7697 36.7016 27.303C36.7016 26.8363 36.3233 26.458 35.8566 26.458Z" fill="#99CAF7"/>
<path d="M35.8566 22.0176H34.3836C33.9169 22.0176 33.5386 22.3959 33.5386 22.8626C33.5386 23.3293 33.9169 23.7076 34.3836 23.7076H35.8566C36.3233 23.7076 36.7016 23.3293 36.7016 22.8626C36.7016 22.3959 36.3233 22.0176 35.8566 22.0176Z" fill="#99CAF7"/>
<path d="M35.8566 17.5767H34.3836C33.9169 17.5767 33.5386 17.955 33.5386 18.4217C33.5386 18.8884 33.9169 19.2667 34.3836 19.2667H35.8566C36.3233 19.2667 36.7016 18.8884 36.7016 18.4217C36.7016 17.955 36.3233 17.5767 35.8566 17.5767Z" fill="#99CAF7"/>
<path d="M35.8566 13.1357H34.3836C33.9169 13.1357 33.5386 13.5141 33.5386 13.9808C33.5386 14.4475 33.9169 14.8258 34.3836 14.8258H35.8566C36.3233 14.8258 36.7016 14.4475 36.7016 13.9808C36.7016 13.5142 36.3233 13.1357 35.8566 13.1357Z" fill="#99CAF7"/>
<path d="M34.3836 10.3854H35.8566C36.3233 10.3854 36.7016 10.007 36.7016 9.54034C36.7016 9.07364 36.3233 8.69531 35.8566 8.69531H34.3836C33.9169 8.69531 33.5386 9.07364 33.5386 9.54034C33.5386 10.007 33.9169 10.3854 34.3836 10.3854Z" fill="#99CAF7"/>
<path d="M11.4175 13.7451C12.574 11.7464 15.4656 11.7464 16.6221 13.7451L19.9532 19.5013L23.2843 25.2576C24.4409 27.2563 22.9952 29.7544 20.6821 29.7544H14.0197H7.35749C5.04432 29.7544 3.5986 27.2561 4.75524 25.2576L8.08636 19.5013L11.4175 13.7451Z" fill="#FF4C30"/>
<path d="M23.2847 25.2577L19.9535 19.5014L16.6224 13.7451C15.5689 11.9246 13.0767 11.7632 11.7666 13.2589C11.8948 13.4054 12.0123 13.5669 12.1154 13.7451L15.4465 19.5014L18.7776 25.2577C19.9342 27.2563 18.4885 29.7544 16.1753 29.7544H20.6823C22.9956 29.7545 24.4413 27.2563 23.2847 25.2577Z" fill="#FF2E0D"/>
<path d="M14.0198 16.085C13.5531 16.085 13.1748 16.4633 13.1748 16.93V22.8516C13.1748 23.3183 13.5531 23.6966 14.0198 23.6966C14.4865 23.6966 14.8649 23.3183 14.8649 22.8516V16.93C14.8649 16.4633 14.4865 16.085 14.0198 16.085Z" fill="white"/>
<path d="M14.0199 25.1382C12.9324 25.1382 12.9306 26.8284 14.0199 26.8284C15.1075 26.8284 15.1092 25.1382 14.0199 25.1382Z" fill="white"/>
<path d="M45.109 10.3404L42.7703 8.31989C42.4579 8.04962 41.9778 8.04962 41.6653 8.31989L39.3268 10.3404C38.9736 10.6455 38.9347 11.1792 39.2398 11.5323C39.545 11.8855 40.0786 11.9244 40.4318 11.6193L41.3729 10.8062V27.0459C41.3729 27.5126 41.7512 27.8909 42.2179 27.8909C42.6846 27.8909 43.0629 27.5126 43.0629 27.0459V10.8063L44.004 11.6194C44.1638 11.7574 44.3603 11.825 44.5561 11.825C44.7931 11.825 45.0288 11.7258 45.196 11.5324C45.5011 11.1792 45.4621 10.6455 45.109 10.3404Z" fill="#FF4C30"/>
<path d="M51.3589 18.9595L49.0203 16.939C48.7079 16.6688 48.2278 16.6688 47.9153 16.939L45.5768 18.9595C45.2236 19.2647 45.1847 19.7983 45.4898 20.1515C45.795 20.5045 46.3286 20.5437 46.6818 20.2384L47.6229 19.4253V35.665C47.6229 36.1317 48.0012 36.51 48.4679 36.51C48.9346 36.51 49.3129 36.1317 49.3129 35.665V19.4254L50.254 20.2385C50.4138 20.3766 50.6103 20.4442 50.8061 20.4442C51.0431 20.4442 51.2788 20.345 51.446 20.1516C51.751 19.7983 51.7121 19.2647 51.3589 18.9595Z" fill="#FF4C30"/>
<path d="M26.0106 45.5559C25.5439 45.5559 25.1655 45.1775 25.1655 44.7108C25.1655 43.1666 26.0978 41.7906 27.5406 41.2057C27.9729 41.0304 28.4658 41.2387 28.6412 41.6713C28.8167 42.1039 28.6082 42.5966 28.1756 42.7719C27.3738 43.0971 26.8557 43.8581 26.8557 44.7108C26.8557 45.1775 26.4773 45.5559 26.0106 45.5559Z" fill="white"/>
</g>
<defs>
<clipPath id="clip0_99_135930">
<rect width="56" height="56" fill="white" transform="translate(0 0.441406)"/>
</clipPath>
</defs>
</svg>
