<svg width="40" height="40" viewBox="0 0 40 40" fill="none" xmlns="http://www.w3.org/2000/svg">
<g id="fi_13140477">
<path id="Vector" d="M34.6297 23.0035C33.7662 22.5537 32.7966 22.3472 31.8248 22.4061C30.8529 22.465 29.9153 22.7871 29.1125 23.3379C28.3096 23.8887 27.6717 24.6476 27.267 25.5331C26.8623 26.4187 26.706 27.3976 26.815 28.3652C26.9239 29.3327 27.2939 30.2524 27.8854 31.0258C28.477 31.7992 29.2677 32.3971 30.1729 32.7556C31.0782 33.1141 32.0639 33.2197 33.0245 33.061C33.9851 32.9023 34.8845 32.4853 35.6264 31.8547C36.2906 31.2814 36.805 30.5548 37.125 29.7378C37.445 28.9208 37.561 28.0381 37.4628 27.1662C37.3646 26.2943 37.0553 25.4595 36.5616 24.7341C36.0679 24.0088 35.4048 23.4148 34.6297 23.0035ZM30.2475 27.9677C30.1518 28.0971 30.0095 28.1841 29.8508 28.2102C29.6921 28.2364 29.5294 28.1997 29.3972 28.1079C29.2651 28.016 29.174 27.8763 29.1433 27.7184C29.1125 27.5605 29.1445 27.3968 29.2324 27.2621C29.3097 27.1224 29.3557 26.9676 29.3675 26.8084C29.3792 26.6492 29.3563 26.4893 29.3004 26.3398C29.2499 26.1856 29.2619 26.0177 29.3338 25.8722C29.4057 25.7267 29.5318 25.6153 29.685 25.5618C29.8382 25.5083 30.0063 25.517 30.1531 25.5861C30.3 25.6552 30.4139 25.7791 30.4703 25.9313C30.5902 26.2654 30.6324 26.6224 30.5938 26.9752C30.5552 27.328 30.4368 27.6674 30.2475 27.9677ZM33.1504 30.1959C32.8297 30.3437 32.4802 30.4187 32.127 30.4154C31.7739 30.4122 31.4258 30.3308 31.1078 30.1772C30.968 30.0956 30.8656 29.9625 30.8227 29.8063C30.7798 29.6502 30.7998 29.4835 30.8783 29.3419C30.9568 29.2003 31.0876 29.0951 31.2427 29.0487C31.3979 29.0024 31.565 29.0187 31.7083 29.094C31.8542 29.1577 32.0123 29.189 32.1714 29.1857C32.3306 29.1825 32.4872 29.1448 32.6305 29.0753C32.7041 29.0412 32.7836 29.0218 32.8647 29.0185C32.9457 29.0151 33.0267 29.0277 33.1028 29.0556C33.179 29.0835 33.2489 29.1261 33.3086 29.181C33.3683 29.2359 33.4166 29.3021 33.4508 29.3756C33.4849 29.4492 33.5042 29.5288 33.5076 29.6099C33.511 29.6909 33.4984 29.7718 33.4705 29.848C33.4426 29.9242 33.4 29.9941 33.3451 30.0538C33.2901 30.1135 33.224 30.1618 33.1504 30.1959ZM35.1373 28.8528C34.206 29.0369 34.6319 28.2013 33.6642 27.8625C33.5097 27.8113 33.3816 27.7015 33.3075 27.5567C33.2333 27.4119 33.2191 27.2437 33.2679 27.0885C33.3166 26.9333 33.4245 26.8035 33.5681 26.7271C33.7117 26.6507 33.8797 26.6339 34.0356 26.6802C35.1344 27.0206 36.1644 28.3911 35.1373 28.8528Z" fill="#02C1E0"/>
<path id="Vector_2" d="M25.5441 27.7633C25.5516 26.7251 25.8024 25.7031 26.2764 24.7794C26.7504 23.8557 27.4344 23.056 28.2734 22.4445C29.1125 21.8329 30.0833 21.4267 31.1078 21.2583C32.1323 21.0899 33.182 21.1641 34.1726 21.4749C31.8885 14.6352 27.9767 12.766 25.6865 12.2646L25.8227 12.4503C26.9707 13.9064 27.7195 15.6365 27.9952 17.4701C28.0092 17.6318 27.9603 17.7927 27.8588 17.9193C27.7573 18.046 27.6109 18.1286 27.45 18.1501C27.2891 18.1716 27.1261 18.1303 26.9949 18.0348C26.8636 17.9393 26.7742 17.7969 26.7452 17.6372C26.4605 15.6194 25.334 13.8615 24.1084 12.246C22.3526 10.0195 21.3917 7.26987 21.3785 4.43441V2.74466C21.3783 2.72503 21.3704 2.70626 21.3565 2.69237C21.3426 2.67849 21.3239 2.67061 21.3042 2.67041H16.8848C16.8636 2.67078 16.8433 2.67937 16.8283 2.69437C16.8133 2.70938 16.8047 2.72962 16.8043 2.75085V4.43441C16.7952 7.27042 15.834 10.0212 14.0749 12.2458C12.905 13.7932 11.7847 15.5202 11.469 17.4452C11.4546 17.536 11.4203 17.6226 11.3686 17.6987C11.3168 17.7747 11.2488 17.8384 11.1696 17.8851C11.0903 17.9318 11.0017 17.9605 10.9101 17.9689C10.8185 17.9774 10.7261 17.9655 10.6397 17.9341C10.4996 17.8872 10.3804 17.7929 10.3024 17.6675C10.2244 17.5421 10.1926 17.3934 10.2125 17.2471C10.5501 15.4229 11.3348 13.7109 12.4965 12.2644C9.60591 12.8957 4.1281 15.7182 2.6116 27.9614C2.51585 28.8272 1.57866 39.0012 7.42079 37.0912L8.56585 36.6332C10.6208 35.878 14.2851 37.314 15.6346 34.9186C16.5074 33.5012 17.5471 30.8768 17.5846 26.4512C17.5909 26.383 18.1788 20.2367 16.7985 16.1637C16.1111 16.9482 15.6491 17.9043 15.4615 18.9304C15.4407 19.0199 15.4004 19.1037 15.3436 19.1759C15.2867 19.2481 15.2147 19.3069 15.1327 19.3483C15.0506 19.3896 14.9605 19.4124 14.8686 19.415C14.7768 19.4177 14.6855 19.4002 14.6012 19.3637C14.4561 19.3106 14.3353 19.2067 14.2613 19.0711C14.1873 18.9356 14.1651 18.7778 14.1989 18.6271C14.9787 14.7646 18.6926 12.2642 22.0412 15.0185C23.0458 15.9919 23.7192 17.2564 23.9662 18.6333C23.9965 18.7957 23.9626 18.9635 23.8716 19.1014C23.7806 19.2394 23.6397 19.3366 23.4785 19.3727C23.3173 19.4088 23.1483 19.3809 23.0072 19.295C22.8661 19.209 22.7639 19.0717 22.722 18.9118C22.5265 17.8921 22.0654 16.942 21.3851 16.1575C19.9986 20.2303 20.5928 26.3828 20.599 26.445C20.6424 30.8768 21.6822 33.5012 22.549 34.9187C22.827 35.3592 23.2114 35.7228 23.6668 35.9759C24.1221 36.229 24.6338 36.3636 25.1548 36.3671L28.5282 36.4104C29.306 36.5101 30.0614 36.7403 30.7627 37.0912C33.7027 38.0507 34.9283 35.9523 35.4111 33.5136C31.1647 36.0366 25.4504 32.7423 25.5441 27.7633ZM14.5141 31.1986C14.5946 31.2242 14.6691 31.2657 14.7332 31.3207C14.7974 31.3757 14.8497 31.443 14.8873 31.5187C14.9248 31.5943 14.9468 31.6768 14.9518 31.7611C14.9568 31.8454 14.9448 31.9299 14.9165 32.0095C14.8608 32.1693 14.7448 32.3009 14.5932 32.3762C14.4416 32.4514 14.2665 32.4642 14.1056 32.4118C13.4639 32.2192 12.8742 31.8835 12.3811 31.43C11.8879 30.9765 11.504 30.417 11.2583 29.7937C10.7879 30.4992 10.0699 31.4029 9.11054 31.632C8.96844 31.6293 8.83127 31.5794 8.72067 31.4901C8.61007 31.4009 8.53233 31.2773 8.49969 31.139C8.46706 31.0007 8.4814 30.8554 8.54044 30.7261C8.59948 30.5968 8.69987 30.4909 8.82579 30.425C10.9255 29.334 11.46 26.012 10.8127 24.1548C9.74191 24.3529 7.08647 25.3061 7.0246 29.9793C7.02294 30.1484 6.95419 30.3099 6.83346 30.4283C6.71273 30.5467 6.54992 30.6123 6.38085 30.6106C6.21177 30.6089 6.05028 30.5402 5.9319 30.4195C5.81352 30.2987 5.74794 30.1359 5.7496 29.9668C5.69573 28.3187 6.12841 26.6912 6.99366 25.2874C6.36866 24.8603 5.73741 25.5226 5.39054 26.0735C5.34524 26.1437 5.28651 26.2042 5.21771 26.2515C5.14892 26.2989 5.07144 26.3322 4.98973 26.3494C4.90802 26.3667 4.8237 26.3676 4.74164 26.3521C4.65958 26.3366 4.5814 26.305 4.5116 26.2592C4.44076 26.2138 4.37958 26.1548 4.33157 26.0857C4.28357 26.0166 4.24968 25.9387 4.23185 25.8565C4.21403 25.7742 4.21261 25.6893 4.22769 25.6065C4.24277 25.5237 4.27405 25.4448 4.31972 25.3741C5.18704 23.9226 6.66254 23.4432 7.84791 24.2909C8.52709 23.6669 9.3499 23.2203 10.2432 22.9909C9.87047 22.45 9.33818 22.0389 8.7206 21.8149C8.55868 21.768 8.42176 21.6592 8.3395 21.5121C8.25724 21.3649 8.23626 21.1913 8.2811 21.0288C8.52866 20.317 9.19097 20.5645 9.70472 20.8617C11.9392 22.2234 12.521 24.2536 12.2735 27.138C12.2053 27.7881 11.7907 30.2021 14.5141 31.1986Z" fill="#02C1E0"/>
</g>
</svg>
