<svg width="271" height="111" viewBox="0 0 271 111" fill="none" xmlns="http://www.w3.org/2000/svg">
<path d="M0 24.4414C0 11.1866 10.7452 0.441406 24 0.441406C37.2548 0.441406 48 11.1866 48 24.4414C48 37.6962 37.2548 48.4414 24 48.4414C10.7452 48.4414 0 37.6962 0 24.4414Z" fill="#EDEBFE"/>
<g clip-path="url(#clip0_99_137628)">
<path d="M39.8242 23.8959C39.5386 23.4965 32.7292 14.1289 24.0628 14.1289C15.3958 14.1289 8.46141 23.4965 8.17578 23.8959C7.94141 24.2222 7.94141 24.6615 8.17578 24.9872C8.46141 25.3865 15.3958 34.7541 24.0628 34.7541C32.7292 34.7541 39.5386 25.3865 39.8242 24.9871C40.0586 24.6615 40.0586 24.2221 39.8242 23.8959ZM24.0628 31.004C20.4447 31.004 17.3753 28.0597 17.3753 24.4415C17.3753 20.8233 20.4447 17.8789 24.0628 17.8789C27.681 17.8789 30.6254 20.8233 30.6254 24.4415C30.6254 28.0597 27.681 31.004 24.0628 31.004Z" fill="#6938EF"/>
<path d="M24.063 21.6289C22.5117 21.6289 21.1255 22.8908 21.1255 24.4414C21.1255 25.9927 22.5117 27.2539 24.063 27.2539C25.6136 27.2539 26.8755 25.9927 26.8755 24.4414C26.8755 22.8908 25.6136 21.6289 24.063 21.6289Z" fill="#6938EF"/>
</g>
<path d="M5.43164 79.4414L0.0878906 66.4863H2.45215L4.79883 72.6123L6.29297 76.4443H6.36328L7.83984 72.6123L10.1953 66.4863H12.5596L7.2334 79.4414H5.43164ZM13.9043 79.4414V70.0635H15.9785V79.4414H13.9043ZM14.9414 68.7539C14.5488 68.7539 14.2178 68.6191 13.9482 68.3496C13.6846 68.0801 13.5527 67.752 13.5527 67.3652C13.5527 66.9785 13.6846 66.6504 13.9482 66.3809C14.2178 66.1113 14.5488 65.9766 14.9414 65.9766C15.3281 65.9766 15.6562 66.1113 15.9258 66.3809C16.1953 66.6504 16.3301 66.9785 16.3301 67.3652C16.3301 67.752 16.1953 68.0801 15.9258 68.3496C15.6562 68.6191 15.3281 68.7539 14.9414 68.7539ZM21.1553 79.582C20.5928 79.582 20.0713 79.4795 19.5908 79.2744C19.1104 79.0693 18.6973 78.7969 18.3516 78.457C18.0117 78.1113 17.7656 77.7363 17.6133 77.332L19.3711 76.5762C19.5 76.9043 19.7256 77.1973 20.0479 77.4551C20.376 77.7129 20.7451 77.8418 21.1553 77.8418C21.4072 77.8418 21.6387 77.7949 21.8496 77.7012C22.0605 77.6016 22.2305 77.4697 22.3594 77.3057C22.4883 77.1416 22.5527 76.96 22.5527 76.7607C22.5527 76.5381 22.4766 76.3477 22.3242 76.1895C22.1777 76.0254 21.9902 75.8877 21.7617 75.7764C21.5391 75.665 21.3047 75.5713 21.0586 75.4951C20.8184 75.4189 20.6074 75.3516 20.4258 75.293C20.0273 75.1699 19.6318 75 19.2393 74.7832C18.8525 74.5664 18.5303 74.2822 18.2725 73.9307C18.0146 73.5732 17.8857 73.125 17.8857 72.5859C17.8857 72.041 18.0264 71.5693 18.3076 71.1709C18.5889 70.7666 18.9639 70.459 19.4326 70.248C19.9014 70.0312 20.4199 69.9229 20.9883 69.9229C21.7734 69.9229 22.4502 70.1133 23.0186 70.4941C23.5869 70.8691 23.9883 71.3203 24.2227 71.8477L22.5 72.5684C22.3828 72.3516 22.207 72.1406 21.9727 71.9355C21.7383 71.7305 21.4277 71.6279 21.041 71.6279C20.707 71.6279 20.4199 71.7158 20.1797 71.8916C19.9453 72.0615 19.8281 72.3018 19.8281 72.6123C19.8281 72.876 19.9131 73.0898 20.083 73.2539C20.2588 73.4121 20.4902 73.5469 20.7773 73.6582C21.0645 73.7637 21.375 73.8721 21.709 73.9834C21.9551 74.0596 22.2334 74.1621 22.5439 74.291C22.8604 74.4141 23.165 74.5781 23.458 74.7832C23.7568 74.9883 24 75.249 24.1875 75.5654C24.3809 75.876 24.4775 76.2568 24.4775 76.708C24.4775 77.2705 24.3252 77.7686 24.0205 78.2021C23.7158 78.6357 23.3115 78.9756 22.8076 79.2217C22.3037 79.4619 21.7529 79.582 21.1553 79.582ZM26.209 79.4414V70.0635H28.2832V79.4414H26.209ZM27.2461 68.7539C26.8535 68.7539 26.5225 68.6191 26.2529 68.3496C25.9893 68.0801 25.8574 67.752 25.8574 67.3652C25.8574 66.9785 25.9893 66.6504 26.2529 66.3809C26.5225 66.1113 26.8535 65.9766 27.2461 65.9766C27.6328 65.9766 27.9609 66.1113 28.2305 66.3809C28.5 66.6504 28.6348 66.9785 28.6348 67.3652C28.6348 67.752 28.5 68.0801 28.2305 68.3496C27.9609 68.6191 27.6328 68.7539 27.2461 68.7539ZM34.6992 79.582C33.8086 79.582 33.0088 79.377 32.2998 78.9668C31.5908 78.5508 31.0283 77.9795 30.6123 77.2529C30.1963 76.5205 29.9883 75.6768 29.9883 74.7217C29.9883 73.7725 30.1963 72.9375 30.6123 72.2168C31.0283 71.4961 31.5908 70.9336 32.2998 70.5293C33.0088 70.125 33.8086 69.9229 34.6992 69.9229C35.6016 69.9229 36.4072 70.125 37.1162 70.5293C37.8252 70.9336 38.3848 71.4961 38.7949 72.2168C39.2051 72.9375 39.4102 73.7725 39.4102 74.7217C39.4102 75.6768 39.2021 76.5205 38.7861 77.2529C38.376 77.9795 37.8135 78.5508 37.0986 78.9668C36.3896 79.377 35.5898 79.582 34.6992 79.582ZM34.6992 77.7451C35.2148 77.7451 35.6748 77.6191 36.0791 77.3672C36.4834 77.1152 36.7998 76.7637 37.0283 76.3125C37.2627 75.8555 37.3799 75.3252 37.3799 74.7217C37.3799 74.1299 37.2656 73.6113 37.0371 73.166C36.8086 72.7207 36.4922 72.375 36.0879 72.1289C35.6895 71.8828 35.2295 71.7598 34.708 71.7598C34.1924 71.7598 33.7324 71.8828 33.3281 72.1289C32.9238 72.375 32.6045 72.7207 32.3701 73.166C32.1416 73.6113 32.0273 74.1299 32.0273 74.7217C32.0273 75.3252 32.1416 75.8555 32.3701 76.3125C32.6045 76.7637 32.9209 77.1152 33.3193 77.3672C33.7236 77.6191 34.1836 77.7451 34.6992 77.7451ZM41.0801 79.4414V70.0635H43.1104V71.25H43.4971L42.7764 72.0498C42.917 71.5811 43.1455 71.1914 43.4619 70.8809C43.7842 70.5645 44.1621 70.3271 44.5957 70.1689C45.0352 70.0049 45.5068 69.9229 46.0107 69.9229C46.7256 69.9229 47.3174 70.084 47.7861 70.4062C48.2607 70.7285 48.6152 71.1504 48.8496 71.6719C49.084 72.1934 49.2012 72.7588 49.2012 73.3682V79.4414H47.127V73.8164C47.127 73.125 46.957 72.6035 46.6172 72.252C46.2773 71.9004 45.8145 71.7246 45.2285 71.7246C44.8418 71.7246 44.4902 71.8066 44.1738 71.9707C43.8574 72.1289 43.6084 72.3633 43.4268 72.6738C43.2451 72.9844 43.1543 73.3682 43.1543 73.8252V79.4414H41.0801Z" fill="black"/>
<g opacity="0.05" clip-path="url(#clip1_99_137628)">
<path d="M270.396 53.5658C269.414 52.1929 246.006 19.9917 216.216 19.9917C186.423 19.9917 162.586 52.1929 161.604 53.5658C160.799 54.6872 160.799 56.1976 161.604 57.3169C162.586 58.6898 186.423 90.8908 216.216 90.8908C246.006 90.8908 269.414 58.6898 270.396 57.3167C271.201 56.1976 271.201 54.687 270.396 53.5658ZM216.216 77.9999C203.779 77.9999 193.228 67.8787 193.228 55.4411C193.228 43.0036 203.779 32.8823 216.216 32.8823C228.654 32.8823 238.775 43.0036 238.775 55.4411C238.775 67.8787 228.654 77.9999 216.216 77.9999Z" fill="black"/>
<path d="M216.216 45.7734C210.884 45.7734 206.119 50.1111 206.119 55.4414C206.119 60.7738 210.884 65.1094 216.216 65.1094C221.547 65.1094 225.884 60.7738 225.884 55.4414C225.884 50.1111 221.547 45.7734 216.216 45.7734Z" fill="black"/>
</g>
<defs>
<clipPath id="clip0_99_137628">
<rect width="32" height="32" fill="white" transform="translate(8 8.44141)"/>
</clipPath>
<clipPath id="clip1_99_137628">
<rect width="110" height="110" fill="white" transform="translate(161 0.441406)"/>
</clipPath>
</defs>
</svg>
