<svg width="56" height="56" viewBox="0 0 56 56" fill="none" xmlns="http://www.w3.org/2000/svg">
<g clip-path="url(#clip0_5163_259583)">
<path fill-rule="evenodd" clip-rule="evenodd" d="M83.6945 -26.7864C86.1474 -13.7765 73.7051 -3.96995 67.8894 7.87965C62.1103 19.6548 61.998 35.6213 50.2477 41.3625C37.8917 47.3996 23.6605 40.9827 10.9187 35.7155C-3.1147 29.9145 -18.3759 24.1005 -24.8633 10.3134C-31.8912 -4.62247 -30.6492 -22.4817 -23.4225 -37.2672C-16.2063 -52.0308 -2.82811 -63.4966 13.0959 -67.3478C27.9052 -70.9294 42.5103 -64.0355 55.7668 -56.4192C67.9815 -49.4014 81.0779 -40.6652 83.6945 -26.7864Z" fill="#FFF9E4"/>
<g clip-path="url(#clip1_5163_259583)">
<path d="M12.1104 43.4268L43.6728 43.9492C45.9009 40.8203 47.2113 36.9928 47.2113 32.859C47.2113 22.2879 38.6417 13.7183 28.0705 13.7183C17.4994 13.7183 8.92969 22.2879 8.92969 32.8591C8.92969 36.7658 10.1011 40.3983 12.1104 43.4268Z" fill="#FFDD40"/>
<path d="M21.2251 16.4629C21.2251 17.8689 20.0852 19.0087 18.6792 19.0087H43.6729V16.4629H21.2251Z" fill="#BECAF5"/>
<path d="M12.1104 16.4629V19.0087H18.8384C20.2444 19.0087 21.3843 17.8689 21.3843 16.4629H12.1104Z" fill="#3C58A0"/>
<path d="M19.5606 18.8491L19.623 18.8825C19.4856 19.1712 18.9806 20.324 18.9448 21.7308C18.9068 23.2241 19.4016 25.3158 21.9666 26.8206V35.0115C21.8233 35.1494 21.1539 35.8397 21.1321 36.7158C21.1198 37.2134 21.3205 37.6775 21.729 38.0952V46.4637C21.6293 46.5965 21.1364 47.2944 20.9792 48.3013C20.827 49.2763 21.0574 50.1209 21.4492 50.823C23.5125 51.584 25.7428 52.0001 28.0705 52.0001C31.7666 52.0001 35.2179 50.952 38.1439 49.1374L40.8718 47.0893C41.9159 46.1494 42.856 45.0964 43.6728 43.9494V18.8491H19.5606Z" fill="#DEEEFF"/>
<path d="M12.1104 18.8491V43.4269C14.362 46.8207 17.6666 49.455 21.5582 50.8633C20.1946 48.5264 21.8071 46.4901 21.8071 46.4901V39.2589V38.0631C20.3361 36.5922 22.0446 35.0453 22.0446 35.0453V26.7758C17.0778 23.8967 19.7264 18.8491 19.7264 18.8491H12.1104Z" fill="#D3DCFB"/>
<path d="M40.8922 12H20.7742C20.7742 12 20.0265 12.7807 20.7742 13.5284L20.8763 15.0137C20.8763 15.0137 20.2402 15.9758 21.2247 16.6109H43.6725V14.7804C43.6725 13.2512 42.4213 12 40.8922 12Z" fill="#2A428C"/>
<path d="M14.8907 12C13.3615 12 12.1104 13.2512 12.1104 14.7804V16.6109H21.3843C20.3999 15.9758 21.0359 15.0137 21.0359 15.0137L20.9339 13.5284C20.1861 12.7806 20.9339 12 20.9339 12H14.8907Z" fill="#1C2E7A"/>
<path d="M16.4282 14.3054C16.4282 14.8004 16.027 15.2017 15.532 15.2017C15.037 15.2017 14.6357 14.8004 14.6357 14.3054C14.6357 13.8104 15.037 13.4092 15.532 13.4092C16.027 13.4091 16.4282 13.8104 16.4282 14.3054Z" fill="#FF4155"/>
<path d="M18.1238 15.1984C18.6153 15.1381 18.9648 14.6906 18.9044 14.1991C18.844 13.7076 18.3966 13.3581 17.9051 13.4185C17.4136 13.4789 17.0641 13.9263 17.1245 14.4178C17.1849 14.9093 17.6323 15.2588 18.1238 15.1984Z" fill="#FFDD40"/>
<path d="M20.8335 15.1299C21.2909 14.9403 21.508 14.4159 21.3184 13.9585C21.1288 13.5011 20.6043 13.2841 20.147 13.4736C19.6896 13.6632 19.4725 14.1877 19.6621 14.645C19.8517 15.1024 20.3761 15.3195 20.8335 15.1299Z" fill="#88CE65"/>
<path d="M29.0636 14.3054C29.0636 13.9752 29.3312 13.7075 29.6615 13.7075H24.3279C23.9977 13.7075 23.73 13.9752 23.73 14.3054C23.73 14.6356 23.9976 14.9033 24.3279 14.9033H29.6615C29.3312 14.9033 29.0636 14.6356 29.0636 14.3054Z" fill="#3C58A0"/>
<path d="M33.9983 14.3054C33.9983 13.9752 33.7306 13.7075 33.4004 13.7075H29.5017C29.1715 13.7075 28.9038 13.9752 28.9038 14.3054C28.9038 14.6356 29.1715 14.9033 29.5017 14.9033H33.4004C33.7306 14.9033 33.9983 14.6356 33.9983 14.3054Z" fill="#6289CC"/>
<path d="M40.6262 14.9033H39.8469C39.5167 14.9033 39.249 14.6356 39.249 14.3054C39.249 13.9752 39.5167 13.7075 39.8469 13.7075H40.6262C40.9564 13.7075 41.2241 13.9752 41.2241 14.3054C41.2241 14.6356 40.9564 14.9033 40.6262 14.9033Z" fill="#6289CC"/>
<path d="M37.9168 14.9033H37.1374C36.8072 14.9033 36.5396 14.6356 36.5396 14.3054C36.5396 13.9752 36.8072 13.7075 37.1374 13.7075H37.9168C38.2471 13.7075 38.5147 13.9752 38.5147 14.3054C38.5147 14.6356 38.2471 14.9033 37.9168 14.9033Z" fill="#3C58A0"/>
<path d="M21.8073 39.2588H17.6936C17.3634 39.2588 17.0957 38.9911 17.0957 38.6609C17.0957 38.3306 17.3634 38.063 17.6936 38.063H21.8073C22.1375 38.063 22.4052 38.3306 22.4052 38.6609C22.4052 38.9911 22.1375 39.2588 21.8073 39.2588Z" fill="#49B1F7"/>
<path d="M31.0091 41.6694H17.6936C17.3634 41.6694 17.0957 41.4018 17.0957 41.0715C17.0957 40.7413 17.3634 40.4736 17.6936 40.4736H31.0091C31.3393 40.4736 31.607 40.7413 31.607 41.0715C31.607 41.4018 31.3392 41.6694 31.0091 41.6694Z" fill="#BECAF5"/>
<path d="M31.0091 44.0798H17.6936C17.3634 44.0798 17.0957 43.8122 17.0957 43.4819C17.0957 43.1517 17.3634 42.884 17.6936 42.884H31.0091C31.3393 42.884 31.607 43.1517 31.607 43.4819C31.607 43.8122 31.3392 44.0798 31.0091 44.0798Z" fill="#BECAF5"/>
<path d="M31.0091 46.4902H17.6936C17.3634 46.4902 17.0957 46.2226 17.0957 45.8923C17.0957 45.5621 17.3634 45.2944 17.6936 45.2944H31.0091C31.3393 45.2944 31.607 45.5621 31.607 45.8923C31.607 46.2226 31.3392 46.4902 31.0091 46.4902Z" fill="#BECAF5"/>
<path d="M25.97 23.7766C25.1355 23.7766 24.459 24.4531 24.459 25.2876V30.3894C24.4591 31.2239 25.1355 31.9004 25.97 31.9004C26.8045 31.9004 27.481 31.2239 27.481 30.3893V25.2876C27.481 24.4532 26.8045 23.7766 25.97 23.7766Z" fill="#9BD8F9"/>
<path d="M22.0447 26.7756C21.2102 26.7756 20.5337 27.4521 20.5337 28.2867V30.3892C20.5337 31.2238 21.2102 31.9002 22.0447 31.9002C22.8792 31.9002 23.5557 31.2238 23.5557 30.3892V28.2867C23.5557 27.4521 22.8792 26.7756 22.0447 26.7756Z" fill="#73C3F9"/>
<path d="M25.97 31.7432C25.1355 31.7432 24.459 31.0667 24.459 30.2322V34.4953H27.481V30.2322C27.481 31.0667 26.8045 31.7432 25.97 31.7432Z" fill="#73C3F9"/>
<path d="M22.0447 31.7432C21.2102 31.7432 20.5337 31.0667 20.5337 30.2322V34.4953H23.5557V30.2322C23.5557 31.0667 22.8792 31.7432 22.0447 31.7432Z" fill="#49B1F7"/>
<path d="M19.6304 34.4953V32.3028C19.6304 31.4682 18.9539 30.7917 18.1194 30.7917C17.285 30.7917 16.6084 31.4682 16.6084 32.3028V34.4953H19.6304Z" fill="#1FA2EA"/>
<path d="M27.9413 35.0453H16.0053C15.6971 35.0453 15.4473 34.7954 15.4473 34.4872C15.4473 34.179 15.6971 33.9292 16.0053 33.9292H27.9413C28.2495 33.9292 28.4994 34.179 28.4994 34.4872C28.4994 34.7955 28.2495 35.0453 27.9413 35.0453Z" fill="#9BD8F9"/>
<path d="M39.1098 42.6321C38.4124 42.6321 37.8418 42.0615 37.8418 41.3641V37.1538C37.8418 36.4564 38.4124 35.8857 39.1098 35.8857C39.8073 35.8857 40.3779 36.4564 40.3779 37.1538V41.3641C40.3779 42.0615 39.8073 42.6321 39.1098 42.6321Z" fill="#BECAF5"/>
<path d="M35.7736 24.7529C35.9981 25.3432 36.4493 25.7884 37.1156 26.0778C37.0084 26.3288 36.8038 26.9395 37.0494 27.5066C37.2354 27.9359 37.6361 28.2422 38.241 28.4174L38.9852 31.1509C38.9139 31.3109 38.6938 31.8883 38.9232 32.4729C39.0881 32.893 39.4452 33.2173 39.9856 33.438C39.849 33.8041 39.4866 34.9738 39.9813 35.9961C40.2943 36.643 40.8902 37.1011 41.7534 37.3595C44.9734 36.2603 47.2891 33.2091 47.2891 29.617C47.2891 25.0996 43.627 21.4375 39.1095 21.4375C38.0107 21.4375 36.9627 21.6547 36.0056 22.0477C35.8359 22.4297 35.3608 23.6675 35.7736 24.7529Z" fill="#2A428C"/>
<path d="M40.1383 33.3716C38.3205 32.7069 39.1096 31.1619 39.1096 31.1619L38.3367 28.3226C36.3279 27.7843 37.2738 26.0165 37.2738 26.0165C34.6454 24.9823 36.1647 21.9845 36.1647 21.9844C33.1025 23.1666 30.9302 26.138 30.9302 29.6171C30.9302 34.1345 34.5923 37.7966 39.1097 37.7966C40.1064 37.7966 41.0614 37.6181 41.9447 37.2917C38.7789 36.4652 40.1383 33.3716 40.1383 33.3716Z" fill="#1C2E7A"/>
<path d="M37.1157 26.078C37.0086 26.3289 36.8039 26.9397 37.0495 27.5068C37.2355 27.9361 37.6362 28.2424 38.2412 28.4176L38.9853 31.1511C38.914 31.3111 38.694 31.8885 38.9233 32.4731C39.079 32.8696 39.4058 33.1805 39.8962 33.3997C41.9319 33.1917 43.7313 32.1857 44.9758 30.6988C45.4986 30.0743 45.4986 29.1601 44.9758 28.5356C43.5733 26.8598 41.466 25.7939 39.1098 25.7939C38.4096 25.7939 37.7317 25.8887 37.0875 26.065C37.0969 26.0693 37.1061 26.0739 37.1157 26.078Z" fill="#DEEEFF"/>
<path d="M39.1096 33.4404C39.4583 33.4404 39.8013 33.4164 40.1376 33.3713C38.3207 32.7064 39.1096 31.1618 39.1096 31.1618L38.3367 28.3225C36.328 27.7843 37.2737 26.0166 37.2737 26.0166C35.6724 26.4112 34.2694 27.3099 33.2436 28.5355C32.7209 29.16 32.7209 30.0742 33.2436 30.6987C34.6462 32.3745 36.7534 33.4404 39.1096 33.4404Z" fill="#BECAF5"/>
<path d="M37.0495 27.5066C37.2355 27.9359 37.6362 28.2422 38.2411 28.4174L38.9852 31.1509C38.914 31.3109 38.6939 31.8883 38.9233 32.4729C39.0711 32.8493 39.3735 33.1484 39.8233 33.3654C41.421 33.006 42.6221 31.4644 42.6221 29.617C42.6221 27.503 41.0495 25.7893 39.1096 25.7893C38.3013 25.7893 37.5573 26.0877 36.9637 26.5877C36.9156 26.8612 36.9125 27.1906 37.0495 27.5066Z" fill="#49B1F7"/>
<path d="M39.1097 33.4448C39.4194 33.4448 39.7195 33.4008 40.0055 33.3187C38.3614 32.6287 39.1097 31.1618 39.1097 31.1618L38.3368 28.3225C36.979 27.9586 36.9713 27.0336 37.1087 26.4719C36.1955 27.1631 35.5972 28.3137 35.5972 29.6172C35.5972 31.7311 37.1698 33.4448 39.1097 33.4448Z" fill="#1FA2EA"/>
<path d="M39.1099 31.1619C39.8927 31.1619 40.5274 30.4703 40.5274 29.6172C40.5274 28.7641 39.8927 28.0725 39.1099 28.0725C38.327 28.0725 37.6924 28.7641 37.6924 29.6172C37.6924 30.4703 38.327 31.1619 39.1099 31.1619Z" fill="#218EE8"/>
<path d="M41.9446 27.6353C41.9446 28.133 41.5744 28.5365 41.1176 28.5365C40.6608 28.5365 40.2905 28.133 40.2905 27.6353C40.2905 27.1376 40.6608 26.7341 41.1176 26.7341C41.5744 26.7341 41.9446 27.1376 41.9446 27.6353Z" fill="#73C3F9"/>
<path d="M39.1098 40.0532C38.1406 40.0532 37.3477 40.8462 37.3477 41.8153V47.6661C37.3477 48.2793 37.6653 48.8217 38.1439 49.1375C39.1144 48.5356 40.0273 47.8496 40.8719 47.0893V41.8153C40.8719 40.8461 40.079 40.0532 39.1098 40.0532Z" fill="#FF4155"/>
<path d="M39.1097 38.5779C34.1687 38.5779 30.1489 34.5582 30.1489 29.6172C30.1489 27.891 30.641 26.2148 31.572 24.7699C32.4781 23.3636 33.7538 22.2408 35.261 21.5229C35.6505 21.3374 36.1167 21.5026 36.3023 21.8923C36.4878 22.2818 36.3224 22.748 35.9329 22.9336C33.3685 24.1549 31.7115 26.7783 31.7115 29.6172C31.7115 33.6966 35.0303 37.0154 39.1098 37.0154C39.8176 37.0154 40.5174 36.9158 41.1896 36.7193C41.6039 36.5983 42.0375 36.8358 42.1587 37.25C42.2797 37.6641 42.0421 38.0979 41.628 38.219C40.8131 38.4572 39.9659 38.5779 39.1097 38.5779Z" fill="#A8B7EF"/>
<path d="M41.4083 38.2505C41.0702 38.2505 40.7586 38.0291 40.6588 37.6882C40.5378 37.2741 40.7754 36.8402 41.1895 36.7191C42.6933 36.2796 44.047 35.3466 45.0015 34.0922C45.9869 32.7969 46.5079 31.2494 46.5079 29.617C46.5079 25.5377 43.189 22.2188 39.1097 22.2188C37.9973 22.2188 36.9284 22.4593 35.9328 22.9334C35.5434 23.1189 35.0771 22.9537 34.8915 22.564C34.706 22.1745 34.8714 21.7083 35.261 21.5227C36.4682 20.9478 37.763 20.6562 39.1097 20.6562C44.0507 20.6562 48.0704 24.676 48.0704 29.617C48.0704 31.594 47.4393 33.4687 46.245 35.0382C45.0898 36.5567 43.4501 37.6862 41.6279 38.2189C41.5547 38.2402 41.4808 38.2505 41.4083 38.2505Z" fill="#BECAF5"/>
<path d="M40.4639 42.3295C40.5923 41.7865 40.2561 41.2423 39.7131 41.1139C39.1701 40.9856 38.6259 41.3217 38.4975 41.8647C38.3692 42.4077 38.7053 42.952 39.2483 43.0803C39.7913 43.2087 40.3356 42.8725 40.4639 42.3295Z" fill="#FF7186"/>
</g>
</g>
<defs>
<clipPath id="clip0_5163_259583">
<rect width="56" height="56" fill="white"/>
</clipPath>
<clipPath id="clip1_5163_259583">
<rect width="40" height="40" fill="white" transform="translate(8.5 12)"/>
</clipPath>
</defs>
</svg>
