<svg width="40" height="40" viewBox="0 0 40 40" fill="none" xmlns="http://www.w3.org/2000/svg">
<g clip-path="url(#clip0_5954_149185)">
<path d="M7.10938 21.0938L4.32617 23.4375L0 21.0938L4.76562 14.0625L7.10938 16.4062V21.0938Z" fill="#47568C"/>
<path d="M32.8906 21.0938L35.6738 23.4375L40 21.0938L35.2344 14.0625L32.8906 16.4062V21.0938Z" fill="#2C3B73"/>
<path d="M30.5469 0V12.8906H9.45312V2.34375H19.3671L20 1.40625L20.9375 0H30.5469Z" fill="#FFDA2D"/>
<path d="M30.5469 0V12.8906H20V1.40625L20.9375 0H30.5469Z" fill="#FDBF00"/>
<path d="M32.8906 4.6875V17.5781H7.10938V7.03125H21.7108L23.2812 4.6875H32.8906Z" fill="#FDBF00"/>
<path d="M32.8906 4.6875V17.5781H20V7.03125H21.7108L23.2812 4.6875H32.8906Z" fill="#FF9100"/>
<path d="M35.2344 9.375V26.9531H4.76562V11.7188H24.0546L25.625 9.375H35.2344Z" fill="#FFDA2D"/>
<path d="M35.2344 9.375V26.9531H20V11.7188H24.0546L25.625 9.375H35.2344Z" fill="#FDBF00"/>
<path d="M40 21.0938V40H0V21.0938H15.383L16.1563 23.4375H23.8437L24.617 21.0938H40Z" fill="#61729B"/>
<path d="M40 21.0938V40H20V23.4375H23.8437L24.617 21.0938H40Z" fill="#47568C"/>
<path d="M14.1406 28.125H25.8594V30.4688H14.1406V28.125Z" fill="#FFDA2D"/>
<path d="M20 28.125H25.8594V30.4688H20V28.125Z" fill="#FDBF00"/>
</g>
<defs>
<clipPath id="clip0_5954_149185">
<rect width="40" height="40" fill="white"/>
</clipPath>
</defs>
</svg>
