<svg width="57" height="56" viewBox="0 0 57 56" fill="none" xmlns="http://www.w3.org/2000/svg">
<g clip-path="url(#clip0_5163_259709)">
<path fill-rule="evenodd" clip-rule="evenodd" d="M27.4037 32.7679C16.1978 30.9128 4.71199 32.016 -4.54655 25.4539C-17.0769 16.5728 -32.9831 5.97212 -31.9674 -9.31236C-30.9496 -24.6276 -13.318 -32.252 -0.179725 -40.2563C10.4116 -46.7089 22.0028 -50.8886 34.3656 -49.7248C46.5996 -48.5732 58.977 -43.9687 66.1375 -34.0134C72.9155 -24.59 69.7349 -12.3306 69.5984 -0.740747C69.4432 12.4267 75.6319 28.8118 65.3005 37.0164C54.9696 45.2206 40.4403 34.9259 27.4037 32.7679Z" fill="#F8EBE2"/>
<g clip-path="url(#clip1_5163_259709)">
<path d="M46.7914 37.3532H14.7231C13.7795 37.3532 13.0146 36.5882 13.0146 35.6447V16.0273C13.0146 15.0837 13.7796 14.3188 14.7231 14.3188H46.7914C47.735 14.3188 48.4999 15.0838 48.4999 16.0273V35.6447C48.5 36.5883 47.735 37.3532 46.7914 37.3532Z" fill="#D64C52"/>
<path d="M13.1362 18.6846H48.4999V23.5064H13.1362V18.6846Z" fill="#6E6075"/>
<path d="M42.2768 41.6811H10.2085C9.26497 41.6811 8.5 40.9162 8.5 39.9726V20.3552C8.5 19.4116 9.26497 18.6467 10.2085 18.6467H42.2768C43.2204 18.6467 43.9853 19.4117 43.9853 20.3552V39.9726C43.9853 40.9162 43.2204 41.6811 42.2768 41.6811Z" fill="#FCF5F0"/>
<path d="M10.8433 21.4231H23.8385V36.9242H10.8433V21.4231Z" fill="#E5DCDF"/>
<path d="M21.9817 32.7317C21.7203 31.66 20.7603 30.8919 19.6573 30.8919H18.3315V30.4584C19.2644 30.0578 19.9174 29.141 19.9174 28.0804V26.6956C19.9174 25.2693 18.7588 24.0818 17.3326 24.0818H17.3561C15.9298 24.0818 14.7865 25.2693 14.7865 26.6956V28.0804C14.7865 29.141 15.4395 30.0577 16.2791 30.4584V30.8919H15.0247C13.9216 30.8919 12.9616 31.66 12.7002 32.7317L11.6733 36.9557H23.0084L21.9817 32.7317Z" fill="#6E6075"/>
<path d="M25.8877 21.3765H41.5603V21.563H25.8877V21.3765Z" fill="#3A2F32"/>
<path d="M25.8877 22.5891H41.5603V22.7757H25.8877V22.5891Z" fill="#3A2F32"/>
<path d="M25.8877 24.0818H33.1643V24.2684H25.8877V24.0818Z" fill="#3A2F32"/>
<path d="M25.8877 25.2947H33.1643V25.4813H25.8877V25.2947Z" fill="#3A2F32"/>
<path d="M25.8877 26.6938H33.1643V26.8804H25.8877V26.6938Z" fill="#3A2F32"/>
<path d="M10.8682 39.1013H41.5603V39.4745H10.8682V39.1013Z" fill="#3A2F32"/>
<path d="M33.7163 31.8033L37.2972 24.9917L40.8781 31.8033C42.2943 34.4972 40.3407 37.7314 37.2972 37.7314C34.2536 37.7314 32.3001 34.4972 33.7163 31.8033Z" fill="#D64C52"/>
<path d="M39.5081 32.3847H38.2021V31.0786H36.3363V32.3847H35.1235V34.1572H36.3363V35.4632H38.2021V34.1572H39.5081V32.3847Z" fill="#FCF5F0"/>
</g>
</g>
<defs>
<clipPath id="clip0_5163_259709">
<rect width="56" height="56" fill="white" transform="translate(0.5)"/>
</clipPath>
<clipPath id="clip1_5163_259709">
<rect width="40" height="40" fill="white" transform="translate(8.5 8)"/>
</clipPath>
</defs>
</svg>
