<svg width="24" height="24" viewBox="0 0 24 24" fill="none" xmlns="http://www.w3.org/2000/svg">
<path fill-rule="evenodd" clip-rule="evenodd" d="M10.1551 4.13852C9.94071 3.33832 9.1182 2.86345 8.318 3.07786C7.5178 3.29227 7.04293 4.11478 7.25734 4.91498C7.31456 5.12853 7.41458 5.31851 7.54609 5.47856C7.9585 5.28642 8.39029 5.12904 8.83564 5.00971C9.281 4.89038 9.73362 4.81078 10.1869 4.77097C10.2207 4.56661 10.2123 4.35207 10.1551 4.13852ZM12.1913 4.8575C12.2297 4.45337 12.1981 4.03563 12.087 3.62088C11.5867 1.75375 9.6675 0.645711 7.80036 1.14601C5.93323 1.6463 4.82519 3.56548 5.32549 5.43261C5.43662 5.84737 5.61812 6.22494 5.85348 6.5557C5.35866 6.97276 4.92244 7.45233 4.56238 7.98443C3.58 9.43617 3.24032 11.1736 3.67884 12.8102C4.22434 14.846 4.10803 16.4221 3.78453 17.5811L3.77918 17.6002C3.57115 18.3455 3.40868 18.9276 3.30605 19.3417C3.25476 19.5487 3.21189 19.7393 3.18651 19.8994C3.17392 19.9788 3.1619 20.0734 3.15898 20.1711C3.15681 20.244 3.15384 20.4322 3.23136 20.6387C3.27392 20.752 3.36196 20.9762 3.55977 21.176C3.75758 21.3759 3.9808 21.4663 4.09369 21.51C4.27765 21.5813 4.44449 21.5883 4.52684 21.589C4.62403 21.5898 4.7159 21.581 4.79141 21.5712C4.94237 21.5517 5.11474 21.5162 5.29325 21.4749C5.64919 21.3927 6.14231 21.2605 6.76369 21.094L8.01002 20.7601C8.88545 22.3116 10.7281 23.1376 12.5285 22.6552C14.3288 22.1728 15.5116 20.5361 15.494 18.7548L18.6725 17.9031C19.2937 17.7366 19.7867 17.6045 20.1361 17.4978C20.3113 17.4443 20.4783 17.3889 20.6188 17.3303C20.6891 17.301 20.773 17.2627 20.8568 17.2134C20.9278 17.1716 21.0688 17.0821 21.1924 16.9284C21.2683 16.8341 21.4165 16.6442 21.4878 16.3722C21.5592 16.1002 21.5234 15.8621 21.5036 15.7427C21.4675 15.5251 21.3708 15.3636 21.3325 15.3016C21.2811 15.2184 21.2234 15.1425 21.1728 15.08C21.0707 14.954 20.9383 14.8104 20.7904 14.6568C20.4945 14.3495 20.0628 13.9267 19.5101 13.3854L19.4957 13.3713C18.6361 12.5293 17.7473 11.2226 17.2018 9.18672C16.7633 7.55016 15.6004 6.21532 14.0238 5.44926C13.4459 5.16848 12.8283 4.97127 12.1913 4.8575ZM10.8671 6.741C10.8803 6.74131 10.8935 6.74136 10.9066 6.74115C11.7048 6.74688 12.4754 6.92053 13.1497 7.24816C14.2516 7.78356 14.9946 8.67664 15.2699 9.70436C15.9056 12.0766 16.9738 13.7008 18.0963 14.8001C18.4824 15.1783 18.7954 15.4849 19.042 15.7315C18.792 15.8004 18.4913 15.8811 18.1328 15.9771L6.26775 19.1564C5.90926 19.2524 5.60854 19.333 5.35759 19.3982C5.44786 19.0613 5.56559 18.6393 5.71089 18.1188C6.13329 16.6055 6.24634 14.6648 5.61069 12.2925C5.33532 11.2648 5.53219 10.1199 6.21878 9.10529C6.63891 8.48442 7.21948 7.94871 7.90782 7.54468C7.91932 7.53829 7.93069 7.53166 7.94195 7.52481C8.37485 7.27474 8.84959 7.07653 9.35328 6.94156C9.85697 6.8066 10.3672 6.74089 10.8671 6.741ZM10.0786 20.2058C10.5673 20.6937 11.2958 20.9149 12.0108 20.7233C12.7259 20.5317 13.2461 19.976 13.4254 19.309L10.0786 20.2058Z" fill="#F7FBFF"/>
</svg>
