<svg width="81" height="80" viewBox="0 0 81 80" fill="none" xmlns="http://www.w3.org/2000/svg">
<path fill-rule="evenodd" clip-rule="evenodd" d="M65.0916 24.7376C69.7014 31.8464 76.9097 38.8219 75.008 47.0864C73.0415 55.632 64.2513 60.7223 56.0746 63.9233C48.6644 66.8241 40.7637 65.6839 33.1253 63.4822C25.0758 61.1621 16.3586 58.5908 12.2626 51.2953C8.04501 43.7829 8.68668 34.2474 12.3184 26.4215C15.6226 19.3012 23.0207 15.6304 30.2456 12.5439C36.8863 9.70693 44.1075 7.55041 50.9154 9.9327C57.6258 12.2809 61.2278 18.7791 65.0916 24.7376Z" fill="#FFF2E8"/>
<path d="M56.5028 44.8096C56.1288 40.359 52.3647 36.8623 47.7762 36.8623C45.5095 36.8623 43.4436 37.7157 41.8885 39.1161C40.3096 36.0779 37.1132 34 33.4266 34C28.1733 34 23.9147 38.2196 23.9147 43.4248C23.9147 43.8914 23.949 44.3502 24.0151 44.7987C19.6042 45.4625 16.2241 49.2364 16.2241 53.7923C16.2241 58.8164 20.3348 62.8894 25.4053 62.8894H55.0427C60.1132 62.8894 64.2239 58.8164 64.2239 53.7923C64.2239 49.2603 60.8796 45.5025 56.5028 44.8096Z" fill="#FFA91A"/>
<path d="M60.2271 46.2852C61.2416 47.7482 61.8371 49.5187 61.8371 51.428C61.8371 56.4521 57.7264 60.5251 52.6559 60.5251H23.0188C21.0933 60.5251 19.3072 59.9367 17.8311 58.9329C19.4857 61.322 22.2603 62.8898 25.4054 62.8898H55.0427C60.1133 62.8898 64.2239 58.8168 64.2239 53.7927C64.2237 50.6746 62.6404 47.9239 60.2271 46.2852Z" fill="#F79219"/>
<path d="M60.9064 46.7939C62.2319 48.3705 63.0307 50.3971 63.0307 52.6097C63.0307 57.6338 58.9201 61.7068 53.8495 61.7068H24.2124C21.9809 61.7068 19.9359 60.9175 18.3447 59.6058C20.0289 61.6115 22.5664 62.8892 25.4057 62.8892H55.043C60.1136 62.8892 64.2242 58.8162 64.2242 53.7921C64.224 50.9771 62.9331 48.4623 60.9064 46.7939Z" fill="#EF7816"/>
<path d="M18.3434 57.4263C18.1575 57.4263 17.9854 57.3176 17.9092 57.1497C17.4248 56.0903 17.1787 54.9599 17.1787 53.7918C17.1787 51.8314 17.8923 49.9349 19.1858 48.4546C20.4698 46.9908 22.2359 46.0236 24.1595 45.7328L25.0976 45.5933L24.9592 44.6616C24.8996 44.2454 24.8685 43.8292 24.8685 43.4248C24.8709 38.7497 28.7086 34.9473 33.4266 34.9473C36.6461 34.9473 39.5625 36.7113 41.0377 39.5514L41.6081 40.6463L42.5293 39.8186C43.966 38.5227 45.8299 37.8086 47.7748 37.8086H47.7798C49.0232 37.8086 50.2594 38.1065 51.3597 38.6693C51.4718 38.7285 51.5551 38.8254 51.5933 38.946C51.6339 39.0666 51.6219 39.1943 51.5623 39.3078C51.4453 39.5325 51.1496 39.6271 50.9203 39.5112C49.9563 39.017 48.8678 38.7545 47.7748 38.7545C46.0686 38.7545 44.4335 39.3811 43.171 40.5186L41.7892 41.7624C41.6794 41.8617 41.5291 41.9043 41.3835 41.8783C41.2381 41.8523 41.1114 41.76 41.0422 41.63L40.1878 39.9841C38.8752 37.461 36.2857 35.8932 33.4266 35.8908C31.4006 35.8932 29.4914 36.6759 28.0522 38.1018C26.6153 39.5254 25.8232 41.4172 25.8232 43.4248C25.8232 43.7842 25.8518 44.1555 25.9043 44.5244L26.1119 45.9219C26.1475 46.1773 25.9685 46.4185 25.7108 46.4564L24.3029 46.6692C22.6037 46.9246 21.0428 47.7783 19.9092 49.0741C18.7636 50.3818 18.1336 52.0584 18.1336 53.7918C18.1336 54.8251 18.3508 55.823 18.778 56.7595C18.8305 56.873 18.8352 57.003 18.7899 57.1213C18.7448 57.2395 18.6562 57.3317 18.5417 57.3838C18.4773 57.4121 18.4126 57.4263 18.3434 57.4263ZM52.7009 40.6415C52.584 40.6415 52.4692 40.599 52.3809 40.5209C52.3809 40.5186 52.3809 40.5186 52.3809 40.5186C52.2857 40.4334 52.2305 40.3176 52.2236 40.1899C52.2186 40.0645 52.2615 39.9439 52.3477 39.8493C52.5195 39.6649 52.8346 39.6507 53.0231 39.8186C53.1162 39.9037 53.1735 40.0196 53.1782 40.1473C53.183 40.2726 53.14 40.3932 53.0539 40.4854C52.9634 40.5848 52.8346 40.6415 52.7009 40.6415Z" fill="#FFC91D"/>
<path d="M47.8718 73.999H32.5761C27.045 73.999 22.561 69.5562 22.561 64.0757C22.561 58.5952 27.045 54.1523 32.5761 54.1523H47.8718C53.4029 54.1523 57.8868 58.5952 57.8868 64.0757C57.8866 69.5562 53.4029 73.999 47.8718 73.999Z" fill="#58595B"/>
<path d="M54.3304 56.4951C55.8039 58.223 56.6936 60.4553 56.6936 62.8945C56.6936 68.375 52.2097 72.8179 46.6785 72.8179H31.3829C28.9211 72.8179 26.6682 71.9363 24.9243 70.4763C26.7615 72.6306 29.5068 74.0002 32.5762 74.0002H47.8718C53.403 74.0002 57.8869 69.5574 57.8869 64.0769C57.8871 61.0356 56.5048 58.3152 54.3304 56.4951Z" fill="#414042"/>
<path d="M50.4278 70.459H42.9382C42.6668 70.459 42.4468 70.2409 42.4468 69.9721V63.7476C42.4468 63.4788 42.6668 63.2607 42.9382 63.2607H50.4278C50.6991 63.2607 50.9192 63.4788 50.9192 63.7476V69.9721C50.9192 70.2409 50.6994 70.459 50.4278 70.459Z" fill="#FFA91A"/>
<path d="M50.2754 63.2604H49.0468V61.1158C49.0468 59.8244 47.9864 58.774 46.6834 58.774C45.38 58.774 44.3199 59.8246 44.3199 61.1158V63.2604H43.0913V61.1158C43.0913 59.1533 44.7027 57.5566 46.6834 57.5566C48.664 57.5566 50.2754 59.1533 50.2754 61.1158V63.2604Z" fill="#E6E7E8"/>
<path d="M47.8399 68.2444L47.229 66.5544C47.4953 66.3789 47.6707 66.0793 47.6707 65.7388C47.6707 65.1979 47.2282 64.7598 46.6827 64.7598C46.1369 64.7598 45.6946 65.1982 45.6946 65.7388C45.6946 66.0793 45.8703 66.3789 46.1364 66.5544L45.5254 68.2444C45.4371 68.4887 45.6199 68.7457 45.8817 68.7457H47.4836C47.7454 68.746 47.9282 68.4887 47.8399 68.2444Z" fill="#995222"/>
<path d="M33.6283 70.4586C30.0384 70.4586 27.1177 67.5646 27.1177 64.0076C27.1177 60.4506 30.0384 57.5566 33.6283 57.5566C37.2182 57.5566 40.1389 60.4506 40.1389 64.0076C40.1389 67.5646 37.2182 70.4586 33.6283 70.4586ZM33.6283 58.268C30.4343 58.268 27.8358 60.8427 27.8358 64.0074C27.8358 67.1721 30.4343 69.7468 33.6283 69.7468C36.8223 69.7468 39.4208 67.1721 39.4208 64.0074C39.4208 60.8427 36.8223 58.268 33.6283 58.268Z" fill="white"/>
<path d="M33.628 70.4586C31.6164 70.4586 30.0405 67.6249 30.0405 64.0076C30.0405 60.3903 31.6164 57.5566 33.628 57.5566C35.6397 57.5566 37.2156 60.3903 37.2156 64.0076C37.2156 67.6249 35.6397 70.4586 33.628 70.4586ZM33.628 58.268C32.0727 58.268 30.7587 60.8963 30.7587 64.0074C30.7587 67.1184 32.0727 69.7468 33.628 69.7468C35.1834 69.7468 36.4974 67.1184 36.4974 64.0074C36.4974 60.8963 35.1834 58.268 33.628 58.268Z" fill="white"/>
<path d="M33.269 57.9121H33.9872V70.1025H33.269V57.9121Z" fill="white"/>
<path d="M27.7861 65.5664H39.4699V66.278H27.7861V65.5664Z" fill="white"/>
<path d="M27.7861 61.7373H39.4699V62.4489H27.7861V61.7373Z" fill="white"/>
</svg>
