<svg width="83" height="84" viewBox="0 0 83 84" fill="none" xmlns="http://www.w3.org/2000/svg">
<path fill-rule="evenodd" clip-rule="evenodd" d="M56.0632 17.3337C63.4986 21.3958 73.1566 24.1051 75.413 32.2799C77.7461 40.7328 72.4333 49.3903 66.7618 56.094C61.6221 62.1693 54.1294 64.9226 46.3628 66.6175C38.1783 68.4037 29.2868 70.2863 22.2147 65.8156C14.9325 61.212 10.9633 52.5182 10.4373 43.9067C9.95871 36.0717 14.7217 29.3248 19.6102 23.1743C24.1035 17.5212 29.4309 12.1906 36.5527 11.0495C43.5726 9.92477 49.831 13.9289 56.0632 17.3337Z" fill="#FFF9E4"/>
<g clip-path="url(#clip0_3483_135656)">
<path d="M41.2935 68.75C48.8874 68.75 55.0435 62.5939 55.0435 55C55.0435 47.4061 48.8874 41.25 41.2935 41.25C33.6995 41.25 27.5435 47.4061 27.5435 55C27.5435 62.5939 33.6995 68.75 41.2935 68.75Z" fill="#F8EAD3"/>
<path d="M41.2935 66.25C47.5067 66.25 52.5435 61.2132 52.5435 55C52.5435 48.7868 47.5067 43.75 41.2935 43.75C35.0803 43.75 30.0435 48.7868 30.0435 55C30.0435 61.2132 35.0803 66.25 41.2935 66.25Z" fill="#E6294F"/>
<path d="M48.7935 52.5H43.7935V47.5H38.7935V52.5H33.7935V57.5H38.7935V62.5H43.7935V57.5H48.7935V52.5Z" fill="#F8EAD3"/>
<path d="M31.9185 40C31.9185 40 28.1685 41.25 26.9185 44.375C25.6685 41.25 21.9185 40 21.9185 40C21.9185 40 25.6685 38.75 26.9185 35.625C28.1685 38.75 31.9185 40 31.9185 40Z" fill="#71D6FC"/>
<path d="M60.6685 70C60.6685 70 56.9185 71.25 55.6685 74.375C54.4185 71.25 50.6685 70 50.6685 70C50.6685 70 54.4185 68.75 55.6685 65.625C56.9185 68.75 60.6685 70 60.6685 70Z" fill="#71D6FC"/>
<path d="M51.9185 41.25C51.7527 41.25 51.5937 41.1842 51.4765 41.0669C51.3593 40.9497 51.2935 40.7908 51.2935 40.625V36.875C51.2935 36.7092 51.3593 36.5503 51.4765 36.4331C51.5937 36.3158 51.7527 36.25 51.9185 36.25C52.0842 36.25 52.2432 36.3158 52.3604 36.4331C52.4776 36.5503 52.5435 36.7092 52.5435 36.875V40.625C52.5435 40.7908 52.4776 40.9497 52.3604 41.0669C52.2432 41.1842 52.0842 41.25 51.9185 41.25Z" fill="#32ADDB"/>
<path d="M53.7935 39.375H50.0435C49.8777 39.375 49.7187 39.3092 49.6015 39.1919C49.4843 39.0747 49.4185 38.9158 49.4185 38.75C49.4185 38.5842 49.4843 38.4253 49.6015 38.3081C49.7187 38.1908 49.8777 38.125 50.0435 38.125H53.7935C53.9592 38.125 54.1182 38.1908 54.2354 38.3081C54.3526 38.4253 54.4185 38.5842 54.4185 38.75C54.4185 38.9158 54.3526 39.0747 54.2354 39.1919C54.1182 39.3092 53.9592 39.375 53.7935 39.375Z" fill="#32ADDB"/>
<path d="M58.1685 48.75C58.0027 48.75 57.8437 48.6842 57.7265 48.5669C57.6093 48.4497 57.5435 48.2908 57.5435 48.125V44.375C57.5435 44.2092 57.6093 44.0503 57.7265 43.9331C57.8437 43.8158 58.0027 43.75 58.1685 43.75C58.3342 43.75 58.4932 43.8158 58.6104 43.9331C58.7276 44.0503 58.7935 44.2092 58.7935 44.375V48.125C58.7935 48.2908 58.7276 48.4497 58.6104 48.5669C58.4932 48.6842 58.3342 48.75 58.1685 48.75Z" fill="#32ADDB"/>
<path d="M60.0435 46.875H56.2935C56.1277 46.875 55.9687 46.8092 55.8515 46.6919C55.7343 46.5747 55.6685 46.4158 55.6685 46.25C55.6685 46.0842 55.7343 45.9253 55.8515 45.8081C55.9687 45.6908 56.1277 45.625 56.2935 45.625H60.0435C60.2092 45.625 60.3682 45.6908 60.4854 45.8081C60.6026 45.9253 60.6685 46.0842 60.6685 46.25C60.6685 46.4158 60.6026 46.5747 60.4854 46.6919C60.3682 46.8092 60.2092 46.875 60.0435 46.875Z" fill="#32ADDB"/>
<path d="M25.0435 66.25C24.8777 66.25 24.7187 66.1842 24.6015 66.0669C24.4843 65.9497 24.4185 65.7908 24.4185 65.625V61.875C24.4185 61.7092 24.4843 61.5503 24.6015 61.4331C24.7187 61.3158 24.8777 61.25 25.0435 61.25C25.2092 61.25 25.3682 61.3158 25.4854 61.4331C25.6026 61.5503 25.6685 61.7092 25.6685 61.875V65.625C25.6685 65.7908 25.6026 65.9497 25.4854 66.0669C25.3682 66.1842 25.2092 66.25 25.0435 66.25Z" fill="#32ADDB"/>
<path d="M26.9185 64.375H23.1685C23.0027 64.375 22.8437 64.3092 22.7265 64.1919C22.6093 64.0747 22.5435 63.9158 22.5435 63.75C22.5435 63.5842 22.6093 63.4253 22.7265 63.3081C22.8437 63.1908 23.0027 63.125 23.1685 63.125H26.9185C27.0842 63.125 27.2432 63.1908 27.3604 63.3081C27.4776 63.4253 27.5435 63.5842 27.5435 63.75C27.5435 63.9158 27.4776 64.0747 27.3604 64.1919C27.2432 64.3092 27.0842 64.375 26.9185 64.375Z" fill="#32ADDB"/>
<path d="M30.0435 73.75C29.8777 73.75 29.7187 73.6842 29.6015 73.5669C29.4843 73.4497 29.4185 73.2908 29.4185 73.125V69.375C29.4185 69.2092 29.4843 69.0503 29.6015 68.9331C29.7187 68.8158 29.8777 68.75 30.0435 68.75C30.2092 68.75 30.3682 68.8158 30.4854 68.9331C30.6026 69.0503 30.6685 69.2092 30.6685 69.375V73.125C30.6685 73.2908 30.6026 73.4497 30.4854 73.5669C30.3682 73.6842 30.2092 73.75 30.0435 73.75Z" fill="#32ADDB"/>
<path d="M31.9185 71.875H28.1685C28.0027 71.875 27.8437 71.8092 27.7265 71.6919C27.6093 71.5747 27.5435 71.4158 27.5435 71.25C27.5435 71.0842 27.6093 70.9253 27.7265 70.8081C27.8437 70.6908 28.0027 70.625 28.1685 70.625H31.9185C32.0842 70.625 32.2432 70.6908 32.3604 70.8081C32.4776 70.9253 32.5435 71.0842 32.5435 71.25C32.5435 71.4158 32.4776 71.5747 32.3604 71.6919C32.2432 71.8092 32.0842 71.875 31.9185 71.875Z" fill="#32ADDB"/>
</g>
<defs>
<clipPath id="clip0_3483_135656">
<rect width="40" height="40" fill="white" transform="translate(21.2935 35)"/>
</clipPath>
</defs>
</svg>
