<svg width="76" height="77" viewBox="0 0 76 77" fill="none" xmlns="http://www.w3.org/2000/svg">
<path fill-rule="evenodd" clip-rule="evenodd" d="M45.2772 10.7398C53.537 12.627 63.5678 12.6079 67.9621 19.8611C72.506 27.361 69.7475 37.137 66.1127 45.1303C62.8187 52.3743 56.3571 57.0613 49.344 60.8043C41.9536 64.7488 33.9092 68.9783 25.8879 66.5991C17.6282 64.1493 11.4444 56.8624 8.59652 48.7184C6.00544 41.3088 8.75432 33.521 11.7861 26.273C14.5728 19.611 18.25 13.0326 24.7931 9.9979C31.2426 7.00664 38.354 9.15803 45.2772 10.7398Z" fill="#EBF8FF"/>
<path d="M40.1785 66.126L33.4067 68.5405L33.1499 69.4378C32.7853 70.7151 31.4002 71.7598 30.0723 71.7598V72.3634H44.1165L40.1785 66.126Z" fill="#ADACA7"/>
<path d="M42.8498 69.4373L41.9033 66.1254L37.9999 63.7109L34.0965 66.1254L33.4067 68.5399H40.1786L40.4353 69.4373C40.7999 70.7146 42.185 71.7592 43.513 71.7592L44.7202 72.3628L45.9275 71.7592C44.5995 71.7592 43.2144 70.7146 42.8498 69.4373Z" fill="#8F8F8B"/>
<path d="M53.1709 66.1252H55.5854C56.9134 66.1252 57.9999 65.0386 57.9999 63.7107V58.8817L53.1709 54.0527V66.1252Z" fill="#ADACA7"/>
<path d="M18 63.7115C18 65.0395 19.0865 66.126 20.4145 66.126H53.171C54.499 66.126 55.5855 65.0395 55.5855 63.7115V49.2246L18 58.8826V63.7115Z" fill="#CBC9C2"/>
<path d="M55.5854 34.7373H53.1709L55.5854 58.8822H57.9999V37.1518C57.9999 35.8238 56.9134 34.7373 55.5854 34.7373Z" fill="#404242"/>
<path d="M55.5855 37.1518C55.5855 35.8238 54.499 34.7373 53.171 34.7373H20.4145C19.0865 34.7373 18 35.8238 18 37.1518V58.8822H55.5855V56.4677L38 46.8087L55.5855 37.1518Z" fill="#565959"/>
<path d="M55.5855 37.1511L53.1715 37.1494C53.1715 37.1498 38 46.8084 38 46.8084C38 46.8084 53.1712 56.4672 53.171 56.4674L55.5854 56.4658C55.5855 56.4658 55.5853 37.1514 55.5855 37.1511Z" fill="#4B88D5"/>
<path d="M53.1711 37.1512L20.4216 37.1494C20.4196 37.1504 20.4179 56.4671 20.4146 56.4675C20.4146 56.4675 53.1695 56.4659 53.1703 56.4659C53.1707 56.4659 53.1677 37.1515 53.1711 37.1512Z" fill="#69A7FF"/>
<path d="M38.0002 63.7114C38.667 63.7114 39.2075 63.1709 39.2075 62.5041C39.2075 61.8374 38.667 61.2969 38.0002 61.2969C37.3335 61.2969 36.793 61.8374 36.793 62.5041C36.793 63.1709 37.3335 63.7114 38.0002 63.7114Z" fill="white"/>
<path d="M50.4747 72.967H25.525C25.1916 72.967 24.9214 72.6968 24.9214 72.3634C24.9214 72.0299 25.1916 71.7598 25.525 71.7598H50.4747C50.8081 71.7598 51.0783 72.0299 51.0783 72.3634C51.0783 72.6968 50.8081 72.967 50.4747 72.967Z" fill="#8F8F8B"/>
</svg>
