<svg width="85" height="84" viewBox="0 0 85 84" fill="none" xmlns="http://www.w3.org/2000/svg">
<path fill-rule="evenodd" clip-rule="evenodd" d="M63.8673 22.7025C69.6746 28.8719 78.0146 34.4452 77.6221 42.9165C77.2163 51.6761 69.4787 58.2569 62.0066 62.8692C55.2349 67.049 47.2577 67.3407 39.3486 66.5412C31.0139 65.6986 21.9773 64.7285 16.6422 58.2834C11.1486 51.6469 10.0739 42.1504 12.2468 33.801C14.2238 26.2044 20.8458 21.2692 27.4019 16.9399C33.4279 12.9606 40.1468 9.54695 47.2711 10.6728C54.2933 11.7825 58.9997 17.5314 63.8673 22.7025Z" fill="#ECFEFF"/>
<path d="M28.2505 44.0674H47.6255V47.8174H28.2505V44.0674Z" fill="#D7E6EB"/>
<path d="M30.7505 44.0674L33.2505 46.5674H40.1255L37.6255 44.0674H30.7505Z" fill="#CCDCE4"/>
<path d="M26.3755 44.0674L28.8755 46.5674H35.7505L33.2505 44.0674H26.3755Z" fill="#B4C2C9"/>
<path d="M23.8755 77.8174V44.0674H28.2505L30.7505 46.5674H47.6255V77.8174H23.8755Z" fill="#ECAE49"/>
<path d="M27.2456 54.752L45.4894 50.4395L51.3831 75.3726L33.1394 79.6851L27.2456 54.752Z" fill="#CCDCE4"/>
<path d="M33.3379 64.2285L34.5541 63.941L34.8416 65.1572L33.6254 65.4447L33.3379 64.2285Z" fill="#ABBAC2"/>
<path d="M35.7705 63.6533L41.8518 62.2158L42.1393 63.432L36.058 64.8695L35.7705 63.6533Z" fill="#ABBAC2"/>
<path d="M32.6963 66.9482L46.075 63.7857L46.3625 65.0019L32.9838 68.1644L32.6963 66.9482Z" fill="#ABBAC2"/>
<path d="M33.271 69.3809L46.6497 66.2184L46.9372 67.4346L33.5585 70.597L33.271 69.3809Z" fill="#ABBAC2"/>
<path d="M33.8462 71.8135L47.2249 68.651L47.5124 69.8672L34.1337 73.0297L33.8462 71.8135Z" fill="#ABBAC2"/>
<path d="M34.4209 74.2461L45.3671 71.6586L45.6546 72.8748L34.7084 75.4623L34.4209 74.2461Z" fill="#ABBAC2"/>
<path d="M31.0054 57.0732L43.1679 54.1982L44.3179 59.0632L32.1554 61.9382L31.0054 57.0732Z" fill="#7A8A9A"/>
<path d="M51.3755 67.8174C56.208 67.8174 60.1255 63.8999 60.1255 59.0674C60.1255 54.2349 56.208 50.3174 51.3755 50.3174C46.543 50.3174 42.6255 54.2349 42.6255 59.0674C42.6255 63.8999 46.543 67.8174 51.3755 67.8174Z" fill="#0093BA"/>
<path d="M52.6255 69.6924V79.0674C52.6255 79.3989 52.4938 79.7168 52.2594 79.9513C52.025 80.1857 51.707 80.3174 51.3755 80.3174C51.044 80.3174 50.726 80.1857 50.4916 79.9513C50.2572 79.7168 50.1255 79.3989 50.1255 79.0674V69.6924H52.6255Z" fill="#ECAE49"/>
<path d="M50.1255 69.6924H52.6255V71.5674H50.1255V69.6924Z" fill="#D7A145"/>
<path d="M52.6255 67.8174H50.1255C49.4351 67.8174 48.8755 68.377 48.8755 69.0674C48.8755 69.7577 49.4351 70.3174 50.1255 70.3174H52.6255C53.3158 70.3174 53.8755 69.7577 53.8755 69.0674C53.8755 68.377 53.3158 67.8174 52.6255 67.8174Z" fill="#D08B29"/>
<path d="M51.3755 65.3174C54.8273 65.3174 57.6255 62.5192 57.6255 59.0674C57.6255 55.6156 54.8273 52.8174 51.3755 52.8174C47.9237 52.8174 45.1255 55.6156 45.1255 59.0674C45.1255 62.5192 47.9237 65.3174 51.3755 65.3174Z" fill="#7FCBE5"/>
<path d="M50.1255 77.8174H52.6255V79.0674C52.6255 79.3989 52.4938 79.7168 52.2594 79.9513C52.025 80.1857 51.707 80.3174 51.3755 80.3174C51.044 80.3174 50.726 80.1857 50.4916 79.9513C50.2572 79.7168 50.1255 79.3989 50.1255 79.0674V77.8174Z" fill="#D08B29"/>
</svg>
