<svg width="40" height="40" viewBox="0 0 40 40" fill="none" xmlns="http://www.w3.org/2000/svg">
<g clip-path="url(#clip0_5954_149377)">
<path d="M23.1894 13.206V2.71191C20.2962 2.71191 17.9424 5.06572 17.9424 7.95898C17.9424 10.8522 20.2963 13.206 23.1894 13.206Z" fill="#9BC9FF"/>
<path d="M28.4365 7.95898C28.4365 5.06572 26.0827 2.71191 23.1895 2.71191V13.206C26.0827 13.206 28.4365 10.8522 28.4365 7.95898Z" fill="#57A4FF"/>
<path d="M20.5278 21.9679C22.5466 19.5285 25.5961 17.9717 29.0025 17.9717C29.3226 17.9717 29.6393 17.9862 29.9525 18.0131C28.4392 15.7837 25.928 14.4331 23.1896 14.4331C20.8483 14.4331 18.6731 15.4207 17.1455 17.1003C18.6955 18.354 19.8841 20.0373 20.5278 21.9679Z" fill="#9BC9FF"/>
<path d="M10.533 13.1231V0.0336914C6.92424 0.0336914 3.98828 2.96965 3.98828 6.57841C3.98828 10.1872 6.92424 13.1231 10.533 13.1231Z" fill="#005ECE"/>
<path d="M17.0779 6.57841C17.0779 2.96965 14.142 0.0336914 10.5332 0.0336914V13.1231C14.142 13.1231 17.0779 10.1872 17.0779 6.57841Z" fill="#003F8A"/>
<path d="M20.5276 21.9678C19.8837 20.0373 18.6952 18.354 17.1453 17.1003C15.3361 15.6371 13.0352 14.7593 10.5327 14.7593V26.9284H18.1954C18.5459 25.0681 19.3657 23.3717 20.5276 21.9678Z" fill="#003F8A"/>
<path d="M0 25.2922V26.9284H10.5329V14.7593C4.72529 14.7593 0 19.4846 0 25.2922Z" fill="#005ECE"/>
<path d="M27.3662 34.0099V30.6054H23.9616V27.333H27.3662V23.9285H29.0024V17.9717C25.596 17.9717 22.5465 19.5285 20.5277 21.9679C19.3659 23.3718 18.546 25.0683 18.1955 26.9284C18.0708 27.59 18.0049 28.272 18.0049 28.9692C18.0049 35.0333 22.9384 39.9668 29.0024 39.9668V34.0099H27.3662Z" fill="#FFDA44"/>
<path d="M29.9525 18.0132C29.6392 17.9862 29.3226 17.9717 29.0024 17.9717V23.9285H30.6386V27.3331H34.0432V30.6054H30.6386V34.01H29.0024V39.9668C35.0665 39.9668 40 35.0333 40 28.9693C40 23.2252 35.5734 18.4964 29.9525 18.0132Z" fill="#FCC324"/>
<path d="M27.3665 27.3332H23.9619V30.6056H27.3665V34.0101H30.6388V30.6056H34.0434V27.3332H30.6388V23.9287H27.3665V27.3332Z" fill="#2488FF"/>
</g>
<defs>
<clipPath id="clip0_5954_149377">
<rect width="40" height="40" fill="white"/>
</clipPath>
</defs>
</svg>
