<svg width="40" height="40" viewBox="0 0 40 40" fill="none" xmlns="http://www.w3.org/2000/svg">
<g clip-path="url(#clip0_5954_149234)">
<path d="M8.20312 16.4062H3.51562C2.86789 16.4062 2.34375 15.8821 2.34375 15.2344V10.5469C2.34375 8.60828 3.92078 7.03125 5.85938 7.03125H8.20312C8.85086 7.03125 9.375 7.55539 9.375 8.20312V15.2344C9.375 15.8821 8.85086 16.4062 8.20312 16.4062Z" fill="#57555C"/>
<path d="M37.6562 15.2344C37.6562 15.8821 37.1321 16.4062 36.4844 16.4062H31.7969C31.1491 16.4062 30.625 15.8821 30.625 15.2344L28.2812 8.20312C28.2812 7.55539 28.8054 7.03125 29.4531 7.03125H34.1406C36.0792 7.03125 37.6562 8.60828 37.6562 10.5469V15.2344Z" fill="#3C3A41"/>
<path d="M32.9688 9.375V15.2344C32.9688 15.8905 32.4532 16.4062 31.7969 16.4062H8.20312C7.5468 16.4062 7.03125 15.8905 7.03125 15.2344V1.17188C7.03125 0.515547 7.5468 0 8.20312 0H23.5938L25.9375 7.03125L32.9688 9.375Z" fill="#E5E5E5"/>
<path d="M31.7969 16.4062H20V0H23.5938L25.9375 7.03125L32.9688 9.375V15.2344C32.9688 15.8905 32.4532 16.4062 31.7969 16.4062Z" fill="#D9D9D9"/>
<path d="M36.4844 14.0625H3.51562C1.57023 14.0625 0 15.6327 0 17.5781V31.7969C0 33.7421 1.57023 35.3125 3.51562 35.3125H36.4844C38.4298 35.3125 40 33.7421 40 31.7969V17.5781C40 15.6327 38.4298 14.0625 36.4844 14.0625Z" fill="#1BA9EF"/>
<path d="M23.5938 8.20312C23.5938 8.8593 24.1093 9.375 24.7656 9.375H32.9688L23.5938 0V8.20312Z" fill="#FE9923"/>
<path d="M40 17.5781V31.7969C40 33.7421 38.4298 35.3125 36.4844 35.3125H20V14.0625H36.4844C38.4298 14.0625 40 15.6327 40 17.5781Z" fill="#1689FC"/>
<path d="M8.20312 21.0938H5.85938C5.21164 21.0938 4.6875 20.5696 4.6875 19.9219C4.6875 19.2741 5.21164 18.75 5.85938 18.75H8.20312C8.85086 18.75 9.375 19.2741 9.375 19.9219C9.375 20.5696 8.85086 21.0938 8.20312 21.0938Z" fill="#E1E4FB"/>
<path d="M32.9688 25V38.8282C32.9688 39.4844 32.4532 40.0001 31.7969 40.0001H8.20312C7.5468 40.0001 7.03125 39.4844 7.03125 38.8282V25H32.9688Z" fill="#E5E5E5"/>
<path d="M32.9688 25V38.8282C32.9688 39.4844 32.4532 40.0001 31.7969 40.0001H20V25H32.9688Z" fill="#D9D9D9"/>
<path d="M28.2812 29.4531C28.2812 30.1093 27.7657 30.625 27.1094 30.625H12.8906C12.2343 30.625 11.7188 30.1093 11.7188 29.4531C11.7188 28.7968 12.2343 28.2812 12.8906 28.2812H27.1094C27.7657 28.2812 28.2812 28.7968 28.2812 29.4531Z" fill="#AEADB3"/>
<path d="M28.2812 34.1406C28.2812 34.7968 27.7657 35.3125 27.1094 35.3125H12.8906C12.2343 35.3125 11.7188 34.7968 11.7188 34.1406C11.7188 33.4843 12.2343 32.9688 12.8906 32.9688H27.1094C27.7657 32.9688 28.2812 33.4843 28.2812 34.1406Z" fill="#AEADB3"/>
<path d="M28.2812 34.1406C28.2812 34.7968 27.7657 35.3125 27.1094 35.3125H20V32.9688H27.1094C27.7657 32.9688 28.2812 33.4843 28.2812 34.1406Z" fill="#8B8892"/>
<path d="M28.2812 29.4531C28.2812 30.1093 27.7657 30.625 27.1094 30.625H20V28.2812H27.1094C27.7657 28.2812 28.2812 28.7968 28.2812 29.4531Z" fill="#8B8892"/>
<path d="M35.3125 24.7656C35.3125 25.4218 34.797 25.9375 34.1406 25.9375H5.85938C5.20305 25.9375 4.6875 25.4218 4.6875 24.7656C4.6875 24.1093 5.20305 23.5938 5.85938 23.5938H34.1406C34.797 23.5938 35.3125 24.1093 35.3125 24.7656Z" fill="#57555C"/>
<path d="M35.3125 24.7656C35.3125 25.4218 34.797 25.9375 34.1406 25.9375H20V23.5938H34.1406C34.797 23.5938 35.3125 24.1093 35.3125 24.7656Z" fill="#3C3A41"/>
</g>
<defs>
<clipPath id="clip0_5954_149234">
<rect width="40" height="40" fill="white"/>
</clipPath>
</defs>
</svg>
