<svg width="167" height="48" viewBox="0 0 167 48" fill="none" xmlns="http://www.w3.org/2000/svg">
<path d="M32.6854 23.8733C33.2393 24.3321 33.5611 24.7923 33.909 25.4119C33.9666 25.1498 33.9666 25.1498 34.0253 24.8825C34.4833 23.8336 35.2705 23.2412 36.2997 22.727C38.6455 22.0816 41.227 22.1942 43.4548 23.1926C44.4958 23.8183 44.9176 24.7039 45.2809 25.8152C45.3895 26.5459 45.3964 27.2632 45.3924 28.0006C45.3948 28.2026 45.3973 28.4045 45.3998 28.6125C45.407 29.2515 45.409 29.8904 45.4101 30.5295C45.4135 31.1729 45.4181 31.8162 45.425 32.4595C45.429 32.8583 45.4309 33.2572 45.4305 33.6561C45.432 33.8359 45.4334 34.0158 45.4349 34.201C45.4351 34.359 45.4354 34.517 45.4357 34.6798C45.4634 35.1552 45.4634 35.1552 45.9012 35.6976C46.6186 35.6052 47.2811 35.5178 47.9688 35.2942C48.0371 35.4939 48.1053 35.6936 48.1756 35.8993C46.7279 36.757 45.5331 37.1479 43.8336 36.9077C42.9468 36.5931 42.3932 36.1783 41.766 35.4959C41.5753 35.6234 41.5753 35.6234 41.3807 35.7535C41.2136 35.864 41.0465 35.9745 40.8743 36.0883C40.626 36.2533 40.626 36.2533 40.3727 36.4216C39.0957 37.1983 37.427 37.0315 35.9766 36.9077C34.8841 36.5349 34.1239 35.8358 33.4955 34.8909C33.4955 34.7578 33.4955 34.6246 33.4955 34.4875C33.3678 34.5946 33.2401 34.7017 33.1086 34.8121C30.9376 36.5784 29.2762 37.1871 26.4586 36.9631C25.5016 36.8326 24.7617 36.4372 23.9844 35.8993C23.8517 35.814 23.7189 35.7287 23.5822 35.6409C22.2945 34.7057 21.4209 33.1873 21.0897 31.664C20.9191 28.9107 21.0479 26.6104 22.9401 24.405C25.6897 21.7792 29.6248 21.765 32.6854 23.8733ZM26.1102 24.0529C25.0819 25.4137 24.9833 26.7607 24.8115 28.4371C26.8584 28.4371 28.9053 28.4371 31.0143 28.4371C31.0143 26.7033 30.9282 25.2633 29.6316 23.9875C29.4738 23.8586 29.316 23.7296 29.1535 23.5967C29.0852 23.5302 29.017 23.4636 28.9467 23.3951C27.8577 23.2385 26.9378 23.2568 26.1102 24.0529ZM37.4684 23.6385C37.1593 24.0834 36.9541 24.5392 36.7391 25.0337C36.2679 25.9833 36.2679 25.9833 35.5502 26.269C34.9428 26.2186 34.9428 26.2186 34.1158 25.8152C34.3205 26.8801 34.5251 27.945 34.736 29.0421C31.4609 29.1087 28.1858 29.1752 24.8115 29.2438C24.8115 31.3907 25.0267 32.8367 26.5592 34.4056C27.6087 35.3362 28.6312 35.4032 30.0007 35.3636C31.3347 35.2094 32.2085 34.4718 33.0408 33.4767C33.3879 32.9153 33.4602 32.3684 33.5728 31.7296C33.7976 30.9152 34.2969 30.3941 34.9428 29.8489C35.632 29.4719 36.3491 29.1992 37.088 28.9287C38.847 28.2718 40.7863 27.4874 41.766 25.8152C41.8976 25.2052 41.8601 24.8442 41.766 24.2018C41.1934 23.6088 40.8517 23.4119 40.0198 23.295C39.6432 23.3009 39.6432 23.3009 39.259 23.3068C39.0068 23.3071 38.7547 23.3074 38.4949 23.3076C37.8555 23.3444 37.8555 23.3444 37.4684 23.6385ZM40.7451 28.3615C40.0472 28.8258 39.3397 29.2374 38.5999 29.6346C37.6855 30.1728 37.0886 30.6366 36.8037 31.664C36.5986 33.1043 36.742 34.1214 37.6307 35.2942C38.3499 35.645 39.1188 35.5851 39.9051 35.4959C40.9137 35.0149 41.2061 34.2372 41.5941 33.2629C41.8968 32.2228 41.8524 31.1988 41.8177 30.1262C41.8139 29.9044 41.8102 29.6826 41.8063 29.4542C41.7967 28.9133 41.7832 28.3728 41.766 27.832C41.3768 27.832 41.0546 28.1545 40.7451 28.3615Z" fill="#001940"/>
<path d="M9.51105 15.9326C9.6134 19.9259 9.6134 19.9259 9.71781 23.9998C10.1272 23.6671 10.5366 23.3343 10.9584 22.9914C12.2878 22.3001 14.1987 22.3471 15.6348 22.7338C16.8789 23.2994 17.5368 24.1757 18.0633 25.4024C18.3058 26.1614 18.2862 26.9229 18.2863 27.712C18.2904 27.9793 18.2904 27.9793 18.2946 28.252C18.303 28.8178 18.3075 29.3836 18.3114 29.9494C18.3163 30.5153 18.3221 31.081 18.3303 31.6468C18.3353 31.9977 18.3384 32.3485 18.3394 32.6994C18.3554 34.4451 18.3554 34.4451 19.2289 35.899C19.57 36.0416 19.9144 36.1772 20.2627 36.3024C20.2627 36.4355 20.2627 36.5686 20.2627 36.7057C17.8064 36.7057 15.35 36.7057 12.8192 36.7057C12.8192 36.5061 12.8192 36.3064 12.8192 36.1007C13.4333 36.0009 13.4333 36.0009 14.0598 35.899C14.5195 34.8113 14.5399 33.8289 14.5428 32.6721C14.5442 32.4797 14.5456 32.2873 14.547 32.0891C14.5491 31.6837 14.55 31.2782 14.55 30.8727C14.5509 30.2539 14.5584 29.6354 14.5662 29.0167C14.5674 28.6217 14.5683 28.2267 14.5686 27.8318C14.5716 27.6477 14.5746 27.4636 14.5777 27.274C14.5694 26.1504 14.4284 25.4884 13.6463 24.6049C12.7717 24.0362 11.9855 24.0417 10.9584 24.2015C10.2665 24.7111 9.99078 25.0162 9.71781 25.815C9.69795 26.1108 9.68926 26.4075 9.68778 26.704C9.68646 26.883 9.68514 27.0621 9.68378 27.2465C9.68355 27.4394 9.68332 27.6323 9.68308 27.831C9.68239 28.0297 9.6817 28.2283 9.681 28.433C9.67995 28.8533 9.67946 29.2736 9.6795 29.6938C9.67904 30.337 9.67529 30.98 9.67137 31.6231C9.67076 32.0314 9.67035 32.4396 9.67016 32.8478C9.66867 33.0403 9.66719 33.2327 9.66566 33.431C9.66629 33.6107 9.66693 33.7904 9.66758 33.9755C9.66729 34.1331 9.66699 34.2907 9.66669 34.4531C9.72562 34.9574 9.8456 35.2735 10.1313 35.6973C10.7603 35.958 10.7603 35.958 11.3719 36.1007C11.3719 36.3003 11.3719 36.5 11.3719 36.7057C8.91557 36.7057 6.45924 36.7057 3.92847 36.7057C3.92847 36.5061 3.92847 36.3064 3.92847 36.1007C4.54255 36.0009 4.54255 36.0009 5.16904 35.899C5.5589 34.9356 5.64286 34.0666 5.63935 33.043C5.64041 32.8825 5.64147 32.722 5.64256 32.5566C5.64542 32.0292 5.64523 31.5018 5.64476 30.9744C5.64556 30.6068 5.64646 30.2392 5.64744 29.8716C5.64898 29.1028 5.64892 28.334 5.64783 27.5652C5.64663 26.579 5.65015 25.593 5.65494 24.6069C5.65798 23.8486 5.65816 23.0903 5.65752 22.3319C5.65762 21.9682 5.65871 21.6045 5.66079 21.2408C5.66333 20.7334 5.66195 20.2261 5.65955 19.7187C5.66113 19.5681 5.66271 19.4176 5.66433 19.2625C5.65762 18.4618 5.65762 18.4618 5.30234 17.7593C4.85811 17.4808 4.4476 17.4128 3.92847 17.3444C3.92847 17.1447 3.92847 16.9451 3.92847 16.7393C5.74669 16.2427 7.62148 15.9326 9.51105 15.9326Z" fill="#001940"/>
<path d="M73.4005 15.9326C73.5028 19.9259 73.5028 19.9259 73.6072 23.9998C74.0166 23.6671 74.426 23.3343 74.8478 22.9914C76.1772 22.3001 78.0881 22.3471 79.5242 22.7338C80.7683 23.2994 81.4262 24.1757 81.9527 25.4024C82.1952 26.1614 82.1756 26.9229 82.1757 27.712C82.1798 27.9793 82.1798 27.9793 82.184 28.252C82.1924 28.8178 82.1969 29.3836 82.2008 29.9494C82.2057 30.5153 82.2116 31.081 82.2197 31.6468C82.2247 31.9977 82.2278 32.3485 82.2288 32.6994C82.2448 34.4451 82.2448 34.4451 83.1183 35.899C83.4594 36.0416 83.8038 36.1772 84.1521 36.3024C84.1521 36.4355 84.1521 36.5686 84.1521 36.7057C81.6958 36.7057 79.2394 36.7057 76.7086 36.7057C76.7086 36.5061 76.7086 36.3064 76.7086 36.1007C77.3227 36.0009 77.3227 36.0009 77.9492 35.899C78.4089 34.8113 78.4293 33.8289 78.4322 32.6721C78.4336 32.4797 78.435 32.2873 78.4364 32.0891C78.4385 31.6837 78.4394 31.2782 78.4394 30.8727C78.4403 30.2539 78.4478 29.6354 78.4556 29.0167C78.4568 28.6217 78.4577 28.2267 78.4581 27.8318C78.461 27.6477 78.464 27.4636 78.4671 27.274C78.4588 26.1504 78.3179 25.4884 77.5357 24.6049C76.6611 24.0362 75.8749 24.0417 74.8478 24.2015C74.1559 24.7111 73.8802 25.0162 73.6072 25.815C73.5874 26.1108 73.5787 26.4075 73.5772 26.704C73.5759 26.883 73.5745 27.0621 73.5732 27.2465C73.573 27.4394 73.5727 27.6323 73.5725 27.831C73.5718 28.0297 73.5711 28.2283 73.5704 28.433C73.5694 28.8533 73.5689 29.2736 73.5689 29.6938C73.5684 30.337 73.5647 30.98 73.5608 31.6231C73.5602 32.0314 73.5598 32.4396 73.5596 32.8478C73.5581 33.0403 73.5566 33.2327 73.5551 33.431C73.5557 33.6107 73.5563 33.7904 73.557 33.9755C73.5567 34.1331 73.5564 34.2907 73.5561 34.4531C73.615 34.9574 73.735 35.2735 74.0207 35.6973C74.6497 35.958 74.6497 35.958 75.2613 36.1007C75.2613 36.3003 75.2613 36.5 75.2613 36.7057C72.805 36.7057 70.3486 36.7057 67.8179 36.7057C67.8179 36.5061 67.8179 36.3064 67.8179 36.1007C68.014 36.0549 68.2102 36.0092 68.4123 35.962C69.0768 35.7653 69.0768 35.7653 69.302 35.278C69.5162 34.5354 69.5314 33.8307 69.5288 33.0659C69.5298 32.9054 69.5309 32.745 69.532 32.5796C69.5348 32.0511 69.5346 31.5226 69.5342 30.9941C69.535 30.6262 69.5359 30.2583 69.5368 29.8904C69.5384 29.1204 69.5383 28.3504 69.5372 27.5804C69.536 26.5927 69.5395 25.605 69.5443 24.6173C69.5474 23.8581 69.5476 23.099 69.5469 22.3398C69.547 21.9755 69.5481 21.6112 69.5502 21.247C69.5527 20.7386 69.5514 20.2303 69.5489 19.7219C69.5505 19.571 69.5521 19.4201 69.5537 19.2647C69.5472 18.4629 69.5472 18.4629 69.1917 17.7591C68.7475 17.4808 68.3369 17.4128 67.8179 17.3444C67.8179 17.1447 67.8179 16.9451 67.8179 16.7393C69.6361 16.2427 71.5109 15.9326 73.4005 15.9326Z" fill="#001940"/>
<path d="M54.5853 16.1341C54.5869 16.3673 54.5886 16.6005 54.5903 16.8408C54.6063 19.0368 54.6245 21.2329 54.6447 23.4289C54.6551 24.5579 54.6646 25.687 54.6725 26.816C54.6801 27.9053 54.6897 28.9946 54.7007 30.0839C54.7045 30.4998 54.7076 30.9157 54.71 31.3315C54.7135 31.9134 54.7195 32.4952 54.7261 33.0771C54.7266 33.2496 54.727 33.4221 54.7275 33.5998C54.7298 33.7587 54.7321 33.9176 54.7345 34.0814C54.7356 34.2189 54.7367 34.3565 54.7379 34.4982C54.8039 34.9762 54.9378 35.2919 55.2056 35.6972C55.8345 35.9578 55.8345 35.9578 56.4461 36.1005C56.4461 36.3002 56.4461 36.4998 56.4461 36.7056C53.9898 36.7056 51.5335 36.7056 49.0027 36.7056C49.0027 36.5059 49.0027 36.3062 49.0027 36.1005C49.1989 36.0506 49.395 36.0007 49.5971 35.9493C50.2367 35.7632 50.2367 35.7632 50.4871 35.3794C50.7299 34.6798 50.7143 33.9987 50.7103 33.2686C50.711 33.1059 50.7117 32.9431 50.7125 32.7755C50.7143 32.2383 50.7131 31.7012 50.7117 31.1641C50.712 30.7909 50.7124 30.4177 50.7129 30.0445C50.7135 29.263 50.7126 28.4814 50.7107 27.6998C50.7083 26.6965 50.7097 25.6933 50.7122 24.6899C50.7137 23.9197 50.7132 23.1494 50.7121 22.3792C50.7118 22.0091 50.7122 21.6391 50.7131 21.269C50.7142 20.7528 50.7126 20.2367 50.7103 19.7206C50.7111 19.5668 50.712 19.4129 50.7128 19.2545C50.7349 18.4087 50.7349 18.4087 50.2433 17.7476C49.8322 17.6674 49.4184 17.5988 49.0027 17.5459C49.0027 17.2797 49.0027 17.0135 49.0027 16.7392C49.8552 16.5984 50.7082 16.4605 51.5614 16.3232C51.926 16.263 51.926 16.263 52.298 16.2015C52.5298 16.1644 52.7617 16.1274 53.0006 16.0892C53.215 16.0544 53.4294 16.0195 53.6503 15.9836C54.1717 15.9325 54.1717 15.9325 54.5853 16.1341Z" fill="#001940"/>
<path d="M62.2355 17.9492C62.5084 17.9492 62.7814 17.9492 63.0626 17.9492C63.0626 19.5465 63.0626 21.1438 63.0626 22.7896C63.9496 22.7896 64.8366 22.7896 65.7505 22.7896C65.8528 23.1889 65.8528 23.1889 65.9572 23.5963C65.002 23.5963 64.0468 23.5963 63.0626 23.5963C63.0819 25.1326 63.1038 26.6688 63.1282 28.205C63.1361 28.7277 63.1433 29.2504 63.1498 29.7731C63.1592 30.5241 63.1712 31.275 63.1837 32.0259C63.1861 32.26 63.1885 32.494 63.1909 32.7352C63.1951 32.9531 63.1992 33.1711 63.2034 33.3957C63.2062 33.5874 63.2089 33.7791 63.2117 33.9766C63.2713 34.5042 63.4083 34.8397 63.6828 35.2938C64.6822 35.3106 65.5927 35.2842 66.5775 35.0921C66.6458 35.3583 66.714 35.6245 66.7843 35.8988C66.3928 36.0638 66.0007 36.2274 65.6083 36.3904C65.39 36.4816 65.1717 36.5729 64.9468 36.6669C63.6245 37.1605 62.2954 37.3385 60.9432 36.882C60.1809 36.375 59.7097 35.7835 59.4239 34.92C59.3249 34.4038 59.3161 33.9211 59.3174 33.3957C59.3174 33.1777 59.3174 32.9598 59.3174 32.7352C59.3185 32.5011 59.3195 32.2671 59.3206 32.0259C59.3209 31.7853 59.3212 31.5447 59.3215 31.2968C59.3227 30.5283 59.3253 29.7598 59.3279 28.9912C59.329 28.4702 59.3299 27.9492 59.3307 27.4282C59.333 26.1509 59.3365 24.8736 59.3408 23.5963C58.7268 23.5963 58.1127 23.5963 57.48 23.5963C57.48 23.3966 57.48 23.1969 57.48 22.9912C57.7273 22.8789 57.9747 22.7666 58.2295 22.6509C60.2641 21.6394 61.4461 20.0327 62.2355 17.9492Z" fill="#001940"/>
<path d="M121.163 22.5883C121.64 22.5883 122.118 22.5883 122.61 22.5883C122.678 23.3204 122.746 24.0525 122.817 24.8068C122.928 24.6237 123.038 24.4407 123.153 24.2521C123.681 23.4794 124.36 22.9454 125.283 22.6717C127.416 22.256 129.746 22.3452 131.628 23.4431C133.201 24.5761 134.034 26.1618 134.395 28.0337C134.567 30.6244 134.48 32.8985 132.715 34.9916C131.266 36.415 129.89 36.7754 127.882 36.8068C126.523 36.7898 125.195 36.6941 124.057 35.8992C123.443 35.2004 123.443 35.2004 122.817 34.4874C122.748 36.8834 122.68 39.2794 122.61 41.7479C122.132 41.7479 121.655 41.7479 121.163 41.7479C121.163 35.4253 121.163 29.1026 121.163 22.5883ZM124.119 24.9541C122.583 26.7724 122.419 28.775 122.568 31.0561C122.714 32.4725 123.179 33.5329 124.251 34.5C125.802 35.7298 127.536 35.6425 129.433 35.4958C130.735 35.1788 131.593 34.3452 132.328 33.2774C133.33 31.4862 133.449 29.335 132.922 27.3782C132.392 25.8691 131.477 24.7717 130.053 24C128.128 23.374 125.58 23.5031 124.119 24.9541Z" fill="#001940"/>
<path d="M88.2874 12.3027C88.6383 12.9872 88.2275 13.6857 88.0031 14.3826C87.37 16.3828 86.8053 18.43 87.4991 20.496C87.957 21.0812 88.1943 21.3191 88.9077 21.58C90.2294 21.6893 91.5289 21.5708 92.8362 21.3784C92.4154 21.804 92.0196 22.1781 91.5181 22.5128C90.0672 23.7933 89.2702 25.6833 89.0523 27.5613C89.0243 28.1111 89.0178 28.6557 89.024 29.2061C89.0253 29.3995 89.0265 29.5929 89.0278 29.7922C89.0732 31.8108 89.4448 33.6804 90.7686 35.2943C90.7003 35.4274 90.6321 35.5606 90.5618 35.6977C89.0102 34.2737 87.6547 32.907 86.6333 31.059C86.5384 30.888 86.4435 30.7169 86.3458 30.5407C84.2553 26.4255 84.1982 21.6435 85.6665 17.3274C87.024 13.5351 87.024 13.5351 88.2874 12.3027Z" fill="#43B02A"/>
<path d="M116.27 23.1377C117.034 23.7097 117.545 24.306 117.854 25.2104C117.877 25.5269 117.889 25.8442 117.894 26.1614C117.897 26.3538 117.901 26.5463 117.904 26.7446C117.907 26.952 117.91 27.1593 117.913 27.373C117.918 27.6926 117.918 27.6926 117.924 28.0186C117.94 28.9317 117.954 29.8448 117.969 30.7579C117.979 31.4237 117.991 32.0895 118.003 32.7553C118.006 32.9631 118.009 33.1709 118.012 33.3849C118.015 33.5768 118.019 33.7686 118.022 33.9662C118.025 34.1355 118.027 34.3048 118.03 34.4791C118.035 34.9045 118.035 34.9045 118.268 35.2944C118.748 35.3766 119.231 35.4446 119.715 35.4961C119.724 35.8322 119.724 36.1685 119.715 36.5045C119.374 36.8375 118.982 36.7644 118.514 36.7818C117.52 36.7722 117.52 36.7722 116.911 36.265C116.627 35.7234 116.478 35.2914 116.407 34.6894C116.271 34.8724 116.134 35.0555 115.994 35.244C115.247 36.1049 114.357 36.6147 113.205 36.78C112.65 36.807 112.103 36.8065 111.548 36.7944C111.27 36.7966 111.27 36.7966 110.985 36.7988C109.619 36.7862 108.384 36.6397 107.297 35.7545C107.203 35.636 107.109 35.5174 107.012 35.3953C106.915 35.2767 106.817 35.1582 106.716 35.036C106.076 34.0861 106.191 32.9556 106.276 31.8659C106.636 30.7714 107.384 30.08 108.343 29.4457C109.105 29.1036 109.777 28.9681 110.611 28.8919C110.844 28.8686 111.078 28.8453 111.318 28.8214C111.807 28.7755 112.295 28.7303 112.784 28.6859C114.776 28.4948 114.776 28.4948 116.407 27.4289C116.537 26.5884 116.492 25.8247 116.175 25.0339C115.613 24.4132 114.987 24.0627 114.136 23.9423C113.685 23.9192 113.24 23.9177 112.789 23.9247C112.561 23.9212 112.561 23.9212 112.329 23.9176C111.025 23.9244 110.173 24.2408 109.222 25.1474C108.657 25.8505 108.512 26.5609 108.343 27.4289C107.934 27.4289 107.525 27.4289 107.103 27.4289C106.954 26.0974 107.34 25.0888 108.137 24.0003C110.152 22.2657 113.88 21.8328 116.27 23.1377ZM115.616 29.0334C115.057 29.2952 114.585 29.3343 113.968 29.3874C113.736 29.4098 113.503 29.4321 113.264 29.4552C112.778 29.499 112.292 29.5415 111.807 29.5828C110.243 29.736 108.822 29.904 107.723 31.1096C107.345 32.125 107.39 32.9415 107.762 33.9331C108.248 34.6527 108.795 35.1114 109.584 35.4961C112.33 35.7337 112.33 35.7337 114.753 34.6894C115.784 33.795 116.377 32.7904 116.614 31.4625C116.659 30.5857 116.651 29.7176 116.614 28.8407C116.014 28.7939 116.014 28.7939 115.616 29.0334Z" fill="#001940"/>
<path d="M158.45 23.1364C159.14 23.6546 159.642 24.2438 160.034 25.0082C160.059 25.3315 160.071 25.6557 160.077 25.9797C160.083 26.2825 160.083 26.2825 160.089 26.5914C160.093 26.8099 160.096 27.0284 160.1 27.2535C160.104 27.4768 160.108 27.7 160.113 27.93C160.126 28.6452 160.138 29.3603 160.15 30.0755C160.159 30.5595 160.168 31.0434 160.178 31.5274C160.2 32.7157 160.221 33.904 160.241 35.0923C160.787 35.2919 161.333 35.4916 161.895 35.6973C161.827 36.0301 161.759 36.3629 161.688 36.7057C160.989 36.7643 160.318 36.7912 159.621 36.7057C158.914 36.1177 158.691 35.5798 158.587 34.6889C158.45 34.8719 158.314 35.055 158.173 35.2435C157.427 36.1044 156.537 36.6142 155.384 36.7795C154.83 36.8066 154.283 36.806 153.728 36.794C153.449 36.7961 153.449 36.7961 153.165 36.7983C151.799 36.7857 150.564 36.6392 149.477 35.754C149.383 35.6355 149.289 35.5169 149.192 35.3948C149.094 35.2762 148.996 35.1577 148.896 35.0356C148.257 34.0864 148.369 32.9544 148.455 31.8654C148.898 30.5718 149.861 29.8648 151.043 29.227C152.086 28.7278 153.112 28.6827 154.258 28.6259C155.954 28.5354 157.149 28.3635 158.587 27.4284C158.757 26.5985 158.668 25.8159 158.354 25.0335C157.793 24.4127 157.167 24.0622 156.316 23.9418C155.865 23.9187 155.42 23.9172 154.968 23.9242C154.741 23.9207 154.741 23.9207 154.509 23.9171C153.205 23.9239 152.353 24.2403 151.402 25.1469C150.837 25.85 150.692 26.5604 150.523 27.4284C150.114 27.4284 149.704 27.4284 149.283 27.4284C149.134 26.0969 149.52 25.0883 150.316 23.9998C152.333 22.2638 156.057 21.8347 158.45 23.1364ZM157.781 28.9276C156.702 29.2822 155.66 29.3823 154.529 29.4578C152.281 29.5578 152.281 29.5578 150.342 30.5419C149.704 31.2923 149.635 31.8982 149.652 32.862C149.75 33.7833 150.156 34.3463 150.846 34.9536C152.106 35.8044 153.791 35.6232 155.279 35.4956C156.572 35.1916 157.467 34.3542 158.173 33.2772C158.966 31.8118 158.857 30.2547 158.794 28.6385C158.437 28.6385 158.113 28.808 157.781 28.9276Z" fill="#001940"/>
<path d="M101.468 23.0921C102.796 23.8507 103.8 24.9474 104.208 26.4198C104.234 26.9871 104.234 26.9871 104.208 27.4282C103.799 27.4282 103.389 27.4282 102.967 27.4282C102.925 27.2527 102.925 27.2527 102.883 27.0737C102.53 25.825 102.035 25.0923 100.9 24.403C99.5116 23.7154 97.5102 23.7678 96.0175 24.1312C94.7518 24.6898 93.8553 25.729 93.2884 26.9492C92.4947 29.1495 92.77 31.1305 93.6631 33.277C94.1744 34.2249 94.9772 34.7634 95.9803 35.1535C97.4549 35.5116 99.2068 35.5866 100.616 34.966C102.094 34.067 102.614 32.8051 103.174 31.2602C103.584 31.2602 103.993 31.2602 104.415 31.2602C104.104 33.0186 103.564 34.2962 102.14 35.4955C100.283 36.7533 98.5725 36.9022 96.351 36.7055C94.6823 36.3182 93.5285 35.5678 92.6035 34.1593C91.3343 31.9704 90.9543 29.6143 91.6343 27.1509C92.2559 25.4358 93.3318 23.8408 95.0561 23.0225C97.0461 22.2187 99.5085 22.2151 101.468 23.0921Z" fill="#001940"/>
<path d="M142.872 18.1514C143.282 18.1514 143.691 18.1514 144.113 18.1514C144.113 19.6156 144.113 21.0798 144.113 22.5883C145.137 22.5883 146.16 22.5883 147.214 22.5883C147.214 22.9211 147.214 23.2539 147.214 23.5967C146.191 23.5967 145.168 23.5967 144.113 23.5967C144.122 25.1331 144.137 26.6692 144.156 28.2055C144.162 28.7282 144.166 29.2509 144.169 29.7736C144.174 30.5246 144.183 31.2754 144.194 32.0264C144.194 32.2604 144.194 32.4945 144.195 32.7356C144.199 32.9536 144.203 33.1716 144.207 33.3962C144.209 33.5879 144.211 33.7795 144.213 33.977C144.351 34.6367 144.616 34.877 145.147 35.2942C145.677 35.4749 145.677 35.4749 146.232 35.5463C146.417 35.5765 146.601 35.6066 146.791 35.6377C146.931 35.6575 147.071 35.6772 147.214 35.6976C147.214 36.0969 147.214 36.4962 147.214 36.9077C145.831 36.955 144.702 36.9128 143.532 36.1009C142.47 34.6807 142.616 32.8075 142.671 31.1204C142.676 30.9039 142.681 30.6874 142.686 30.4643C142.703 29.7801 142.723 29.096 142.743 28.4119C142.755 27.945 142.767 27.4781 142.779 27.0111C142.808 25.8729 142.839 24.7348 142.872 23.5967C141.985 23.5967 141.098 23.5967 140.185 23.5967C140.185 23.264 140.185 22.9312 140.185 22.5883C141.072 22.5883 141.959 22.5883 142.872 22.5883C142.872 21.1241 142.872 19.6599 142.872 18.1514Z" fill="#001940"/>
<path d="M95.6016 10.4243C96.75 11.3873 97.9272 12.622 98.212 14.1175C97.1782 13.1091 97.1782 13.1091 96.713 12.6175C94.8191 10.8962 92.6586 10.0021 90.0562 10.0406C87.5149 10.2491 85.2626 11.2786 83.5319 13.1091C81.8258 15.3456 81.444 17.6444 81.671 20.3696C81.8307 21.0064 82.0466 21.5724 82.2913 22.1848C82.2231 22.3844 82.1549 22.5841 82.0846 22.7898C80.5919 20.1251 80.03 17.8976 80.848 14.9306C81.704 12.3493 83.2443 10.7371 85.6536 9.4261C88.9485 7.87399 92.6785 8.29013 95.6016 10.4243Z" fill="#43B02A"/>
<path d="M137.083 22.5879C137.561 22.5879 138.039 22.5879 138.531 22.5879C138.531 27.2467 138.531 31.9055 138.531 36.7055C138.053 36.7055 137.576 36.7055 137.083 36.7055C137.083 32.0467 137.083 27.3879 137.083 22.5879Z" fill="#001940"/>
<path d="M90.5359 16.5C91.182 16.5378 91.182 16.5378 91.8023 16.9412C92.0396 17.6686 92.0424 18.0556 91.7894 18.7815C91.3148 19.4685 90.907 19.798 90.1482 20.1681C89.4817 20.1681 89.2278 20.0622 88.7267 19.6387C88.3806 18.9258 88.4848 18.4989 88.7009 17.7479C89.2178 17.1681 89.2178 17.1681 89.7347 16.7395C89.9415 16.5378 89.9415 16.5378 90.5359 16.5Z" fill="#43B02A"/>
<path d="M137.083 16.9414C137.561 16.9414 138.039 16.9414 138.531 16.9414C138.531 17.8732 138.531 18.8049 138.531 19.7649C138.053 19.7649 137.576 19.7649 137.083 19.7649C137.083 18.8332 137.083 17.9014 137.083 16.9414Z" fill="#001940"/>
<path d="M111.406 29.0166C111.589 29.0184 111.772 29.0202 111.96 29.0221C112.408 29.0268 112.857 29.0341 113.306 29.0418C113.306 29.2415 113.306 29.4411 113.306 29.6468C112.95 29.6835 112.95 29.6835 112.588 29.7209C112.271 29.755 111.955 29.7891 111.639 29.8233C111.483 29.8392 111.328 29.855 111.167 29.8714C110.185 29.9792 109.286 30.163 108.343 30.4536C108.275 30.3205 108.207 30.1873 108.137 30.0502C108.343 29.4452 108.343 29.4452 108.747 29.2072C109.639 28.9733 110.487 28.9992 111.406 29.0166Z" fill="#001940"/>
<path d="M157.759 29.0425C157.759 29.109 157.759 29.1756 157.759 29.2442C156.221 29.5911 154.545 29.5782 153.004 29.2442C153.004 29.111 153.004 28.9779 153.004 28.8408C154.363 28.178 156.361 28.6787 157.759 29.0425Z" fill="#001940"/>
<path d="M95.7309 10.6895C96.8785 11.489 97.6258 12.4574 98.2121 13.7147C98.1438 13.8478 98.0756 13.9809 98.0053 14.118C97.9325 14.0133 97.8598 13.9085 97.7848 13.8005C97.0624 12.8052 96.3703 12.1535 95.3174 11.4962C95.4538 11.23 95.5903 10.9637 95.7309 10.6895Z" fill="#43B02A"/>
<path d="M110.824 29.042C111.643 29.042 112.462 29.042 113.305 29.042C113.305 29.2417 113.305 29.4413 113.305 29.647C111.566 29.7469 111.566 29.7469 109.791 29.8487C110.063 29.7822 110.336 29.7156 110.618 29.647C110.686 29.4474 110.754 29.2477 110.824 29.042Z" fill="#001940"/>
<path d="M115.58 29.0422C115.299 29.0297 115.299 29.0297 115.012 29.017C114.365 29.0413 114.053 29.1211 113.513 29.4456C113.444 29.379 113.376 29.3124 113.306 29.2439C112.958 29.1969 112.609 29.1607 112.259 29.1304C111.974 29.1051 111.974 29.1051 111.683 29.0792C111.463 29.0609 111.463 29.0609 111.238 29.0422C111.238 28.9756 111.238 28.9091 111.238 28.8405C114.537 28.3638 114.537 28.3638 115.58 29.0422Z" fill="#001940"/>
<path d="M88.2874 12.3027C88.5788 12.8711 88.3926 13.1443 88.197 13.7397C88.1376 13.9233 88.0781 14.1068 88.0169 14.2959C87.9461 14.5073 87.9461 14.5073 87.8739 14.7229C87.7375 14.5898 87.601 14.4567 87.4604 14.3195C87.2557 14.4194 87.2557 14.4194 87.0469 14.5212C87.307 13.612 87.6473 13.0104 88.2874 12.3027Z" fill="#43B02A"/>
<path d="M24.1912 23.3945C24.3277 23.4611 24.4641 23.5276 24.6047 23.5962C23.9224 24.2618 23.2401 24.9273 22.5371 25.613C22.5371 24.811 22.8225 24.5867 23.3642 23.9996C23.8294 23.634 23.8294 23.634 24.1912 23.3945Z" fill="#001940"/>
<path d="M110.114 29.0293C110.348 29.0335 110.583 29.0376 110.825 29.0419C110.756 29.2416 110.688 29.4412 110.618 29.6469C110.208 29.7135 109.799 29.7801 109.377 29.8486C109.309 29.649 109.241 29.4493 109.17 29.2436C109.377 29.0419 109.377 29.0419 110.114 29.0293Z" fill="#001940"/>
<path d="M113.926 28.8408C114.608 28.8408 115.291 28.8408 115.994 28.8408C115.925 28.9739 115.857 29.107 115.787 29.2442C115.069 29.4777 114.472 29.4597 113.719 29.4459C113.787 29.2462 113.856 29.0465 113.926 28.8408Z" fill="#001940"/>
<path d="M151.35 23.1934C151.486 23.2599 151.623 23.3265 151.763 23.395C151.218 23.9275 150.672 24.4599 150.109 25.0085C150.109 24.4034 150.109 24.4034 150.613 23.874C150.788 23.716 150.963 23.5579 151.143 23.395C151.211 23.3285 151.28 23.2619 151.35 23.1934Z" fill="#001940"/>
<path d="M109.17 23.1934C109.307 23.2599 109.443 23.3265 109.584 23.395C109.038 23.9275 108.492 24.4599 107.93 25.0085C107.93 24.4034 107.93 24.4034 108.434 23.874C108.609 23.716 108.783 23.5579 108.963 23.395C109.032 23.3285 109.1 23.2619 109.17 23.1934Z" fill="#001940"/>
<path d="M124.471 22.9912C124.607 23.0578 124.744 23.1243 124.884 23.1929C124.407 23.6588 123.929 24.1247 123.437 24.6047C123.3 24.5381 123.164 24.4715 123.023 24.403C123.506 23.9324 123.988 23.4618 124.471 22.9912Z" fill="#001940"/>
</svg>
