<svg width="109" height="32" viewBox="0 0 109 32" fill="none" xmlns="http://www.w3.org/2000/svg">
<path d="M21.3519 15.9155C21.7138 16.2214 21.924 16.5282 22.1512 16.9413C22.1889 16.7665 22.1889 16.7665 22.2272 16.5883C22.5264 15.8891 23.0407 15.4941 23.713 15.1513C25.2454 14.7211 26.9318 14.7961 28.3871 15.4617C29.0671 15.8789 29.3427 16.4693 29.58 17.2102C29.6509 17.6972 29.6554 18.1755 29.6528 18.6671C29.6544 18.8017 29.656 18.9363 29.6576 19.075C29.6624 19.501 29.6636 19.927 29.6644 20.353C29.6666 20.7819 29.6696 21.2108 29.6741 21.6397C29.6767 21.9056 29.678 22.1715 29.6777 22.4374C29.6787 22.5573 29.6796 22.6772 29.6806 22.8007C29.6807 22.906 29.6809 23.0113 29.6811 23.1199C29.6992 23.4368 29.6992 23.4368 29.9852 23.7984C30.4538 23.7368 30.8866 23.6786 31.3359 23.5295C31.3805 23.6626 31.425 23.7957 31.471 23.9328C30.5252 24.5046 29.7447 24.7652 28.6345 24.6051C28.0552 24.3954 27.6936 24.1189 27.2838 23.6639C27.1593 23.749 27.1593 23.749 27.0322 23.8357C26.923 23.9093 26.8138 23.983 26.7014 24.0589C26.5392 24.1689 26.5392 24.1689 26.3737 24.2811C25.5395 24.7988 24.4494 24.6877 23.5019 24.6051C22.7882 24.3566 22.2916 23.8905 21.8811 23.2606C21.8811 23.1718 21.8811 23.0831 21.8811 22.9917C21.7977 23.0631 21.7143 23.1345 21.6284 23.2081C20.2102 24.3856 19.1249 24.7914 17.2842 24.6421C16.6591 24.5551 16.1758 24.2914 15.668 23.9328C15.5813 23.876 15.4946 23.8191 15.4052 23.7606C14.5641 23.1371 13.9934 22.1249 13.777 21.1093C13.6655 19.2738 13.7497 17.7403 14.9858 16.27C16.782 14.5195 19.3526 14.51 21.3519 15.9155ZM17.0566 16.0353C16.3849 16.9425 16.3205 17.8405 16.2082 18.9581C17.5454 18.9581 18.8826 18.9581 20.2603 18.9581C20.2603 17.8022 20.2041 16.8422 19.357 15.9917C19.254 15.9057 19.1509 15.8197 19.0447 15.7312C19.0001 15.6868 18.9555 15.6424 18.9096 15.5967C18.1982 15.4923 17.5973 15.5045 17.0566 16.0353ZM24.4764 15.759C24.2745 16.0556 24.1405 16.3594 24 16.6891C23.6922 17.3222 23.6922 17.3222 23.2234 17.5127C22.8266 17.4791 22.8266 17.4791 22.2863 17.2102C22.42 17.9201 22.5538 18.63 22.6915 19.3614C20.552 19.4058 18.4126 19.4502 16.2082 19.4959C16.2082 20.9272 16.3489 21.8911 17.35 22.937C18.0356 23.5575 18.7035 23.6021 19.5981 23.5757C20.4696 23.473 21.0404 22.9812 21.5841 22.3178C21.8109 21.9435 21.8581 21.5789 21.9316 21.153C22.0785 20.6101 22.4046 20.2627 22.8266 19.8992C23.2768 19.6479 23.7453 19.4661 24.2279 19.2858C25.3771 18.8479 26.6439 18.325 27.2838 17.2102C27.3698 16.8034 27.3453 16.5628 27.2838 16.1345C26.9098 15.7392 26.6866 15.6079 26.1431 15.53C25.8971 15.5339 25.8971 15.5339 25.6461 15.5379C25.4814 15.5381 25.3167 15.5382 25.147 15.5384C24.7293 15.563 24.7293 15.563 24.4764 15.759ZM26.6169 18.9076C26.161 19.2172 25.6989 19.4916 25.2156 19.7564C24.6183 20.1152 24.2283 20.4244 24.0422 21.1093C23.9083 22.0695 24.0019 22.7476 24.5825 23.5295C25.0523 23.7633 25.5545 23.7234 26.0682 23.6639C26.7271 23.3433 26.9181 22.8248 27.1716 22.1753C27.3693 21.4819 27.3403 20.7992 27.3176 20.0841C27.3152 19.9363 27.3127 19.7884 27.3102 19.6361C27.3039 19.2755 27.2951 18.9152 27.2838 18.5547C27.0296 18.5547 26.8191 18.7697 26.6169 18.9076Z" fill="#F7FBFF"/>
<path d="M6.21325 10.6221C6.28011 13.2843 6.28011 13.2843 6.34831 16.0002C6.61575 15.7784 6.88318 15.5565 7.15872 15.328C8.02715 14.8671 9.2755 14.8984 10.2136 15.1562C11.0263 15.5332 11.4561 16.1175 11.8 16.9353C11.9584 17.4413 11.9457 17.949 11.9457 18.475C11.9484 18.6532 11.9484 18.6532 11.9511 18.835C11.9566 19.2122 11.9596 19.5894 11.9621 19.9666C11.9653 20.3438 11.9691 20.721 11.9745 21.0982C11.9777 21.3321 11.9798 21.566 11.9804 21.7999C11.9908 22.9638 11.9908 22.9638 12.5615 23.933C12.7843 24.0281 13.0093 24.1185 13.2368 24.2019C13.2368 24.2906 13.2368 24.3794 13.2368 24.4708C11.6322 24.4708 10.0276 24.4708 8.37434 24.4708C8.37434 24.3377 8.37434 24.2046 8.37434 24.0674C8.77549 24.0009 8.77549 24.0009 9.18475 23.933C9.48503 23.2078 9.49837 22.553 9.50026 21.7817C9.50116 21.6535 9.50206 21.5252 9.50298 21.3931C9.50434 21.1228 9.50498 20.8525 9.50494 20.5822C9.50553 20.1696 9.51044 19.7573 9.51556 19.3448C9.51635 19.0815 9.51689 18.8181 9.51714 18.5548C9.51908 18.4321 9.52102 18.3094 9.52302 18.183C9.51765 17.434 9.42555 16.9926 8.91461 16.4036C8.34328 16.0244 7.82971 16.0281 7.15872 16.1347C6.70675 16.4744 6.52663 16.6778 6.34831 17.2103C6.33534 17.4075 6.32966 17.6053 6.32869 17.803C6.32783 17.9223 6.32697 18.0417 6.32608 18.1647C6.32593 18.2933 6.32578 18.4218 6.32563 18.5543C6.32518 18.6868 6.32473 18.8192 6.32427 18.9557C6.32358 19.2359 6.32326 19.516 6.32329 19.7962C6.32299 20.225 6.32054 20.6537 6.31798 21.0824C6.31758 21.3546 6.31731 21.6267 6.31719 21.8989C6.31622 22.0272 6.31524 22.1555 6.31424 22.2877C6.31466 22.4074 6.31508 22.5272 6.3155 22.6507C6.31531 22.7557 6.31512 22.8608 6.31492 22.9691C6.35341 23.3053 6.43179 23.516 6.61845 23.7985C7.02933 23.9723 7.02933 23.9723 7.42886 24.0674C7.42886 24.2006 7.42886 24.3337 7.42886 24.4708C5.82425 24.4708 4.21964 24.4708 2.56641 24.4708C2.56641 24.3377 2.56641 24.2046 2.56641 24.0674C2.96756 24.0009 2.96756 24.0009 3.37682 23.933C3.63149 23.2907 3.68634 22.7114 3.68405 22.029C3.68474 21.922 3.68543 21.815 3.68614 21.7048C3.68801 21.3531 3.68789 21.0015 3.68758 20.6499C3.6881 20.4048 3.68869 20.1598 3.68933 19.9147C3.69034 19.4022 3.6903 18.8896 3.68959 18.3771C3.6888 17.7197 3.6911 17.0623 3.69423 16.4049C3.69621 15.8994 3.69634 15.3938 3.69591 14.8883C3.69598 14.6458 3.69669 14.4033 3.69805 14.1609C3.69971 13.8226 3.69881 13.4844 3.69724 13.1461C3.69827 13.0458 3.6993 12.9454 3.70037 12.842C3.69598 12.3082 3.69598 12.3082 3.46389 11.8398C3.1737 11.6542 2.90553 11.6089 2.56641 11.5632C2.56641 11.4301 2.56641 11.297 2.56641 11.1599C3.75417 10.8288 4.97888 10.6221 6.21325 10.6221Z" fill="#F7FBFF"/>
<path d="M47.9491 10.6221C48.0159 13.2843 48.0159 13.2843 48.0842 16.0002C48.3516 15.7784 48.619 15.5565 48.8946 15.328C49.763 14.8671 51.0113 14.8984 51.9494 15.1562C52.7622 15.5332 53.192 16.1175 53.5358 16.9353C53.6943 17.4413 53.6815 17.949 53.6816 18.475C53.6842 18.6532 53.6842 18.6532 53.687 18.835C53.6925 19.2122 53.6954 19.5894 53.6979 19.9666C53.7012 20.3438 53.705 20.721 53.7103 21.0982C53.7136 21.3321 53.7156 21.566 53.7162 21.7999C53.7267 22.9638 53.7267 22.9638 54.2973 23.933C54.5201 24.0281 54.7451 24.1185 54.9726 24.2019C54.9726 24.2906 54.9726 24.3794 54.9726 24.4708C53.368 24.4708 51.7634 24.4708 50.1102 24.4708C50.1102 24.3377 50.1102 24.2046 50.1102 24.0674C50.5113 24.0009 50.5113 24.0009 50.9206 23.933C51.2209 23.2078 51.2342 22.553 51.2361 21.7817C51.237 21.6535 51.2379 21.5252 51.2388 21.3931C51.2402 21.1228 51.2408 20.8525 51.2408 20.5822C51.2414 20.1696 51.2463 19.7573 51.2514 19.3448C51.2522 19.0815 51.2527 18.8181 51.253 18.5548C51.2549 18.4321 51.2569 18.3094 51.2589 18.183C51.2535 17.434 51.1614 16.9926 50.6504 16.4036C50.0791 16.0244 49.5656 16.0281 48.8946 16.1347C48.4426 16.4744 48.2625 16.6778 48.0842 17.2103C48.0712 17.4075 48.0655 17.6053 48.0645 17.803C48.0637 17.9223 48.0628 18.0417 48.0619 18.1647C48.0618 18.2933 48.0616 18.4218 48.0615 18.5543C48.061 18.6868 48.0606 18.8192 48.0601 18.9557C48.0594 19.2359 48.0591 19.516 48.0591 19.7962C48.0588 20.225 48.0564 20.6537 48.0538 21.0824C48.0534 21.3546 48.0532 21.6267 48.053 21.8989C48.0521 22.0272 48.0511 22.1555 48.0501 22.2877C48.0505 22.4074 48.0509 22.5272 48.0513 22.6507C48.0512 22.7557 48.051 22.8608 48.0508 22.9691C48.0893 23.3053 48.1676 23.516 48.3543 23.7985C48.7652 23.9723 48.7652 23.9723 49.1647 24.0674C49.1647 24.2006 49.1647 24.3337 49.1647 24.4708C47.5601 24.4708 45.9555 24.4708 44.3022 24.4708C44.3022 24.3377 44.3022 24.2046 44.3022 24.0674C44.4304 24.0369 44.5585 24.0064 44.6906 23.975C45.1246 23.8439 45.1246 23.8439 45.2718 23.519C45.4117 23.024 45.4216 22.5542 45.4199 22.0443C45.4206 21.9373 45.4213 21.8303 45.422 21.7201C45.4239 21.3677 45.4237 21.0154 45.4234 20.663C45.4239 20.4178 45.4245 20.1725 45.4252 19.9273C45.4262 19.4139 45.4261 18.9006 45.4254 18.3872C45.4246 17.7288 45.4269 17.0703 45.4301 16.4119C45.4321 15.9058 45.4322 15.3996 45.4318 14.8935C45.4318 14.6507 45.4325 14.4078 45.4339 14.165C45.4356 13.826 45.4346 13.4872 45.4331 13.1483C45.4341 13.0477 45.4351 12.9471 45.4362 12.8435C45.4319 12.3089 45.4319 12.3089 45.1997 11.8397C44.9095 11.6542 44.6413 11.6089 44.3022 11.5632C44.3022 11.4301 44.3022 11.297 44.3022 11.1599C45.49 10.8288 46.7147 10.6221 47.9491 10.6221Z" fill="#F7FBFF"/>
<path d="M35.6581 10.7561C35.6592 10.9115 35.6603 11.067 35.6614 11.2272C35.6718 12.6912 35.6837 14.1552 35.6969 15.6193C35.7037 16.372 35.7099 17.1246 35.7151 17.8773C35.72 18.6036 35.7263 19.3297 35.7334 20.0559C35.736 20.3332 35.738 20.6104 35.7396 20.8877C35.7418 21.2756 35.7458 21.6635 35.7501 22.0514C35.7504 22.1664 35.7507 22.2814 35.751 22.3998C35.7525 22.5058 35.754 22.6117 35.7555 22.7209C35.7563 22.8126 35.757 22.9043 35.7578 22.9988C35.8009 23.3175 35.8884 23.528 36.0633 23.7981C36.4742 23.9719 36.4742 23.9719 36.8737 24.067C36.8737 24.2001 36.8737 24.3332 36.8737 24.4704C35.2691 24.4704 33.6645 24.4704 32.0112 24.4704C32.0112 24.3373 32.0112 24.2042 32.0112 24.067C32.1394 24.0337 32.2675 24.0005 32.3996 23.9662C32.8174 23.8421 32.8174 23.8421 32.9809 23.5863C33.1395 23.1199 33.1293 22.6658 33.1267 22.1791C33.1272 22.0706 33.1277 21.9621 33.1282 21.8503C33.1294 21.4922 33.1286 21.1341 33.1277 20.776C33.1278 20.5273 33.1281 20.2785 33.1284 20.0297C33.1288 19.5086 33.1283 18.9876 33.127 18.4666C33.1255 17.7977 33.1263 17.1288 33.128 16.46C33.1289 15.9465 33.1286 15.433 33.1279 14.9195C33.1277 14.6728 33.128 14.426 33.1286 14.1793C33.1293 13.8352 33.1282 13.4912 33.1267 13.147C33.1273 13.0445 33.1278 12.942 33.1284 12.8363C33.1428 12.2725 33.1428 12.2725 32.8216 11.8317C32.5531 11.7783 32.2828 11.7325 32.0112 11.6973C32.0112 11.5198 32.0112 11.3423 32.0112 11.1594C32.5682 11.0656 33.1254 10.9737 33.6827 10.8821C33.9209 10.842 33.9209 10.842 34.1639 10.801C34.3154 10.7763 34.4668 10.7516 34.6229 10.7262C34.763 10.7029 34.903 10.6797 35.0473 10.6557C35.3879 10.6216 35.3879 10.6216 35.6581 10.7561Z" fill="#F7FBFF"/>
<path d="M40.6554 11.9663C40.8337 11.9663 41.012 11.9663 41.1957 11.9663C41.1957 13.0312 41.1957 14.0961 41.1957 15.1932C41.7751 15.1932 42.3546 15.1932 42.9516 15.1932C43.0184 15.4594 43.0184 15.4594 43.0866 15.731C42.4626 15.731 41.8386 15.731 41.1957 15.731C41.2083 16.7552 41.2226 17.7793 41.2385 18.8035C41.2437 19.152 41.2484 19.5004 41.2527 19.8489C41.2588 20.3496 41.2666 20.8502 41.2748 21.3508C41.2764 21.5068 41.2779 21.6628 41.2795 21.8236C41.2822 21.9689 41.2849 22.1142 41.2877 22.264C41.2895 22.3918 41.2913 22.5195 41.2931 22.6512C41.332 23.003 41.4215 23.2266 41.6009 23.5293C42.2537 23.5405 42.8485 23.523 43.4918 23.3949C43.5364 23.5724 43.581 23.7498 43.6269 23.9327C43.3712 24.0427 43.115 24.1518 42.8587 24.2604C42.7161 24.3213 42.5735 24.3821 42.4266 24.4448C41.5627 24.7738 40.6945 24.8925 39.8112 24.5882C39.3132 24.2501 39.0054 23.8558 38.8187 23.2802C38.754 22.936 38.7483 22.6142 38.7491 22.264C38.7491 22.1187 38.7491 21.9733 38.7491 21.8236C38.7498 21.6676 38.7505 21.5115 38.7513 21.3508C38.7514 21.1904 38.7516 21.03 38.7518 20.8647C38.7526 20.3524 38.7543 19.84 38.756 19.3277C38.7567 18.9803 38.7573 18.633 38.7578 18.2856C38.7593 17.4341 38.7616 16.5826 38.7644 15.731C38.3633 15.731 37.9621 15.731 37.5488 15.731C37.5488 15.5979 37.5488 15.4648 37.5488 15.3277C37.7104 15.2528 37.872 15.1779 38.0385 15.1008C39.3676 14.4264 40.1397 13.3553 40.6554 11.9663Z" fill="#F7FBFF"/>
<path d="M79.1499 15.0587C79.4619 15.0587 79.7739 15.0587 80.0954 15.0587C80.14 15.5468 80.1845 16.0348 80.2304 16.5377C80.3029 16.4157 80.3753 16.2937 80.4499 16.1679C80.795 15.6528 81.2385 15.2968 81.8418 15.1143C83.2348 14.8372 84.7573 14.8967 85.9861 15.6285C87.0141 16.3839 87.5582 17.441 87.7943 18.6889C87.9064 20.4161 87.8497 21.9322 86.6968 23.3276C85.7497 24.2765 84.8511 24.5168 83.5396 24.5377C82.6519 24.5264 81.784 24.4625 81.0409 23.9326C80.6397 23.4668 80.6397 23.4668 80.2304 22.9915C80.1859 24.5888 80.1413 26.1861 80.0954 27.8318C79.7834 27.8318 79.4714 27.8318 79.1499 27.8318C79.1499 23.6167 79.1499 19.4015 79.1499 15.0587ZM81.0815 16.6359C80.0776 17.8481 79.9709 19.1831 80.068 20.7039C80.1635 21.6482 80.4668 22.3551 81.1675 22.9999C82.1804 23.8197 83.3134 23.7615 84.5526 23.6637C85.4033 23.4523 85.9638 22.8966 86.4436 22.1847C87.0984 20.9906 87.1762 19.5565 86.8319 18.252C86.4858 17.2459 85.888 16.5143 84.9578 15.9999C83.6999 15.5825 82.0357 15.6686 81.0815 16.6359Z" fill="#F7FBFF"/>
<path d="M57.6742 8.20166C57.9034 8.65797 57.635 9.12367 57.4884 9.58821C57.0749 10.9217 56.706 12.2865 57.1592 13.6638C57.4583 14.054 57.6134 14.2126 58.0794 14.3865C58.9427 14.4594 59.7917 14.3804 60.6457 14.2521C60.3708 14.5358 60.1122 14.7852 59.7846 15.0084C58.8368 15.862 58.3162 17.1221 58.1738 18.3741C58.1555 18.7406 58.1513 19.1036 58.1553 19.4706C58.1562 19.5995 58.157 19.7285 58.1579 19.8613C58.1875 21.207 58.4303 22.4534 59.295 23.5294C59.2504 23.6181 59.2058 23.7069 59.1599 23.7983C58.1463 22.849 57.2608 21.9378 56.5936 20.7059C56.5316 20.5918 56.4697 20.4778 56.4058 20.3603C55.0402 17.6169 55.0029 14.4288 55.9621 11.5515C56.8489 9.02321 56.8489 9.02321 57.6742 8.20166Z" fill="#EF5728"/>
<path d="M75.9536 15.425C76.4527 15.8063 76.7869 16.2038 76.9888 16.8068C77.0036 17.0178 77.0112 17.2293 77.0144 17.4407C77.0166 17.5691 77.0189 17.6974 77.0212 17.8296C77.0231 17.9678 77.0249 18.1061 77.0268 18.2485C77.0305 18.4615 77.0305 18.4615 77.0343 18.6789C77.045 19.2876 77.0541 19.8963 77.0634 20.5051C77.0704 20.949 77.0781 21.3928 77.0859 21.8367C77.0877 21.9752 77.0895 22.1137 77.0914 22.2565C77.0937 22.3843 77.096 22.5122 77.0983 22.644C77.1 22.7568 77.1017 22.8697 77.1034 22.9859C77.107 23.2695 77.107 23.2695 77.2589 23.5295C77.5725 23.5842 77.8879 23.6296 78.2044 23.6639C78.2102 23.8879 78.2099 24.1122 78.2044 24.3362C77.9814 24.5582 77.7256 24.5095 77.4193 24.5211C76.7704 24.5146 76.7704 24.5146 76.3726 24.1765C76.1871 23.8154 76.0894 23.5274 76.0433 23.1261C75.9542 23.2481 75.865 23.3701 75.7732 23.4959C75.2857 24.0698 74.7043 24.4096 73.9514 24.5198C73.5891 24.5379 73.2318 24.5375 72.8692 24.5295C72.6872 24.5309 72.6872 24.5309 72.5015 24.5324C71.609 24.524 70.8024 24.4263 70.0924 23.8362C70.031 23.7572 69.9695 23.6781 69.9062 23.5967C69.8423 23.5177 69.7784 23.4386 69.7125 23.3572C69.2947 22.7239 69.3694 21.9702 69.425 21.2438C69.6601 20.5141 70.1487 20.0531 70.7757 19.6303C71.2734 19.4022 71.7125 19.3119 72.2567 19.2611C72.4093 19.2456 72.5619 19.2301 72.7191 19.2141C73.0381 19.1835 73.3571 19.1534 73.6762 19.1237C74.978 18.9964 74.978 18.9964 76.0433 18.2858C76.1285 17.7255 76.0986 17.2163 75.8914 16.6891C75.5246 16.2753 75.1159 16.0416 74.5596 15.9614C74.2652 15.946 73.9744 15.945 73.6796 15.9496C73.531 15.9473 73.531 15.9473 73.3794 15.9449C72.5275 15.9495 71.971 16.1603 71.3497 16.7648C70.9808 17.2335 70.8859 17.7071 70.7757 18.2858C70.5082 18.2858 70.2408 18.2858 69.9653 18.2858C69.8683 17.3981 70.1202 16.7257 70.6406 16.0001C71.9569 14.8436 74.3924 14.555 75.9536 15.425ZM75.5267 19.3554C75.1616 19.5299 74.853 19.5561 74.4499 19.5914C74.2981 19.6064 74.1463 19.6213 73.9899 19.6366C73.6727 19.6658 73.3554 19.6942 73.0381 19.7217C72.0166 19.8238 71.0881 19.9359 70.3705 20.7396C70.1232 21.4165 70.1531 21.9608 70.3958 22.6219C70.7134 23.1016 71.0707 23.4074 71.5861 23.6639C73.38 23.8223 73.38 23.8223 74.9628 23.1261C75.6363 22.5298 76.0233 21.8601 76.1784 20.9748C76.2082 20.3903 76.2029 19.8116 76.1784 19.2269C75.7866 19.1958 75.7866 19.1958 75.5267 19.3554Z" fill="#F7FBFF"/>
<path d="M103.508 15.4246C103.958 15.7701 104.287 16.1629 104.543 16.6725C104.559 16.888 104.567 17.1041 104.571 17.3201C104.575 17.522 104.575 17.522 104.579 17.7279C104.581 17.8736 104.583 18.0193 104.586 18.1693C104.588 18.3182 104.591 18.467 104.594 18.6204C104.603 19.0971 104.611 19.5739 104.619 20.0506C104.625 20.3733 104.631 20.6959 104.636 21.0186C104.651 21.8108 104.665 22.603 104.678 23.3952C105.034 23.5283 105.391 23.6614 105.758 23.7985C105.714 24.0204 105.669 24.2422 105.623 24.4708C105.167 24.5098 104.728 24.5278 104.273 24.4708C103.811 24.0788 103.666 23.7202 103.597 23.1263C103.508 23.2483 103.419 23.3703 103.327 23.496C102.84 24.0699 102.258 24.4098 101.505 24.52C101.143 24.538 100.786 24.5377 100.423 24.5296C100.241 24.5311 100.241 24.5311 100.056 24.5325C99.163 24.5241 98.3565 24.4265 97.6464 23.8364C97.585 23.7573 97.5235 23.6783 97.4602 23.5969C97.3963 23.5178 97.3324 23.4388 97.2666 23.3574C96.849 22.7246 96.9225 21.9699 96.979 21.2439C97.2678 20.3815 97.897 19.9102 98.6695 19.485C99.3508 19.1522 100.021 19.1221 100.769 19.0843C101.877 19.0239 102.658 18.9093 103.597 18.2859C103.709 17.7327 103.65 17.2109 103.445 16.6893C103.079 16.2755 102.67 16.0418 102.114 15.9616C101.819 15.9461 101.528 15.9452 101.234 15.9498C101.085 15.9475 101.085 15.9475 100.933 15.9451C100.082 15.9496 99.525 16.1605 98.9037 16.7649C98.5349 17.2337 98.4399 17.7073 98.3297 18.2859C98.0623 18.2859 97.7948 18.2859 97.5193 18.2859C97.4224 17.3983 97.6743 16.7259 98.1946 16.0002C99.512 14.8429 101.945 14.5568 103.508 15.4246ZM103.071 19.2854C102.366 19.5218 101.685 19.5886 100.947 19.6389C99.4779 19.7056 99.4779 19.7056 98.2115 20.3616C97.7948 20.8618 97.7497 21.2658 97.7604 21.9083C97.8248 22.5225 98.09 22.8979 98.5407 23.3027C99.3638 23.87 100.464 23.7491 101.436 23.6641C102.281 23.4614 102.866 22.9031 103.327 22.1851C103.845 21.2082 103.774 20.1701 103.732 19.0927C103.499 19.0927 103.288 19.2057 103.071 19.2854Z" fill="#F7FBFF"/>
<path d="M66.2848 15.3947C67.1519 15.9004 67.8079 16.6316 68.0744 17.6132C68.0913 17.9914 68.0913 17.9914 68.0744 18.2855C67.807 18.2855 67.5396 18.2855 67.264 18.2855C67.2366 18.1685 67.2366 18.1685 67.2086 18.0491C66.9782 17.2167 66.655 16.7282 65.9134 16.2687C65.0065 15.8102 63.6991 15.8452 62.7239 16.0875C61.8971 16.4599 61.3115 17.1527 60.9412 17.9662C60.4227 19.433 60.6025 20.7536 61.186 22.1846C61.52 22.8166 62.0443 23.1756 62.6997 23.4357C63.6629 23.6744 64.8074 23.7244 65.7276 23.3107C66.6935 22.7113 67.0331 21.8701 67.3991 20.8401C67.6665 20.8401 67.934 20.8401 68.2095 20.8401C68.0066 22.0124 67.6537 22.8641 66.7238 23.6636C65.5102 24.5022 64.393 24.6014 62.9419 24.4704C61.8517 24.2121 61.098 23.7119 60.4937 22.7729C59.6646 21.3136 59.4164 19.7429 59.8606 18.1006C60.2667 16.9572 60.9695 15.8939 62.0959 15.3483C63.3959 14.8125 65.0045 14.8101 66.2848 15.3947Z" fill="#F7FBFF"/>
<path d="M93.3321 12.1011C93.5995 12.1011 93.8669 12.1011 94.1425 12.1011C94.1425 13.0772 94.1425 14.0533 94.1425 15.0591C94.8111 15.0591 95.4796 15.0591 96.1685 15.0591C96.1685 15.2809 96.1685 15.5028 96.1685 15.7313C95.4999 15.7313 94.8313 15.7313 94.1425 15.7313C94.1484 16.7555 94.1578 17.7796 94.1705 18.8038C94.1743 19.1523 94.1772 19.5008 94.1791 19.8492C94.182 20.3499 94.1883 20.8504 94.1952 21.3511C94.1954 21.5071 94.1956 21.6632 94.1957 21.8239C94.1984 21.9692 94.2011 22.1146 94.2038 22.2643C94.205 22.3921 94.2062 22.5199 94.2074 22.6515C94.298 23.0913 94.471 23.2515 94.8178 23.5296C95.1638 23.6501 95.1638 23.6501 95.5269 23.6977C95.6474 23.7178 95.7679 23.7379 95.892 23.7586C95.9833 23.7718 96.0745 23.785 96.1685 23.7986C96.1685 24.0648 96.1685 24.331 96.1685 24.6053C95.265 24.6368 94.5272 24.6087 93.7626 24.0675C93.069 23.1206 93.1645 21.8718 93.2002 20.7471C93.2035 20.6028 93.2069 20.4584 93.2104 20.3097C93.2214 19.8536 93.2345 19.3975 93.2476 18.9414C93.2555 18.6301 93.2633 18.3189 93.2709 18.0076C93.2897 17.2488 93.3104 16.4901 93.3321 15.7313C92.7526 15.7313 92.1732 15.7313 91.5762 15.7313C91.5762 15.5095 91.5762 15.2876 91.5762 15.0591C92.1556 15.0591 92.7351 15.0591 93.3321 15.0591C93.3321 14.0829 93.3321 13.1068 93.3321 12.1011Z" fill="#F7FBFF"/>
<path d="M62.4521 6.94967C63.2022 7.59167 63.9712 8.4148 64.1573 9.41186C63.482 8.73959 63.482 8.73959 63.1781 8.41186C61.9409 7.26427 60.5295 6.66826 58.8295 6.6939C57.1694 6.83287 55.698 7.5192 54.5675 8.73959C53.453 10.2305 53.2035 11.7631 53.3518 13.5799C53.4562 14.0044 53.5972 14.3817 53.7571 14.79C53.7125 14.9231 53.6679 15.0562 53.622 15.1934C52.6469 13.4169 52.2798 11.9319 52.8142 9.95387C53.3734 8.233 54.3796 7.15824 55.9535 6.28423C58.1059 5.24949 60.5425 5.52692 62.4521 6.94967Z" fill="#EF5728"/>
<path d="M89.5503 15.0586C89.8623 15.0586 90.1743 15.0586 90.4958 15.0586C90.4958 18.1645 90.4958 21.2704 90.4958 24.4704C90.1838 24.4704 89.8718 24.4704 89.5503 24.4704C89.5503 21.3645 89.5503 18.2586 89.5503 15.0586Z" fill="#F7FBFF"/>
<path d="M59.1431 11C59.5652 11.0252 59.5652 11.0252 59.9704 11.2941C60.1254 11.779 60.1273 12.0371 59.962 12.521C59.6519 12.979 59.3856 13.1987 58.8899 13.4454C58.4545 13.4454 58.2886 13.3748 57.9613 13.0924C57.7352 12.6172 57.8032 12.3326 57.9444 11.8319C58.2821 11.4454 58.2821 11.4454 58.6198 11.1597C58.7548 11.0252 58.7548 11.0252 59.1431 11Z" fill="#EF5728"/>
<path d="M89.5503 11.2939C89.8623 11.2939 90.1743 11.2939 90.4958 11.2939C90.4958 11.9151 90.4958 12.5363 90.4958 13.1763C90.1838 13.1763 89.8718 13.1763 89.5503 13.1763C89.5503 12.5551 89.5503 11.9339 89.5503 11.2939Z" fill="#F7FBFF"/>
<path d="M72.7764 19.3446C72.8957 19.3458 73.0151 19.347 73.1381 19.3482C73.4312 19.3514 73.7243 19.3562 74.0173 19.3614C74.0173 19.4945 74.0173 19.6276 74.0173 19.7647C73.7852 19.7892 73.7852 19.7892 73.5483 19.8141C73.3416 19.8368 73.135 19.8596 72.9283 19.8824C72.8267 19.8929 72.7252 19.9035 72.6205 19.9144C71.9789 19.9863 71.3915 20.1088 70.7757 20.3025C70.7311 20.2138 70.6865 20.1251 70.6406 20.0336C70.7757 19.6303 70.7757 19.6303 71.039 19.4717C71.6217 19.3157 72.1761 19.333 72.7764 19.3446Z" fill="#F7FBFF"/>
<path d="M103.057 19.3613C103.057 19.4057 103.057 19.4501 103.057 19.4958C102.052 19.727 100.957 19.7185 99.9502 19.4958C99.9502 19.407 99.9502 19.3183 99.9502 19.2269C100.838 18.785 102.143 19.1188 103.057 19.3613Z" fill="#F7FBFF"/>
<path d="M62.5367 7.12598C63.2864 7.65904 63.7746 8.3046 64.1576 9.14278C64.113 9.23152 64.0684 9.32026 64.0225 9.41169C63.975 9.34184 63.9274 9.272 63.8785 9.20003C63.4065 8.53648 62.9544 8.10198 62.2666 7.66379C62.3557 7.48631 62.4449 7.30883 62.5367 7.12598Z" fill="#EF5728"/>
<path d="M72.3965 19.3613C72.9314 19.3613 73.4663 19.3613 74.0174 19.3613C74.0174 19.4944 74.0174 19.6275 74.0174 19.7647C72.8808 19.8312 72.8808 19.8312 71.7212 19.8991C71.8995 19.8548 72.0778 19.8104 72.2615 19.7647C72.306 19.6316 72.3506 19.4985 72.3965 19.3613Z" fill="#F7FBFF"/>
<path d="M75.5029 19.3611C75.3191 19.3528 75.3191 19.3528 75.1315 19.3443C74.709 19.3605 74.5053 19.4138 74.1523 19.63C74.1077 19.5857 74.0631 19.5413 74.0172 19.4956C73.79 19.4643 73.5618 19.4401 73.3334 19.42C73.1472 19.4031 73.1472 19.4031 72.9572 19.3858C72.8133 19.3736 72.8133 19.3736 72.6665 19.3611C72.6665 19.3168 72.6665 19.2724 72.6665 19.2267C74.8215 18.9089 74.8215 18.9089 75.5029 19.3611Z" fill="#F7FBFF"/>
<path d="M57.6742 8.20166C57.8645 8.58057 57.7429 8.76271 57.6151 9.15964C57.5763 9.28201 57.5374 9.40437 57.4974 9.53044C57.4512 9.67135 57.4512 9.67135 57.404 9.81511C57.3149 9.72637 57.2258 9.63763 57.1339 9.5462C57.0002 9.61275 57.0002 9.61275 56.8638 9.68065C57.0337 9.07453 57.256 8.67342 57.6742 8.20166Z" fill="#EF5728"/>
<path d="M15.8032 15.5967C15.8923 15.641 15.9815 15.6854 16.0733 15.7311C15.6276 16.1748 15.1819 16.6185 14.7227 17.0757C14.7227 16.541 14.9091 16.3914 15.2629 16C15.5668 15.7563 15.5668 15.7563 15.8032 15.5967Z" fill="#F7FBFF"/>
<path d="M71.9322 19.353C72.0854 19.3558 72.2386 19.3586 72.3965 19.3614C72.3519 19.4945 72.3073 19.6276 72.2614 19.7648C71.994 19.8092 71.7265 19.8535 71.451 19.8992C71.4064 19.7661 71.3618 19.633 71.3159 19.4959C71.451 19.3614 71.451 19.3614 71.9322 19.353Z" fill="#F7FBFF"/>
<path d="M74.4227 19.2271C74.8684 19.2271 75.3141 19.2271 75.7733 19.2271C75.7288 19.3158 75.6842 19.4045 75.6383 19.496C75.1692 19.6516 74.7792 19.6396 74.2876 19.6304C74.3322 19.4973 74.3767 19.3642 74.4227 19.2271Z" fill="#F7FBFF"/>
<path d="M98.87 15.4624C98.9591 15.5068 99.0483 15.5511 99.1401 15.5969C98.7835 15.9518 98.427 16.3068 98.0596 16.6725C98.0596 16.2691 98.0596 16.2691 98.3888 15.9162C98.503 15.8108 98.6172 15.7054 98.7349 15.5969C98.7795 15.5525 98.8241 15.5081 98.87 15.4624Z" fill="#F7FBFF"/>
<path d="M71.3158 15.4624C71.4049 15.5068 71.4941 15.5511 71.5859 15.5969C71.2293 15.9518 70.8728 16.3068 70.5054 16.6725C70.5054 16.2691 70.5054 16.2691 70.8346 15.9162C70.9488 15.8108 71.063 15.7054 71.1807 15.5969C71.2253 15.5525 71.2699 15.5081 71.3158 15.4624Z" fill="#F7FBFF"/>
<path d="M81.3112 15.3276C81.4003 15.372 81.4895 15.4164 81.5813 15.4621C81.2693 15.7727 80.9573 16.0833 80.6359 16.4033C80.5467 16.3589 80.4576 16.3145 80.3657 16.2688C80.6809 15.9551 80.996 15.6414 81.3112 15.3276Z" fill="#F7FBFF"/>
</svg>
