<svg width="167" height="48" viewBox="0 0 167 48" fill="none" xmlns="http://www.w3.org/2000/svg">
<path d="M32.6856 23.8733C33.2395 24.3321 33.5614 24.7923 33.9092 25.4119C33.9668 25.1498 33.9668 25.1498 34.0255 24.8825C34.4835 23.8336 35.2707 23.2412 36.2999 22.727C38.6458 22.0816 41.2273 22.1942 43.455 23.1926C44.4961 23.8183 44.9179 24.7039 45.2812 25.8152C45.3898 26.5459 45.3966 27.2632 45.3926 28.0006C45.3951 28.2026 45.3975 28.4045 45.4 28.6125C45.4073 29.2515 45.4092 29.8904 45.4104 30.5295C45.4138 31.1729 45.4183 31.8162 45.4252 32.4595C45.4293 32.8583 45.4312 33.2572 45.4308 33.6561C45.4322 33.8359 45.4336 34.0158 45.4351 34.201C45.4354 34.359 45.4356 34.517 45.4359 34.6798C45.4637 35.1552 45.4637 35.1552 45.9015 35.6976C46.6188 35.6052 47.2814 35.5178 47.9691 35.2942C48.0373 35.4939 48.1055 35.6936 48.1758 35.8993C46.7281 36.757 45.5333 37.1479 43.8338 36.9077C42.947 36.5931 42.3934 36.1783 41.7662 35.4959C41.5755 35.6234 41.5755 35.6234 41.381 35.7535C41.2138 35.864 41.0467 35.9745 40.8745 36.0883C40.6263 36.2533 40.6263 36.2533 40.373 36.4216C39.0959 37.1983 37.4273 37.0315 35.9769 36.9077C34.8843 36.5349 34.1241 35.8358 33.4957 34.8909C33.4957 34.7578 33.4957 34.6246 33.4957 34.4875C33.368 34.5946 33.2404 34.7017 33.1088 34.8121C30.9379 36.5784 29.2764 37.1871 26.4588 36.9631C25.5018 36.8326 24.762 36.4372 23.9846 35.8993C23.8519 35.814 23.7192 35.7287 23.5824 35.6409C22.2948 34.7057 21.4212 33.1873 21.09 31.664C20.9193 28.9107 21.0481 26.6104 22.9403 24.405C25.6899 21.7792 29.625 21.765 32.6856 23.8733ZM26.1104 24.0529C25.0821 25.4137 24.9836 26.7607 24.8117 28.4371C26.8586 28.4371 28.9056 28.4371 31.0146 28.4371C31.0146 26.7033 30.9285 25.2633 29.6318 23.9875C29.4741 23.8586 29.3163 23.7296 29.1537 23.5967C29.0855 23.5302 29.0172 23.4636 28.9469 23.3951C27.8579 23.2385 26.9381 23.2568 26.1104 24.0529ZM37.4686 23.6385C37.1596 24.0834 36.9544 24.5392 36.7393 25.0337C36.2682 25.9833 36.2682 25.9833 35.5504 26.269C34.9431 26.2186 34.9431 26.2186 34.116 25.8152C34.3207 26.8801 34.5254 27.945 34.7363 29.0421C31.4612 29.1087 28.1861 29.1752 24.8117 29.2438C24.8117 31.3907 25.0269 32.8367 26.5595 34.4056C27.6089 35.3362 28.6314 35.4032 30.0009 35.3636C31.3349 35.2094 32.2087 34.4718 33.041 33.4767C33.3882 32.9153 33.4604 32.3684 33.573 31.7296C33.7978 30.9152 34.2971 30.3941 34.9431 29.8489C35.6322 29.4719 36.3494 29.1992 37.0882 28.9287C38.8473 28.2718 40.7866 27.4874 41.7662 25.8152C41.8978 25.2052 41.8603 24.8442 41.7662 24.2018C41.1936 23.6088 40.8519 23.4119 40.02 23.295C39.6434 23.3009 39.6434 23.3009 39.2592 23.3068C39.0071 23.3071 38.7549 23.3074 38.4952 23.3076C37.8558 23.3444 37.8558 23.3444 37.4686 23.6385ZM40.7453 28.3615C40.0474 28.8258 39.34 29.2374 38.6002 29.6346C37.6857 30.1728 37.0888 30.6366 36.8039 31.664C36.5989 33.1043 36.7422 34.1214 37.631 35.2942C38.3502 35.645 39.119 35.5851 39.9053 35.4959C40.9139 35.0149 41.2063 34.2372 41.5943 33.2629C41.897 32.2228 41.8526 31.1988 41.8179 30.1262C41.8142 29.9044 41.8104 29.6826 41.8066 29.4542C41.7969 28.9133 41.7834 28.3728 41.7662 27.832C41.377 27.832 41.0548 28.1545 40.7453 28.3615Z" fill="#F7FBFF"/>
<path d="M9.51129 15.9326C9.61364 19.9259 9.61364 19.9259 9.71805 23.9998C10.1274 23.6671 10.5368 23.3343 10.9586 22.9914C12.288 22.3001 14.199 22.3471 15.635 22.7338C16.8791 23.2994 17.5371 24.1757 18.0635 25.4024C18.306 26.1614 18.2865 26.9229 18.2866 27.712C18.2907 27.9793 18.2907 27.9793 18.2948 28.252C18.3033 28.8178 18.3078 29.3836 18.3116 29.9494C18.3165 30.5153 18.3224 31.081 18.3306 31.6468C18.3356 31.9977 18.3387 32.3485 18.3396 32.6994C18.3556 34.4451 18.3556 34.4451 19.2291 35.899C19.5703 36.0416 19.9147 36.1772 20.2629 36.3024C20.2629 36.4355 20.2629 36.5686 20.2629 36.7057C17.8066 36.7057 15.3503 36.7057 12.8195 36.7057C12.8195 36.5061 12.8195 36.3064 12.8195 36.1007C13.4336 36.0009 13.4336 36.0009 14.0601 35.899C14.5197 34.8113 14.5402 33.8289 14.543 32.6721C14.5444 32.4797 14.5458 32.2873 14.5472 32.0891C14.5493 31.6837 14.5503 31.2782 14.5502 30.8727C14.5511 30.2539 14.5586 29.6354 14.5665 29.0167C14.5677 28.6217 14.5685 28.2267 14.5689 27.8318C14.5719 27.6477 14.5748 27.4636 14.5779 27.274C14.5697 26.1504 14.4287 25.4884 13.6465 24.6049C12.7719 24.0362 11.9858 24.0417 10.9586 24.2015C10.2667 24.7111 9.99103 25.0162 9.71805 25.815C9.69819 26.1108 9.6895 26.4075 9.68802 26.704C9.6867 26.883 9.68538 27.0621 9.68402 27.2465C9.68379 27.4394 9.68356 27.6323 9.68332 27.831C9.68264 28.0297 9.68195 28.2283 9.68124 28.433C9.68019 28.8533 9.67971 29.2736 9.67974 29.6938C9.67929 30.337 9.67553 30.98 9.67161 31.6231C9.67101 32.0314 9.6706 32.4396 9.6704 32.8478C9.66892 33.0403 9.66743 33.2327 9.6659 33.431C9.66654 33.6107 9.66717 33.7904 9.66783 33.9755C9.66753 34.1331 9.66724 34.2907 9.66693 34.4531C9.72586 34.9574 9.84584 35.2735 10.1316 35.6973C10.7605 35.958 10.7605 35.958 11.3722 36.1007C11.3722 36.3003 11.3722 36.5 11.3722 36.7057C8.91582 36.7057 6.45948 36.7057 3.92871 36.7057C3.92871 36.5061 3.92871 36.3064 3.92871 36.1007C4.54279 36.0009 4.54279 36.0009 5.16928 35.899C5.55914 34.9356 5.64311 34.0666 5.6396 33.043C5.64065 32.8825 5.64171 32.722 5.6428 32.5566C5.64566 32.0292 5.64548 31.5018 5.645 30.9744C5.6458 30.6068 5.6467 30.2392 5.64768 29.8716C5.64922 29.1028 5.64917 28.334 5.64808 27.5652C5.64688 26.579 5.65039 25.593 5.65518 24.6069C5.65822 23.8486 5.65841 23.0903 5.65776 22.3319C5.65787 21.9682 5.65895 21.6045 5.66103 21.2408C5.66358 20.7334 5.66219 20.2261 5.65979 19.7187C5.66137 19.5681 5.66295 19.4176 5.66458 19.2625C5.65786 18.4618 5.65786 18.4618 5.30258 17.7593C4.85836 17.4808 4.44785 17.4128 3.92871 17.3444C3.92871 17.1447 3.92871 16.9451 3.92871 16.7393C5.74694 16.2427 7.62172 15.9326 9.51129 15.9326Z" fill="#F7FBFF"/>
<path d="M73.4005 15.9326C73.5028 19.9259 73.5028 19.9259 73.6072 23.9998C74.0166 23.6671 74.426 23.3343 74.8478 22.9914C76.1772 22.3001 78.0881 22.3471 79.5242 22.7338C80.7683 23.2994 81.4262 24.1757 81.9527 25.4024C82.1952 26.1614 82.1756 26.9229 82.1757 27.712C82.1798 27.9793 82.1798 27.9793 82.184 28.252C82.1924 28.8178 82.1969 29.3836 82.2008 29.9494C82.2057 30.5153 82.2116 31.081 82.2197 31.6468C82.2247 31.9977 82.2278 32.3485 82.2288 32.6994C82.2448 34.4451 82.2448 34.4451 83.1183 35.899C83.4594 36.0416 83.8038 36.1772 84.1521 36.3024C84.1521 36.4355 84.1521 36.5686 84.1521 36.7057C81.6958 36.7057 79.2394 36.7057 76.7086 36.7057C76.7086 36.5061 76.7086 36.3064 76.7086 36.1007C77.3227 36.0009 77.3227 36.0009 77.9492 35.899C78.4089 34.8113 78.4293 33.8289 78.4322 32.6721C78.4336 32.4797 78.435 32.2873 78.4364 32.0891C78.4385 31.6837 78.4394 31.2782 78.4394 30.8727C78.4403 30.2539 78.4478 29.6354 78.4556 29.0167C78.4568 28.6217 78.4577 28.2267 78.4581 27.8318C78.461 27.6477 78.464 27.4636 78.4671 27.274C78.4588 26.1504 78.3179 25.4884 77.5357 24.6049C76.6611 24.0362 75.8749 24.0417 74.8478 24.2015C74.1559 24.7111 73.8802 25.0162 73.6072 25.815C73.5874 26.1108 73.5787 26.4075 73.5772 26.704C73.5759 26.883 73.5745 27.0621 73.5732 27.2465C73.573 27.4394 73.5727 27.6323 73.5725 27.831C73.5718 28.0297 73.5711 28.2283 73.5704 28.433C73.5694 28.8533 73.5689 29.2736 73.5689 29.6938C73.5684 30.337 73.5647 30.98 73.5608 31.6231C73.5602 32.0314 73.5598 32.4396 73.5596 32.8478C73.5581 33.0403 73.5566 33.2327 73.5551 33.431C73.5557 33.6107 73.5563 33.7904 73.557 33.9755C73.5567 34.1331 73.5564 34.2907 73.5561 34.4531C73.615 34.9574 73.735 35.2735 74.0207 35.6973C74.6497 35.958 74.6497 35.958 75.2613 36.1007C75.2613 36.3003 75.2613 36.5 75.2613 36.7057C72.805 36.7057 70.3486 36.7057 67.8179 36.7057C67.8179 36.5061 67.8179 36.3064 67.8179 36.1007C68.014 36.0549 68.2102 36.0092 68.4123 35.962C69.0768 35.7653 69.0768 35.7653 69.302 35.278C69.5162 34.5354 69.5314 33.8307 69.5288 33.0659C69.5298 32.9054 69.5309 32.745 69.532 32.5796C69.5348 32.0511 69.5346 31.5226 69.5342 30.9941C69.535 30.6262 69.5359 30.2583 69.5368 29.8904C69.5384 29.1204 69.5383 28.3504 69.5372 27.5804C69.536 26.5927 69.5395 25.605 69.5443 24.6173C69.5474 23.8581 69.5476 23.099 69.5469 22.3398C69.547 21.9755 69.5481 21.6112 69.5502 21.247C69.5527 20.7386 69.5514 20.2303 69.5489 19.7219C69.5505 19.571 69.5521 19.4201 69.5537 19.2647C69.5472 18.4629 69.5472 18.4629 69.1917 17.7591C68.7475 17.4808 68.3369 17.4128 67.8179 17.3444C67.8179 17.1447 67.8179 16.9451 67.8179 16.7393C69.6361 16.2427 71.5109 15.9326 73.4005 15.9326Z" fill="#F7FBFF"/>
<path d="M54.585 16.1346C54.5867 16.3678 54.5884 16.601 54.5901 16.8413C54.6061 19.0373 54.6242 21.2333 54.6445 23.4294C54.6548 24.5584 54.6644 25.6874 54.6723 26.8165C54.6799 27.9058 54.6895 28.9951 54.7004 30.0844C54.7042 30.5003 54.7074 30.9161 54.7098 31.332C54.7133 31.9139 54.7193 32.4957 54.7259 33.0776C54.7263 33.2501 54.7268 33.4225 54.7272 33.6003C54.7295 33.7592 54.7318 33.9181 54.7342 34.0819C54.7354 34.2194 54.7365 34.357 54.7377 34.4987C54.8036 34.9767 54.9375 35.2924 55.2053 35.6976C55.8343 35.9583 55.8343 35.9583 56.4459 36.101C56.4459 36.3007 56.4459 36.5003 56.4459 36.706C53.9895 36.706 51.5332 36.706 49.0024 36.706C49.0024 36.5064 49.0024 36.3067 49.0024 36.101C49.1986 36.0511 49.3948 36.0012 49.5969 35.9497C50.2365 35.7637 50.2365 35.7637 50.4868 35.3799C50.7297 34.6803 50.714 33.9992 50.71 33.2691C50.7108 33.1064 50.7115 32.9436 50.7122 32.776C50.7141 32.2388 50.7129 31.7017 50.7115 31.1646C50.7117 30.7914 50.7121 30.4182 50.7127 30.045C50.7133 29.2634 50.7124 28.4819 50.7105 27.7003C50.7081 26.697 50.7095 25.6937 50.7119 24.6904C50.7134 23.9202 50.7129 23.1499 50.7119 22.3797C50.7116 22.0096 50.7119 21.6396 50.7129 21.2695C50.7139 20.7533 50.7124 20.2372 50.71 19.7211C50.7109 19.5672 50.7117 19.4134 50.7126 19.255C50.7346 18.4092 50.7346 18.4092 50.243 17.7481C49.8319 17.6679 49.4181 17.5993 49.0024 17.5464C49.0024 17.2802 49.0024 17.0139 49.0024 16.7397C49.855 16.5989 50.708 16.461 51.5611 16.3237C51.9257 16.2634 51.9257 16.2634 52.2977 16.202C52.5296 16.1649 52.7615 16.1279 53.0004 16.0897C53.2148 16.0549 53.4292 16.02 53.6501 15.9841C54.1715 15.9329 54.1715 15.9329 54.585 16.1346Z" fill="#F7FBFF"/>
<path d="M62.2355 17.9497C62.5084 17.9497 62.7814 17.9497 63.0626 17.9497C63.0626 19.547 63.0626 21.1443 63.0626 22.79C63.9496 22.79 64.8366 22.79 65.7505 22.79C65.8528 23.1894 65.8528 23.1894 65.9572 23.5968C65.002 23.5968 64.0468 23.5968 63.0626 23.5968C63.0819 25.133 63.1038 26.6693 63.1282 28.2055C63.1361 28.7282 63.1433 29.2509 63.1498 29.7736C63.1592 30.5246 63.1712 31.2755 63.1837 32.0264C63.1861 32.2604 63.1885 32.4945 63.1909 32.7357C63.1951 32.9536 63.1992 33.1716 63.2034 33.3962C63.2062 33.5879 63.2089 33.7796 63.2117 33.9771C63.2713 34.5047 63.4083 34.8402 63.6828 35.2942C64.6822 35.3111 65.5927 35.2847 66.5775 35.0926C66.6458 35.3588 66.714 35.625 66.7843 35.8993C66.3928 36.0643 66.0007 36.2279 65.6083 36.3909C65.39 36.4821 65.1717 36.5734 64.9468 36.6674C63.6245 37.161 62.2954 37.339 60.9432 36.8825C60.1809 36.3755 59.7097 35.784 59.4239 34.9205C59.3249 34.4043 59.3161 33.9216 59.3174 33.3962C59.3174 33.1782 59.3174 32.9602 59.3174 32.7357C59.3185 32.5016 59.3195 32.2675 59.3206 32.0264C59.3209 31.7858 59.3212 31.5452 59.3215 31.2973C59.3227 30.5288 59.3253 29.7603 59.3279 28.9917C59.329 28.4707 59.3299 27.9497 59.3307 27.4287C59.333 26.1514 59.3365 24.8741 59.3408 23.5968C58.7268 23.5968 58.1127 23.5968 57.48 23.5968C57.48 23.3971 57.48 23.1974 57.48 22.9917C57.7273 22.8794 57.9747 22.7671 58.2295 22.6514C60.2641 21.6399 61.4461 20.0332 62.2355 17.9497Z" fill="#F7FBFF"/>
<path d="M121.163 22.5883C121.64 22.5883 122.118 22.5883 122.61 22.5883C122.678 23.3204 122.746 24.0525 122.817 24.8068C122.928 24.6237 123.038 24.4407 123.153 24.2521C123.681 23.4794 124.36 22.9454 125.283 22.6717C127.416 22.256 129.746 22.3452 131.628 23.4431C133.201 24.5761 134.034 26.1618 134.395 28.0337C134.567 30.6244 134.48 32.8985 132.715 34.9916C131.266 36.415 129.89 36.7754 127.882 36.8068C126.523 36.7898 125.195 36.6941 124.057 35.8992C123.443 35.2004 123.443 35.2004 122.817 34.4874C122.748 36.8834 122.68 39.2794 122.61 41.7479C122.132 41.7479 121.655 41.7479 121.163 41.7479C121.163 35.4253 121.163 29.1026 121.163 22.5883ZM124.119 24.9541C122.583 26.7724 122.419 28.775 122.568 31.0561C122.714 32.4725 123.179 33.5329 124.251 34.5C125.802 35.7298 127.536 35.6425 129.433 35.4958C130.735 35.1788 131.593 34.3452 132.328 33.2774C133.33 31.4862 133.449 29.335 132.922 27.3782C132.392 25.8691 131.477 24.7717 130.053 24C128.128 23.374 125.58 23.5031 124.119 24.9541Z" fill="#F7FBFF"/>
<path d="M88.2874 12.3027C88.6383 12.9872 88.2275 13.6857 88.0031 14.3826C87.37 16.3828 86.8053 18.43 87.4991 20.496C87.957 21.0812 88.1943 21.3191 88.9077 21.58C90.2294 21.6893 91.5289 21.5708 92.8362 21.3784C92.4154 21.804 92.0196 22.1781 91.5181 22.5128C90.0672 23.7933 89.2702 25.6833 89.0523 27.5613C89.0243 28.1111 89.0178 28.6557 89.024 29.2061C89.0253 29.3995 89.0265 29.5929 89.0278 29.7922C89.0732 31.8108 89.4448 33.6804 90.7686 35.2943C90.7003 35.4274 90.6321 35.5606 90.5618 35.6977C89.0102 34.2737 87.6547 32.907 86.6333 31.059C86.5384 30.888 86.4435 30.7169 86.3458 30.5407C84.2553 26.4255 84.1982 21.6435 85.6665 17.3274C87.024 13.5351 87.024 13.5351 88.2874 12.3027Z" fill="#43B02A"/>
<path d="M116.27 23.1372C117.034 23.7092 117.545 24.3055 117.854 25.2099C117.877 25.5264 117.889 25.8437 117.894 26.1609C117.897 26.3533 117.901 26.5458 117.904 26.7441C117.907 26.9515 117.91 27.1588 117.913 27.3725C117.918 27.6921 117.918 27.6921 117.924 28.0181C117.94 28.9312 117.954 29.8443 117.969 30.7574C117.979 31.4232 117.991 32.089 118.003 32.7548C118.006 32.9626 118.009 33.1704 118.012 33.3844C118.015 33.5763 118.019 33.7681 118.022 33.9658C118.025 34.135 118.027 34.3043 118.03 34.4787C118.035 34.904 118.035 34.904 118.268 35.294C118.748 35.3761 119.231 35.4441 119.715 35.4956C119.724 35.8317 119.724 36.168 119.715 36.504C119.374 36.837 118.982 36.7639 118.514 36.7814C117.52 36.7717 117.52 36.7717 116.911 36.2645C116.627 35.7229 116.478 35.2909 116.407 34.6889C116.271 34.8719 116.134 35.055 115.994 35.2435C115.247 36.1044 114.357 36.6142 113.205 36.7795C112.65 36.8066 112.103 36.806 111.548 36.794C111.27 36.7961 111.27 36.7961 110.985 36.7983C109.619 36.7857 108.384 36.6392 107.297 35.754C107.203 35.6355 107.109 35.5169 107.012 35.3948C106.915 35.2763 106.817 35.1577 106.716 35.0356C106.076 34.0856 106.191 32.9551 106.276 31.8654C106.636 30.7709 107.384 30.0795 108.343 29.4452C109.105 29.1031 109.777 28.9676 110.611 28.8914C110.844 28.8681 111.078 28.8449 111.318 28.8209C111.807 28.775 112.295 28.7298 112.784 28.6854C114.776 28.4943 114.776 28.4943 116.407 27.4284C116.537 26.5879 116.492 25.8243 116.175 25.0335C115.613 24.4127 114.987 24.0622 114.136 23.9418C113.685 23.9187 113.24 23.9173 112.789 23.9242C112.561 23.9207 112.561 23.9207 112.329 23.9171C111.025 23.924 110.173 24.2403 109.222 25.1469C108.657 25.85 108.512 26.5604 108.343 27.4284C107.934 27.4284 107.525 27.4284 107.103 27.4284C106.954 26.0969 107.34 25.0884 108.137 23.9998C110.152 22.2652 113.88 21.8323 116.27 23.1372ZM115.616 29.0329C115.057 29.2947 114.585 29.3338 113.968 29.3869C113.736 29.4093 113.503 29.4316 113.264 29.4547C112.778 29.4985 112.292 29.5411 111.807 29.5823C110.243 29.7355 108.822 29.9036 107.723 31.1091C107.345 32.1245 107.39 32.941 107.762 33.9326C108.248 34.6522 108.795 35.1109 109.584 35.4956C112.33 35.7332 112.33 35.7332 114.753 34.6889C115.784 33.7945 116.377 32.7899 116.614 31.462C116.659 30.5853 116.651 29.7171 116.614 28.8402C116.014 28.7934 116.014 28.7934 115.616 29.0329Z" fill="#F7FBFF"/>
<path d="M158.45 23.1364C159.14 23.6546 159.642 24.2438 160.034 25.0082C160.059 25.3315 160.071 25.6557 160.077 25.9797C160.083 26.2825 160.083 26.2825 160.089 26.5914C160.093 26.8099 160.096 27.0284 160.1 27.2535C160.104 27.4768 160.108 27.7 160.113 27.93C160.126 28.6452 160.138 29.3603 160.15 30.0755C160.159 30.5595 160.168 31.0434 160.178 31.5274C160.2 32.7157 160.221 33.904 160.241 35.0923C160.787 35.2919 161.333 35.4916 161.895 35.6973C161.827 36.0301 161.759 36.3629 161.688 36.7057C160.989 36.7643 160.318 36.7912 159.621 36.7057C158.914 36.1177 158.691 35.5798 158.587 34.6889C158.45 34.8719 158.314 35.055 158.173 35.2435C157.427 36.1044 156.537 36.6142 155.384 36.7795C154.83 36.8066 154.283 36.806 153.728 36.794C153.449 36.7961 153.449 36.7961 153.165 36.7983C151.799 36.7857 150.564 36.6392 149.477 35.754C149.383 35.6355 149.289 35.5169 149.192 35.3948C149.094 35.2762 148.996 35.1577 148.896 35.0356C148.257 34.0864 148.369 32.9544 148.455 31.8654C148.898 30.5718 149.861 29.8648 151.043 29.227C152.086 28.7278 153.112 28.6827 154.258 28.6259C155.954 28.5354 157.149 28.3635 158.587 27.4284C158.757 26.5985 158.668 25.8159 158.354 25.0335C157.793 24.4127 157.167 24.0622 156.316 23.9418C155.865 23.9187 155.42 23.9172 154.968 23.9242C154.741 23.9207 154.741 23.9207 154.509 23.9171C153.205 23.9239 152.353 24.2403 151.402 25.1469C150.837 25.85 150.692 26.5604 150.523 27.4284C150.114 27.4284 149.704 27.4284 149.283 27.4284C149.134 26.0969 149.52 25.0883 150.316 23.9998C152.333 22.2638 156.057 21.8347 158.45 23.1364ZM157.781 28.9276C156.702 29.2822 155.66 29.3823 154.529 29.4578C152.281 29.5578 152.281 29.5578 150.342 30.5419C149.704 31.2923 149.635 31.8982 149.652 32.862C149.75 33.7833 150.156 34.3463 150.846 34.9536C152.106 35.8044 153.791 35.6232 155.279 35.4956C156.572 35.1916 157.467 34.3542 158.173 33.2772C158.966 31.8118 158.857 30.2547 158.794 28.6385C158.437 28.6385 158.113 28.808 157.781 28.9276Z" fill="#F7FBFF"/>
<path d="M101.468 23.0926C102.796 23.8512 103.8 24.9479 104.208 26.4203C104.234 26.9875 104.234 26.9875 104.208 27.4287C103.799 27.4287 103.389 27.4287 102.967 27.4287C102.925 27.2532 102.925 27.2532 102.883 27.0742C102.53 25.8255 102.035 25.0928 100.9 24.4035C99.5116 23.7158 97.5102 23.7682 96.0175 24.1317C94.7518 24.6903 93.8553 25.7295 93.2884 26.9497C92.4947 29.15 92.77 31.1309 93.6631 33.2775C94.1744 34.2254 94.9772 34.7639 95.9803 35.154C97.4549 35.5121 99.2068 35.5871 100.616 34.9665C102.094 34.0675 102.614 32.8056 103.174 31.2606C103.584 31.2606 103.993 31.2606 104.415 31.2606C104.104 33.0191 103.564 34.2967 102.14 35.4959C100.283 36.7538 98.5725 36.9026 96.351 36.706C94.6823 36.3187 93.5285 35.5683 92.6035 34.1598C91.3343 31.9709 90.9543 29.6148 91.6343 27.1514C92.2559 25.4362 93.3318 23.8413 95.0561 23.023C97.0461 22.2192 99.5085 22.2156 101.468 23.0926Z" fill="#F7FBFF"/>
<path d="M142.872 18.1514C143.282 18.1514 143.691 18.1514 144.113 18.1514C144.113 19.6156 144.113 21.0798 144.113 22.5883C145.137 22.5883 146.16 22.5883 147.214 22.5883C147.214 22.9211 147.214 23.2539 147.214 23.5967C146.191 23.5967 145.168 23.5967 144.113 23.5967C144.122 25.1331 144.137 26.6692 144.156 28.2055C144.162 28.7282 144.166 29.2509 144.169 29.7736C144.174 30.5246 144.183 31.2754 144.194 32.0264C144.194 32.2604 144.194 32.4945 144.195 32.7356C144.199 32.9536 144.203 33.1716 144.207 33.3962C144.209 33.5879 144.211 33.7795 144.213 33.977C144.351 34.6367 144.616 34.877 145.147 35.2942C145.677 35.4749 145.677 35.4749 146.232 35.5463C146.417 35.5765 146.601 35.6066 146.791 35.6377C146.931 35.6575 147.071 35.6772 147.214 35.6976C147.214 36.0969 147.214 36.4962 147.214 36.9077C145.831 36.955 144.702 36.9128 143.532 36.1009C142.47 34.6807 142.616 32.8075 142.671 31.1204C142.676 30.9039 142.681 30.6874 142.686 30.4643C142.703 29.7801 142.723 29.096 142.743 28.4119C142.755 27.945 142.767 27.4781 142.779 27.0111C142.808 25.8729 142.839 24.7348 142.872 23.5967C141.985 23.5967 141.098 23.5967 140.185 23.5967C140.185 23.264 140.185 22.9312 140.185 22.5883C141.072 22.5883 141.959 22.5883 142.872 22.5883C142.872 21.1241 142.872 19.6599 142.872 18.1514Z" fill="#F7FBFF"/>
<path d="M95.6016 10.4243C96.75 11.3873 97.9272 12.622 98.212 14.1175C97.1782 13.1091 97.1782 13.1091 96.713 12.6175C94.8191 10.8962 92.6586 10.0021 90.0562 10.0406C87.5149 10.2491 85.2626 11.2786 83.5319 13.1091C81.8258 15.3456 81.444 17.6444 81.671 20.3696C81.8307 21.0064 82.0466 21.5724 82.2913 22.1848C82.2231 22.3844 82.1549 22.5841 82.0846 22.7898C80.5919 20.1251 80.03 17.8976 80.848 14.9306C81.704 12.3493 83.2443 10.7371 85.6536 9.4261C88.9485 7.87399 92.6785 8.29013 95.6016 10.4243Z" fill="#43B02A"/>
<path d="M137.083 22.5884C137.561 22.5884 138.039 22.5884 138.531 22.5884C138.531 27.2472 138.531 31.906 138.531 36.706C138.053 36.706 137.576 36.706 137.083 36.706C137.083 32.0472 137.083 27.3884 137.083 22.5884Z" fill="#F7FBFF"/>
<path d="M90.5359 16.5C91.182 16.5378 91.182 16.5378 91.8023 16.9412C92.0396 17.6686 92.0424 18.0556 91.7894 18.7815C91.3148 19.4685 90.907 19.798 90.1482 20.1681C89.4817 20.1681 89.2278 20.0622 88.7267 19.6387C88.3806 18.9258 88.4848 18.4989 88.7009 17.7479C89.2178 17.1681 89.2178 17.1681 89.7347 16.7395C89.9415 16.5378 89.9415 16.5378 90.5359 16.5Z" fill="#43B02A"/>
<path d="M137.083 16.9414C137.561 16.9414 138.039 16.9414 138.531 16.9414C138.531 17.8732 138.531 18.8049 138.531 19.7649C138.053 19.7649 137.576 19.7649 137.083 19.7649C137.083 18.8332 137.083 17.9014 137.083 16.9414Z" fill="#F7FBFF"/>
<path d="M111.406 29.0166C111.589 29.0184 111.772 29.0202 111.96 29.0221C112.408 29.0268 112.857 29.0341 113.306 29.0418C113.306 29.2415 113.306 29.4411 113.306 29.6468C112.95 29.6835 112.95 29.6835 112.588 29.7209C112.271 29.755 111.955 29.7891 111.639 29.8233C111.483 29.8392 111.328 29.855 111.167 29.8714C110.185 29.9792 109.286 30.163 108.343 30.4536C108.275 30.3205 108.207 30.1873 108.137 30.0502C108.343 29.4452 108.343 29.4452 108.747 29.2072C109.639 28.9733 110.487 28.9992 111.406 29.0166Z" fill="#F7FBFF"/>
<path d="M157.759 29.042C157.759 29.1085 157.759 29.1751 157.759 29.2437C156.221 29.5906 154.545 29.5777 153.004 29.2437C153.004 29.1106 153.004 28.9774 153.004 28.8403C154.363 28.1775 156.361 28.6782 157.759 29.042Z" fill="#F7FBFF"/>
<path d="M95.7309 10.689C96.8785 11.4886 97.6258 12.4569 98.2121 13.7142C98.1438 13.8473 98.0756 13.9804 98.0053 14.1175C97.9325 14.0128 97.8598 13.908 97.7848 13.8C97.0624 12.8047 96.3703 12.153 95.3174 11.4957C95.4538 11.2295 95.5903 10.9633 95.7309 10.689Z" fill="#43B02A"/>
<path d="M110.824 29.042C111.643 29.042 112.462 29.042 113.305 29.042C113.305 29.2417 113.305 29.4413 113.305 29.647C111.566 29.7469 111.566 29.7469 109.791 29.8487C110.063 29.7822 110.336 29.7156 110.618 29.647C110.686 29.4474 110.754 29.2477 110.824 29.042Z" fill="#F7FBFF"/>
<path d="M115.58 29.0422C115.299 29.0297 115.299 29.0297 115.012 29.017C114.365 29.0413 114.053 29.1211 113.513 29.4456C113.444 29.379 113.376 29.3124 113.306 29.2439C112.958 29.1969 112.609 29.1607 112.259 29.1304C111.974 29.1051 111.974 29.1051 111.683 29.0792C111.463 29.0609 111.463 29.0609 111.238 29.0422C111.238 28.9756 111.238 28.9091 111.238 28.8405C114.537 28.3638 114.537 28.3638 115.58 29.0422Z" fill="#F7FBFF"/>
<path d="M88.2874 12.3027C88.5788 12.8711 88.3926 13.1443 88.197 13.7397C88.1376 13.9233 88.0781 14.1068 88.0169 14.2959C87.9461 14.5073 87.9461 14.5073 87.8739 14.7229C87.7375 14.5898 87.601 14.4567 87.4604 14.3195C87.2557 14.4194 87.2557 14.4194 87.0469 14.5212C87.307 13.612 87.6473 13.0104 88.2874 12.3027Z" fill="#43B02A"/>
<path d="M24.1912 23.395C24.3277 23.4616 24.4641 23.5281 24.6047 23.5967C23.9224 24.2622 23.2401 24.9278 22.5371 25.6135C22.5371 24.8115 22.8225 24.5872 23.3642 24.0001C23.8294 23.6345 23.8294 23.6345 24.1912 23.395Z" fill="#F7FBFF"/>
<path d="M110.114 29.0293C110.348 29.0335 110.583 29.0376 110.825 29.0419C110.756 29.2416 110.688 29.4412 110.618 29.6469C110.208 29.7135 109.799 29.7801 109.377 29.8486C109.309 29.649 109.241 29.4493 109.17 29.2436C109.377 29.0419 109.377 29.0419 110.114 29.0293Z" fill="#F7FBFF"/>
<path d="M113.926 28.8403C114.608 28.8403 115.291 28.8403 115.994 28.8403C115.925 28.9734 115.857 29.1066 115.787 29.2437C115.069 29.4772 114.472 29.4592 113.719 29.4454C113.787 29.2457 113.856 29.046 113.926 28.8403Z" fill="#F7FBFF"/>
<path d="M151.35 23.1934C151.486 23.2599 151.623 23.3265 151.763 23.395C151.218 23.9275 150.672 24.4599 150.109 25.0085C150.109 24.4034 150.109 24.4034 150.613 23.874C150.788 23.716 150.963 23.5579 151.143 23.395C151.211 23.3285 151.28 23.2619 151.35 23.1934Z" fill="#F7FBFF"/>
<path d="M109.17 23.1934C109.307 23.2599 109.443 23.3265 109.584 23.395C109.038 23.9275 108.492 24.4599 107.93 25.0085C107.93 24.4034 107.93 24.4034 108.434 23.874C108.609 23.716 108.783 23.5579 108.963 23.395C109.032 23.3285 109.1 23.2619 109.17 23.1934Z" fill="#F7FBFF"/>
<path d="M124.471 22.9917C124.607 23.0583 124.744 23.1248 124.884 23.1934C124.407 23.6593 123.929 24.1251 123.437 24.6051C123.3 24.5386 123.164 24.472 123.023 24.4035C123.506 23.9329 123.988 23.4623 124.471 22.9917Z" fill="#F7FBFF"/>
</svg>
