<svg width="167" height="48" viewBox="0 0 167 48" fill="none" xmlns="http://www.w3.org/2000/svg">
<path d="M32.6856 23.8733C33.2395 24.3321 33.5614 24.7923 33.9092 25.4119C33.9668 25.1498 33.9668 25.1498 34.0255 24.8825C34.4835 23.8336 35.2707 23.2412 36.2999 22.727C38.6458 22.0816 41.2273 22.1942 43.455 23.1926C44.4961 23.8183 44.9179 24.7039 45.2812 25.8152C45.3898 26.5459 45.3966 27.2632 45.3926 28.0006C45.3951 28.2026 45.3975 28.4045 45.4 28.6125C45.4073 29.2515 45.4092 29.8904 45.4104 30.5295C45.4138 31.1729 45.4183 31.8162 45.4252 32.4595C45.4293 32.8583 45.4312 33.2572 45.4308 33.6561C45.4322 33.8359 45.4336 34.0158 45.4351 34.201C45.4354 34.359 45.4356 34.517 45.4359 34.6798C45.4637 35.1552 45.4637 35.1552 45.9015 35.6976C46.6188 35.6052 47.2814 35.5178 47.9691 35.2942C48.0373 35.4939 48.1055 35.6936 48.1758 35.8993C46.7281 36.757 45.5333 37.1479 43.8338 36.9077C42.947 36.5931 42.3934 36.1783 41.7662 35.4959C41.5755 35.6234 41.5755 35.6234 41.381 35.7535C41.2138 35.864 41.0467 35.9745 40.8745 36.0883C40.6263 36.2533 40.6263 36.2533 40.373 36.4216C39.0959 37.1983 37.4273 37.0315 35.9769 36.9077C34.8843 36.5349 34.1241 35.8358 33.4957 34.8909C33.4957 34.7578 33.4957 34.6246 33.4957 34.4875C33.368 34.5946 33.2404 34.7017 33.1088 34.8121C30.9379 36.5784 29.2764 37.1871 26.4588 36.9631C25.5018 36.8326 24.762 36.4372 23.9846 35.8993C23.8519 35.814 23.7192 35.7287 23.5824 35.6409C22.2948 34.7057 21.4212 33.1873 21.09 31.664C20.9193 28.9107 21.0481 26.6104 22.9403 24.405C25.6899 21.7792 29.625 21.765 32.6856 23.8733ZM26.1104 24.0529C25.0821 25.4137 24.9836 26.7607 24.8117 28.4371C26.8586 28.4371 28.9056 28.4371 31.0146 28.4371C31.0146 26.7033 30.9285 25.2633 29.6318 23.9875C29.4741 23.8586 29.3163 23.7296 29.1537 23.5967C29.0855 23.5302 29.0172 23.4636 28.9469 23.3951C27.8579 23.2385 26.9381 23.2568 26.1104 24.0529ZM37.4686 23.6385C37.1596 24.0834 36.9544 24.5392 36.7393 25.0337C36.2682 25.9833 36.2682 25.9833 35.5504 26.269C34.9431 26.2186 34.9431 26.2186 34.116 25.8152C34.3207 26.8801 34.5254 27.945 34.7363 29.0421C31.4612 29.1087 28.1861 29.1752 24.8117 29.2438C24.8117 31.3907 25.0269 32.8367 26.5595 34.4056C27.6089 35.3362 28.6314 35.4032 30.0009 35.3636C31.3349 35.2094 32.2087 34.4718 33.041 33.4767C33.3882 32.9153 33.4604 32.3684 33.573 31.7296C33.7978 30.9152 34.2971 30.3941 34.9431 29.8489C35.6322 29.4719 36.3494 29.1992 37.0882 28.9287C38.8473 28.2718 40.7866 27.4874 41.7662 25.8152C41.8978 25.2052 41.8603 24.8442 41.7662 24.2018C41.1936 23.6088 40.8519 23.4119 40.02 23.295C39.6434 23.3009 39.6434 23.3009 39.2592 23.3068C39.0071 23.3071 38.7549 23.3074 38.4952 23.3076C37.8558 23.3444 37.8558 23.3444 37.4686 23.6385ZM40.7453 28.3615C40.0474 28.8258 39.34 29.2374 38.6002 29.6346C37.6857 30.1728 37.0888 30.6366 36.8039 31.664C36.5989 33.1043 36.7422 34.1214 37.631 35.2942C38.3502 35.645 39.119 35.5851 39.9053 35.4959C40.9139 35.0149 41.2063 34.2372 41.5943 33.2629C41.897 32.2228 41.8526 31.1988 41.8179 30.1262C41.8142 29.9044 41.8104 29.6826 41.8066 29.4542C41.7969 28.9133 41.7834 28.3728 41.7662 27.832C41.377 27.832 41.0548 28.1545 40.7453 28.3615Z" fill="#F7FBFF"/>
<path d="M9.51129 15.9336C9.61364 19.9269 9.61364 19.9269 9.71805 24.0008C10.1274 23.668 10.5368 23.3353 10.9586 22.9924C12.288 22.3011 14.199 22.348 15.635 22.7348C16.8791 23.3004 17.5371 24.1767 18.0635 25.4034C18.306 26.1624 18.2865 26.9239 18.2866 27.713C18.2907 27.9803 18.2907 27.9803 18.2948 28.253C18.3033 28.8188 18.3078 29.3845 18.3116 29.9504C18.3165 30.5162 18.3224 31.082 18.3306 31.6478C18.3356 31.9987 18.3387 32.3495 18.3396 32.7004C18.3556 34.4461 18.3556 34.4461 19.2291 35.9C19.5703 36.0426 19.9147 36.1782 20.2629 36.3033C20.2629 36.4364 20.2629 36.5696 20.2629 36.7067C17.8066 36.7067 15.3503 36.7067 12.8195 36.7067C12.8195 36.507 12.8195 36.3074 12.8195 36.1017C13.4336 36.0018 13.4336 36.0018 14.0601 35.9C14.5197 34.8122 14.5402 33.8299 14.543 32.6731C14.5444 32.4807 14.5458 32.2883 14.5472 32.0901C14.5493 31.6846 14.5503 31.2792 14.5502 30.8737C14.5511 30.2549 14.5586 29.6364 14.5665 29.0176C14.5677 28.6227 14.5685 28.2277 14.5689 27.8328C14.5719 27.6487 14.5748 27.4646 14.5779 27.275C14.5697 26.1514 14.4287 25.4894 13.6465 24.6059C12.7719 24.0371 11.9858 24.0427 10.9586 24.2025C10.2667 24.7121 9.99103 25.0172 9.71805 25.8159C9.69819 26.1118 9.6895 26.4085 9.68802 26.7049C9.6867 26.884 9.68538 27.063 9.68402 27.2475C9.68379 27.4404 9.68356 27.6333 9.68332 27.832C9.68264 28.0306 9.68195 28.2293 9.68124 28.434C9.68019 28.8543 9.67971 29.2745 9.67974 29.6948C9.67929 30.3379 9.67553 30.981 9.67161 31.6241C9.67101 32.0323 9.6706 32.4406 9.6704 32.8488C9.66892 33.0412 9.66743 33.2337 9.6659 33.432C9.66654 33.6117 9.66717 33.7913 9.66783 33.9765C9.66753 34.1341 9.66724 34.2917 9.66693 34.4541C9.72586 34.9584 9.84584 35.2745 10.1316 35.6983C10.7605 35.9589 10.7605 35.9589 11.3722 36.1017C11.3722 36.3013 11.3722 36.501 11.3722 36.7067C8.91582 36.7067 6.45948 36.7067 3.92871 36.7067C3.92871 36.507 3.92871 36.3074 3.92871 36.1017C4.54279 36.0018 4.54279 36.0018 5.16928 35.9C5.55914 34.9366 5.64311 34.0676 5.6396 33.044C5.64065 32.8835 5.64171 32.723 5.6428 32.5576C5.64566 32.0302 5.64548 31.5028 5.645 30.9753C5.6458 30.6077 5.6467 30.2401 5.64768 29.8725C5.64922 29.1037 5.64917 28.3349 5.64808 27.5661C5.64688 26.58 5.65039 25.594 5.65518 24.6079C5.65822 23.8495 5.65841 23.0912 5.65776 22.3329C5.65787 21.9692 5.65895 21.6055 5.66103 21.2418C5.66358 20.7344 5.66219 20.2271 5.65979 19.7197C5.66137 19.5691 5.66295 19.4186 5.66458 19.2634C5.65786 18.4628 5.65786 18.4628 5.30258 17.7603C4.85836 17.4817 4.44785 17.4138 3.92871 17.3454C3.92871 17.1457 3.92871 16.946 3.92871 16.7403C5.74694 16.2437 7.62172 15.9336 9.51129 15.9336Z" fill="#F7FBFF"/>
<path d="M73.4005 15.9336C73.5028 19.9269 73.5028 19.9269 73.6072 24.0008C74.0166 23.668 74.426 23.3353 74.8478 22.9924C76.1772 22.3011 78.0881 22.348 79.5242 22.7348C80.7683 23.3004 81.4262 24.1767 81.9527 25.4034C82.1952 26.1624 82.1756 26.9239 82.1757 27.713C82.1798 27.9803 82.1798 27.9803 82.184 28.253C82.1924 28.8188 82.1969 29.3845 82.2008 29.9504C82.2057 30.5162 82.2116 31.082 82.2197 31.6478C82.2247 31.9987 82.2278 32.3495 82.2288 32.7004C82.2448 34.4461 82.2448 34.4461 83.1183 35.9C83.4594 36.0426 83.8038 36.1782 84.1521 36.3033C84.1521 36.4364 84.1521 36.5696 84.1521 36.7067C81.6958 36.7067 79.2394 36.7067 76.7086 36.7067C76.7086 36.507 76.7086 36.3074 76.7086 36.1017C77.3227 36.0018 77.3227 36.0018 77.9492 35.9C78.4089 34.8122 78.4293 33.8299 78.4322 32.6731C78.4336 32.4807 78.435 32.2883 78.4364 32.0901C78.4385 31.6846 78.4394 31.2792 78.4394 30.8737C78.4403 30.2549 78.4478 29.6364 78.4556 29.0176C78.4568 28.6227 78.4577 28.2277 78.4581 27.8328C78.461 27.6487 78.464 27.4646 78.4671 27.275C78.4588 26.1514 78.3179 25.4894 77.5357 24.6059C76.6611 24.0371 75.8749 24.0427 74.8478 24.2025C74.1559 24.7121 73.8802 25.0172 73.6072 25.8159C73.5874 26.1118 73.5787 26.4085 73.5772 26.7049C73.5759 26.884 73.5745 27.063 73.5732 27.2475C73.573 27.4404 73.5727 27.6333 73.5725 27.832C73.5718 28.0306 73.5711 28.2293 73.5704 28.434C73.5694 28.8543 73.5689 29.2745 73.5689 29.6948C73.5684 30.3379 73.5647 30.981 73.5608 31.6241C73.5602 32.0323 73.5598 32.4406 73.5596 32.8488C73.5581 33.0412 73.5566 33.2337 73.5551 33.432C73.5557 33.6117 73.5563 33.7913 73.557 33.9765C73.5567 34.1341 73.5564 34.2917 73.5561 34.4541C73.615 34.9584 73.735 35.2745 74.0207 35.6983C74.6497 35.9589 74.6497 35.9589 75.2613 36.1017C75.2613 36.3013 75.2613 36.501 75.2613 36.7067C72.805 36.7067 70.3486 36.7067 67.8179 36.7067C67.8179 36.507 67.8179 36.3074 67.8179 36.1017C68.014 36.0559 68.2102 36.0101 68.4123 35.963C69.0768 35.7663 69.0768 35.7663 69.302 35.279C69.5162 34.5364 69.5314 33.8317 69.5288 33.0669C69.5298 32.9064 69.5309 32.7459 69.532 32.5806C69.5348 32.0521 69.5346 31.5236 69.5342 30.995C69.535 30.6272 69.5359 30.2593 69.5368 29.8914C69.5384 29.1214 69.5383 28.3514 69.5372 27.5813C69.536 26.5936 69.5395 25.606 69.5443 24.6183C69.5474 23.8591 69.5476 23.1 69.5469 22.3408C69.547 21.9765 69.5481 21.6122 69.5502 21.248C69.5527 20.7396 69.5514 20.2313 69.5489 19.7229C69.5505 19.572 69.5521 19.4211 69.5537 19.2657C69.5472 18.4638 69.5472 18.4638 69.1917 17.7601C68.7475 17.4818 68.3369 17.4138 67.8179 17.3454C67.8179 17.1457 67.8179 16.946 67.8179 16.7403C69.6361 16.2437 71.5109 15.9336 73.4005 15.9336Z" fill="#F7FBFF"/>
<path d="M54.585 16.1341C54.5867 16.3673 54.5884 16.6005 54.5901 16.8408C54.6061 19.0368 54.6242 21.2329 54.6445 23.4289C54.6548 24.5579 54.6644 25.687 54.6723 26.816C54.6799 27.9053 54.6895 28.9946 54.7004 30.0839C54.7042 30.4998 54.7074 30.9157 54.7098 31.3315C54.7133 31.9134 54.7193 32.4952 54.7259 33.0771C54.7263 33.2496 54.7268 33.4221 54.7272 33.5998C54.7295 33.7587 54.7318 33.9176 54.7342 34.0814C54.7354 34.2189 54.7365 34.3565 54.7377 34.4982C54.8036 34.9762 54.9375 35.2919 55.2053 35.6972C55.8343 35.9578 55.8343 35.9578 56.4459 36.1005C56.4459 36.3002 56.4459 36.4998 56.4459 36.7056C53.9895 36.7056 51.5332 36.7056 49.0024 36.7056C49.0024 36.5059 49.0024 36.3062 49.0024 36.1005C49.1986 36.0506 49.3948 36.0007 49.5969 35.9493C50.2365 35.7632 50.2365 35.7632 50.4868 35.3794C50.7297 34.6798 50.714 33.9987 50.71 33.2686C50.7108 33.1059 50.7115 32.9431 50.7122 32.7755C50.7141 32.2383 50.7129 31.7012 50.7115 31.1641C50.7117 30.7909 50.7121 30.4177 50.7127 30.0445C50.7133 29.263 50.7124 28.4814 50.7105 27.6998C50.7081 26.6965 50.7095 25.6933 50.7119 24.6899C50.7134 23.9197 50.7129 23.1494 50.7119 22.3792C50.7116 22.0091 50.7119 21.6391 50.7129 21.269C50.7139 20.7528 50.7124 20.2367 50.71 19.7206C50.7109 19.5668 50.7117 19.4129 50.7126 19.2545C50.7346 18.4087 50.7346 18.4087 50.243 17.7476C49.8319 17.6674 49.4181 17.5988 49.0024 17.5459C49.0024 17.2797 49.0024 17.0135 49.0024 16.7392C49.855 16.5984 50.708 16.4605 51.5611 16.3232C51.9257 16.263 51.9257 16.263 52.2977 16.2015C52.5296 16.1644 52.7615 16.1274 53.0004 16.0892C53.2148 16.0544 53.4292 16.0195 53.6501 15.9836C54.1715 15.9325 54.1715 15.9325 54.585 16.1341Z" fill="#F7FBFF"/>
<path d="M62.2355 17.9492C62.5084 17.9492 62.7814 17.9492 63.0626 17.9492C63.0626 19.5465 63.0626 21.1438 63.0626 22.7896C63.9496 22.7896 64.8366 22.7896 65.7505 22.7896C65.8528 23.1889 65.8528 23.1889 65.9572 23.5963C65.002 23.5963 64.0468 23.5963 63.0626 23.5963C63.0819 25.1326 63.1038 26.6688 63.1282 28.205C63.1361 28.7277 63.1433 29.2504 63.1498 29.7731C63.1592 30.5241 63.1712 31.275 63.1837 32.0259C63.1861 32.26 63.1885 32.494 63.1909 32.7352C63.1951 32.9531 63.1992 33.1711 63.2034 33.3957C63.2062 33.5874 63.2089 33.7791 63.2117 33.9766C63.2713 34.5042 63.4083 34.8397 63.6828 35.2938C64.6822 35.3106 65.5927 35.2842 66.5775 35.0921C66.6458 35.3583 66.714 35.6245 66.7843 35.8988C66.3928 36.0638 66.0007 36.2274 65.6083 36.3904C65.39 36.4816 65.1717 36.5729 64.9468 36.6669C63.6245 37.1605 62.2954 37.3385 60.9432 36.882C60.1809 36.375 59.7097 35.7835 59.4239 34.92C59.3249 34.4038 59.3161 33.9211 59.3174 33.3957C59.3174 33.1777 59.3174 32.9598 59.3174 32.7352C59.3185 32.5011 59.3195 32.2671 59.3206 32.0259C59.3209 31.7853 59.3212 31.5447 59.3215 31.2968C59.3227 30.5283 59.3253 29.7598 59.3279 28.9912C59.329 28.4702 59.3299 27.9492 59.3307 27.4282C59.333 26.1509 59.3365 24.8736 59.3408 23.5963C58.7268 23.5963 58.1127 23.5963 57.48 23.5963C57.48 23.3966 57.48 23.1969 57.48 22.9912C57.7273 22.8789 57.9747 22.7666 58.2295 22.6509C60.2641 21.6394 61.4461 20.0327 62.2355 17.9492Z" fill="#F7FBFF"/>
<path d="M121.163 22.5873C121.64 22.5873 122.118 22.5873 122.61 22.5873C122.678 23.3194 122.746 24.0515 122.817 24.8058C122.928 24.6228 123.038 24.4397 123.153 24.2512C123.681 23.4784 124.36 22.9444 125.283 22.6708C127.416 22.255 129.746 22.3443 131.628 23.4421C133.201 24.5751 134.034 26.1608 134.395 28.0327C134.567 30.6234 134.48 32.8976 132.715 34.9907C131.266 36.414 129.89 36.7744 127.882 36.8058C126.523 36.7889 125.195 36.6931 124.057 35.8982C123.443 35.1994 123.443 35.1994 122.817 34.4865C122.748 36.8824 122.68 39.2784 122.61 41.747C122.132 41.747 121.655 41.747 121.163 41.747C121.163 35.4243 121.163 29.1016 121.163 22.5873ZM124.119 24.9531C122.583 26.7715 122.419 28.774 122.568 31.0551C122.714 32.4715 123.179 33.532 124.251 34.4991C125.802 35.7289 127.536 35.6415 129.433 35.4949C130.735 35.1778 131.593 34.3442 132.328 33.2764C133.33 31.4852 133.449 29.3341 132.922 27.3772C132.392 25.8681 131.477 24.7707 130.053 23.9991C128.128 23.373 125.58 23.5022 124.119 24.9531Z" fill="#F7FBFF"/>
<path d="M88.2874 12.3027C88.6383 12.9872 88.2275 13.6857 88.0031 14.3826C87.37 16.3828 86.8053 18.43 87.4991 20.496C87.957 21.0812 88.1943 21.3191 88.9077 21.58C90.2294 21.6893 91.5289 21.5708 92.8362 21.3784C92.4154 21.804 92.0196 22.1781 91.5181 22.5128C90.0672 23.7933 89.2702 25.6833 89.0523 27.5613C89.0243 28.1111 89.0178 28.6557 89.024 29.2061C89.0253 29.3995 89.0265 29.5929 89.0278 29.7922C89.0732 31.8108 89.4448 33.6804 90.7686 35.2943C90.7003 35.4274 90.6321 35.5606 90.5618 35.6977C89.0102 34.2737 87.6547 32.907 86.6333 31.059C86.5384 30.888 86.4435 30.7169 86.3458 30.5407C84.2553 26.4255 84.1982 21.6435 85.6665 17.3274C87.024 13.5351 87.024 13.5351 88.2874 12.3027Z" fill="#EF5728"/>
<path d="M116.27 23.1367C117.034 23.7087 117.545 24.305 117.854 25.2094C117.877 25.5259 117.889 25.8432 117.894 26.1604C117.897 26.3528 117.901 26.5453 117.904 26.7436C117.907 26.951 117.91 27.1583 117.913 27.372C117.918 27.6916 117.918 27.6916 117.924 28.0176C117.94 28.9307 117.954 29.8438 117.969 30.7569C117.979 31.4227 117.991 32.0885 118.003 32.7543C118.006 32.9621 118.009 33.1699 118.012 33.384C118.015 33.5758 118.019 33.7676 118.022 33.9653C118.025 34.1345 118.027 34.3038 118.03 34.4782C118.035 34.9035 118.035 34.9035 118.268 35.2935C118.748 35.3756 119.231 35.4436 119.715 35.4952C119.724 35.8312 119.724 36.1675 119.715 36.5036C119.374 36.8365 118.982 36.7635 118.514 36.7809C117.52 36.7712 117.52 36.7712 116.911 36.2641C116.627 35.7224 116.478 35.2904 116.407 34.6884C116.271 34.8715 116.134 35.0545 115.994 35.2431C115.247 36.1039 114.357 36.6137 113.205 36.779C112.65 36.8061 112.103 36.8055 111.548 36.7935C111.27 36.7956 111.27 36.7956 110.985 36.7978C109.619 36.7852 108.384 36.6387 107.297 35.7536C107.203 35.635 107.109 35.5165 107.012 35.3943C106.915 35.2758 106.817 35.1572 106.716 35.0351C106.076 34.0851 106.191 32.9546 106.276 31.8649C106.636 30.7704 107.384 30.079 108.343 29.4447C109.105 29.1026 109.777 28.9671 110.611 28.8909C110.844 28.8676 111.078 28.8444 111.318 28.8204C111.807 28.7745 112.295 28.7293 112.784 28.6849C114.776 28.4938 114.776 28.4938 116.407 27.4279C116.537 26.5875 116.492 25.8238 116.175 25.033C115.613 24.4122 114.987 24.0617 114.136 23.9414C113.685 23.9182 113.24 23.9168 112.789 23.9237C112.561 23.9202 112.561 23.9202 112.329 23.9166C111.025 23.9235 110.173 24.2398 109.222 25.1464C108.657 25.8495 108.512 26.5599 108.343 27.4279C107.934 27.4279 107.525 27.4279 107.103 27.4279C106.954 26.0964 107.34 25.0879 108.137 23.9994C110.152 22.2647 113.88 21.8318 116.27 23.1367ZM115.616 29.0324C115.057 29.2942 114.585 29.3333 113.968 29.3864C113.736 29.4088 113.503 29.4312 113.264 29.4542C112.778 29.498 112.292 29.5406 111.807 29.5818C110.243 29.735 108.822 29.9031 107.723 31.1086C107.345 32.1241 107.39 32.9405 107.762 33.9321C108.248 34.6517 108.795 35.1104 109.584 35.4952C112.33 35.7327 112.33 35.7327 114.753 34.6884C115.784 33.794 116.377 32.7894 116.614 31.4615C116.659 30.5848 116.651 29.7166 116.614 28.8397C116.014 28.7929 116.014 28.7929 115.616 29.0324Z" fill="#F7FBFF"/>
<path d="M158.45 23.1374C159.14 23.6556 159.642 24.2448 160.034 25.0092C160.059 25.3325 160.071 25.6566 160.077 25.9807C160.083 26.2835 160.083 26.2835 160.089 26.5924C160.093 26.8109 160.096 27.0294 160.1 27.2545C160.104 27.4777 160.108 27.701 160.113 27.931C160.126 28.6462 160.138 29.3613 160.15 30.0764C160.159 30.5604 160.168 31.0444 160.178 31.5284C160.2 32.7167 160.221 33.905 160.241 35.0933C160.787 35.2929 161.333 35.4926 161.895 35.6983C161.827 36.0311 161.759 36.3638 161.688 36.7067C160.989 36.7653 160.318 36.7921 159.621 36.7067C158.914 36.1187 158.691 35.5808 158.587 34.6899C158.45 34.8729 158.314 35.0559 158.173 35.2445C157.427 36.1054 156.537 36.6152 155.384 36.7805C154.83 36.8075 154.283 36.807 153.728 36.7949C153.449 36.7971 153.449 36.7971 153.165 36.7993C151.799 36.7867 150.564 36.6402 149.477 35.755C149.383 35.6365 149.289 35.5179 149.192 35.3958C149.094 35.2772 148.996 35.1587 148.896 35.0365C148.257 34.0874 148.369 32.9554 148.455 31.8664C148.898 30.5728 149.861 29.8657 151.043 29.228C152.086 28.7288 153.112 28.6837 154.258 28.6269C155.954 28.5364 157.149 28.3645 158.587 27.4294C158.757 26.5995 158.668 25.8168 158.354 25.0344C157.793 24.4137 157.167 24.0632 156.316 23.9428C155.865 23.9197 155.42 23.9182 154.968 23.9252C154.741 23.9217 154.741 23.9217 154.509 23.9181C153.205 23.9249 152.353 24.2412 151.402 25.1479C150.837 25.851 150.692 26.5614 150.523 27.4294C150.114 27.4294 149.704 27.4294 149.283 27.4294C149.134 26.0979 149.52 25.0893 150.316 24.0008C152.333 22.2648 156.057 21.8357 158.45 23.1374ZM157.781 28.9286C156.702 29.2832 155.66 29.3833 154.529 29.4588C152.281 29.5588 152.281 29.5588 150.342 30.5428C149.704 31.2932 149.635 31.8991 149.652 32.863C149.75 33.7843 150.156 34.3473 150.846 34.9546C152.106 35.8054 153.791 35.6242 155.279 35.4966C156.572 35.1926 157.467 34.3552 158.173 33.2781C158.966 31.8128 158.857 30.2557 158.794 28.6395C158.437 28.6395 158.113 28.809 157.781 28.9286Z" fill="#F7FBFF"/>
<path d="M101.468 23.0931C102.796 23.8517 103.8 24.9484 104.208 26.4208C104.234 26.988 104.234 26.988 104.208 27.4292C103.799 27.4292 103.389 27.4292 102.967 27.4292C102.925 27.2537 102.925 27.2537 102.883 27.0747C102.53 25.826 102.035 25.0933 100.9 24.404C99.5116 23.7163 97.5102 23.7687 96.0175 24.1322C94.7518 24.6908 93.8553 25.73 93.2884 26.9502C92.4947 29.1505 92.77 31.1314 93.6631 33.2779C94.1744 34.2259 94.9772 34.7644 95.9803 35.1545C97.4549 35.5126 99.2068 35.5876 100.616 34.967C102.094 34.068 102.614 32.8061 103.174 31.2611C103.584 31.2611 103.993 31.2611 104.415 31.2611C104.104 33.0196 103.564 34.2972 102.14 35.4964C100.283 36.7543 98.5725 36.9031 96.351 36.7065C94.6823 36.3191 93.5285 35.5688 92.6035 34.1603C91.3343 31.9714 90.9543 29.6153 91.6343 27.1519C92.2559 25.4367 93.3318 23.8418 95.0561 23.0235C97.0461 22.2197 99.5085 22.2161 101.468 23.0931Z" fill="#F7FBFF"/>
<path d="M142.872 18.1504C143.282 18.1504 143.691 18.1504 144.113 18.1504C144.113 19.6146 144.113 21.0788 144.113 22.5874C145.137 22.5874 146.16 22.5874 147.214 22.5874C147.214 22.9201 147.214 23.2529 147.214 23.5958C146.191 23.5958 145.168 23.5958 144.113 23.5958C144.122 25.1321 144.137 26.6683 144.156 28.2045C144.162 28.7272 144.166 29.2499 144.169 29.7726C144.174 30.5236 144.183 31.2744 144.194 32.0254C144.194 32.2594 144.194 32.4935 144.195 32.7347C144.199 32.9526 144.203 33.1706 144.207 33.3952C144.209 33.5869 144.211 33.7786 144.213 33.9761C144.351 34.6357 144.616 34.876 145.147 35.2932C145.677 35.4739 145.677 35.4739 146.232 35.5453C146.417 35.5755 146.601 35.6057 146.791 35.6367C146.931 35.6565 147.071 35.6763 147.214 35.6966C147.214 36.0959 147.214 36.4953 147.214 36.9067C145.831 36.954 144.702 36.9119 143.532 36.1C142.47 34.6797 142.616 32.8065 142.671 31.1194C142.676 30.9029 142.681 30.6864 142.686 30.4634C142.703 29.7791 142.723 29.095 142.743 28.4109C142.755 27.944 142.767 27.4771 142.779 27.0102C142.808 25.872 142.839 24.7339 142.872 23.5958C141.985 23.5958 141.098 23.5958 140.185 23.5958C140.185 23.263 140.185 22.9302 140.185 22.5874C141.072 22.5874 141.959 22.5874 142.872 22.5874C142.872 21.1232 142.872 19.659 142.872 18.1504Z" fill="#F7FBFF"/>
<path d="M95.6016 10.4243C96.75 11.3873 97.9272 12.622 98.212 14.1175C97.1782 13.1091 97.1782 13.1091 96.713 12.6175C94.8191 10.8962 92.6586 10.0021 90.0562 10.0406C87.5149 10.2491 85.2626 11.2786 83.5319 13.1091C81.8258 15.3456 81.444 17.6444 81.671 20.3696C81.8307 21.0064 82.0466 21.5724 82.2913 22.1848C82.2231 22.3844 82.1549 22.5841 82.0846 22.7898C80.5919 20.1251 80.03 17.8976 80.848 14.9306C81.704 12.3493 83.2443 10.7371 85.6536 9.4261C88.9485 7.87399 92.6785 8.29013 95.6016 10.4243Z" fill="#EF5728"/>
<path d="M137.083 22.5879C137.561 22.5879 138.039 22.5879 138.531 22.5879C138.531 27.2467 138.531 31.9055 138.531 36.7055C138.053 36.7055 137.576 36.7055 137.083 36.7055C137.083 32.0467 137.083 27.3879 137.083 22.5879Z" fill="#F7FBFF"/>
<path d="M90.5359 16.5C91.182 16.5378 91.182 16.5378 91.8023 16.9412C92.0396 17.6686 92.0424 18.0556 91.7894 18.7815C91.3148 19.4685 90.907 19.798 90.1482 20.1681C89.4817 20.1681 89.2278 20.0622 88.7267 19.6387C88.3806 18.9258 88.4848 18.4989 88.7009 17.7479C89.2178 17.1681 89.2178 17.1681 89.7347 16.7395C89.9415 16.5378 89.9415 16.5378 90.5359 16.5Z" fill="#EF5728"/>
<path d="M137.083 16.9414C137.561 16.9414 138.039 16.9414 138.531 16.9414C138.531 17.8732 138.531 18.8049 138.531 19.7649C138.053 19.7649 137.576 19.7649 137.083 19.7649C137.083 18.8332 137.083 17.9014 137.083 16.9414Z" fill="#F7FBFF"/>
<path d="M111.406 29.0166C111.589 29.0184 111.772 29.0202 111.96 29.0221C112.408 29.0268 112.857 29.0341 113.306 29.0418C113.306 29.2415 113.306 29.4411 113.306 29.6468C112.95 29.6835 112.95 29.6835 112.588 29.7209C112.271 29.755 111.955 29.7891 111.639 29.8233C111.483 29.8392 111.328 29.855 111.167 29.8714C110.185 29.9792 109.286 30.163 108.343 30.4536C108.275 30.3205 108.207 30.1873 108.137 30.0502C108.343 29.4452 108.343 29.4452 108.747 29.2072C109.639 28.9733 110.487 28.9992 111.406 29.0166Z" fill="#F7FBFF"/>
<path d="M157.759 29.0415C157.759 29.108 157.759 29.1746 157.759 29.2432C156.221 29.5901 154.545 29.5772 153.004 29.2432C153.004 29.1101 153.004 28.977 153.004 28.8398C154.363 28.177 156.361 28.6777 157.759 29.0415Z" fill="#F7FBFF"/>
<path d="M95.7309 10.6895C96.8785 11.489 97.6258 12.4574 98.2121 13.7147C98.1438 13.8478 98.0756 13.9809 98.0053 14.118C97.9325 14.0133 97.8598 13.9085 97.7848 13.8005C97.0624 12.8052 96.3703 12.1535 95.3174 11.4962C95.4538 11.23 95.5903 10.9637 95.7309 10.6895Z" fill="#EF5728"/>
<path d="M110.824 29.043C111.643 29.043 112.462 29.043 113.305 29.043C113.305 29.2426 113.305 29.4423 113.305 29.648C111.566 29.7478 111.566 29.7478 109.791 29.8497C110.063 29.7831 110.336 29.7166 110.618 29.648C110.686 29.4483 110.754 29.2487 110.824 29.043Z" fill="#F7FBFF"/>
<path d="M115.58 29.0412C115.299 29.0287 115.299 29.0287 115.012 29.016C114.365 29.0403 114.053 29.1202 113.513 29.4446C113.444 29.378 113.376 29.3115 113.306 29.2429C112.958 29.1959 112.609 29.1597 112.259 29.1295C111.974 29.1041 111.974 29.1041 111.683 29.0782C111.463 29.0599 111.463 29.0599 111.238 29.0412C111.238 28.9747 111.238 28.9081 111.238 28.8395C114.537 28.3628 114.537 28.3628 115.58 29.0412Z" fill="#F7FBFF"/>
<path d="M88.2874 12.3027C88.5788 12.8711 88.3926 13.1443 88.197 13.7397C88.1376 13.9233 88.0781 14.1068 88.0169 14.2959C87.9461 14.5073 87.9461 14.5073 87.8739 14.7229C87.7375 14.5898 87.601 14.4567 87.4604 14.3195C87.2557 14.4194 87.2557 14.4194 87.0469 14.5212C87.307 13.612 87.6473 13.0104 88.2874 12.3027Z" fill="#EF5728"/>
<path d="M24.1912 23.3945C24.3277 23.4611 24.4641 23.5276 24.6047 23.5962C23.9224 24.2618 23.2401 24.9273 22.5371 25.613C22.5371 24.811 22.8225 24.5867 23.3642 23.9996C23.8294 23.634 23.8294 23.634 24.1912 23.3945Z" fill="#F7FBFF"/>
<path d="M110.114 29.0293C110.348 29.0335 110.583 29.0376 110.825 29.0419C110.756 29.2416 110.688 29.4412 110.618 29.6469C110.208 29.7135 109.799 29.7801 109.377 29.8486C109.309 29.649 109.241 29.4493 109.17 29.2436C109.377 29.0419 109.377 29.0419 110.114 29.0293Z" fill="#F7FBFF"/>
<path d="M113.926 28.8398C114.608 28.8398 115.291 28.8398 115.994 28.8398C115.925 28.973 115.857 29.1061 115.787 29.2432C115.069 29.4767 114.472 29.4587 113.719 29.4449C113.787 29.2452 113.856 29.0456 113.926 28.8398Z" fill="#F7FBFF"/>
<path d="M151.35 23.1934C151.486 23.2599 151.623 23.3265 151.763 23.395C151.218 23.9275 150.672 24.4599 150.109 25.0085C150.109 24.4034 150.109 24.4034 150.613 23.874C150.788 23.716 150.963 23.5579 151.143 23.395C151.211 23.3285 151.28 23.2619 151.35 23.1934Z" fill="#F7FBFF"/>
<path d="M109.17 23.1934C109.307 23.2599 109.443 23.3265 109.584 23.395C109.038 23.9275 108.492 24.4599 107.93 25.0085C107.93 24.4034 107.93 24.4034 108.434 23.874C108.609 23.716 108.783 23.5579 108.963 23.395C109.032 23.3285 109.1 23.2619 109.17 23.1934Z" fill="#F7FBFF"/>
<path d="M124.471 22.9922C124.607 23.0587 124.744 23.1253 124.884 23.1939C124.407 23.6598 123.929 24.1256 123.437 24.6056C123.3 24.5391 123.164 24.4725 123.023 24.404C123.506 23.9334 123.988 23.4628 124.471 22.9922Z" fill="#F7FBFF"/>
</svg>
