<svg width="77" height="75" viewBox="0 0 77 75" fill="none" xmlns="http://www.w3.org/2000/svg">
<path fill-rule="evenodd" clip-rule="evenodd" d="M65.1435 26.1912C68.6816 33.8897 74.8105 41.8304 71.7386 49.7349C68.5622 57.9084 59.1307 61.6799 50.5783 63.6702C42.8276 65.4739 35.1735 63.208 27.9316 59.9295C20.3001 56.4745 12.0439 52.6749 9.04109 44.8656C5.94906 36.8243 7.957 27.4805 12.6777 20.259C16.9727 13.6887 24.8222 11.1213 32.4163 9.10725C39.3962 7.25604 46.8527 6.16173 53.2466 9.49942C59.549 12.7893 62.1778 19.7384 65.1435 26.1912Z" fill="#FFF1F1"/>
<g clip-path="url(#clip0_3483_135733)">
<path d="M48.9813 57.0483C48.8478 57.3543 48.5453 57.5515 48.2115 57.5504C47.8757 57.5501 47.5726 57.3491 47.4417 57.0399L45.9355 53.4921L43.8687 62.4789C43.7829 62.8437 43.465 63.1068 43.0906 63.1231C42.711 63.1405 42.3674 62.8999 42.2538 62.5374L37.5596 47.8105L35.0493 57.5336C34.9362 57.9817 34.4812 58.2531 34.0331 58.14C33.7931 58.0793 33.5922 57.9155 33.4846 57.6926L31.1333 52.8645H21.0923C23.8452 57.3328 28.6231 60.8806 32.7148 65.0979C36.3128 68.7629 38.9988 71.7417 38.9988 71.7417C38.9988 71.7417 41.6848 68.7629 45.2243 65.123C49.6926 60.5125 54.9808 56.7052 57.558 51.6261H51.341L48.9813 57.0483Z" fill="#FA4D56"/>
<path d="M48.3201 35.3427C41.2077 35.0916 38.9987 41.9447 38.9987 41.9447C38.9987 41.9447 36.7896 35.0916 29.6772 35.351C22.5648 35.6104 17.6782 42.4467 19.3182 48.7391C19.5466 49.6025 19.8548 50.4428 20.2386 51.2494H31.6854C32.0054 51.2487 32.2977 51.4306 32.4385 51.718L33.9781 54.9227L36.6223 44.5804C36.737 44.1328 37.1929 43.8629 37.6406 43.9776C37.9184 44.0488 38.1405 44.2573 38.2288 44.5302L42.8812 59.1232L44.8559 50.5967C44.955 50.1453 45.4012 49.8596 45.8525 49.9587C46.1193 50.0173 46.3408 50.2023 46.4458 50.4545L48.203 54.5964L50.002 50.4545C50.1354 50.1485 50.438 49.9513 50.7718 49.9524H58.3026C58.4532 49.5508 58.5787 49.1156 58.6875 48.7056C60.3108 42.4383 55.4241 35.6021 48.3201 35.3427Z" fill="#FA4D56"/>
</g>
<defs>
<clipPath id="clip0_3483_135733">
<rect width="40" height="40" fill="white" transform="translate(19 33.5391)"/>
</clipPath>
</defs>
</svg>
