<svg width="118" height="118" viewBox="0 0 118 118" fill="none" xmlns="http://www.w3.org/2000/svg">
<g id="QR Code">
<g clip-path="url(#clip0_5163_259769)">
<path id="Vector" d="M118 0H0V118H118V0Z" fill="#F3F4F6"/>
<g id="Vector_2">
<path d="M17.0067 12.5867H12.5864V17.007H17.0067V12.5867Z" fill="black"/>
<path d="M21.4271 12.5867H17.0067V17.007H21.4271V12.5867Z" fill="black"/>
<path d="M25.8474 12.5867H21.4271V17.007H25.8474V12.5867Z" fill="black"/>
<path d="M30.2677 12.5867H25.8474V17.007H30.2677V12.5867Z" fill="black"/>
<path d="M34.688 12.5867H30.2677V17.007H34.688V12.5867Z" fill="black"/>
<path d="M39.1083 12.5867H34.688V17.007H39.1083V12.5867Z" fill="black"/>
<path d="M43.5287 12.5867H39.1083V17.007H43.5287V12.5867Z" fill="black"/>
<path d="M52.3693 12.5867H47.949V17.007H52.3693V12.5867Z" fill="black"/>
<path d="M61.2099 12.5867H56.7896V17.007H61.2099V12.5867Z" fill="black"/>
<path d="M78.8912 12.5867H74.4709V17.007H78.8912V12.5867Z" fill="black"/>
<path d="M83.3115 12.5867H78.8912V17.007H83.3115V12.5867Z" fill="black"/>
<path d="M87.7318 12.5867H83.3115V17.007H87.7318V12.5867Z" fill="black"/>
<path d="M92.1521 12.5867H87.7318V17.007H92.1521V12.5867Z" fill="black"/>
<path d="M96.5725 12.5867H92.1521V17.007H96.5725V12.5867Z" fill="black"/>
<path d="M100.993 12.5867H96.5725V17.007H100.993V12.5867Z" fill="black"/>
<path d="M105.413 12.5867H100.993V17.007H105.413V12.5867Z" fill="black"/>
<path d="M17.0067 17.007H12.5864V21.4273H17.0067V17.007Z" fill="black"/>
<path d="M43.5287 17.007H39.1083V21.4273H43.5287V17.007Z" fill="black"/>
<path d="M61.2099 17.007H56.7896V21.4273H61.2099V17.007Z" fill="black"/>
<path d="M70.0506 17.007H65.6302V21.4273H70.0506V17.007Z" fill="black"/>
<path d="M78.8912 17.007H74.4709V21.4273H78.8912V17.007Z" fill="black"/>
<path d="M105.413 17.007H100.993V21.4273H105.413V17.007Z" fill="black"/>
<path d="M17.0067 21.4273H12.5864V25.8476H17.0067V21.4273Z" fill="black"/>
<path d="M25.8474 21.4273H21.4271V25.8476H25.8474V21.4273Z" fill="black"/>
<path d="M30.2677 21.4273H25.8474V25.8476H30.2677V21.4273Z" fill="black"/>
<path d="M34.688 21.4273H30.2677V25.8476H34.688V21.4273Z" fill="black"/>
<path d="M43.5287 21.4273H39.1083V25.8476H43.5287V21.4273Z" fill="black"/>
<path d="M52.3693 21.4273H47.949V25.8476H52.3693V21.4273Z" fill="black"/>
<path d="M61.2099 21.4273H56.7896V25.8476H61.2099V21.4273Z" fill="black"/>
<path d="M78.8912 21.4273H74.4709V25.8476H78.8912V21.4273Z" fill="black"/>
<path d="M87.7318 21.4273H83.3115V25.8476H87.7318V21.4273Z" fill="black"/>
<path d="M92.1521 21.4273H87.7318V25.8476H92.1521V21.4273Z" fill="black"/>
<path d="M96.5725 21.4273H92.1521V25.8476H96.5725V21.4273Z" fill="black"/>
<path d="M105.413 21.4273H100.993V25.8476H105.413V21.4273Z" fill="black"/>
<path d="M17.0067 25.8476H12.5864V30.2679H17.0067V25.8476Z" fill="black"/>
<path d="M25.8474 25.8476H21.4271V30.2679H25.8474V25.8476Z" fill="black"/>
<path d="M30.2677 25.8476H25.8474V30.2679H30.2677V25.8476Z" fill="black"/>
<path d="M34.688 25.8476H30.2677V30.2679H34.688V25.8476Z" fill="black"/>
<path d="M43.5287 25.8476H39.1083V30.2679H43.5287V25.8476Z" fill="black"/>
<path d="M52.3693 25.8476H47.949V30.2679H52.3693V25.8476Z" fill="black"/>
<path d="M61.2099 25.8476H56.7896V30.2679H61.2099V25.8476Z" fill="black"/>
<path d="M78.8912 25.8476H74.4709V30.2679H78.8912V25.8476Z" fill="black"/>
<path d="M87.7318 25.8476H83.3115V30.2679H87.7318V25.8476Z" fill="black"/>
<path d="M92.1521 25.8476H87.7318V30.2679H92.1521V25.8476Z" fill="black"/>
<path d="M96.5725 25.8476H92.1521V30.2679H96.5725V25.8476Z" fill="black"/>
<path d="M105.413 25.8476H100.993V30.2679H105.413V25.8476Z" fill="black"/>
<path d="M17.0067 30.2679H12.5864V34.6883H17.0067V30.2679Z" fill="black"/>
<path d="M25.8474 30.2679H21.4271V34.6883H25.8474V30.2679Z" fill="black"/>
<path d="M30.2677 30.2679H25.8474V34.6883H30.2677V30.2679Z" fill="black"/>
<path d="M34.688 30.2679H30.2677V34.6883H34.688V30.2679Z" fill="black"/>
<path d="M43.5287 30.2679H39.1083V34.6883H43.5287V30.2679Z" fill="black"/>
<path d="M52.3693 30.2679H47.949V34.6883H52.3693V30.2679Z" fill="black"/>
<path d="M56.7896 30.2679H52.3693V34.6883H56.7896L56.7896 30.2679Z" fill="black"/>
<path d="M61.2099 30.2679H56.7896L56.7896 34.6883H61.2099V30.2679Z" fill="black"/>
<path d="M65.6302 30.2679H61.2099V34.6883H65.6302V30.2679Z" fill="black"/>
<path d="M70.0506 30.2679H65.6302V34.6883H70.0506V30.2679Z" fill="black"/>
<path d="M78.8912 30.2679H74.4709V34.6883H78.8912V30.2679Z" fill="black"/>
<path d="M87.7318 30.2679H83.3115V34.6883H87.7318V30.2679Z" fill="black"/>
<path d="M92.1521 30.2679H87.7318V34.6883H92.1521V30.2679Z" fill="black"/>
<path d="M96.5725 30.2679H92.1521V34.6883H96.5725V30.2679Z" fill="black"/>
<path d="M105.413 30.2679H100.993V34.6883H105.413V30.2679Z" fill="black"/>
<path d="M17.0067 34.6883H12.5864V39.1086H17.0067V34.6883Z" fill="black"/>
<path d="M43.5287 34.6883H39.1083V39.1086H43.5287V34.6883Z" fill="black"/>
<path d="M52.3693 34.6883H47.949V39.1086H52.3693V34.6883Z" fill="black"/>
<path d="M70.0506 34.6883H65.6302V39.1086H70.0506V34.6883Z" fill="black"/>
<path d="M78.8912 34.6883H74.4709V39.1086H78.8912V34.6883Z" fill="black"/>
<path d="M105.413 34.6883H100.993V39.1086H105.413V34.6883Z" fill="black"/>
<path d="M17.0067 39.1086H12.5864V43.5289H17.0067V39.1086Z" fill="black"/>
<path d="M21.4271 39.1086H17.0067V43.5289H21.4271V39.1086Z" fill="black"/>
<path d="M25.8474 39.1086H21.4271V43.5289H25.8474V39.1086Z" fill="black"/>
<path d="M30.2677 39.1086H25.8474V43.5289H30.2677V39.1086Z" fill="black"/>
<path d="M34.688 39.1086H30.2677V43.5289H34.688V39.1086Z" fill="black"/>
<path d="M39.1083 39.1086H34.688V43.5289H39.1083V39.1086Z" fill="black"/>
<path d="M43.5287 39.1086H39.1083V43.5289H43.5287V39.1086Z" fill="black"/>
<path d="M52.3693 39.1086H47.949V43.5289H52.3693V39.1086Z" fill="black"/>
<path d="M61.2099 39.1086H56.7896V43.5289H61.2099V39.1086Z" fill="black"/>
<path d="M70.0506 39.1086H65.6302V43.5289H70.0506V39.1086Z" fill="black"/>
<path d="M78.8912 39.1086H74.4709V43.5289H78.8912V39.1086Z" fill="black"/>
<path d="M83.3115 39.1086H78.8912V43.5289H83.3115V39.1086Z" fill="black"/>
<path d="M87.7318 39.1086H83.3115V43.5289H87.7318V39.1086Z" fill="black"/>
<path d="M92.1521 39.1086H87.7318V43.5289H92.1521V39.1086Z" fill="black"/>
<path d="M96.5725 39.1086H92.1521V43.5289H96.5725V39.1086Z" fill="black"/>
<path d="M100.993 39.1086H96.5725V43.5289H100.993V39.1086Z" fill="black"/>
<path d="M105.413 39.1086H100.993V43.5289H105.413V39.1086Z" fill="black"/>
<path d="M56.7896 43.5289H52.3693L52.3693 47.9492H56.7896L56.7896 43.5289Z" fill="black"/>
<path d="M70.0506 43.5289H65.6302V47.9492H70.0506V43.5289Z" fill="black"/>
<path d="M25.8474 47.9492H21.4271V52.3695H25.8474V47.9492Z" fill="black"/>
<path d="M30.2677 47.9492H25.8474V52.3695H30.2677V47.9492Z" fill="black"/>
<path d="M34.688 47.9492H30.2677V52.3695H34.688V47.9492Z" fill="black"/>
<path d="M39.1083 47.9492H34.688V52.3695H39.1083V47.9492Z" fill="black"/>
<path d="M43.5287 47.9492H39.1083V52.3695H43.5287V47.9492Z" fill="black"/>
<path d="M47.949 47.9492H43.5287V52.3695H47.949V47.9492Z" fill="black"/>
<path d="M56.7896 47.9492H52.3693V52.3695H56.7896V47.9492Z" fill="black"/>
<path d="M65.6302 47.9492L61.2099 47.9492V52.3695H65.6302V47.9492Z" fill="black"/>
<path d="M74.4709 47.9492L70.0506 47.9492V52.3695H74.4709V47.9492Z" fill="black"/>
<path d="M83.3115 47.9492H78.8912V52.3695H83.3115V47.9492Z" fill="black"/>
<path d="M87.7318 47.9492H83.3115V52.3695H87.7318V47.9492Z" fill="black"/>
<path d="M92.1521 47.9492H87.7318V52.3695H92.1521V47.9492Z" fill="black"/>
<path d="M96.5725 47.9492H92.1521V52.3695H96.5725V47.9492Z" fill="black"/>
<path d="M105.413 47.9492H100.993V52.3695H105.413V47.9492Z" fill="black"/>
<path d="M17.0067 52.3695H12.5864V56.7898H17.0067V52.3695Z" fill="black"/>
<path d="M21.4271 52.3695L17.0067 52.3695V56.7898H21.4271V52.3695Z" fill="black"/>
<path d="M34.688 52.3695H30.2677V56.7898H34.688V52.3695Z" fill="black"/>
<path d="M39.1083 52.3695H34.688V56.7898H39.1083V52.3695Z" fill="black"/>
<path d="M56.7896 52.3695H52.3693V56.7898H56.7896V52.3695Z" fill="black"/>
<path d="M61.2099 52.3695H56.7896V56.7898H61.2099V52.3695Z" fill="black"/>
<path d="M70.0506 52.3695H65.6302V56.7898H70.0506V52.3695Z" fill="black"/>
<path d="M74.4709 52.3695H70.0506V56.7898H74.4709V52.3695Z" fill="black"/>
<path d="M83.3115 52.3695H78.8912V56.7898H83.3115V52.3695Z" fill="black"/>
<path d="M87.7318 52.3695H83.3115V56.7898H87.7318V52.3695Z" fill="black"/>
<path d="M92.1521 52.3695H87.7318V56.7898H92.1521V52.3695Z" fill="black"/>
<path d="M96.5725 52.3695H92.1521V56.7898H96.5725V52.3695Z" fill="black"/>
<path d="M100.993 52.3695H96.5725V56.7898H100.993V52.3695Z" fill="black"/>
<path d="M105.413 52.3695H100.993V56.7898H105.413V52.3695Z" fill="black"/>
<path d="M21.4271 56.7898H17.0067V61.2102H21.4271V56.7898Z" fill="black"/>
<path d="M25.8474 56.7898L21.4271 56.7898V61.2102H25.8474V56.7898Z" fill="black"/>
<path d="M30.2677 56.7898L25.8474 56.7898V61.2102H30.2677V56.7898Z" fill="black"/>
<path d="M39.1083 56.7898H34.688V61.2102H39.1083V56.7898Z" fill="black"/>
<path d="M43.5287 56.7898L39.1083 56.7898V61.2102H43.5287V56.7898Z" fill="black"/>
<path d="M52.3693 56.7898L47.949 56.7898V61.2102H52.3693L52.3693 56.7898Z" fill="black"/>
<path d="M92.1521 56.7898H87.7318V61.2102H92.1521V56.7898Z" fill="black"/>
<path d="M105.413 56.7898H100.993V61.2102H105.413V56.7898Z" fill="black"/>
<path d="M21.4271 61.2102H17.0067V65.6305H21.4271V61.2102Z" fill="black"/>
<path d="M25.8474 61.2102H21.4271V65.6305H25.8474V61.2102Z" fill="black"/>
<path d="M34.688 61.2102H30.2677V65.6305H34.688V61.2102Z" fill="black"/>
<path d="M47.949 61.2102H43.5287V65.6305H47.949L47.949 61.2102Z" fill="black"/>
<path d="M61.2099 61.2102H56.7896V65.6305H61.2099V61.2102Z" fill="black"/>
<path d="M70.0506 61.2102H65.6302V65.6305H70.0506V61.2102Z" fill="black"/>
<path d="M74.4709 61.2102H70.0506V65.6305H74.4709V61.2102Z" fill="black"/>
<path d="M83.3115 61.2102H78.8912V65.6305H83.3115V61.2102Z" fill="black"/>
<path d="M96.5725 61.2102H92.1521V65.6305H96.5725V61.2102Z" fill="black"/>
<path d="M105.413 61.2102H100.993V65.6305H105.413V61.2102Z" fill="black"/>
<path d="M17.0067 65.6305H12.5864V70.0508H17.0067V65.6305Z" fill="black"/>
<path d="M21.4271 65.6305H17.0067V70.0508H21.4271V65.6305Z" fill="black"/>
<path d="M25.8474 65.6305H21.4271V70.0508H25.8474V65.6305Z" fill="black"/>
<path d="M34.688 65.6305H30.2677V70.0508H34.688V65.6305Z" fill="black"/>
<path d="M39.1083 65.6305H34.688V70.0508H39.1083V65.6305Z" fill="black"/>
<path d="M43.5287 65.6305H39.1083V70.0508H43.5287V65.6305Z" fill="black"/>
<path d="M47.949 65.6305H43.5287V70.0508H47.949V65.6305Z" fill="black"/>
<path d="M52.3693 65.6305H47.949V70.0508H52.3693V65.6305Z" fill="black"/>
<path d="M56.7896 65.6305H52.3693V70.0508H56.7896L56.7896 65.6305Z" fill="black"/>
<path d="M74.4709 65.6305H70.0506V70.0508H74.4709V65.6305Z" fill="black"/>
<path d="M78.8912 65.6305H74.4709V70.0508H78.8912V65.6305Z" fill="black"/>
<path d="M83.3115 65.6305H78.8912V70.0508H83.3115V65.6305Z" fill="black"/>
<path d="M87.7318 65.6305H83.3115V70.0508H87.7318V65.6305Z" fill="black"/>
<path d="M92.1521 65.6305H87.7318V70.0508H92.1521V65.6305Z" fill="black"/>
<path d="M61.2099 70.0508H56.7896L56.7896 74.4711H61.2099V70.0508Z" fill="black"/>
<path d="M70.0506 70.0508H65.6302V74.4711H70.0506V70.0508Z" fill="black"/>
<path d="M74.4709 70.0508H70.0506V74.4711H74.4709V70.0508Z" fill="black"/>
<path d="M83.3115 70.0508H78.8912V74.4711H83.3115V70.0508Z" fill="black"/>
<path d="M96.5725 70.0508H92.1521V74.4711H96.5725V70.0508Z" fill="black"/>
<path d="M105.413 70.0508H100.993V74.4711H105.413V70.0508Z" fill="black"/>
<path d="M17.0067 74.4711H12.5864V78.8914H17.0067V74.4711Z" fill="black"/>
<path d="M21.4271 74.4711H17.0067V78.8914H21.4271V74.4711Z" fill="black"/>
<path d="M25.8474 74.4711H21.4271V78.8914H25.8474V74.4711Z" fill="black"/>
<path d="M30.2677 74.4711H25.8474V78.8914H30.2677V74.4711Z" fill="black"/>
<path d="M34.688 74.4711H30.2677V78.8914H34.688V74.4711Z" fill="black"/>
<path d="M39.1083 74.4711H34.688V78.8914H39.1083V74.4711Z" fill="black"/>
<path d="M43.5287 74.4711H39.1083V78.8914H43.5287V74.4711Z" fill="black"/>
<path d="M52.3693 74.4711H47.949V78.8914H52.3693V74.4711Z" fill="black"/>
<path d="M74.4709 74.4711H70.0506V78.8914H74.4709V74.4711Z" fill="black"/>
<path d="M78.8912 74.4711H74.4709V78.8914H78.8912V74.4711Z" fill="black"/>
<path d="M83.3115 74.4711H78.8912V78.8914H83.3115V74.4711Z" fill="black"/>
<path d="M17.0067 78.8914H12.5864V83.3118H17.0067V78.8914Z" fill="black"/>
<path d="M43.5287 78.8914H39.1083V83.3118H43.5287V78.8914Z" fill="black"/>
<path d="M52.3693 78.8914H47.949V83.3118H52.3693V78.8914Z" fill="black"/>
<path d="M56.7896 78.8914H52.3693V83.3118H56.7896V78.8914Z" fill="black"/>
<path d="M65.6302 78.8914H61.2099V83.3118H65.6302V78.8914Z" fill="black"/>
<path d="M78.8912 78.8914H74.4709V83.3118H78.8912V78.8914Z" fill="black"/>
<path d="M87.7318 78.8914H83.3115V83.3118H87.7318V78.8914Z" fill="black"/>
<path d="M92.1521 78.8914H87.7318V83.3118H92.1521V78.8914Z" fill="black"/>
<path d="M100.993 78.8914H96.5725V83.3118H100.993V78.8914Z" fill="black"/>
<path d="M17.0067 83.3118H12.5864V87.7321H17.0067V83.3118Z" fill="black"/>
<path d="M25.8474 83.3118H21.4271V87.7321H25.8474V83.3118Z" fill="black"/>
<path d="M30.2677 83.3118H25.8474V87.7321H30.2677V83.3118Z" fill="black"/>
<path d="M34.688 83.3118H30.2677V87.7321H34.688V83.3118Z" fill="black"/>
<path d="M43.5287 83.3118H39.1083V87.7321H43.5287V83.3118Z" fill="black"/>
<path d="M52.3693 83.3118H47.949V87.7321H52.3693V83.3118Z" fill="black"/>
<path d="M61.2099 83.3118H56.7896L56.7896 87.7321H61.2099V83.3118Z" fill="black"/>
<path d="M65.6302 83.3118H61.2099V87.7321H65.6302V83.3118Z" fill="black"/>
<path d="M70.0506 83.3118H65.6302V87.7321H70.0506V83.3118Z" fill="black"/>
<path d="M96.5725 83.3118H92.1521V87.7321H96.5725V83.3118Z" fill="black"/>
<path d="M100.993 83.3118H96.5725V87.7321H100.993V83.3118Z" fill="black"/>
<path d="M105.413 83.3118H100.993V87.7321H105.413V83.3118Z" fill="black"/>
<path d="M17.0067 87.7321H12.5864V92.1524H17.0067V87.7321Z" fill="black"/>
<path d="M25.8474 87.7321H21.4271V92.1524H25.8474V87.7321Z" fill="black"/>
<path d="M30.2677 87.7321H25.8474V92.1524H30.2677V87.7321Z" fill="black"/>
<path d="M34.688 87.7321H30.2677V92.1524H34.688V87.7321Z" fill="black"/>
<path d="M43.5287 87.7321H39.1083V92.1524H43.5287V87.7321Z" fill="black"/>
<path d="M52.3693 87.7321H47.949V92.1524H52.3693V87.7321Z" fill="black"/>
<path d="M56.7896 87.7321H52.3693V92.1524H56.7896L56.7896 87.7321Z" fill="black"/>
<path d="M61.2099 87.7321H56.7896L56.7896 92.1524H61.2099V87.7321Z" fill="black"/>
<path d="M65.6302 87.7321H61.2099V92.1524H65.6302V87.7321Z" fill="black"/>
<path d="M78.8912 87.7321H74.4709V92.1524H78.8912V87.7321Z" fill="black"/>
<path d="M83.3115 87.7321H78.8912V92.1524H83.3115V87.7321Z" fill="black"/>
<path d="M92.1521 87.7321H87.7318V92.1524H92.1521V87.7321Z" fill="black"/>
<path d="M17.0067 92.1524H12.5864V96.5727H17.0067V92.1524Z" fill="black"/>
<path d="M25.8474 92.1524H21.4271V96.5727H25.8474V92.1524Z" fill="black"/>
<path d="M30.2677 92.1524H25.8474V96.5727H30.2677V92.1524Z" fill="black"/>
<path d="M34.688 92.1524H30.2677V96.5727H34.688V92.1524Z" fill="black"/>
<path d="M43.5287 92.1524H39.1083V96.5727H43.5287V92.1524Z" fill="black"/>
<path d="M52.3693 92.1524H47.949V96.5727H52.3693V92.1524Z" fill="black"/>
<path d="M56.7896 92.1524H52.3693V96.5727H56.7896V92.1524Z" fill="black"/>
<path d="M61.2099 92.1524H56.7896V96.5727H61.2099V92.1524Z" fill="black"/>
<path d="M65.6302 92.1524H61.2099V96.5727H65.6302V92.1524Z" fill="black"/>
<path d="M74.4709 92.1524H70.0506V96.5727H74.4709V92.1524Z" fill="black"/>
<path d="M78.8912 92.1524H74.4709V96.5727H78.8912V92.1524Z" fill="black"/>
<path d="M83.3115 92.1524H78.8912V96.5727H83.3115V92.1524Z" fill="black"/>
<path d="M96.5725 92.1524H92.1521V96.5727H96.5725V92.1524Z" fill="black"/>
<path d="M100.993 92.1524H96.5725V96.5727H100.993V92.1524Z" fill="black"/>
<path d="M105.413 92.1524H100.993V96.5727H105.413V92.1524Z" fill="black"/>
<path d="M17.0067 96.5727H12.5864V100.993H17.0067V96.5727Z" fill="black"/>
<path d="M43.5287 96.5727H39.1083V100.993H43.5287V96.5727Z" fill="black"/>
<path d="M61.2099 96.5727H56.7896L56.7896 100.993H61.2099V96.5727Z" fill="black"/>
<path d="M78.8912 96.5727H74.4709V100.993H78.8912V96.5727Z" fill="black"/>
<path d="M87.7318 96.5727H83.3115V100.993H87.7318V96.5727Z" fill="black"/>
<path d="M105.413 96.5727H100.993V100.993H105.413V96.5727Z" fill="black"/>
<path d="M17.0067 100.993H12.5864V105.413H17.0067V100.993Z" fill="black"/>
<path d="M21.4271 100.993H17.0067V105.413H21.4271V100.993Z" fill="black"/>
<path d="M25.8474 100.993H21.4271V105.413H25.8474V100.993Z" fill="black"/>
<path d="M30.2677 100.993H25.8474V105.413H30.2677V100.993Z" fill="black"/>
<path d="M34.688 100.993H30.2677V105.413H34.688V100.993Z" fill="black"/>
<path d="M39.1083 100.993H34.688V105.413H39.1083V100.993Z" fill="black"/>
<path d="M43.5287 100.993H39.1083V105.413H43.5287V100.993Z" fill="black"/>
<path d="M56.7896 100.993H52.3693V105.413H56.7896L56.7896 100.993Z" fill="black"/>
<path d="M70.0506 100.993H65.6302V105.413H70.0506V100.993Z" fill="black"/>
</g>
</g>
</g>
<defs>
<clipPath id="clip0_5163_259769">
<path d="M0 8C0 3.58172 3.58172 0 8 0H110C114.418 0 118 3.58172 118 8V110C118 114.418 114.418 118 110 118H8C3.58172 118 0 114.418 0 110V8Z" fill="white"/>
</clipPath>
</defs>
</svg>
