<svg width="56" height="56" viewBox="0 0 56 56" fill="none" xmlns="http://www.w3.org/2000/svg">
<g clip-path="url(#clip0_5163_259637)">
<path fill-rule="evenodd" clip-rule="evenodd" d="M75.668 10.5976C67.4983 21.0153 51.9231 18.1182 39.1777 21.5518C26.5124 24.9639 14.4284 35.4004 2.36724 30.345C-10.3157 25.029 -14.8664 10.096 -19.3006 -2.95914C-24.1842 -17.3376 -29.8671 -32.6481 -23.7713 -46.6127C-17.1676 -61.7409 -2.91558 -72.5749 12.968 -76.8816C28.8281 -81.182 46.268 -78.6742 59.6579 -69.234C72.1104 -60.4546 76.5487 -44.9259 79.555 -29.9358C82.325 -16.1237 84.3834 -0.515985 75.668 10.5976Z" fill="#CBE9EB"/>
<g clip-path="url(#clip1_5163_259637)">
<path d="M35.3332 24.7598V12.6665C35.3332 12.1361 35.1225 11.6274 34.7474 11.2523C34.3723 10.8772 33.8636 10.6665 33.3332 10.6665H10.6665C10.1361 10.6665 9.62736 10.8772 9.25229 11.2523C8.87722 11.6274 8.6665 12.1361 8.6665 12.6665V41.9998C8.6665 42.5303 8.87722 43.039 9.25229 43.414C9.62736 43.7891 10.1361 43.9998 10.6665 43.9998H19.3398L35.3332 24.7598Z" fill="#A85D48"/>
<path d="M32.6668 24.0735V14.0002C32.6668 13.8234 32.5966 13.6538 32.4716 13.5288C32.3465 13.4037 32.177 13.3335 32.0002 13.3335H12.0002C11.8234 13.3335 11.6538 13.4037 11.5288 13.5288C11.4037 13.6538 11.3335 13.8234 11.3335 14.0002V40.6668C11.3335 40.8436 11.4037 41.0132 11.5288 41.1382C11.6538 41.2633 11.8234 41.3335 12.0002 41.3335H20.5668L32.6668 24.0735Z" fill="white"/>
<path d="M26.6668 10.6665V13.3332C26.6668 13.51 26.5966 13.6796 26.4716 13.8046C26.3465 13.9296 26.177 13.9998 26.0002 13.9998H18.0002C17.8234 13.9998 17.6538 13.9296 17.5288 13.8046C17.4037 13.6796 17.3335 13.51 17.3335 13.3332V10.6665C17.3335 10.4897 17.4037 10.3201 17.5288 10.1951C17.6538 10.0701 17.8234 9.99984 18.0002 9.99984H19.3335C19.644 9.58585 20.0466 9.24984 20.5095 9.01841C20.9723 8.78699 21.4827 8.6665 22.0002 8.6665C22.5176 8.6665 23.028 8.78699 23.4909 9.01841C23.9537 9.24984 24.3563 9.58585 24.6668 9.99984H26.0002C26.177 9.99984 26.3465 10.0701 26.4716 10.1951C26.5966 10.3201 26.6668 10.4897 26.6668 10.6665Z" fill="#C0DADC"/>
<path d="M26 19.9998V21.3332C26 21.51 25.9298 21.6796 25.8047 21.8046C25.6797 21.9296 25.5101 21.9998 25.3333 21.9998H23.3333V23.9998C23.3333 24.1766 23.2631 24.3462 23.1381 24.4712C23.013 24.5963 22.8435 24.6665 22.6667 24.6665H21.3333C21.1565 24.6665 20.987 24.5963 20.8619 24.4712C20.7369 24.3462 20.6667 24.1766 20.6667 23.9998V21.9998H18.6667C18.4899 21.9998 18.3203 21.9296 18.1953 21.8046C18.0702 21.6796 18 21.51 18 21.3332V19.9998C18 19.823 18.0702 19.6535 18.1953 19.5284C18.3203 19.4034 18.4899 19.3332 18.6667 19.3332H20.6667V17.3332C20.6667 17.1564 20.7369 16.9868 20.8619 16.8618C20.987 16.7367 21.1565 16.6665 21.3333 16.6665H22.6667C22.8435 16.6665 23.013 16.7367 23.1381 16.8618C23.2631 16.9868 23.3333 17.1564 23.3333 17.3332V19.3332H25.3333C25.5101 19.3332 25.6797 19.4034 25.8047 19.5284C25.9298 19.6535 26 19.823 26 19.9998Z" fill="#DD2F40"/>
<path d="M16 28.6666H14.6667C14.4899 28.6666 14.3203 28.5963 14.1953 28.4713C14.0702 28.3463 14 28.1767 14 27.9999C14 27.8231 14.0702 27.6535 14.1953 27.5285C14.3203 27.4035 14.4899 27.3333 14.6667 27.3333H16C16.1768 27.3333 16.3464 27.4035 16.4714 27.5285C16.5964 27.6535 16.6667 27.8231 16.6667 27.9999C16.6667 28.1767 16.5964 28.3463 16.4714 28.4713C16.3464 28.5963 16.1768 28.6666 16 28.6666Z" fill="#C0DADC"/>
<path d="M30 28.6666H18.6667C18.4899 28.6666 18.3203 28.5963 18.1953 28.4713C18.0702 28.3463 18 28.1767 18 27.9999C18 27.8231 18.0702 27.6535 18.1953 27.5285C18.3203 27.4035 18.4899 27.3333 18.6667 27.3333H30C30.1768 27.3333 30.3464 27.4035 30.4714 27.5285C30.5964 27.6535 30.6667 27.8231 30.6667 27.9999C30.6667 28.1767 30.5964 28.3463 30.4714 28.4713C30.3464 28.5963 30.1768 28.6666 30 28.6666Z" fill="#C0DADC"/>
<path d="M16 31.9998H14.6667C14.4899 31.9998 14.3203 31.9296 14.1953 31.8046C14.0702 31.6796 14 31.51 14 31.3332C14 31.1564 14.0702 30.9868 14.1953 30.8618C14.3203 30.7367 14.4899 30.6665 14.6667 30.6665H16C16.1768 30.6665 16.3464 30.7367 16.4714 30.8618C16.5964 30.9868 16.6667 31.1564 16.6667 31.3332C16.6667 31.51 16.5964 31.6796 16.4714 31.8046C16.3464 31.9296 16.1768 31.9998 16 31.9998Z" fill="#C0DADC"/>
<path d="M28.2667 31.9998H18.6667C18.4899 31.9998 18.3203 31.9296 18.1953 31.8046C18.0702 31.6796 18 31.51 18 31.3332C18 31.1564 18.0702 30.9868 18.1953 30.8618C18.3203 30.7367 18.4899 30.6665 18.6667 30.6665H28.2667C28.4435 30.6665 28.613 30.7367 28.7381 30.8618C28.8631 30.9868 28.9333 31.1564 28.9333 31.3332C28.9333 31.51 28.8631 31.6796 28.7381 31.8046C28.613 31.9296 28.4435 31.9998 28.2667 31.9998Z" fill="#C0DADC"/>
<path d="M16 35.3333H14.6667C14.4899 35.3333 14.3203 35.2631 14.1953 35.1381C14.0702 35.013 14 34.8435 14 34.6667C14 34.4899 14.0702 34.3203 14.1953 34.1953C14.3203 34.0702 14.4899 34 14.6667 34H16C16.1768 34 16.3464 34.0702 16.4714 34.1953C16.5964 34.3203 16.6667 34.4899 16.6667 34.6667C16.6667 34.8435 16.5964 35.013 16.4714 35.1381C16.3464 35.2631 16.1768 35.3333 16 35.3333Z" fill="#C0DADC"/>
<path d="M26.1333 35.3333H18.6667C18.4899 35.3333 18.3203 35.2631 18.1953 35.1381C18.0702 35.013 18 34.8435 18 34.6667C18 34.4899 18.0702 34.3203 18.1953 34.1953C18.3203 34.0702 18.4899 34 18.6667 34H26.1333C26.3101 34 26.4797 34.0702 26.6047 34.1953C26.7298 34.3203 26.8 34.4899 26.8 34.6667C26.8 34.8435 26.7298 35.013 26.6047 35.1381C26.4797 35.2631 26.3101 35.3333 26.1333 35.3333Z" fill="#C0DADC"/>
<path d="M16 38.6666H14.6667C14.4899 38.6666 14.3203 38.5963 14.1953 38.4713C14.0702 38.3463 14 38.1767 14 37.9999C14 37.8231 14.0702 37.6535 14.1953 37.5285C14.3203 37.4035 14.4899 37.3333 14.6667 37.3333H16C16.1768 37.3333 16.3464 37.4035 16.4714 37.5285C16.5964 37.6535 16.6667 37.8231 16.6667 37.9999C16.6667 38.1767 16.5964 38.3463 16.4714 38.4713C16.3464 38.5963 16.1768 38.6666 16 38.6666Z" fill="#C0DADC"/>
<path d="M24 38.6666H18.6667C18.4899 38.6666 18.3203 38.5963 18.1953 38.4713C18.0702 38.3463 18 38.1767 18 37.9999C18 37.8231 18.0702 37.6535 18.1953 37.5285C18.3203 37.4035 18.4899 37.3333 18.6667 37.3333H24C24.1768 37.3333 24.3464 37.4035 24.4714 37.5285C24.5964 37.6535 24.6667 37.8231 24.6667 37.9999C24.6667 38.1767 24.5964 38.3463 24.4714 38.4713C24.3464 38.5963 24.1768 38.6666 24 38.6666Z" fill="#C0DADC"/>
<path d="M44.2413 47.3332H22.4253C21.8627 47.3242 21.3128 47.1644 20.8328 46.8706C20.3529 46.5769 19.9605 46.1598 19.6965 45.6628C19.4325 45.1659 19.3065 44.6072 19.3318 44.0451C19.357 43.4829 19.5325 42.9378 19.84 42.4665L30.748 25.4272C31.0231 24.9901 31.4045 24.6298 31.8567 24.3802C32.3088 24.1305 32.8168 23.9995 33.3333 23.9995C33.8498 23.9995 34.3579 24.1305 34.81 24.3802C35.2621 24.6298 35.6436 24.9901 35.9187 25.4272L46.8267 42.4699C47.1333 42.9411 47.3081 43.4859 47.3328 44.0475C47.3576 44.6092 47.2315 45.1672 46.9676 45.6637C46.7037 46.1601 46.3117 46.5767 45.8322 46.8704C45.3528 47.164 44.8035 47.3238 44.2413 47.3332Z" fill="#DD9343"/>
<path d="M34.6667 30.0001C34.6667 29.2637 34.0697 28.6667 33.3333 28.6667C32.597 28.6667 32 29.2637 32 30.0001V38.0001C32 38.7365 32.597 39.3334 33.3333 39.3334C34.0697 39.3334 34.6667 38.7365 34.6667 38.0001V30.0001Z" fill="white"/>
<path d="M33.3333 44.6667C34.0697 44.6667 34.6667 44.0697 34.6667 43.3333C34.6667 42.597 34.0697 42 33.3333 42C32.597 42 32 42.597 32 43.3333C32 44.0697 32.597 44.6667 33.3333 44.6667Z" fill="white"/>
</g>
</g>
<defs>
<clipPath id="clip0_5163_259637">
<rect width="56" height="56" fill="white"/>
</clipPath>
<clipPath id="clip1_5163_259637">
<rect width="40" height="40" fill="white" transform="translate(8 8)"/>
</clipPath>
</defs>
</svg>
