<svg width="40" height="40" viewBox="0 0 40 40" fill="none" xmlns="http://www.w3.org/2000/svg">
<g clip-path="url(#clip0_5954_149158)">
<path d="M0.979062 18.1179L7.91734 14.746L5.98977 13.6404C6.19086 13.3925 9.52008 4.76562 18.8281 4.76562H30.5469V0H18.8281C11.4895 0 4.90484 4.47836 1.91102 11.3009L0 10.2496L0.979062 18.1179Z" fill="#66CCFF"/>
<path d="M39.0991 21.8823L32.0827 25.2542L34.0102 26.3598C33.8091 26.6077 30.4799 35.2346 21.1719 35.2346H9.45312V40.0002H21.1719C28.5105 40.0002 35.0952 35.5219 38.089 28.6993L40 29.7506L39.0991 21.8823Z" fill="#59ABFF"/>
<path d="M9.50937 21.2114C4.35672 21.1594 0.0390625 25.3484 0.0390625 30.5856C0.0390625 33.4606 1.34141 36.138 3.56094 37.9091C3.78984 38.0919 5.8875 38.306 6.04297 37.7841C6.48438 36.306 7.87031 35.2731 9.41406 35.2731C10.9552 35.2731 12.3418 36.302 12.7852 37.7841C13.0047 38.5216 15.0383 38.0919 15.268 37.9091C17.4875 36.1372 18.7891 33.4591 18.7891 30.5856C18.7891 25.4481 14.6352 21.2622 9.50937 21.2114Z" fill="#4D5E80"/>
<path d="M9.50938 21.2115C9.4775 21.2112 9.44586 21.2118 9.41406 21.2118V35.2732C10.9552 35.2732 12.3418 36.3021 12.7852 37.7842C13.0047 38.5217 15.0383 38.092 15.268 37.9092C17.4875 36.1373 18.7891 33.4592 18.7891 30.5857C18.7891 25.4482 14.6352 21.2623 9.50938 21.2115Z" fill="#3D4566"/>
<path d="M15.0306 37.1136C14.5374 35.4597 12.76 32.9292 9.41416 32.9292C6.04447 32.9292 4.28369 35.4837 3.79775 37.1136L3.56104 37.9089C4.75439 38.862 6.74158 39.9604 9.41416 39.9604C10.95 39.9604 13.1735 39.5761 15.2681 37.9089L15.0306 37.1136Z" fill="#FF7F40"/>
<path d="M15.268 37.9089L15.0305 37.1136C14.5373 35.4597 12.7599 32.9292 9.41406 32.9292V39.9604C10.9499 39.9604 13.1734 39.5761 15.268 37.9089Z" fill="#F25A3C"/>
<path d="M9.41406 32.9292C7.47555 32.9292 5.89844 31.3521 5.89844 29.4136C5.89844 27.4751 7.47555 25.8979 9.41406 25.8979C11.3526 25.8979 12.9297 27.4751 12.9297 29.4136C12.9297 31.3521 11.3526 32.9292 9.41406 32.9292Z" fill="#FFD9B3"/>
<path d="M12.9297 29.4136C12.9297 27.4751 11.3526 25.8979 9.41406 25.8979V32.9292C11.3526 32.9292 12.9297 31.3521 12.9297 29.4136Z" fill="#FFBB99"/>
<path d="M30.6812 0.039542C25.5286 -0.0124893 21.2109 4.17657 21.2109 9.41376C21.2109 12.2888 22.5133 14.9661 24.7328 16.7372C24.9617 16.92 27.0594 17.1341 27.2148 16.6122C27.6563 15.1341 29.0422 14.1013 30.5859 14.1013C32.1271 14.1013 33.5137 15.1302 33.957 16.6122C34.1766 17.3497 36.2102 16.92 36.4398 16.7372C38.6594 14.9653 39.9609 12.2872 39.9609 9.41376C39.9609 4.27626 35.807 0.0903232 30.6812 0.039542Z" fill="#4D5E80"/>
<path d="M30.6813 0.0396472C30.6494 0.0393347 30.6177 0.0398816 30.5859 0.0398816V14.1014C32.1271 14.1014 33.5137 15.1303 33.957 16.6123C34.1766 17.3498 36.2102 16.9201 36.4398 16.7373C38.6594 14.9654 39.9609 12.2873 39.9609 9.41387C39.9609 4.27637 35.807 0.0904285 30.6813 0.0396472Z" fill="#3D4566"/>
<path d="M36.2024 15.9417C35.7093 14.2878 33.9319 11.7573 30.586 11.7573C27.2163 11.7573 25.4556 14.3119 24.9696 15.9417L24.7329 16.737C25.9263 17.6901 27.9135 18.7886 30.586 18.7886C32.1219 18.7886 34.3453 18.4042 36.4399 16.737L36.2024 15.9417Z" fill="#FF7F40"/>
<path d="M36.4398 16.737L36.2023 15.9417C35.7092 14.2878 33.9318 11.7573 30.5859 11.7573V18.7886C32.1218 18.7886 34.3452 18.4042 36.4398 16.737Z" fill="#F25A3C"/>
<path d="M30.5859 11.7573C28.6474 11.7573 27.0703 10.1802 27.0703 8.2417C27.0703 6.30318 28.6474 4.72607 30.5859 4.72607C32.5245 4.72607 34.1016 6.30318 34.1016 8.2417C34.1016 10.1802 32.5245 11.7573 30.5859 11.7573Z" fill="#FFD9B3"/>
<path d="M34.1016 8.2417C34.1016 6.30318 32.5245 4.72607 30.5859 4.72607V11.7573C32.5245 11.7573 34.1016 10.1802 34.1016 8.2417Z" fill="#FFBB99"/>
</g>
<defs>
<clipPath id="clip0_5954_149158">
<rect width="40" height="40" fill="white"/>
</clipPath>
</defs>
</svg>
