<svg width="40" height="40" viewBox="0 0 40 40" fill="none" xmlns="http://www.w3.org/2000/svg">
<g clip-path="url(#clip0_5954_149315)">
<path d="M19.2365 33.3333H3.99908C2.52635 33.3333 1.33252 32.1394 1.33252 30.6667V28H21.7979L19.2365 33.3333Z" fill="#D3DCFB"/>
<path d="M36.0017 12V23.2029V30.6665H3.99908C2.52635 30.6665 1.33252 29.4726 1.33252 27.9999V12L20.0005 5.33325L36.0017 12Z" fill="#EBF5FC"/>
<path d="M6.04164 17.3334H4.625C4.27984 17.3334 4 17.0535 4 16.7084V15.2917C4 14.9466 4.27984 14.6667 4.625 14.6667H6.04164C6.3868 14.6667 6.66664 14.9466 6.66664 15.2917V16.7084C6.66664 17.0535 6.3868 17.3334 6.04164 17.3334Z" fill="#3C58A0"/>
<path d="M11.3751 17.3334H9.9585C9.61334 17.3334 9.3335 17.0535 9.3335 16.7084V15.2917C9.3335 14.9466 9.61334 14.6667 9.9585 14.6667H11.3751C11.7203 14.6667 12.0001 14.9466 12.0001 15.2917V16.7084C12.0001 17.0535 11.7203 17.3334 11.3751 17.3334Z" fill="#3C58A0"/>
<path d="M16.7081 17.3334H15.2915C14.9463 17.3334 14.6665 17.0535 14.6665 16.7084V15.2917C14.6665 14.9466 14.9463 14.6667 15.2915 14.6667H16.7081C17.0533 14.6667 17.3331 14.9466 17.3331 15.2917V16.7084C17.3331 17.0535 17.0534 17.3334 16.7081 17.3334Z" fill="#3C58A0"/>
<path d="M22.0416 17.3334H20.625C20.2798 17.3334 20 17.0535 20 16.7084V15.2917C20 14.9466 20.2798 14.6667 20.625 14.6667H22.0416C22.3868 14.6667 22.6666 14.9466 22.6666 15.2917V16.7084C22.6666 17.0535 22.3868 17.3334 22.0416 17.3334Z" fill="#3C58A0"/>
<path d="M27.3742 17.3334H25.9575C25.6124 17.3334 25.3325 17.0535 25.3325 16.7084V15.2917C25.3325 14.9466 25.6124 14.6667 25.9575 14.6667H27.3742C27.7193 14.6667 27.9992 14.9466 27.9992 15.2917V16.7084C27.9992 17.0535 27.7194 17.3334 27.3742 17.3334Z" fill="#3C58A0"/>
<path d="M32.7077 17.3334H31.291C30.9459 17.3334 30.666 17.0535 30.666 16.7084V15.2917C30.666 14.9466 30.9459 14.6667 31.291 14.6667H32.7077C33.0528 14.6667 33.3327 14.9466 33.3327 15.2917V16.7084C33.3327 17.0535 33.0528 17.3334 32.7077 17.3334Z" fill="#3C58A0"/>
<path d="M6.04164 22.6666H4.625C4.27984 22.6666 4 22.3868 4 22.0416V20.625C4 20.2798 4.27984 20 4.625 20H6.04164C6.3868 20 6.66664 20.2798 6.66664 20.625V22.0416C6.66664 22.3869 6.3868 22.6666 6.04164 22.6666Z" fill="#3C58A0"/>
<path d="M11.3751 22.6666H9.9585C9.61334 22.6666 9.3335 22.3868 9.3335 22.0416V20.625C9.3335 20.2798 9.61334 20 9.9585 20H11.3751C11.7203 20 12.0001 20.2798 12.0001 20.625V22.0416C12.0001 22.3869 11.7203 22.6666 11.3751 22.6666Z" fill="#3C58A0"/>
<path d="M16.7081 22.6666H15.2915C14.9463 22.6666 14.6665 22.3868 14.6665 22.0416V20.625C14.6665 20.2798 14.9463 20 15.2915 20H16.7081C17.0533 20 17.3331 20.2798 17.3331 20.625V22.0416C17.3331 22.3869 17.0534 22.6666 16.7081 22.6666Z" fill="#3C58A0"/>
<path d="M22.6666 22.6666V20.6666C22.6666 20.2984 22.3682 20 22 20H20.6666C20.2984 20 20 20.2984 20 20.6666V22C20 22.3682 20.2985 22.6666 20.6666 22.6666H22.6666Z" fill="#3C58A0"/>
<path d="M6.04164 28.0001H4.625C4.27984 28.0001 4 27.7203 4 27.3751V25.9585C4 25.6133 4.27984 25.3335 4.625 25.3335H6.04164C6.3868 25.3335 6.66664 25.6133 6.66664 25.9585V27.3751C6.66664 27.7203 6.3868 28.0001 6.04164 28.0001Z" fill="#3C58A0"/>
<path d="M11.3751 28.0001H9.9585C9.61334 28.0001 9.3335 27.7203 9.3335 27.3751V25.9585C9.3335 25.6133 9.61334 25.3335 9.9585 25.3335H11.3751C11.7203 25.3335 12.0001 25.6133 12.0001 25.9585V27.3751C12.0001 27.7203 11.7203 28.0001 11.3751 28.0001Z" fill="#3C58A0"/>
<path d="M16.7081 28.0001H15.2915C14.9463 28.0001 14.6665 27.7203 14.6665 27.3751V25.9585C14.6665 25.6133 14.9463 25.3335 15.2915 25.3335H16.7081C17.0533 25.3335 17.3331 25.6133 17.3331 25.9585V27.3751C17.3331 27.7203 17.0534 28.0001 16.7081 28.0001Z" fill="#3C58A0"/>
<path d="M32.6887 14.6667H31.3098C31.2264 14.6667 31.1469 14.6832 31.0737 14.712C31.3124 14.8062 31.4815 15.0384 31.4815 15.3106V16.6895C31.4815 16.9617 31.3123 17.1939 31.0737 17.2881C31.1469 17.317 31.2264 17.3334 31.3098 17.3334H32.6887C33.0444 17.3334 33.3326 17.0451 33.3326 16.6896V15.3107C33.3326 14.955 33.0443 14.6667 32.6887 14.6667Z" fill="#2A428C"/>
<path d="M27.3552 14.6667H25.9763C25.8929 14.6667 25.8134 14.6832 25.7402 14.712C25.9789 14.8062 26.148 15.0384 26.148 15.3106V16.6895C26.148 16.9617 25.9788 17.1939 25.7402 17.2881C25.8134 17.317 25.8929 17.3334 25.9763 17.3334H27.3552C27.7109 17.3334 27.9991 17.0451 27.9991 16.6896V15.3107C27.9991 14.955 27.7109 14.6667 27.3552 14.6667Z" fill="#2A428C"/>
<path d="M22.0227 14.6667H20.6438C20.5604 14.6667 20.4809 14.6832 20.4077 14.712C20.6464 14.8062 20.8155 15.0384 20.8155 15.3106V16.6895C20.8155 16.9617 20.6464 17.1939 20.4077 17.2881C20.4809 17.317 20.5604 17.3334 20.6438 17.3334H22.0227C22.3783 17.3334 22.6666 17.0451 22.6666 16.6896V15.3107C22.6665 14.955 22.3783 14.6667 22.0227 14.6667Z" fill="#2A428C"/>
<path d="M16.6897 14.6667H15.3108C15.2274 14.6667 15.1479 14.6832 15.0747 14.712C15.3134 14.8062 15.4825 15.0384 15.4825 15.3106V16.6895C15.4825 16.9617 15.3134 17.1939 15.0747 17.2881C15.1479 17.317 15.2274 17.3334 15.3108 17.3334H16.6897C17.0453 17.3334 17.3336 17.0451 17.3336 16.6896V15.3107C17.3335 14.955 17.0453 14.6667 16.6897 14.6667Z" fill="#2A428C"/>
<path d="M11.3562 14.6667H9.9773C9.89387 14.6667 9.81441 14.6832 9.74121 14.712C9.97988 14.8062 10.1489 15.0384 10.1489 15.3106V16.6895C10.1489 16.9617 9.9798 17.1939 9.74121 17.2881C9.81441 17.317 9.89387 17.3334 9.9773 17.3334H11.3562C11.7118 17.3334 12.0001 17.0451 12.0001 16.6896V15.3107C12.0001 14.955 11.7118 14.6667 11.3562 14.6667Z" fill="#2A428C"/>
<path d="M6.02271 14.6667H4.64381C4.56037 14.6667 4.48092 14.6832 4.40771 14.712C4.64639 14.8062 4.81553 15.0384 4.81553 15.3106V16.6895C4.81553 16.9617 4.64639 17.1939 4.40771 17.2881C4.48092 17.317 4.56037 17.3334 4.64381 17.3334H6.02271C6.37834 17.3334 6.66662 17.0451 6.66662 16.6896V15.3107C6.66654 14.955 6.37826 14.6667 6.02271 14.6667Z" fill="#2A428C"/>
<path d="M6.02271 20H4.64381C4.56037 20 4.48092 20.0164 4.40771 20.0452C4.64639 20.1395 4.81553 20.3716 4.81553 20.6438V22.0228C4.81553 22.295 4.64639 22.5272 4.40771 22.6214C4.48092 22.6503 4.56037 22.6667 4.64381 22.6667H6.02271C6.37834 22.6667 6.66662 22.3784 6.66662 22.0229V20.6439C6.66654 20.2883 6.37826 20 6.02271 20Z" fill="#2A428C"/>
<path d="M6.02271 25.3333H4.64381C4.56037 25.3333 4.48092 25.3497 4.40771 25.3785C4.64639 25.4727 4.81553 25.7049 4.81553 25.9771V27.3561C4.81553 27.6283 4.64639 27.8604 4.40771 27.9547C4.48092 27.9836 4.56037 28 4.64381 28H6.02271C6.37834 28 6.66662 27.7117 6.66662 27.3561V25.9772C6.66654 25.6215 6.37826 25.3333 6.02271 25.3333Z" fill="#2A428C"/>
<path d="M11.3562 20H9.9773C9.89387 20 9.81441 20.0164 9.74121 20.0452C9.97988 20.1395 10.1489 20.3716 10.1489 20.6438V22.0228C10.1489 22.295 9.9798 22.5272 9.74121 22.6214C9.81441 22.6503 9.89387 22.6667 9.9773 22.6667H11.3562C11.7118 22.6667 12.0001 22.3784 12.0001 22.0229V20.6439C12.0001 20.2883 11.7118 20 11.3562 20Z" fill="#2A428C"/>
<path d="M11.3562 25.3333H9.9773C9.89387 25.3333 9.81441 25.3497 9.74121 25.3785C9.97988 25.4727 10.1489 25.7049 10.1489 25.9771V27.3561C10.1489 27.6283 9.9798 27.8604 9.74121 27.9547C9.81441 27.9836 9.89387 28 9.9773 28H11.3562C11.7118 28 12.0001 27.7117 12.0001 27.3561V25.9772C12.0001 25.6215 11.7118 25.3333 11.3562 25.3333Z" fill="#2A428C"/>
<path d="M16.6897 20H15.3108C15.2274 20 15.1479 20.0164 15.0747 20.0452C15.3134 20.1395 15.4825 20.3716 15.4825 20.6438V22.0228C15.4825 22.295 15.3134 22.5272 15.0747 22.6214C15.1479 22.6503 15.2274 22.6667 15.3108 22.6667H16.6897C17.0453 22.6667 17.3336 22.3784 17.3336 22.0229V20.6439C17.3335 20.2883 17.0453 20 16.6897 20Z" fill="#2A428C"/>
<path d="M22.6666 22.6666V20.6438C22.6666 20.2882 22.3783 20 22.0227 20H20.6438C20.5604 20 20.4809 20.0164 20.4077 20.0452C20.6464 20.1395 20.8155 20.3716 20.8155 20.6438V22.0228C20.8155 22.295 20.6464 22.5272 20.4077 22.6214C20.4809 22.6503 20.5604 22.6667 20.6438 22.6667H22.6666V22.6666Z" fill="#2A428C"/>
<path d="M16.6897 25.3333H15.3108C15.2274 25.3333 15.1479 25.3497 15.0747 25.3785C15.3134 25.4727 15.4825 25.7049 15.4825 25.9771V27.3561C15.4825 27.6283 15.3134 27.8604 15.0747 27.9547C15.1479 27.9836 15.2274 28 15.3108 28H16.6897C17.0453 28 17.3336 27.7117 17.3336 27.3561V25.9772C17.3335 25.6215 17.0453 25.3333 16.6897 25.3333Z" fill="#2A428C"/>
<path d="M34.1494 11.2283V23.203V30.6667H36.0018V23.203V12.0001L34.1494 11.2283Z" fill="#D3DCFB"/>
<path d="M36.0017 12V5.33331C36.0017 3.86058 34.8078 2.66675 33.3352 2.66675H3.99908C2.52635 2.66675 1.33252 3.86058 1.33252 5.33331V12H36.0017Z" fill="#FF4155"/>
<path d="M9.7348 5.93692H7.9991C7.66566 5.93692 7.39551 5.66669 7.39551 5.33333C7.39551 4.99997 7.66574 4.72974 7.9991 4.72974H9.7348C10.0682 4.72974 10.3384 4.99997 10.3384 5.33333C10.3384 5.66669 10.0682 5.93692 9.7348 5.93692Z" fill="#E80054"/>
<path d="M13.999 5.93692H12.2633C11.9298 5.93692 11.6597 5.66669 11.6597 5.33333C11.6597 4.99997 11.9299 4.72974 12.2633 4.72974H13.999C14.3324 4.72974 14.6026 4.99997 14.6026 5.33333C14.6026 5.66669 14.3324 5.93692 13.999 5.93692Z" fill="#E80054"/>
<path d="M25.0689 5.93692H23.3331C22.9996 5.93692 22.7295 5.66669 22.7295 5.33333C22.7295 4.99997 22.9997 4.72974 23.3331 4.72974H25.0689C25.4023 4.72974 25.6725 4.99997 25.6725 5.33333C25.6725 5.66669 25.4023 5.93692 25.0689 5.93692Z" fill="#E80054"/>
<path d="M29.3335 5.93692H27.5977C27.2643 5.93692 26.9941 5.66669 26.9941 5.33333C26.9941 4.99997 27.2644 4.72974 27.5977 4.72974H29.3335C29.667 4.72974 29.9371 4.99997 29.9371 5.33333C29.9371 5.66669 29.6669 5.93692 29.3335 5.93692Z" fill="#E80054"/>
<path d="M12.6658 5C12.6658 5.92047 11.9196 6.66664 10.9992 6.66664C10.0787 6.66664 9.33252 5.92047 9.33252 5V1.66664C9.33244 0.746172 10.0786 0 10.9991 0C11.9196 0 12.6657 0.746172 12.6657 1.66664V5H12.6658Z" fill="#EBF5FC"/>
<path d="M27.9999 5C27.9999 5.92047 27.2537 6.66664 26.3332 6.66664C25.4128 6.66664 24.6665 5.92047 24.6665 5V1.66664C24.6665 0.746172 25.4127 0 26.3331 0C27.2536 0 27.9998 0.746172 27.9998 1.66664V5H27.9999Z" fill="#EBF5FC"/>
<path d="M26.3334 0C25.9912 0 25.6734 0.103438 25.4087 0.280313C25.856 0.579219 26.1507 1.08836 26.1507 1.66672V5C26.1507 5.57828 25.856 6.0875 25.4087 6.38641C25.6733 6.5632 25.9912 6.66672 26.3334 6.66672C27.2538 6.66672 28 5.92055 28 5.00008V1.66664C28.0001 0.746172 27.2539 0 26.3334 0Z" fill="#D3DCFB"/>
<path d="M10.9994 0C10.6572 0 10.3394 0.103438 10.0747 0.280313C10.522 0.579219 10.8167 1.08836 10.8167 1.66672V5C10.8167 5.57828 10.522 6.0875 10.0747 6.38641C10.3393 6.5632 10.6572 6.66672 10.9994 6.66672C11.9199 6.66672 12.666 5.92055 12.666 5.00008V1.66664C12.6661 0.746172 11.9199 0 10.9994 0Z" fill="#D3DCFB"/>
<path d="M33.3352 2.66675H31.4834C32.9561 2.66675 34.15 3.86058 34.15 5.33331V12.0001H36.0017V5.33339C36.0018 3.86065 34.8079 2.66675 33.3352 2.66675Z" fill="#E80054"/>
<path d="M1.33252 8.72974H36.0018V9.937H1.33252V8.72974Z" fill="#E80054"/>
<path d="M28.667 40C34.1898 40 38.667 35.5228 38.667 30C38.667 24.4772 34.1898 20 28.667 20C23.1441 20 18.667 24.4772 18.667 30C18.667 35.5228 23.1441 40 28.667 40Z" fill="#4FABF7"/>
<path d="M28.6673 37.3335C32.7174 37.3335 36.0007 34.0502 36.0007 30.0001C36.0007 25.95 32.7174 22.6667 28.6673 22.6667C24.6172 22.6667 21.334 25.95 21.334 30.0001C21.334 34.0502 24.6172 37.3335 28.6673 37.3335Z" fill="#EBF5FC"/>
<path d="M28.6671 29.2703C28.3336 29.2703 28.0635 29 28.0635 28.6667V25.3333C28.0635 25 28.3337 24.7297 28.6671 24.7297C29.0005 24.7297 29.2707 25 29.2707 25.3333V28.6667C29.2707 29 29.0004 29.2703 28.6671 29.2703Z" fill="#3C58A0"/>
<path d="M32.0006 30.6037H30.0006C29.6671 30.6037 29.397 30.3334 29.397 30.0001C29.397 29.6667 29.6672 29.3965 30.0006 29.3965H32.0006C32.3341 29.3965 32.6042 29.6667 32.6042 30.0001C32.6042 30.3334 32.334 30.6037 32.0006 30.6037Z" fill="#3C58A0"/>
<path d="M28.6673 20C28.3552 20 28.0466 20.0151 27.7418 20.043C32.8306 20.5102 36.8162 24.7893 36.8162 30C36.8162 35.2107 32.8305 39.4898 27.7417 39.957C28.0465 39.9849 28.3551 40 28.6672 40C34.1901 40 38.6672 35.5228 38.6672 30C38.6672 24.4772 34.1901 20 28.6673 20Z" fill="#1886EA"/>
<path d="M28.6671 22.6667C28.3538 22.6667 28.0452 22.6865 27.7422 22.7246C31.3556 23.1794 34.1506 26.2633 34.1506 30.0001C34.1506 33.7369 31.3556 36.8208 27.7422 37.2756C28.0452 37.3137 28.3538 37.3335 28.6671 37.3335C32.7172 37.3335 36.0005 34.0502 36.0005 30.0001C36.0005 25.95 32.7172 22.6667 28.6671 22.6667Z" fill="#D3DCFB"/>
<path d="M28.6673 31.3335C29.4037 31.3335 30.0007 30.7365 30.0007 30.0001C30.0007 29.2637 29.4037 28.6667 28.6673 28.6667C27.9309 28.6667 27.334 29.2637 27.334 30.0001C27.334 30.7365 27.9309 31.3335 28.6673 31.3335Z" fill="#FFDD40"/>
</g>
<defs>
<clipPath id="clip0_5954_149315">
<rect width="40" height="40" fill="white"/>
</clipPath>
</defs>
</svg>
