<svg width="140" height="109" viewBox="0 0 140 109" fill="none" xmlns="http://www.w3.org/2000/svg">
<g clip-path="url(#clip0_99_135929)">
<path d="M70.983 56.4414C64.4445 56.4414 59.125 51.1789 59.125 44.7106C59.125 40.8959 60.965 37.4121 63.981 35.2385V7.36834C63.9809 3.54875 67.1221 0.441406 70.983 0.441406C74.8438 0.441406 77.985 3.54875 77.985 7.36834V35.2385C81.0009 37.4122 82.841 40.8959 82.841 44.7106C82.841 51.1789 77.5215 56.4414 70.983 56.4414Z" fill="white"/>
<path d="M77.9851 35.2385V7.36823C77.9851 3.54875 74.844 0.441406 70.9831 0.441406C70.1318 0.441406 69.3158 0.592891 68.5605 0.869281C71.231 1.84666 73.14 4.39094 73.14 7.36834V44.7795L77.996 44.7107C77.996 50.358 73.9412 55.0856 68.5605 56.195C69.3429 56.3563 70.153 56.4415 70.9831 56.4415C77.5216 56.4415 82.8411 51.1792 82.8411 44.7107C82.8411 40.8959 81.0011 37.4122 77.9851 35.2385Z" fill="#ECECEC"/>
<path d="M68.8276 18.5418V7.4675C68.8276 6.29182 69.7945 5.33545 70.9829 5.33545C72.1712 5.33545 73.138 6.29193 73.138 7.4675V18.5418H68.8276Z" fill="#99CAF7"/>
<path d="M73.1381 18.5415V37.5519C73.1381 37.8762 73.3363 38.1683 73.6394 38.2913C76.2848 39.364 77.994 41.8837 77.994 44.7106C77.994 48.5351 74.8488 51.6465 70.9828 51.6465C67.1169 51.6465 63.9717 48.5351 63.9717 44.7106C63.9717 41.8838 65.681 39.3641 68.3262 38.2913C68.6295 38.1684 68.8276 37.8762 68.8276 37.5519V18.5415H73.1381Z" fill="#FF4C30"/>
<path d="M77.8566 30.8989H76.3836C75.9169 30.8989 75.5386 31.2773 75.5386 31.744C75.5386 32.2107 75.9169 32.589 76.3836 32.589H77.8566C78.3233 32.589 78.7016 32.2107 78.7016 31.744C78.7016 31.2773 78.3233 30.8989 77.8566 30.8989Z" fill="#99CAF7"/>
<path d="M77.8566 26.458H76.3836C75.9169 26.458 75.5386 26.8363 75.5386 27.303C75.5386 27.7697 75.9169 28.1481 76.3836 28.1481H77.8566C78.3233 28.1481 78.7016 27.7697 78.7016 27.303C78.7016 26.8363 78.3233 26.458 77.8566 26.458Z" fill="#99CAF7"/>
<path d="M77.8566 22.0176H76.3836C75.9169 22.0176 75.5386 22.3959 75.5386 22.8626C75.5386 23.3293 75.9169 23.7076 76.3836 23.7076H77.8566C78.3233 23.7076 78.7016 23.3293 78.7016 22.8626C78.7016 22.3959 78.3233 22.0176 77.8566 22.0176Z" fill="#99CAF7"/>
<path d="M77.8566 17.5767H76.3836C75.9169 17.5767 75.5386 17.955 75.5386 18.4217C75.5386 18.8884 75.9169 19.2667 76.3836 19.2667H77.8566C78.3233 19.2667 78.7016 18.8884 78.7016 18.4217C78.7016 17.955 78.3233 17.5767 77.8566 17.5767Z" fill="#99CAF7"/>
<path d="M77.8566 13.1357H76.3836C75.9169 13.1357 75.5386 13.5141 75.5386 13.9808C75.5386 14.4475 75.9169 14.8258 76.3836 14.8258H77.8566C78.3233 14.8258 78.7016 14.4475 78.7016 13.9808C78.7016 13.5142 78.3233 13.1357 77.8566 13.1357Z" fill="#99CAF7"/>
<path d="M76.3836 10.3854H77.8566C78.3233 10.3854 78.7016 10.007 78.7016 9.54034C78.7016 9.07364 78.3233 8.69531 77.8566 8.69531H76.3836C75.9169 8.69531 75.5386 9.07364 75.5386 9.54034C75.5386 10.007 75.9169 10.3854 76.3836 10.3854Z" fill="#99CAF7"/>
<path d="M53.4175 13.7451C54.574 11.7464 57.4656 11.7464 58.6221 13.7451L61.9532 19.5013L65.2843 25.2576C66.4409 27.2563 64.9952 29.7544 62.6821 29.7544H56.0197H49.3575C47.0443 29.7544 45.5986 27.2561 46.7552 25.2576L50.0864 19.5013L53.4175 13.7451Z" fill="#FF4C30"/>
<path d="M65.2847 25.2577L61.9535 19.5014L58.6224 13.7451C57.5689 11.9246 55.0767 11.7632 53.7666 13.2589C53.8948 13.4054 54.0123 13.5669 54.1154 13.7451L57.4465 19.5014L60.7776 25.2577C61.9342 27.2563 60.4885 29.7544 58.1753 29.7544H62.6823C64.9956 29.7545 66.4413 27.2563 65.2847 25.2577Z" fill="#FF2E0D"/>
<path d="M56.0198 16.085C55.5531 16.085 55.1748 16.4633 55.1748 16.93V22.8516C55.1748 23.3183 55.5531 23.6966 56.0198 23.6966C56.4865 23.6966 56.8649 23.3183 56.8649 22.8516V16.93C56.8649 16.4633 56.4865 16.085 56.0198 16.085Z" fill="white"/>
<path d="M56.0199 25.1382C54.9324 25.1382 54.9306 26.8284 56.0199 26.8284C57.1075 26.8284 57.1092 25.1382 56.0199 25.1382Z" fill="white"/>
<path d="M87.109 10.3404L84.7703 8.31989C84.4579 8.04962 83.9778 8.04962 83.6653 8.31989L81.3268 10.3404C80.9736 10.6455 80.9347 11.1792 81.2398 11.5323C81.545 11.8855 82.0786 11.9244 82.4318 11.6193L83.3729 10.8062V27.0459C83.3729 27.5126 83.7512 27.8909 84.2179 27.8909C84.6846 27.8909 85.0629 27.5126 85.0629 27.0459V10.8063L86.004 11.6194C86.1638 11.7574 86.3603 11.825 86.5561 11.825C86.7931 11.825 87.0288 11.7258 87.196 11.5324C87.5011 11.1792 87.4621 10.6455 87.109 10.3404Z" fill="#FF4C30"/>
<path d="M93.3589 18.9595L91.0203 16.939C90.7079 16.6688 90.2278 16.6688 89.9153 16.939L87.5768 18.9595C87.2236 19.2647 87.1847 19.7983 87.4898 20.1515C87.795 20.5045 88.3286 20.5437 88.6818 20.2384L89.6229 19.4253V35.665C89.6229 36.1317 90.0012 36.51 90.4679 36.51C90.9346 36.51 91.3129 36.1317 91.3129 35.665V19.4254L92.254 20.2385C92.4138 20.3766 92.6103 20.4442 92.8061 20.4442C93.0431 20.4442 93.2788 20.345 93.446 20.1516C93.751 19.7983 93.7121 19.2647 93.3589 18.9595Z" fill="#FF4C30"/>
<path d="M68.0106 45.5559C67.5439 45.5559 67.1655 45.1775 67.1655 44.7108C67.1655 43.1666 68.0978 41.7906 69.5406 41.2057C69.9729 41.0304 70.4658 41.2387 70.6412 41.6713C70.8167 42.1039 70.6082 42.5966 70.1756 42.7719C69.3738 43.0971 68.8557 43.8581 68.8557 44.7108C68.8557 45.1775 68.4773 45.5559 68.0106 45.5559Z" fill="white"/>
</g>
<path d="M0 80.4414C0 76.0231 3.58172 72.4414 8 72.4414H132C136.418 72.4414 140 76.0231 140 80.4414V100.441C140 104.86 136.418 108.441 132 108.441H8C3.58172 108.441 0 104.86 0 100.441V80.4414Z" fill="#FFC801"/>
<path d="M51.208 95.5508C50.5062 95.5508 49.8431 95.4232 49.2188 95.168C48.599 94.9128 48.0498 94.5527 47.5713 94.0879C47.0973 93.623 46.7236 93.0762 46.4502 92.4473C46.1813 91.8184 46.0469 91.1348 46.0469 90.3965C46.0469 89.6445 46.1836 88.9564 46.457 88.332C46.735 87.7031 47.1133 87.1585 47.5918 86.6982C48.0703 86.238 48.6195 85.8825 49.2393 85.6318C49.8636 85.3812 50.5221 85.2559 51.2148 85.2559C51.7754 85.2559 52.3245 85.3356 52.8623 85.4951C53.4001 85.6546 53.874 85.8825 54.2842 86.1787L53.7441 87.4707C53.457 87.1882 53.0879 86.9694 52.6367 86.8145C52.1855 86.6595 51.7207 86.582 51.2422 86.582C50.7637 86.582 50.3011 86.6732 49.8545 86.8555C49.4079 87.0378 49.0068 87.2975 48.6514 87.6348C48.2959 87.9674 48.0156 88.3662 47.8105 88.8311C47.6055 89.2913 47.5029 89.804 47.5029 90.3691C47.5029 90.916 47.5986 91.4242 47.79 91.8936C47.986 92.363 48.2572 92.7731 48.6035 93.124C48.9544 93.4704 49.3555 93.7415 49.8066 93.9375C50.2578 94.1289 50.7409 94.2246 51.2559 94.2246C51.5749 94.2246 51.8916 94.1882 52.2061 94.1152C52.5251 94.0378 52.819 93.9284 53.0879 93.7871C53.3613 93.6458 53.5892 93.4772 53.7715 93.2812L54.3115 94.5596C53.9014 94.8695 53.4206 95.1133 52.8691 95.291C52.3223 95.4642 51.7686 95.5508 51.208 95.5508ZM57.5107 95.5508C57.0505 95.5508 56.638 95.4619 56.2734 95.2842C55.9089 95.1019 55.6217 94.8467 55.4121 94.5186C55.2025 94.1904 55.0977 93.8053 55.0977 93.3633C55.0977 92.8984 55.223 92.4974 55.4736 92.1602C55.7288 91.8229 56.1003 91.5654 56.5879 91.3877C57.0755 91.21 57.668 91.1211 58.3652 91.1211H59.9102V92.1533H58.4268C57.7979 92.1533 57.3102 92.2559 56.9639 92.4609C56.6221 92.6615 56.4512 92.9554 56.4512 93.3428C56.4512 93.5661 56.5081 93.7575 56.6221 93.917C56.736 94.0719 56.8887 94.1927 57.0801 94.2793C57.276 94.3613 57.4948 94.4023 57.7363 94.4023C58.0052 94.4023 58.29 94.3431 58.5908 94.2246C58.8916 94.1061 59.1491 93.9284 59.3633 93.6914C59.5775 93.4499 59.6846 93.1514 59.6846 92.7959V92.0439L59.623 91.6406V90.793C59.623 90.6608 59.6094 90.5104 59.582 90.3418C59.5592 90.1686 59.5 90.0046 59.4043 89.8496C59.3132 89.6901 59.1696 89.5579 58.9736 89.4531C58.7777 89.3483 58.5111 89.2959 58.1738 89.2959C57.9505 89.2959 57.709 89.3232 57.4492 89.3779C57.194 89.4326 56.9456 89.5078 56.7041 89.6035C56.4671 89.6992 56.2575 89.8086 56.0752 89.9316L55.5762 88.7559C55.7995 88.6237 56.0615 88.5052 56.3623 88.4004C56.6631 88.291 56.9821 88.2067 57.3193 88.1475C57.6566 88.0882 57.9938 88.0586 58.3311 88.0586C58.8779 88.0586 59.3223 88.1361 59.6641 88.291C60.0104 88.446 60.277 88.6556 60.4639 88.9199C60.6507 89.1842 60.7783 89.4759 60.8467 89.7949C60.9196 90.1139 60.9561 90.4375 60.9561 90.7656V93.2266C60.9561 93.5228 60.988 93.7552 61.0518 93.9238C61.1156 94.0879 61.2318 94.2018 61.4004 94.2656L61.5439 94.3203L61.0244 95.5508L60.8262 95.4688C60.5254 95.3457 60.2839 95.1794 60.1016 94.9697C59.9193 94.7601 59.8236 94.5505 59.8145 94.3408L60.0811 94.4707H59.5889L59.9238 94.2793C59.7507 94.6257 59.4476 94.9242 59.0146 95.1748C58.5863 95.4255 58.085 95.5508 57.5107 95.5508ZM65.4951 95.5508C64.9665 95.5508 64.4971 95.4391 64.0869 95.2158C63.6813 94.988 63.3623 94.6598 63.1299 94.2314C62.8975 93.8031 62.7812 93.2835 62.7812 92.6729V88.1748H64.1758V92.5703C64.1758 93.1445 64.333 93.5752 64.6475 93.8623C64.9619 94.1494 65.3402 94.293 65.7822 94.293C66.124 94.293 66.4248 94.2178 66.6846 94.0674C66.9443 93.9124 67.1449 93.7051 67.2861 93.4453C67.432 93.181 67.5049 92.8893 67.5049 92.5703V88.1748H68.8994V93.2744C68.8994 93.5798 68.9382 93.8076 69.0156 93.958C69.0931 94.1084 69.2503 94.2292 69.4873 94.3203L68.9678 95.5508C68.5895 95.3958 68.291 95.1999 68.0723 94.9629C67.8581 94.7259 67.7487 94.4753 67.7441 94.2109L68.2842 94.5117H67.3682L68.0723 94.0537C67.8626 94.4548 67.5436 94.8057 67.1152 95.1064C66.6868 95.4027 66.1468 95.5508 65.4951 95.5508ZM73.5137 95.5508C72.7845 95.5508 72.2354 95.3434 71.8662 94.9287C71.4971 94.5094 71.3125 93.974 71.3125 93.3223V85.8848H72.707V93.2061C72.707 93.5661 72.7891 93.8372 72.9531 94.0195C73.1217 94.1973 73.3359 94.2861 73.5957 94.2861C73.7096 94.2861 73.8145 94.2702 73.9102 94.2383C74.0059 94.2064 74.0947 94.1699 74.1768 94.1289L74.6758 95.3047C74.5208 95.373 74.3477 95.43 74.1562 95.4756C73.9694 95.5257 73.7552 95.5508 73.5137 95.5508ZM70.1094 89.3779V88.168H74.4775V89.3779H70.1094ZM75.9404 95.4414V88.1748H77.335V95.4414H75.9404ZM76.6377 87.0811C76.3597 87.0811 76.125 86.9854 75.9336 86.7939C75.7467 86.6025 75.6533 86.3701 75.6533 86.0967C75.6533 85.8232 75.7467 85.5908 75.9336 85.3994C76.125 85.208 76.3597 85.1123 76.6377 85.1123C76.9111 85.1123 77.1436 85.208 77.335 85.3994C77.5264 85.5908 77.6221 85.8232 77.6221 86.0967C77.6221 86.3701 77.5264 86.6025 77.335 86.7939C77.1436 86.9854 76.9111 87.0811 76.6377 87.0811ZM82.3525 95.5508C81.6689 95.5508 81.056 95.3913 80.5137 95.0723C79.9714 94.7533 79.543 94.3089 79.2285 93.7393C78.9141 93.1696 78.7568 92.5133 78.7568 91.7705C78.7568 91.0413 78.9141 90.3988 79.2285 89.8428C79.543 89.2822 79.9714 88.847 80.5137 88.5371C81.056 88.2227 81.6689 88.0654 82.3525 88.0654C83.0452 88.0654 83.6628 88.2227 84.2051 88.5371C84.7474 88.847 85.1735 89.2822 85.4834 89.8428C85.7933 90.3988 85.9482 91.0413 85.9482 91.7705C85.9482 92.5133 85.791 93.1696 85.4766 93.7393C85.1621 94.3089 84.7337 94.7533 84.1914 95.0723C83.6491 95.3913 83.0361 95.5508 82.3525 95.5508ZM82.3525 94.293C82.7809 94.293 83.1615 94.1882 83.4941 93.9785C83.8268 93.7643 84.0866 93.4704 84.2734 93.0967C84.4603 92.7184 84.5537 92.2764 84.5537 91.7705C84.5537 91.2829 84.4603 90.8545 84.2734 90.4854C84.0866 90.1162 83.8268 89.8314 83.4941 89.6309C83.1615 89.4258 82.7809 89.3232 82.3525 89.3232C81.9333 89.3232 81.5573 89.4258 81.2246 89.6309C80.8919 89.8314 80.6299 90.1162 80.4385 90.4854C80.2471 90.8499 80.1514 91.2783 80.1514 91.7705C80.1514 92.2764 80.2448 92.7184 80.4316 93.0967C80.623 93.4704 80.8828 93.7643 81.2109 93.9785C81.5436 94.1882 81.9242 94.293 82.3525 94.293ZM87.3359 95.4414V88.168H88.7168V89.0771H88.9971L88.4707 89.6377C88.5846 89.2959 88.7624 89.0088 89.0039 88.7764C89.25 88.5394 89.5394 88.3617 89.8721 88.2432C90.2093 88.1201 90.5693 88.0586 90.9521 88.0586C91.54 88.0586 92.0186 88.1885 92.3877 88.4482C92.7614 88.708 93.0348 89.043 93.208 89.4531C93.3857 89.8633 93.4746 90.2962 93.4746 90.752V95.4414H92.0801V91.0527C92.0801 90.474 91.9365 90.0387 91.6494 89.7471C91.3669 89.4554 90.9795 89.3096 90.4873 89.3096C90.1592 89.3096 89.8607 89.3779 89.5918 89.5146C89.3275 89.6468 89.1178 89.8428 88.9629 90.1025C88.8079 90.3623 88.7305 90.679 88.7305 91.0527V95.4414H87.3359Z" fill="#111928"/>
<defs>
<clipPath id="clip0_99_135929">
<rect width="56" height="56" fill="white" transform="translate(42 0.441406)"/>
</clipPath>
</defs>
</svg>
