<svg width="41" height="40" viewBox="0 0 41 40" fill="none" xmlns="http://www.w3.org/2000/svg">
<path fill-rule="evenodd" clip-rule="evenodd" d="M30.5 3.33301C33.2615 3.33301 35.5 5.57159 35.5 8.33301V33.333C35.5 36.0945 33.2615 38.333 30.5 38.333H10.5C7.73858 38.333 5.5 36.0945 5.5 33.333V31.6663H25.5C26.4205 31.6663 27.1667 30.9202 27.1667 29.9997V3.33301H30.5Z" fill="#C4E6FF"/>
<path fill-rule="evenodd" clip-rule="evenodd" d="M10.5 6.66634C9.57953 6.66634 8.83333 7.41254 8.83333 8.33301V33.333C8.83333 34.2535 9.57953 34.9997 10.5 34.9997H30.5C31.4205 34.9997 32.1667 34.2535 32.1667 33.333V8.33301C32.1667 7.41254 31.4205 6.66634 30.5 6.66634H27.1667C26.2462 6.66634 25.5 5.92014 25.5 4.99967C25.5 4.07921 26.2462 3.33301 27.1667 3.33301H30.5C33.2615 3.33301 35.5 5.57159 35.5 8.33301V33.333C35.5 36.0945 33.2615 38.333 30.5 38.333H10.5C7.73858 38.333 5.5 36.0945 5.5 33.333V8.33301C5.5 5.57159 7.73858 3.33301 10.5 3.33301H13.8333C14.7538 3.33301 15.5 4.07921 15.5 4.99967C15.5 5.92014 14.7538 6.66634 13.8333 6.66634H10.5Z" fill="#024493"/>
<path fill-rule="evenodd" clip-rule="evenodd" d="M15.4998 6.6665C15.4998 5.74604 16.246 4.99984 17.1665 4.99984H23.8332C24.7537 4.99984 25.4998 5.74604 25.4998 6.6665C25.4998 7.58697 24.7537 8.33317 23.8332 8.33317H17.1665C16.246 8.33317 15.4998 7.58697 15.4998 6.6665ZM17.1665 1.6665C14.4051 1.6665 12.1665 3.90509 12.1665 6.6665C12.1665 9.42792 14.4051 11.6665 17.1665 11.6665H23.8332C26.5947 11.6665 28.8332 9.42792 28.8332 6.6665C28.8332 3.90509 26.5947 1.6665 23.8332 1.6665H17.1665ZM19.3213 15.488C19.9722 14.8371 21.0275 14.8371 21.6783 15.488L26.6783 20.488C27.3292 21.1388 27.3292 22.1942 26.6783 22.845C26.0275 23.4958 24.9722 23.4958 24.3213 22.845L22.1665 20.6902V26.6665C22.1665 27.587 21.4203 28.3332 20.4998 28.3332C19.5793 28.3332 18.8332 27.587 18.8332 26.6665V20.6902L16.6784 22.845C16.0275 23.4958 14.9722 23.4958 14.3213 22.845C13.6705 22.1942 13.6705 21.1388 14.3213 20.488L19.3213 15.488Z" fill="#1E93FF"/>
</svg>
