<svg width="57" height="56" viewBox="0 0 57 56" fill="none" xmlns="http://www.w3.org/2000/svg">
<g clip-path="url(#clip0_5163_259562)">
<path fill-rule="evenodd" clip-rule="evenodd" d="M-2.33814 -30.6819C5.37032 -38.2661 12.8978 -45.5978 23.219 -48.458C33.9283 -51.4258 45.8924 -52.6956 54.9964 -46.5706C63.916 -40.5697 66.364 -28.9793 68.1445 -18.2329C69.8092 -8.18547 67.4534 1.26439 64.555 11.121C59.7678 27.4012 61.7184 50.0724 46.1525 56.5571C30.7069 62.9917 16.7575 45.7011 2.88976 36.8106C-10.717 28.0874 -31.0914 22.5856 -32.3587 6.22406C-33.6216 -10.0793 -14.0784 -19.1309 -2.33814 -30.6819Z" fill="#E9F9FF"/>
<path fill-rule="evenodd" clip-rule="evenodd" d="M38.5 11.333C41.2615 11.333 43.5 13.5716 43.5 16.333V41.333C43.5 44.0945 41.2615 46.333 38.5 46.333H18.5C15.7386 46.333 13.5 44.0945 13.5 41.333V39.6663H33.5C34.4205 39.6663 35.1667 38.9202 35.1667 37.9997V11.333H38.5Z" fill="#C4E6FF"/>
<path fill-rule="evenodd" clip-rule="evenodd" d="M18.5 14.6663C17.5795 14.6663 16.8333 15.4125 16.8333 16.333V41.333C16.8333 42.2535 17.5795 42.9997 18.5 42.9997H38.5C39.4205 42.9997 40.1667 42.2535 40.1667 41.333V16.333C40.1667 15.4125 39.4205 14.6663 38.5 14.6663H35.1667C34.2462 14.6663 33.5 13.9201 33.5 12.9997C33.5 12.0792 34.2462 11.333 35.1667 11.333H38.5C41.2615 11.333 43.5 13.5716 43.5 16.333V41.333C43.5 44.0945 41.2615 46.333 38.5 46.333H18.5C15.7386 46.333 13.5 44.0945 13.5 41.333V16.333C13.5 13.5716 15.7386 11.333 18.5 11.333H21.8333C22.7538 11.333 23.5 12.0792 23.5 12.9997C23.5 13.9201 22.7538 14.6663 21.8333 14.6663H18.5Z" fill="#024493"/>
<path fill-rule="evenodd" clip-rule="evenodd" d="M23.4998 14.6665C23.4998 13.746 24.246 12.9998 25.1665 12.9998H31.8332C32.7537 12.9998 33.4998 13.746 33.4998 14.6665C33.4998 15.587 32.7537 16.3332 31.8332 16.3332H25.1665C24.246 16.3332 23.4998 15.587 23.4998 14.6665ZM25.1665 9.6665C22.4051 9.6665 20.1665 11.9051 20.1665 14.6665C20.1665 17.4279 22.4051 19.6665 25.1665 19.6665H31.8332C34.5947 19.6665 36.8332 17.4279 36.8332 14.6665C36.8332 11.9051 34.5947 9.6665 31.8332 9.6665H25.1665ZM27.3213 23.488C27.9722 22.8371 29.0275 22.8371 29.6783 23.488L34.6783 28.488C35.3292 29.1388 35.3292 30.1942 34.6783 30.845C34.0275 31.4958 32.9722 31.4958 32.3213 30.845L30.1665 28.6902V34.6665C30.1665 35.587 29.4203 36.3332 28.4998 36.3332C27.5793 36.3332 26.8332 35.587 26.8332 34.6665V28.6902L24.6784 30.845C24.0275 31.4958 22.9722 31.4958 22.3213 30.845C21.6705 30.1942 21.6705 29.1388 22.3213 28.488L27.3213 23.488Z" fill="#1E93FF"/>
</g>
<defs>
<clipPath id="clip0_5163_259562">
<rect width="56" height="56" fill="white" transform="translate(0.5)"/>
</clipPath>
</defs>
</svg>
