<svg width="20" height="20" viewBox="0 0 20 20" fill="none" xmlns="http://www.w3.org/2000/svg">
<g clip-path="url(#clip0_6155_89363)">
<path fill-rule="evenodd" clip-rule="evenodd" d="M9.99967 2.50065C5.85754 2.50065 2.49967 5.85851 2.49967 10.0007C2.49967 14.1428 5.85754 17.5006 9.99967 17.5006C14.1418 17.5006 17.4997 14.1428 17.4997 10.0007C17.4997 5.85851 14.1418 2.50065 9.99967 2.50065ZM0.833008 10.0007C0.833008 4.93804 4.93706 0.833984 9.99967 0.833984C15.0623 0.833984 19.1663 4.93804 19.1663 10.0007C19.1663 15.0633 15.0623 19.1673 9.99967 19.1673C4.93706 19.1673 0.833008 15.0633 0.833008 10.0007ZM9.11928 4.58398C9.12579 4.58398 9.13223 4.58398 9.13856 4.58398H10.8608C10.8671 4.58398 10.8736 4.58398 10.8801 4.58398C10.9793 4.58394 11.0979 4.5839 11.2023 4.59243C11.3233 4.60232 11.4967 4.62769 11.6783 4.72023C11.9135 4.84007 12.1047 5.03129 12.2245 5.2665C12.3171 5.44812 12.3425 5.62144 12.3523 5.74246C12.3609 5.84689 12.3608 5.96545 12.3608 6.06471C12.3608 6.07122 12.3608 6.07765 12.3608 6.08398V7.63954H13.9163C13.9227 7.63954 13.9291 7.63954 13.9356 7.63953C14.0349 7.6395 14.1534 7.63945 14.2579 7.64798C14.3789 7.65787 14.5522 7.68324 14.7338 7.77578C14.969 7.89562 15.1603 8.08685 15.2801 8.32205C15.3726 8.50367 15.398 8.677 15.4079 8.79801C15.4164 8.90244 15.4164 9.02099 15.4163 9.12025C15.4163 9.12677 15.4163 9.1332 15.4163 9.13954V10.8618C15.4163 10.8681 15.4163 10.8745 15.4163 10.8811C15.4164 10.9803 15.4164 11.0989 15.4079 11.2033C15.398 11.3243 15.3726 11.4976 15.2801 11.6792C15.1603 11.9144 14.969 12.1057 14.7338 12.2255C14.5522 12.3181 14.3789 12.3434 14.2579 12.3533C14.1534 12.3618 14.0349 12.3618 13.9356 12.3618C13.9291 12.3618 13.9227 12.3618 13.9163 12.3618H12.3608V13.9173C12.3608 13.9237 12.3608 13.9301 12.3608 13.9366C12.3608 14.0359 12.3609 14.1544 12.3523 14.2588C12.3425 14.3799 12.3171 14.5532 12.2245 14.7348C12.1047 14.97 11.9135 15.1612 11.6783 15.2811C11.4967 15.3736 11.3233 15.399 11.2023 15.4089C11.0979 15.4174 10.9793 15.4174 10.8801 15.4173C10.8736 15.4173 10.8671 15.4173 10.8608 15.4173H9.13856C9.13222 15.4173 9.12579 15.4173 9.11927 15.4173C9.02001 15.4174 8.90147 15.4174 8.79704 15.4089C8.67602 15.399 8.5027 15.3736 8.32108 15.2811C8.08587 15.1612 7.89465 14.97 7.7748 14.7348C7.68226 14.5532 7.65689 14.3799 7.64701 14.2588C7.63847 14.1544 7.63852 14.0359 7.63856 13.9366C7.63856 13.9301 7.63856 13.9237 7.63856 13.9173V12.3618H6.08301C6.07667 12.3618 6.07024 12.3618 6.06373 12.3618C5.96447 12.3618 5.84592 12.3618 5.74148 12.3533C5.62047 12.3434 5.44714 12.3181 5.26552 12.2255C5.03031 12.1057 4.83909 11.9144 4.71925 11.6792C4.62671 11.4976 4.60134 11.3243 4.59145 11.2033C4.58292 11.0989 4.58296 10.9803 4.583 10.881C4.58301 10.8745 4.58301 10.8681 4.58301 10.8618V9.13954C4.58301 9.1332 4.58301 9.12677 4.583 9.12026C4.58296 9.02099 4.58292 8.90245 4.59145 8.79801C4.60134 8.677 4.62671 8.50367 4.71925 8.32205C4.83909 8.08685 5.03032 7.89562 5.26552 7.77578C5.44714 7.68324 5.62047 7.65787 5.74148 7.64798C5.84591 7.63945 5.96446 7.6395 6.06372 7.63953C6.07024 7.63954 6.07667 7.63954 6.08301 7.63954H7.63856V6.08398C7.63856 6.07765 7.63856 6.07122 7.63856 6.0647C7.63852 5.96544 7.63847 5.84689 7.64701 5.74246C7.65689 5.62144 7.68226 5.44812 7.7748 5.2665C7.89465 5.03129 8.08587 4.84007 8.32108 4.72023C8.5027 4.62768 8.67602 4.60232 8.79704 4.59243C8.90147 4.5839 9.02002 4.58394 9.11928 4.58398ZM9.30523 6.25065V7.80621C9.30523 7.81254 9.30523 7.81897 9.30523 7.82548C9.30527 7.92474 9.30532 8.0433 9.29679 8.14773C9.2869 8.26875 9.26153 8.44207 9.16899 8.62369C9.04915 8.8589 8.85792 9.05012 8.62272 9.16996C8.44109 9.26251 8.26777 9.28787 8.14675 9.29776C8.04232 9.30629 7.92378 9.30625 7.82452 9.30621C7.818 9.30621 7.81157 9.30621 7.80523 9.30621H6.24967V10.6951H7.80523C7.81157 10.6951 7.81801 10.6951 7.82452 10.6951C7.92378 10.6951 8.04232 10.695 8.14675 10.7035C8.26777 10.7134 8.44109 10.7388 8.62272 10.8313C8.85792 10.9512 9.04915 11.1424 9.16899 11.3776C9.26153 11.5592 9.2869 11.7326 9.29679 11.8536C9.30532 11.958 9.30527 12.0766 9.30523 12.1758C9.30523 12.1823 9.30523 12.1888 9.30523 12.1951V13.7506H10.6941V12.1951C10.6941 12.1888 10.6941 12.1823 10.6941 12.1758C10.6941 12.0765 10.694 11.958 10.7026 11.8536C10.7124 11.7326 10.7378 11.5592 10.8304 11.3776C10.9502 11.1424 11.1414 10.9512 11.3766 10.8313C11.5583 10.7388 11.7316 10.7134 11.8526 10.7035C11.957 10.695 12.0756 10.6951 12.1748 10.6951C12.1813 10.6951 12.1878 10.6951 12.1941 10.6951H13.7497V9.30621H12.1941C12.1878 9.30621 12.1814 9.30621 12.1748 9.30621C12.0756 9.30625 11.957 9.30629 11.8526 9.29776C11.7316 9.28787 11.5583 9.2625 11.3766 9.16996C11.1414 9.05012 10.9502 8.8589 10.8304 8.62369C10.7378 8.44207 10.7124 8.26874 10.7026 8.14773C10.694 8.0433 10.6941 7.92476 10.6941 7.8255C10.6941 7.81898 10.6941 7.81255 10.6941 7.80621V6.25065H9.30523Z" fill="#6B7280"/>
</g>
<defs>
<clipPath id="clip0_6155_89363">
<rect width="20" height="20" fill="white"/>
</clipPath>
</defs>
</svg>
