<svg width="20" height="20" viewBox="0 0 20 20" fill="none" xmlns="http://www.w3.org/2000/svg">
<path fill-rule="evenodd" clip-rule="evenodd" d="M8.80708 1.66602H11.1936C11.4039 1.66599 11.6087 1.66597 11.7822 1.68014C11.9727 1.6957 12.1975 1.73243 12.4236 1.84768C12.7373 2.00747 12.9922 2.26243 13.152 2.57604C13.2673 2.80222 13.304 3.027 13.3195 3.21749C13.3337 3.39096 13.3337 3.5958 13.3337 3.80612L13.3337 6.16602C13.3337 6.41313 13.3343 6.54834 13.3422 6.64549C13.3426 6.64936 13.3429 6.65302 13.3432 6.65648C13.3467 6.6568 13.3503 6.65712 13.3542 6.65743C13.4513 6.66537 13.5866 6.66602 13.8337 6.66602L16.1936 6.66602C16.4039 6.66599 16.6087 6.66597 16.7822 6.68014C16.9727 6.6957 17.1975 6.73243 17.4236 6.84768C17.7373 7.00747 17.9922 7.26243 18.152 7.57604C18.2673 7.80222 18.304 8.027 18.3195 8.21749C18.3337 8.39096 18.3337 8.59578 18.3337 8.80609V11.1926C18.3337 11.4029 18.3337 11.6077 18.3195 11.7812C18.304 11.9717 18.2673 12.1965 18.152 12.4227C17.9922 12.7363 17.7373 12.9912 17.4236 13.151C17.1975 13.2663 16.9727 13.303 16.7822 13.3186C16.6087 13.3327 16.4039 13.3327 16.1936 13.3327L13.8337 13.3327C13.5866 13.3327 13.4513 13.3333 13.3542 13.3413C13.3503 13.3416 13.3467 13.3419 13.3432 13.3422C13.3429 13.3457 13.3426 13.3493 13.3422 13.3532C13.3343 13.4504 13.3337 13.5856 13.3337 13.8327L13.3337 16.1926C13.3337 16.4029 13.3337 16.6077 13.3195 16.7812C13.304 16.9717 13.2673 17.1965 13.152 17.4227C12.9922 17.7363 12.7373 17.9912 12.4236 18.151C12.1975 18.2663 11.9727 18.303 11.7822 18.3186C11.6087 18.3327 11.4039 18.3327 11.1936 18.3327H8.80707C8.59675 18.3327 8.39193 18.3327 8.21847 18.3186C8.02798 18.303 7.8032 18.2663 7.57701 18.151C7.26341 17.9912 7.00844 17.7363 6.84865 17.4227C6.7334 17.1965 6.69668 16.9717 6.68112 16.7812C6.66694 16.6077 6.66697 16.4029 6.66699 16.1926L6.667 13.8327C6.667 13.5856 6.66635 13.4504 6.65841 13.3532C6.65809 13.3493 6.65778 13.3457 6.65746 13.3422C6.654 13.3419 6.65034 13.3416 6.64647 13.3413C6.54931 13.3333 6.4141 13.3327 6.167 13.3327L3.8071 13.3327C3.59677 13.3327 3.39194 13.3327 3.21847 13.3186C3.02798 13.303 2.8032 13.2663 2.57701 13.151C2.26341 12.9912 2.00844 12.7363 1.84865 12.4227C1.7334 12.1965 1.69668 11.9717 1.68112 11.7812C1.66694 11.6077 1.66697 11.4029 1.66699 11.1926V8.80611C1.66697 8.59579 1.66694 8.39096 1.68112 8.21749C1.69668 8.027 1.7334 7.80222 1.84865 7.57603C2.00844 7.26243 2.26341 7.00746 2.57701 6.84767C2.8032 6.73243 3.02798 6.6957 3.21847 6.68014C3.39194 6.66597 3.59676 6.66599 3.80708 6.66602C3.81593 6.66602 3.82479 6.66602 3.83366 6.66602H6.167C6.4141 6.66602 6.54931 6.66537 6.64647 6.65743C6.65034 6.65712 6.654 6.6568 6.65746 6.65648C6.65778 6.65302 6.65809 6.64936 6.65841 6.64549C6.66635 6.54834 6.667 6.41313 6.667 6.16602V3.83269C6.667 3.82382 6.667 3.81496 6.66699 3.80611C6.66697 3.59579 6.66694 3.39096 6.68112 3.21749C6.69668 3.027 6.7334 2.80222 6.84865 2.57604C7.00844 2.26243 7.26341 2.00746 7.57701 1.84768C7.8032 1.73243 8.02798 1.6957 8.21847 1.68014C8.39194 1.66597 8.59676 1.66599 8.80708 1.66602ZM8.3432 3.34223C8.34288 3.34569 8.34256 3.34935 8.34225 3.35321C8.33431 3.45037 8.33366 3.58558 8.33366 3.83269V6.16602C8.33366 6.17489 8.33366 6.18375 8.33367 6.1926C8.33369 6.40292 8.33371 6.60775 8.31954 6.78121C8.30398 6.97171 8.26726 7.19648 8.15201 7.42267C7.99222 7.73627 7.73725 7.99124 7.42365 8.15103C7.19746 8.26628 6.97268 8.303 6.78219 8.31856C6.60872 8.33274 6.4039 8.33271 6.19358 8.33269C6.18473 8.33269 6.17586 8.33269 6.167 8.33269H3.83366C3.58656 8.33269 3.45135 8.33333 3.35419 8.34127C3.35032 8.34159 3.34666 8.34191 3.3432 8.34223C3.34288 8.34568 3.34257 8.34935 3.34225 8.35321C3.33431 8.45037 3.33366 8.58558 3.33366 8.83269V11.166C3.33366 11.4131 3.33431 11.5483 3.34225 11.6455C3.34257 11.6494 3.34288 11.653 3.3432 11.6565C3.34666 11.6568 3.35032 11.6571 3.35419 11.6574C3.45135 11.6654 3.58656 11.666 3.83366 11.666L6.19356 11.666C6.40389 11.666 6.60872 11.666 6.78219 11.6801C6.97268 11.6957 7.19746 11.7324 7.42365 11.8477C7.73725 12.0075 7.99222 12.2624 8.15201 12.576C8.26726 12.8022 8.30398 13.027 8.31954 13.2175C8.33371 13.391 8.33369 13.5958 8.33367 13.8061L8.33366 16.166C8.33366 16.4131 8.33431 16.5483 8.34225 16.6455C8.34256 16.6494 8.34288 16.653 8.3432 16.6565C8.34666 16.6568 8.35032 16.6571 8.35419 16.6574C8.45135 16.6654 8.58656 16.666 8.83366 16.666H11.167C11.4141 16.666 11.5493 16.6654 11.6465 16.6574C11.6503 16.6571 11.654 16.6568 11.6575 16.6565C11.6578 16.653 11.6581 16.6494 11.6584 16.6455C11.6663 16.5483 11.667 16.4131 11.667 16.166L11.667 13.8061C11.667 13.5958 11.6669 13.391 11.6811 13.2175C11.6967 13.027 11.7334 12.8022 11.8487 12.576C12.0084 12.2624 12.2634 12.0075 12.577 11.8477C12.8032 11.7324 13.028 11.6957 13.2185 11.6801C13.3919 11.666 13.5968 11.666 13.8071 11.666L16.167 11.666C16.4141 11.666 16.5493 11.6654 16.6465 11.6574C16.6503 11.6571 16.654 11.6568 16.6575 11.6565C16.6578 11.653 16.6581 11.6494 16.6584 11.6455C16.6663 11.5483 16.667 11.4131 16.667 11.166V8.83269C16.667 8.58558 16.6663 8.45037 16.6584 8.35321C16.6581 8.34935 16.6578 8.34568 16.6574 8.34223C16.654 8.34191 16.6503 8.34159 16.6465 8.34127C16.5493 8.33333 16.4141 8.33269 16.167 8.33269L13.8071 8.33269C13.5968 8.33271 13.3919 8.33274 13.2185 8.31856C13.028 8.303 12.8032 8.26628 12.577 8.15103C12.2634 7.99124 12.0084 7.73627 11.8487 7.42267C11.7334 7.19648 11.6967 6.97171 11.6811 6.78121C11.6669 6.60774 11.667 6.40291 11.667 6.19259L11.667 3.83269C11.667 3.58558 11.6663 3.45037 11.6584 3.35321C11.6581 3.34935 11.6578 3.34569 11.6575 3.34223C11.654 3.34191 11.6503 3.34159 11.6465 3.34127C11.5493 3.33333 11.4141 3.33269 11.167 3.33269H8.83366C8.58656 3.33269 8.45135 3.33333 8.35419 3.34127C8.35032 3.34159 8.34666 3.34191 8.3432 3.34223Z" fill="#6B7280"/>
</svg>
