<svg width="48" height="48" viewBox="0 0 48 48" fill="none" xmlns="http://www.w3.org/2000/svg">
<path d="M36.2349 24C36.2384 26.8151 35.2832 29.5474 33.5266 31.7471C31.77 33.9469 29.3166 35.4829 26.5705 36.1022C23.8245 36.7216 20.9493 36.3873 18.4185 35.1546C15.8878 33.9218 13.8522 31.864 12.647 29.3199C11.4418 26.7759 11.1389 23.8973 11.7881 21.1581C12.4372 18.4189 13.9998 15.9824 16.2185 14.2498C18.4372 12.5172 21.1798 11.5918 23.9946 11.6259C26.8095 11.66 29.5288 12.6516 31.7049 14.4375C31.7799 14.49 31.8549 14.5575 31.9299 14.6175C33.2828 15.7775 34.3681 17.2169 35.1113 18.8367C35.8545 20.4564 36.2378 22.2179 36.2349 24Z" fill="#FFB433"/>
<path d="M33.9854 21.75C33.9847 25.0318 32.6806 28.179 30.36 30.4996C28.0394 32.8202 24.8922 34.1243 21.6104 34.125C21.3029 34.125 21.0029 34.1175 20.7104 34.1025C18.0479 33.9825 15.9779 33.315 14.4779 32.07C12.7195 30.0265 11.679 27.4633 11.5154 24.7725C11.4929 24.5175 11.4854 24.2625 11.4854 24C11.4855 21.6315 12.1653 19.3128 13.444 17.3192C14.7227 15.3256 16.5467 13.7407 18.6993 12.7529C20.8519 11.765 23.2428 11.4156 25.5881 11.7461C27.9334 12.0766 30.1346 13.0732 31.9304 14.6175C33.3103 16.2825 33.9854 18.6525 33.9854 21.75Z" fill="#FDDB3A"/>
<path d="M13.4736 20.8514C13.8243 19.4791 14.4526 18.1933 15.3196 17.0734C16.1867 15.9535 17.2741 15.0233 18.5148 14.3401C18.689 14.246 18.8934 14.2246 19.0833 14.2806C19.2733 14.3365 19.4334 14.4653 19.5287 14.6389C19.6241 14.8124 19.647 15.0166 19.5924 15.2069C19.5378 15.3972 19.4102 15.5583 19.2373 15.6549C18.1768 16.2386 17.2472 17.0335 16.5059 17.9906C15.7646 18.9476 15.2274 20.0465 14.9275 21.2194C14.8783 21.4117 14.7548 21.5767 14.5842 21.6781C14.4135 21.7796 14.2095 21.8092 14.0171 21.7605C13.8246 21.7117 13.6593 21.5887 13.5574 21.4183C13.4555 21.2478 13.4254 21.044 13.4736 20.8514Z" fill="white"/>
<path d="M23.1104 8.25V3.75C23.1104 3.55109 23.1894 3.36032 23.33 3.21967C23.4707 3.07902 23.6614 3 23.8604 3C24.0593 3 24.25 3.07902 24.3907 3.21967C24.5313 3.36032 24.6104 3.55109 24.6104 3.75V8.25C24.6104 8.44891 24.5313 8.63968 24.3907 8.78033C24.25 8.92098 24.0593 9 23.8604 9C23.6614 9 23.4707 8.92098 23.33 8.78033C23.1894 8.63968 23.1104 8.44891 23.1104 8.25ZM16.635 9.98511L15.135 7.38684C15.0347 7.21618 14.8711 7.09208 14.6797 7.04157C14.4883 6.99106 14.2847 7.01825 14.1133 7.11721C13.9418 7.21616 13.8164 7.37886 13.7645 7.56985C13.7125 7.76085 13.7381 7.96465 13.8357 8.13684L15.3357 10.7351C15.4356 10.9065 15.5994 11.0312 15.7911 11.0822C15.9828 11.1331 16.1869 11.106 16.3587 11.0069C16.5305 10.9077 16.656 10.7445 16.7078 10.553C16.7596 10.3615 16.7334 10.1574 16.635 9.98511ZM8.11035 23.25H5.11035C4.91144 23.25 4.72067 23.329 4.58002 23.4697C4.43937 23.6103 4.36035 23.8011 4.36035 24C4.36035 24.1989 4.43937 24.3897 4.58002 24.5303C4.72067 24.671 4.91144 24.75 5.11035 24.75H8.11035C8.30926 24.75 8.50003 24.671 8.64068 24.5303C8.78133 24.3897 8.86035 24.1989 8.86035 24C8.86035 23.8011 8.78133 23.6103 8.64068 23.4697C8.50003 23.329 8.30926 23.25 8.11035 23.25ZM15.135 40.6132L16.635 38.0149C16.7323 37.8427 16.7578 37.6391 16.7057 37.4482C16.6536 37.2574 16.5283 37.0949 16.357 36.996C16.1857 36.8971 15.9823 36.8699 15.791 36.9203C15.5997 36.9706 15.4361 37.0945 15.3357 37.2649L13.8357 39.8632C13.7386 40.0353 13.7134 40.2388 13.7655 40.4295C13.8176 40.6202 13.9429 40.7825 14.1141 40.8813C14.2853 40.9802 14.4885 41.0074 14.6797 40.9572C14.8709 40.907 15.0345 40.7833 15.135 40.6132ZM33.885 39.8632L32.385 37.2649C32.2847 37.0942 32.1211 36.9701 31.9297 36.9196C31.7383 36.8691 31.5347 36.8963 31.3633 36.9953C31.1918 37.0942 31.0664 37.2569 31.0145 37.4479C30.9625 37.6389 30.9881 37.8427 31.0857 38.0149L32.5857 40.6132C32.6856 40.7845 32.8494 40.9093 33.0411 40.9602C33.2328 41.0111 33.4369 40.9841 33.6087 40.8849C33.7805 40.7857 33.906 40.6226 33.9578 40.4311C34.0096 40.2396 33.9834 40.0354 33.885 39.8632ZM42.6104 23.25H39.6104C39.4114 23.25 39.2207 23.329 39.08 23.4697C38.9394 23.6103 38.8604 23.8011 38.8604 24C38.8604 24.1989 38.9394 24.3897 39.08 24.5303C39.2207 24.671 39.4114 24.75 39.6104 24.75H42.6104C42.8093 24.75 43 24.671 43.1407 24.5303C43.2813 24.3897 43.3604 24.1989 43.3604 24C43.3604 23.8011 43.2813 23.6103 43.1407 23.4697C43 23.329 42.8093 23.25 42.6104 23.25ZM32.385 10.7351L33.885 8.13684C33.9823 7.96466 34.0077 7.76101 33.9557 7.5702C33.9036 7.37938 33.7783 7.21685 33.607 7.11798C33.4357 7.0191 33.2323 6.99187 33.041 7.04223C32.8497 7.09258 32.6861 7.21643 32.5857 7.38684L31.0857 9.98511C30.989 10.1572 30.9641 10.3605 31.0164 10.5509C31.0686 10.7413 31.1938 10.9034 31.3648 11.0021C31.5357 11.1008 31.7387 11.1281 31.9297 11.0781C32.1207 11.0282 32.2843 10.9049 32.385 10.7351ZM10.5955 15.4753L6.69824 13.2253C6.52606 13.128 6.32241 13.1026 6.13159 13.1547C5.94078 13.2067 5.77825 13.332 5.67937 13.5033C5.58049 13.6746 5.55327 13.8781 5.60362 14.0693C5.65398 14.2606 5.77783 14.4242 5.94824 14.5247L9.84545 16.7747C10.0177 16.8726 10.2216 16.8985 10.4128 16.8466C10.6041 16.7947 10.767 16.6692 10.866 16.4976C10.965 16.326 10.9922 16.1222 10.9415 15.9307C10.8908 15.7392 10.7664 15.5755 10.5955 15.4753ZM24.6104 44.25V39.75C24.6104 39.5511 24.5313 39.3603 24.3907 39.2197C24.25 39.079 24.0593 39 23.8604 39C23.6614 39 23.4707 39.079 23.33 39.2197C23.1894 39.3603 23.1104 39.5511 23.1104 39.75V44.25C23.1104 44.4489 23.1894 44.6397 23.33 44.7803C23.4707 44.921 23.6614 45 23.8604 45C24.0593 45 24.25 44.921 24.3907 44.7803C24.5313 44.6397 24.6104 44.4489 24.6104 44.25ZM41.7725 33.4753L37.8752 31.2253C37.703 31.1277 37.4992 31.1021 37.3083 31.1541C37.1173 31.2061 36.9546 31.3315 36.8556 31.5029C36.7567 31.6743 36.7295 31.8779 36.78 32.0693C36.8305 32.2607 36.9546 32.4244 37.1252 32.5247L41.0225 34.7747C41.1947 34.8726 41.3986 34.8985 41.5899 34.8466C41.7811 34.7947 41.944 34.6692 42.043 34.4976C42.1421 34.326 42.1692 34.1222 42.1185 33.9307C42.0678 33.7392 41.9434 33.5755 41.7725 33.4753Z" fill="#FFB433"/>
<path d="M21.5253 14.2018C21.5279 14.3501 21.4864 14.4958 21.4062 14.6206C21.3259 14.7453 21.2105 14.8435 21.0745 14.9026C20.9384 14.9618 20.7879 14.9793 20.6419 14.9529C20.496 14.9265 20.3611 14.8574 20.2544 14.7543C20.1477 14.6513 20.0739 14.5189 20.0425 14.374C20.011 14.229 20.0232 14.078 20.0776 13.94C20.1319 13.802 20.226 13.6832 20.3479 13.5986C20.4698 13.5141 20.614 13.4675 20.7623 13.465C20.8608 13.4632 20.9586 13.4809 21.0503 13.517C21.1419 13.5531 21.2255 13.6069 21.2964 13.6753C21.3672 13.7438 21.4239 13.8255 21.4632 13.9158C21.5025 14.0061 21.5236 14.1033 21.5253 14.2018Z" fill="white"/>
<path d="M36.1451 22.4925H30.1751C29.3875 22.4847 28.633 22.1741 28.0683 21.625C27.5035 21.0759 27.1718 20.3304 27.1419 19.5433C27.112 18.7562 27.3862 17.9878 27.9076 17.3974C28.4291 16.807 29.1578 16.44 29.9426 16.3725C30.2237 16.3481 30.5068 16.3658 30.7826 16.425C30.8322 16.4361 30.8835 16.4365 30.9332 16.4262C30.983 16.416 31.0299 16.3953 31.0711 16.3655C31.1122 16.3357 31.1465 16.2975 31.1718 16.2535C31.1971 16.2094 31.2127 16.1605 31.2176 16.11C31.2803 15.5281 31.4454 14.9619 31.7051 14.4375C31.7801 14.49 31.8551 14.5575 31.9301 14.6175C34.2644 16.6279 35.7669 19.4351 36.1451 22.4925Z" fill="#FFB433"/>
<path d="M30.9508 21.7475H41.3188C42.1897 21.7617 43.0374 21.4671 43.7119 20.916C44.3863 20.3649 44.8439 19.5929 45.0035 18.7367C45.0917 18.192 45.0541 17.6345 44.8936 17.1066C44.7331 16.5788 44.454 16.0946 44.0775 15.6913C43.7011 15.2879 43.2374 14.9761 42.7219 14.7796C42.2063 14.583 41.6527 14.5071 41.1033 14.5575C41.0246 14.5652 40.9455 14.5473 40.8779 14.5064C40.8102 14.4655 40.7576 14.4038 40.7279 14.3305C40.3531 13.4229 39.7169 12.6472 38.9001 12.1021C38.0833 11.5571 37.1228 11.2672 36.1409 11.2695C33.6 11.2695 32.2523 13.3977 31.9694 15.8436C31.9632 15.8921 31.947 15.9388 31.9217 15.9807C31.8964 16.0226 31.8627 16.0587 31.8227 16.0868C31.7826 16.1149 31.7371 16.1344 31.6892 16.1439C31.6412 16.1534 31.5917 16.1528 31.544 16.1421C31.2734 16.0873 30.9967 16.07 30.7214 16.0905C30.0684 16.0935 29.4375 16.3277 28.9406 16.7514C28.4437 17.1751 28.1129 17.7611 28.0067 18.4054C27.9517 18.8237 27.9868 19.249 28.1097 19.6526C28.2326 20.0562 28.4405 20.4288 28.7194 20.7454C28.9983 21.062 29.3417 21.3152 29.7266 21.488C30.1115 21.6609 30.5289 21.7493 30.9508 21.7475Z" fill="#8BCAFF"/>
<path d="M30.2004 21.7475H40.5684C41.4392 21.7617 42.287 21.4671 42.9614 20.916C43.6359 20.3649 44.0935 19.5929 44.2531 18.7367C44.6317 16.3728 43.1189 14.8691 40.7816 15.0701C40.7029 15.0779 40.6238 15.0599 40.5562 15.019C40.4885 14.9781 40.4359 14.9164 40.4062 14.8432C39.6701 13.0472 38.2151 11.2696 36.1404 11.2696C34.9308 11.2656 33.7617 11.706 32.8553 12.507C31.9488 13.308 31.3679 14.414 31.223 15.6149C31.2168 15.6635 31.2005 15.7102 31.1753 15.7521C31.15 15.794 31.1163 15.8301 31.0762 15.8582C31.0362 15.8863 30.9907 15.9057 30.9427 15.9152C30.8947 15.9248 30.8453 15.9241 30.7976 15.9134C30.527 15.8587 30.2502 15.8413 29.975 15.8619C29.2106 15.9141 28.4967 16.262 27.9845 16.8318C27.4724 17.4016 27.2023 18.1485 27.2317 18.9141C27.261 19.6796 27.5874 20.4037 28.1416 20.9326C28.6958 21.4616 29.4343 21.7539 30.2004 21.7475Z" fill="#B5DCFF"/>
<path d="M21.3021 32.64C21.2169 33.1658 21.0144 33.6657 20.7096 34.1025C18.0471 33.9825 15.9771 33.315 14.4771 32.07C12.7188 30.0266 11.6783 27.4634 11.5146 24.7725C11.6541 24.7574 11.7943 24.7499 11.9346 24.75C12.9722 24.7458 13.9873 25.0512 14.8504 25.627C15.7135 26.2028 16.3852 27.0229 16.7796 27.9825C16.8119 28.0595 16.8678 28.1242 16.9393 28.1673C17.0107 28.2105 17.094 28.2298 17.1771 28.2225C17.758 28.1694 18.3432 28.2497 18.8882 28.4574C19.4332 28.6651 19.9235 28.9947 20.3216 29.421C20.7196 29.8473 21.0149 30.359 21.1849 30.9169C21.3548 31.4748 21.3949 32.0642 21.3021 32.64Z" fill="#FFB433"/>
<path d="M5.92013 35.9896H17.0381C17.909 36.0038 18.7567 35.7093 19.4312 35.1582C20.1056 34.6071 20.5632 33.835 20.7228 32.9788C20.811 32.4342 20.7734 31.8766 20.6129 31.3488C20.4524 30.8209 20.1733 30.3368 19.7969 29.9335C19.4204 29.5301 18.9567 29.2182 18.4412 29.0217C17.9257 28.8252 17.372 28.7493 16.8226 28.7997C16.7439 28.8074 16.6648 28.7895 16.5972 28.7486C16.5295 28.7076 16.4769 28.646 16.4472 28.5727C16.028 27.5615 15.2861 26.7173 14.3371 26.1717C13.3881 25.6262 12.2853 25.4098 11.2005 25.5564C10.1157 25.703 9.10991 26.2043 8.33977 26.9822C7.56962 27.7601 7.07842 28.7709 6.9427 29.8571C6.93653 29.9057 6.92028 29.9524 6.89502 29.9942C6.86975 30.0361 6.83602 30.0723 6.79597 30.1004C6.75593 30.1285 6.71046 30.1479 6.66247 30.1574C6.61449 30.1669 6.56504 30.1663 6.51731 30.1556C6.24676 30.1009 5.96998 30.0835 5.69471 30.1041C4.93035 30.1563 4.21639 30.5042 3.70425 31.074C3.1921 31.6438 2.92206 32.3907 2.95138 33.1562C2.9807 33.9218 3.30709 34.6459 3.86131 35.1748C4.41554 35.7038 5.15402 35.996 5.92013 35.9896Z" fill="#00C4D4"/>
<path d="M5.92013 35.9897H16.2881C17.159 36.0039 18.0067 35.7093 18.6812 35.1582C19.3556 34.6071 19.8132 33.8351 19.9728 32.9789C20.3515 30.615 18.8387 29.1113 16.5013 29.3123C16.4226 29.32 16.3436 29.3021 16.2759 29.2612C16.2083 29.2203 16.1556 29.1586 16.1259 29.0854C15.3898 27.2894 13.9348 25.5117 11.8602 25.5117C10.6505 25.5078 9.48147 25.9482 8.57499 26.7492C7.66851 27.5502 7.08767 28.6562 6.9427 29.8571C6.93652 29.9057 6.92028 29.9524 6.89502 29.9943C6.86975 30.0361 6.83602 30.0723 6.79597 30.1004C6.75593 30.1285 6.71046 30.1479 6.66247 30.1574C6.61449 30.167 6.56504 30.1663 6.51731 30.1556C6.24676 30.1009 5.96998 30.0836 5.69471 30.1041C4.93035 30.1563 4.21639 30.5042 3.70425 31.074C3.1921 31.6438 2.92206 32.3907 2.95138 33.1563C2.9807 33.9218 3.30709 34.6459 3.86131 35.1748C4.41554 35.7038 5.15402 35.9961 5.92013 35.9897Z" fill="#A1E2DE"/>
</svg>
