<svg width="36" height="36" viewBox="0 0 36 36" fill="none" xmlns="http://www.w3.org/2000/svg">
<g clip-path="url(#clip0_750_125236)">
<path d="M1.89739 7.15367C2.82541 7.97937 4.25765 8.11918 5.3285 7.51325L9.73322 11.4948C10.0834 10.9176 10.4932 10.3792 10.9526 9.88904L6.66036 6.0093C7.88455 2.86278 3.8759 0.362174 1.59004 2.90363C0.503258 4.15982 0.641198 6.06688 1.89739 7.15367Z" fill="#FA4D56"/>
<path d="M26.2204 27.4682C25.7878 27.3631 25.3479 27.355 24.924 27.4394L23.335 24.5781C22.7779 24.9457 22.1813 25.2585 21.5525 25.5062L23.1951 28.4652C22.3792 29.4207 22.2627 30.8965 22.9373 31.9646C23.7584 33.3671 25.7019 33.8416 27.0781 32.9691C29.361 31.5763 28.8183 28.1 26.2204 27.4682Z" fill="#FA4D56"/>
<path d="M11.1474 23.3164L6.05097 28.4135C3.00396 27.0125 0.265172 30.8157 2.62121 33.2635C3.79605 34.4384 5.70773 34.4384 6.88263 33.2635C7.7994 32.3433 8.0112 30.9734 7.47055 29.8344L12.711 24.5947C12.1458 24.2231 11.6222 23.7945 11.1474 23.3164Z" fill="#FA4D56"/>
<path d="M33.4999 21.012C32.3434 20.4261 30.9835 20.6598 30.0848 21.4955L27.0977 19.8281C26.864 20.4643 26.5653 21.0689 26.2104 21.6341L29.1554 23.278C28.8776 25.0217 30.3234 26.7417 32.1339 26.7131C35.2743 26.6917 36.3226 22.4868 33.4999 21.012Z" fill="#FA4D56"/>
<path d="M26.4079 11.6976L28.9618 9.50531C30.8598 10.6078 33.3157 9.32117 33.4696 7.12082C33.6236 5.50698 32.3172 3.97939 30.6941 3.88732C28.4976 3.70605 26.8512 5.9358 27.654 7.98134L25.228 10.0632C25.6753 10.564 26.0717 11.1117 26.4079 11.6976Z" fill="#FA4D56"/>
<path d="M15.5996 16.6016C15.0459 16.6016 14.5952 17.0522 14.5952 17.606C14.6505 18.9384 16.549 18.938 16.6041 17.606C16.6041 17.0522 16.1534 16.6016 15.5996 16.6016Z" fill="#FA4D56"/>
<path d="M25.6774 16.5011C25.6774 12.2731 22.2383 8.83398 18.0103 8.83398C7.83882 9.2547 7.84177 23.749 18.0104 24.1681C22.2383 24.1681 25.6774 20.729 25.6774 16.5011ZM15.5997 20.6192C13.9384 20.6192 12.5865 19.2672 12.5865 17.6059C12.7523 13.6085 18.4478 13.6097 18.613 17.6059C18.613 19.2672 17.261 20.6192 15.5997 20.6192ZM18.9143 12.8517H16.9055V10.8428H18.9143V12.8517ZM22.6307 19.9496H20.6218V17.9407H22.6307V19.9496ZM22.9655 15.5301H20.9566V13.5213H22.9655V15.5301Z" fill="#FA4D56"/>
</g>
<defs>
<clipPath id="clip0_750_125236">
<rect width="34.2857" height="34.2857" fill="white" transform="translate(0.857178 0.857422)"/>
</clipPath>
</defs>
</svg>
