<svg width="48" height="48" viewBox="0 0 48 48" fill="none" xmlns="http://www.w3.org/2000/svg">
<path d="M22.3293 13.9199H20.1337L15.8998 16.9209L14.1396 21.25V26.7684L15.6144 29.9693L18.1223 33.5948H18.4371L19.9911 29.6068L23.5431 28.6871L26.5878 24.8179L29.9718 23.4962C29.566 18.997 26.4836 15.2701 22.3293 13.9199Z" fill="#FFAC11"/>
<path d="M18.8865 10.5706C18.4924 10.5706 18.1729 10.2511 18.1729 9.85698V6.33667C18.1729 5.94255 18.4924 5.62305 18.8865 5.62305C19.2806 5.62305 19.6001 5.94255 19.6001 6.33667V9.85698C19.6 10.2511 19.2806 10.5706 18.8865 10.5706Z" fill="#FFAC11"/>
<path d="M10.9419 12.1778L9.18167 9.12914C8.98461 8.78789 9.10152 8.35139 9.44286 8.15433C9.78411 7.95727 10.2206 8.07417 10.4177 8.41552L12.1778 11.4642C12.3749 11.8054 12.258 12.2418 11.9166 12.439C11.5754 12.636 11.139 12.5191 10.9419 12.1778Z" fill="#FFAC11"/>
<path d="M5.84024 17.8009L2.79149 16.0408C2.45015 15.8437 2.33324 15.4073 2.53031 15.0659C2.72737 14.7246 3.16368 14.6076 3.50512 14.8048L6.55387 16.5649C6.89521 16.762 7.01212 17.1984 6.81506 17.5397C6.61799 17.8811 6.18159 17.9981 5.84024 17.8009Z" fill="#FFAC11"/>
<path d="M4.23394 25.2222H0.713625C0.3195 25.2222 0 24.9027 0 24.5085C0 24.1144 0.3195 23.7949 0.713625 23.7949H4.23394C4.62806 23.7949 4.94756 24.1144 4.94756 24.5085C4.94756 24.9027 4.62806 25.2222 4.23394 25.2222Z" fill="#FFAC11"/>
<path d="M2.53031 33.9518C2.33324 33.6105 2.45015 33.174 2.79149 32.977L5.84024 31.2168C6.18149 31.0198 6.6179 31.1367 6.81506 31.478C7.01212 31.8194 6.89521 32.2558 6.55387 32.4528L3.50512 34.213C3.16378 34.41 2.72737 34.2931 2.53031 33.9518Z" fill="#FFAC11"/>
<path d="M30.9571 17.5397C30.76 17.1984 30.8769 16.762 31.2183 16.5649L34.267 14.8048C34.6083 14.6076 35.0447 14.7246 35.2418 15.0659C35.4389 15.4073 35.322 15.8437 34.9806 16.0408L31.9319 17.8009C31.5906 17.998 31.1541 17.8811 30.9571 17.5397Z" fill="#FFAC11"/>
<path d="M25.8559 12.4371C25.5146 12.24 25.3977 11.8036 25.5948 11.4623L27.3549 8.41361C27.552 8.07226 27.9883 7.95526 28.3297 8.15242C28.6711 8.34948 28.788 8.78589 28.5909 9.12723L26.8308 12.1759C26.6337 12.5172 26.1973 12.6341 25.8559 12.4371Z" fill="#FFAC11"/>
<path d="M18.5125 32.9482C16.1412 30.9068 14.6396 27.8833 14.6396 24.5088C14.6396 19.5624 17.8661 15.3703 22.329 13.9203C21.2447 13.5679 20.0877 13.377 18.8858 13.377C12.7378 13.377 7.75391 18.3609 7.75391 24.5088C7.75391 27.8833 9.25559 30.9067 11.6268 32.9482L12.2206 33.5952H18.4367L18.6363 33.0831L18.5125 32.9482Z" fill="#FFD27D"/>
<path d="M44.1532 28.174C43.5744 28.1555 43.0652 27.8028 42.8399 27.2693C41.3447 23.7299 36.9736 22.3284 33.6945 24.3247C33.3401 24.5404 32.9144 24.5886 32.5276 24.4708H32.0749L30.5169 25.984L29.3752 27.649L26.6874 28.1485L24.7607 29.98V33.0008L25.8192 35.1178L27.2225 35.8432L28.3258 36.138H43.9394C46.1369 36.138 47.9797 34.3914 48.0002 32.194C48.0209 29.9855 46.2596 28.2413 44.1532 28.174Z" fill="#B5DCFF"/>
<path d="M25.0295 32.194C25.0089 29.9855 26.7703 28.2412 28.8766 28.1738C29.4554 28.1554 29.9645 27.8027 30.1899 27.2691C30.6933 26.0775 31.5234 25.1295 32.5274 24.4706C32.4139 24.436 32.3034 24.3878 32.1995 24.3246C28.9209 22.3288 24.5494 23.7292 23.054 27.2691C22.8288 27.8026 22.3197 28.1554 21.7409 28.1738C19.6325 28.241 17.8714 29.9882 17.8938 32.1972C17.8965 32.4635 17.9264 32.7229 17.98 32.9735L18.4374 33.4448L24.4632 36.3785H26.0648L26.7665 36.1381H29.0904C26.8929 36.1382 25.0501 34.3914 25.0295 32.194Z" fill="#8BCAFF"/>
<path d="M26.1935 36.0657C25.7348 36.051 25.3314 35.7716 25.1528 35.3489C23.9682 32.5443 20.5045 31.4339 17.9062 33.0157C17.7363 33.1192 17.5455 33.1722 17.3535 33.1788L16.9387 33.2864L15.8049 34.4043L15.042 35.7205L13.6641 35.8553L11.5234 37.3337L10.9287 39.2329L11.7374 41.1675L13.0774 42.1349L14.2431 42.3764H26.024C27.7652 42.3764 29.2254 40.9923 29.2416 39.2511C29.2581 37.5011 27.8624 36.119 26.1935 36.0657Z" fill="#DBEDFF"/>
<path d="M11.4821 39.2536C11.4644 37.5032 12.8599 36.1188 14.5305 36.0655C14.9891 36.0509 15.3924 35.7713 15.571 35.3487C15.958 34.4324 16.5892 33.6984 17.3531 33.1787C17.1347 33.1863 16.9146 33.1331 16.7213 33.0156C14.1235 31.4342 10.6595 32.5438 9.47472 35.3487C9.29622 35.7713 8.89282 36.0509 8.43428 36.0655C6.76366 36.1187 5.36819 37.5031 5.38591 39.2536C5.40353 40.9938 6.86332 42.3763 8.6035 42.3763H14.6998C12.9595 42.3763 11.4998 40.9938 11.4821 39.2536Z" fill="#B5DCFF"/>
</svg>
