<svg width="41" height="40" viewBox="0 0 41 40" fill="none" xmlns="http://www.w3.org/2000/svg">
<g clip-path="url(#clip0_750_125325)">
<path d="M14.4219 6.16034L13.7361 1.01722C13.6472 0.350342 13.0151 -0.106221 12.3525 0.0214355L3.05005 1.81667C2.43942 1.93448 2.02708 2.50894 2.11091 3.12526L2.87278 8.72573L14.4219 6.16034Z" fill="#FDCB00"/>
<path d="M29.8851 28.2658L28.3257 28.2752L28.3786 37.6049L29.9465 37.5955C31.0215 37.5872 31.8908 36.7057 31.8844 35.6306L31.8515 30.2068C31.8446 29.1112 30.9405 28.2504 29.8851 28.2658Z" fill="#FDCB00"/>
<path d="M35.7544 28.2215L38.0982 27.4403C38.7122 27.2356 39.044 26.5719 38.8394 25.9579C38.6347 25.3439 37.971 25.012 37.357 25.2167L35.0133 25.998C34.3993 26.2027 34.0675 26.8663 34.2721 27.4803C34.4772 28.0955 35.1416 28.4258 35.7544 28.2215Z" fill="#FDCB00"/>
<path d="M37.7275 30.625H35.3838C34.7366 30.625 34.2119 31.1497 34.2119 31.7969C34.2119 32.4441 34.7366 32.9688 35.3838 32.9688H37.7275C38.3747 32.9688 38.8994 32.4441 38.8994 31.7969C38.8994 31.1497 38.3747 30.625 37.7275 30.625Z" fill="#FDCB00"/>
<path d="M38.0901 36.1542L35.7464 35.3729C35.1325 35.1684 34.4687 35.5001 34.264 36.1141C34.0594 36.7281 34.3912 37.3917 35.0052 37.5964L37.349 38.3777C37.9629 38.5823 38.6265 38.2505 38.8313 37.6365C39.036 37.0225 38.7042 36.3588 38.0901 36.1542Z" fill="#FDCB00"/>
<path d="M24.8033 25.9377H18.8277L16.6195 9.37666C16.5289 8.69627 15.8744 8.2387 15.2038 8.38752L3.30014 11.0318C2.70819 11.1633 2.31436 11.7247 2.39209 12.326L2.8617 15.9585L10.1987 14.271C10.8291 14.1259 11.4584 14.5196 11.6034 15.1504C11.7485 15.7812 11.3547 16.4101 10.724 16.5551L3.16357 18.294L3.45607 20.5565L10.8002 18.8673C11.4307 18.7222 12.0598 19.116 12.2049 19.7467C12.3499 20.3775 11.9562 21.0064 11.3255 21.1514L3.75795 22.8919L5.83786 38.9786C5.91341 39.5629 6.41091 40.0002 7.00004 40.0002H24.8695C25.5191 40.0002 26.045 39.4712 26.0414 38.8217L25.9749 27.103C25.9715 26.4583 25.4479 25.9377 24.8033 25.9377Z" fill="#FDCB00"/>
</g>
<defs>
<clipPath id="clip0_750_125325">
<rect width="40" height="40" fill="white" transform="translate(0.5)"/>
</clipPath>
</defs>
</svg>
