<svg width="18" height="24" viewBox="0 0 18 24" fill="none" xmlns="http://www.w3.org/2000/svg">
<path fill-rule="evenodd" clip-rule="evenodd" d="M8.99284 24C6.67298 24 4.49372 23.1002 2.86279 21.4692C1.23186 19.8383 0.332031 17.645 0.332031 15.3251C0.332031 12.9912 3.1721 8.66081 5.6888 4.8225C6.8417 3.06503 7.93836 1.40598 8.50075 0.309315C8.58511 0.126538 8.78194 0 8.99284 0C9.20374 0 9.40057 0.112478 9.49899 0.309315C10.0614 1.40598 11.144 3.06503 12.2969 4.8225C14.8136 8.66081 17.6677 12.9912 17.6677 15.3251C17.6677 17.645 16.7679 19.8383 15.137 21.4692C13.506 23.1002 11.3268 24 8.99284 24ZM10.216 16.3515C10.3707 16.3515 10.4972 16.225 10.4972 16.0703V14.7627H11.8048C11.9594 14.7627 12.086 14.6362 12.086 14.4815V12.0492C12.086 11.8946 11.9594 11.768 11.8048 11.768H10.4972V10.4605C10.4972 10.3058 10.3707 10.1793 10.216 10.1793H7.7837C7.62904 10.1793 7.50251 10.3058 7.50251 10.4605V11.768H6.18089C6.02623 11.768 5.89969 11.8946 5.89969 12.0492V14.4815C5.89969 14.6362 6.02623 14.7627 6.18089 14.7627H7.50251V16.0703C7.50251 16.225 7.62904 16.3515 7.7837 16.3515H10.216ZM8.0649 15.7891V14.4815C8.0649 14.3269 7.93836 14.2004 7.7837 14.2004H6.46208V12.3304H7.7837C7.93836 12.3304 8.0649 12.2039 8.0649 12.0492V10.7417H9.93484V12.0492C9.93484 12.2039 10.0614 12.3304 10.216 12.3304H11.5236V14.2004H10.216C10.0614 14.2004 9.93484 14.3269 9.93484 14.4815V15.7891H8.0649ZM8.99284 21.1318C12.1985 21.1318 14.8136 18.5308 14.8136 15.3251C14.8136 15.1705 14.687 15.0439 14.5324 15.0439C14.3777 15.0439 14.2512 15.1705 14.2512 15.3251C14.2512 18.2214 11.8891 20.5694 8.99284 20.5694C8.83818 20.5694 8.71164 20.696 8.71164 20.8506C8.71164 21.0053 8.83818 21.1318 8.99284 21.1318Z" fill="white"/>
</svg>
