<svg width="16" height="17" viewBox="0 0 16 17" fill="none" xmlns="http://www.w3.org/2000/svg">
<path fill-rule="evenodd" clip-rule="evenodd" d="M8.4651 1.35505L8 1.83268L7.5349 1.35505C7.79375 1.103 8.20625 1.103 8.4651 1.35505ZM8 2.77378C7.94241 2.83197 7.8804 2.89488 7.8145 2.96208C7.41682 3.36765 6.87916 3.92779 6.31794 4.54731C5.75569 5.16797 5.17555 5.84189 4.69025 6.47584C4.19545 7.1222 3.83449 7.68215 3.6723 8.08282C3.45392 8.62232 3.33333 9.2126 3.33333 9.83268C3.33333 12.41 5.42267 14.4993 8 14.4993C10.5773 14.4993 12.6667 12.41 12.6667 9.83268C12.6667 9.2126 12.5461 8.62232 12.3277 8.08282C12.1655 7.68215 11.8046 7.1222 11.3098 6.47584C10.8244 5.84189 10.2443 5.16797 9.68206 4.54731C9.12084 3.92779 8.58318 3.36765 8.1855 2.96208C8.1196 2.89488 8.05759 2.83197 8 2.77378ZM7.5349 1.35505C7.53497 1.35499 7.5349 1.35505 8 1.83268C8.4651 1.35505 8.46503 1.35499 8.4651 1.35505L8.46866 1.35853L8.47816 1.36781L8.51424 1.40321C8.54567 1.43411 8.59154 1.47936 8.65 1.53747C8.76692 1.65367 8.93433 1.82137 9.1375 2.02856C9.5435 2.4426 10.0939 3.01597 10.6702 3.65214C11.2455 4.28716 11.8523 4.99108 12.3685 5.66537C12.8752 6.32725 13.3302 7.00594 13.5636 7.58254C13.8452 8.27828 14 9.03823 14 9.83268C14 13.1464 11.3137 15.8327 8 15.8327C4.68629 15.8327 2 13.1464 2 9.83268C2 9.03823 2.15476 8.27828 2.43639 7.58254C2.66979 7.00594 3.12484 6.32725 3.63152 5.66537C4.1477 4.99108 4.75453 4.28716 5.32979 3.65214C5.90609 3.01597 6.4565 2.4426 6.8625 2.02856C7.06567 1.82137 7.23308 1.65367 7.35 1.53747C7.40846 1.47936 7.45433 1.43411 7.48576 1.40321L7.52184 1.36781L7.5349 1.35505Z" fill="#6B7280"/>
</svg>
