<svg width="24" height="24" viewBox="0 0 24 24" fill="none" xmlns="http://www.w3.org/2000/svg">
<g clip-path="url(#clip0_4937_132173)">
<path d="M16.3476 6.60259C16.4955 6.34636 16.4077 6.01871 16.1515 5.87078C15.8953 5.72285 15.5677 5.8106 15.4197 6.06683L11.2619 13.2685C11.1139 13.5247 11.2017 13.8523 11.458 14.0003C11.7142 14.1482 12.0418 14.0604 12.1898 13.8042L16.3476 6.60259ZM6.1324 9.9338C5.98447 10.1901 6.07228 10.5177 6.3285 10.6657C6.58473 10.8136 6.91238 10.7258 7.06031 10.4696L11.0566 3.5478C11.2045 3.29158 11.1167 2.96393 10.8605 2.816C10.6042 2.66806 10.2766 2.75587 10.1287 3.0121L6.1324 9.9338Z" fill="white"/>
<path d="M18.7958 4.54424L10.693 -0.14537C10.5746 -0.213942 10.4229 -0.173484 10.3544 -0.0550033L9.09066 2.12843C9.02208 2.24691 9.06254 2.39855 9.18102 2.46712L17.2838 7.15673C17.4023 7.2253 17.5539 7.18484 17.6225 7.06636L18.8862 4.88293C18.9547 4.76445 18.9143 4.61281 18.7958 4.54424Z" fill="white"/>
<path d="M7.52493 8.78125L9.26 9.78296L8.83663 10.5196L7.10156 9.51787L7.52493 8.78125Z" fill="white"/>
<path d="M8.35833 7.3418L9.4515 7.97295L9.02487 8.70957L7.93164 8.07842L8.35833 7.3418Z" fill="white"/>
<path d="M9.18894 5.90039L10.924 6.9021L10.5007 7.63878L8.76562 6.63707L9.18894 5.90039Z" fill="white"/>
<path fill-rule="evenodd" clip-rule="evenodd" d="M7.3378 22.2067L12.1892 13.8039C11.4982 13.405 10.9687 12.7262 10.2777 12.3273C9.58675 11.9284 8.7342 11.8092 8.0432 11.4103C7.35219 11.0113 6.82274 10.3325 6.1318 9.93359L1.11889 18.6162C0.13152 20.3264 0.722867 22.5335 2.43313 23.5209C4.14333 24.5083 6.35043 23.9169 7.3378 22.2067Z" fill="white"/>
<path fill-rule="evenodd" clip-rule="evenodd" d="M21.4212 5.875C20.2134 7.3282 19.6565 8.52031 19.5168 9.45132C19.2629 11.1421 20.3846 11.9719 21.4808 11.9407C22.531 11.9108 23.5579 11.0906 23.3297 9.48021C23.1972 8.545 22.6415 7.34326 21.4212 5.875Z" fill="white"/>
</g>
<defs>
<clipPath id="clip0_4937_132173">
<rect width="24" height="24" fill="white"/>
</clipPath>
</defs>
</svg>
