<svg width="29" height="30" viewBox="0 0 29 30" fill="none" xmlns="http://www.w3.org/2000/svg">
<g clip-path="url(#clip0_5818_106764)">
<path d="M15.5476 20.952C15.1512 20.952 14.7785 20.7544 14.5571 20.4222L12.5297 17.3806H10.7857C10.1285 17.3806 9.59521 16.8472 9.59521 16.1901C9.59521 15.533 10.1285 14.9996 10.7857 14.9996H13.1666C13.5643 14.9996 13.9357 15.1984 14.1571 15.5294L15.4 17.3937L18.0535 12.0853C18.2488 11.6972 18.6381 11.4449 19.0726 11.4282C19.5309 11.4163 19.9155 11.633 20.1393 12.0044L23.3643 17.3806H25.0714C25.7285 17.3806 26.2619 17.9139 26.2619 18.5711C26.2619 19.2282 25.7285 19.7615 25.0714 19.7615H22.6905C22.2726 19.7615 21.8845 19.5425 21.6702 19.1842L19.2143 15.0913L16.6131 20.2949C16.4226 20.6746 16.0452 20.9246 15.6214 20.9508C15.5976 20.952 15.5726 20.952 15.5476 20.952Z" fill="white"/>
<path d="M22.6902 22.1432C21.4402 22.1432 20.2736 21.4766 19.6307 20.4051L19.4045 20.0361L18.7379 21.3575C18.1783 22.5004 17.0355 23.2504 15.7736 23.3218L15.5474 23.3337C14.345 23.3337 13.2379 22.7385 12.5712 21.7385L11.2498 19.7623H10.7855C8.8212 19.7623 7.21405 18.1551 7.21405 16.1908C7.21405 14.2266 8.8212 12.6194 10.7855 12.6194H13.1664C13.7855 12.6194 14.3807 12.7742 14.9045 13.0718L15.9283 11.0242C16.5117 9.85751 17.6783 9.09561 18.9879 9.04799C19.4998 9.03609 19.9998 9.11942 20.4521 9.3099C17.6307 4.86942 14.0474 1.22656 13.7974 0.976563C13.4641 0.643229 12.8688 0.643229 12.5355 0.976563C12.1188 1.39323 2.45215 11.2266 2.45215 18.4885C2.45215 24.4408 7.26167 29.2861 13.1664 29.2861C17.7974 29.2861 21.7617 26.298 23.2498 22.1432H22.6902Z" fill="white"/>
</g>
<defs>
<clipPath id="clip0_5818_106764">
<rect width="28.5714" height="28.5714" fill="white" transform="translate(0.0712891 0.714844)"/>
</clipPath>
</defs>
</svg>
