<svg width="24" height="24" viewBox="0 0 24 24" fill="none" xmlns="http://www.w3.org/2000/svg">
<path d="M6.31641 1.87957C6.23814 1.89202 6.16584 1.92894 6.10986 1.98504C6.10986 1.98504 5.70932 2.38516 5.31299 2.97966C4.91665 3.57417 4.5 4.37517 4.5 5.25017C4.5 6.28126 5.34391 7.12517 6.375 7.12517C7.40609 7.12517 8.25 6.28126 8.25 5.25017C8.25 4.37517 7.83334 3.57417 7.43701 2.97966C7.04068 2.38516 6.64014 1.98504 6.64014 1.98504C6.59832 1.94316 6.54719 1.91178 6.49093 1.89345C6.43466 1.87512 6.37486 1.87036 6.31641 1.87957ZM17.5664 3.37957C17.4881 3.39202 17.4158 3.42894 17.3599 3.48504C17.3599 3.48504 16.9593 3.88516 16.563 4.47966C16.1667 5.07417 15.75 5.87517 15.75 6.75017C15.75 7.78126 16.5939 8.62517 17.625 8.62517C18.6561 8.62517 19.5 7.78126 19.5 6.75017C19.5 5.87517 19.0833 5.07417 18.687 4.47966C18.2907 3.88516 17.8901 3.48504 17.8901 3.48504C17.8483 3.44316 17.7972 3.41178 17.7409 3.39345C17.6847 3.37512 17.6249 3.37036 17.5664 3.37957ZM12 8.78191C11.6837 9.08644 10.7607 9.99341 9.67383 11.4296C8.38291 13.1355 7.125 15.3468 7.125 17.2502C7.125 19.947 9.30317 22.1252 12 22.1252C14.6968 22.1252 16.875 19.947 16.875 17.2502C16.875 15.3468 15.6171 13.1355 14.3262 11.4296C13.2393 9.99341 12.3163 9.08644 12 8.78191Z" fill="white"/>
</svg>
