<svg width="20" height="21" viewBox="0 0 20 21" fill="none" xmlns="http://www.w3.org/2000/svg">
<path fill-rule="evenodd" clip-rule="evenodd" d="M9.30154 1.33399H10.6991C11.1384 1.33397 11.5174 1.33396 11.8295 1.35946C12.159 1.38638 12.4867 1.44581 12.802 1.60647C13.2724 1.84615 13.6548 2.2286 13.8945 2.69901C14.0552 3.01433 14.1146 3.34201 14.1415 3.67146C14.1644 3.95128 14.1667 4.28479 14.167 4.66732H17.5003C17.9606 4.66732 18.3337 5.04042 18.3337 5.50065C18.3337 5.96089 17.9606 6.33399 17.5003 6.33399H16.667V14.8684C16.667 15.5392 16.667 16.0928 16.6302 16.5438C16.5919 17.0123 16.5098 17.4428 16.3037 17.8473C15.9841 18.4745 15.4742 18.9844 14.847 19.304C14.4425 19.5101 14.0119 19.5922 13.5435 19.6305C13.0925 19.6673 12.5389 19.6673 11.8681 19.6673H8.13256C7.46176 19.6673 6.90813 19.6673 6.45714 19.6305C5.98872 19.5922 5.55814 19.5101 5.15369 19.304C4.52648 18.9844 4.01655 18.4745 3.69697 17.8473C3.49089 17.4428 3.40876 17.0123 3.37049 16.5438C3.33364 16.0928 3.33365 15.5392 3.33366 14.8684L3.33366 6.33399H2.50033C2.04009 6.33399 1.66699 5.96089 1.66699 5.50065C1.66699 5.04042 2.04009 4.66732 2.50033 4.66732H5.83368C5.83391 4.28479 5.83627 3.95128 5.85913 3.67146C5.88605 3.34201 5.94548 3.01433 6.10614 2.69901C6.34583 2.2286 6.72828 1.84615 7.19868 1.60647C7.514 1.44581 7.84168 1.38638 8.17114 1.35946C8.48328 1.33396 8.86225 1.33397 9.30154 1.33399ZM5.00033 6.33399V14.834C5.00033 15.5478 5.00097 16.033 5.03162 16.4081C5.06147 16.7735 5.11557 16.9603 5.18198 17.0906C5.34177 17.4042 5.59674 17.6592 5.91034 17.819C6.04067 17.8854 6.22751 17.9395 6.59286 17.9694C6.96793 18 7.45318 18.0007 8.16699 18.0007H11.8337C12.5475 18.0007 13.0327 18 13.4078 17.9694C13.7731 17.9395 13.96 17.8854 14.0903 17.819C14.4039 17.6592 14.6589 17.4042 14.8187 17.0906C14.8851 16.9603 14.9392 16.7735 14.969 16.4081C14.9997 16.033 15.0003 15.5478 15.0003 14.834V6.33399H5.00033ZM12.5003 4.66732H7.50039C7.50075 4.27973 7.5033 4.0148 7.52027 3.80718C7.53876 3.5808 7.57016 3.49686 7.59115 3.45566C7.67105 3.29886 7.79853 3.17138 7.95533 3.09148C7.99654 3.07049 8.08047 3.03909 8.30686 3.02059C8.54297 3.0013 8.8532 3.00065 9.33366 3.00065H10.667C11.1475 3.00065 11.4577 3.0013 11.6938 3.02059C11.9202 3.03909 12.0041 3.07049 12.0453 3.09148C12.2021 3.17138 12.3296 3.29886 12.4095 3.45566C12.4305 3.49686 12.4619 3.5808 12.4804 3.80718C12.4974 4.0148 12.4999 4.27973 12.5003 4.66732ZM8.33366 9.25065C8.7939 9.25065 9.16699 9.62375 9.16699 10.084V14.2507C9.16699 14.7109 8.7939 15.084 8.33366 15.084C7.87342 15.084 7.50033 14.7109 7.50033 14.2507V10.084C7.50033 9.62375 7.87342 9.25065 8.33366 9.25065ZM11.667 9.25065C12.1272 9.25065 12.5003 9.62375 12.5003 10.084V14.2507C12.5003 14.7109 12.1272 15.084 11.667 15.084C11.2068 15.084 10.8337 14.7109 10.8337 14.2507V10.084C10.8337 9.62375 11.2068 9.25065 11.667 9.25065Z" fill="#374151"/>
</svg>
