<svg width="41" height="40" viewBox="0 0 41 40" fill="none" xmlns="http://www.w3.org/2000/svg">
<path d="M7.375 38.75H22.375C23.3018 38.7475 24.2138 38.5179 25.0312 38.0812C25.1127 38.0351 25.1828 37.9713 25.2363 37.8945C25.2897 37.8177 25.3253 37.7299 25.3403 37.6375C25.3553 37.5451 25.3494 37.4505 25.3229 37.3607C25.2965 37.271 25.2502 37.1883 25.1875 37.1188C23.6447 35.4697 22.7867 33.2957 22.7875 31.0375C22.7875 28.0875 25.1 23.8625 27.6375 21.2188C27.8689 20.9862 27.9992 20.6718 28 20.3438V15.8625C28.022 15.1066 27.8934 14.3538 27.6214 13.6481C27.3495 12.9424 26.9398 12.298 26.4163 11.7523C25.8927 11.2066 25.2657 10.7706 24.5718 10.4698C23.878 10.1689 23.1312 10.0092 22.375 10H18V3.125C17.9985 2.62818 17.8005 2.15212 17.4492 1.80081C17.0979 1.4495 16.6218 1.25148 16.125 1.25H13.625C13.1282 1.25148 12.6521 1.4495 12.3008 1.80081C11.9495 2.15212 11.7515 2.62818 11.75 3.125V10H7.375C5.88448 10.0043 4.45622 10.5983 3.40226 11.6523C2.3483 12.7062 1.75429 14.1345 1.75 15.625V33.125C1.75429 34.6155 2.3483 36.0438 3.40226 37.0977C4.45622 38.1517 5.88448 38.7457 7.375 38.75ZM11.75 33.2812C11.7509 33.5011 11.6938 33.7173 11.5844 33.908C11.475 34.0987 11.3173 34.2572 11.1272 34.3675C10.937 34.4778 10.7211 34.536 10.5012 34.5362C10.2814 34.5364 10.0654 34.4787 9.875 34.3688L7.6625 33.0875C7.47308 32.9776 7.31584 32.8199 7.20654 32.6301C7.09724 32.4404 7.03971 32.2252 7.03971 32.0062C7.03971 31.7873 7.09724 31.5721 7.20654 31.3824C7.31584 31.1926 7.47308 31.0349 7.6625 30.925L9.875 29.65C10.0649 29.5403 10.2804 29.4826 10.4997 29.4825C10.719 29.4825 10.9345 29.5401 11.1244 29.6497C11.3144 29.7592 11.4722 29.9169 11.5821 30.1067C11.6919 30.2965 11.7498 30.5119 11.75 30.7312V33.2812ZM19.875 34.3438C19.6851 34.4534 19.4696 34.5112 19.2503 34.5112C19.031 34.5113 18.8155 34.4536 18.6256 34.3441C18.4356 34.2345 18.2778 34.0769 18.1679 33.8871C18.0581 33.6972 18.0002 33.4818 18 33.2625V30.7312C18.0002 30.5119 18.0581 30.2965 18.1679 30.1067C18.2778 29.9169 18.4356 29.7592 18.6256 29.6497C18.8155 29.5401 19.031 29.4825 19.2503 29.4825C19.4696 29.4826 19.6851 29.5403 19.875 29.65L21.55 30.6188C21.5058 31.502 21.5815 32.3871 21.775 33.25L19.875 34.3438ZM13 5.41875H16.75V10H13V5.41875ZM6.75 17.4312C6.74984 17.1119 6.81261 16.7957 6.93473 16.5007C7.05686 16.2056 7.23593 15.9375 7.46173 15.7117C7.68753 15.4859 7.95561 15.3069 8.25066 15.1847C8.5457 15.0626 8.86193 14.9998 9.18125 15H20.5688C20.8881 14.9998 21.2043 15.0626 21.4993 15.1847C21.7944 15.3069 22.0625 15.4859 22.2883 15.7117C22.5141 15.9375 22.6931 16.2056 22.8153 16.5007C22.9374 16.7957 23.0002 17.1119 23 17.4312V23.8188C23.0002 24.1381 22.9374 24.4543 22.8153 24.7493C22.6931 25.0444 22.5141 25.3125 22.2883 25.5383C22.0625 25.7641 21.7944 25.9431 21.4993 26.0653C21.2043 26.1874 20.8881 26.2502 20.5688 26.25H9.18125C8.86193 26.2502 8.5457 26.1874 8.25066 26.0653C7.95561 25.9431 7.68753 25.7641 7.46173 25.5383C7.23593 25.3125 7.05686 25.0444 6.93473 24.7493C6.81261 24.4543 6.74984 24.1381 6.75 23.8188V17.4312Z" fill="#12B76A"/>
<path d="M32.2698 20.0828C31.8987 19.9683 31.4998 19.9819 31.1373 20.1216C28.5311 21.0897 24.0342 27.2416 24.0342 31.0334C24.0525 33.0673 24.8733 35.0117 26.318 36.4434C27.7626 37.8751 29.7143 38.6784 31.7482 38.6784C33.7822 38.6784 35.7338 37.8751 37.1785 36.4434C38.6232 35.0117 39.444 33.0673 39.4623 31.0334C39.4623 27.0897 34.9217 20.8703 32.2698 20.0828ZM32.9998 36.2491C32.8762 36.2491 32.7554 36.2124 32.6526 36.1437C32.5498 36.0751 32.4697 35.9774 32.4224 35.8632C32.3751 35.749 32.3627 35.6234 32.3868 35.5021C32.4109 35.3809 32.4705 35.2695 32.5579 35.1821C32.6453 35.0947 32.7566 35.0352 32.8779 35.0111C32.9991 34.987 33.1248 34.9993 33.239 35.0466C33.3532 35.0939 33.4508 35.1741 33.5195 35.2768C33.5882 35.3796 33.6248 35.5005 33.6248 35.6241C33.6248 35.7898 33.559 35.9488 33.4417 36.066C33.3245 36.1832 33.1656 36.2491 32.9998 36.2491ZM35.7123 31.0366C35.7123 30.8708 35.7782 30.7118 35.8954 30.5946C36.0126 30.4774 36.1715 30.4116 36.3373 30.4116C36.5031 30.4116 36.662 30.4774 36.7792 30.5946C36.8965 30.7118 36.9623 30.8708 36.9623 31.0366C36.9637 32.3688 36.4536 33.6507 35.5373 34.6178C35.4226 34.7383 35.265 34.8085 35.0987 34.8132C34.9324 34.8179 34.7711 34.7566 34.6498 34.6428C34.53 34.5291 34.4601 34.3725 34.4555 34.2073C34.4508 34.0422 34.5117 33.8819 34.6248 33.7616C35.3248 33.0273 35.7144 32.0511 35.7123 31.0366Z" fill="#12B76A"/>
</svg>
