<svg width="29" height="36" viewBox="0 0 29 36" fill="none" xmlns="http://www.w3.org/2000/svg">
<path fill-rule="evenodd" clip-rule="evenodd" d="M14.3239 6.20499C14.9356 7.03635 15.2214 8.00507 15.3819 9.05195L13.9178 10.2464C12.8648 10.9483 10.9946 11.9396 10.1321 10.8586C8.95882 9.39395 10.1371 5.29491 12.3433 5.29491C13.0754 5.29491 13.7774 5.72915 14.3239 6.20499ZM16.851 12.9575C16.7307 11.8523 16.7056 10.651 16.5852 9.53187L19.4583 7.17971C20.3859 6.42259 21.4188 6.16483 22.0355 6.53787C22.5419 6.84171 22.7074 7.59835 22.5019 8.61475L21.8651 10.831C20.8723 10.8376 19.8695 11.1188 18.8616 11.6748C18.1747 12.0635 17.5079 12.4911 16.851 12.9575ZM25.2847 15.811C25.6207 14.6693 25.2847 13.1254 23.3292 12.2079C23.1187 12.1367 22.908 12.081 22.7024 12.0414L21.0427 17.8327C21.2433 17.8793 21.4539 17.9214 21.6745 17.9585C23.6251 18.2453 24.9087 17.0464 25.2847 15.811ZM21.5342 11.9787C20.8423 12.0368 20.1403 12.2655 19.4132 12.6656C18.6059 13.1224 17.8238 13.6363 17.0716 14.211C17.4226 15.642 18.1697 16.8133 19.9547 17.5037L21.5342 11.9787ZM19.6489 18.5999L19.5787 18.817C19.1976 19.7035 18.7212 20.2339 18.1597 20.3914C17.5028 20.5759 16.6304 20.2886 15.5824 19.5365L13.4063 17.6953C14.2787 16.6844 15.1763 15.7849 16.1039 14.9872C16.6655 16.7306 17.7586 17.9003 19.6489 18.5999ZM8.55762 15.0794L11.7817 17.804C10.6435 18.9122 9.4401 19.4175 7.96098 19.4175C7.66514 19.4175 7.47458 19.3815 7.2841 19.0611C6.75762 18.1821 6.9933 16.1675 7.4145 15.3943C7.75042 14.8889 8.05626 14.8041 8.55762 15.0794ZM21.4991 19.0802C24.0061 19.4517 25.8463 17.8793 26.3678 16.1354C26.8241 14.6066 26.4179 12.3879 23.7755 11.1649C23.6351 11.0967 23.1687 10.9804 23.0133 10.9468L23.605 8.86547C23.9209 7.33971 23.5649 6.13731 22.6272 5.56723C21.5793 4.93643 20.06 5.22379 18.7413 6.30179L16.3847 8.23123C16.1741 7.25499 15.8281 6.31835 15.2013 5.47851C15.1763 5.44843 15.1511 5.41987 15.1211 5.39427C12.6541 3.21067 10.8491 4.43859 10.1872 5.06939C9.39498 5.82499 8.81834 6.99483 8.61274 8.27587C8.40218 9.60363 8.62778 10.8035 9.2445 11.5671C9.86122 12.3388 11.3705 13.314 14.5745 11.1756L15.5272 10.3994C15.5974 11.4643 15.6526 12.7324 15.818 13.7493C14.6799 14.6779 13.5867 15.7439 12.5438 16.9623C12.1727 16.651 9.28962 14.19 9.1693 14.1199C8.1113 13.5162 7.12858 13.7599 6.45666 14.7898C6.45162 14.8003 6.44666 14.8113 6.43658 14.8219C5.84994 15.8558 5.50394 18.3077 6.30618 19.6455C6.67218 20.2441 7.23882 20.5671 7.91066 20.5525H7.96082C10.1921 20.5525 11.6612 19.5351 12.649 18.5403L14.9054 20.4452C15.9533 21.1999 16.906 21.5789 17.7584 21.5789C18.0041 21.5789 18.2398 21.5478 18.4654 21.4847C19.383 21.2275 20.1151 20.4693 20.6415 19.2298L20.7318 18.9255L21.4991 19.0802ZM23.6602 28.0579C24.6579 23.3903 28.7996 21.7356 28.7996 14.5585C28.7996 6.39603 24.6479 1.13075 17.6984 0.473871C17.6984 0.473391 17.6934 0.473391 17.6934 0.473391C11.6614 -0.137329 6.03562 3.89555 4.61658 9.85179C4.53634 10.1822 4.55138 10.7528 4.56146 11.2101C4.58154 11.9727 4.5765 12.4912 4.12522 13.1967L0.199219 19.3209C2.96698 20.6195 3.36314 20.945 3.36314 21.4489V28.5058C3.36314 28.6402 3.42834 28.7464 3.5537 28.8307C4.13034 28.962 7.50986 28.8883 8.79842 28.8598C9.30482 28.8492 9.70602 28.8403 9.90154 28.8403C10.2124 28.8403 10.4681 29.0935 10.4681 29.4074V35.5878H25.3499C23.8055 32.2773 23.2691 29.8755 23.6602 28.0579Z" fill="#002364"/>
</svg>
