<svg width="48" height="48" viewBox="0 0 48 48" fill="none" xmlns="http://www.w3.org/2000/svg">
<path d="M45 24C44.9994 23.5963 44.8194 23.2069 44.4947 22.9067C44.17 22.6065 43.7233 22.4165 43.2404 22.3731C43.3488 22.1262 43.3839 21.8612 43.3426 21.6006C43.3013 21.34 43.185 21.0916 43.0033 20.8764C42.8217 20.6612 42.5802 20.4857 42.2995 20.3648C42.0187 20.2438 41.7069 20.1811 41.3907 20.1818H38.979C39.0852 19.9352 39.1184 19.6709 39.0758 19.4113C39.0332 19.1517 38.9161 18.9045 38.7342 18.6905C38.5524 18.4765 38.3113 18.302 38.0312 18.1818C37.7511 18.0616 37.4403 17.9993 37.1251 18L31.5724 18.0001C30.7697 18.0014 29.9758 18.1396 29.2399 18.4063C28.504 18.673 27.8419 19.0624 27.2945 19.5505C27.1734 19.6762 27.0204 19.7781 26.8465 19.849C26.6725 19.9199 26.4819 19.958 26.2882 19.9606C26.1035 19.9621 25.9193 19.9451 25.7395 19.91C24.9208 19.7674 22.5877 19.6193 19.6342 19.4318C18.0475 19.3312 16.2493 19.217 14.542 19.0931C8.95567 18.6873 3.72978 18.5471 3.67755 18.5457C3.54443 18.5419 3.4131 18.5721 3.30119 18.6322C3.18929 18.6922 3.10217 18.7793 3.05153 18.8817L3.00064 18.8781V28.7903C3.00031 28.935 3.06913 29.0738 3.19195 29.1763C3.31478 29.2788 3.48156 29.3365 3.6556 29.3368C3.70014 29.3342 8.89367 29.34 14.5451 28.9067C15.9005 28.8028 17.2934 28.7067 18.6189 28.6153C21.6016 28.4094 24.1775 28.2318 25.3663 28.0355C25.8423 27.9481 26.3393 27.9874 26.7869 28.1479C26.9239 28.1936 27.0482 28.2622 27.1519 28.3495C28.3146 29.4364 29.6815 29.9917 31.219 30H38.7657C39.0809 30.0007 39.3917 29.9384 39.6718 29.8182C39.9519 29.698 40.193 29.5235 40.3749 29.3095C40.5567 29.0955 40.6739 28.8483 40.7165 28.5887C40.7591 28.3291 40.7258 28.0648 40.6196 27.8182H41.3907C41.7069 27.8189 42.0187 27.7562 42.2995 27.6352C42.5802 27.5143 42.8217 27.3388 43.0033 27.1236C43.185 26.9084 43.3014 26.66 43.3426 26.3994C43.3839 26.1388 43.3488 25.8738 43.2404 25.6269C43.7233 25.5835 44.17 25.3935 44.4947 25.0933C44.8194 24.7931 44.9994 24.4037 45 24ZM24.8713 26.0604C24.79 26.0839 24.7039 26.094 24.618 26.0898C24.532 26.0857 24.4479 26.0676 24.3704 26.0364C24.2929 26.0052 24.2236 25.9616 24.1664 25.9082C24.1092 25.8547 24.0652 25.7924 24.037 25.7248C23.7939 25.2066 23.4524 24.7241 23.0254 24.2958C22.4523 24.6709 21.5918 25.3699 21.5333 26.0377C21.5225 26.1617 21.461 26.2789 21.3591 26.3698C21.2572 26.4608 21.121 26.5201 20.973 26.5379C20.825 26.5558 20.6741 26.531 20.5453 26.4679C20.4165 26.4047 20.3175 26.3069 20.2648 26.1906C20 25.706 19.5156 25.328 18.917 25.1389L19.3139 25.7336C19.3613 25.8045 19.389 25.8834 19.395 25.9644C19.4011 26.0454 19.3853 26.1265 19.3488 26.2018C19.3124 26.2771 19.2561 26.3446 19.1843 26.3995C19.1124 26.4545 19.0267 26.4954 18.9334 26.5193C18.524 26.6064 18.102 26.6458 17.6795 26.6365C16.5833 26.6365 14.8075 26.4235 12.5032 25.4298C11.8806 26.0179 10.4803 26.9923 8.02354 26.9923C6.41399 26.9537 4.83295 26.6297 3.38628 26.042C3.30768 26.0125 3.23684 25.9704 3.17781 25.9182C3.11878 25.8659 3.07273 25.8045 3.04228 25.7374C3.01182 25.6704 2.99757 25.599 3.00034 25.5273C3.0031 25.4557 3.02283 25.3852 3.05838 25.3199C3.09394 25.2546 3.14464 25.1957 3.20757 25.1467C3.2705 25.0977 3.34444 25.0595 3.42515 25.0342C3.50587 25.009 3.59178 24.9972 3.67797 24.9996C3.76417 25.0019 3.84896 25.0184 3.92749 25.048C8.26566 26.6802 10.4484 25.6026 11.3029 24.914C8.71194 23.9373 7.31639 24.7263 7.30179 24.7354C7.16273 24.8222 6.98792 24.8595 6.81574 24.8393C6.64356 24.819 6.48808 24.7428 6.38344 24.6274C6.2788 24.5119 6.23356 24.3667 6.25765 24.2236C6.28174 24.0804 6.37319 23.9511 6.51192 23.8639C6.57621 23.824 7.66166 23.1688 9.59982 23.3678C9.65811 22.9864 9.84647 22.6268 10.1427 22.3315C9.86005 22.1946 9.54274 22.1147 9.21623 22.0983C8.88972 22.0819 8.56314 22.1294 8.26274 22.237C8.18423 22.2674 8.09926 22.2846 8.01272 22.2876C7.92619 22.2906 7.83979 22.2793 7.75853 22.2544C7.67726 22.2295 7.60273 22.1914 7.53923 22.1425C7.47573 22.0935 7.42452 22.0346 7.38855 21.9691C7.35258 21.9036 7.33256 21.8329 7.32965 21.7609C7.32674 21.689 7.341 21.6173 7.37159 21.5499C7.40219 21.4826 7.44852 21.4209 7.50792 21.3685C7.56732 21.3161 7.63861 21.274 7.71768 21.2446C9.43491 20.593 10.9131 21.4085 11.3168 21.6669C11.7507 21.5331 12.2102 21.4654 12.6731 21.4673C12.8471 21.4709 13.0123 21.5318 13.1322 21.6367C13.2522 21.7415 13.3172 21.8816 13.3129 22.0262C13.3125 22.0981 13.2947 22.1691 13.2605 22.2351C13.2263 22.3012 13.1764 22.3608 13.1139 22.4104C13.0514 22.46 12.9774 22.4987 12.8965 22.524C12.8156 22.5494 12.7294 22.5609 12.643 22.5579C12.4773 22.5582 11.0356 22.5669 10.8916 23.5503C10.8879 23.5689 10.8831 23.5874 10.8771 23.6056C11.489 23.7712 12.0793 23.9876 12.6389 24.2516L12.6406 24.2522L12.6418 24.2529L12.6441 24.254C13.2774 24.5516 13.9369 24.8088 14.617 25.0234C14.5117 24.6545 14.2634 24.3246 13.9103 24.0846C13.8241 24.0317 13.7547 23.9622 13.708 23.882C13.6614 23.8019 13.6389 23.7135 13.6425 23.6245C13.6462 23.5355 13.6758 23.4486 13.7289 23.3713C13.782 23.2939 13.857 23.2285 13.9473 23.1806C14.6315 22.7916 15.3842 22.4931 16.1785 22.2957C16.3481 22.2633 16.5263 22.2881 16.6738 22.3648C16.8214 22.4416 16.9262 22.5638 16.9653 22.7048C17.0044 22.8458 16.9745 22.9939 16.8822 23.1165C16.7899 23.2392 16.6427 23.3263 16.4731 23.3588C16.078 23.4607 15.6974 23.5983 15.3383 23.7691C15.7471 24.2341 15.9714 24.7933 15.9802 25.3692C16.5393 25.4809 17.1118 25.5396 17.6867 25.5442L17.1383 24.7226C17.0845 24.6418 17.0561 24.551 17.056 24.4586C17.0559 24.3663 17.084 24.2754 17.1376 24.1946C17.1913 24.1137 17.2688 24.0455 17.3628 23.9963C17.4569 23.9472 17.5644 23.9186 17.6754 23.9134C18.2262 23.8767 18.78 23.9385 19.2997 24.0946C19.8194 24.2508 20.2927 24.4977 20.6879 24.8187C21.0618 24.3257 21.5329 23.8886 22.0816 23.5257C21.0177 22.8387 19.6907 22.4949 18.3455 22.5578C18.1721 22.5612 18.004 22.5079 17.8772 22.4094C17.7504 22.311 17.6751 22.1752 17.6673 22.0311C17.6615 21.8866 17.7249 21.746 17.8437 21.6402C17.9626 21.5345 18.127 21.4724 18.301 21.4674C23.5248 21.3195 25.2598 25.3261 25.2768 25.3666C25.305 25.4343 25.3168 25.5059 25.3117 25.5774C25.3066 25.6489 25.2846 25.7189 25.2469 25.7833C25.2093 25.8477 25.1567 25.9053 25.0922 25.9529C25.0278 26.0004 24.9527 26.037 24.8713 26.0604ZM43.0313 24.5455H36.4689C36.2948 24.5455 36.1279 24.6029 36.0049 24.7052C35.8818 24.8075 35.8126 24.9462 35.8126 25.0909C35.8126 25.2356 35.8818 25.3743 36.0049 25.4766C36.1279 25.5789 36.2948 25.6364 36.4689 25.6364H41.3907C41.5647 25.6364 41.7317 25.6938 41.8547 25.7961C41.9778 25.8984 42.0469 26.0372 42.0469 26.1818C42.0469 26.3265 41.9778 26.4652 41.8547 26.5675C41.7317 26.6698 41.5647 26.7273 41.3907 26.7273H37.4533C37.2792 26.7273 37.1123 26.7847 36.9892 26.887C36.8661 26.9893 36.797 27.1281 36.797 27.2727C36.797 27.4174 36.8661 27.5561 36.9892 27.6584C37.1123 27.7607 37.2792 27.8182 37.4533 27.8182H38.7657C38.9398 27.8182 39.1067 27.8756 39.2298 27.9779C39.3528 28.0802 39.422 28.219 39.422 28.3636C39.422 28.5083 39.3528 28.647 39.2298 28.7493C39.1067 28.8516 38.9398 28.9091 38.7657 28.9091H31.2231C30.0616 28.903 29.0506 28.4827 28.1324 27.6243C27.9072 27.4233 27.6342 27.2635 27.3307 27.155C27.1205 27.0765 26.9011 27.0162 26.676 26.9751V21.0225C27.2901 20.9416 27.8501 20.683 28.2571 20.2922C28.6782 19.9117 29.1903 19.6083 29.7605 19.4014C30.3306 19.1946 30.9464 19.0889 31.5686 19.091L37.1251 19.0909C37.2992 19.0909 37.4661 19.1484 37.5892 19.2507C37.7122 19.353 37.7814 19.4917 37.7814 19.6364C37.7814 19.781 37.7122 19.9198 37.5892 20.0221C37.4661 20.1244 37.2992 20.1818 37.1251 20.1818H34.8283C34.6542 20.1818 34.4873 20.2393 34.3642 20.3416C34.2412 20.4439 34.172 20.5826 34.172 20.7273C34.172 20.8719 34.2412 21.0107 34.3642 21.113C34.4873 21.2153 34.6542 21.2727 34.8283 21.2727H41.3907C41.5647 21.2727 41.7317 21.3302 41.8547 21.4325C41.9778 21.5348 42.0469 21.6735 42.0469 21.8182C42.0469 21.9628 41.9778 22.1016 41.8547 22.2039C41.7317 22.3062 41.5647 22.3636 41.3907 22.3636H35.4845C35.3105 22.3636 35.1436 22.4211 35.0205 22.5234C34.8974 22.6257 34.8283 22.7644 34.8283 22.9091C34.8283 23.0538 34.8974 23.1925 35.0205 23.2948C35.1436 23.3971 35.3105 23.4545 35.4845 23.4545H43.0313C43.2053 23.4545 43.3722 23.512 43.4953 23.6143C43.6184 23.7166 43.6875 23.8553 43.6875 24C43.6875 24.1447 43.6184 24.2834 43.4953 24.3857C43.3722 24.488 43.2053 24.5455 43.0313 24.5455Z" fill="#6938EF"/>
</svg>
