<svg width="18" height="18" viewBox="0 0 18 18" fill="none" xmlns="http://www.w3.org/2000/svg">
<path fill-rule="evenodd" clip-rule="evenodd" d="M9 1.5C9.41421 1.5 9.75 1.83579 9.75 2.25V10.9393L12.9697 7.71967C13.2626 7.42678 13.7374 7.42678 14.0303 7.71967C14.3232 8.01256 14.3232 8.48744 14.0303 8.78033L9.53033 13.2803C9.23744 13.5732 8.76256 13.5732 8.46967 13.2803L3.96967 8.78033C3.67678 8.48744 3.67678 8.01256 3.96967 7.71967C4.26256 7.42678 4.73744 7.42678 5.03033 7.71967L8.25 10.9393V2.25C8.25 1.83579 8.58579 1.5 9 1.5ZM1.5 15.75C1.5 15.3358 1.83579 15 2.25 15H15.75C16.1642 15 16.5 15.3358 16.5 15.75C16.5 16.1642 16.1642 16.5 15.75 16.5H2.25C1.83579 16.5 1.5 16.1642 1.5 15.75Z" fill="#1C9401"/>
</svg>
