<svg width="24" height="24" viewBox="0 0 24 24" fill="none" xmlns="http://www.w3.org/2000/svg">
<path d="M10.5862 17.0965C11.2493 16.3138 11.5328 15.2846 11.3642 14.2728L10.8682 11.2969H4.98944L4.49346 14.2728C4.3248 15.2846 4.60839 16.3138 5.27144 17.0965C5.78027 17.6971 6.46928 18.1002 7.22571 18.2557V22.5938H5.34991V24H10.5078V22.5938H8.63196V18.2557C9.38842 18.1002 10.0774 17.6972 10.5862 17.0965Z" fill="#6938EF"/>
<path d="M19.5537 12.7031H16.2725V17.8594H19.5537V12.7031Z" fill="#6938EF"/>
<path d="M16.9756 0H12.7568V2.8125H16.9756V0Z" fill="#6938EF"/>
<path d="M19.5542 11.2969V9.9375C19.5542 8.36953 18.4486 7.05483 16.9761 6.73209V4.21875H12.7573V6.73209C11.2996 7.05159 10.2021 8.34342 10.1802 9.89062H12.0599L12.2557 11.0657L12.7517 14.0416C12.9884 15.462 12.5904 16.9067 11.6596 18.0055C11.2472 18.4923 10.7417 18.8921 10.1792 19.184V21.1875H11.9144V24H19.5542V19.2656H14.8667V11.2969H19.5542Z" fill="#6938EF"/>
</svg>
