<svg width="20" height="21" viewBox="0 0 20 21" fill="none" xmlns="http://www.w3.org/2000/svg">
<path fill-rule="evenodd" clip-rule="evenodd" d="M13.5774 2.41099C14.8234 1.16508 16.8434 1.16509 18.0893 2.411C19.3352 3.65691 19.3352 5.67693 18.0893 6.92284L15.5915 9.42065C15.5907 9.42138 15.59 9.42211 15.5893 9.42284C15.5886 9.42357 15.5878 9.4243 15.5871 9.42503L7.08403 17.9281C7.07006 17.942 7.05622 17.9559 7.04249 17.9697C6.83841 18.1741 6.65839 18.3544 6.4445 18.4954C6.25645 18.6194 6.05251 18.7174 5.8382 18.7868C5.59444 18.8657 5.34118 18.8937 5.05407 18.9253C5.03476 18.9275 5.0153 18.9296 4.99567 18.9318L2.17536 19.2452C1.92376 19.2731 1.67309 19.1852 1.49408 19.0062C1.31508 18.8272 1.22715 18.5765 1.2551 18.3249L1.56847 15.5046C1.57065 15.485 1.5728 15.4655 1.57493 15.4462C1.6066 15.1591 1.63453 14.9058 1.71344 14.6621C1.78282 14.4478 1.88084 14.2438 2.00485 14.0558C2.14589 13.8419 2.3262 13.6618 2.53061 13.4578C2.54436 13.444 2.55822 13.4302 2.57219 13.4162L13.5774 2.41099ZM11.6667 6.67876L3.7507 14.5947C3.48195 14.8635 3.43205 14.9189 3.39623 14.9733C3.35489 15.036 3.32222 15.1039 3.29909 15.1754C3.27905 15.2373 3.26692 15.3109 3.22494 15.6886L3.02661 17.4737L4.81162 17.2753C5.18937 17.2333 5.26297 17.2212 5.32489 17.2012C5.39632 17.178 5.4643 17.1454 5.52699 17.104C5.58132 17.0682 5.63677 17.0183 5.90552 16.7496L13.8215 8.83358L11.6667 6.67876ZM15 7.65507L12.8452 5.50025L14.756 3.58951C15.351 2.99447 16.3157 2.99447 16.9108 3.58951C17.5058 4.18455 17.5058 5.14929 16.9108 5.74433L15 7.65507Z" fill="#374151"/>
</svg>
