<svg width="18" height="18" viewBox="0 0 18 18" fill="none" xmlns="http://www.w3.org/2000/svg">
<g clip-path="url(#clip0_5988_10343)">
<path fill-rule="evenodd" clip-rule="evenodd" d="M13.3447 1.34386C14.2589 0.429649 15.7411 0.429651 16.6553 1.34386C17.5695 2.25808 17.5695 3.74031 16.6553 4.65453L9.48327 11.8266C9.46843 11.8414 9.45372 11.8562 9.43913 11.8708C9.22354 12.0868 9.03346 12.2772 8.8043 12.4176C8.60299 12.541 8.38351 12.6319 8.15393 12.687C7.8926 12.7498 7.62354 12.7495 7.31836 12.7492C7.2977 12.7492 7.27688 12.7492 7.25589 12.7492H5.99998C5.58577 12.7492 5.24998 12.4134 5.24998 11.9992V10.7433C5.24998 10.7223 5.24996 10.7015 5.24994 10.6808C5.24966 10.3757 5.24941 10.1066 5.31215 9.84526C5.36727 9.61568 5.45818 9.39621 5.58154 9.19489C5.72197 8.96574 5.9124 8.77566 6.12839 8.56007C6.14301 8.54548 6.15775 8.53077 6.1726 8.51592L13.3447 1.34386ZM15.5947 2.40452C15.2662 2.0761 14.7338 2.0761 14.4053 2.40452L7.23326 9.57658C6.94859 9.86125 6.89609 9.92056 6.8605 9.97864C6.81938 10.0457 6.78908 10.1189 6.7707 10.1954C6.7548 10.2617 6.74998 10.3407 6.74998 10.7433V11.2492H7.25589C7.65847 11.2492 7.73753 11.2444 7.80376 11.2285C7.88029 11.2101 7.95345 11.1798 8.02055 11.1387C8.07864 11.1031 8.13794 11.0506 8.42261 10.7659L15.5947 3.59386C15.9231 3.26544 15.9231 2.73295 15.5947 2.40452ZM5.06903 2.24919L8.25 2.24919C8.66421 2.24919 9 2.58498 9 2.99919C9 3.41341 8.66421 3.74919 8.25 3.74919H5.1C4.45757 3.74919 4.02085 3.74978 3.68328 3.77736C3.35447 3.80422 3.18631 3.85292 3.06902 3.91268C2.78677 4.05649 2.5573 4.28597 2.41349 4.56821C2.35372 4.68551 2.30503 4.85366 2.27816 5.18247C2.25058 5.52004 2.25 5.95676 2.25 6.59919V12.8992C2.25 13.5416 2.25058 13.9784 2.27816 14.3159C2.30503 14.6447 2.35372 14.8129 2.41349 14.9302C2.5573 15.2124 2.78677 15.4419 3.06902 15.5857C3.18631 15.6455 3.35447 15.6942 3.68328 15.721C4.02085 15.7486 4.45757 15.7492 5.1 15.7492H11.4C12.0424 15.7492 12.4792 15.7486 12.8167 15.721C13.1455 15.6942 13.3137 15.6455 13.431 15.5857C13.7132 15.4419 13.9427 15.2124 14.0865 14.9302C14.1463 14.8129 14.195 14.6447 14.2218 14.3159C14.2494 13.9784 14.25 13.5416 14.25 12.8992V9.7492C14.25 9.33498 14.5858 8.9992 15 8.9992C15.4142 8.9992 15.75 9.33498 15.75 9.7492V12.9302C15.75 13.5339 15.75 14.0322 15.7169 14.4381C15.6824 14.8596 15.6085 15.2472 15.423 15.6112C15.1354 16.1757 14.6765 16.6346 14.112 16.9222C13.748 17.1077 13.3604 17.1816 12.9389 17.2161C12.533 17.2492 12.0347 17.2492 11.431 17.2492H5.06901C4.46529 17.2492 3.96702 17.2492 3.56113 17.2161C3.13956 17.1816 2.75203 17.1077 2.38803 16.9222C1.82354 16.6346 1.3646 16.1757 1.07698 15.6112C0.891513 15.2472 0.81759 14.8596 0.783146 14.4381C0.749983 14.0322 0.749991 13.5339 0.75 12.9302V6.56822C0.749991 5.96449 0.749983 5.46622 0.783146 5.06033C0.81759 4.63875 0.891513 4.25122 1.07698 3.88722C1.3646 3.32274 1.82354 2.8638 2.38803 2.57617C2.75203 2.39071 3.13956 2.31678 3.56113 2.28234C3.96703 2.24918 4.4653 2.24918 5.06903 2.24919Z" fill="#007183"/>
</g>
<defs>
<clipPath id="clip0_5988_10343">
<rect width="18" height="18" fill="white"/>
</clipPath>
</defs>
</svg>
