<svg width="24" height="24" viewBox="0 0 24 24" fill="none" xmlns="http://www.w3.org/2000/svg">
<path d="M19.8869 11.0722V9.02355C19.8869 8.9378 19.8202 8.87109 19.7392 8.87109H18.9341V11.2199H19.7392C19.8202 11.2199 19.8869 11.1532 19.8869 11.0722Z" fill="#FF832B"/>
<path d="M20.921 0.923828H18.6006C18.8102 1.2049 18.9341 1.55745 18.9341 1.93862V3.01532H19.7393C20.2157 3.01532 20.6016 3.40122 20.6016 3.87765V5.92631C20.6016 6.40274 20.2157 6.78864 19.7393 6.78864H18.9341V8.15598H19.7393C20.2157 8.15598 20.6016 8.54666 20.6016 9.02308V11.0717C20.6016 11.5481 20.2157 11.934 19.7393 11.934H18.9341V13.3014H19.7393C20.2157 13.3014 20.6016 13.6873 20.6016 14.1637V16.2123C20.6016 16.6888 20.2157 17.0794 19.7393 17.0794H18.9341V22.0629C18.9341 22.444 18.8102 22.7966 18.6006 23.0777H20.921C21.4784 23.0777 21.9357 22.6203 21.9357 22.0629V1.93862C21.9357 1.37641 21.4784 0.923828 20.921 0.923828Z" fill="#FF832B"/>
<path d="M19.8869 5.92682V3.87816C19.8869 3.79718 19.8202 3.73047 19.7392 3.73047H18.9341V6.07451H19.7392C19.8202 6.07451 19.8869 6.0078 19.8869 5.92682Z" fill="#FF832B"/>
<path d="M19.8869 16.2119V14.1633C19.8869 14.0823 19.8202 14.0156 19.7392 14.0156H18.9341V16.3644H19.7392C19.8202 16.3644 19.8869 16.2977 19.8869 16.2119Z" fill="#FF832B"/>
<path d="M17.2048 0.923828H6.81396V23.0777H17.2048C17.767 23.0777 18.2196 22.6203 18.2196 22.0629C18.2196 22.0152 18.2196 0.628544 18.2196 1.93862C18.2196 1.37641 17.767 0.923828 17.2048 0.923828ZM12.3405 6.074C13.1838 6.074 13.8651 6.76006 13.8651 7.59857C13.8651 8.43706 13.1838 9.11835 12.3405 9.11835C11.502 9.11835 10.8207 8.43706 10.8207 7.59857C10.8207 6.76006 11.502 6.074 12.3405 6.074ZM12.3405 9.48043C14.1224 9.48043 15.5945 10.824 15.7899 12.5534C15.8137 12.7678 15.6422 12.9488 15.4278 12.9488H9.25327C9.03887 12.9488 8.86736 12.7678 8.89118 12.5534C9.0913 10.824 10.5587 9.48043 12.3405 9.48043ZM15.909 19.2758H8.77684C8.57675 19.2758 8.41952 19.1138 8.41952 18.9184C8.41952 18.7184 8.57675 18.5611 8.77684 18.5611H15.909C16.1043 18.5611 16.2663 18.7184 16.2663 18.9184C16.2663 19.1138 16.1043 19.2758 15.909 19.2758ZM15.909 17.2748H8.77684C8.57675 17.2748 8.41952 17.1128 8.41952 16.9175C8.41952 16.7174 8.57675 16.5602 8.77684 16.5602H15.909C16.1043 16.5602 16.2663 16.7174 16.2663 16.9175C16.2663 17.1128 16.1043 17.2748 15.909 17.2748Z" fill="#FF832B"/>
<path d="M2.06396 1.93862V22.0629C2.06396 22.6203 2.51655 23.0777 3.07876 23.0777H6.09929V0.923828H3.07876C2.51655 0.923828 2.06396 1.37641 2.06396 1.93862Z" fill="#FF832B"/>
</svg>
