<svg width="25" height="25" viewBox="0 0 25 25" fill="none" xmlns="http://www.w3.org/2000/svg">
<path d="M22.5958 6.78059C22.8493 7.14434 23 7.58384 23 8.05859V20.0586C23 21.2961 21.9875 22.3086 20.75 22.3086H4.25C3.0125 22.3086 2 21.2961 2 20.0586V8.05859C2 7.58384 2.15075 7.14434 2.40425 6.78059L5.43125 11.5566C5.84975 12.1836 6.5495 12.5586 7.30325 12.5586H9.63875C9.94925 13.4293 10.7743 14.0586 11.7508 14.0586H13.2507C14.2272 14.0586 15.0522 13.4293 15.3627 12.5586H17.6982C18.452 12.5586 19.1518 12.1836 19.58 11.5423L22.5972 6.78134L22.5958 6.78059ZM11.75 11.0586C11.3368 11.0586 11 11.3953 11 11.8086C11 12.2218 11.3368 12.5586 11.75 12.5586H13.25C13.6632 12.5586 14 12.2218 14 11.8086C14 11.3953 13.6632 11.0586 13.25 11.0586H11.75ZM3.62675 5.90834C3.82625 5.84984 4.0325 5.80859 4.25 5.80859H8V5.05859C8 3.82109 9.0125 2.80859 10.25 2.80859H14.75C15.9875 2.80859 17 3.82109 17 5.05859V5.80859H20.75C20.9675 5.80859 21.1737 5.84984 21.3732 5.90834L18.3215 10.7248C18.182 10.9341 17.9488 11.0586 17.6975 11.0586H15.362C15.0515 10.1878 14.2265 9.55859 13.25 9.55859H11.75C10.7735 9.55859 9.9485 10.1878 9.638 11.0586H7.3025C7.05125 11.0586 6.818 10.9333 6.68825 10.7391L3.62675 5.90834ZM9.5 5.80859H15.5V5.05859C15.5 4.64609 15.1625 4.30859 14.75 4.30859H10.25C9.8375 4.30859 9.5 4.64609 9.5 5.05859V5.80859Z" fill="#12B76A"/>
</svg>
