<svg width="24" height="24" viewBox="0 0 24 24" fill="none" xmlns="http://www.w3.org/2000/svg">
<g clip-path="url(#clip0_750_125661)">
<path d="M19.4369 0.00548504C15.5892 0.344584 12.7499 2.26511 11.0948 5.04153C9.98555 6.43207 7.76976 10.6774 6.96392 12.8998C5.50276 15.6634 4.22862 18.9516 3.2315 21.9158C2.62197 23.7285 5.35882 24.911 5.97184 23.0902C6.71755 20.8725 7.61845 18.4748 8.63652 16.2497C9.64684 18.5108 10.6734 20.7646 11.7757 22.9828C12.6301 24.7046 15.2008 23.1946 14.3496 21.4785C13.2148 19.1952 12.1606 16.8755 11.122 14.548C11.1351 14.5029 11.1518 14.4591 11.1658 14.4145C11.3388 14.4638 11.5297 14.4789 11.74 14.4389C13.3292 14.1406 14.9184 13.843 16.5087 13.5446C17.1881 13.417 17.4484 12.6736 17.3414 12.0784C17.0201 10.2949 16.004 9.05408 14.7391 7.88004C14.5514 7.24141 13.9252 6.67651 13.2303 6.11509C14.639 3.83762 16.939 2.6015 19.9327 2.33767C21.4606 2.20381 20.9516 -0.127594 19.4369 0.00548504ZM13.6466 10.1432C14.0396 10.5521 14.3741 10.9824 14.6266 11.4805C13.8576 11.6249 13.0883 11.7688 12.3193 11.9131C12.7073 11.2885 13.1538 10.6987 13.6466 10.1432Z" fill="#004EBA"/>
<path d="M16.9368 8.11278C18.0671 8.11278 18.9834 7.19647 18.9834 6.06615C18.9834 4.93584 18.0671 4.01953 16.9368 4.01953C15.8064 4.01953 14.8901 4.93584 14.8901 6.06615C14.8901 7.19647 15.8064 8.11278 16.9368 8.11278Z" fill="#004EBA"/>
</g>
<defs>
<clipPath id="clip0_750_125661">
<rect width="24" height="24" fill="white"/>
</clipPath>
</defs>
</svg>
