<svg width="18" height="19" viewBox="0 0 18 19" fill="none" xmlns="http://www.w3.org/2000/svg">
<path fill-rule="evenodd" clip-rule="evenodd" d="M6.56903 1.25H11.431C12.0347 1.24999 12.533 1.24998 12.9389 1.28315C13.3604 1.31759 13.748 1.39151 14.112 1.57698C14.6765 1.8646 15.1354 2.32354 15.423 2.88803C15.6085 3.25203 15.6824 3.63956 15.7169 4.06113C15.75 4.46702 15.75 4.96529 15.75 5.56901V13.431C15.75 14.0347 15.75 14.533 15.7169 14.9389C15.6824 15.3604 15.6085 15.748 15.423 16.112C15.1354 16.6765 14.6765 17.1354 14.112 17.423C13.748 17.6085 13.3604 17.6824 12.9389 17.7169C12.533 17.75 12.0347 17.75 11.431 17.75H6.56901C5.96529 17.75 5.46702 17.75 5.06113 17.7169C4.63956 17.6824 4.25203 17.6085 3.88803 17.423C3.32354 17.1354 2.8646 16.6765 2.57698 16.112C2.39151 15.748 2.31759 15.3604 2.28315 14.9389C2.24998 14.533 2.24999 14.0347 2.25 13.431V5.56903C2.24999 4.9653 2.24998 4.46703 2.28315 4.06113C2.31759 3.63956 2.39151 3.25203 2.57698 2.88803C2.8646 2.32354 3.32354 1.8646 3.88803 1.57698C4.25203 1.39151 4.63956 1.31759 5.06113 1.28315C5.46703 1.24998 5.9653 1.24999 6.56903 1.25ZM5.18328 2.77816C4.85447 2.80503 4.68631 2.85372 4.56902 2.91349C4.28677 3.0573 4.0573 3.28677 3.91349 3.56901C3.85372 3.68631 3.80503 3.85447 3.77816 4.18328C3.75058 4.52085 3.75 4.95757 3.75 5.6V13.4C3.75 14.0424 3.75058 14.4792 3.77816 14.8167C3.80503 15.1455 3.85372 15.3137 3.91349 15.431C4.0573 15.7132 4.28677 15.9427 4.56902 16.0865C4.68631 16.1463 4.85447 16.195 5.18328 16.2218C5.52085 16.2494 5.95757 16.25 6.6 16.25H11.4C12.0424 16.25 12.4792 16.2494 12.8167 16.2218C13.1455 16.195 13.3137 16.1463 13.431 16.0865C13.7132 15.9427 13.9427 15.7132 14.0865 15.431C14.1463 15.3137 14.195 15.1455 14.2218 14.8167C14.2494 14.4792 14.25 14.0424 14.25 13.4V5.6C14.25 4.95757 14.2494 4.52085 14.2218 4.18328C14.195 3.85447 14.1463 3.68631 14.0865 3.56901C13.9427 3.28677 13.7132 3.0573 13.431 2.91349C13.3137 2.85372 13.1455 2.80503 12.8167 2.77816C12.4792 2.75058 12.0424 2.75 11.4 2.75H6.6C5.95757 2.75 5.52085 2.75058 5.18328 2.77816ZM5.25 5.75C5.25 5.33579 5.58579 5 6 5H12C12.4142 5 12.75 5.33579 12.75 5.75C12.75 6.16421 12.4142 6.5 12 6.5H6C5.58579 6.5 5.25 6.16421 5.25 5.75ZM5.25 8.75C5.25 8.33579 5.58579 8 6 8H10.5C10.9142 8 11.25 8.33579 11.25 8.75C11.25 9.16421 10.9142 9.5 10.5 9.5H6C5.58579 9.5 5.25 9.16421 5.25 8.75ZM5.25 11.75C5.25 11.3358 5.58579 11 6 11H7.5C7.91421 11 8.25 11.3358 8.25 11.75C8.25 12.1642 7.91421 12.5 7.5 12.5H6C5.58579 12.5 5.25 12.1642 5.25 11.75Z" fill="#1C9401"/>
</svg>
