<svg width="20" height="20" viewBox="0 0 20 20" fill="none" xmlns="http://www.w3.org/2000/svg">
<path fill-rule="evenodd" clip-rule="evenodd" d="M1.6665 4.99935C1.6665 4.53911 2.0396 4.16602 2.49984 4.16602H17.4998C17.9601 4.16602 18.3332 4.53911 18.3332 4.99935C18.3332 5.45959 17.9601 5.83268 17.4998 5.83268H2.49984C2.0396 5.83268 1.6665 5.45959 1.6665 4.99935ZM4.1665 9.99935C4.1665 9.53911 4.5396 9.16602 4.99984 9.16602H14.9998C15.4601 9.16602 15.8332 9.53911 15.8332 9.99935C15.8332 10.4596 15.4601 10.8327 14.9998 10.8327H4.99984C4.5396 10.8327 4.1665 10.4596 4.1665 9.99935ZM6.6665 14.9993C6.6665 14.5391 7.0396 14.166 7.49984 14.166H12.4998C12.9601 14.166 13.3332 14.5391 13.3332 14.9993C13.3332 15.4596 12.9601 15.8327 12.4998 15.8327H7.49984C7.0396 15.8327 6.6665 15.4596 6.6665 14.9993Z" fill="#001940"/>
</svg>
