<svg width="41" height="40" viewBox="0 0 41 40" fill="none" xmlns="http://www.w3.org/2000/svg">
<path fill-rule="evenodd" clip-rule="evenodd" d="M20.3243 8.20475C20.9361 9.03611 21.2219 10.0048 21.3823 11.0517L19.9183 12.2461C18.8653 12.9481 16.9951 13.9394 16.1326 12.8583C14.9593 11.3937 16.1375 7.29467 18.3438 7.29467C19.0759 7.29467 19.7779 7.72891 20.3243 8.20475ZM22.8515 14.9572C22.7311 13.8521 22.7061 12.6507 22.5857 11.5316L25.4587 9.17947C26.3863 8.42235 27.4193 8.16459 28.036 8.53763C28.5424 8.84147 28.7079 9.59811 28.5023 10.6145L27.8655 12.8307C26.8727 12.8373 25.8699 13.1186 24.8621 13.6746C24.1752 14.0632 23.5083 14.4909 22.8515 14.9572ZM31.2852 17.8107C31.6211 16.6691 31.2852 15.1251 29.3297 14.2076C29.1191 14.1364 28.9085 14.0807 28.7029 14.0411L27.0432 19.8324C27.2438 19.8791 27.4543 19.9211 27.675 19.9583C29.6255 20.2451 30.9091 19.0462 31.2852 17.8107ZM27.5347 13.9784C26.8427 14.0366 26.1407 14.2652 25.4137 14.6654C24.6064 15.1222 23.8243 15.6361 23.0721 16.2107C23.4231 17.6418 24.1702 18.8131 25.9552 19.5035L27.5347 13.9784ZM25.6494 20.5996L25.5791 20.8167C25.1981 21.7032 24.7217 22.2337 24.1602 22.3911C23.5033 22.5756 22.6309 22.2883 21.5829 21.5363L19.4067 19.6951C20.2792 18.6842 21.1767 17.7847 22.1043 16.987C22.6659 18.7303 23.7591 19.9001 25.6494 20.5996ZM14.5581 17.0791L17.7822 19.8038C16.644 20.9119 15.4406 21.4173 13.9615 21.4173C13.6656 21.4173 13.4751 21.3812 13.2846 21.0608C12.7581 20.1819 12.9938 18.1672 13.415 17.394C13.7509 16.8887 14.0567 16.8039 14.5581 17.0791ZM27.4995 21.0799C30.0066 21.4515 31.8467 19.8791 32.3683 18.1351C32.8246 16.6063 32.4184 14.3876 29.7759 13.1647C29.6355 13.0965 29.1692 12.9802 29.0138 12.9466L29.6055 10.8652C29.9214 9.33947 29.5654 8.13707 28.6277 7.56699C27.5798 6.93619 26.0605 7.22355 24.7418 8.30155L22.3851 10.231C22.1746 9.25475 21.8286 8.31811 21.2018 7.47827C21.1767 7.44819 21.1516 7.41963 21.1215 7.39403C18.6546 5.21043 16.8495 6.43835 16.1877 7.06915C15.3955 7.82475 14.8188 8.99459 14.6132 10.2756C14.4027 11.6034 14.6283 12.8032 15.245 13.5669C15.8617 14.3386 17.371 15.3138 20.575 13.1753L21.5277 12.3991C21.5979 13.4641 21.6531 14.7322 21.8185 15.7491C20.6803 16.6777 19.5872 17.7437 18.5443 18.9621C18.1732 18.6507 15.2901 16.1898 15.1698 16.1196C14.1118 15.5159 13.1291 15.7596 12.4571 16.7895C12.4521 16.8001 12.4471 16.8111 12.4371 16.8216C11.8504 17.8555 11.5044 20.3075 12.3067 21.6452C12.6727 22.2439 13.2393 22.5668 13.9111 22.5523H13.9613C16.1926 22.5523 17.6617 21.5349 18.6495 20.5401L20.9059 22.445C21.9538 23.1996 22.9065 23.5787 23.7589 23.5787C24.0046 23.5787 24.2403 23.5475 24.4659 23.4844C25.3835 23.2272 26.1155 22.4691 26.642 21.2295L26.7323 20.9252L27.4995 21.0799ZM29.6607 30.0577C30.6584 25.3901 34.8001 23.7354 34.8001 16.5583C34.8001 8.39579 30.6484 3.13051 23.6989 2.47363C23.6989 2.47315 23.6939 2.47315 23.6939 2.47315C17.6619 1.86243 12.0361 5.89531 10.6171 11.8515C10.5368 12.1819 10.5519 12.7526 10.5619 13.2099C10.582 13.9725 10.577 14.491 10.1257 15.1964L6.19971 21.3207C8.96747 22.6193 9.36363 22.9447 9.36363 23.4487V30.5055C9.36363 30.6399 9.42883 30.7462 9.55419 30.8304C10.1308 30.9618 13.5103 30.8881 14.7989 30.8595C15.3053 30.849 15.7065 30.84 15.902 30.84C16.2129 30.84 16.4686 31.0932 16.4686 31.4071V37.5875H31.3504C29.806 34.2771 29.2695 31.8753 29.6607 30.0577Z" fill="#002364"/>
</svg>
