<svg width="25" height="24" viewBox="0 0 25 24" fill="none" xmlns="http://www.w3.org/2000/svg">
<g clip-path="url(#clip0_4937_132205)">
<path d="M13.0391 15.8789H12.3301V20.1211H13.0391C13.43 20.1211 13.748 19.803 13.748 19.4121V16.5879C13.748 16.197 13.43 15.8789 13.0391 15.8789Z" fill="white"/>
<path d="M21.6445 12H3.02344L0.333984 14.6895V21.3105L3.02344 24H21.6445L24.334 21.3105V14.6895L21.6445 12ZM9.70017 21.5273H8.29392V18.7031H6.87595V21.5273H5.4697V14.4727H6.87595V17.2969H8.29392V14.4727H9.70017V21.5273ZM15.1553 19.4121C15.1553 20.5785 14.2064 21.5273 13.0401 21.5273H10.9248V14.4727H13.0401C14.2064 14.4727 15.1553 15.4215 15.1553 16.5879V19.4121ZM20.6103 21.5273H16.3799V14.4727H17.7861V20.1211H20.6103V21.5273Z" fill="white"/>
<path d="M12.334 9C14.8193 9 16.834 6.98527 16.834 4.5C16.834 2.01473 14.8193 0 12.334 0C9.84872 0 7.83398 2.01473 7.83398 4.5C7.83398 6.98527 9.84872 9 12.334 9ZM10.7842 3.44386L11.9152 4.57486L13.8838 2.6063L14.8782 3.60066L11.9152 6.56358L9.78989 4.43822L10.7842 3.44386Z" fill="white"/>
</g>
<defs>
<clipPath id="clip0_4937_132205">
<rect width="24" height="24" fill="white" transform="translate(0.333984)"/>
</clipPath>
</defs>
</svg>
