<svg width="32" height="32" viewBox="0 0 32 32" fill="none" xmlns="http://www.w3.org/2000/svg">
<path d="M21.3334 4.66602H10.6667C7.36008 4.66602 4.66675 7.35935 4.66675 10.666V21.3327C4.66675 24.6393 7.36008 27.3327 10.6667 27.3327H21.3334C24.6401 27.3327 27.3334 24.6393 27.3334 21.3327V10.666C27.3334 7.35935 24.6401 4.66602 21.3334 4.66602ZM24.0001 16.666H20.4134L17.9334 21.626C17.6801 22.1327 16.9467 22.1193 16.7201 21.586L13.4134 13.866L12.6401 16.1993C12.5467 16.466 12.2934 16.6527 12.0134 16.6527H8.01341C7.64008 16.6527 7.34675 16.3593 7.34675 15.986C7.34675 15.6127 7.64008 15.3193 8.01341 15.3193H11.5334L12.7201 11.7727C12.9067 11.226 13.7067 11.1193 13.9601 11.7193L17.4001 19.7327L19.4267 15.6793C19.5334 15.4527 19.7734 15.306 20.0267 15.306H24.0267C24.4001 15.306 24.6934 15.5993 24.6934 15.9727C24.6934 16.346 24.4001 16.6393 24.0267 16.6393L24.0001 16.666Z" fill="#12B76A"/>
</svg>
