<svg width="12" height="40" viewBox="0 0 12 40" fill="none" xmlns="http://www.w3.org/2000/svg">
<rect width="12" height="40" fill="#BDBDBD"/>
<g id="PHR">
<path d="M-1158 -2331C-1158 -2332.1 -1157.1 -2333 -1156 -2333H24455C24456.1 -2333 24457 -2332.1 24457 -2331V4329C24457 4330.1 24456.1 4331 24455 4331H-1156C-1157.1 4331 -1158 4330.1 -1158 4329V-2331Z" fill="#444444"/>
<path d="M-1156 -2332H24455V-2334H-1156V-2332ZM24456 -2331V4329H24458V-2331H24456ZM24455 4330H-1156V4332H24455V4330ZM-1157 4329V-2331H-1159V4329H-1157ZM-1156 4330C-1156.55 4330 -1157 4329.55 -1157 4329H-1159C-1159 4330.66 -1157.66 4332 -1156 4332V4330ZM24456 4329C24456 4329.55 24455.6 4330 24455 4330V4332C24456.7 4332 24458 4330.66 24458 4329H24456ZM24455 -2332C24455.6 -2332 24456 -2331.55 24456 -2331H24458C24458 -2332.66 24456.7 -2334 24455 -2334V-2332ZM-1156 -2334C-1157.66 -2334 -1159 -2332.66 -1159 -2331H-1157C-1157 -2331.55 -1156.55 -2332 -1156 -2332V-2334Z" fill="black" fill-opacity="0.1"/>
<g id="PHR- Basic Information" clip-path="url(#clip0_0_1)">
<rect width="1440" height="3923" transform="translate(-674 -1713)" fill="white"/>
<g id="Frame 1437254662">
<g id="Frame 1437254647">
<g id="Frame 1437254651">
<g id="Frame 1437254647_2">
<rect width="650" height="304" transform="translate(-614 -97)" fill="#F9FAFB"/>
<g id="Frame 1437254250" clip-path="url(#clip1_0_1)">
<rect width="626" height="125" transform="translate(-614 -32)" fill="#F9FAFB"/>
<g id="Frame 1437254225">
<g id="Frame 1437254218">
<path d="M-8.5 20C-8.5 4.53603 4.03603 -8 19.5 -8C34.964 -8 47.5 4.53603 47.5 20C47.5 35.464 34.964 48 19.5 48C4.03603 48 -8.5 35.464 -8.5 20Z" fill="#EBF8FF"/>
<g id="fi_2739060" clip-path="url(#clip2_0_1)">
<g id="Page-1">
<g id="039---LDL">
<path id="Shape" d="M4.6665 28C3.56193 28 2.6665 28.8954 2.6665 30C2.6665 30.3682 2.96498 30.6667 3.33317 30.6667C3.70136 30.6667 3.99984 30.3682 3.99984 30C3.99984 29.6318 4.29831 29.3333 4.6665 29.3333C5.03469 29.3333 5.33317 29.0349 5.33317 28.6667C5.33317 28.2985 5.03469 28 4.6665 28Z" fill="#004EBA"/>
<path id="Shape_2" d="M11.26 32.2533C10.5003 32.1109 9.75067 31.9189 9.016 31.6787C9.67662 29.983 9.28847 28.0579 8.02241 26.7506C6.75634 25.4434 4.84459 24.9939 3.12866 25.6C3.16333 22.49 6.10866 19.0407 10.84 16.514C11.1533 15.8473 11.4933 15.1807 11.8533 14.5273C5.296 17.5027 1.38533 22.0887 1.83666 26.298C0.396673 27.3942 -0.278707 29.2247 0.104292 30.9935C0.487292 32.7622 1.85944 34.1494 3.6239 34.5517C5.38836 34.954 7.22619 34.2986 8.338 32.8707C9.73201 33.3347 11.1722 33.6463 12.6333 33.8C12.1323 33.3245 11.6728 32.8071 11.26 32.2533ZM4.66666 33.3333C2.82571 33.3333 1.33333 31.841 1.33333 30C1.33333 28.1591 2.82571 26.6667 4.66666 26.6667C6.50761 26.6667 8 28.1591 8 30C7.99779 31.84 6.5067 33.3311 4.66666 33.3333Z" fill="#004EBA"/>
<path id="Shape_3" d="M20.8353 4.22793C18.648 6.73326 10 17.0893 10 24.4526C9.94156 30.7707 15.0153 35.9402 21.3333 35.9999C27.6514 35.9402 32.7251 30.7707 32.6667 24.4526C32.6667 17.0893 24.0187 6.73326 21.8313 4.22793C21.7064 4.0832 21.5246 4 21.3333 4C21.1421 4 20.9603 4.0832 20.8353 4.22793ZM17.3333 27.9999H13.3333C12.9652 27.9999 12.6667 27.7015 12.6667 27.3333V20.6666C12.6667 20.2984 12.9652 19.9999 13.3333 19.9999C13.7015 19.9999 14 20.2984 14 20.6666V26.6666H17.3333C17.7015 26.6666 18 26.9651 18 27.3333C18 27.7015 17.7015 27.9999 17.3333 27.9999ZM24 25.3333C24 26.806 22.8061 27.9999 21.3333 27.9999H19.3333C18.9652 27.9999 18.6667 27.7015 18.6667 27.3333V20.6666C18.6667 20.2984 18.9652 19.9999 19.3333 19.9999H21.3333C22.8061 19.9999 24 21.1938 24 22.6666V25.3333ZM25.3333 20.6666C25.3333 20.2984 25.6318 19.9999 26 19.9999C26.3682 19.9999 26.6667 20.2984 26.6667 20.6666V26.6666H30C30.3682 26.6666 30.6667 26.9651 30.6667 27.3333C30.6667 27.7015 30.3682 27.9999 30 27.9999H26C25.6318 27.9999 25.3333 27.7015 25.3333 27.3333V20.6666ZM24 9.99993V12.6666C24.505 12.6666 24.9667 12.9519 25.1926 13.4036C25.4184 13.8554 25.3697 14.3959 25.0667 14.7999L22.4 18.3559C22.1488 18.693 21.7529 18.8914 21.3325 18.8907C20.9121 18.8901 20.5168 18.6905 20.2667 18.3526L17.6 14.8026C17.2954 14.3986 17.2457 13.8569 17.4718 13.4042C17.6979 12.9516 18.1607 12.6658 18.6667 12.6666V9.99993C18.6667 9.26355 19.2636 8.6666 20 8.6666H22.6667C23.4031 8.6666 24 9.26355 24 9.99993Z" fill="#004EBA"/>
</g>
</g>
</g>
</g>
</g>
</g>
</g>
</g>
</g>
</g>
</g>
</g>
<defs>
<clipPath id="clip0_0_1">
<rect width="1440" height="3923" fill="white" transform="translate(-674 -1713)"/>
</clipPath>
<clipPath id="clip1_0_1">
<rect width="626" height="125" fill="white" transform="translate(-614 -32)"/>
</clipPath>
<clipPath id="clip2_0_1">
<rect width="40" height="40" fill="white"/>
</clipPath>
</defs>
</svg>
