<svg width="28" height="28" viewBox="0 0 28 28" fill="none" xmlns="http://www.w3.org/2000/svg">
<g clip-path="url(#clip0_2824_113200)">
<path d="M17.496 4.16424C17.496 6.09119 15.9284 7.66052 13.9997 7.66052C12.071 7.66052 10.5034 6.09292 10.5034 4.16424C10.5034 2.23556 12.0727 0.667969 13.9997 0.667969C15.9266 0.667969 17.496 2.2373 17.496 4.16424Z" fill="#02C1E0"/>
<path d="M19.1924 27.0295C18.9893 27.2517 18.6994 27.3628 18.4147 27.3263C18.2012 27.2985 18.0432 27.1961 17.9321 27.0121C17.755 26.7187 17.6995 26.2118 17.7724 25.5504C17.8679 24.6807 18.1803 23.5315 18.7011 22.1323C18.7428 22.0194 18.7115 21.8927 18.623 21.8128L16.6162 19.9935L18.656 17.4121C19.2931 17.669 21.345 18.6395 21.8624 20.6063C22.3363 22.4013 21.437 24.5626 19.1924 27.0295Z" fill="#02C1E0"/>
<path d="M10.2502 25.5506C10.3231 26.212 10.2675 26.7189 10.0904 27.0123C9.98107 27.1946 9.8231 27.297 9.60784 27.3265C9.32487 27.3647 9.03322 27.2536 8.83011 27.0297C6.58722 24.5629 5.68798 22.4033 6.15843 20.6117C6.41189 19.6465 7.0542 18.8046 8.06628 18.1119C8.59923 17.7456 9.10266 17.52 9.3648 17.4141L11.4046 19.9955L9.39952 21.8131C9.31098 21.8929 9.27973 22.0196 9.3214 22.1325C9.84219 23.5317 10.1547 24.6809 10.2502 25.5506Z" fill="#02C1E0"/>
<path d="M18.2671 15.3672V16.9626L16.0763 19.7349H11.9499L9.75732 16.9608V15.3672H18.2671Z" fill="#02C1E0"/>
<path d="M24.3637 15.223C24.3238 15.6049 24.1172 15.9452 23.7961 16.1552C23.2961 16.4816 22.6278 16.4122 22.2042 15.9903L18.7669 12.5531C18.6836 12.4697 18.5569 12.4437 18.4475 12.4888C18.3381 12.534 18.267 12.6416 18.267 12.7597V14.7821H9.75715V12.7597C9.75715 12.6416 9.68598 12.534 9.57661 12.4888C9.46724 12.4437 9.34052 12.468 9.25719 12.5531L5.79737 16.0129C5.37552 16.4347 4.70543 16.5042 4.20547 16.1778C3.88431 15.9678 3.676 15.6275 3.6378 15.2456C3.59788 14.8637 3.73155 14.4887 4.00236 14.2161L8.25726 9.96125C9.36308 8.85542 10.8335 8.24609 12.3993 8.24609H15.6196C17.182 8.24609 18.6523 8.85369 19.7582 9.95951L23.9992 14.1953C24.27 14.4661 24.4037 14.8411 24.3637 15.223Z" fill="#02C1E0"/>
</g>
<defs>
<clipPath id="clip0_2824_113200">
<rect width="27.4286" height="27.4286" fill="white" transform="translate(0.285645 0.285156)"/>
</clipPath>
</defs>
</svg>
