<svg width="20" height="21" viewBox="0 0 20 21" fill="none" xmlns="http://www.w3.org/2000/svg">
<path fill-rule="evenodd" clip-rule="evenodd" d="M10.0007 3.00065C5.85851 3.00065 2.50065 6.35851 2.50065 10.5007C2.50065 14.6428 5.85851 18.0006 10.0007 18.0006C14.1428 18.0006 17.5006 14.6428 17.5006 10.5007C17.5006 6.35851 14.1428 3.00065 10.0007 3.00065ZM0.833984 10.5007C0.833984 5.43804 4.93804 1.33398 10.0007 1.33398C15.0633 1.33398 19.1673 5.43804 19.1673 10.5007C19.1673 15.5633 15.0633 19.6673 10.0007 19.6673C4.93804 19.6673 0.833984 15.5633 0.833984 10.5007ZM9.16732 7.16732C9.16732 6.70708 9.54041 6.33398 10.0007 6.33398H10.009C10.4692 6.33398 10.8423 6.70708 10.8423 7.16732C10.8423 7.62755 10.4692 8.00065 10.009 8.00065H10.0007C9.54041 8.00065 9.16732 7.62755 9.16732 7.16732ZM10.0007 9.66732C10.4609 9.66732 10.834 10.0404 10.834 10.5007V13.834C10.834 14.2942 10.4609 14.6673 10.0007 14.6673C9.54041 14.6673 9.16732 14.2942 9.16732 13.834V10.5007C9.16732 10.0404 9.54041 9.66732 10.0007 9.66732Z" fill="#004EBA"/>
</svg>
