<svg width="24" height="24" viewBox="0 0 24 24" fill="none" xmlns="http://www.w3.org/2000/svg">
<path d="M20.9697 5.91391C20.9346 5.53211 20.6848 5.20311 20.3259 5.06841L12.4574 2.11571C12.3677 2.07081 12.272 2.04061 12.1725 2.02401C11.9559 1.98011 11.7287 2.01721 11.5296 2.12061L3.67393 5.06841C3.31493 5.20311 3.06513 5.53211 3.03013 5.91391C3.01943 6.03011 2.08973 17.5312 11.4371 21.8361C11.4469 21.8429 11.4576 21.8498 11.4683 21.8556C11.6263 21.9523 11.8057 22.0002 11.9853 22.0002C12.0126 22.0002 12.0399 21.9992 12.0673 21.9973C12.2292 21.9866 12.3902 21.9368 12.5336 21.8498C21.9121 17.5556 20.9805 6.03111 20.9697 5.91391ZM16.7226 9.69161L12.4433 14.1662C12.2573 14.3605 12.0009 14.4719 11.7319 14.4748C11.728 14.4748 11.7246 14.4748 11.7207 14.4748C11.4556 14.4748 11.2012 14.3693 11.0137 14.1818L9.01373 12.1818C8.62313 11.7912 8.62313 11.1584 9.01373 10.7677C9.40433 10.377 10.0371 10.3771 10.4278 10.7677L11.7047 12.045L15.2775 8.30871C15.6588 7.90931 16.2936 7.89561 16.6911 8.27751C17.0902 8.65941 17.1044 9.29221 16.7226 9.69161Z" fill="#004EBA"/>
</svg>
