<svg width="16" height="17" viewBox="0 0 16 17" fill="none" xmlns="http://www.w3.org/2000/svg">
<path fill-rule="evenodd" clip-rule="evenodd" d="M5.44105 1.16602H10.5591C10.9105 1.166 11.2137 1.16599 11.4634 1.1864C11.727 1.20793 11.9891 1.25547 12.2414 1.384C12.6177 1.57575 12.9237 1.88171 13.1154 2.25804C13.244 2.51029 13.2915 2.77243 13.313 3.036C13.3334 3.28572 13.3334 3.5889 13.3334 3.94034V13.0584C13.3334 13.4098 13.3334 13.713 13.313 13.9627C13.2915 14.2263 13.244 14.4884 13.1154 14.7407C12.9237 15.117 12.6177 15.423 12.2414 15.6147C11.9891 15.7432 11.727 15.7908 11.4634 15.8123C11.2137 15.8327 10.9106 15.8327 10.5591 15.8327H5.44104C5.08961 15.8327 4.78644 15.8327 4.53673 15.8123C4.27317 15.7908 4.01102 15.7432 3.75877 15.6147C3.38244 15.423 3.07648 15.117 2.88474 14.7407C2.75621 14.4884 2.70866 14.2263 2.68713 13.9627C2.66673 13.713 2.66674 13.4098 2.66675 13.0584V3.94032C2.66674 3.58889 2.66673 3.28571 2.68713 3.036C2.70866 2.77243 2.75621 2.51029 2.88474 2.25804C3.07648 1.88171 3.38244 1.57575 3.75877 1.384C4.01102 1.25547 4.27317 1.20793 4.53673 1.1864C4.78645 1.16599 5.08962 1.166 5.44105 1.16602ZM4.64531 2.5153C4.4642 2.5301 4.39705 2.55522 4.36409 2.57201C4.23865 2.63593 4.13666 2.73792 4.07275 2.86336C4.05595 2.89632 4.03083 2.96347 4.01603 3.14457C4.0006 3.33347 4.00008 3.58165 4.00008 3.96602V13.0327C4.00008 13.4171 4.0006 13.6652 4.01603 13.8541C4.03083 14.0352 4.05595 14.1024 4.07275 14.1353C4.13666 14.2608 4.23865 14.3628 4.36409 14.4267C4.39705 14.4435 4.4642 14.4686 4.64531 14.4834C4.8342 14.4988 5.08238 14.4994 5.46675 14.4994H10.5334C10.9178 14.4994 11.166 14.4988 11.3549 14.4834C11.536 14.4686 11.6031 14.4435 11.6361 14.4267C11.7615 14.3628 11.8635 14.2608 11.9274 14.1353C11.9442 14.1024 11.9693 14.0352 11.9841 13.8541C11.9996 13.6652 12.0001 13.4171 12.0001 13.0327V3.96602C12.0001 3.58165 11.9996 3.33347 11.9841 3.14457C11.9693 2.96347 11.9442 2.89632 11.9274 2.86336C11.8635 2.73792 11.7615 2.63593 11.6361 2.57201C11.6031 2.55522 11.536 2.5301 11.3549 2.5153C11.166 2.49987 10.9178 2.49935 10.5334 2.49935H5.46675C5.08238 2.49935 4.8342 2.49987 4.64531 2.5153ZM7.00008 12.166C7.00008 11.6137 7.4478 11.166 8.00008 11.166C8.55237 11.166 9.00008 11.6137 9.00008 12.166C9.00008 12.7183 8.55237 13.166 8.00008 13.166C7.4478 13.166 7.00008 12.7183 7.00008 12.166Z" fill="#6B7280"/>
</svg>
