<svg width="30" height="30" viewBox="0 0 30 30" fill="none" xmlns="http://www.w3.org/2000/svg">
<g clip-path="url(#clip0_5818_138867)">
<path d="M4.04771 20.7148C3.25873 20.7148 2.61914 21.3544 2.61914 22.1434C2.61914 22.4064 2.83234 22.6196 3.09533 22.6196C3.35832 22.6196 3.57152 22.4064 3.57152 22.1434C3.57152 21.8804 3.78472 21.6672 4.04771 21.6672C4.3107 21.6672 4.5239 21.454 4.5239 21.191C4.5239 20.928 4.3107 20.7148 4.04771 20.7148Z" fill="white"/>
<path d="M8.75679 23.7532C8.21413 23.6515 7.6787 23.5144 7.15393 23.3427C7.62581 22.1316 7.34856 20.7564 6.44423 19.8227C5.5399 18.889 4.17436 18.5679 2.9487 19.0008C2.97346 16.7794 5.07727 14.3156 8.45679 12.5108C8.6806 12.0347 8.92346 11.5585 9.1806 11.0918C4.49679 13.217 1.70346 16.4927 2.02584 19.4994C0.997275 20.2824 0.514861 21.5899 0.788431 22.8533C1.062 24.1167 2.04211 25.1076 3.30244 25.3949C4.56276 25.6823 5.8755 25.2141 6.66965 24.1942C7.66537 24.5256 8.69407 24.7482 9.73774 24.858C9.37987 24.5184 9.05169 24.1488 8.75679 23.7532ZM4.04727 24.5247C2.7323 24.5247 1.66632 23.4587 1.66632 22.1437C1.66632 20.8287 2.7323 19.7627 4.04727 19.7627C5.36223 19.7627 6.42822 20.8287 6.42822 22.1437C6.42665 23.458 5.36158 24.5231 4.04727 24.5247Z" fill="white"/>
<path d="M28.6764 13.2392C29.5465 12.2697 29.4719 10.7799 28.5093 9.90224C27.5467 9.02452 26.0564 9.08736 25.1712 10.043C24.0078 9.55299 22.7811 9.22949 21.5273 9.08203C21.7464 9.42965 21.9654 9.78679 22.1845 10.1487C23.0379 10.2939 23.8726 10.5334 24.6731 10.863C24.5763 11.1204 24.5254 11.3928 24.5226 11.6677C24.5242 12.9821 25.5892 14.0471 26.9035 14.0487C27.2415 14.0477 27.5752 13.9739 27.8821 13.8325C27.9116 13.9235 27.9421 14.013 27.9654 14.1106C28.3892 15.963 27.2131 18.0916 24.8321 19.9201C24.7425 20.4148 24.6103 20.9007 24.4369 21.3725C27.7654 19.182 29.4607 16.3773 28.8892 13.8963C28.8367 13.6717 28.7655 13.4519 28.6764 13.2392ZM25.475 11.6677C25.475 10.8788 26.1146 10.2392 26.9035 10.2392C27.6925 10.2392 28.3321 10.8788 28.3321 11.6677C28.3321 12.4567 27.6925 13.0963 26.9035 13.0963C26.1146 13.0963 25.475 12.4567 25.475 11.6677Z" fill="white"/>
<path d="M14.9993 7.85742V10.2384C14.9993 10.5014 14.7861 10.7146 14.5231 10.7146H14.0469L15.9516 13.2527L17.8564 10.7146H17.3802C17.1172 10.7146 16.904 10.5014 16.904 10.2384V7.85742H14.9993Z" fill="white"/>
<path d="M15.5953 3.73507C14.033 5.5246 7.85583 12.9217 7.85583 18.1813C7.81408 22.6942 11.4382 26.3867 15.9511 26.4294C20.464 26.3867 24.0881 22.6942 24.0463 18.1813C24.0463 12.9217 17.8692 5.5246 16.3068 3.73507C16.2175 3.63169 16.0877 3.57227 15.9511 3.57227C15.8145 3.57227 15.6846 3.63169 15.5953 3.73507ZM13.0939 20.7151H10.2368C9.97379 20.7151 9.76059 20.5019 9.76059 20.2389V15.477C9.76059 15.214 9.97379 15.0008 10.2368 15.0008C10.4998 15.0008 10.713 15.214 10.713 15.477V19.7627H13.0939C13.3569 19.7627 13.5701 19.9759 13.5701 20.2389C13.5701 20.5019 13.3569 20.7151 13.0939 20.7151ZM17.8558 18.8103C17.8558 19.8623 17.003 20.7151 15.9511 20.7151H14.5225C14.2595 20.7151 14.0463 20.5019 14.0463 20.2389V15.477C14.0463 15.214 14.2595 15.0008 14.5225 15.0008H15.9511C17.003 15.0008 17.8558 15.8536 17.8558 16.9055V18.8103ZM18.8082 15.477C18.8082 15.214 19.0214 15.0008 19.2844 15.0008C19.5474 15.0008 19.7606 15.214 19.7606 15.477V19.7627H22.1415C22.4045 19.7627 22.6177 19.9759 22.6177 20.2389C22.6177 20.5019 22.4045 20.7151 22.1415 20.7151H19.2844C19.0214 20.7151 18.8082 20.5019 18.8082 20.2389V15.477ZM17.8558 7.85793V9.76269C18.2166 9.76269 18.5463 9.9665 18.7077 10.2892C18.869 10.6118 18.8342 10.9979 18.6177 11.2865L16.713 13.8265C16.5335 14.0673 16.2508 14.209 15.9505 14.2085C15.6502 14.208 15.3678 14.0655 15.1892 13.8241L13.2844 11.2884C13.0668 10.9998 13.0313 10.6129 13.1928 10.2896C13.3543 9.96623 13.6849 9.76215 14.0463 9.76269V7.85793C14.0463 7.33194 14.4727 6.90555 14.9987 6.90555H16.9034C17.4294 6.90555 17.8558 7.33194 17.8558 7.85793Z" fill="white"/>
<path d="M15.9524 15.9531H15V19.7626H15.9524C16.4784 19.7626 16.9048 19.3363 16.9048 18.8103V16.9055C16.9048 16.3795 16.4784 15.9531 15.9524 15.9531Z" fill="white"/>
</g>
<defs>
<clipPath id="clip0_5818_138867">
<rect width="28.5714" height="28.5714" fill="white" transform="translate(0.714844 0.714844)"/>
</clipPath>
</defs>
</svg>
