<svg width="33" height="32" viewBox="0 0 33 32" fill="none" xmlns="http://www.w3.org/2000/svg">
<g clip-path="url(#clip0_5668_148860)">
<path d="M1.16537 22.7759C0.691621 22.8303 0.333496 23.2309 0.333496 23.7078V30.3578C0.333496 30.9121 0.817246 31.3521 1.37537 31.289C1.39787 31.2865 3.41912 31.0728 4.98662 31.6659V23.0528C3.15225 22.5609 1.26475 22.7646 1.16537 22.7759Z" fill="#007183"/>
<path d="M11.105 7.29411C12.5022 5.89692 12.5018 3.63536 11.105 2.23724C9.77373 0.905987 7.64623 0.845987 6.24311 2.05536C4.83936 0.845987 2.71186 0.905987 1.38123 2.23724C-0.0131445 3.63161 -0.0131445 5.90036 1.38123 7.29411L5.57998 11.4935C5.94554 11.8578 6.53704 11.8608 6.90561 11.4935L11.105 7.29411Z" fill="#007183"/>
<path d="M32.3331 2.18409C32.331 1.72996 32.0011 1.34996 31.5691 1.26834L24.9194 0.0183358C24.343 -0.0899767 23.8087 0.352523 23.8087 0.939711V6.4544C22.351 6.15909 20.9985 7.27427 20.9985 8.75021C20.9985 10.044 22.0473 11.0928 23.3412 11.0928C24.6349 11.0928 25.6837 10.044 25.6837 8.75021V2.0699L30.4584 2.96746V8.13896C29.0057 7.84827 27.662 8.9604 27.662 10.429C27.662 11.7189 28.7078 12.7646 29.9977 12.7646C31.2877 12.7646 32.3334 11.719 32.3334 10.429C32.3334 10.3403 32.3335 2.23852 32.3331 2.18409Z" fill="#007183"/>
<path d="M22.1857 3.22482C22.3695 2.74082 22.1262 2.19939 21.6422 2.01545C19.1382 1.06414 16.4569 0.826511 13.9198 1.2397C13.4087 1.32289 13.0619 1.80464 13.1452 2.3157C13.2283 2.8267 13.7098 3.17339 14.2212 3.09032C16.4332 2.73007 18.781 2.9342 20.9763 3.76832C21.4604 3.95207 22.0018 3.70876 22.1857 3.22482Z" fill="#007183"/>
<path d="M19.2337 28.7615C17.5466 29.1435 15.8111 29.1791 14.1678 28.9055C13.6572 28.8204 13.1742 29.1655 13.0891 29.6763C13.0039 30.187 13.3491 30.67 13.8598 30.755C15.7913 31.0767 17.7707 31.0152 19.6477 30.5903C20.1526 30.476 20.4693 29.9739 20.355 29.4689C20.2408 28.9639 19.7385 28.6475 19.2337 28.7615Z" fill="#007183"/>
<path d="M3.06704 11.3622C2.56785 11.2244 2.05154 11.517 1.91366 12.0161C1.55691 13.3069 1.37598 14.6479 1.37598 16.0021C1.37598 17.5435 1.60979 19.0636 2.07098 20.5201C2.22741 21.0141 2.75485 21.2871 3.24773 21.1307C3.74129 20.9745 4.01473 20.4476 3.85848 19.954C3.45535 18.6809 3.25091 17.3512 3.25091 16.0021C3.25091 14.8167 3.40898 13.6437 3.72085 12.5156C3.85885 12.0165 3.56604 11.5001 3.06704 11.3622Z" fill="#007183"/>
<path d="M29.5489 20.7854C30.0464 20.9287 30.566 20.6415 30.7092 20.1439C31.2444 18.2849 31.3968 16.3737 31.2228 14.5701C31.1731 14.0548 30.7155 13.6779 30.1996 13.727C29.6843 13.7766 29.3068 14.2347 29.3564 14.7501C29.5078 16.3203 29.377 17.9941 28.9074 19.6251C28.7642 20.1226 29.0514 20.6421 29.5489 20.7854Z" fill="#007183"/>
<path d="M10.6824 22.7759C10.5831 22.7646 8.69682 22.5609 6.86182 23.0528V31.6628C7.94994 31.2571 9.49119 31.1803 10.4718 31.289C11.0312 31.3509 11.5143 30.914 11.5143 30.3578V23.7078C11.5143 23.2309 11.1562 22.8303 10.6824 22.7759Z" fill="#007183"/>
<path d="M27.683 22.5436C27.5501 21.7377 27.1035 20.293 25.6008 19.458C25.1482 19.2066 24.5775 19.3695 24.326 19.822C24.0745 20.2747 24.2375 20.8454 24.69 21.0969C25.3377 21.4567 25.628 22.0459 25.7583 22.4981C24.3843 22.1346 23.2323 22.37 22.4626 23.1876C21.3353 24.3839 20.8582 26.5302 21.6976 28.5939C21.9733 29.2714 22.3926 29.9376 23.0164 30.6901C24.6323 32.6394 26.0439 31.8626 26.802 31.7476C27.5736 31.8653 28.9775 32.633 30.5876 30.6901C31.119 30.0492 31.5933 29.3616 31.9064 28.5939C32.7447 26.5331 32.2697 24.3865 31.1414 23.1876C30.3416 22.3381 29.129 22.1172 27.683 22.5436Z" fill="#007183"/>
<path d="M19.0791 12.4813C19.0791 10.9676 17.8473 9.73633 16.3335 9.73633C14.8198 9.73633 13.5879 10.9676 13.5879 12.4813C13.5879 13.9957 14.8198 15.227 16.3335 15.227C17.8473 15.227 19.0791 13.9957 19.0791 12.4813Z" fill="#007183"/>
<path d="M16.3337 15.2285C13.8655 15.2285 11.8574 17.2366 11.8574 19.7054V20.7479C11.8574 21.2329 12.2499 21.6266 12.7355 21.6266H16.3337H19.9318C20.4174 21.6266 20.8099 21.2329 20.8099 20.7479V19.7054C20.8099 17.2366 18.8018 15.2285 16.3337 15.2285Z" fill="#007183"/>
</g>
<defs>
<clipPath id="clip0_5668_148860">
<rect width="32" height="32" fill="white" transform="translate(0.333496)"/>
</clipPath>
</defs>
</svg>
