<svg width="167" height="48" viewBox="0 0 167 48" fill="none" xmlns="http://www.w3.org/2000/svg">
<path d="M32.6854 23.8733C33.2393 24.3321 33.5611 24.7923 33.909 25.4119C33.9666 25.1498 33.9666 25.1498 34.0253 24.8825C34.4833 23.8336 35.2705 23.2412 36.2997 22.727C38.6455 22.0816 41.227 22.1942 43.4548 23.1926C44.4958 23.8183 44.9176 24.7039 45.2809 25.8152C45.3895 26.5459 45.3964 27.2632 45.3924 28.0006C45.3948 28.2026 45.3973 28.4045 45.3998 28.6125C45.407 29.2515 45.409 29.8904 45.4101 30.5295C45.4135 31.1729 45.4181 31.8162 45.425 32.4595C45.429 32.8583 45.4309 33.2572 45.4305 33.6561C45.432 33.8359 45.4334 34.0158 45.4349 34.201C45.4351 34.359 45.4354 34.517 45.4357 34.6798C45.4634 35.1552 45.4634 35.1552 45.9012 35.6976C46.6186 35.6052 47.2811 35.5178 47.9688 35.2942C48.0371 35.4939 48.1053 35.6936 48.1756 35.8993C46.7279 36.757 45.5331 37.1479 43.8336 36.9077C42.9468 36.5931 42.3932 36.1783 41.766 35.4959C41.5753 35.6234 41.5753 35.6234 41.3807 35.7535C41.2136 35.864 41.0465 35.9745 40.8743 36.0883C40.626 36.2533 40.626 36.2533 40.3727 36.4216C39.0957 37.1983 37.427 37.0315 35.9766 36.9077C34.8841 36.5349 34.1239 35.8358 33.4955 34.8909C33.4955 34.7578 33.4955 34.6246 33.4955 34.4875C33.3678 34.5946 33.2401 34.7017 33.1086 34.8121C30.9376 36.5784 29.2762 37.1871 26.4586 36.9631C25.5016 36.8326 24.7617 36.4372 23.9844 35.8993C23.8517 35.814 23.7189 35.7287 23.5822 35.6409C22.2945 34.7057 21.4209 33.1873 21.0897 31.664C20.9191 28.9107 21.0479 26.6104 22.9401 24.405C25.6897 21.7792 29.6248 21.765 32.6854 23.8733ZM26.1102 24.0529C25.0819 25.4137 24.9833 26.7607 24.8115 28.4371C26.8584 28.4371 28.9053 28.4371 31.0143 28.4371C31.0143 26.7033 30.9282 25.2633 29.6316 23.9875C29.4738 23.8586 29.316 23.7296 29.1535 23.5967C29.0852 23.5302 29.017 23.4636 28.9467 23.3951C27.8577 23.2385 26.9378 23.2568 26.1102 24.0529ZM37.4684 23.6385C37.1593 24.0834 36.9541 24.5392 36.7391 25.0337C36.2679 25.9833 36.2679 25.9833 35.5502 26.269C34.9428 26.2186 34.9428 26.2186 34.1158 25.8152C34.3205 26.8801 34.5251 27.945 34.736 29.0421C31.4609 29.1087 28.1858 29.1752 24.8115 29.2438C24.8115 31.3907 25.0267 32.8367 26.5592 34.4056C27.6087 35.3362 28.6312 35.4032 30.0007 35.3636C31.3347 35.2094 32.2085 34.4718 33.0408 33.4767C33.3879 32.9153 33.4602 32.3684 33.5728 31.7296C33.7976 30.9152 34.2969 30.3941 34.9428 29.8489C35.632 29.4719 36.3491 29.1992 37.088 28.9287C38.847 28.2718 40.7863 27.4874 41.766 25.8152C41.8976 25.2052 41.8601 24.8442 41.766 24.2018C41.1934 23.6088 40.8517 23.4119 40.0198 23.295C39.6432 23.3009 39.6432 23.3009 39.259 23.3068C39.0068 23.3071 38.7547 23.3074 38.4949 23.3076C37.8555 23.3444 37.8555 23.3444 37.4684 23.6385ZM40.7451 28.3615C40.0472 28.8258 39.3397 29.2374 38.5999 29.6346C37.6855 30.1728 37.0886 30.6366 36.8037 31.664C36.5986 33.1043 36.742 34.1214 37.6307 35.2942C38.3499 35.645 39.1188 35.5851 39.9051 35.4959C40.9137 35.0149 41.2061 34.2372 41.5941 33.2629C41.8968 32.2228 41.8524 31.1988 41.8177 30.1262C41.8139 29.9044 41.8102 29.6826 41.8063 29.4542C41.7967 28.9133 41.7832 28.3728 41.766 27.832C41.3768 27.832 41.0546 28.1545 40.7451 28.3615Z" fill="#F7FBFF"/>
<path d="M9.51105 15.9336C9.6134 19.9269 9.6134 19.9269 9.71781 24.0008C10.1272 23.668 10.5366 23.3353 10.9584 22.9924C12.2878 22.3011 14.1987 22.348 15.6348 22.7348C16.8789 23.3004 17.5368 24.1767 18.0633 25.4034C18.3058 26.1624 18.2862 26.9239 18.2863 27.713C18.2904 27.9803 18.2904 27.9803 18.2946 28.253C18.303 28.8188 18.3075 29.3845 18.3114 29.9504C18.3163 30.5162 18.3221 31.082 18.3303 31.6478C18.3353 31.9987 18.3384 32.3495 18.3394 32.7004C18.3554 34.4461 18.3554 34.4461 19.2289 35.9C19.57 36.0426 19.9144 36.1782 20.2627 36.3033C20.2627 36.4364 20.2627 36.5696 20.2627 36.7067C17.8064 36.7067 15.35 36.7067 12.8192 36.7067C12.8192 36.507 12.8192 36.3074 12.8192 36.1017C13.4333 36.0018 13.4333 36.0018 14.0598 35.9C14.5195 34.8122 14.5399 33.8299 14.5428 32.6731C14.5442 32.4807 14.5456 32.2883 14.547 32.0901C14.5491 31.6846 14.55 31.2792 14.55 30.8737C14.5509 30.2549 14.5584 29.6364 14.5662 29.0176C14.5674 28.6227 14.5683 28.2277 14.5686 27.8328C14.5716 27.6487 14.5746 27.4646 14.5777 27.275C14.5694 26.1514 14.4284 25.4894 13.6463 24.6059C12.7717 24.0371 11.9855 24.0427 10.9584 24.2025C10.2665 24.7121 9.99078 25.0172 9.71781 25.8159C9.69795 26.1118 9.68926 26.4085 9.68778 26.7049C9.68646 26.884 9.68514 27.063 9.68378 27.2475C9.68355 27.4404 9.68332 27.6333 9.68308 27.832C9.68239 28.0306 9.6817 28.2293 9.681 28.434C9.67995 28.8543 9.67946 29.2745 9.6795 29.6948C9.67904 30.3379 9.67529 30.981 9.67137 31.6241C9.67076 32.0323 9.67035 32.4406 9.67016 32.8488C9.66867 33.0412 9.66719 33.2337 9.66566 33.432C9.66629 33.6117 9.66693 33.7913 9.66758 33.9765C9.66729 34.1341 9.66699 34.2917 9.66669 34.4541C9.72562 34.9584 9.8456 35.2745 10.1313 35.6983C10.7603 35.9589 10.7603 35.9589 11.3719 36.1017C11.3719 36.3013 11.3719 36.501 11.3719 36.7067C8.91557 36.7067 6.45924 36.7067 3.92847 36.7067C3.92847 36.507 3.92847 36.3074 3.92847 36.1017C4.54255 36.0018 4.54255 36.0018 5.16904 35.9C5.5589 34.9366 5.64286 34.0676 5.63935 33.044C5.64041 32.8835 5.64147 32.723 5.64256 32.5576C5.64542 32.0302 5.64523 31.5028 5.64476 30.9753C5.64556 30.6077 5.64646 30.2401 5.64744 29.8725C5.64898 29.1037 5.64892 28.3349 5.64783 27.5661C5.64663 26.58 5.65015 25.594 5.65494 24.6079C5.65798 23.8495 5.65816 23.0912 5.65752 22.3329C5.65762 21.9692 5.65871 21.6055 5.66079 21.2418C5.66333 20.7344 5.66195 20.2271 5.65955 19.7197C5.66113 19.5691 5.66271 19.4186 5.66433 19.2634C5.65762 18.4628 5.65762 18.4628 5.30234 17.7603C4.85811 17.4817 4.4476 17.4138 3.92847 17.3454C3.92847 17.1457 3.92847 16.946 3.92847 16.7403C5.74669 16.2437 7.62148 15.9336 9.51105 15.9336Z" fill="#F7FBFF"/>
<path d="M73.4007 15.9336C73.503 19.9269 73.503 19.9269 73.6075 24.0008C74.0168 23.668 74.4262 23.3353 74.848 22.9924C76.1774 22.3011 78.0884 22.348 79.5244 22.7348C80.7685 23.3004 81.4265 24.1767 81.9529 25.4034C82.1954 26.1624 82.1759 26.9239 82.176 27.713C82.1801 27.9803 82.1801 27.9803 82.1843 28.253C82.1927 28.8188 82.1972 29.3845 82.201 29.9504C82.206 30.5162 82.2118 31.082 82.22 31.6478C82.225 31.9987 82.2281 32.3495 82.229 32.7004C82.245 34.4461 82.245 34.4461 83.1185 35.9C83.4597 36.0426 83.8041 36.1782 84.1523 36.3033C84.1523 36.4364 84.1523 36.5696 84.1523 36.7067C81.696 36.7067 79.2397 36.7067 76.7089 36.7067C76.7089 36.507 76.7089 36.3074 76.7089 36.1017C77.323 36.0018 77.323 36.0018 77.9495 35.9C78.4091 34.8122 78.4296 33.8299 78.4325 32.6731C78.4338 32.4807 78.4352 32.2883 78.4366 32.0901C78.4387 31.6846 78.4397 31.2792 78.4396 30.8737C78.4405 30.2549 78.448 29.6364 78.4559 29.0176C78.4571 28.6227 78.4579 28.2277 78.4583 27.8328C78.4613 27.6487 78.4642 27.4646 78.4673 27.275C78.4591 26.1514 78.3181 25.4894 77.5359 24.6059C76.6613 24.0371 75.8752 24.0427 74.848 24.2025C74.1562 24.7121 73.8804 25.0172 73.6075 25.8159C73.5876 26.1118 73.5789 26.4085 73.5774 26.7049C73.5761 26.884 73.5748 27.063 73.5734 27.2475C73.5732 27.4404 73.573 27.6333 73.5727 27.832C73.572 28.0306 73.5714 28.2293 73.5706 28.434C73.5696 28.8543 73.5691 29.2745 73.5691 29.6948C73.5687 30.3379 73.5649 30.981 73.561 31.6241C73.5604 32.0323 73.56 32.4406 73.5598 32.8488C73.5583 33.0412 73.5568 33.2337 73.5553 33.432C73.5559 33.6117 73.5566 33.7913 73.5572 33.9765C73.5569 34.1341 73.5566 34.2917 73.5563 34.4541C73.6153 34.9584 73.7352 35.2745 74.021 35.6983C74.65 35.9589 74.65 35.9589 75.2616 36.1017C75.2616 36.3013 75.2616 36.501 75.2616 36.7067C72.8052 36.7067 70.3489 36.7067 67.8181 36.7067C67.8181 36.507 67.8181 36.3074 67.8181 36.1017C68.0143 36.0559 68.2104 36.0101 68.4126 35.963C69.077 35.7663 69.077 35.7663 69.3023 35.279C69.5165 34.5364 69.5316 33.8317 69.529 33.0669C69.5301 32.9064 69.5311 32.7459 69.5322 32.5806C69.5351 32.0521 69.5349 31.5236 69.5344 30.995C69.5352 30.6272 69.5361 30.2593 69.5371 29.8914C69.5386 29.1214 69.5386 28.3514 69.5375 27.5813C69.5363 26.5936 69.5398 25.606 69.5446 24.6183C69.5476 23.8591 69.5478 23.1 69.5472 22.3408C69.5473 21.9765 69.5484 21.6122 69.5504 21.248C69.553 20.7396 69.5516 20.2313 69.5492 19.7229C69.5508 19.572 69.5524 19.4211 69.554 19.2657C69.5474 18.4638 69.5474 18.4638 69.192 17.7601C68.7477 17.4818 68.3371 17.4138 67.8181 17.3454C67.8181 17.1457 67.8181 16.946 67.8181 16.7403C69.6363 16.2437 71.5111 15.9336 73.4007 15.9336Z" fill="#F7FBFF"/>
<path d="M54.5853 16.1361C54.5869 16.3693 54.5886 16.6025 54.5903 16.8427C54.6063 19.0388 54.6245 21.2348 54.6447 23.4308C54.6551 24.5599 54.6646 25.6889 54.6725 26.818C54.6801 27.9073 54.6897 28.9966 54.7007 30.0858C54.7045 30.5017 54.7076 30.9176 54.71 31.3335C54.7135 31.9154 54.7195 32.4972 54.7261 33.079C54.7266 33.2515 54.727 33.424 54.7275 33.6017C54.7298 33.7606 54.7321 33.9196 54.7345 34.0833C54.7356 34.2209 54.7367 34.3585 54.7379 34.5002C54.8039 34.9782 54.9378 35.2939 55.2056 35.6991C55.8345 35.9597 55.8345 35.9597 56.4461 36.1025C56.4461 36.3021 56.4461 36.5018 56.4461 36.7075C53.9898 36.7075 51.5335 36.7075 49.0027 36.7075C49.0027 36.5079 49.0027 36.3082 49.0027 36.1025C49.1989 36.0526 49.395 36.0026 49.5971 35.9512C50.2367 35.7651 50.2367 35.7651 50.4871 35.3814C50.7299 34.6817 50.7143 34.0007 50.7103 33.2706C50.711 33.1078 50.7117 32.9451 50.7125 32.7774C50.7143 32.2403 50.7131 31.7032 50.7117 31.166C50.712 30.7928 50.7124 30.4197 50.7129 30.0465C50.7135 29.2649 50.7126 28.4834 50.7107 27.7018C50.7083 26.6985 50.7097 25.6952 50.7122 24.6919C50.7137 23.9216 50.7132 23.1514 50.7121 22.3811C50.7118 22.0111 50.7122 21.641 50.7131 21.271C50.7142 20.7548 50.7126 20.2387 50.7103 19.7225C50.7111 19.5687 50.712 19.4149 50.7128 19.2564C50.7349 18.4107 50.7349 18.4107 50.2433 17.7495C49.8322 17.6693 49.4184 17.6007 49.0027 17.5478C49.0027 17.2816 49.0027 17.0154 49.0027 16.7411C49.8552 16.6004 50.7082 16.4625 51.5614 16.3252C51.926 16.2649 51.926 16.2649 52.298 16.2034C52.5298 16.1664 52.7617 16.1293 53.0006 16.0912C53.215 16.0563 53.4294 16.0215 53.6503 15.9856C54.1717 15.9344 54.1717 15.9344 54.5853 16.1361Z" fill="#F7FBFF"/>
<path d="M62.2355 17.9492C62.5084 17.9492 62.7814 17.9492 63.0626 17.9492C63.0626 19.5465 63.0626 21.1438 63.0626 22.7896C63.9496 22.7896 64.8366 22.7896 65.7505 22.7896C65.8528 23.1889 65.8528 23.1889 65.9572 23.5963C65.002 23.5963 64.0468 23.5963 63.0626 23.5963C63.0819 25.1326 63.1038 26.6688 63.1282 28.205C63.1361 28.7277 63.1433 29.2504 63.1498 29.7731C63.1592 30.5241 63.1712 31.275 63.1837 32.0259C63.1861 32.26 63.1885 32.494 63.1909 32.7352C63.1951 32.9531 63.1992 33.1711 63.2034 33.3957C63.2062 33.5874 63.2089 33.7791 63.2117 33.9766C63.2713 34.5042 63.4083 34.8397 63.6828 35.2938C64.6822 35.3106 65.5927 35.2842 66.5775 35.0921C66.6458 35.3583 66.714 35.6245 66.7843 35.8988C66.3928 36.0638 66.0007 36.2274 65.6083 36.3904C65.39 36.4816 65.1717 36.5729 64.9468 36.6669C63.6245 37.1605 62.2954 37.3385 60.9432 36.882C60.1809 36.375 59.7097 35.7835 59.4239 34.92C59.3249 34.4038 59.3161 33.9211 59.3174 33.3957C59.3174 33.1777 59.3174 32.9598 59.3174 32.7352C59.3185 32.5011 59.3195 32.2671 59.3206 32.0259C59.3209 31.7853 59.3212 31.5447 59.3215 31.2968C59.3227 30.5283 59.3253 29.7598 59.3279 28.9912C59.329 28.4702 59.3299 27.9492 59.3307 27.4282C59.333 26.1509 59.3365 24.8736 59.3408 23.5963C58.7268 23.5963 58.1127 23.5963 57.48 23.5963C57.48 23.3966 57.48 23.1969 57.48 22.9912C57.7273 22.8789 57.9747 22.7666 58.2295 22.6509C60.2641 21.6394 61.4461 20.0327 62.2355 17.9492Z" fill="#F7FBFF"/>
<path d="M121.163 22.5873C121.64 22.5873 122.118 22.5873 122.61 22.5873C122.678 23.3194 122.746 24.0515 122.817 24.8058C122.928 24.6228 123.038 24.4397 123.153 24.2512C123.681 23.4784 124.36 22.9444 125.283 22.6708C127.416 22.255 129.746 22.3443 131.628 23.4421C133.201 24.5751 134.034 26.1608 134.395 28.0327C134.567 30.6234 134.48 32.8976 132.715 34.9907C131.266 36.414 129.89 36.7744 127.882 36.8058C126.523 36.7889 125.195 36.6931 124.057 35.8982C123.443 35.1994 123.443 35.1994 122.817 34.4865C122.748 36.8824 122.68 39.2784 122.61 41.747C122.132 41.747 121.655 41.747 121.163 41.747C121.163 35.4243 121.163 29.1016 121.163 22.5873ZM124.119 24.9531C122.583 26.7715 122.419 28.774 122.568 31.0551C122.714 32.4715 123.179 33.532 124.251 34.4991C125.802 35.7289 127.536 35.6415 129.433 35.4949C130.735 35.1778 131.593 34.3442 132.328 33.2764C133.33 31.4852 133.449 29.3341 132.922 27.3772C132.392 25.8681 131.477 24.7707 130.053 23.9991C128.128 23.373 125.58 23.5022 124.119 24.9531Z" fill="#F7FBFF"/>
<path d="M88.2874 12.3008C88.6383 12.9852 88.2275 13.6838 88.0031 14.3806C87.37 16.3808 86.8053 18.4281 87.4991 20.4941C87.957 21.0793 88.1943 21.3172 88.9077 21.5781C90.2294 21.6874 91.5289 21.5689 92.8362 21.3764C92.4154 21.802 92.0196 22.1761 91.5181 22.5109C90.0672 23.7913 89.2702 25.6814 89.0523 27.5594C89.0243 28.1092 89.0178 28.6537 89.024 29.2041C89.0253 29.3976 89.0265 29.591 89.0278 29.7903C89.0732 31.8088 89.4448 33.6784 90.7686 35.2924C90.7003 35.4255 90.6321 35.5586 90.5618 35.6957C89.0102 34.2718 87.6547 32.905 86.6333 31.0571C86.5384 30.886 86.4435 30.715 86.3458 30.5387C84.2553 26.4236 84.1982 21.6416 85.6665 17.3255C87.024 13.5331 87.024 13.5331 88.2874 12.3008Z" fill="#43B02A"/>
<path d="M116.27 23.1387C117.034 23.7107 117.545 24.307 117.854 25.2114C117.877 25.5279 117.889 25.8451 117.894 26.1623C117.897 26.3548 117.901 26.5473 117.904 26.7456C117.907 26.9529 117.91 27.1603 117.913 27.3739C117.918 27.6935 117.918 27.6935 117.924 28.0196C117.94 28.9326 117.954 29.8457 117.969 30.7588C117.979 31.4247 117.991 32.0905 118.003 32.7563C118.006 32.9641 118.009 33.1718 118.012 33.3859C118.015 33.5777 118.019 33.7696 118.022 33.9672C118.025 34.1365 118.027 34.3057 118.03 34.4801C118.035 34.9054 118.035 34.9054 118.268 35.2954C118.748 35.3776 119.231 35.4456 119.715 35.4971C119.724 35.8331 119.724 36.1695 119.715 36.5055C119.374 36.8385 118.982 36.7654 118.514 36.7828C117.52 36.7731 117.52 36.7731 116.911 36.266C116.627 35.7244 116.478 35.2924 116.407 34.6904C116.271 34.8734 116.134 35.0564 115.994 35.245C115.247 36.1059 114.357 36.6157 113.205 36.781C112.65 36.808 112.103 36.8075 111.548 36.7954C111.27 36.7976 111.27 36.7976 110.985 36.7998C109.619 36.7872 108.384 36.6407 107.297 35.7555C107.203 35.637 107.109 35.5184 107.012 35.3963C106.915 35.2777 106.817 35.1592 106.716 35.037C106.076 34.0871 106.191 32.9566 106.276 31.8669C106.636 30.7724 107.384 30.0809 108.343 29.4467C109.105 29.1045 109.777 28.9691 110.611 28.8929C110.844 28.8696 111.078 28.8463 111.318 28.8223C111.807 28.7765 112.295 28.7313 112.784 28.6868C114.776 28.4958 114.776 28.4958 116.407 27.4299C116.537 26.5894 116.492 25.8257 116.175 25.0349C115.613 24.4142 114.987 24.0637 114.136 23.9433C113.685 23.9202 113.24 23.9187 112.789 23.9257C112.561 23.9222 112.561 23.9222 112.329 23.9186C111.025 23.9254 110.173 24.2417 109.222 25.1484C108.657 25.8515 108.512 26.5619 108.343 27.4299C107.934 27.4299 107.525 27.4299 107.103 27.4299C106.954 26.0984 107.34 25.0898 108.137 24.0013C110.152 22.2667 113.88 21.8338 116.27 23.1387ZM115.616 29.0344C115.057 29.2961 114.585 29.3353 113.968 29.3884C113.736 29.4107 113.503 29.4331 113.264 29.4561C112.778 29.5 112.292 29.5425 111.807 29.5838C110.243 29.737 108.822 29.905 107.723 31.1106C107.345 32.126 107.39 32.9425 107.762 33.9341C108.248 34.6536 108.795 35.1123 109.584 35.4971C112.33 35.7347 112.33 35.7347 114.753 34.6904C115.784 33.796 116.377 32.7914 116.614 31.4635C116.659 30.5867 116.651 29.7185 116.614 28.8416C116.014 28.7949 116.014 28.7949 115.616 29.0344Z" fill="#F7FBFF"/>
<path d="M158.449 23.1374C159.139 23.6556 159.642 24.2448 160.034 25.0092C160.058 25.3325 160.071 25.6566 160.076 25.9807C160.083 26.2835 160.083 26.2835 160.089 26.5924C160.092 26.8109 160.096 27.0294 160.099 27.2545C160.104 27.4777 160.108 27.701 160.112 27.931C160.126 28.6462 160.138 29.3613 160.15 30.0764C160.159 30.5604 160.168 31.0444 160.177 31.5284C160.199 32.7167 160.22 33.905 160.241 35.0933C160.787 35.2929 161.332 35.4926 161.895 35.6983C161.827 36.0311 161.758 36.3638 161.688 36.7067C160.989 36.7653 160.318 36.7921 159.62 36.7067C158.914 36.1187 158.691 35.5808 158.587 34.6899C158.45 34.8729 158.314 35.0559 158.173 35.2445C157.427 36.1054 156.537 36.6152 155.384 36.7805C154.83 36.8075 154.283 36.807 153.728 36.7949C153.449 36.7971 153.449 36.7971 153.165 36.7993C151.799 36.7867 150.564 36.6402 149.477 35.755C149.383 35.6365 149.289 35.5179 149.192 35.3958C149.094 35.2772 148.996 35.1587 148.895 35.0365C148.256 34.0874 148.369 32.9554 148.455 31.8664C148.897 30.5728 149.861 29.8657 151.043 29.228C152.086 28.7288 153.112 28.6837 154.257 28.6269C155.954 28.5364 157.149 28.3645 158.587 27.4294C158.757 26.5995 158.668 25.8168 158.354 25.0344C157.792 24.4137 157.167 24.0632 156.315 23.9428C155.865 23.9197 155.419 23.9182 154.968 23.9252C154.741 23.9217 154.741 23.9217 154.509 23.9181C153.205 23.9249 152.353 24.2412 151.402 25.1479C150.837 25.851 150.692 26.5614 150.523 27.4294C150.113 27.4294 149.704 27.4294 149.282 27.4294C149.134 26.0979 149.52 25.0893 150.316 24.0008C152.333 22.2648 156.057 21.8357 158.449 23.1374ZM157.781 28.9286C156.702 29.2832 155.66 29.3833 154.529 29.4588C152.281 29.5588 152.281 29.5588 150.342 30.5428C149.704 31.2932 149.635 31.8991 149.651 32.863C149.75 33.7843 150.156 34.3473 150.846 34.9546C152.106 35.8054 153.791 35.6242 155.278 35.4966C156.572 35.1926 157.467 34.3552 158.173 33.2781C158.966 31.8128 158.857 30.2557 158.793 28.6395C158.437 28.6395 158.113 28.809 157.781 28.9286Z" fill="#F7FBFF"/>
<path d="M101.469 23.0911C102.796 23.8497 103.8 24.9465 104.208 26.4188C104.234 26.9861 104.234 26.9861 104.208 27.4272C103.799 27.4272 103.389 27.4272 102.968 27.4272C102.926 27.2518 102.926 27.2518 102.883 27.0727C102.53 25.824 102.035 25.0913 100.9 24.402C99.5119 23.7144 97.5104 23.7668 96.0177 24.1302C94.752 24.6888 93.8555 25.7281 93.2886 26.9483C92.4949 29.1485 92.7702 31.1295 93.6634 33.276C94.1747 34.2239 94.9774 34.7625 95.9806 35.1526C97.4551 35.5106 99.207 35.5856 100.616 34.9651C102.094 34.066 102.614 32.8042 103.174 31.2592C103.584 31.2592 103.993 31.2592 104.415 31.2592C104.104 33.0176 103.564 34.2952 102.141 35.4945C100.283 36.7523 98.5727 36.9012 96.3513 36.7046C94.6825 36.3172 93.5288 35.5668 92.6037 34.1583C91.3345 31.9695 90.9546 29.6134 91.6345 27.1499C92.2561 25.4348 93.332 23.8398 95.0563 23.0215C97.0464 22.2177 99.5088 22.2141 101.469 23.0911Z" fill="#F7FBFF"/>
<path d="M142.873 18.1523C143.282 18.1523 143.692 18.1523 144.113 18.1523C144.113 19.6165 144.113 21.0807 144.113 22.5893C145.137 22.5893 146.16 22.5893 147.215 22.5893C147.215 22.9221 147.215 23.2549 147.215 23.5977C146.191 23.5977 145.168 23.5977 144.113 23.5977C144.122 25.134 144.137 26.6702 144.156 28.2064C144.162 28.7291 144.166 29.2519 144.169 29.7746C144.174 30.5256 144.183 31.2764 144.194 32.0273C144.194 32.2614 144.195 32.4955 144.195 32.7366C144.199 32.9546 144.203 33.1726 144.207 33.3972C144.209 33.5888 144.211 33.7805 144.213 33.978C144.351 34.6377 144.616 34.878 145.147 35.2952C145.677 35.4758 145.677 35.4758 146.233 35.5473C146.417 35.5775 146.601 35.6076 146.792 35.6387C146.931 35.6584 147.071 35.6782 147.215 35.6986C147.215 36.0979 147.215 36.4972 147.215 36.9086C145.832 36.956 144.702 36.9138 143.532 36.1019C142.47 34.6817 142.616 32.8085 142.671 31.1214C142.676 30.9049 142.681 30.6884 142.686 30.4653C142.703 29.7811 142.723 29.097 142.743 28.4128C142.756 27.9459 142.767 27.479 142.779 27.0121C142.808 25.8739 142.84 24.7358 142.873 23.5977C141.986 23.5977 141.099 23.5977 140.185 23.5977C140.185 23.2649 140.185 22.9322 140.185 22.5893C141.072 22.5893 141.959 22.5893 142.873 22.5893C142.873 21.1251 142.873 19.6609 142.873 18.1523Z" fill="#F7FBFF"/>
<path d="M95.6016 10.4243C96.75 11.3873 97.9272 12.622 98.212 14.1175C97.1782 13.1091 97.1782 13.1091 96.713 12.6175C94.8191 10.8962 92.6586 10.0021 90.0562 10.0406C87.5149 10.2491 85.2626 11.2786 83.5319 13.1091C81.8258 15.3456 81.444 17.6444 81.671 20.3696C81.8307 21.0064 82.0466 21.5724 82.2913 22.1848C82.2231 22.3844 82.1549 22.5841 82.0846 22.7898C80.5919 20.1251 80.03 17.8976 80.848 14.9306C81.704 12.3493 83.2443 10.7371 85.6536 9.4261C88.9485 7.87399 92.6785 8.29013 95.6016 10.4243Z" fill="#43B02A"/>
<path d="M137.083 22.5898C137.561 22.5898 138.039 22.5898 138.531 22.5898C138.531 27.2487 138.531 31.9075 138.531 36.7075C138.053 36.7075 137.576 36.7075 137.083 36.7075C137.083 32.0487 137.083 27.3898 137.083 22.5898Z" fill="#F7FBFF"/>
<path d="M90.5359 16.5C91.182 16.5378 91.182 16.5378 91.8023 16.9412C92.0396 17.6686 92.0424 18.0556 91.7894 18.7815C91.3148 19.4685 90.907 19.798 90.1482 20.1681C89.4817 20.1681 89.2278 20.0622 88.7267 19.6387C88.3806 18.9258 88.4848 18.4989 88.7009 17.7479C89.2178 17.1681 89.2178 17.1681 89.7347 16.7395C89.9415 16.5378 89.9415 16.5378 90.5359 16.5Z" fill="#43B02A"/>
<path d="M137.083 16.9414C137.561 16.9414 138.039 16.9414 138.531 16.9414C138.531 17.8732 138.531 18.8049 138.531 19.7649C138.053 19.7649 137.576 19.7649 137.083 19.7649C137.083 18.8332 137.083 17.9014 137.083 16.9414Z" fill="#F7FBFF"/>
<path d="M111.406 29.0185C111.589 29.0204 111.772 29.0222 111.96 29.0241C112.408 29.0288 112.857 29.036 113.306 29.0438C113.306 29.2434 113.306 29.4431 113.306 29.6488C112.95 29.6855 112.95 29.6855 112.588 29.7228C112.271 29.7569 111.955 29.7911 111.639 29.8253C111.483 29.8411 111.328 29.857 111.167 29.8733C110.185 29.9811 109.286 30.1649 108.343 30.4555C108.275 30.3224 108.207 30.1893 108.137 30.0522C108.343 29.4471 108.343 29.4471 108.747 29.2092C109.639 28.9752 110.487 29.0012 111.406 29.0185Z" fill="#F7FBFF"/>
<path d="M157.76 29.0415C157.76 29.108 157.76 29.1746 157.76 29.2432C156.221 29.5901 154.545 29.5772 153.004 29.2432C153.004 29.1101 153.004 28.977 153.004 28.8398C154.363 28.177 156.361 28.6777 157.76 29.0415Z" fill="#F7FBFF"/>
<path d="M95.7309 10.6875C96.8785 11.4871 97.6258 12.4554 98.2121 13.7127C98.1438 13.8458 98.0756 13.9789 98.0053 14.1161C97.9325 14.0113 97.8598 13.9065 97.7848 13.7986C97.0624 12.8033 96.3703 12.1515 95.3174 11.4942C95.4538 11.228 95.5903 10.9618 95.7309 10.6875Z" fill="#43B02A"/>
<path d="M110.825 29.043C111.643 29.043 112.462 29.043 113.306 29.043C113.306 29.2426 113.306 29.4423 113.306 29.648C111.566 29.7478 111.566 29.7478 109.791 29.8497C110.064 29.7831 110.337 29.7166 110.618 29.648C110.686 29.4483 110.754 29.2487 110.825 29.043Z" fill="#F7FBFF"/>
<path d="M115.58 29.0412C115.299 29.0287 115.299 29.0287 115.011 29.016C114.365 29.0403 114.053 29.1202 113.512 29.4446C113.444 29.378 113.376 29.3115 113.306 29.2429C112.958 29.1959 112.609 29.1597 112.259 29.1295C111.974 29.1041 111.974 29.1041 111.683 29.0782C111.463 29.0599 111.463 29.0599 111.238 29.0412C111.238 28.9747 111.238 28.9081 111.238 28.8395C114.537 28.3628 114.537 28.3628 115.58 29.0412Z" fill="#F7FBFF"/>
<path d="M88.2874 12.3008C88.5788 12.8691 88.3926 13.1423 88.197 13.7378C88.1376 13.9213 88.0781 14.1048 88.0169 14.294C87.9461 14.5053 87.9461 14.5053 87.8739 14.7209C87.7375 14.5878 87.601 14.4547 87.4604 14.3176C87.2557 14.4174 87.2557 14.4174 87.0469 14.5193C87.307 13.6101 87.6473 13.0084 88.2874 12.3008Z" fill="#43B02A"/>
<path d="M24.1912 23.3945C24.3277 23.4611 24.4641 23.5276 24.6047 23.5962C23.9224 24.2618 23.2401 24.9273 22.5371 25.613C22.5371 24.811 22.8225 24.5867 23.3642 23.9996C23.8294 23.634 23.8294 23.634 24.1912 23.3945Z" fill="#F7FBFF"/>
<path d="M110.114 29.0312C110.348 29.0354 110.583 29.0396 110.825 29.0439C110.756 29.2435 110.688 29.4432 110.618 29.6489C110.208 29.7155 109.799 29.782 109.377 29.8506C109.309 29.6509 109.241 29.4512 109.17 29.2455C109.377 29.0439 109.377 29.0439 110.114 29.0312Z" fill="#F7FBFF"/>
<path d="M113.926 28.8398C114.608 28.8398 115.291 28.8398 115.994 28.8398C115.925 28.973 115.857 29.1061 115.787 29.2432C115.069 29.4767 114.472 29.4587 113.719 29.4449C113.787 29.2452 113.856 29.0456 113.926 28.8398Z" fill="#F7FBFF"/>
<path d="M151.35 23.1914C151.486 23.258 151.623 23.3245 151.763 23.3931C151.218 23.9255 150.672 24.458 150.109 25.0065C150.109 24.4015 150.109 24.4015 150.613 23.8721C150.788 23.714 150.963 23.5559 151.143 23.3931C151.211 23.3265 151.28 23.26 151.35 23.1914Z" fill="#F7FBFF"/>
<path d="M109.171 23.1914C109.307 23.258 109.443 23.3245 109.584 23.3931C109.038 23.9255 108.492 24.458 107.93 25.0065C107.93 24.4015 107.93 24.4015 108.434 23.8721C108.609 23.714 108.784 23.5559 108.964 23.3931C109.032 23.3265 109.1 23.26 109.171 23.1914Z" fill="#F7FBFF"/>
<path d="M124.471 22.9922C124.607 23.0587 124.744 23.1253 124.884 23.1939C124.407 23.6598 123.929 24.1256 123.437 24.6056C123.3 24.5391 123.164 24.4725 123.023 24.404C123.506 23.9334 123.988 23.4628 124.471 22.9922Z" fill="#F7FBFF"/>
</svg>
