<svg width="16" height="17" viewBox="0 0 16 17" fill="none" xmlns="http://www.w3.org/2000/svg">
<path fill-rule="evenodd" clip-rule="evenodd" d="M4.50569 2.5H11.4941C12.0307 2.49999 12.4736 2.49998 12.8344 2.52946C13.2092 2.56008 13.5536 2.62579 13.8772 2.79065C14.379 3.04631 14.7869 3.45426 15.0426 3.95603C15.2017 4.26826 15.2684 4.59996 15.3004 4.95954C15.3361 5.06847 15.3423 5.18337 15.3211 5.29306C15.3332 5.59314 15.3332 5.94024 15.3332 6.33912V10.6609C15.3332 11.1975 15.3332 11.6404 15.3038 12.0012C15.2731 12.3759 15.2074 12.7204 15.0426 13.044C14.7869 13.5457 14.379 13.9537 13.8772 14.2094C13.5536 14.3742 13.2092 14.4399 12.8344 14.4705C12.4737 14.5 12.0307 14.5 11.4941 14.5H4.50568C3.96904 14.5 3.52614 14.5 3.16534 14.4705C2.79061 14.4399 2.44614 14.3742 2.12259 14.2094C1.62082 13.9537 1.21287 13.5457 0.95721 13.044C0.79235 12.7204 0.72664 12.3759 0.696024 12.0012C0.666545 11.6404 0.666552 11.1975 0.666561 10.6609V6.33913C0.666554 5.94025 0.666549 5.59315 0.678652 5.29306C0.657481 5.18337 0.66373 5.06846 0.699372 4.95953C0.731364 4.59995 0.798122 4.26825 0.95721 3.95603C1.21287 3.45426 1.62082 3.04631 2.12259 2.79065C2.44614 2.62579 2.79061 2.56008 3.16534 2.52946C3.52614 2.49998 3.96905 2.49999 4.50569 2.5ZM1.99989 6.4471V10.6333C1.99989 11.2044 2.00041 11.5926 2.02493 11.8926C2.04881 12.1849 2.09209 12.3344 2.14522 12.4387C2.27305 12.6895 2.47702 12.8935 2.72791 13.0213C2.83217 13.0745 2.98164 13.1178 3.27392 13.1416C3.57398 13.1661 3.96217 13.1667 4.53323 13.1667H11.4666C12.0376 13.1667 12.4258 13.1661 12.7259 13.1416C13.0181 13.1178 13.1676 13.0745 13.2719 13.0213C13.5228 12.8935 13.7267 12.6895 13.8546 12.4387C13.9077 12.3344 13.951 12.1849 13.9749 11.8926C13.9994 11.5926 13.9999 11.2044 13.9999 10.6333V6.4471L9.60559 9.52312C9.57972 9.54123 9.5541 9.55922 9.5287 9.57705C9.16559 9.83202 8.84676 10.0559 8.48363 10.1464C8.166 10.2256 7.83379 10.2256 7.51616 10.1464C7.15303 10.0559 6.8342 9.83202 6.4711 9.57706C6.44569 9.55922 6.42007 9.54123 6.3942 9.52312L1.99989 6.4471ZM13.9447 4.85819L8.84097 8.43081C8.35501 8.77098 8.25206 8.83 8.16114 8.85267C8.05526 8.87906 7.94453 8.87906 7.83865 8.85267C7.74773 8.83 7.64477 8.77098 7.15881 8.43081L2.05507 4.85819C2.07889 4.72008 2.10988 4.63071 2.14522 4.56135C2.27305 4.31046 2.47702 4.10649 2.72791 3.97866C2.83217 3.92553 2.98164 3.88225 3.27392 3.85837C3.57398 3.83385 3.96217 3.83333 4.53323 3.83333H11.4666C12.0376 3.83333 12.4258 3.83385 12.7259 3.85837C13.0181 3.88225 13.1676 3.92553 13.2719 3.97866C13.5228 4.10649 13.7267 4.31046 13.8546 4.56135C13.8899 4.63071 13.9209 4.72008 13.9447 4.85819Z" fill="#6B7280"/>
</svg>
