<svg width="24" height="24" viewBox="0 0 24 24" fill="none" xmlns="http://www.w3.org/2000/svg">
<path d="M18.0126 1.37831C15.0905 1.00214 12.4206 3.06188 12.0445 5.9795C11.8701 7.34194 12.2233 8.64478 12.9436 9.6907C12.9986 9.7687 13.0169 9.86502 12.9894 9.95678L12.5948 11.3147C12.5215 11.5624 12.7646 11.7871 13.0078 11.6954L14.306 11.2045C14.3978 11.1725 14.4941 11.1816 14.5766 11.2321C15.462 11.7596 16.5172 12.0532 17.664 11.9844C19.9944 11.8514 21.999 10.154 22.5266 7.87866C23.2469 4.75923 21.1137 1.77741 18.0126 1.37831ZM19.4814 7.4337H18.1136V8.79705C18.1136 8.93591 18.001 9.04848 17.8622 9.04848H16.7961C16.6572 9.04848 16.5446 8.93591 16.5446 8.79705V7.4337H15.1859C15.047 7.4337 14.9344 7.32113 14.9344 7.18227V6.12083C14.9344 5.98197 15.047 5.8694 15.1859 5.8694H16.5446V4.50146C16.5446 4.3626 16.6572 4.25003 16.7961 4.25003H17.8622C18.001 4.25003 18.1136 4.3626 18.1136 4.50146V5.8694H19.4814C19.6203 5.8694 19.7329 5.98197 19.7329 6.12083V7.18227C19.7329 7.32113 19.6203 7.4337 19.4814 7.4337Z" fill="#FA4D56"/>
<path d="M16.8178 15.2847C16.4069 14.8739 15.7409 14.8739 15.3301 15.2847L14.6621 15.9526L19.1401 20.4308L19.8082 19.7627C20.219 19.3519 20.219 18.6859 19.8082 18.275L16.8178 15.2847Z" fill="#FA4D56"/>
<path d="M8.70974 8.66527C9.12055 8.25443 9.12055 7.58836 8.70974 7.17755L5.72311 4.19092C5.3123 3.78011 4.64625 3.78011 4.23545 4.19092L3.56738 4.85893L8.04179 9.33322L8.70974 8.66527Z" fill="#FA4D56"/>
<path d="M13.8274 16.7885C13.4166 17.1994 12.7505 17.1994 12.3397 16.7885L7.20698 11.6559C6.79617 11.2451 6.79617 10.579 7.20698 10.1681L7.55518 9.81997L3.08077 5.3457L2.87402 5.55248C0.819988 7.60659 0.819988 10.937 2.87402 12.9911L11.0082 21.1253C13.0623 23.1794 16.3928 23.1794 18.4468 21.1253L18.6536 20.9185L14.1756 16.4404L13.8274 16.7885Z" fill="#FA4D56"/>
</svg>
