<svg width="24" height="24" viewBox="0 0 24 24" fill="none" xmlns="http://www.w3.org/2000/svg">
<path d="M10.1418 13.9698C12.8086 15.3652 16.2839 13.2721 16.2184 10.1887C16.2174 9.07086 15.7729 7.99904 14.9825 7.20858C14.192 6.41812 13.1202 5.97362 12.0023 5.97266C7.52347 6.03202 6.19445 11.9895 10.1418 13.9698Z" fill="white"/>
<path d="M17.2905 15.1085L14.8036 14.2833C13.9779 14.8472 13.0014 15.1488 12.0015 15.1488C11.0017 15.1488 10.0252 14.8471 9.19954 14.2832L6.71638 15.1085C5.99855 15.3467 5.37406 15.8052 4.93165 16.4186C4.48924 17.032 4.25141 17.7693 4.25195 18.5257V20.1949C4.25207 20.539 4.38884 20.8691 4.63222 21.1125C4.87559 21.3559 5.20565 21.4926 5.54983 21.4927H18.4533C18.7975 21.4926 19.1276 21.3558 19.3709 21.1125C19.6143 20.8691 19.7511 20.539 19.7512 20.1949V18.5257C19.7517 17.7698 19.5144 17.033 19.0727 16.4197C18.631 15.8063 18.0075 15.3476 17.2905 15.1085Z" fill="white"/>
<path d="M5.35492 4.81614C5.37437 4.87766 5.40926 4.93316 5.45625 4.97737C5.50324 5.02158 5.56078 5.05301 5.62336 5.06867C5.68595 5.08434 5.75151 5.08371 5.81378 5.06685C5.87606 5.04999 5.93297 5.01745 5.97911 4.97235L6.27143 4.67988L6.90185 5.76947C6.95164 5.85554 7.03358 5.91832 7.12965 5.94397C7.22573 5.96963 7.32806 5.95608 7.41413 5.90629C7.50021 5.8565 7.56298 5.77455 7.58864 5.67848C7.6143 5.58241 7.60074 5.48008 7.55095 5.394L6.6762 3.8815C6.64704 3.83216 6.60704 3.7901 6.55922 3.7585C6.5114 3.72691 6.45701 3.70661 6.40019 3.69914C6.34336 3.69168 6.28558 3.69724 6.23122 3.71541C6.17686 3.73359 6.12735 3.76389 6.08644 3.80403L5.8912 3.99927L5.51718 2.76682C5.48676 2.67344 5.42094 2.59571 5.33386 2.55031C5.24677 2.50491 5.14536 2.49547 5.05139 2.524C4.95741 2.55253 4.87837 2.61676 4.83122 2.70291C4.78408 2.78907 4.77259 2.89027 4.79921 2.9848L5.35492 4.81614Z" fill="white"/>
<path d="M5.61273 10.4535C5.62547 10.4059 5.62871 10.3562 5.62226 10.3074C5.61581 10.2585 5.59979 10.2114 5.57513 10.1688C5.55046 10.1261 5.51764 10.0887 5.47852 10.0588C5.4394 10.0288 5.39476 10.0068 5.34715 9.99412L3.6592 9.5432C3.60367 9.52889 3.54561 9.52741 3.48942 9.53888C3.43323 9.55035 3.3804 9.57447 3.33493 9.60941C3.28945 9.64434 3.25253 9.68918 3.22697 9.74051C3.2014 9.79184 3.18787 9.84832 3.18739 9.90566V10.1819L2.05146 9.57488C1.96395 9.53027 1.86243 9.52175 1.76871 9.55117C1.67499 9.58058 1.59654 9.64557 1.55021 9.73219C1.50388 9.81881 1.49337 9.92014 1.52093 10.0144C1.5485 10.1087 1.61193 10.1884 1.69762 10.2364L3.38556 11.1385C3.44284 11.1682 3.50677 11.1828 3.57126 11.1808C3.63576 11.1788 3.69868 11.1604 3.75402 11.1272C3.80937 11.094 3.85529 11.0472 3.88743 10.9912C3.91956 10.9353 3.93683 10.872 3.93759 10.8075V10.3941L5.15374 10.7191C5.2498 10.7441 5.35188 10.7303 5.43781 10.6806C5.52374 10.6309 5.58659 10.5493 5.61273 10.4535Z" fill="white"/>
<path d="M22.3051 10.4777L20.6172 9.57585C20.5599 9.54606 20.496 9.53144 20.4315 9.53337C20.367 9.53531 20.3041 9.55374 20.2487 9.58692C20.1933 9.62009 20.1474 9.66689 20.1153 9.72286C20.0831 9.77883 20.0659 9.8421 20.0652 9.90663V10.32L18.849 9.99509C18.7535 9.9712 18.6524 9.98584 18.5675 10.0358C18.4827 10.0858 18.4209 10.1672 18.3955 10.2624C18.3701 10.3575 18.3832 10.4589 18.4318 10.5445C18.4805 10.6301 18.5609 10.6931 18.6556 10.72L20.3436 11.1709C20.3991 11.1853 20.4572 11.1868 20.5133 11.1753C20.5695 11.1638 20.6224 11.1397 20.6679 11.1048C20.7133 11.0698 20.7503 11.025 20.7758 10.9737C20.8014 10.9223 20.8149 10.8658 20.8154 10.8085V10.5323C20.9252 10.5724 22.0252 11.2278 22.1279 11.1838C22.2106 11.1821 22.2905 11.1532 22.3552 11.1016C22.4199 11.0501 22.4658 10.9787 22.486 10.8984C22.5061 10.8182 22.4993 10.7335 22.4667 10.6575C22.434 10.5815 22.3772 10.5183 22.3051 10.4777Z" fill="white"/>
<path d="M16.776 5.95698C16.834 6.03766 18.3897 5.06099 18.4761 5.03207C18.5255 5.0029 18.5676 4.96287 18.5992 4.91502C18.6308 4.86718 18.651 4.81276 18.6585 4.75591C18.6659 4.69905 18.6603 4.64125 18.6421 4.58688C18.6239 4.53251 18.5936 4.483 18.5534 4.4421L18.3578 4.24668L19.5904 3.87268C19.6838 3.84236 19.7616 3.77659 19.8071 3.68952C19.8526 3.60244 19.8621 3.501 19.8336 3.40698C19.8051 3.31297 19.7409 3.23388 19.6547 3.18671C19.5686 3.13954 19.4673 3.12805 19.3728 3.1547L17.5413 3.7104C17.4797 3.72983 17.4242 3.7647 17.38 3.81168C17.3357 3.85866 17.3043 3.91619 17.2886 3.97878C17.2729 4.04137 17.2735 4.10694 17.2904 4.16922C17.3072 4.23151 17.3398 4.28844 17.3849 4.33459L17.6775 4.62709L16.5878 5.25715C16.5179 5.29955 16.4637 5.36348 16.4333 5.43933C16.4029 5.51517 16.398 5.59884 16.4192 5.67774C16.4404 5.75664 16.4867 5.82653 16.5511 5.87688C16.6154 5.92724 16.6944 5.95535 16.776 5.95698Z" fill="white"/>
</svg>
