<svg width="48" height="48" viewBox="0 0 48 48" fill="none" xmlns="http://www.w3.org/2000/svg">
<path d="M42.2346 30.4823C35.6677 33.4275 27.9519 30.4679 25.0451 23.8717C22.2079 17.4335 25.0685 9.83667 31.4485 6.87088C32.7149 6.28223 34.0259 5.91566 35.3387 5.75432C36.1472 5.65495 36.2415 4.51701 35.4591 4.29041C31.5252 3.15088 27.1829 3.34457 23.1519 5.14635C14.0717 9.20526 10.032 19.771 14.0894 28.8518C18.1376 37.9123 28.7678 41.9661 37.8196 37.9065C41.8581 36.0953 44.8991 32.975 46.6671 29.2708C47.0161 28.5396 46.1034 27.8539 45.4951 28.3889C44.5433 29.2259 43.4518 29.9364 42.2346 30.4823Z" fill="#FFE02F"/>
<path d="M32.0083 39.4161C31.7995 37.1699 30.6346 35.1632 28.8359 33.8725C28.7302 31.0563 26.4462 28.7879 23.6238 28.7072C21.5899 25.5438 18.0699 23.5801 14.2247 23.5801C13.6917 23.5801 13.1676 23.618 12.6543 23.6906C12.8666 25.4385 13.3417 27.1845 14.1 28.8754C17.3072 36.0263 24.6178 40.0497 32.0083 39.4161Z" fill="#FFE98F"/>
<path d="M26.3067 35.1387C26.4304 34.8083 26.4983 34.4507 26.4983 34.0771C26.4983 32.4035 25.1416 31.0467 23.468 31.0467C23.0694 31.0467 22.6893 31.1244 22.3408 31.2642C20.9875 28.122 17.8633 25.9219 14.2249 25.9219C9.3465 25.9219 5.39175 29.8766 5.39175 34.755C2.41397 34.755 0 37.169 0 40.1467C0 43.1245 2.41397 45.5386 5.39184 45.5386H24.3094C27.2872 45.5386 29.7012 43.1246 29.7012 40.1467C29.7011 37.8749 28.2953 35.9326 26.3067 35.1387Z" fill="#EFF3F5"/>
<path d="M26.3067 35.1387C26.4304 34.8083 26.4983 34.4507 26.4983 34.0771C26.4983 32.4035 25.1416 31.0467 23.468 31.0467C23.0694 31.0467 22.6893 31.1244 22.3408 31.2642C20.9875 28.122 17.8633 25.9219 14.2249 25.9219C9.3465 25.9219 5.39175 29.8766 5.39175 34.755C2.41397 34.755 0 37.169 0 40.1467C0 43.1245 2.41397 45.5386 5.39184 45.5386H24.3094C27.2872 45.5386 29.7012 43.1246 29.7012 40.1467C29.7011 37.8749 28.2953 35.9326 26.3067 35.1387Z" fill="#2A428C"/>
<path d="M26.307 35.1389C26.4307 34.8084 26.4986 34.4508 26.4986 34.0773C26.4986 32.4036 25.1419 31.0469 23.4683 31.0469C23.2818 31.0469 23.0995 31.0645 22.9225 31.0969C23.1165 31.9753 23.2197 32.8878 23.2197 33.8244C23.2197 39.1479 19.9145 43.6994 15.2441 45.5387H24.3096C27.2874 45.5387 29.7014 43.1247 29.7014 40.1468C29.7014 37.8751 28.2956 35.9328 26.307 35.1389Z" fill="#425EA5"/>
<path d="M45.7257 16.6839C45.8085 16.4624 45.8541 16.2228 45.8541 15.9725C45.8541 14.8511 44.945 13.9419 43.8235 13.9419C43.5565 13.9419 43.3018 13.9939 43.0681 14.0877C42.1613 11.9821 40.0678 10.5078 37.6297 10.5078C34.3607 10.5078 31.7107 13.1578 31.7107 16.4268C29.7153 16.4268 28.0977 18.0444 28.0977 20.0398C28.0977 22.0352 29.7152 23.6529 31.7107 23.6529H44.3871C46.3825 23.6529 48.0001 22.0353 48.0001 20.0398C48.0002 18.5173 47.0582 17.2158 45.7257 16.6839Z" fill="#EFF3F5"/>
<path d="M45.7257 16.6839C45.8085 16.4624 45.8541 16.2228 45.8541 15.9725C45.8541 14.8511 44.945 13.9419 43.8235 13.9419C43.5565 13.9419 43.3018 13.9939 43.0681 14.0877C42.1613 11.9821 40.0678 10.5078 37.6297 10.5078C34.3607 10.5078 31.7107 13.1578 31.7107 16.4268C29.7153 16.4268 28.0977 18.0444 28.0977 20.0398C28.0977 22.0352 29.7152 23.6529 31.7107 23.6529H44.3871C46.3825 23.6529 48.0001 22.0353 48.0001 20.0398C48.0002 18.5173 47.0582 17.2158 45.7257 16.6839Z" fill="#2A428C"/>
<path d="M45.7256 16.6834C45.8085 16.462 45.854 16.2223 45.854 15.972C45.854 14.8506 44.9449 13.9414 43.8234 13.9414C43.6984 13.9414 43.5763 13.9532 43.4576 13.975C43.5876 14.5635 43.6568 15.175 43.6568 15.8026C43.6568 19.3698 41.442 22.4198 38.3125 23.6522H44.3871C46.3825 23.6522 48.0002 22.0347 48.0002 20.0392C48.0002 18.5169 47.0582 17.2153 45.7256 16.6834Z" fill="#425EA5"/>
<path d="M4.07033 12.8995L4.53702 13.845C4.61896 14.0111 4.7773 14.1261 4.96058 14.1527L6.00402 14.3043C6.46536 14.3713 6.64958 14.9383 6.31574 15.2637L5.56067 15.9998C5.42811 16.129 5.36764 16.3151 5.39886 16.4977L5.57708 17.5369C5.65592 17.9964 5.17358 18.3468 4.76089 18.1299L3.82761 17.6392C3.66374 17.553 3.46799 17.553 3.30411 17.6392L2.37083 18.1299C1.95814 18.3468 1.47589 17.9964 1.55464 17.5369L1.73286 16.4977C1.76417 16.3152 1.70371 16.1291 1.57105 15.9998L0.815987 15.2637C0.482143 14.9383 0.666362 14.3713 1.12771 14.3043L2.17114 14.1527C2.35433 14.1261 2.51277 14.0111 2.59471 13.845L3.06139 12.8995C3.26783 12.4814 3.86399 12.4814 4.07033 12.8995Z" fill="#FFE02F"/>
<path d="M42.4989 40.3135L42.8387 41.0021C42.9206 41.1681 43.079 41.2832 43.2623 41.3098L44.0222 41.4202C44.4835 41.4873 44.6678 42.0543 44.3339 42.3797L43.784 42.9157C43.6514 43.0449 43.5909 43.2311 43.6222 43.4137L43.752 44.1705C43.8309 44.63 43.3485 44.9804 42.9358 44.7635L42.2561 44.4061C42.0923 44.3199 41.8965 44.3199 41.7326 44.4061L41.0529 44.7635C40.6403 44.9804 40.158 44.63 40.2368 44.1705L40.3666 43.4137C40.3979 43.2312 40.3374 43.045 40.2048 42.9157L39.6549 42.3797C39.321 42.0543 39.5052 41.4873 39.9666 41.4202L40.7265 41.3098C40.9097 41.2832 41.0681 41.1681 41.1501 41.0021L41.4899 40.3135C41.6964 39.8955 42.2925 39.8955 42.4989 40.3135Z" fill="#FFE02F"/>
<path d="M12.388 2.66802L12.7947 3.49199C12.8494 3.60271 12.9549 3.6794 13.0771 3.69712L13.9864 3.82921C14.294 3.87393 14.4168 4.25193 14.1942 4.46887L13.5363 5.11021C13.4479 5.19637 13.4075 5.32049 13.4285 5.44218L13.5838 6.34781C13.6363 6.65418 13.3148 6.88771 13.0397 6.74315L12.2264 6.31556C12.1172 6.25809 11.9867 6.25809 11.8774 6.31556L11.0641 6.74315C10.7889 6.8878 10.4675 6.65418 10.52 6.34781L10.6753 5.44218C10.6962 5.32049 10.6558 5.19637 10.5675 5.11021L9.90955 4.46887C9.68699 4.25193 9.8098 3.87393 10.1174 3.82921L11.0267 3.69712C11.1488 3.6794 11.2544 3.60262 11.309 3.49199L11.7157 2.66802C11.8531 2.3893 12.2505 2.3893 12.388 2.66802Z" fill="#FFE02F"/>
</svg>
