<svg width="73" height="72" viewBox="0 0 73 72" fill="none" xmlns="http://www.w3.org/2000/svg">
<path d="M52.7024 0H8.29932V72H64.7009V11.9985L52.7024 0Z" fill="#E8E8E8"/>
<path d="M55.1227 35.6054C54.2575 34.0635 51.2682 33.579 49.8968 33.361C48.8158 33.1891 47.7122 33.1378 46.6189 33.1387C45.7604 33.133 44.9145 33.1753 44.0795 33.2228C43.7718 33.2435 43.4671 33.2701 43.1626 33.2964C42.8506 32.9735 42.549 32.6398 42.2572 32.2986C40.4001 30.1002 38.9007 27.6072 37.6788 25.0166C38.0032 23.7648 38.2628 22.4585 38.4195 21.1018C38.7057 18.6256 38.804 15.8037 37.8762 13.4429C37.5558 12.6281 36.7016 11.6362 35.7161 12.1302C34.5831 12.6982 34.2644 14.3076 34.172 15.4484C34.0977 16.3705 34.1497 17.295 34.3045 18.2017C34.4622 19.1146 34.7161 19.9814 34.9925 20.847C35.2504 21.6406 35.5347 22.4281 35.8446 23.2082C35.6479 23.8223 35.4392 24.4257 35.22 25.0137C34.709 26.3538 34.1564 27.6269 33.6249 28.8516C33.3447 29.4588 33.0704 30.0532 32.802 30.6343C31.9528 32.4997 31.0309 34.3309 29.9962 36.101C27.5828 36.9524 25.417 37.9393 23.6183 39.0992C22.6535 39.7225 21.8012 40.3996 21.0914 41.1422C20.4212 41.8432 19.7401 42.753 19.6805 43.7601C19.647 44.3286 19.8721 44.8803 20.3378 45.2175C20.9783 45.696 21.8271 45.6642 22.5701 45.5084C25.0042 44.9978 26.8734 42.9054 28.4652 41.1419C29.5617 39.9272 30.8096 38.3848 32.115 36.5195C32.1179 36.5152 32.1207 36.5109 32.1238 36.5066C34.3627 35.8125 36.7995 35.2264 39.3856 34.7956C40.567 34.5997 41.7798 34.4394 43.0168 34.3268C43.8867 35.1416 44.8266 35.8835 45.8521 36.5031C46.6507 36.9944 47.5002 37.4093 48.3893 37.7187C49.2884 38.0125 50.1929 38.2523 51.1269 38.4041C51.5985 38.4715 52.0808 38.5021 52.5736 38.4836C53.6734 38.4421 55.2519 38.0203 55.3554 36.6859C55.3872 36.2775 55.2991 35.9194 55.1227 35.6054ZM28.7939 38.0538C28.2788 38.8517 27.782 39.5694 27.3139 40.2008C26.1676 41.7606 24.8584 43.6131 22.9629 44.3058C22.6029 44.4374 22.1289 44.5732 21.6292 44.5438C21.1842 44.5177 20.7453 44.3213 20.7655 43.8159C20.7755 43.5514 20.9049 43.2139 21.1035 42.8824C21.3208 42.5188 21.5898 42.1854 21.8812 41.8788C22.5055 41.2229 23.2949 40.5872 24.203 39.9985C25.5958 39.0949 27.2586 38.2815 29.1121 37.5558C29.0055 37.7244 28.8991 37.8921 28.7939 38.0538ZM35.2585 18.044C35.1155 17.2095 35.0939 16.3634 35.1818 15.5498C35.2255 15.143 35.3084 14.746 35.4283 14.3738C35.5299 14.058 35.7493 13.2871 36.0994 13.1881C36.6765 13.0247 36.8538 14.2636 36.9192 14.6142C37.291 16.608 36.9633 18.8253 36.5171 20.7812C36.4461 21.0923 36.367 21.3984 36.286 21.7033C36.1478 21.3231 36.016 20.9417 35.8947 20.5584C35.6335 19.7213 35.3946 18.8745 35.2585 18.044ZM39.2203 33.784C37.0521 34.1354 34.9897 34.5959 33.0509 35.1395C33.2843 35.0742 34.3511 33.0525 34.589 32.6329C35.7102 30.6583 36.6273 28.5858 37.2863 26.4117C38.4499 28.7131 39.8622 30.9148 41.5972 32.8744C41.757 33.0523 41.9195 33.228 42.0847 33.4016C41.1125 33.5064 40.1557 33.6339 39.2203 33.784ZM53.883 36.561C53.8037 36.9897 52.8883 37.2347 52.461 37.3022C51.1986 37.5007 49.863 37.3418 48.6548 36.936C47.8257 36.6577 47.0262 36.2787 46.2665 35.8227C45.5113 35.3665 44.8048 34.8298 44.1444 34.238C44.9587 34.1891 45.783 34.157 46.6113 34.1727C47.4396 34.181 48.2743 34.2228 49.0988 34.3304C50.6451 34.5028 52.3777 35.0336 53.5947 36.0369C53.8344 36.2347 53.9108 36.4095 53.883 36.561Z" fill="#FB3449"/>
<path d="M54.5592 5.99937H8.29932V0H52.7024L54.5592 5.99937Z" fill="#FB3449"/>
<path d="M30.6217 57.2684C30.6217 58.5415 30.2465 59.5247 29.4956 60.2181C28.7447 60.9118 27.6784 61.2585 26.2963 61.2585H25.4312V65.0384H22.353V53.6445H26.2966C27.7357 53.6445 28.8164 53.959 29.5386 54.5876C30.2608 55.2162 30.6217 56.1098 30.6217 57.2684ZM25.4314 58.7491H25.9926C26.455 58.7491 26.8226 58.6194 27.0954 58.3594C27.3683 58.0996 27.5046 57.741 27.5046 57.2839C27.5046 56.5149 27.0786 56.1304 26.2265 56.1304H25.4314V58.7491Z" fill="#A4A9AD"/>
<path d="M42.1092 59.0998C42.1092 61.0013 41.5856 62.4665 40.5388 63.4953C39.492 64.524 38.0201 65.0384 36.1238 65.0384H32.4375V53.6445H36.381C38.2098 53.6445 39.6216 54.1121 40.6167 55.0473C41.6115 55.9825 42.1092 57.3335 42.1092 59.0998ZM38.914 59.2091C38.914 58.1647 38.7074 57.3907 38.2944 56.8866C37.8814 56.3826 37.254 56.1307 36.4121 56.1307H35.5161V62.5133H36.202C37.1374 62.5133 37.823 62.2419 38.2595 61.6988C38.6957 61.1562 38.914 60.3262 38.914 59.2091Z" fill="#A4A9AD"/>
<path d="M47.183 65.0384H44.1514V53.6445H50.885V56.115H47.183V58.2893H50.5965V60.7598H47.183V65.0384Z" fill="#A4A9AD"/>
<path d="M52.7026 11.9985H64.7011L52.7026 0V11.9985Z" fill="#D1D3D3"/>
</svg>
