<svg width="16" height="17" viewBox="0 0 16 17" fill="none" xmlns="http://www.w3.org/2000/svg">
<path fill-rule="evenodd" clip-rule="evenodd" d="M4.60326 2.94221C4.41408 2.84652 4.19065 2.84652 4.00147 2.94221C3.93032 2.9782 3.84163 3.05504 3.45028 3.44639L3.34519 3.55148C2.97171 3.92496 2.87104 4.03297 2.79057 4.17623C2.69729 4.34227 2.61915 4.64277 2.61971 4.83321C2.62022 5.00269 2.64524 5.10474 2.75541 5.49291C3.29915 7.40862 4.32488 9.21648 5.83443 10.726C7.34398 12.2356 9.15183 13.2613 11.0675 13.805C11.4557 13.9152 11.5578 13.9402 11.7272 13.9407C11.9177 13.9413 12.2182 13.8632 12.3842 13.7699C12.5275 13.6894 12.6355 13.5887 13.009 13.2153L13.1141 13.1102C13.5054 12.7188 13.5823 12.6301 13.6182 12.559C13.7139 12.3698 13.7139 12.1464 13.6182 11.9572C13.5823 11.886 13.5054 11.7974 13.1141 11.406L13.5855 10.9346L13.1141 11.406L12.9842 11.2761C12.727 11.019 12.6692 10.9663 12.6254 10.9378C12.4044 10.7941 12.1196 10.7941 11.8986 10.9378C11.8548 10.9663 11.7969 11.019 11.5398 11.2761C11.5347 11.2812 11.5295 11.2864 11.5242 11.2917C11.4644 11.3518 11.3886 11.4278 11.2977 11.4929L10.9096 10.9509L11.2977 11.4929C10.973 11.7254 10.5316 11.8007 10.1483 11.6889C10.0414 11.6577 9.95336 11.6153 9.8849 11.5823C9.87948 11.5797 9.87419 11.5772 9.86902 11.5747C8.83572 11.0786 7.86792 10.4025 7.01294 9.54752C6.15796 8.69253 5.4819 7.72474 4.98578 6.69143C4.9833 6.68626 4.98075 6.68097 4.97814 6.67556C4.94514 6.6071 4.90271 6.51909 4.87154 6.41217L5.51157 6.2256L4.87154 6.41217C4.75979 6.02881 4.83506 5.58744 5.06753 5.26278L5.06753 5.26278C5.13266 5.17182 5.20868 5.09608 5.26872 5.03626C5.27407 5.03093 5.27929 5.02573 5.28437 5.02065C5.54151 4.76351 5.59416 4.70569 5.62265 4.66187L5.62265 4.66187C5.76631 4.44091 5.76631 4.15604 5.62265 3.93508C5.59416 3.89126 5.5415 3.83344 5.28437 3.5763L5.15445 3.44639C4.7631 3.05504 4.67441 2.9782 4.60326 2.94221ZM3.39967 1.75241C3.96723 1.46534 4.6375 1.46534 5.20506 1.75241C5.49346 1.89828 5.74382 2.14929 6.03345 2.43966C6.0545 2.46077 6.07576 2.48208 6.09726 2.50358L6.22717 2.63349C6.24134 2.64766 6.25537 2.66167 6.26927 2.67554C6.46037 2.86632 6.62499 3.03066 6.74048 3.20829L6.18157 3.57169L6.74049 3.20829C7.17148 3.87118 7.17148 4.72577 6.74048 5.38866C6.62499 5.56629 6.46037 5.73063 6.26927 5.92141C6.25537 5.93528 6.24134 5.94929 6.22717 5.96346C6.18877 6.00186 6.16918 6.02156 6.15553 6.03599C6.15528 6.03708 6.15504 6.03828 6.15482 6.03958C6.15457 6.04103 6.15439 6.04237 6.15426 6.04357C6.15646 6.04845 6.15943 6.05489 6.16353 6.0636C6.16994 6.07722 6.17747 6.09291 6.18776 6.11434C6.61964 7.01386 7.20863 7.85759 7.95575 8.60471C8.70287 9.35183 9.5466 9.94082 10.4461 10.3727L10.1576 10.9737L10.4461 10.3727C10.4675 10.383 10.4832 10.3905 10.4969 10.3969C10.5056 10.401 10.512 10.404 10.5169 10.4062C10.5181 10.4061 10.5194 10.4059 10.5209 10.4056C10.5222 10.4054 10.5234 10.4052 10.5245 10.4049C10.5389 10.3913 10.5586 10.3717 10.597 10.3333C10.6112 10.3191 10.6252 10.3051 10.6391 10.2912C10.8298 10.1001 10.9942 9.93546 11.1718 9.81997C11.8347 9.38898 12.6893 9.38898 13.3522 9.81997C13.5298 9.93546 13.6941 10.1001 13.8849 10.2912C13.8988 10.3051 13.9128 10.3191 13.927 10.3333L13.4556 10.8047L13.927 10.3333L14.0569 10.4632C14.0784 10.4847 14.0997 10.506 14.1208 10.527C14.4112 10.8166 14.6622 11.067 14.808 11.3554C15.0951 11.923 15.0951 12.5932 14.808 13.1608C14.6622 13.4492 14.4112 13.6996 14.1208 13.9892C14.0997 14.0102 14.0784 14.0315 14.0569 14.053L13.9518 14.1581C13.9366 14.1733 13.9215 14.1884 13.9067 14.2032C13.5965 14.5137 13.3586 14.7518 13.0372 14.9324C12.6706 15.1383 12.1438 15.2753 11.7233 15.2741C11.3554 15.273 11.087 15.1967 10.741 15.0984C10.7286 15.0949 10.7161 15.0913 10.7035 15.0877C8.57467 14.4835 6.56604 13.3433 4.89162 11.6688C3.2172 9.99441 2.07696 7.98579 1.47274 5.85697C1.46916 5.84435 1.4656 5.83184 1.46207 5.81942C1.36374 5.47342 1.28748 5.2051 1.28639 4.83718C1.28513 4.41667 1.42214 3.88984 1.62809 3.52321L1.62809 3.52321C1.80862 3.20183 2.04673 2.96397 2.35722 2.6538C2.3721 2.63893 2.38716 2.62389 2.40238 2.60867L2.50747 2.50358C2.52897 2.48208 2.55023 2.46077 2.57128 2.43966C2.86091 2.14929 3.11127 1.89828 3.39967 1.75241L3.69716 2.34057L3.39967 1.75241Z" fill="#6B7280"/>
</svg>
