<svg width="3" height="17" viewBox="0 0 3 17" fill="none" xmlns="http://www.w3.org/2000/svg">
<rect width="3" height="17" fill="#BDBDBD"/>
<g id="PHR">
<path d="M-584 -1932C-584 -1933.1 -583.105 -1934 -582 -1934H25029C25030.1 -1934 25031 -1933.1 25031 -1932V4728C25031 4729.1 25030.1 4730 25029 4730H-582C-583.104 4730 -584 4729.1 -584 4728V-1932Z" fill="#444444"/>
<path d="M-582 -1933H25029V-1935H-582V-1933ZM25030 -1932V4728H25032V-1932H25030ZM25029 4729H-582V4731H25029V4729ZM-583 4728V-1932H-585V4728H-583ZM-582 4729C-582.552 4729 -583 4728.55 -583 4728H-585C-585 4729.66 -583.657 4731 -582 4731V4729ZM25030 4728C25030 4728.55 25029.6 4729 25029 4729V4731C25030.7 4731 25032 4729.66 25032 4728H25030ZM25029 -1933C25029.6 -1933 25030 -1932.55 25030 -1932H25032C25032 -1933.66 25030.7 -1935 25029 -1935V-1933ZM-582 -1935C-583.657 -1935 -585 -1933.66 -585 -1932H-583C-583 -1932.55 -582.552 -1933 -582 -1933V-1935Z" fill="black" fill-opacity="0.1"/>
<g id="PHR- Basic Information" clip-path="url(#clip0_0_1)">
<rect width="1440" height="3923" transform="translate(-100 -1314)" fill="white"/>
<g id="Frame 1437254662">
<g id="Frame 1437254647">
<g id="Frame 1437254646">
<g id="Frame 1437254637">
<rect width="1320" height="365" transform="translate(-40 -143)" fill="#F9FAFB"/>
<g id="Frame 1437254632">
<path d="M-16 -111C-16 -115.418 -12.4183 -119 -8 -119H279C283.418 -119 287 -115.418 287 -111V190C287 194.418 283.418 198 279 198H-8C-12.4183 198 -16 194.418 -16 190V-111Z" fill="#FFF5F5"/>
<g id="Frame 1437254633">
<g id="Frame 1437254634">
<g id="Rectangle 34624374">
<path id="Rectangle 34624374_2" d="M0 4.82432L3 0.5V16.5H0V4.82432Z" fill="#FA4D56"/>
</g>
</g>
</g>
</g>
</g>
</g>
</g>
</g>
</g>
</g>
<defs>
<clipPath id="clip0_0_1">
<rect width="1440" height="3923" fill="white" transform="translate(-100 -1314)"/>
</clipPath>
</defs>
</svg>
