<svg width="25" height="24" viewBox="0 0 25 24" fill="none" xmlns="http://www.w3.org/2000/svg">
<path fill-rule="evenodd" clip-rule="evenodd" d="M9.2587 1L14.5 1C14.7652 1 15.0196 1.10536 15.2071 1.29289L21.2071 7.29289C21.3946 7.48043 21.5 7.73478 21.5 8V17.2413C21.5 18.0463 21.5 18.7106 21.4558 19.2518C21.4099 19.8139 21.3113 20.3306 21.064 20.816C20.6805 21.5686 20.0686 22.1805 19.316 22.564C18.8306 22.8113 18.3139 22.9099 17.7518 22.9558C17.2106 23 16.5463 23 15.7413 23H9.25868C8.45372 23 7.78936 23 7.24817 22.9558C6.68608 22.9099 6.16937 22.8113 5.68404 22.564C4.93139 22.1805 4.31947 21.5686 3.93597 20.816C3.68868 20.3306 3.59012 19.8139 3.54419 19.2518C3.49998 18.7106 3.49999 18.0463 3.5 17.2413V6.7587C3.49999 5.95373 3.49998 5.28937 3.54419 4.74817C3.59012 4.18608 3.68868 3.66937 3.93597 3.18404C4.31947 2.43139 4.93139 1.81947 5.68404 1.43597C6.16937 1.18868 6.68608 1.09012 7.24817 1.04419C7.78937 0.999977 8.45373 0.999988 9.2587 1ZM7.41104 3.03755C6.97262 3.07337 6.74842 3.1383 6.59202 3.21799C6.2157 3.40973 5.90973 3.7157 5.71799 4.09202C5.6383 4.24842 5.57337 4.47262 5.53755 4.91104C5.50078 5.36113 5.5 5.94342 5.5 6.8V17.2C5.5 18.0566 5.50078 18.6389 5.53755 19.089C5.57337 19.5274 5.6383 19.7516 5.71799 19.908C5.90973 20.2843 6.2157 20.5903 6.59202 20.782C6.74842 20.8617 6.97262 20.9266 7.41104 20.9624C7.86113 20.9992 8.44342 21 9.3 21H15.7C16.5566 21 17.1389 20.9992 17.589 20.9624C18.0274 20.9266 18.2516 20.8617 18.408 20.782C18.7843 20.5903 19.0903 20.2843 19.282 19.908C19.3617 19.7516 19.4266 19.5274 19.4624 19.089C19.4992 18.6389 19.5 18.0566 19.5 17.2V9.00007L16.0681 9.00007C15.8157 9.0001 15.5699 9.00013 15.3618 8.98313C15.1332 8.96445 14.8634 8.92038 14.592 8.78208C14.2157 8.59034 13.9097 8.28438 13.718 7.90805C13.5797 7.63663 13.5356 7.3669 13.5169 7.1383C13.4999 6.93014 13.5 6.68434 13.5 6.43195L13.5 3H9.3C8.44342 3 7.86113 3.00078 7.41104 3.03755ZM15.5 4.41421L18.0859 7.00007H16.1C15.8035 7.00007 15.6412 6.99929 15.5246 6.98977C15.52 6.98939 15.5156 6.98901 15.5114 6.98862C15.5111 6.98447 15.5107 6.98008 15.5103 6.97544C15.5008 6.85885 15.5 6.6966 15.5 6.40007V4.41421ZM7.5 9C7.5 8.44772 7.94772 8 8.5 8H10.5C11.0523 8 11.5 8.44772 11.5 9C11.5 9.55229 11.0523 10 10.5 10H8.5C7.94772 10 7.5 9.55229 7.5 9ZM7.5 13C7.5 12.4477 7.94772 12 8.5 12H16.5C17.0523 12 17.5 12.4477 17.5 13C17.5 13.5523 17.0523 14 16.5 14H8.5C7.94772 14 7.5 13.5523 7.5 13ZM7.5 17C7.5 16.4477 7.94772 16 8.5 16H16.5C17.0523 16 17.5 16.4477 17.5 17C17.5 17.5523 17.0523 18 16.5 18H8.5C7.94772 18 7.5 17.5523 7.5 17Z" fill="#374151"/>
</svg>
