<svg width="20" height="20" viewBox="0 0 20 20" fill="none" xmlns="http://www.w3.org/2000/svg">
<path fill-rule="evenodd" clip-rule="evenodd" d="M14.9998 2.50065C14.0794 2.50065 13.3332 3.24684 13.3332 4.16732C13.3332 4.45674 13.4069 4.72893 13.5367 4.96611C13.5452 4.97898 13.5534 4.99215 13.5612 5.00563C13.5691 5.019 13.5764 5.03251 13.5834 5.04613C13.8775 5.51911 14.4019 5.83398 14.9998 5.83398C15.9203 5.83398 16.6665 5.08779 16.6665 4.16732C16.6665 3.24684 15.9203 2.50065 14.9998 2.50065ZM12.6316 6.51303C13.2356 7.12289 14.0736 7.50065 14.9998 7.50065C16.8408 7.50065 18.3332 6.00827 18.3332 4.16732C18.3332 2.32637 16.8408 0.833984 14.9998 0.833984C13.1589 0.833984 11.6665 2.32637 11.6665 4.16732C11.6665 4.4815 11.71 4.78553 11.7912 5.07372L7.36812 7.65494C6.76404 7.04508 5.92605 6.66732 4.99984 6.66732C3.15889 6.66732 1.6665 8.1597 1.6665 10.0007C1.6665 11.8416 3.15889 13.334 4.99984 13.334C5.92623 13.334 6.76435 12.9561 7.36846 12.346L11.7923 14.9239C11.7103 15.2132 11.6665 15.5185 11.6665 15.834C11.6665 17.6749 13.1589 19.1673 14.9998 19.1673C16.8408 19.1673 18.3332 17.6749 18.3332 15.834C18.3332 13.993 16.8408 12.5006 14.9998 12.5006C14.075 12.5006 13.2381 12.8773 12.6343 13.4855L8.20859 10.9066C8.28975 10.6185 8.33317 10.3147 8.33317 10.0007C8.33317 9.68647 8.2897 9.38244 8.20846 9.09425L12.6316 6.51303ZM6.41625 9.12184C6.42323 9.13546 6.43063 9.14896 6.43843 9.16234C6.4463 9.17582 6.45448 9.18899 6.46297 9.20185C6.59273 9.43904 6.6665 9.71123 6.6665 10.0007C6.6665 10.2901 6.59273 10.5623 6.46297 10.7994C6.45439 10.8125 6.44611 10.8258 6.43816 10.8394C6.43046 10.8526 6.42315 10.866 6.41625 10.8795C6.12217 11.3524 5.59778 11.6673 4.99984 11.6673C4.07936 11.6673 3.33317 10.9211 3.33317 10.0007C3.33317 9.08018 4.07936 8.33398 4.99984 8.33398C5.59778 8.33398 6.12217 8.64886 6.41625 9.12184ZM13.5126 15.081C13.5331 15.054 13.5523 15.0253 13.5698 14.9952C13.5867 14.9663 13.6016 14.9369 13.6146 14.9069C13.9137 14.4609 14.4225 14.1673 14.9998 14.1673C15.9203 14.1673 16.6665 14.9135 16.6665 15.834C16.6665 16.7545 15.9203 17.5006 14.9998 17.5006C14.0794 17.5006 13.3332 16.7545 13.3332 15.834C13.3332 15.563 13.3978 15.3072 13.5126 15.081Z" fill="#001940"/>
</svg>
