<svg width="24" height="24" viewBox="0 0 24 24" fill="none" xmlns="http://www.w3.org/2000/svg">
<g clip-path="url(#clip0_750_125678)">
<path d="M11.2968 7.73438C11.2968 7.34583 10.9823 7.03125 10.5937 7.03125H9.47861L11.0908 5.41901C11.2921 5.21777 11.3525 4.91565 11.2434 4.65271C11.1348 4.38977 10.8779 4.21875 10.5937 4.21875H7.78122C7.39267 4.21875 7.07809 4.53333 7.07809 4.92188C7.07809 5.31042 7.39267 5.625 7.78122 5.625H8.89633L7.28409 7.23724C7.08285 7.43848 7.02243 7.7406 7.13156 8.00354C7.24014 8.26648 7.49686 8.4375 7.78122 8.4375H10.5937C10.9823 8.4375 11.2968 8.12292 11.2968 7.73438Z" fill="#1C9401"/>
<path d="M12.7567 3.78479C12.8651 4.04773 13.122 4.21875 13.4062 4.21875H16.2187C16.6072 4.21875 16.9218 3.90417 16.9218 3.51562C16.9218 3.12708 16.6072 2.8125 16.2187 2.8125H15.1036L16.7158 1.20026C16.917 0.999023 16.9775 0.696899 16.8683 0.43396C16.7597 0.171021 16.5028 0 16.2187 0H13.4062C13.0176 0 12.703 0.314575 12.703 0.703125C12.703 1.09167 13.0176 1.40625 13.4062 1.40625H14.5213L12.909 3.01849C12.7078 3.21973 12.6474 3.52185 12.7567 3.78479Z" fill="#1C9401"/>
<path d="M21.8906 11.25H12C10.8369 11.25 9.89062 12.1963 9.89062 13.3594V16.1719C9.89062 16.5604 10.2052 16.875 10.5938 16.875H24V13.3594C24 12.1963 23.0537 11.25 21.8906 11.25Z" fill="#1C9401"/>
<path d="M8.48438 16.1719V15.4688H1.40625V7.73438C1.40625 7.34583 1.09167 7.03125 0.703125 7.03125C0.314575 7.03125 0 7.34583 0 7.73438V23.2969C0 23.6854 0.314575 24 0.703125 24C1.09167 24 1.40625 23.6854 1.40625 23.2969V21.1406H22.5938V23.2969C22.5938 23.6852 22.9085 24 23.2969 24C23.6852 24 24 23.6852 24 23.2969V18.2812H10.5938C9.42883 18.2812 8.48438 17.3368 8.48438 16.1719Z" fill="#1C9401"/>
<path d="M8.48438 11.9531C8.48438 13.118 7.53992 14.0625 6.375 14.0625C5.21008 14.0625 4.26562 13.118 4.26562 11.9531C4.26562 10.7882 5.21008 9.84375 6.375 9.84375C7.53992 9.84375 8.48438 10.7882 8.48438 11.9531Z" fill="#1C9401"/>
</g>
<defs>
<clipPath id="clip0_750_125678">
<rect width="24" height="24" fill="white"/>
</clipPath>
</defs>
</svg>
