<svg width="24" height="24" viewBox="0 0 24 24" fill="none" xmlns="http://www.w3.org/2000/svg">
<g clip-path="url(#clip0_750_125693)">
<path d="M16.836 11.6338H15V11.6398C13.776 11.6398 12.78 10.4638 12.78 9.23982C12.78 8.01582 13.776 7.13984 15 7.13984V5.33984C12.786 5.33984 10.98 7.13984 10.98 9.35986C10.98 11.5799 12.78 13.3799 15 13.3799V13.3739H16.836C18.09 13.3739 19.2 14.2619 19.2 15.8399V17.3998H21V15.4258C21 13.2658 19.08 11.6338 16.836 11.6338Z" fill="#F0BB00"/>
<path d="M21.0002 18.6016H19.2002V22.2016H21.0002V18.6016Z" fill="#F0BB00"/>
<path d="M18 18.6016H0V22.2016H18V18.6016Z" fill="#F0BB00"/>
<path d="M20.2199 8.67678C20.9579 7.95076 21.4199 6.9368 21.4199 5.8208C21.4199 3.60078 19.6139 1.80078 17.3999 1.80078V3.60078C18.6239 3.60078 19.6199 4.5968 19.6199 5.8208C19.6199 7.0448 18.6239 8.04081 17.3999 8.04081V9.84081C20.0939 9.84081 22.1999 12.0308 22.1999 14.7248V17.4008H23.9999V14.7188C23.9999 12.0488 22.4639 9.74479 20.2199 8.67678Z" fill="#F0BB00"/>
<path d="M24.0002 18.6016H22.2002V22.2016H24.0002V18.6016Z" fill="#F0BB00"/>
</g>
<defs>
<clipPath id="clip0_750_125693">
<rect width="24" height="24" fill="white"/>
</clipPath>
</defs>
</svg>
