<svg width="32" height="32" viewBox="0 0 32 32" fill="none" xmlns="http://www.w3.org/2000/svg">
<path d="M13.5 12C16.2614 12 18.5 9.76142 18.5 7C18.5 4.23858 16.2614 2 13.5 2C10.7386 2 8.5 4.23858 8.5 7C8.5 9.76142 10.7386 12 13.5 12Z" fill="#6938EF"/>
<path d="M21.4886 17.1648C19.5437 14.5087 16.6694 13 13.5 13C10.6549 13 8.02637 14.2178 6.09869 16.4291C4.15731 18.6561 3.06337 21.7603 3.00269 25.1973C4.15044 25.7761 8.86325 28 13.5 28C14.687 27.9956 15.871 27.8829 17.0375 27.6633C16.4527 26.7128 16.1037 25.6361 16.0198 24.5232C15.9359 23.4103 16.1194 22.2935 16.555 21.266C16.9907 20.2384 17.6658 19.33 18.524 18.6166C19.3823 17.9032 20.3987 17.4054 21.4886 17.1648Z" fill="#6938EF"/>
<path d="M23 18C21.8133 18 20.6533 18.3519 19.6666 19.0112C18.6799 19.6705 17.9109 20.6075 17.4567 21.7039C17.0026 22.8003 16.8838 24.0067 17.1153 25.1705C17.3468 26.3344 17.9182 27.4035 18.7574 28.2426C19.5965 29.0818 20.6656 29.6532 21.8295 29.8847C22.9933 30.1162 24.1997 29.9974 25.2961 29.5433C26.3925 29.0892 27.3295 28.3201 27.9888 27.3334C28.6481 26.3467 29 25.1867 29 24C28.9982 22.4092 28.3655 20.8842 27.2407 19.7593C26.1158 18.6345 24.5908 18.0018 23 18ZM26.5 24.5H23C22.9267 24.5 22.8543 24.4839 22.7879 24.4528C22.7215 24.4217 22.6628 24.3764 22.6159 24.3201L20.1159 21.3201C20.031 21.2182 19.99 21.0868 20.002 20.9547C20.014 20.8227 20.078 20.7008 20.1799 20.6159C20.2818 20.531 20.4132 20.49 20.5453 20.502C20.6773 20.514 20.7992 20.578 20.8841 20.6799L23.2342 23.5H26.5C26.6326 23.5 26.7598 23.5527 26.8536 23.6464C26.9473 23.7402 27 23.8674 27 24C27 24.1326 26.9473 24.2598 26.8536 24.3536C26.7598 24.4473 26.6326 24.5 26.5 24.5Z" fill="#6938EF"/>
</svg>
