<svg width="20" height="21" viewBox="0 0 20 21" fill="none" xmlns="http://www.w3.org/2000/svg">
<path fill-rule="evenodd" clip-rule="evenodd" d="M8.3335 4.66667C8.3335 3.74619 9.07969 3 10.0002 3C10.9206 3 11.6668 3.74619 11.6668 4.66667C11.6668 5.58714 10.9206 6.33333 10.0002 6.33333C9.07969 6.33333 8.3335 5.58714 8.3335 4.66667ZM8.3335 10.5C8.3335 9.57953 9.07969 8.83333 10.0002 8.83333C10.9206 8.83333 11.6668 9.57953 11.6668 10.5C11.6668 11.4205 10.9206 12.1667 10.0002 12.1667C9.07969 12.1667 8.3335 11.4205 8.3335 10.5ZM8.3335 16.3333C8.3335 15.4129 9.07969 14.6667 10.0002 14.6667C10.9206 14.6667 11.6668 15.4129 11.6668 16.3333C11.6668 17.2538 10.9206 18 10.0002 18C9.07969 18 8.3335 17.2538 8.3335 16.3333Z" fill="#374151"/>
</svg>
