<svg width="24" height="24" viewBox="0 0 24 24" fill="none" xmlns="http://www.w3.org/2000/svg">
<g clip-path="url(#clip0_4937_132262)">
<path d="M17.4437 11.0059C17.4038 14.6452 16.9588 16.648 16.564 18.4245C16.2183 19.9803 15.9161 21.3401 15.8711 23.999H17.6274C17.6685 21.5508 17.9291 20.378 18.2785 18.8055C18.6724 17.0331 19.1584 14.846 19.2001 11.0064C18.914 11.0468 18.6219 11.0681 18.3248 11.0681C18.0278 11.0682 17.7336 11.0468 17.4437 11.0059Z" fill="white"/>
<path d="M11.1196 11.0059C11.0846 13.9295 10.7616 15.3842 10.3908 17.0529C10.0178 18.7314 9.5983 20.6193 9.54688 23.9991H11.3033C11.3525 20.8212 11.7349 19.1012 12.1053 17.4339C12.4823 15.7376 12.8392 14.1294 12.8759 11.0069C12.588 11.0472 12.2959 11.0682 12.0011 11.0682C11.704 11.0682 11.4097 11.0468 11.1196 11.0059Z" fill="white"/>
<path d="M4.79373 11.0059C4.76486 13.2087 4.55228 14.1669 4.21577 15.6813C3.81616 17.4794 3.27672 19.9063 3.2207 23.9994H4.97711C5.03092 20.109 5.52714 17.8763 5.93027 16.0624C6.268 14.5424 6.51817 13.4157 6.55009 11.0072C6.26223 11.0475 5.9702 11.0685 5.67541 11.0685C5.37616 11.0685 5.08187 11.0468 4.79373 11.0059Z" fill="white"/>
<path d="M18.3256 0C17.3319 0 16.3774 0.299484 15.5653 0.866062L15.163 1.14666L14.7607 0.866062C13.9485 0.299484 12.994 0 12.0004 0C11.0067 0 10.0522 0.299484 9.24005 0.866062L8.83777 1.14666L8.43548 0.866062C7.62333 0.299484 6.66881 0 5.67516 0C3.01111 0 0.84375 2.16736 0.84375 4.83141C0.84375 7.49545 3.01111 9.66281 5.67516 9.66281C6.66891 9.66281 7.62338 9.36333 8.43548 8.79679L8.83781 8.51611L9.24014 8.79679C10.0523 9.36333 11.0067 9.66281 12.0004 9.66281C12.9941 9.66281 13.9486 9.36333 14.7607 8.79679L15.163 8.51611L15.5654 8.79679C16.3775 9.36333 17.3319 9.66281 18.3257 9.66281C20.9897 9.66281 23.1571 7.49545 23.1571 4.83141C23.1571 2.16736 20.9896 0 18.3256 0Z" fill="white"/>
</g>
<defs>
<clipPath id="clip0_4937_132262">
<rect width="24" height="24" fill="white"/>
</clipPath>
</defs>
</svg>
