<svg width="24" height="24" viewBox="0 0 24 24" fill="none" xmlns="http://www.w3.org/2000/svg">
<g clip-path="url(#clip0_2739_121234)">
<path d="M12 0C5.37281 0 0 5.37281 0 12C0 18.6272 5.37281 24 12 24C18.6272 24 24 18.6272 24 12C24 5.37281 18.6272 0 12 0Z" fill="white"/>
<path d="M13.3127 10.9128L18.4498 4.94141H17.2325L12.772 10.1263L9.20937 4.94141H5.10034L10.4877 12.7819L5.10034 19.0438H6.31773L11.0281 13.5684L14.7905 19.0438H18.8995L13.3124 10.9128H13.3127ZM6.75636 5.85785H8.62619L17.233 18.1691H15.3632L6.75636 5.85785Z" fill="black"/>
</g>
<defs>
<clipPath id="clip0_2739_121234">
<rect width="24" height="24" fill="white"/>
</clipPath>
</defs>
</svg>
