<svg width="20" height="20" viewBox="0 0 20 20" fill="none" xmlns="http://www.w3.org/2000/svg">
<path fill-rule="evenodd" clip-rule="evenodd" d="M9.41058 1.91009C9.73602 1.58466 10.2637 1.58466 10.5891 1.91009L14.7558 6.07676C15.0812 6.4022 15.0812 6.92983 14.7558 7.25527C14.4303 7.58071 13.9027 7.58071 13.5772 7.25527L10.8332 4.51119V12.4993C10.8332 12.9596 10.4601 13.3327 9.99984 13.3327C9.5396 13.3327 9.1665 12.9596 9.1665 12.4993V4.51119L6.42243 7.25527C6.09699 7.58071 5.56935 7.58071 5.24392 7.25527C4.91848 6.92983 4.91848 6.4022 5.24392 6.07676L9.41058 1.91009ZM2.49984 11.666C2.96008 11.666 3.33317 12.0391 3.33317 12.4993V13.4993C3.33317 14.2132 3.33382 14.6984 3.36446 15.0735C3.39431 15.4388 3.44842 15.6257 3.51483 15.756C3.67462 16.0696 3.92958 16.3246 4.24319 16.4844C4.37352 16.5508 4.56036 16.6049 4.9257 16.6347C5.30078 16.6654 5.78602 16.666 6.49984 16.666H13.4998C14.2137 16.666 14.6989 16.6654 15.074 16.6347C15.4393 16.6049 15.6262 16.5508 15.7565 16.4844C16.0701 16.3246 16.3251 16.0696 16.4848 15.756C16.5513 15.6257 16.6054 15.4388 16.6352 15.0735C16.6659 14.6984 16.6665 14.2132 16.6665 13.4993V12.4993C16.6665 12.0391 17.0396 11.666 17.4998 11.666C17.9601 11.666 18.3332 12.0391 18.3332 12.4993V13.5338C18.3332 14.2046 18.3332 14.7582 18.2963 15.2092C18.2581 15.6776 18.1759 16.1082 17.9699 16.5127C17.6503 17.1399 17.1403 17.6498 16.5131 17.9694C16.1087 18.1754 15.6781 18.2576 15.2097 18.2959C14.7587 18.3327 14.2051 18.3327 13.5343 18.3327H6.4654C5.7946 18.3327 5.24097 18.3327 4.78998 18.2959C4.32157 18.2576 3.89098 18.1754 3.48654 17.9694C2.85933 17.6498 2.34939 17.1399 2.02982 16.5127C1.82374 16.1082 1.7416 15.6776 1.70333 15.2092C1.66648 14.7582 1.66649 14.2046 1.6665 13.5338L1.6665 12.4993C1.6665 12.0391 2.0396 11.666 2.49984 11.666Z" fill="white"/>
</svg>
