<svg width="25" height="24" viewBox="0 0 25 24" fill="none" xmlns="http://www.w3.org/2000/svg">
<path d="M23.3259 22.5873L20.7778 8.37145C20.6753 7.79915 20.1773 7.38255 19.5958 7.38255H15.3582C16.1527 6.59994 16.6465 5.51273 16.6465 4.31201C16.6465 1.93434 14.7122 0 12.3345 0C9.95682 0 8.02241 1.93434 8.02241 4.31201C8.02241 5.51273 8.51618 6.59994 9.31071 7.38255H5.07307C4.49156 7.38255 3.99371 7.79915 3.89108 8.37145L1.34305 22.5873C1.28037 22.9373 1.37587 23.2971 1.60411 23.5697C1.83226 23.8424 2.16952 23.9999 2.52504 23.9999H22.1439C22.4994 23.9999 22.8366 23.8424 23.0648 23.5697C23.293 23.2971 23.3885 22.9373 23.3259 22.5873ZM12.3345 2.40161C13.3879 2.40161 14.2449 3.25858 14.2449 4.31201C14.2449 5.36543 13.3879 6.22249 12.3345 6.22249C11.2811 6.22249 10.424 5.36543 10.424 4.31201C10.424 3.25858 11.2811 2.40161 12.3345 2.40161ZM12.0207 18.5825C11.9582 18.6978 11.8374 18.7696 11.7063 18.7696H11.1399C11.0129 18.7696 10.8954 18.7023 10.8312 18.5927L9.42927 16.1995L8.53275 17.1147V18.2168C8.53275 18.5221 8.28522 18.7696 7.9799 18.7696C7.67457 18.7696 7.42705 18.5221 7.42705 18.2168V13.8461C7.42705 13.5408 7.67457 13.2932 7.9799 13.2932C8.28522 13.2932 8.53275 13.5408 8.53275 13.8461V15.725L10.6605 13.4089C10.7282 13.3352 10.8238 13.2932 10.9239 13.2932H11.41C11.5537 13.2932 11.6833 13.379 11.7394 13.5112C11.7954 13.6434 11.767 13.7963 11.6672 13.8995L10.1914 15.4261L12.0062 18.2168C12.0777 18.3269 12.0833 18.4672 12.0207 18.5825ZM17.4678 17.8532C17.4678 17.962 17.4181 18.0652 17.3332 18.133C17.1126 18.3091 16.8219 18.4671 16.4612 18.607C16.0215 18.7776 15.5763 18.8629 15.1256 18.8629C14.5528 18.8629 14.0536 18.7428 13.6276 18.5024C13.2019 18.2622 12.8817 17.9185 12.6676 17.4714C12.4534 17.0244 12.3463 16.5382 12.3463 16.0126C12.3463 15.4424 12.4659 14.9355 12.705 14.4923C12.944 14.049 13.2939 13.7092 13.7547 13.4725C14.1057 13.2907 14.5429 13.1997 15.0658 13.1997C15.7457 13.1997 16.2767 13.3424 16.6591 13.6275C16.8247 13.7511 16.9647 13.8951 17.0791 14.0595C17.1885 14.2166 17.2106 14.4185 17.1381 14.5955C17.0656 14.7727 16.9083 14.9012 16.7201 14.9364L16.7188 14.9366C16.4983 14.9779 16.2748 14.8802 16.1555 14.6903C16.0791 14.5688 15.9817 14.4648 15.8634 14.3783C15.6504 14.2226 15.3845 14.1448 15.0658 14.1448C14.5826 14.1448 14.1985 14.2981 13.9135 14.6043C13.6283 14.9107 13.4857 15.3652 13.4857 15.9678C13.4857 16.6179 13.6301 17.1053 13.9191 17.4303C14.2079 17.7553 14.5864 17.9178 15.0547 17.9178C15.2862 17.9178 15.5185 17.8724 15.7513 17.7814C15.9841 17.6905 16.184 17.5803 16.3509 17.4509V16.7559H15.5459C15.2911 16.7559 15.0847 16.5494 15.0847 16.2947C15.0847 16.0399 15.2912 15.8334 15.5459 15.8334H17.1101C17.3077 15.8334 17.4678 15.9936 17.4678 16.1911V17.8532Z" fill="white"/>
</svg>
